%TF.GenerationSoftware,KiCad,Pcbnew,7.0.1-0*%
%TF.CreationDate,2023-07-30T23:25:48+05:30*%
%TF.ProjectId,Keyboard_60%,4b657962-6f61-4726-945f-3630252e6b69,rev?*%
%TF.SameCoordinates,Original*%
%TF.FileFunction,Soldermask,Bot*%
%TF.FilePolarity,Negative*%
%FSLAX46Y46*%
G04 Gerber Fmt 4.6, Leading zero omitted, Abs format (unit mm)*
G04 Created by KiCad (PCBNEW 7.0.1-0) date 2023-07-30 23:25:48*
%MOMM*%
%LPD*%
G01*
G04 APERTURE LIST*
G04 Aperture macros list*
%AMRoundRect*
0 Rectangle with rounded corners*
0 $1 Rounding radius*
0 $2 $3 $4 $5 $6 $7 $8 $9 X,Y pos of 4 corners*
0 Add a 4 corners polygon primitive as box body*
4,1,4,$2,$3,$4,$5,$6,$7,$8,$9,$2,$3,0*
0 Add four circle primitives for the rounded corners*
1,1,$1+$1,$2,$3*
1,1,$1+$1,$4,$5*
1,1,$1+$1,$6,$7*
1,1,$1+$1,$8,$9*
0 Add four rect primitives between the rounded corners*
20,1,$1+$1,$2,$3,$4,$5,0*
20,1,$1+$1,$4,$5,$6,$7,0*
20,1,$1+$1,$6,$7,$8,$9,0*
20,1,$1+$1,$8,$9,$2,$3,0*%
G04 Aperture macros list end*
%ADD10C,0.010000*%
%ADD11C,1.700000*%
%ADD12C,4.000000*%
%ADD13C,2.200000*%
%ADD14C,2.150000*%
%ADD15C,2.550000*%
%ADD16C,1.900000*%
%ADD17C,1.850000*%
%ADD18C,3.050000*%
%ADD19C,3.987800*%
%ADD20C,3.048000*%
%ADD21C,1.750000*%
%ADD22C,2.250000*%
%ADD23C,1.016000*%
%ADD24RoundRect,0.140000X-0.170000X0.140000X-0.170000X-0.140000X0.170000X-0.140000X0.170000X0.140000X0*%
%ADD25RoundRect,0.250000X0.400000X-0.250000X0.400000X0.250000X-0.400000X0.250000X-0.400000X-0.250000X0*%
%ADD26RoundRect,0.225000X0.225000X0.250000X-0.225000X0.250000X-0.225000X-0.250000X0.225000X-0.250000X0*%
%ADD27RoundRect,0.250000X-0.400000X0.250000X-0.400000X-0.250000X0.400000X-0.250000X0.400000X0.250000X0*%
%ADD28R,4.850000X4.850000*%
%ADD29C,0.600000*%
%ADD30C,0.250000*%
%ADD31R,1.800000X1.200000*%
%ADD32R,1.550000X0.600000*%
%ADD33RoundRect,0.135000X-0.135000X-0.185000X0.135000X-0.185000X0.135000X0.185000X-0.135000X0.185000X0*%
%ADD34RoundRect,0.225000X-0.250000X0.225000X-0.250000X-0.225000X0.250000X-0.225000X0.250000X0.225000X0*%
%ADD35RoundRect,0.250000X0.250000X0.400000X-0.250000X0.400000X-0.250000X-0.400000X0.250000X-0.400000X0*%
%ADD36R,0.800000X0.950000*%
%ADD37C,0.900000*%
%ADD38R,0.900000X1.250000*%
%ADD39RoundRect,0.150000X0.512500X0.150000X-0.512500X0.150000X-0.512500X-0.150000X0.512500X-0.150000X0*%
%ADD40RoundRect,0.140000X0.140000X0.170000X-0.140000X0.170000X-0.140000X-0.170000X0.140000X-0.170000X0*%
%ADD41RoundRect,0.250000X-0.475000X0.250000X-0.475000X-0.250000X0.475000X-0.250000X0.475000X0.250000X0*%
%ADD42RoundRect,0.135000X-0.185000X0.135000X-0.185000X-0.135000X0.185000X-0.135000X0.185000X0.135000X0*%
%ADD43RoundRect,0.140000X0.170000X-0.140000X0.170000X0.140000X-0.170000X0.140000X-0.170000X-0.140000X0*%
%ADD44RoundRect,0.147500X0.147500X0.172500X-0.147500X0.172500X-0.147500X-0.172500X0.147500X-0.172500X0*%
%ADD45RoundRect,0.218750X0.256250X-0.218750X0.256250X0.218750X-0.256250X0.218750X-0.256250X-0.218750X0*%
%ADD46RoundRect,0.135000X0.135000X0.185000X-0.135000X0.185000X-0.135000X-0.185000X0.135000X-0.185000X0*%
%ADD47RoundRect,0.140000X-0.140000X-0.170000X0.140000X-0.170000X0.140000X0.170000X-0.140000X0.170000X0*%
%ADD48R,1.350000X0.650000*%
%ADD49RoundRect,0.135000X0.185000X-0.135000X0.185000X0.135000X-0.185000X0.135000X-0.185000X-0.135000X0*%
%ADD50RoundRect,0.250000X-0.250000X-0.400000X0.250000X-0.400000X0.250000X0.400000X-0.250000X0.400000X0*%
%ADD51R,1.000000X1.500000*%
%ADD52R,1.400000X1.200000*%
%ADD53O,0.900000X1.700000*%
%ADD54O,0.900000X2.000000*%
%ADD55RoundRect,0.007800X0.422200X0.122200X-0.422200X0.122200X-0.422200X-0.122200X0.422200X-0.122200X0*%
%ADD56RoundRect,0.007800X0.122200X-0.422200X0.122200X0.422200X-0.122200X0.422200X-0.122200X-0.422200X0*%
%ADD57R,1.680000X1.680000*%
%ADD58R,0.500000X0.500000*%
%ADD59RoundRect,0.250000X-0.250000X-0.475000X0.250000X-0.475000X0.250000X0.475000X-0.250000X0.475000X0*%
G04 APERTURE END LIST*
%TO.C,U4*%
D10*
X65978000Y-63733500D02*
X65980000Y-63733500D01*
X65983000Y-63734500D01*
X65985000Y-63734500D01*
X65988000Y-63735500D01*
X65990000Y-63736500D01*
X65993000Y-63737500D01*
X65995000Y-63739500D01*
X65997000Y-63740500D01*
X65999000Y-63742500D01*
X66001000Y-63743500D01*
X66003000Y-63745500D01*
X66005000Y-63747500D01*
X66007000Y-63749500D01*
X66009000Y-63751500D01*
X66010000Y-63753500D01*
X66012000Y-63755500D01*
X66013000Y-63757500D01*
X66015000Y-63759500D01*
X66016000Y-63762500D01*
X66017000Y-63764500D01*
X66018000Y-63767500D01*
X66018000Y-63769500D01*
X66019000Y-63772500D01*
X66019000Y-63774500D01*
X66020000Y-63777500D01*
X66020000Y-63779500D01*
X66020000Y-63782500D01*
X66020000Y-64387500D01*
X66020000Y-64390500D01*
X66020000Y-64392500D01*
X66019000Y-64395500D01*
X66019000Y-64397500D01*
X66018000Y-64400500D01*
X66018000Y-64402500D01*
X66017000Y-64405500D01*
X66016000Y-64407500D01*
X66015000Y-64410500D01*
X66013000Y-64412500D01*
X66012000Y-64414500D01*
X66010000Y-64416500D01*
X66009000Y-64418500D01*
X66007000Y-64420500D01*
X66005000Y-64422500D01*
X66003000Y-64424500D01*
X66001000Y-64426500D01*
X65999000Y-64427500D01*
X65997000Y-64429500D01*
X65995000Y-64430500D01*
X65993000Y-64432500D01*
X65990000Y-64433500D01*
X65988000Y-64434500D01*
X65985000Y-64435500D01*
X65983000Y-64435500D01*
X65980000Y-64436500D01*
X65978000Y-64436500D01*
X65975000Y-64437500D01*
X65973000Y-64437500D01*
X65970000Y-64437500D01*
X65730000Y-64437500D01*
X65727000Y-64437500D01*
X65725000Y-64437500D01*
X65722000Y-64436500D01*
X65720000Y-64436500D01*
X65717000Y-64435500D01*
X65715000Y-64435500D01*
X65712000Y-64434500D01*
X65710000Y-64433500D01*
X65707000Y-64432500D01*
X65705000Y-64430500D01*
X65703000Y-64429500D01*
X65701000Y-64427500D01*
X65699000Y-64426500D01*
X65697000Y-64424500D01*
X65695000Y-64422500D01*
X65693000Y-64420500D01*
X65691000Y-64418500D01*
X65690000Y-64416500D01*
X65688000Y-64414500D01*
X65687000Y-64412500D01*
X65685000Y-64410500D01*
X65684000Y-64407500D01*
X65683000Y-64405500D01*
X65682000Y-64402500D01*
X65682000Y-64400500D01*
X65681000Y-64397500D01*
X65681000Y-64395500D01*
X65680000Y-64392500D01*
X65680000Y-64390500D01*
X65680000Y-64387500D01*
X65680000Y-63782500D01*
X65680000Y-63779500D01*
X65680000Y-63777500D01*
X65681000Y-63774500D01*
X65681000Y-63772500D01*
X65682000Y-63769500D01*
X65682000Y-63767500D01*
X65683000Y-63764500D01*
X65684000Y-63762500D01*
X65685000Y-63759500D01*
X65687000Y-63757500D01*
X65688000Y-63755500D01*
X65690000Y-63753500D01*
X65691000Y-63751500D01*
X65693000Y-63749500D01*
X65695000Y-63747500D01*
X65697000Y-63745500D01*
X65699000Y-63743500D01*
X65701000Y-63742500D01*
X65703000Y-63740500D01*
X65705000Y-63739500D01*
X65707000Y-63737500D01*
X65710000Y-63736500D01*
X65712000Y-63735500D01*
X65715000Y-63734500D01*
X65717000Y-63734500D01*
X65720000Y-63733500D01*
X65722000Y-63733500D01*
X65725000Y-63732500D01*
X65727000Y-63732500D01*
X65730000Y-63732500D01*
X65970000Y-63732500D01*
X65973000Y-63732500D01*
X65975000Y-63732500D01*
X65978000Y-63733500D01*
G36*
X65978000Y-63733500D02*
G01*
X65980000Y-63733500D01*
X65983000Y-63734500D01*
X65985000Y-63734500D01*
X65988000Y-63735500D01*
X65990000Y-63736500D01*
X65993000Y-63737500D01*
X65995000Y-63739500D01*
X65997000Y-63740500D01*
X65999000Y-63742500D01*
X66001000Y-63743500D01*
X66003000Y-63745500D01*
X66005000Y-63747500D01*
X66007000Y-63749500D01*
X66009000Y-63751500D01*
X66010000Y-63753500D01*
X66012000Y-63755500D01*
X66013000Y-63757500D01*
X66015000Y-63759500D01*
X66016000Y-63762500D01*
X66017000Y-63764500D01*
X66018000Y-63767500D01*
X66018000Y-63769500D01*
X66019000Y-63772500D01*
X66019000Y-63774500D01*
X66020000Y-63777500D01*
X66020000Y-63779500D01*
X66020000Y-63782500D01*
X66020000Y-64387500D01*
X66020000Y-64390500D01*
X66020000Y-64392500D01*
X66019000Y-64395500D01*
X66019000Y-64397500D01*
X66018000Y-64400500D01*
X66018000Y-64402500D01*
X66017000Y-64405500D01*
X66016000Y-64407500D01*
X66015000Y-64410500D01*
X66013000Y-64412500D01*
X66012000Y-64414500D01*
X66010000Y-64416500D01*
X66009000Y-64418500D01*
X66007000Y-64420500D01*
X66005000Y-64422500D01*
X66003000Y-64424500D01*
X66001000Y-64426500D01*
X65999000Y-64427500D01*
X65997000Y-64429500D01*
X65995000Y-64430500D01*
X65993000Y-64432500D01*
X65990000Y-64433500D01*
X65988000Y-64434500D01*
X65985000Y-64435500D01*
X65983000Y-64435500D01*
X65980000Y-64436500D01*
X65978000Y-64436500D01*
X65975000Y-64437500D01*
X65973000Y-64437500D01*
X65970000Y-64437500D01*
X65730000Y-64437500D01*
X65727000Y-64437500D01*
X65725000Y-64437500D01*
X65722000Y-64436500D01*
X65720000Y-64436500D01*
X65717000Y-64435500D01*
X65715000Y-64435500D01*
X65712000Y-64434500D01*
X65710000Y-64433500D01*
X65707000Y-64432500D01*
X65705000Y-64430500D01*
X65703000Y-64429500D01*
X65701000Y-64427500D01*
X65699000Y-64426500D01*
X65697000Y-64424500D01*
X65695000Y-64422500D01*
X65693000Y-64420500D01*
X65691000Y-64418500D01*
X65690000Y-64416500D01*
X65688000Y-64414500D01*
X65687000Y-64412500D01*
X65685000Y-64410500D01*
X65684000Y-64407500D01*
X65683000Y-64405500D01*
X65682000Y-64402500D01*
X65682000Y-64400500D01*
X65681000Y-64397500D01*
X65681000Y-64395500D01*
X65680000Y-64392500D01*
X65680000Y-64390500D01*
X65680000Y-64387500D01*
X65680000Y-63782500D01*
X65680000Y-63779500D01*
X65680000Y-63777500D01*
X65681000Y-63774500D01*
X65681000Y-63772500D01*
X65682000Y-63769500D01*
X65682000Y-63767500D01*
X65683000Y-63764500D01*
X65684000Y-63762500D01*
X65685000Y-63759500D01*
X65687000Y-63757500D01*
X65688000Y-63755500D01*
X65690000Y-63753500D01*
X65691000Y-63751500D01*
X65693000Y-63749500D01*
X65695000Y-63747500D01*
X65697000Y-63745500D01*
X65699000Y-63743500D01*
X65701000Y-63742500D01*
X65703000Y-63740500D01*
X65705000Y-63739500D01*
X65707000Y-63737500D01*
X65710000Y-63736500D01*
X65712000Y-63735500D01*
X65715000Y-63734500D01*
X65717000Y-63734500D01*
X65720000Y-63733500D01*
X65722000Y-63733500D01*
X65725000Y-63732500D01*
X65727000Y-63732500D01*
X65730000Y-63732500D01*
X65970000Y-63732500D01*
X65973000Y-63732500D01*
X65975000Y-63732500D01*
X65978000Y-63733500D01*
G37*
X67078000Y-63733500D02*
X67080000Y-63733500D01*
X67083000Y-63734500D01*
X67085000Y-63734500D01*
X67088000Y-63735500D01*
X67090000Y-63736500D01*
X67093000Y-63737500D01*
X67095000Y-63739500D01*
X67097000Y-63740500D01*
X67099000Y-63742500D01*
X67101000Y-63743500D01*
X67103000Y-63745500D01*
X67105000Y-63747500D01*
X67107000Y-63749500D01*
X67109000Y-63751500D01*
X67110000Y-63753500D01*
X67112000Y-63755500D01*
X67113000Y-63757500D01*
X67115000Y-63759500D01*
X67116000Y-63762500D01*
X67117000Y-63764500D01*
X67118000Y-63767500D01*
X67118000Y-63769500D01*
X67119000Y-63772500D01*
X67119000Y-63774500D01*
X67120000Y-63777500D01*
X67120000Y-63779500D01*
X67120000Y-63782500D01*
X67120000Y-64387500D01*
X67120000Y-64390500D01*
X67120000Y-64392500D01*
X67119000Y-64395500D01*
X67119000Y-64397500D01*
X67118000Y-64400500D01*
X67118000Y-64402500D01*
X67117000Y-64405500D01*
X67116000Y-64407500D01*
X67115000Y-64410500D01*
X67113000Y-64412500D01*
X67112000Y-64414500D01*
X67110000Y-64416500D01*
X67109000Y-64418500D01*
X67107000Y-64420500D01*
X67105000Y-64422500D01*
X67103000Y-64424500D01*
X67101000Y-64426500D01*
X67099000Y-64427500D01*
X67097000Y-64429500D01*
X67095000Y-64430500D01*
X67093000Y-64432500D01*
X67090000Y-64433500D01*
X67088000Y-64434500D01*
X67085000Y-64435500D01*
X67083000Y-64435500D01*
X67080000Y-64436500D01*
X67078000Y-64436500D01*
X67075000Y-64437500D01*
X67073000Y-64437500D01*
X67070000Y-64437500D01*
X66630000Y-64437500D01*
X66627000Y-64437500D01*
X66625000Y-64437500D01*
X66622000Y-64436500D01*
X66620000Y-64436500D01*
X66617000Y-64435500D01*
X66615000Y-64435500D01*
X66612000Y-64434500D01*
X66610000Y-64433500D01*
X66607000Y-64432500D01*
X66605000Y-64430500D01*
X66603000Y-64429500D01*
X66601000Y-64427500D01*
X66599000Y-64426500D01*
X66597000Y-64424500D01*
X66595000Y-64422500D01*
X66593000Y-64420500D01*
X66591000Y-64418500D01*
X66590000Y-64416500D01*
X66588000Y-64414500D01*
X66587000Y-64412500D01*
X66585000Y-64410500D01*
X66584000Y-64407500D01*
X66583000Y-64405500D01*
X66582000Y-64402500D01*
X66582000Y-64400500D01*
X66581000Y-64397500D01*
X66581000Y-64395500D01*
X66580000Y-64392500D01*
X66580000Y-64390500D01*
X66580000Y-64387500D01*
X66580000Y-63782500D01*
X66580000Y-63779500D01*
X66580000Y-63777500D01*
X66581000Y-63774500D01*
X66581000Y-63772500D01*
X66582000Y-63769500D01*
X66582000Y-63767500D01*
X66583000Y-63764500D01*
X66584000Y-63762500D01*
X66585000Y-63759500D01*
X66587000Y-63757500D01*
X66588000Y-63755500D01*
X66590000Y-63753500D01*
X66591000Y-63751500D01*
X66593000Y-63749500D01*
X66595000Y-63747500D01*
X66597000Y-63745500D01*
X66599000Y-63743500D01*
X66601000Y-63742500D01*
X66603000Y-63740500D01*
X66605000Y-63739500D01*
X66607000Y-63737500D01*
X66610000Y-63736500D01*
X66612000Y-63735500D01*
X66615000Y-63734500D01*
X66617000Y-63734500D01*
X66620000Y-63733500D01*
X66622000Y-63733500D01*
X66625000Y-63732500D01*
X66627000Y-63732500D01*
X66630000Y-63732500D01*
X67070000Y-63732500D01*
X67073000Y-63732500D01*
X67075000Y-63732500D01*
X67078000Y-63733500D01*
G36*
X67078000Y-63733500D02*
G01*
X67080000Y-63733500D01*
X67083000Y-63734500D01*
X67085000Y-63734500D01*
X67088000Y-63735500D01*
X67090000Y-63736500D01*
X67093000Y-63737500D01*
X67095000Y-63739500D01*
X67097000Y-63740500D01*
X67099000Y-63742500D01*
X67101000Y-63743500D01*
X67103000Y-63745500D01*
X67105000Y-63747500D01*
X67107000Y-63749500D01*
X67109000Y-63751500D01*
X67110000Y-63753500D01*
X67112000Y-63755500D01*
X67113000Y-63757500D01*
X67115000Y-63759500D01*
X67116000Y-63762500D01*
X67117000Y-63764500D01*
X67118000Y-63767500D01*
X67118000Y-63769500D01*
X67119000Y-63772500D01*
X67119000Y-63774500D01*
X67120000Y-63777500D01*
X67120000Y-63779500D01*
X67120000Y-63782500D01*
X67120000Y-64387500D01*
X67120000Y-64390500D01*
X67120000Y-64392500D01*
X67119000Y-64395500D01*
X67119000Y-64397500D01*
X67118000Y-64400500D01*
X67118000Y-64402500D01*
X67117000Y-64405500D01*
X67116000Y-64407500D01*
X67115000Y-64410500D01*
X67113000Y-64412500D01*
X67112000Y-64414500D01*
X67110000Y-64416500D01*
X67109000Y-64418500D01*
X67107000Y-64420500D01*
X67105000Y-64422500D01*
X67103000Y-64424500D01*
X67101000Y-64426500D01*
X67099000Y-64427500D01*
X67097000Y-64429500D01*
X67095000Y-64430500D01*
X67093000Y-64432500D01*
X67090000Y-64433500D01*
X67088000Y-64434500D01*
X67085000Y-64435500D01*
X67083000Y-64435500D01*
X67080000Y-64436500D01*
X67078000Y-64436500D01*
X67075000Y-64437500D01*
X67073000Y-64437500D01*
X67070000Y-64437500D01*
X66630000Y-64437500D01*
X66627000Y-64437500D01*
X66625000Y-64437500D01*
X66622000Y-64436500D01*
X66620000Y-64436500D01*
X66617000Y-64435500D01*
X66615000Y-64435500D01*
X66612000Y-64434500D01*
X66610000Y-64433500D01*
X66607000Y-64432500D01*
X66605000Y-64430500D01*
X66603000Y-64429500D01*
X66601000Y-64427500D01*
X66599000Y-64426500D01*
X66597000Y-64424500D01*
X66595000Y-64422500D01*
X66593000Y-64420500D01*
X66591000Y-64418500D01*
X66590000Y-64416500D01*
X66588000Y-64414500D01*
X66587000Y-64412500D01*
X66585000Y-64410500D01*
X66584000Y-64407500D01*
X66583000Y-64405500D01*
X66582000Y-64402500D01*
X66582000Y-64400500D01*
X66581000Y-64397500D01*
X66581000Y-64395500D01*
X66580000Y-64392500D01*
X66580000Y-64390500D01*
X66580000Y-64387500D01*
X66580000Y-63782500D01*
X66580000Y-63779500D01*
X66580000Y-63777500D01*
X66581000Y-63774500D01*
X66581000Y-63772500D01*
X66582000Y-63769500D01*
X66582000Y-63767500D01*
X66583000Y-63764500D01*
X66584000Y-63762500D01*
X66585000Y-63759500D01*
X66587000Y-63757500D01*
X66588000Y-63755500D01*
X66590000Y-63753500D01*
X66591000Y-63751500D01*
X66593000Y-63749500D01*
X66595000Y-63747500D01*
X66597000Y-63745500D01*
X66599000Y-63743500D01*
X66601000Y-63742500D01*
X66603000Y-63740500D01*
X66605000Y-63739500D01*
X66607000Y-63737500D01*
X66610000Y-63736500D01*
X66612000Y-63735500D01*
X66615000Y-63734500D01*
X66617000Y-63734500D01*
X66620000Y-63733500D01*
X66622000Y-63733500D01*
X66625000Y-63732500D01*
X66627000Y-63732500D01*
X66630000Y-63732500D01*
X67070000Y-63732500D01*
X67073000Y-63732500D01*
X67075000Y-63732500D01*
X67078000Y-63733500D01*
G37*
X67978000Y-63733500D02*
X67980000Y-63733500D01*
X67983000Y-63734500D01*
X67985000Y-63734500D01*
X67988000Y-63735500D01*
X67990000Y-63736500D01*
X67993000Y-63737500D01*
X67995000Y-63739500D01*
X67997000Y-63740500D01*
X67999000Y-63742500D01*
X68001000Y-63743500D01*
X68003000Y-63745500D01*
X68005000Y-63747500D01*
X68007000Y-63749500D01*
X68009000Y-63751500D01*
X68010000Y-63753500D01*
X68012000Y-63755500D01*
X68013000Y-63757500D01*
X68015000Y-63759500D01*
X68016000Y-63762500D01*
X68017000Y-63764500D01*
X68018000Y-63767500D01*
X68018000Y-63769500D01*
X68019000Y-63772500D01*
X68019000Y-63774500D01*
X68020000Y-63777500D01*
X68020000Y-63779500D01*
X68020000Y-63782500D01*
X68020000Y-64387500D01*
X68020000Y-64390500D01*
X68020000Y-64392500D01*
X68019000Y-64395500D01*
X68019000Y-64397500D01*
X68018000Y-64400500D01*
X68018000Y-64402500D01*
X68017000Y-64405500D01*
X68016000Y-64407500D01*
X68015000Y-64410500D01*
X68013000Y-64412500D01*
X68012000Y-64414500D01*
X68010000Y-64416500D01*
X68009000Y-64418500D01*
X68007000Y-64420500D01*
X68005000Y-64422500D01*
X68003000Y-64424500D01*
X68001000Y-64426500D01*
X67999000Y-64427500D01*
X67997000Y-64429500D01*
X67995000Y-64430500D01*
X67993000Y-64432500D01*
X67990000Y-64433500D01*
X67988000Y-64434500D01*
X67985000Y-64435500D01*
X67983000Y-64435500D01*
X67980000Y-64436500D01*
X67978000Y-64436500D01*
X67975000Y-64437500D01*
X67973000Y-64437500D01*
X67970000Y-64437500D01*
X67730000Y-64437500D01*
X67727000Y-64437500D01*
X67725000Y-64437500D01*
X67722000Y-64436500D01*
X67720000Y-64436500D01*
X67717000Y-64435500D01*
X67715000Y-64435500D01*
X67712000Y-64434500D01*
X67710000Y-64433500D01*
X67707000Y-64432500D01*
X67705000Y-64430500D01*
X67703000Y-64429500D01*
X67701000Y-64427500D01*
X67699000Y-64426500D01*
X67697000Y-64424500D01*
X67695000Y-64422500D01*
X67693000Y-64420500D01*
X67691000Y-64418500D01*
X67690000Y-64416500D01*
X67688000Y-64414500D01*
X67687000Y-64412500D01*
X67685000Y-64410500D01*
X67684000Y-64407500D01*
X67683000Y-64405500D01*
X67682000Y-64402500D01*
X67682000Y-64400500D01*
X67681000Y-64397500D01*
X67681000Y-64395500D01*
X67680000Y-64392500D01*
X67680000Y-64390500D01*
X67680000Y-64387500D01*
X67680000Y-63782500D01*
X67680000Y-63779500D01*
X67680000Y-63777500D01*
X67681000Y-63774500D01*
X67681000Y-63772500D01*
X67682000Y-63769500D01*
X67682000Y-63767500D01*
X67683000Y-63764500D01*
X67684000Y-63762500D01*
X67685000Y-63759500D01*
X67687000Y-63757500D01*
X67688000Y-63755500D01*
X67690000Y-63753500D01*
X67691000Y-63751500D01*
X67693000Y-63749500D01*
X67695000Y-63747500D01*
X67697000Y-63745500D01*
X67699000Y-63743500D01*
X67701000Y-63742500D01*
X67703000Y-63740500D01*
X67705000Y-63739500D01*
X67707000Y-63737500D01*
X67710000Y-63736500D01*
X67712000Y-63735500D01*
X67715000Y-63734500D01*
X67717000Y-63734500D01*
X67720000Y-63733500D01*
X67722000Y-63733500D01*
X67725000Y-63732500D01*
X67727000Y-63732500D01*
X67730000Y-63732500D01*
X67970000Y-63732500D01*
X67973000Y-63732500D01*
X67975000Y-63732500D01*
X67978000Y-63733500D01*
G36*
X67978000Y-63733500D02*
G01*
X67980000Y-63733500D01*
X67983000Y-63734500D01*
X67985000Y-63734500D01*
X67988000Y-63735500D01*
X67990000Y-63736500D01*
X67993000Y-63737500D01*
X67995000Y-63739500D01*
X67997000Y-63740500D01*
X67999000Y-63742500D01*
X68001000Y-63743500D01*
X68003000Y-63745500D01*
X68005000Y-63747500D01*
X68007000Y-63749500D01*
X68009000Y-63751500D01*
X68010000Y-63753500D01*
X68012000Y-63755500D01*
X68013000Y-63757500D01*
X68015000Y-63759500D01*
X68016000Y-63762500D01*
X68017000Y-63764500D01*
X68018000Y-63767500D01*
X68018000Y-63769500D01*
X68019000Y-63772500D01*
X68019000Y-63774500D01*
X68020000Y-63777500D01*
X68020000Y-63779500D01*
X68020000Y-63782500D01*
X68020000Y-64387500D01*
X68020000Y-64390500D01*
X68020000Y-64392500D01*
X68019000Y-64395500D01*
X68019000Y-64397500D01*
X68018000Y-64400500D01*
X68018000Y-64402500D01*
X68017000Y-64405500D01*
X68016000Y-64407500D01*
X68015000Y-64410500D01*
X68013000Y-64412500D01*
X68012000Y-64414500D01*
X68010000Y-64416500D01*
X68009000Y-64418500D01*
X68007000Y-64420500D01*
X68005000Y-64422500D01*
X68003000Y-64424500D01*
X68001000Y-64426500D01*
X67999000Y-64427500D01*
X67997000Y-64429500D01*
X67995000Y-64430500D01*
X67993000Y-64432500D01*
X67990000Y-64433500D01*
X67988000Y-64434500D01*
X67985000Y-64435500D01*
X67983000Y-64435500D01*
X67980000Y-64436500D01*
X67978000Y-64436500D01*
X67975000Y-64437500D01*
X67973000Y-64437500D01*
X67970000Y-64437500D01*
X67730000Y-64437500D01*
X67727000Y-64437500D01*
X67725000Y-64437500D01*
X67722000Y-64436500D01*
X67720000Y-64436500D01*
X67717000Y-64435500D01*
X67715000Y-64435500D01*
X67712000Y-64434500D01*
X67710000Y-64433500D01*
X67707000Y-64432500D01*
X67705000Y-64430500D01*
X67703000Y-64429500D01*
X67701000Y-64427500D01*
X67699000Y-64426500D01*
X67697000Y-64424500D01*
X67695000Y-64422500D01*
X67693000Y-64420500D01*
X67691000Y-64418500D01*
X67690000Y-64416500D01*
X67688000Y-64414500D01*
X67687000Y-64412500D01*
X67685000Y-64410500D01*
X67684000Y-64407500D01*
X67683000Y-64405500D01*
X67682000Y-64402500D01*
X67682000Y-64400500D01*
X67681000Y-64397500D01*
X67681000Y-64395500D01*
X67680000Y-64392500D01*
X67680000Y-64390500D01*
X67680000Y-64387500D01*
X67680000Y-63782500D01*
X67680000Y-63779500D01*
X67680000Y-63777500D01*
X67681000Y-63774500D01*
X67681000Y-63772500D01*
X67682000Y-63769500D01*
X67682000Y-63767500D01*
X67683000Y-63764500D01*
X67684000Y-63762500D01*
X67685000Y-63759500D01*
X67687000Y-63757500D01*
X67688000Y-63755500D01*
X67690000Y-63753500D01*
X67691000Y-63751500D01*
X67693000Y-63749500D01*
X67695000Y-63747500D01*
X67697000Y-63745500D01*
X67699000Y-63743500D01*
X67701000Y-63742500D01*
X67703000Y-63740500D01*
X67705000Y-63739500D01*
X67707000Y-63737500D01*
X67710000Y-63736500D01*
X67712000Y-63735500D01*
X67715000Y-63734500D01*
X67717000Y-63734500D01*
X67720000Y-63733500D01*
X67722000Y-63733500D01*
X67725000Y-63732500D01*
X67727000Y-63732500D01*
X67730000Y-63732500D01*
X67970000Y-63732500D01*
X67973000Y-63732500D01*
X67975000Y-63732500D01*
X67978000Y-63733500D01*
G37*
X66478000Y-63733500D02*
X66480000Y-63733500D01*
X66483000Y-63734500D01*
X66485000Y-63734500D01*
X66488000Y-63735500D01*
X66490000Y-63736500D01*
X66493000Y-63737500D01*
X66495000Y-63739500D01*
X66497000Y-63740500D01*
X66499000Y-63742500D01*
X66501000Y-63743500D01*
X66503000Y-63745500D01*
X66505000Y-63747500D01*
X66507000Y-63749500D01*
X66509000Y-63751500D01*
X66510000Y-63753500D01*
X66512000Y-63755500D01*
X66513000Y-63757500D01*
X66515000Y-63759500D01*
X66516000Y-63762500D01*
X66517000Y-63764500D01*
X66518000Y-63767500D01*
X66518000Y-63769500D01*
X66519000Y-63772500D01*
X66519000Y-63774500D01*
X66520000Y-63777500D01*
X66520000Y-63779500D01*
X66520000Y-63782500D01*
X66520000Y-64387500D01*
X66520000Y-64390500D01*
X66520000Y-64392500D01*
X66519000Y-64395500D01*
X66519000Y-64397500D01*
X66518000Y-64400500D01*
X66518000Y-64402500D01*
X66517000Y-64405500D01*
X66516000Y-64407500D01*
X66515000Y-64410500D01*
X66513000Y-64412500D01*
X66512000Y-64414500D01*
X66510000Y-64416500D01*
X66509000Y-64418500D01*
X66507000Y-64420500D01*
X66505000Y-64422500D01*
X66503000Y-64424500D01*
X66501000Y-64426500D01*
X66499000Y-64427500D01*
X66497000Y-64429500D01*
X66495000Y-64430500D01*
X66493000Y-64432500D01*
X66490000Y-64433500D01*
X66488000Y-64434500D01*
X66485000Y-64435500D01*
X66483000Y-64435500D01*
X66480000Y-64436500D01*
X66478000Y-64436500D01*
X66475000Y-64437500D01*
X66473000Y-64437500D01*
X66470000Y-64437500D01*
X66230000Y-64437500D01*
X66227000Y-64437500D01*
X66225000Y-64437500D01*
X66222000Y-64436500D01*
X66220000Y-64436500D01*
X66217000Y-64435500D01*
X66215000Y-64435500D01*
X66212000Y-64434500D01*
X66210000Y-64433500D01*
X66207000Y-64432500D01*
X66205000Y-64430500D01*
X66203000Y-64429500D01*
X66201000Y-64427500D01*
X66199000Y-64426500D01*
X66197000Y-64424500D01*
X66195000Y-64422500D01*
X66193000Y-64420500D01*
X66191000Y-64418500D01*
X66190000Y-64416500D01*
X66188000Y-64414500D01*
X66187000Y-64412500D01*
X66185000Y-64410500D01*
X66184000Y-64407500D01*
X66183000Y-64405500D01*
X66182000Y-64402500D01*
X66182000Y-64400500D01*
X66181000Y-64397500D01*
X66181000Y-64395500D01*
X66180000Y-64392500D01*
X66180000Y-64390500D01*
X66180000Y-64387500D01*
X66180000Y-63782500D01*
X66180000Y-63779500D01*
X66180000Y-63777500D01*
X66181000Y-63774500D01*
X66181000Y-63772500D01*
X66182000Y-63769500D01*
X66182000Y-63767500D01*
X66183000Y-63764500D01*
X66184000Y-63762500D01*
X66185000Y-63759500D01*
X66187000Y-63757500D01*
X66188000Y-63755500D01*
X66190000Y-63753500D01*
X66191000Y-63751500D01*
X66193000Y-63749500D01*
X66195000Y-63747500D01*
X66197000Y-63745500D01*
X66199000Y-63743500D01*
X66201000Y-63742500D01*
X66203000Y-63740500D01*
X66205000Y-63739500D01*
X66207000Y-63737500D01*
X66210000Y-63736500D01*
X66212000Y-63735500D01*
X66215000Y-63734500D01*
X66217000Y-63734500D01*
X66220000Y-63733500D01*
X66222000Y-63733500D01*
X66225000Y-63732500D01*
X66227000Y-63732500D01*
X66230000Y-63732500D01*
X66470000Y-63732500D01*
X66473000Y-63732500D01*
X66475000Y-63732500D01*
X66478000Y-63733500D01*
G36*
X66478000Y-63733500D02*
G01*
X66480000Y-63733500D01*
X66483000Y-63734500D01*
X66485000Y-63734500D01*
X66488000Y-63735500D01*
X66490000Y-63736500D01*
X66493000Y-63737500D01*
X66495000Y-63739500D01*
X66497000Y-63740500D01*
X66499000Y-63742500D01*
X66501000Y-63743500D01*
X66503000Y-63745500D01*
X66505000Y-63747500D01*
X66507000Y-63749500D01*
X66509000Y-63751500D01*
X66510000Y-63753500D01*
X66512000Y-63755500D01*
X66513000Y-63757500D01*
X66515000Y-63759500D01*
X66516000Y-63762500D01*
X66517000Y-63764500D01*
X66518000Y-63767500D01*
X66518000Y-63769500D01*
X66519000Y-63772500D01*
X66519000Y-63774500D01*
X66520000Y-63777500D01*
X66520000Y-63779500D01*
X66520000Y-63782500D01*
X66520000Y-64387500D01*
X66520000Y-64390500D01*
X66520000Y-64392500D01*
X66519000Y-64395500D01*
X66519000Y-64397500D01*
X66518000Y-64400500D01*
X66518000Y-64402500D01*
X66517000Y-64405500D01*
X66516000Y-64407500D01*
X66515000Y-64410500D01*
X66513000Y-64412500D01*
X66512000Y-64414500D01*
X66510000Y-64416500D01*
X66509000Y-64418500D01*
X66507000Y-64420500D01*
X66505000Y-64422500D01*
X66503000Y-64424500D01*
X66501000Y-64426500D01*
X66499000Y-64427500D01*
X66497000Y-64429500D01*
X66495000Y-64430500D01*
X66493000Y-64432500D01*
X66490000Y-64433500D01*
X66488000Y-64434500D01*
X66485000Y-64435500D01*
X66483000Y-64435500D01*
X66480000Y-64436500D01*
X66478000Y-64436500D01*
X66475000Y-64437500D01*
X66473000Y-64437500D01*
X66470000Y-64437500D01*
X66230000Y-64437500D01*
X66227000Y-64437500D01*
X66225000Y-64437500D01*
X66222000Y-64436500D01*
X66220000Y-64436500D01*
X66217000Y-64435500D01*
X66215000Y-64435500D01*
X66212000Y-64434500D01*
X66210000Y-64433500D01*
X66207000Y-64432500D01*
X66205000Y-64430500D01*
X66203000Y-64429500D01*
X66201000Y-64427500D01*
X66199000Y-64426500D01*
X66197000Y-64424500D01*
X66195000Y-64422500D01*
X66193000Y-64420500D01*
X66191000Y-64418500D01*
X66190000Y-64416500D01*
X66188000Y-64414500D01*
X66187000Y-64412500D01*
X66185000Y-64410500D01*
X66184000Y-64407500D01*
X66183000Y-64405500D01*
X66182000Y-64402500D01*
X66182000Y-64400500D01*
X66181000Y-64397500D01*
X66181000Y-64395500D01*
X66180000Y-64392500D01*
X66180000Y-64390500D01*
X66180000Y-64387500D01*
X66180000Y-63782500D01*
X66180000Y-63779500D01*
X66180000Y-63777500D01*
X66181000Y-63774500D01*
X66181000Y-63772500D01*
X66182000Y-63769500D01*
X66182000Y-63767500D01*
X66183000Y-63764500D01*
X66184000Y-63762500D01*
X66185000Y-63759500D01*
X66187000Y-63757500D01*
X66188000Y-63755500D01*
X66190000Y-63753500D01*
X66191000Y-63751500D01*
X66193000Y-63749500D01*
X66195000Y-63747500D01*
X66197000Y-63745500D01*
X66199000Y-63743500D01*
X66201000Y-63742500D01*
X66203000Y-63740500D01*
X66205000Y-63739500D01*
X66207000Y-63737500D01*
X66210000Y-63736500D01*
X66212000Y-63735500D01*
X66215000Y-63734500D01*
X66217000Y-63734500D01*
X66220000Y-63733500D01*
X66222000Y-63733500D01*
X66225000Y-63732500D01*
X66227000Y-63732500D01*
X66230000Y-63732500D01*
X66470000Y-63732500D01*
X66473000Y-63732500D01*
X66475000Y-63732500D01*
X66478000Y-63733500D01*
G37*
X67478000Y-63733500D02*
X67480000Y-63733500D01*
X67483000Y-63734500D01*
X67485000Y-63734500D01*
X67488000Y-63735500D01*
X67490000Y-63736500D01*
X67493000Y-63737500D01*
X67495000Y-63739500D01*
X67497000Y-63740500D01*
X67499000Y-63742500D01*
X67501000Y-63743500D01*
X67503000Y-63745500D01*
X67505000Y-63747500D01*
X67507000Y-63749500D01*
X67509000Y-63751500D01*
X67510000Y-63753500D01*
X67512000Y-63755500D01*
X67513000Y-63757500D01*
X67515000Y-63759500D01*
X67516000Y-63762500D01*
X67517000Y-63764500D01*
X67518000Y-63767500D01*
X67518000Y-63769500D01*
X67519000Y-63772500D01*
X67519000Y-63774500D01*
X67520000Y-63777500D01*
X67520000Y-63779500D01*
X67520000Y-63782500D01*
X67520000Y-64387500D01*
X67520000Y-64390500D01*
X67520000Y-64392500D01*
X67519000Y-64395500D01*
X67519000Y-64397500D01*
X67518000Y-64400500D01*
X67518000Y-64402500D01*
X67517000Y-64405500D01*
X67516000Y-64407500D01*
X67515000Y-64410500D01*
X67513000Y-64412500D01*
X67512000Y-64414500D01*
X67510000Y-64416500D01*
X67509000Y-64418500D01*
X67507000Y-64420500D01*
X67505000Y-64422500D01*
X67503000Y-64424500D01*
X67501000Y-64426500D01*
X67499000Y-64427500D01*
X67497000Y-64429500D01*
X67495000Y-64430500D01*
X67493000Y-64432500D01*
X67490000Y-64433500D01*
X67488000Y-64434500D01*
X67485000Y-64435500D01*
X67483000Y-64435500D01*
X67480000Y-64436500D01*
X67478000Y-64436500D01*
X67475000Y-64437500D01*
X67473000Y-64437500D01*
X67470000Y-64437500D01*
X67230000Y-64437500D01*
X67227000Y-64437500D01*
X67225000Y-64437500D01*
X67222000Y-64436500D01*
X67220000Y-64436500D01*
X67217000Y-64435500D01*
X67215000Y-64435500D01*
X67212000Y-64434500D01*
X67210000Y-64433500D01*
X67207000Y-64432500D01*
X67205000Y-64430500D01*
X67203000Y-64429500D01*
X67201000Y-64427500D01*
X67199000Y-64426500D01*
X67197000Y-64424500D01*
X67195000Y-64422500D01*
X67193000Y-64420500D01*
X67191000Y-64418500D01*
X67190000Y-64416500D01*
X67188000Y-64414500D01*
X67187000Y-64412500D01*
X67185000Y-64410500D01*
X67184000Y-64407500D01*
X67183000Y-64405500D01*
X67182000Y-64402500D01*
X67182000Y-64400500D01*
X67181000Y-64397500D01*
X67181000Y-64395500D01*
X67180000Y-64392500D01*
X67180000Y-64390500D01*
X67180000Y-64387500D01*
X67180000Y-63782500D01*
X67180000Y-63779500D01*
X67180000Y-63777500D01*
X67181000Y-63774500D01*
X67181000Y-63772500D01*
X67182000Y-63769500D01*
X67182000Y-63767500D01*
X67183000Y-63764500D01*
X67184000Y-63762500D01*
X67185000Y-63759500D01*
X67187000Y-63757500D01*
X67188000Y-63755500D01*
X67190000Y-63753500D01*
X67191000Y-63751500D01*
X67193000Y-63749500D01*
X67195000Y-63747500D01*
X67197000Y-63745500D01*
X67199000Y-63743500D01*
X67201000Y-63742500D01*
X67203000Y-63740500D01*
X67205000Y-63739500D01*
X67207000Y-63737500D01*
X67210000Y-63736500D01*
X67212000Y-63735500D01*
X67215000Y-63734500D01*
X67217000Y-63734500D01*
X67220000Y-63733500D01*
X67222000Y-63733500D01*
X67225000Y-63732500D01*
X67227000Y-63732500D01*
X67230000Y-63732500D01*
X67470000Y-63732500D01*
X67473000Y-63732500D01*
X67475000Y-63732500D01*
X67478000Y-63733500D01*
G36*
X67478000Y-63733500D02*
G01*
X67480000Y-63733500D01*
X67483000Y-63734500D01*
X67485000Y-63734500D01*
X67488000Y-63735500D01*
X67490000Y-63736500D01*
X67493000Y-63737500D01*
X67495000Y-63739500D01*
X67497000Y-63740500D01*
X67499000Y-63742500D01*
X67501000Y-63743500D01*
X67503000Y-63745500D01*
X67505000Y-63747500D01*
X67507000Y-63749500D01*
X67509000Y-63751500D01*
X67510000Y-63753500D01*
X67512000Y-63755500D01*
X67513000Y-63757500D01*
X67515000Y-63759500D01*
X67516000Y-63762500D01*
X67517000Y-63764500D01*
X67518000Y-63767500D01*
X67518000Y-63769500D01*
X67519000Y-63772500D01*
X67519000Y-63774500D01*
X67520000Y-63777500D01*
X67520000Y-63779500D01*
X67520000Y-63782500D01*
X67520000Y-64387500D01*
X67520000Y-64390500D01*
X67520000Y-64392500D01*
X67519000Y-64395500D01*
X67519000Y-64397500D01*
X67518000Y-64400500D01*
X67518000Y-64402500D01*
X67517000Y-64405500D01*
X67516000Y-64407500D01*
X67515000Y-64410500D01*
X67513000Y-64412500D01*
X67512000Y-64414500D01*
X67510000Y-64416500D01*
X67509000Y-64418500D01*
X67507000Y-64420500D01*
X67505000Y-64422500D01*
X67503000Y-64424500D01*
X67501000Y-64426500D01*
X67499000Y-64427500D01*
X67497000Y-64429500D01*
X67495000Y-64430500D01*
X67493000Y-64432500D01*
X67490000Y-64433500D01*
X67488000Y-64434500D01*
X67485000Y-64435500D01*
X67483000Y-64435500D01*
X67480000Y-64436500D01*
X67478000Y-64436500D01*
X67475000Y-64437500D01*
X67473000Y-64437500D01*
X67470000Y-64437500D01*
X67230000Y-64437500D01*
X67227000Y-64437500D01*
X67225000Y-64437500D01*
X67222000Y-64436500D01*
X67220000Y-64436500D01*
X67217000Y-64435500D01*
X67215000Y-64435500D01*
X67212000Y-64434500D01*
X67210000Y-64433500D01*
X67207000Y-64432500D01*
X67205000Y-64430500D01*
X67203000Y-64429500D01*
X67201000Y-64427500D01*
X67199000Y-64426500D01*
X67197000Y-64424500D01*
X67195000Y-64422500D01*
X67193000Y-64420500D01*
X67191000Y-64418500D01*
X67190000Y-64416500D01*
X67188000Y-64414500D01*
X67187000Y-64412500D01*
X67185000Y-64410500D01*
X67184000Y-64407500D01*
X67183000Y-64405500D01*
X67182000Y-64402500D01*
X67182000Y-64400500D01*
X67181000Y-64397500D01*
X67181000Y-64395500D01*
X67180000Y-64392500D01*
X67180000Y-64390500D01*
X67180000Y-64387500D01*
X67180000Y-63782500D01*
X67180000Y-63779500D01*
X67180000Y-63777500D01*
X67181000Y-63774500D01*
X67181000Y-63772500D01*
X67182000Y-63769500D01*
X67182000Y-63767500D01*
X67183000Y-63764500D01*
X67184000Y-63762500D01*
X67185000Y-63759500D01*
X67187000Y-63757500D01*
X67188000Y-63755500D01*
X67190000Y-63753500D01*
X67191000Y-63751500D01*
X67193000Y-63749500D01*
X67195000Y-63747500D01*
X67197000Y-63745500D01*
X67199000Y-63743500D01*
X67201000Y-63742500D01*
X67203000Y-63740500D01*
X67205000Y-63739500D01*
X67207000Y-63737500D01*
X67210000Y-63736500D01*
X67212000Y-63735500D01*
X67215000Y-63734500D01*
X67217000Y-63734500D01*
X67220000Y-63733500D01*
X67222000Y-63733500D01*
X67225000Y-63732500D01*
X67227000Y-63732500D01*
X67230000Y-63732500D01*
X67470000Y-63732500D01*
X67473000Y-63732500D01*
X67475000Y-63732500D01*
X67478000Y-63733500D01*
G37*
X66478000Y-62898500D02*
X66480000Y-62898500D01*
X66483000Y-62899500D01*
X66485000Y-62899500D01*
X66488000Y-62900500D01*
X66490000Y-62901500D01*
X66493000Y-62902500D01*
X66495000Y-62904500D01*
X66497000Y-62905500D01*
X66499000Y-62907500D01*
X66501000Y-62908500D01*
X66503000Y-62910500D01*
X66505000Y-62912500D01*
X66507000Y-62914500D01*
X66509000Y-62916500D01*
X66510000Y-62918500D01*
X66512000Y-62920500D01*
X66513000Y-62922500D01*
X66515000Y-62924500D01*
X66516000Y-62927500D01*
X66517000Y-62929500D01*
X66518000Y-62932500D01*
X66518000Y-62934500D01*
X66519000Y-62937500D01*
X66519000Y-62939500D01*
X66520000Y-62942500D01*
X66520000Y-62944500D01*
X66520000Y-62947500D01*
X66520000Y-63552500D01*
X66520000Y-63555500D01*
X66520000Y-63557500D01*
X66519000Y-63560500D01*
X66519000Y-63562500D01*
X66518000Y-63565500D01*
X66518000Y-63567500D01*
X66517000Y-63570500D01*
X66516000Y-63572500D01*
X66515000Y-63575500D01*
X66513000Y-63577500D01*
X66512000Y-63579500D01*
X66510000Y-63581500D01*
X66509000Y-63583500D01*
X66507000Y-63585500D01*
X66505000Y-63587500D01*
X66503000Y-63589500D01*
X66501000Y-63591500D01*
X66499000Y-63592500D01*
X66497000Y-63594500D01*
X66495000Y-63595500D01*
X66493000Y-63597500D01*
X66490000Y-63598500D01*
X66488000Y-63599500D01*
X66485000Y-63600500D01*
X66483000Y-63600500D01*
X66480000Y-63601500D01*
X66478000Y-63601500D01*
X66475000Y-63602500D01*
X66473000Y-63602500D01*
X66470000Y-63602500D01*
X66230000Y-63602500D01*
X66227000Y-63602500D01*
X66225000Y-63602500D01*
X66222000Y-63601500D01*
X66220000Y-63601500D01*
X66217000Y-63600500D01*
X66215000Y-63600500D01*
X66212000Y-63599500D01*
X66210000Y-63598500D01*
X66207000Y-63597500D01*
X66205000Y-63595500D01*
X66203000Y-63594500D01*
X66201000Y-63592500D01*
X66199000Y-63591500D01*
X66197000Y-63589500D01*
X66195000Y-63587500D01*
X66193000Y-63585500D01*
X66191000Y-63583500D01*
X66190000Y-63581500D01*
X66188000Y-63579500D01*
X66187000Y-63577500D01*
X66185000Y-63575500D01*
X66184000Y-63572500D01*
X66183000Y-63570500D01*
X66182000Y-63567500D01*
X66182000Y-63565500D01*
X66181000Y-63562500D01*
X66181000Y-63560500D01*
X66180000Y-63557500D01*
X66180000Y-63555500D01*
X66180000Y-63552500D01*
X66180000Y-62947500D01*
X66180000Y-62944500D01*
X66180000Y-62942500D01*
X66181000Y-62939500D01*
X66181000Y-62937500D01*
X66182000Y-62934500D01*
X66182000Y-62932500D01*
X66183000Y-62929500D01*
X66184000Y-62927500D01*
X66185000Y-62924500D01*
X66187000Y-62922500D01*
X66188000Y-62920500D01*
X66190000Y-62918500D01*
X66191000Y-62916500D01*
X66193000Y-62914500D01*
X66195000Y-62912500D01*
X66197000Y-62910500D01*
X66199000Y-62908500D01*
X66201000Y-62907500D01*
X66203000Y-62905500D01*
X66205000Y-62904500D01*
X66207000Y-62902500D01*
X66210000Y-62901500D01*
X66212000Y-62900500D01*
X66215000Y-62899500D01*
X66217000Y-62899500D01*
X66220000Y-62898500D01*
X66222000Y-62898500D01*
X66225000Y-62897500D01*
X66227000Y-62897500D01*
X66230000Y-62897500D01*
X66470000Y-62897500D01*
X66473000Y-62897500D01*
X66475000Y-62897500D01*
X66478000Y-62898500D01*
G36*
X66478000Y-62898500D02*
G01*
X66480000Y-62898500D01*
X66483000Y-62899500D01*
X66485000Y-62899500D01*
X66488000Y-62900500D01*
X66490000Y-62901500D01*
X66493000Y-62902500D01*
X66495000Y-62904500D01*
X66497000Y-62905500D01*
X66499000Y-62907500D01*
X66501000Y-62908500D01*
X66503000Y-62910500D01*
X66505000Y-62912500D01*
X66507000Y-62914500D01*
X66509000Y-62916500D01*
X66510000Y-62918500D01*
X66512000Y-62920500D01*
X66513000Y-62922500D01*
X66515000Y-62924500D01*
X66516000Y-62927500D01*
X66517000Y-62929500D01*
X66518000Y-62932500D01*
X66518000Y-62934500D01*
X66519000Y-62937500D01*
X66519000Y-62939500D01*
X66520000Y-62942500D01*
X66520000Y-62944500D01*
X66520000Y-62947500D01*
X66520000Y-63552500D01*
X66520000Y-63555500D01*
X66520000Y-63557500D01*
X66519000Y-63560500D01*
X66519000Y-63562500D01*
X66518000Y-63565500D01*
X66518000Y-63567500D01*
X66517000Y-63570500D01*
X66516000Y-63572500D01*
X66515000Y-63575500D01*
X66513000Y-63577500D01*
X66512000Y-63579500D01*
X66510000Y-63581500D01*
X66509000Y-63583500D01*
X66507000Y-63585500D01*
X66505000Y-63587500D01*
X66503000Y-63589500D01*
X66501000Y-63591500D01*
X66499000Y-63592500D01*
X66497000Y-63594500D01*
X66495000Y-63595500D01*
X66493000Y-63597500D01*
X66490000Y-63598500D01*
X66488000Y-63599500D01*
X66485000Y-63600500D01*
X66483000Y-63600500D01*
X66480000Y-63601500D01*
X66478000Y-63601500D01*
X66475000Y-63602500D01*
X66473000Y-63602500D01*
X66470000Y-63602500D01*
X66230000Y-63602500D01*
X66227000Y-63602500D01*
X66225000Y-63602500D01*
X66222000Y-63601500D01*
X66220000Y-63601500D01*
X66217000Y-63600500D01*
X66215000Y-63600500D01*
X66212000Y-63599500D01*
X66210000Y-63598500D01*
X66207000Y-63597500D01*
X66205000Y-63595500D01*
X66203000Y-63594500D01*
X66201000Y-63592500D01*
X66199000Y-63591500D01*
X66197000Y-63589500D01*
X66195000Y-63587500D01*
X66193000Y-63585500D01*
X66191000Y-63583500D01*
X66190000Y-63581500D01*
X66188000Y-63579500D01*
X66187000Y-63577500D01*
X66185000Y-63575500D01*
X66184000Y-63572500D01*
X66183000Y-63570500D01*
X66182000Y-63567500D01*
X66182000Y-63565500D01*
X66181000Y-63562500D01*
X66181000Y-63560500D01*
X66180000Y-63557500D01*
X66180000Y-63555500D01*
X66180000Y-63552500D01*
X66180000Y-62947500D01*
X66180000Y-62944500D01*
X66180000Y-62942500D01*
X66181000Y-62939500D01*
X66181000Y-62937500D01*
X66182000Y-62934500D01*
X66182000Y-62932500D01*
X66183000Y-62929500D01*
X66184000Y-62927500D01*
X66185000Y-62924500D01*
X66187000Y-62922500D01*
X66188000Y-62920500D01*
X66190000Y-62918500D01*
X66191000Y-62916500D01*
X66193000Y-62914500D01*
X66195000Y-62912500D01*
X66197000Y-62910500D01*
X66199000Y-62908500D01*
X66201000Y-62907500D01*
X66203000Y-62905500D01*
X66205000Y-62904500D01*
X66207000Y-62902500D01*
X66210000Y-62901500D01*
X66212000Y-62900500D01*
X66215000Y-62899500D01*
X66217000Y-62899500D01*
X66220000Y-62898500D01*
X66222000Y-62898500D01*
X66225000Y-62897500D01*
X66227000Y-62897500D01*
X66230000Y-62897500D01*
X66470000Y-62897500D01*
X66473000Y-62897500D01*
X66475000Y-62897500D01*
X66478000Y-62898500D01*
G37*
X67478000Y-62898500D02*
X67480000Y-62898500D01*
X67483000Y-62899500D01*
X67485000Y-62899500D01*
X67488000Y-62900500D01*
X67490000Y-62901500D01*
X67493000Y-62902500D01*
X67495000Y-62904500D01*
X67497000Y-62905500D01*
X67499000Y-62907500D01*
X67501000Y-62908500D01*
X67503000Y-62910500D01*
X67505000Y-62912500D01*
X67507000Y-62914500D01*
X67509000Y-62916500D01*
X67510000Y-62918500D01*
X67512000Y-62920500D01*
X67513000Y-62922500D01*
X67515000Y-62924500D01*
X67516000Y-62927500D01*
X67517000Y-62929500D01*
X67518000Y-62932500D01*
X67518000Y-62934500D01*
X67519000Y-62937500D01*
X67519000Y-62939500D01*
X67520000Y-62942500D01*
X67520000Y-62944500D01*
X67520000Y-62947500D01*
X67520000Y-63552500D01*
X67520000Y-63555500D01*
X67520000Y-63557500D01*
X67519000Y-63560500D01*
X67519000Y-63562500D01*
X67518000Y-63565500D01*
X67518000Y-63567500D01*
X67517000Y-63570500D01*
X67516000Y-63572500D01*
X67515000Y-63575500D01*
X67513000Y-63577500D01*
X67512000Y-63579500D01*
X67510000Y-63581500D01*
X67509000Y-63583500D01*
X67507000Y-63585500D01*
X67505000Y-63587500D01*
X67503000Y-63589500D01*
X67501000Y-63591500D01*
X67499000Y-63592500D01*
X67497000Y-63594500D01*
X67495000Y-63595500D01*
X67493000Y-63597500D01*
X67490000Y-63598500D01*
X67488000Y-63599500D01*
X67485000Y-63600500D01*
X67483000Y-63600500D01*
X67480000Y-63601500D01*
X67478000Y-63601500D01*
X67475000Y-63602500D01*
X67473000Y-63602500D01*
X67470000Y-63602500D01*
X67230000Y-63602500D01*
X67227000Y-63602500D01*
X67225000Y-63602500D01*
X67222000Y-63601500D01*
X67220000Y-63601500D01*
X67217000Y-63600500D01*
X67215000Y-63600500D01*
X67212000Y-63599500D01*
X67210000Y-63598500D01*
X67207000Y-63597500D01*
X67205000Y-63595500D01*
X67203000Y-63594500D01*
X67201000Y-63592500D01*
X67199000Y-63591500D01*
X67197000Y-63589500D01*
X67195000Y-63587500D01*
X67193000Y-63585500D01*
X67191000Y-63583500D01*
X67190000Y-63581500D01*
X67188000Y-63579500D01*
X67187000Y-63577500D01*
X67185000Y-63575500D01*
X67184000Y-63572500D01*
X67183000Y-63570500D01*
X67182000Y-63567500D01*
X67182000Y-63565500D01*
X67181000Y-63562500D01*
X67181000Y-63560500D01*
X67180000Y-63557500D01*
X67180000Y-63555500D01*
X67180000Y-63552500D01*
X67180000Y-62947500D01*
X67180000Y-62944500D01*
X67180000Y-62942500D01*
X67181000Y-62939500D01*
X67181000Y-62937500D01*
X67182000Y-62934500D01*
X67182000Y-62932500D01*
X67183000Y-62929500D01*
X67184000Y-62927500D01*
X67185000Y-62924500D01*
X67187000Y-62922500D01*
X67188000Y-62920500D01*
X67190000Y-62918500D01*
X67191000Y-62916500D01*
X67193000Y-62914500D01*
X67195000Y-62912500D01*
X67197000Y-62910500D01*
X67199000Y-62908500D01*
X67201000Y-62907500D01*
X67203000Y-62905500D01*
X67205000Y-62904500D01*
X67207000Y-62902500D01*
X67210000Y-62901500D01*
X67212000Y-62900500D01*
X67215000Y-62899500D01*
X67217000Y-62899500D01*
X67220000Y-62898500D01*
X67222000Y-62898500D01*
X67225000Y-62897500D01*
X67227000Y-62897500D01*
X67230000Y-62897500D01*
X67470000Y-62897500D01*
X67473000Y-62897500D01*
X67475000Y-62897500D01*
X67478000Y-62898500D01*
G36*
X67478000Y-62898500D02*
G01*
X67480000Y-62898500D01*
X67483000Y-62899500D01*
X67485000Y-62899500D01*
X67488000Y-62900500D01*
X67490000Y-62901500D01*
X67493000Y-62902500D01*
X67495000Y-62904500D01*
X67497000Y-62905500D01*
X67499000Y-62907500D01*
X67501000Y-62908500D01*
X67503000Y-62910500D01*
X67505000Y-62912500D01*
X67507000Y-62914500D01*
X67509000Y-62916500D01*
X67510000Y-62918500D01*
X67512000Y-62920500D01*
X67513000Y-62922500D01*
X67515000Y-62924500D01*
X67516000Y-62927500D01*
X67517000Y-62929500D01*
X67518000Y-62932500D01*
X67518000Y-62934500D01*
X67519000Y-62937500D01*
X67519000Y-62939500D01*
X67520000Y-62942500D01*
X67520000Y-62944500D01*
X67520000Y-62947500D01*
X67520000Y-63552500D01*
X67520000Y-63555500D01*
X67520000Y-63557500D01*
X67519000Y-63560500D01*
X67519000Y-63562500D01*
X67518000Y-63565500D01*
X67518000Y-63567500D01*
X67517000Y-63570500D01*
X67516000Y-63572500D01*
X67515000Y-63575500D01*
X67513000Y-63577500D01*
X67512000Y-63579500D01*
X67510000Y-63581500D01*
X67509000Y-63583500D01*
X67507000Y-63585500D01*
X67505000Y-63587500D01*
X67503000Y-63589500D01*
X67501000Y-63591500D01*
X67499000Y-63592500D01*
X67497000Y-63594500D01*
X67495000Y-63595500D01*
X67493000Y-63597500D01*
X67490000Y-63598500D01*
X67488000Y-63599500D01*
X67485000Y-63600500D01*
X67483000Y-63600500D01*
X67480000Y-63601500D01*
X67478000Y-63601500D01*
X67475000Y-63602500D01*
X67473000Y-63602500D01*
X67470000Y-63602500D01*
X67230000Y-63602500D01*
X67227000Y-63602500D01*
X67225000Y-63602500D01*
X67222000Y-63601500D01*
X67220000Y-63601500D01*
X67217000Y-63600500D01*
X67215000Y-63600500D01*
X67212000Y-63599500D01*
X67210000Y-63598500D01*
X67207000Y-63597500D01*
X67205000Y-63595500D01*
X67203000Y-63594500D01*
X67201000Y-63592500D01*
X67199000Y-63591500D01*
X67197000Y-63589500D01*
X67195000Y-63587500D01*
X67193000Y-63585500D01*
X67191000Y-63583500D01*
X67190000Y-63581500D01*
X67188000Y-63579500D01*
X67187000Y-63577500D01*
X67185000Y-63575500D01*
X67184000Y-63572500D01*
X67183000Y-63570500D01*
X67182000Y-63567500D01*
X67182000Y-63565500D01*
X67181000Y-63562500D01*
X67181000Y-63560500D01*
X67180000Y-63557500D01*
X67180000Y-63555500D01*
X67180000Y-63552500D01*
X67180000Y-62947500D01*
X67180000Y-62944500D01*
X67180000Y-62942500D01*
X67181000Y-62939500D01*
X67181000Y-62937500D01*
X67182000Y-62934500D01*
X67182000Y-62932500D01*
X67183000Y-62929500D01*
X67184000Y-62927500D01*
X67185000Y-62924500D01*
X67187000Y-62922500D01*
X67188000Y-62920500D01*
X67190000Y-62918500D01*
X67191000Y-62916500D01*
X67193000Y-62914500D01*
X67195000Y-62912500D01*
X67197000Y-62910500D01*
X67199000Y-62908500D01*
X67201000Y-62907500D01*
X67203000Y-62905500D01*
X67205000Y-62904500D01*
X67207000Y-62902500D01*
X67210000Y-62901500D01*
X67212000Y-62900500D01*
X67215000Y-62899500D01*
X67217000Y-62899500D01*
X67220000Y-62898500D01*
X67222000Y-62898500D01*
X67225000Y-62897500D01*
X67227000Y-62897500D01*
X67230000Y-62897500D01*
X67470000Y-62897500D01*
X67473000Y-62897500D01*
X67475000Y-62897500D01*
X67478000Y-62898500D01*
G37*
X65978000Y-62898500D02*
X65980000Y-62898500D01*
X65983000Y-62899500D01*
X65985000Y-62899500D01*
X65988000Y-62900500D01*
X65990000Y-62901500D01*
X65993000Y-62902500D01*
X65995000Y-62904500D01*
X65997000Y-62905500D01*
X65999000Y-62907500D01*
X66001000Y-62908500D01*
X66003000Y-62910500D01*
X66005000Y-62912500D01*
X66007000Y-62914500D01*
X66009000Y-62916500D01*
X66010000Y-62918500D01*
X66012000Y-62920500D01*
X66013000Y-62922500D01*
X66015000Y-62924500D01*
X66016000Y-62927500D01*
X66017000Y-62929500D01*
X66018000Y-62932500D01*
X66018000Y-62934500D01*
X66019000Y-62937500D01*
X66019000Y-62939500D01*
X66020000Y-62942500D01*
X66020000Y-62944500D01*
X66020000Y-62947500D01*
X66020000Y-63552500D01*
X66020000Y-63555500D01*
X66020000Y-63557500D01*
X66019000Y-63560500D01*
X66019000Y-63562500D01*
X66018000Y-63565500D01*
X66018000Y-63567500D01*
X66017000Y-63570500D01*
X66016000Y-63572500D01*
X66015000Y-63575500D01*
X66013000Y-63577500D01*
X66012000Y-63579500D01*
X66010000Y-63581500D01*
X66009000Y-63583500D01*
X66007000Y-63585500D01*
X66005000Y-63587500D01*
X66003000Y-63589500D01*
X66001000Y-63591500D01*
X65999000Y-63592500D01*
X65997000Y-63594500D01*
X65995000Y-63595500D01*
X65993000Y-63597500D01*
X65990000Y-63598500D01*
X65988000Y-63599500D01*
X65985000Y-63600500D01*
X65983000Y-63600500D01*
X65980000Y-63601500D01*
X65978000Y-63601500D01*
X65975000Y-63602500D01*
X65973000Y-63602500D01*
X65970000Y-63602500D01*
X65730000Y-63602500D01*
X65727000Y-63602500D01*
X65725000Y-63602500D01*
X65722000Y-63601500D01*
X65720000Y-63601500D01*
X65717000Y-63600500D01*
X65715000Y-63600500D01*
X65712000Y-63599500D01*
X65710000Y-63598500D01*
X65707000Y-63597500D01*
X65705000Y-63595500D01*
X65703000Y-63594500D01*
X65701000Y-63592500D01*
X65699000Y-63591500D01*
X65697000Y-63589500D01*
X65695000Y-63587500D01*
X65693000Y-63585500D01*
X65691000Y-63583500D01*
X65690000Y-63581500D01*
X65688000Y-63579500D01*
X65687000Y-63577500D01*
X65685000Y-63575500D01*
X65684000Y-63572500D01*
X65683000Y-63570500D01*
X65682000Y-63567500D01*
X65682000Y-63565500D01*
X65681000Y-63562500D01*
X65681000Y-63560500D01*
X65680000Y-63557500D01*
X65680000Y-63555500D01*
X65680000Y-63552500D01*
X65680000Y-62947500D01*
X65680000Y-62944500D01*
X65680000Y-62942500D01*
X65681000Y-62939500D01*
X65681000Y-62937500D01*
X65682000Y-62934500D01*
X65682000Y-62932500D01*
X65683000Y-62929500D01*
X65684000Y-62927500D01*
X65685000Y-62924500D01*
X65687000Y-62922500D01*
X65688000Y-62920500D01*
X65690000Y-62918500D01*
X65691000Y-62916500D01*
X65693000Y-62914500D01*
X65695000Y-62912500D01*
X65697000Y-62910500D01*
X65699000Y-62908500D01*
X65701000Y-62907500D01*
X65703000Y-62905500D01*
X65705000Y-62904500D01*
X65707000Y-62902500D01*
X65710000Y-62901500D01*
X65712000Y-62900500D01*
X65715000Y-62899500D01*
X65717000Y-62899500D01*
X65720000Y-62898500D01*
X65722000Y-62898500D01*
X65725000Y-62897500D01*
X65727000Y-62897500D01*
X65730000Y-62897500D01*
X65970000Y-62897500D01*
X65973000Y-62897500D01*
X65975000Y-62897500D01*
X65978000Y-62898500D01*
G36*
X65978000Y-62898500D02*
G01*
X65980000Y-62898500D01*
X65983000Y-62899500D01*
X65985000Y-62899500D01*
X65988000Y-62900500D01*
X65990000Y-62901500D01*
X65993000Y-62902500D01*
X65995000Y-62904500D01*
X65997000Y-62905500D01*
X65999000Y-62907500D01*
X66001000Y-62908500D01*
X66003000Y-62910500D01*
X66005000Y-62912500D01*
X66007000Y-62914500D01*
X66009000Y-62916500D01*
X66010000Y-62918500D01*
X66012000Y-62920500D01*
X66013000Y-62922500D01*
X66015000Y-62924500D01*
X66016000Y-62927500D01*
X66017000Y-62929500D01*
X66018000Y-62932500D01*
X66018000Y-62934500D01*
X66019000Y-62937500D01*
X66019000Y-62939500D01*
X66020000Y-62942500D01*
X66020000Y-62944500D01*
X66020000Y-62947500D01*
X66020000Y-63552500D01*
X66020000Y-63555500D01*
X66020000Y-63557500D01*
X66019000Y-63560500D01*
X66019000Y-63562500D01*
X66018000Y-63565500D01*
X66018000Y-63567500D01*
X66017000Y-63570500D01*
X66016000Y-63572500D01*
X66015000Y-63575500D01*
X66013000Y-63577500D01*
X66012000Y-63579500D01*
X66010000Y-63581500D01*
X66009000Y-63583500D01*
X66007000Y-63585500D01*
X66005000Y-63587500D01*
X66003000Y-63589500D01*
X66001000Y-63591500D01*
X65999000Y-63592500D01*
X65997000Y-63594500D01*
X65995000Y-63595500D01*
X65993000Y-63597500D01*
X65990000Y-63598500D01*
X65988000Y-63599500D01*
X65985000Y-63600500D01*
X65983000Y-63600500D01*
X65980000Y-63601500D01*
X65978000Y-63601500D01*
X65975000Y-63602500D01*
X65973000Y-63602500D01*
X65970000Y-63602500D01*
X65730000Y-63602500D01*
X65727000Y-63602500D01*
X65725000Y-63602500D01*
X65722000Y-63601500D01*
X65720000Y-63601500D01*
X65717000Y-63600500D01*
X65715000Y-63600500D01*
X65712000Y-63599500D01*
X65710000Y-63598500D01*
X65707000Y-63597500D01*
X65705000Y-63595500D01*
X65703000Y-63594500D01*
X65701000Y-63592500D01*
X65699000Y-63591500D01*
X65697000Y-63589500D01*
X65695000Y-63587500D01*
X65693000Y-63585500D01*
X65691000Y-63583500D01*
X65690000Y-63581500D01*
X65688000Y-63579500D01*
X65687000Y-63577500D01*
X65685000Y-63575500D01*
X65684000Y-63572500D01*
X65683000Y-63570500D01*
X65682000Y-63567500D01*
X65682000Y-63565500D01*
X65681000Y-63562500D01*
X65681000Y-63560500D01*
X65680000Y-63557500D01*
X65680000Y-63555500D01*
X65680000Y-63552500D01*
X65680000Y-62947500D01*
X65680000Y-62944500D01*
X65680000Y-62942500D01*
X65681000Y-62939500D01*
X65681000Y-62937500D01*
X65682000Y-62934500D01*
X65682000Y-62932500D01*
X65683000Y-62929500D01*
X65684000Y-62927500D01*
X65685000Y-62924500D01*
X65687000Y-62922500D01*
X65688000Y-62920500D01*
X65690000Y-62918500D01*
X65691000Y-62916500D01*
X65693000Y-62914500D01*
X65695000Y-62912500D01*
X65697000Y-62910500D01*
X65699000Y-62908500D01*
X65701000Y-62907500D01*
X65703000Y-62905500D01*
X65705000Y-62904500D01*
X65707000Y-62902500D01*
X65710000Y-62901500D01*
X65712000Y-62900500D01*
X65715000Y-62899500D01*
X65717000Y-62899500D01*
X65720000Y-62898500D01*
X65722000Y-62898500D01*
X65725000Y-62897500D01*
X65727000Y-62897500D01*
X65730000Y-62897500D01*
X65970000Y-62897500D01*
X65973000Y-62897500D01*
X65975000Y-62897500D01*
X65978000Y-62898500D01*
G37*
X67078000Y-62898500D02*
X67080000Y-62898500D01*
X67083000Y-62899500D01*
X67085000Y-62899500D01*
X67088000Y-62900500D01*
X67090000Y-62901500D01*
X67093000Y-62902500D01*
X67095000Y-62904500D01*
X67097000Y-62905500D01*
X67099000Y-62907500D01*
X67101000Y-62908500D01*
X67103000Y-62910500D01*
X67105000Y-62912500D01*
X67107000Y-62914500D01*
X67109000Y-62916500D01*
X67110000Y-62918500D01*
X67112000Y-62920500D01*
X67113000Y-62922500D01*
X67115000Y-62924500D01*
X67116000Y-62927500D01*
X67117000Y-62929500D01*
X67118000Y-62932500D01*
X67118000Y-62934500D01*
X67119000Y-62937500D01*
X67119000Y-62939500D01*
X67120000Y-62942500D01*
X67120000Y-62944500D01*
X67120000Y-62947500D01*
X67120000Y-63552500D01*
X67120000Y-63555500D01*
X67120000Y-63557500D01*
X67119000Y-63560500D01*
X67119000Y-63562500D01*
X67118000Y-63565500D01*
X67118000Y-63567500D01*
X67117000Y-63570500D01*
X67116000Y-63572500D01*
X67115000Y-63575500D01*
X67113000Y-63577500D01*
X67112000Y-63579500D01*
X67110000Y-63581500D01*
X67109000Y-63583500D01*
X67107000Y-63585500D01*
X67105000Y-63587500D01*
X67103000Y-63589500D01*
X67101000Y-63591500D01*
X67099000Y-63592500D01*
X67097000Y-63594500D01*
X67095000Y-63595500D01*
X67093000Y-63597500D01*
X67090000Y-63598500D01*
X67088000Y-63599500D01*
X67085000Y-63600500D01*
X67083000Y-63600500D01*
X67080000Y-63601500D01*
X67078000Y-63601500D01*
X67075000Y-63602500D01*
X67073000Y-63602500D01*
X67070000Y-63602500D01*
X66630000Y-63602500D01*
X66627000Y-63602500D01*
X66625000Y-63602500D01*
X66622000Y-63601500D01*
X66620000Y-63601500D01*
X66617000Y-63600500D01*
X66615000Y-63600500D01*
X66612000Y-63599500D01*
X66610000Y-63598500D01*
X66607000Y-63597500D01*
X66605000Y-63595500D01*
X66603000Y-63594500D01*
X66601000Y-63592500D01*
X66599000Y-63591500D01*
X66597000Y-63589500D01*
X66595000Y-63587500D01*
X66593000Y-63585500D01*
X66591000Y-63583500D01*
X66590000Y-63581500D01*
X66588000Y-63579500D01*
X66587000Y-63577500D01*
X66585000Y-63575500D01*
X66584000Y-63572500D01*
X66583000Y-63570500D01*
X66582000Y-63567500D01*
X66582000Y-63565500D01*
X66581000Y-63562500D01*
X66581000Y-63560500D01*
X66580000Y-63557500D01*
X66580000Y-63555500D01*
X66580000Y-63552500D01*
X66580000Y-62947500D01*
X66580000Y-62944500D01*
X66580000Y-62942500D01*
X66581000Y-62939500D01*
X66581000Y-62937500D01*
X66582000Y-62934500D01*
X66582000Y-62932500D01*
X66583000Y-62929500D01*
X66584000Y-62927500D01*
X66585000Y-62924500D01*
X66587000Y-62922500D01*
X66588000Y-62920500D01*
X66590000Y-62918500D01*
X66591000Y-62916500D01*
X66593000Y-62914500D01*
X66595000Y-62912500D01*
X66597000Y-62910500D01*
X66599000Y-62908500D01*
X66601000Y-62907500D01*
X66603000Y-62905500D01*
X66605000Y-62904500D01*
X66607000Y-62902500D01*
X66610000Y-62901500D01*
X66612000Y-62900500D01*
X66615000Y-62899500D01*
X66617000Y-62899500D01*
X66620000Y-62898500D01*
X66622000Y-62898500D01*
X66625000Y-62897500D01*
X66627000Y-62897500D01*
X66630000Y-62897500D01*
X67070000Y-62897500D01*
X67073000Y-62897500D01*
X67075000Y-62897500D01*
X67078000Y-62898500D01*
G36*
X67078000Y-62898500D02*
G01*
X67080000Y-62898500D01*
X67083000Y-62899500D01*
X67085000Y-62899500D01*
X67088000Y-62900500D01*
X67090000Y-62901500D01*
X67093000Y-62902500D01*
X67095000Y-62904500D01*
X67097000Y-62905500D01*
X67099000Y-62907500D01*
X67101000Y-62908500D01*
X67103000Y-62910500D01*
X67105000Y-62912500D01*
X67107000Y-62914500D01*
X67109000Y-62916500D01*
X67110000Y-62918500D01*
X67112000Y-62920500D01*
X67113000Y-62922500D01*
X67115000Y-62924500D01*
X67116000Y-62927500D01*
X67117000Y-62929500D01*
X67118000Y-62932500D01*
X67118000Y-62934500D01*
X67119000Y-62937500D01*
X67119000Y-62939500D01*
X67120000Y-62942500D01*
X67120000Y-62944500D01*
X67120000Y-62947500D01*
X67120000Y-63552500D01*
X67120000Y-63555500D01*
X67120000Y-63557500D01*
X67119000Y-63560500D01*
X67119000Y-63562500D01*
X67118000Y-63565500D01*
X67118000Y-63567500D01*
X67117000Y-63570500D01*
X67116000Y-63572500D01*
X67115000Y-63575500D01*
X67113000Y-63577500D01*
X67112000Y-63579500D01*
X67110000Y-63581500D01*
X67109000Y-63583500D01*
X67107000Y-63585500D01*
X67105000Y-63587500D01*
X67103000Y-63589500D01*
X67101000Y-63591500D01*
X67099000Y-63592500D01*
X67097000Y-63594500D01*
X67095000Y-63595500D01*
X67093000Y-63597500D01*
X67090000Y-63598500D01*
X67088000Y-63599500D01*
X67085000Y-63600500D01*
X67083000Y-63600500D01*
X67080000Y-63601500D01*
X67078000Y-63601500D01*
X67075000Y-63602500D01*
X67073000Y-63602500D01*
X67070000Y-63602500D01*
X66630000Y-63602500D01*
X66627000Y-63602500D01*
X66625000Y-63602500D01*
X66622000Y-63601500D01*
X66620000Y-63601500D01*
X66617000Y-63600500D01*
X66615000Y-63600500D01*
X66612000Y-63599500D01*
X66610000Y-63598500D01*
X66607000Y-63597500D01*
X66605000Y-63595500D01*
X66603000Y-63594500D01*
X66601000Y-63592500D01*
X66599000Y-63591500D01*
X66597000Y-63589500D01*
X66595000Y-63587500D01*
X66593000Y-63585500D01*
X66591000Y-63583500D01*
X66590000Y-63581500D01*
X66588000Y-63579500D01*
X66587000Y-63577500D01*
X66585000Y-63575500D01*
X66584000Y-63572500D01*
X66583000Y-63570500D01*
X66582000Y-63567500D01*
X66582000Y-63565500D01*
X66581000Y-63562500D01*
X66581000Y-63560500D01*
X66580000Y-63557500D01*
X66580000Y-63555500D01*
X66580000Y-63552500D01*
X66580000Y-62947500D01*
X66580000Y-62944500D01*
X66580000Y-62942500D01*
X66581000Y-62939500D01*
X66581000Y-62937500D01*
X66582000Y-62934500D01*
X66582000Y-62932500D01*
X66583000Y-62929500D01*
X66584000Y-62927500D01*
X66585000Y-62924500D01*
X66587000Y-62922500D01*
X66588000Y-62920500D01*
X66590000Y-62918500D01*
X66591000Y-62916500D01*
X66593000Y-62914500D01*
X66595000Y-62912500D01*
X66597000Y-62910500D01*
X66599000Y-62908500D01*
X66601000Y-62907500D01*
X66603000Y-62905500D01*
X66605000Y-62904500D01*
X66607000Y-62902500D01*
X66610000Y-62901500D01*
X66612000Y-62900500D01*
X66615000Y-62899500D01*
X66617000Y-62899500D01*
X66620000Y-62898500D01*
X66622000Y-62898500D01*
X66625000Y-62897500D01*
X66627000Y-62897500D01*
X66630000Y-62897500D01*
X67070000Y-62897500D01*
X67073000Y-62897500D01*
X67075000Y-62897500D01*
X67078000Y-62898500D01*
G37*
X67978000Y-62898500D02*
X67980000Y-62898500D01*
X67983000Y-62899500D01*
X67985000Y-62899500D01*
X67988000Y-62900500D01*
X67990000Y-62901500D01*
X67993000Y-62902500D01*
X67995000Y-62904500D01*
X67997000Y-62905500D01*
X67999000Y-62907500D01*
X68001000Y-62908500D01*
X68003000Y-62910500D01*
X68005000Y-62912500D01*
X68007000Y-62914500D01*
X68009000Y-62916500D01*
X68010000Y-62918500D01*
X68012000Y-62920500D01*
X68013000Y-62922500D01*
X68015000Y-62924500D01*
X68016000Y-62927500D01*
X68017000Y-62929500D01*
X68018000Y-62932500D01*
X68018000Y-62934500D01*
X68019000Y-62937500D01*
X68019000Y-62939500D01*
X68020000Y-62942500D01*
X68020000Y-62944500D01*
X68020000Y-62947500D01*
X68020000Y-63552500D01*
X68020000Y-63555500D01*
X68020000Y-63557500D01*
X68019000Y-63560500D01*
X68019000Y-63562500D01*
X68018000Y-63565500D01*
X68018000Y-63567500D01*
X68017000Y-63570500D01*
X68016000Y-63572500D01*
X68015000Y-63575500D01*
X68013000Y-63577500D01*
X68012000Y-63579500D01*
X68010000Y-63581500D01*
X68009000Y-63583500D01*
X68007000Y-63585500D01*
X68005000Y-63587500D01*
X68003000Y-63589500D01*
X68001000Y-63591500D01*
X67999000Y-63592500D01*
X67997000Y-63594500D01*
X67995000Y-63595500D01*
X67993000Y-63597500D01*
X67990000Y-63598500D01*
X67988000Y-63599500D01*
X67985000Y-63600500D01*
X67983000Y-63600500D01*
X67980000Y-63601500D01*
X67978000Y-63601500D01*
X67975000Y-63602500D01*
X67973000Y-63602500D01*
X67970000Y-63602500D01*
X67730000Y-63602500D01*
X67727000Y-63602500D01*
X67725000Y-63602500D01*
X67722000Y-63601500D01*
X67720000Y-63601500D01*
X67717000Y-63600500D01*
X67715000Y-63600500D01*
X67712000Y-63599500D01*
X67710000Y-63598500D01*
X67707000Y-63597500D01*
X67705000Y-63595500D01*
X67703000Y-63594500D01*
X67701000Y-63592500D01*
X67699000Y-63591500D01*
X67697000Y-63589500D01*
X67695000Y-63587500D01*
X67693000Y-63585500D01*
X67691000Y-63583500D01*
X67690000Y-63581500D01*
X67688000Y-63579500D01*
X67687000Y-63577500D01*
X67685000Y-63575500D01*
X67684000Y-63572500D01*
X67683000Y-63570500D01*
X67682000Y-63567500D01*
X67682000Y-63565500D01*
X67681000Y-63562500D01*
X67681000Y-63560500D01*
X67680000Y-63557500D01*
X67680000Y-63555500D01*
X67680000Y-63552500D01*
X67680000Y-62947500D01*
X67680000Y-62944500D01*
X67680000Y-62942500D01*
X67681000Y-62939500D01*
X67681000Y-62937500D01*
X67682000Y-62934500D01*
X67682000Y-62932500D01*
X67683000Y-62929500D01*
X67684000Y-62927500D01*
X67685000Y-62924500D01*
X67687000Y-62922500D01*
X67688000Y-62920500D01*
X67690000Y-62918500D01*
X67691000Y-62916500D01*
X67693000Y-62914500D01*
X67695000Y-62912500D01*
X67697000Y-62910500D01*
X67699000Y-62908500D01*
X67701000Y-62907500D01*
X67703000Y-62905500D01*
X67705000Y-62904500D01*
X67707000Y-62902500D01*
X67710000Y-62901500D01*
X67712000Y-62900500D01*
X67715000Y-62899500D01*
X67717000Y-62899500D01*
X67720000Y-62898500D01*
X67722000Y-62898500D01*
X67725000Y-62897500D01*
X67727000Y-62897500D01*
X67730000Y-62897500D01*
X67970000Y-62897500D01*
X67973000Y-62897500D01*
X67975000Y-62897500D01*
X67978000Y-62898500D01*
G36*
X67978000Y-62898500D02*
G01*
X67980000Y-62898500D01*
X67983000Y-62899500D01*
X67985000Y-62899500D01*
X67988000Y-62900500D01*
X67990000Y-62901500D01*
X67993000Y-62902500D01*
X67995000Y-62904500D01*
X67997000Y-62905500D01*
X67999000Y-62907500D01*
X68001000Y-62908500D01*
X68003000Y-62910500D01*
X68005000Y-62912500D01*
X68007000Y-62914500D01*
X68009000Y-62916500D01*
X68010000Y-62918500D01*
X68012000Y-62920500D01*
X68013000Y-62922500D01*
X68015000Y-62924500D01*
X68016000Y-62927500D01*
X68017000Y-62929500D01*
X68018000Y-62932500D01*
X68018000Y-62934500D01*
X68019000Y-62937500D01*
X68019000Y-62939500D01*
X68020000Y-62942500D01*
X68020000Y-62944500D01*
X68020000Y-62947500D01*
X68020000Y-63552500D01*
X68020000Y-63555500D01*
X68020000Y-63557500D01*
X68019000Y-63560500D01*
X68019000Y-63562500D01*
X68018000Y-63565500D01*
X68018000Y-63567500D01*
X68017000Y-63570500D01*
X68016000Y-63572500D01*
X68015000Y-63575500D01*
X68013000Y-63577500D01*
X68012000Y-63579500D01*
X68010000Y-63581500D01*
X68009000Y-63583500D01*
X68007000Y-63585500D01*
X68005000Y-63587500D01*
X68003000Y-63589500D01*
X68001000Y-63591500D01*
X67999000Y-63592500D01*
X67997000Y-63594500D01*
X67995000Y-63595500D01*
X67993000Y-63597500D01*
X67990000Y-63598500D01*
X67988000Y-63599500D01*
X67985000Y-63600500D01*
X67983000Y-63600500D01*
X67980000Y-63601500D01*
X67978000Y-63601500D01*
X67975000Y-63602500D01*
X67973000Y-63602500D01*
X67970000Y-63602500D01*
X67730000Y-63602500D01*
X67727000Y-63602500D01*
X67725000Y-63602500D01*
X67722000Y-63601500D01*
X67720000Y-63601500D01*
X67717000Y-63600500D01*
X67715000Y-63600500D01*
X67712000Y-63599500D01*
X67710000Y-63598500D01*
X67707000Y-63597500D01*
X67705000Y-63595500D01*
X67703000Y-63594500D01*
X67701000Y-63592500D01*
X67699000Y-63591500D01*
X67697000Y-63589500D01*
X67695000Y-63587500D01*
X67693000Y-63585500D01*
X67691000Y-63583500D01*
X67690000Y-63581500D01*
X67688000Y-63579500D01*
X67687000Y-63577500D01*
X67685000Y-63575500D01*
X67684000Y-63572500D01*
X67683000Y-63570500D01*
X67682000Y-63567500D01*
X67682000Y-63565500D01*
X67681000Y-63562500D01*
X67681000Y-63560500D01*
X67680000Y-63557500D01*
X67680000Y-63555500D01*
X67680000Y-63552500D01*
X67680000Y-62947500D01*
X67680000Y-62944500D01*
X67680000Y-62942500D01*
X67681000Y-62939500D01*
X67681000Y-62937500D01*
X67682000Y-62934500D01*
X67682000Y-62932500D01*
X67683000Y-62929500D01*
X67684000Y-62927500D01*
X67685000Y-62924500D01*
X67687000Y-62922500D01*
X67688000Y-62920500D01*
X67690000Y-62918500D01*
X67691000Y-62916500D01*
X67693000Y-62914500D01*
X67695000Y-62912500D01*
X67697000Y-62910500D01*
X67699000Y-62908500D01*
X67701000Y-62907500D01*
X67703000Y-62905500D01*
X67705000Y-62904500D01*
X67707000Y-62902500D01*
X67710000Y-62901500D01*
X67712000Y-62900500D01*
X67715000Y-62899500D01*
X67717000Y-62899500D01*
X67720000Y-62898500D01*
X67722000Y-62898500D01*
X67725000Y-62897500D01*
X67727000Y-62897500D01*
X67730000Y-62897500D01*
X67970000Y-62897500D01*
X67973000Y-62897500D01*
X67975000Y-62897500D01*
X67978000Y-62898500D01*
G37*
%TO.C,J4*%
X63715000Y-61370000D02*
X63015000Y-61370000D01*
X63015000Y-60130000D01*
X63715000Y-60130000D01*
X63715000Y-61370000D01*
G36*
X63715000Y-61370000D02*
G01*
X63015000Y-61370000D01*
X63015000Y-60130000D01*
X63715000Y-60130000D01*
X63715000Y-61370000D01*
G37*
X64515000Y-61370000D02*
X63815000Y-61370000D01*
X63815000Y-60130000D01*
X64515000Y-60130000D01*
X64515000Y-61370000D01*
G36*
X64515000Y-61370000D02*
G01*
X63815000Y-61370000D01*
X63815000Y-60130000D01*
X64515000Y-60130000D01*
X64515000Y-61370000D01*
G37*
X65015000Y-61370000D02*
X64615000Y-61370000D01*
X64615000Y-60130000D01*
X65015000Y-60130000D01*
X65015000Y-61370000D01*
G36*
X65015000Y-61370000D02*
G01*
X64615000Y-61370000D01*
X64615000Y-60130000D01*
X65015000Y-60130000D01*
X65015000Y-61370000D01*
G37*
X65515000Y-61370000D02*
X65115000Y-61370000D01*
X65115000Y-60130000D01*
X65515000Y-60130000D01*
X65515000Y-61370000D01*
G36*
X65515000Y-61370000D02*
G01*
X65115000Y-61370000D01*
X65115000Y-60130000D01*
X65515000Y-60130000D01*
X65515000Y-61370000D01*
G37*
X66015000Y-61370000D02*
X65615000Y-61370000D01*
X65615000Y-60130000D01*
X66015000Y-60130000D01*
X66015000Y-61370000D01*
G36*
X66015000Y-61370000D02*
G01*
X65615000Y-61370000D01*
X65615000Y-60130000D01*
X66015000Y-60130000D01*
X66015000Y-61370000D01*
G37*
X66515000Y-61370000D02*
X66115000Y-61370000D01*
X66115000Y-60130000D01*
X66515000Y-60130000D01*
X66515000Y-61370000D01*
G36*
X66515000Y-61370000D02*
G01*
X66115000Y-61370000D01*
X66115000Y-60130000D01*
X66515000Y-60130000D01*
X66515000Y-61370000D01*
G37*
X67015000Y-61370000D02*
X66615000Y-61370000D01*
X66615000Y-60130000D01*
X67015000Y-60130000D01*
X67015000Y-61370000D01*
G36*
X67015000Y-61370000D02*
G01*
X66615000Y-61370000D01*
X66615000Y-60130000D01*
X67015000Y-60130000D01*
X67015000Y-61370000D01*
G37*
X67515000Y-61370000D02*
X67115000Y-61370000D01*
X67115000Y-60130000D01*
X67515000Y-60130000D01*
X67515000Y-61370000D01*
G36*
X67515000Y-61370000D02*
G01*
X67115000Y-61370000D01*
X67115000Y-60130000D01*
X67515000Y-60130000D01*
X67515000Y-61370000D01*
G37*
X68015000Y-61370000D02*
X67615000Y-61370000D01*
X67615000Y-60130000D01*
X68015000Y-60130000D01*
X68015000Y-61370000D01*
G36*
X68015000Y-61370000D02*
G01*
X67615000Y-61370000D01*
X67615000Y-60130000D01*
X68015000Y-60130000D01*
X68015000Y-61370000D01*
G37*
X68515000Y-61370000D02*
X68115000Y-61370000D01*
X68115000Y-60130000D01*
X68515000Y-60130000D01*
X68515000Y-61370000D01*
G36*
X68515000Y-61370000D02*
G01*
X68115000Y-61370000D01*
X68115000Y-60130000D01*
X68515000Y-60130000D01*
X68515000Y-61370000D01*
G37*
X69315000Y-61370000D02*
X68615000Y-61370000D01*
X68615000Y-60130000D01*
X69315000Y-60130000D01*
X69315000Y-61370000D01*
G36*
X69315000Y-61370000D02*
G01*
X68615000Y-61370000D01*
X68615000Y-60130000D01*
X69315000Y-60130000D01*
X69315000Y-61370000D01*
G37*
X70115000Y-61370000D02*
X69415000Y-61370000D01*
X69415000Y-60130000D01*
X70115000Y-60130000D01*
X70115000Y-61370000D01*
G36*
X70115000Y-61370000D02*
G01*
X69415000Y-61370000D01*
X69415000Y-60130000D01*
X70115000Y-60130000D01*
X70115000Y-61370000D01*
G37*
%TD*%
D11*
%TO.C,MX17*%
X57445000Y-82880000D03*
D12*
X62525000Y-82880000D03*
D11*
X67605000Y-82880000D03*
D13*
X58715000Y-80340000D03*
X65065000Y-77800000D03*
%TD*%
D11*
%TO.C,MX68*%
X81325000Y-139900000D03*
D12*
X86405000Y-139900000D03*
D11*
X91485000Y-139900000D03*
D13*
X82595000Y-137360000D03*
X88945000Y-134820000D03*
%TD*%
D11*
%TO.C,MX3*%
X90645000Y-63780000D03*
D12*
X95725000Y-63780000D03*
D11*
X100805000Y-63780000D03*
D13*
X91915000Y-61240000D03*
X98265000Y-58700000D03*
%TD*%
D11*
%TO.C,MX34*%
X105145000Y-101880000D03*
D12*
X110225000Y-101880000D03*
D11*
X115305000Y-101880000D03*
D13*
X106415000Y-99340000D03*
X112765000Y-96800000D03*
%TD*%
D11*
%TO.C,MX61*%
X102685000Y-139880000D03*
D12*
X107765000Y-139880000D03*
D11*
X112845000Y-139880000D03*
D13*
X103955000Y-137340000D03*
X110305000Y-134800000D03*
%TD*%
D11*
%TO.C,MX59*%
X55015000Y-139880000D03*
D12*
X60095000Y-139880000D03*
D11*
X65175000Y-139880000D03*
D13*
X56285000Y-137340000D03*
X62635000Y-134800000D03*
%TD*%
D11*
%TO.C,MX56*%
X293250000Y-120900000D03*
D12*
X298330000Y-120900000D03*
D11*
X303410000Y-120900000D03*
D13*
X294520000Y-118360000D03*
X300870000Y-115820000D03*
%TD*%
D11*
%TO.C,MX18*%
X81245000Y-82880000D03*
D12*
X86325000Y-82880000D03*
D11*
X91405000Y-82880000D03*
D13*
X82515000Y-80340000D03*
X88865000Y-77800000D03*
%TD*%
D11*
%TO.C,MX5*%
X128645000Y-63780000D03*
D12*
X133725000Y-63780000D03*
D11*
X138805000Y-63780000D03*
D13*
X129915000Y-61240000D03*
X136265000Y-58700000D03*
%TD*%
D11*
%TO.C,MX26*%
X233145000Y-82880000D03*
D12*
X238225000Y-82880000D03*
D11*
X243305000Y-82880000D03*
D13*
X234415000Y-80340000D03*
X240765000Y-77800000D03*
%TD*%
D11*
%TO.C,MX19*%
X100145000Y-82880000D03*
D12*
X105225000Y-82880000D03*
D11*
X110305000Y-82880000D03*
D13*
X101415000Y-80340000D03*
X107765000Y-77800000D03*
%TD*%
D14*
%TO.C,J3*%
X50725000Y-127490000D03*
D15*
X53265000Y-113400000D03*
D16*
X50725000Y-124890000D03*
X50725000Y-122350000D03*
D17*
X50725000Y-119810000D03*
X50725000Y-117270000D03*
X50725000Y-114730000D03*
D16*
X53265000Y-126160000D03*
X53265000Y-123620000D03*
X53265000Y-121080000D03*
X53265000Y-118540000D03*
X53265000Y-116000000D03*
%TD*%
D11*
%TO.C,MX40*%
X219430000Y-101880000D03*
D12*
X224510000Y-101880000D03*
D11*
X229590000Y-101880000D03*
D13*
X220700000Y-99340000D03*
X227050000Y-96800000D03*
%TD*%
D11*
%TO.C,MX41*%
X238430000Y-101880000D03*
D12*
X243510000Y-101880000D03*
D11*
X248590000Y-101880000D03*
D13*
X239700000Y-99340000D03*
X246050000Y-96800000D03*
%TD*%
D11*
%TO.C,MX57*%
X319330000Y-120900000D03*
D12*
X324410000Y-120900000D03*
D11*
X329490000Y-120900000D03*
D13*
X320600000Y-118360000D03*
X326950000Y-115820000D03*
%TD*%
D18*
%TO.C,MX45*%
X57735000Y-113880000D03*
D12*
X57735000Y-129120000D03*
D11*
X64555000Y-120880000D03*
D12*
X69635000Y-120880000D03*
D11*
X74715000Y-120880000D03*
D18*
X81535000Y-113880000D03*
D12*
X81535000Y-129120000D03*
D13*
X65825000Y-118340000D03*
X72175000Y-115800000D03*
%TD*%
D11*
%TO.C,MX33*%
X86045000Y-101880000D03*
D12*
X91125000Y-101880000D03*
D11*
X96205000Y-101880000D03*
D13*
X87315000Y-99340000D03*
X93665000Y-96800000D03*
%TD*%
D11*
%TO.C,MX69*%
X105105000Y-139905000D03*
D12*
X110185000Y-139905000D03*
D11*
X115265000Y-139905000D03*
D13*
X106375000Y-137365000D03*
X112725000Y-134825000D03*
%TD*%
D11*
%TO.C,MX20*%
X119145000Y-82880000D03*
D12*
X124225000Y-82880000D03*
D11*
X129305000Y-82880000D03*
D13*
X120415000Y-80340000D03*
X126765000Y-77800000D03*
%TD*%
D11*
%TO.C,MX24*%
X195145000Y-82880000D03*
D12*
X200225000Y-82880000D03*
D11*
X205305000Y-82880000D03*
D13*
X196415000Y-80340000D03*
X202765000Y-77800000D03*
%TD*%
D11*
%TO.C,MX8*%
X185645000Y-63780000D03*
D12*
X190725000Y-63780000D03*
D11*
X195805000Y-63780000D03*
D13*
X186915000Y-61240000D03*
X193265000Y-58700000D03*
%TD*%
D11*
%TO.C,MX48*%
X133665000Y-120880000D03*
D12*
X138745000Y-120880000D03*
D11*
X143825000Y-120880000D03*
D13*
X134935000Y-118340000D03*
X141285000Y-115800000D03*
%TD*%
D11*
%TO.C,MX51*%
X190945000Y-120880000D03*
D12*
X196025000Y-120880000D03*
D11*
X201105000Y-120880000D03*
D13*
X192215000Y-118340000D03*
X198565000Y-115800000D03*
%TD*%
D11*
%TO.C,MX7*%
X166645000Y-63780000D03*
D12*
X171725000Y-63780000D03*
D11*
X176805000Y-63780000D03*
D13*
X167915000Y-61240000D03*
X174265000Y-58700000D03*
%TD*%
D11*
%TO.C,MX2*%
X71645000Y-63780000D03*
D12*
X76725000Y-63780000D03*
D11*
X81805000Y-63780000D03*
D13*
X72915000Y-61240000D03*
X79265000Y-58700000D03*
%TD*%
D19*
%TO.C,MX62*%
X129200000Y-131645000D03*
D20*
X129200000Y-146885000D03*
D21*
X174119900Y-139900000D03*
D19*
X179199900Y-139900000D03*
D21*
X184279900Y-139900000D03*
D19*
X229199800Y-131645000D03*
D20*
X229199800Y-146885000D03*
D22*
X175389900Y-137360000D03*
X181739900Y-134820000D03*
%TD*%
D11*
%TO.C,MX47*%
X114615000Y-120880000D03*
D12*
X119695000Y-120880000D03*
D11*
X124775000Y-120880000D03*
D13*
X115885000Y-118340000D03*
X122235000Y-115800000D03*
%TD*%
D18*
%TO.C,MX16*%
X302960000Y-56840000D03*
D12*
X302960000Y-72080000D03*
D11*
X309780000Y-63840000D03*
D12*
X314860000Y-63840000D03*
D11*
X319940000Y-63840000D03*
D18*
X326760000Y-56840000D03*
D12*
X326760000Y-72080000D03*
D13*
X311050000Y-61300000D03*
X317400000Y-58760000D03*
%TD*%
D23*
%TO.C,J5*%
X51865000Y-109540000D03*
X50849000Y-104460000D03*
X52881000Y-104460000D03*
%TD*%
D11*
%TO.C,MX55*%
X267145000Y-120880000D03*
D12*
X272225000Y-120880000D03*
D11*
X277305000Y-120880000D03*
D13*
X268415000Y-118340000D03*
X274765000Y-115800000D03*
%TD*%
D11*
%TO.C,MX31*%
X59845000Y-101880000D03*
D12*
X64925000Y-101880000D03*
D11*
X70005000Y-101880000D03*
D13*
X61115000Y-99340000D03*
X67465000Y-96800000D03*
%TD*%
D11*
%TO.C,MX32*%
X55045000Y-101880000D03*
D12*
X60125000Y-101880000D03*
D11*
X65205000Y-101880000D03*
D13*
X56315000Y-99340000D03*
X62665000Y-96800000D03*
%TD*%
D11*
%TO.C,MX13*%
X281145000Y-63780000D03*
D12*
X286225000Y-63780000D03*
D11*
X291305000Y-63780000D03*
D13*
X282415000Y-61240000D03*
X288765000Y-58700000D03*
%TD*%
D11*
%TO.C,MX27*%
X252145000Y-82880000D03*
D12*
X257225000Y-82880000D03*
D11*
X262305000Y-82880000D03*
D13*
X253415000Y-80340000D03*
X259765000Y-77800000D03*
%TD*%
D11*
%TO.C,MX30*%
X314575000Y-82880000D03*
D12*
X319655000Y-82880000D03*
D11*
X324735000Y-82880000D03*
D13*
X315845000Y-80340000D03*
X322195000Y-77800000D03*
%TD*%
D11*
%TO.C,MX35*%
X124245000Y-101880000D03*
D12*
X129325000Y-101880000D03*
D11*
X134405000Y-101880000D03*
D13*
X125515000Y-99340000D03*
X131865000Y-96800000D03*
%TD*%
D11*
%TO.C,MX64*%
X269290000Y-139950000D03*
D12*
X274370000Y-139950000D03*
D11*
X279450000Y-139950000D03*
D13*
X270560000Y-137410000D03*
X276910000Y-134870000D03*
%TD*%
D18*
%TO.C,MX58*%
X295850000Y-113900000D03*
D12*
X295850000Y-129140000D03*
D11*
X302670000Y-120900000D03*
D12*
X307750000Y-120900000D03*
D11*
X312830000Y-120900000D03*
D18*
X319650000Y-113900000D03*
D12*
X319650000Y-129140000D03*
D13*
X303940000Y-118360000D03*
X310290000Y-115820000D03*
%TD*%
D11*
%TO.C,MX72*%
X290805000Y-139905000D03*
D12*
X295885000Y-139905000D03*
D11*
X300965000Y-139905000D03*
D13*
X292075000Y-137365000D03*
X298425000Y-134825000D03*
%TD*%
D11*
%TO.C,MX67*%
X57545000Y-139905000D03*
D12*
X62625000Y-139905000D03*
D11*
X67705000Y-139905000D03*
D13*
X58815000Y-137365000D03*
X65165000Y-134825000D03*
%TD*%
D11*
%TO.C,MX42*%
X257480000Y-101880000D03*
D12*
X262560000Y-101880000D03*
D11*
X267640000Y-101880000D03*
D13*
X258750000Y-99340000D03*
X265100000Y-96800000D03*
%TD*%
D11*
%TO.C,MX28*%
X271380000Y-82880000D03*
D12*
X276460000Y-82880000D03*
D11*
X281540000Y-82880000D03*
D13*
X272650000Y-80340000D03*
X279000000Y-77800000D03*
%TD*%
D11*
%TO.C,MX66*%
X316970000Y-139950000D03*
D12*
X322050000Y-139950000D03*
D11*
X327130000Y-139950000D03*
D13*
X318240000Y-137410000D03*
X324590000Y-134870000D03*
%TD*%
D11*
%TO.C,MX49*%
X152775000Y-120880000D03*
D12*
X157855000Y-120880000D03*
D11*
X162935000Y-120880000D03*
D13*
X154045000Y-118340000D03*
X160395000Y-115800000D03*
%TD*%
D11*
%TO.C,MX10*%
X223745000Y-63780000D03*
D12*
X228825000Y-63780000D03*
D11*
X233905000Y-63780000D03*
D13*
X225015000Y-61240000D03*
X231365000Y-58700000D03*
%TD*%
D11*
%TO.C,MX15*%
X319345000Y-63780000D03*
D12*
X324425000Y-63780000D03*
D11*
X329505000Y-63780000D03*
D13*
X320615000Y-61240000D03*
X326965000Y-58700000D03*
%TD*%
D11*
%TO.C,MX21*%
X138145000Y-82880000D03*
D12*
X143225000Y-82880000D03*
D11*
X148305000Y-82880000D03*
D13*
X139415000Y-80340000D03*
X145765000Y-77800000D03*
%TD*%
D11*
%TO.C,MX43*%
X276480000Y-101880000D03*
D12*
X281560000Y-101880000D03*
D11*
X286640000Y-101880000D03*
D13*
X277750000Y-99340000D03*
X284100000Y-96800000D03*
%TD*%
D11*
%TO.C,MX39*%
X200430000Y-101880000D03*
D12*
X205510000Y-101880000D03*
D11*
X210590000Y-101880000D03*
D13*
X201700000Y-99340000D03*
X208050000Y-96800000D03*
%TD*%
D11*
%TO.C,MX29*%
X290645000Y-82880000D03*
D12*
X295725000Y-82880000D03*
D11*
X300805000Y-82880000D03*
D13*
X291915000Y-80340000D03*
X298265000Y-77800000D03*
%TD*%
D11*
%TO.C,MX73*%
X314605000Y-139890000D03*
D12*
X319685000Y-139890000D03*
D11*
X324765000Y-139890000D03*
D13*
X315875000Y-137350000D03*
X322225000Y-134810000D03*
%TD*%
D11*
%TO.C,MX60*%
X78845000Y-139880000D03*
D12*
X83925000Y-139880000D03*
D11*
X89005000Y-139880000D03*
D13*
X80115000Y-137340000D03*
X86465000Y-134800000D03*
%TD*%
D11*
%TO.C,MX23*%
X176145000Y-82880000D03*
D12*
X181225000Y-82880000D03*
D11*
X186305000Y-82880000D03*
D13*
X177415000Y-80340000D03*
X183765000Y-77800000D03*
%TD*%
D11*
%TO.C,MX46*%
X95515000Y-120880000D03*
D12*
X100595000Y-120880000D03*
D11*
X105675000Y-120880000D03*
D13*
X96785000Y-118340000D03*
X103135000Y-115800000D03*
%TD*%
D19*
%TO.C,MX70*%
X134005000Y-131665000D03*
D20*
X134005000Y-146905000D03*
D21*
X186075000Y-139920000D03*
D19*
X191155000Y-139920000D03*
D21*
X196235000Y-139920000D03*
D19*
X248305000Y-131665000D03*
D20*
X248305000Y-146905000D03*
D22*
X187345000Y-137380000D03*
X193695000Y-134840000D03*
%TD*%
D11*
%TO.C,MX11*%
X242845000Y-63780000D03*
D12*
X247925000Y-63780000D03*
D11*
X253005000Y-63780000D03*
D13*
X244115000Y-61240000D03*
X250465000Y-58700000D03*
%TD*%
D11*
%TO.C,MX9*%
X204645000Y-63780000D03*
D12*
X209725000Y-63780000D03*
D11*
X214805000Y-63780000D03*
D13*
X205915000Y-61240000D03*
X212265000Y-58700000D03*
%TD*%
D11*
%TO.C,MX12*%
X261945000Y-63780000D03*
D12*
X267025000Y-63780000D03*
D11*
X272105000Y-63780000D03*
D13*
X263215000Y-61240000D03*
X269565000Y-58700000D03*
%TD*%
D11*
%TO.C,MX50*%
X171855000Y-120880000D03*
D12*
X176935000Y-120880000D03*
D11*
X182015000Y-120880000D03*
D13*
X173125000Y-118340000D03*
X179475000Y-115800000D03*
%TD*%
D11*
%TO.C,MX6*%
X147645000Y-63780000D03*
D12*
X152725000Y-63780000D03*
D11*
X157805000Y-63780000D03*
D13*
X148915000Y-61240000D03*
X155265000Y-58700000D03*
%TD*%
D11*
%TO.C,MX1*%
X52645000Y-63780000D03*
D12*
X57725000Y-63780000D03*
D11*
X62805000Y-63780000D03*
D13*
X53915000Y-61240000D03*
X60265000Y-58700000D03*
%TD*%
D11*
%TO.C,MX54*%
X248115000Y-120880000D03*
D12*
X253195000Y-120880000D03*
D11*
X258275000Y-120880000D03*
D13*
X249385000Y-118340000D03*
X255735000Y-115800000D03*
%TD*%
D11*
%TO.C,MX4*%
X109645000Y-63780000D03*
D12*
X114725000Y-63780000D03*
D11*
X119805000Y-63780000D03*
D13*
X110915000Y-61240000D03*
X117265000Y-58700000D03*
%TD*%
D11*
%TO.C,MX22*%
X157145000Y-82880000D03*
D12*
X162225000Y-82880000D03*
D11*
X167305000Y-82880000D03*
D13*
X158415000Y-80340000D03*
X164765000Y-77800000D03*
%TD*%
D11*
%TO.C,MX14*%
X300245000Y-63780000D03*
D12*
X305325000Y-63780000D03*
D11*
X310405000Y-63780000D03*
D13*
X301515000Y-61240000D03*
X307865000Y-58700000D03*
%TD*%
D11*
%TO.C,MX65*%
X293140000Y-139950000D03*
D12*
X298220000Y-139950000D03*
D11*
X303300000Y-139950000D03*
D13*
X294410000Y-137410000D03*
X300760000Y-134870000D03*
%TD*%
D11*
%TO.C,MX53*%
X229075000Y-120880000D03*
D12*
X234155000Y-120880000D03*
D11*
X239235000Y-120880000D03*
D13*
X230345000Y-118340000D03*
X236695000Y-115800000D03*
%TD*%
D11*
%TO.C,MX38*%
X181330000Y-101880000D03*
D12*
X186410000Y-101880000D03*
D11*
X191490000Y-101880000D03*
D13*
X182600000Y-99340000D03*
X188950000Y-96800000D03*
%TD*%
D11*
%TO.C,MX37*%
X162330000Y-101880000D03*
D12*
X167410000Y-101880000D03*
D11*
X172490000Y-101880000D03*
D13*
X163600000Y-99340000D03*
X169950000Y-96800000D03*
%TD*%
D11*
%TO.C,MX52*%
X210005000Y-120880000D03*
D12*
X215085000Y-120880000D03*
D11*
X220165000Y-120880000D03*
D13*
X211275000Y-118340000D03*
X217625000Y-115800000D03*
%TD*%
D11*
%TO.C,MX63*%
X245490000Y-139900000D03*
D12*
X250570000Y-139900000D03*
D11*
X255650000Y-139900000D03*
D13*
X246760000Y-137360000D03*
X253110000Y-134820000D03*
%TD*%
D18*
%TO.C,MX44*%
X300625000Y-94880000D03*
D12*
X300625000Y-110120000D03*
D11*
X307445000Y-101880000D03*
D12*
X312525000Y-101880000D03*
D11*
X317605000Y-101880000D03*
D18*
X324425000Y-94880000D03*
D12*
X324425000Y-110120000D03*
D13*
X308715000Y-99340000D03*
X315065000Y-96800000D03*
%TD*%
D11*
%TO.C,MX71*%
X267005000Y-139945000D03*
D12*
X272085000Y-139945000D03*
D11*
X277165000Y-139945000D03*
D13*
X268275000Y-137405000D03*
X274625000Y-134865000D03*
%TD*%
D11*
%TO.C,MX25*%
X214145000Y-82880000D03*
D12*
X219225000Y-82880000D03*
D11*
X224305000Y-82880000D03*
D13*
X215415000Y-80340000D03*
X221765000Y-77800000D03*
%TD*%
D11*
%TO.C,MX36*%
X143345000Y-101880000D03*
D12*
X148425000Y-101880000D03*
D11*
X153505000Y-101880000D03*
D13*
X144615000Y-99340000D03*
X150965000Y-96800000D03*
%TD*%
D24*
%TO.C,C5*%
X70765000Y-85220000D03*
X70765000Y-86180000D03*
%TD*%
D25*
%TO.C,D47*%
X111500000Y-121650000D03*
X111500000Y-118350000D03*
%TD*%
%TO.C,D4*%
X84600000Y-65150000D03*
X84600000Y-61850000D03*
%TD*%
D26*
%TO.C,C14*%
X76375000Y-86700000D03*
X74825000Y-86700000D03*
%TD*%
D27*
%TO.C,D31*%
X315800000Y-74250000D03*
X315800000Y-77550000D03*
%TD*%
D28*
%TO.C,U3*%
X74350000Y-92050000D03*
D29*
X76150000Y-90250000D03*
X74950000Y-90250000D03*
X73750000Y-90250000D03*
X72550000Y-90250000D03*
X76150000Y-91450000D03*
X74950000Y-91450000D03*
X73750000Y-91450000D03*
X72550000Y-91450000D03*
X76150000Y-92650000D03*
X74950000Y-92650000D03*
X73750000Y-92650000D03*
X72550000Y-92650000D03*
X76150000Y-93850000D03*
X74950000Y-93850000D03*
X73750000Y-93850000D03*
X72550000Y-93850000D03*
D30*
X75600000Y-88800000D03*
X75100000Y-88800000D03*
X74600000Y-88800000D03*
X74100000Y-88800000D03*
X73600000Y-88800000D03*
X73100000Y-88800000D03*
X72600000Y-88800000D03*
X72100000Y-88800000D03*
X71600000Y-88800000D03*
X71100000Y-94300000D03*
X77100000Y-94550000D03*
X76350000Y-94800000D03*
X75350000Y-94800000D03*
X74850000Y-94800000D03*
X74350000Y-94800000D03*
X73850000Y-94800000D03*
X73350000Y-94800000D03*
X72850000Y-94800000D03*
X72350000Y-94800000D03*
X71100000Y-94800000D03*
X77100000Y-95300000D03*
X76600000Y-95300000D03*
X76100000Y-95300000D03*
X75600000Y-95300000D03*
X75100000Y-95300000D03*
X74600000Y-95300000D03*
X74100000Y-95300000D03*
X73600000Y-95300000D03*
X73100000Y-95300000D03*
X72600000Y-95300000D03*
X72100000Y-95300000D03*
X71600000Y-95300000D03*
X77600000Y-89300000D03*
X76850000Y-89300000D03*
X76350000Y-89300000D03*
X75850000Y-89300000D03*
X75350000Y-89300000D03*
X74850000Y-89300000D03*
X74350000Y-89300000D03*
X73850000Y-89300000D03*
X73350000Y-89300000D03*
X72850000Y-89300000D03*
X71100000Y-89300000D03*
X77600000Y-89800000D03*
X77100000Y-90050000D03*
X71600000Y-90050000D03*
X71100000Y-90300000D03*
X77100000Y-90550000D03*
X71600000Y-90550000D03*
X77600000Y-90800000D03*
X77100000Y-91050000D03*
X71600000Y-91050000D03*
X77600000Y-91300000D03*
X71100000Y-91300000D03*
X77100000Y-91550000D03*
X77600000Y-91800000D03*
X71100000Y-91800000D03*
X77100000Y-92050000D03*
X77600000Y-92300000D03*
X71100000Y-92300000D03*
X77100000Y-92550000D03*
X71600000Y-92550000D03*
X77600000Y-92800000D03*
X71100000Y-92800000D03*
X77100000Y-93050000D03*
X71600000Y-93050000D03*
X77600000Y-93300000D03*
X71100000Y-93300000D03*
X71600000Y-93550000D03*
X77600000Y-93800000D03*
X71100000Y-93800000D03*
X77100000Y-94050000D03*
X71600000Y-94050000D03*
%TD*%
D24*
%TO.C,C27*%
X79300000Y-86020000D03*
X79300000Y-86980000D03*
%TD*%
D31*
%TO.C,J1*%
X158340000Y-90800000D03*
X158340000Y-96400000D03*
D32*
X154465000Y-92100000D03*
X154465000Y-93100000D03*
X154465000Y-94100000D03*
X154465000Y-95100000D03*
%TD*%
D25*
%TO.C,D45*%
X61900000Y-121650000D03*
X61900000Y-118350000D03*
%TD*%
D33*
%TO.C,R23*%
X51345000Y-135850000D03*
X52365000Y-135850000D03*
%TD*%
D25*
%TO.C,D9*%
X163565000Y-65150000D03*
X163565000Y-61850000D03*
%TD*%
%TO.C,D5*%
X87500000Y-65150000D03*
X87500000Y-61850000D03*
%TD*%
%TO.C,D62*%
X241750000Y-140650000D03*
X241750000Y-137350000D03*
%TD*%
D27*
%TO.C,D26*%
X215400000Y-74250000D03*
X215400000Y-77550000D03*
%TD*%
D34*
%TO.C,C4*%
X86065000Y-93925000D03*
X86065000Y-95475000D03*
%TD*%
D27*
%TO.C,D21*%
X120500000Y-74250000D03*
X120500000Y-77550000D03*
%TD*%
%TO.C,D23*%
X158400000Y-74250000D03*
X158400000Y-77550000D03*
%TD*%
D25*
%TO.C,D39*%
X197300000Y-102650000D03*
X197300000Y-99350000D03*
%TD*%
%TO.C,D37*%
X159300000Y-102650000D03*
X159300000Y-99350000D03*
%TD*%
D35*
%TO.C,D32*%
X60050000Y-106400000D03*
X56750000Y-106400000D03*
%TD*%
D36*
%TO.C,SW1*%
X103215000Y-109150000D03*
X103215000Y-106850000D03*
D37*
X100965000Y-108000000D03*
X97965000Y-108000000D03*
D36*
X95715000Y-109150000D03*
X95715000Y-106850000D03*
D38*
X101715000Y-105900000D03*
X98715000Y-105900000D03*
X97215000Y-105900000D03*
%TD*%
D25*
%TO.C,D64*%
X287865000Y-140650000D03*
X287865000Y-137350000D03*
%TD*%
%TO.C,D33*%
X83465000Y-104350000D03*
X83465000Y-101050000D03*
%TD*%
D27*
%TO.C,D27*%
X234400000Y-74250000D03*
X234400000Y-77550000D03*
%TD*%
D25*
%TO.C,D58*%
X51300000Y-140650000D03*
X51300000Y-137350000D03*
%TD*%
D39*
%TO.C,U2*%
X90102500Y-93950000D03*
X90102500Y-94900000D03*
X90102500Y-95850000D03*
X87827500Y-95850000D03*
X87827500Y-93950000D03*
%TD*%
D33*
%TO.C,R18*%
X55665000Y-123500000D03*
X56685000Y-123500000D03*
%TD*%
%TO.C,R15*%
X74590000Y-84300000D03*
X75610000Y-84300000D03*
%TD*%
D40*
%TO.C,C24*%
X71545000Y-97100000D03*
X70585000Y-97100000D03*
%TD*%
D41*
%TO.C,C21*%
X79915000Y-94700000D03*
X79915000Y-96600000D03*
%TD*%
D25*
%TO.C,D35*%
X121200000Y-102650000D03*
X121200000Y-99350000D03*
%TD*%
%TO.C,D53*%
X226000000Y-121550000D03*
X226000000Y-118250000D03*
%TD*%
%TO.C,D48*%
X130700000Y-121550000D03*
X130700000Y-118250000D03*
%TD*%
D27*
%TO.C,D24*%
X177500000Y-74250000D03*
X177500000Y-77550000D03*
%TD*%
D42*
%TO.C,R9*%
X55800000Y-120790000D03*
X55800000Y-121810000D03*
%TD*%
D43*
%TO.C,C6*%
X65765000Y-85980000D03*
X65765000Y-85020000D03*
%TD*%
D25*
%TO.C,D6*%
X106565000Y-65150000D03*
X106565000Y-61850000D03*
%TD*%
D33*
%TO.C,R11*%
X55690000Y-119800000D03*
X56710000Y-119800000D03*
%TD*%
D42*
%TO.C,R2*%
X98200000Y-96695000D03*
X98200000Y-97715000D03*
%TD*%
D25*
%TO.C,D38*%
X178300000Y-102650000D03*
X178300000Y-99350000D03*
%TD*%
%TO.C,D10*%
X182565000Y-65150000D03*
X182565000Y-61850000D03*
%TD*%
%TO.C,D50*%
X168800000Y-121550000D03*
X168800000Y-118250000D03*
%TD*%
%TO.C,D61*%
X169700000Y-140650000D03*
X169700000Y-137350000D03*
%TD*%
D42*
%TO.C,R20*%
X68165000Y-75090000D03*
X68165000Y-76110000D03*
%TD*%
D44*
%TO.C,L1*%
X68085000Y-91000000D03*
X67115000Y-91000000D03*
%TD*%
D41*
%TO.C,C2*%
X100100000Y-94055000D03*
X100100000Y-95955000D03*
%TD*%
D45*
%TO.C,L2*%
X72700000Y-57587500D03*
X72700000Y-56012500D03*
%TD*%
D41*
%TO.C,C22*%
X82015000Y-94050000D03*
X82015000Y-95950000D03*
%TD*%
D46*
%TO.C,R21*%
X62775000Y-104750000D03*
X61755000Y-104750000D03*
%TD*%
D25*
%TO.C,D49*%
X149800000Y-121650000D03*
X149800000Y-118350000D03*
%TD*%
D27*
%TO.C,D30*%
X292000000Y-74250000D03*
X292000000Y-77550000D03*
%TD*%
D42*
%TO.C,R14*%
X102065000Y-92695000D03*
X102065000Y-93715000D03*
%TD*%
%TO.C,R4*%
X94165000Y-92040000D03*
X94165000Y-93060000D03*
%TD*%
D25*
%TO.C,D44*%
X304200000Y-102650000D03*
X304200000Y-99350000D03*
%TD*%
D27*
%TO.C,D28*%
X253500000Y-74250000D03*
X253500000Y-77550000D03*
%TD*%
%TO.C,D29*%
X272600000Y-74250000D03*
X272600000Y-77550000D03*
%TD*%
D25*
%TO.C,D55*%
X264300000Y-121650000D03*
X264300000Y-118350000D03*
%TD*%
D27*
%TO.C,D20*%
X101500000Y-74250000D03*
X101500000Y-77550000D03*
%TD*%
D25*
%TO.C,D40*%
X216400000Y-102650000D03*
X216400000Y-99350000D03*
%TD*%
D40*
%TO.C,C7*%
X82045000Y-88300000D03*
X81085000Y-88300000D03*
%TD*%
D25*
%TO.C,D65*%
X311465000Y-140850000D03*
X311465000Y-137550000D03*
%TD*%
%TO.C,D15*%
X278065000Y-65150000D03*
X278065000Y-61850000D03*
%TD*%
D26*
%TO.C,C1*%
X95840000Y-90800000D03*
X94290000Y-90800000D03*
%TD*%
D25*
%TO.C,D59*%
X74400000Y-140550000D03*
X74400000Y-137250000D03*
%TD*%
D31*
%TO.C,BT1*%
X108965000Y-91200000D03*
X108965000Y-94800000D03*
D32*
X105090000Y-92500000D03*
X105090000Y-93500000D03*
%TD*%
D24*
%TO.C,C15*%
X73465000Y-85670000D03*
X73465000Y-86630000D03*
%TD*%
D40*
%TO.C,C8*%
X82045000Y-90600000D03*
X81085000Y-90600000D03*
%TD*%
D25*
%TO.C,D63*%
X264265000Y-140650000D03*
X264265000Y-137350000D03*
%TD*%
D47*
%TO.C,C9*%
X68385000Y-92450000D03*
X69345000Y-92450000D03*
%TD*%
D25*
%TO.C,D57*%
X316500000Y-121650000D03*
X316500000Y-118350000D03*
%TD*%
%TO.C,D51*%
X188000000Y-121650000D03*
X188000000Y-118350000D03*
%TD*%
%TO.C,D43*%
X273500000Y-102650000D03*
X273500000Y-99350000D03*
%TD*%
%TO.C,D60*%
X99065000Y-140650000D03*
X99065000Y-137350000D03*
%TD*%
D48*
%TO.C,Y2*%
X79865000Y-88300000D03*
X79865000Y-90700000D03*
%TD*%
D27*
%TO.C,D22*%
X139500000Y-74250000D03*
X139500000Y-77550000D03*
%TD*%
D46*
%TO.C,R22*%
X61925000Y-123150000D03*
X60905000Y-123150000D03*
%TD*%
D40*
%TO.C,C16*%
X75580000Y-85400000D03*
X74620000Y-85400000D03*
%TD*%
D42*
%TO.C,R17*%
X69000000Y-63240000D03*
X69000000Y-64260000D03*
%TD*%
D27*
%TO.C,D19*%
X82500000Y-74250000D03*
X82500000Y-77550000D03*
%TD*%
D49*
%TO.C,R5*%
X97100000Y-91225000D03*
X97100000Y-90205000D03*
%TD*%
D50*
%TO.C,D17*%
X317100000Y-68400000D03*
X320400000Y-68400000D03*
%TD*%
D43*
%TO.C,C10*%
X69200000Y-90980000D03*
X69200000Y-90020000D03*
%TD*%
D33*
%TO.C,R12*%
X55790000Y-116500000D03*
X56810000Y-116500000D03*
%TD*%
%TO.C,R10*%
X55690000Y-124700000D03*
X56710000Y-124700000D03*
%TD*%
D25*
%TO.C,D36*%
X140300000Y-102650000D03*
X140300000Y-99350000D03*
%TD*%
%TO.C,D12*%
X220565000Y-65150000D03*
X220565000Y-61850000D03*
%TD*%
D42*
%TO.C,R3*%
X98300000Y-90195000D03*
X98300000Y-91215000D03*
%TD*%
D25*
%TO.C,D11*%
X201565000Y-65150000D03*
X201565000Y-61850000D03*
%TD*%
%TO.C,D46*%
X92600000Y-121550000D03*
X92600000Y-118250000D03*
%TD*%
D51*
%TO.C,JP1*%
X53115000Y-130800000D03*
X54415000Y-130800000D03*
%TD*%
D52*
%TO.C,Y1*%
X69365000Y-86550000D03*
X67165000Y-86550000D03*
X67165000Y-84850000D03*
X69365000Y-84850000D03*
%TD*%
D33*
%TO.C,TH1*%
X99655000Y-92000000D03*
X100675000Y-92000000D03*
%TD*%
D29*
%TO.C,J4*%
X63675000Y-59680000D03*
X69455000Y-59680000D03*
D53*
X62240000Y-56000000D03*
D54*
X62240000Y-60170000D03*
D53*
X70890000Y-56000000D03*
D54*
X70890000Y-60170000D03*
%TD*%
D25*
%TO.C,D7*%
X125565000Y-65150000D03*
X125565000Y-61850000D03*
%TD*%
%TO.C,D8*%
X144565000Y-65150000D03*
X144565000Y-61850000D03*
%TD*%
%TO.C,D34*%
X102000000Y-102550000D03*
X102000000Y-99250000D03*
%TD*%
%TO.C,D56*%
X289300000Y-121750000D03*
X289300000Y-118450000D03*
%TD*%
D34*
%TO.C,C3*%
X91865000Y-93925000D03*
X91865000Y-95475000D03*
%TD*%
D27*
%TO.C,D18*%
X58750000Y-74250000D03*
X58750000Y-77550000D03*
%TD*%
D35*
%TO.C,D3*%
X57900000Y-68750000D03*
X54600000Y-68750000D03*
%TD*%
D25*
%TO.C,D54*%
X245200000Y-121750000D03*
X245200000Y-118450000D03*
%TD*%
D47*
%TO.C,C12*%
X66985000Y-89100000D03*
X67945000Y-89100000D03*
%TD*%
%TO.C,C13*%
X66885000Y-87900000D03*
X67845000Y-87900000D03*
%TD*%
D43*
%TO.C,C26*%
X72215000Y-86680000D03*
X72215000Y-85720000D03*
%TD*%
D25*
%TO.C,D16*%
X297065000Y-65150000D03*
X297065000Y-61850000D03*
%TD*%
D42*
%TO.C,R13*%
X55865000Y-117590000D03*
X55865000Y-118610000D03*
%TD*%
D25*
%TO.C,D13*%
X239565000Y-65150000D03*
X239565000Y-61850000D03*
%TD*%
D43*
%TO.C,C11*%
X66035000Y-90980000D03*
X66035000Y-90020000D03*
%TD*%
D42*
%TO.C,R19*%
X62865000Y-70080000D03*
X62865000Y-71100000D03*
%TD*%
D25*
%TO.C,D42*%
X254400000Y-102650000D03*
X254400000Y-99350000D03*
%TD*%
%TO.C,D41*%
X235500000Y-102550000D03*
X235500000Y-99250000D03*
%TD*%
D34*
%TO.C,C23*%
X78000000Y-85225000D03*
X78000000Y-86775000D03*
%TD*%
D25*
%TO.C,D52*%
X207000000Y-121650000D03*
X207000000Y-118350000D03*
%TD*%
D42*
%TO.C,R16*%
X64750000Y-63240000D03*
X64750000Y-64260000D03*
%TD*%
D55*
%TO.C,U1*%
X98315000Y-93100000D03*
X98315000Y-93600000D03*
X98315000Y-94100000D03*
X98315000Y-94600000D03*
D56*
X97630000Y-95285000D03*
X97130000Y-95285000D03*
X96630000Y-95285000D03*
X96130000Y-95285000D03*
D55*
X95445000Y-94600000D03*
X95445000Y-94100000D03*
X95445000Y-93600000D03*
X95445000Y-93100000D03*
D56*
X96130000Y-92415000D03*
X96630000Y-92415000D03*
X97130000Y-92415000D03*
X97630000Y-92415000D03*
D57*
X96880000Y-93850000D03*
%TD*%
D47*
%TO.C,C25*%
X74585000Y-97100000D03*
X75545000Y-97100000D03*
%TD*%
D27*
%TO.C,D25*%
X196500000Y-74250000D03*
X196500000Y-77550000D03*
%TD*%
D25*
%TO.C,D14*%
X259065000Y-65150000D03*
X259065000Y-61850000D03*
%TD*%
D58*
%TO.C,AE1*%
X54260000Y-88750000D03*
D29*
X54210000Y-86650000D03*
%TD*%
D59*
%TO.C,C20*%
X79065000Y-98400000D03*
X80965000Y-98400000D03*
%TD*%
D42*
%TO.C,R1*%
X96950000Y-96695000D03*
X96950000Y-97715000D03*
%TD*%
%TO.C,R8*%
X55800000Y-125790000D03*
X55800000Y-126810000D03*
%TD*%
M02*
