M48
; DRILL file {KiCad 7.0.1-0} date 2023 July 30, Sunday 16:54:23
; FORMAT={-:-/ absolute / inch / decimal}
; #@! TF.CreationDate,2023-07-30T16:54:23+05:30
; #@! TF.GenerationSoftware,Kicad,Pcbnew,7.0.1-0
; #@! TF.FileFunction,Plated,1,2,PTH
FMAT,2
INCH
; #@! TA.AperFunction,Plated,PTH,ViaDrill
T1C0.0118
; #@! TA.AperFunction,Plated,PTH,ComponentDrill
T2C0.0118
; #@! TA.AperFunction,Plated,PTH,ComponentDrill
T3C0.0236
; #@! TA.AperFunction,Plated,PTH,ComponentDrill
T4C0.0571
; #@! TA.AperFunction,Plated,PTH,ComponentDrill
T5C0.0579
; #@! TA.AperFunction,Plated,PTH,ComponentDrill
T6C0.0591
%
G90
G05
T1
X1.9759Y-4.2393
X2.038Y-5.0787
X2.0892Y-5.0984
X2.101Y-4.1614
X2.1417Y-3.5276
X2.1496Y-3.4567
X2.1561Y-4.8937
X2.1719Y-4.1929
X2.1719Y-4.2953
X2.1719Y-4.8346
X2.1732Y-3.5276
X2.1811Y-3.4567
X2.1955Y-4.5551
X2.2047Y-3.5276
X2.2126Y-3.4567
X2.2309Y-4.6732
X2.2334Y-3.5461
X2.2348Y-4.7638
X2.2432Y-4.9391
X2.2441Y-3.4646
X2.257Y-3.5698
X2.2677Y-3.4803
X2.2756Y-3.5906
X2.2762Y-4.1201
X2.2913Y-3.5039
X2.2992Y-3.6142
X2.315Y-3.5276
X2.3264Y-4.8907
X2.3307Y-3.622
X2.3411Y-5.3169
X2.3451Y-3.878
X2.3465Y-3.5433
X2.3482Y-4.8465
X2.3622Y-3.622
X2.3746Y-4.6634
X2.378Y-3.5433
X2.3904Y-4.4587
X2.3937Y-3.622
X2.4002Y-3.8346
X2.4094Y-3.5433
X2.4252Y-3.622
X2.4409Y-3.5433
X2.4567Y-3.622
X2.4724Y-3.5433
X2.477Y-2.8465
X2.4882Y-3.622
X2.5039Y-3.5433
X2.5144Y-4.6102
X2.5197Y-3.622
X2.5236Y-2.4331
X2.5242Y-3.7047
X2.5354Y-3.5433
X2.54Y-4.2756
X2.5459Y-4.6102
X2.5498Y-2.5591
X2.5512Y-2.3465
X2.5512Y-3.622
X2.5518Y-3.8858
X2.5518Y-4.1358
X2.5669Y-3.5486
X2.5827Y-3.622
X2.5892Y-3.4094
X2.5984Y-3.5197
X2.6142Y-3.622
X2.6299Y-3.5433
X2.6364Y-2.5512
X2.6457Y-3.622
X2.6482Y-3.8839
X2.6614Y-3.5433
X2.6837Y-3.0236
X2.6915Y-4.5709
X2.6929Y-3.5433
X2.6969Y-2.3425
X2.7126Y-2.4291
X2.7152Y-3.7677
X2.7191Y-2.5551
X2.723Y-4.5748
X2.7309Y-3.6697
X2.7329Y-4.0728
X2.7407Y-4.3878
X2.7456Y-3.6076
X2.7473Y-3.7842
X2.7506Y-4.6122
X2.7644Y-3.7067
X2.7683Y-4.3504
X2.7742Y-3.8543
X2.7744Y-3.6163
X2.7824Y-3.8934
X2.786Y-3.3268
X2.8057Y-3.8543
X2.8096Y-4.3209
X2.8159Y-3.9269
X2.8283Y-4.4557
X2.8411Y-3.3091
X2.8411Y-3.3484
X2.853Y-3.9537
X2.8648Y-4.4961
X2.8661Y-2.2992
X2.8708Y-3.9134
X2.8923Y-3.313
X2.8923Y-3.3465
X2.8949Y-4.1437
X2.8963Y-3.876
X2.8976Y-2.2677
X2.9175Y-3.937
X2.9182Y-3.9764
X2.9199Y-2.7442
X2.9281Y-3.4628
X2.9356Y-3.2894
X2.9356Y-4.4449
X2.94Y-3.7874
X2.9577Y-4.0709
X2.9632Y-3.9055
X2.9671Y-2.7815
X2.9686Y-3.7801
X2.973Y-3.8524
X2.9829Y-3.4724
X2.9829Y-3.9646
X2.9845Y-3.2739
X2.9868Y-3.0
X2.9868Y-4.3218
X2.9968Y-3.2205
X3.0Y-3.9291
X3.0026Y-4.9528
X3.0044Y-3.374
X3.0124Y-3.4724
X3.0203Y-4.2815
X3.0236Y-3.8504
X3.0478Y-2.8287
X3.0695Y-3.3189
X3.1049Y-3.3287
X3.1167Y-3.9193
X3.1167Y-4.2244
X3.1207Y-3.3583
X3.1482Y-3.3839
X3.1541Y-3.878
X3.1561Y-3.8425
X3.1561Y-3.9921
X3.1876Y-3.8287
X3.2073Y-3.811
X3.2191Y-3.8465
X3.2211Y-3.8839
X3.2388Y-3.9646
X3.2467Y-3.811
X3.2722Y-3.7776
X3.2742Y-3.7008
X3.2781Y-3.9173
X3.2939Y-2.9567
X3.2978Y-3.7362
X3.2978Y-4.4331
X3.3215Y-3.7638
X3.3333Y-2.5984
X3.3333Y-2.7087
X3.347Y-5.1398
X3.353Y-3.4173
X3.353Y-3.7008
X3.3569Y-3.7638
X3.3687Y-3.7913
X3.4514Y-2.5984
X3.4553Y-2.7047
X3.5528Y-3.6049
X3.5892Y-3.7323
X3.6002Y-3.5937
X3.6049Y-3.8071
X3.6325Y-2.6447
X3.6325Y-2.6781
X3.6719Y-3.6969
X3.6758Y-3.5748
X3.6797Y-3.622
X3.7601Y-3.7741
X3.805Y-3.779
X3.8215Y-3.5276
X3.8254Y-4.2126
X3.8687Y-3.5276
X3.8687Y-4.0276
X3.8943Y-3.7817
X3.9356Y-4.0276
X3.9396Y-3.8132
X3.9868Y-3.7797
X4.0203Y-3.6201
X4.0498Y-3.3268
X4.076Y-4.1573
X4.0774Y-3.8661
X4.1167Y-3.7087
X4.1285Y-2.6447
X4.1285Y-2.6781
X4.1522Y-3.7087
X4.1837Y-3.685
X4.1915Y-2.7126
X4.2073Y-3.5748
X4.3175Y-3.8622
X4.5183Y-3.6702
X4.5222Y-3.7047
X4.5774Y-2.6457
X4.5774Y-3.5984
X4.5931Y-4.252
X6.0262Y-3.748
X6.0419Y-3.7795
X6.0734Y-3.7795
X6.1049Y-3.7795
X6.1285Y-3.748
X11.3687Y-2.8169
X11.3746Y-2.9724
X11.6443Y-2.7165
X11.6955Y-2.7165
X11.79Y-2.7953
X12.0026Y-2.9094
X12.0183Y-2.7717
X12.0537Y-2.9449
X12.3648Y-2.9134
X12.4356Y-2.7205
X13.0656Y-2.2047
T2
X2.1343Y-3.4114
X2.8563Y-3.5531
X2.8563Y-3.6004
X2.8563Y-3.6476
X2.8563Y-3.6949
X2.9035Y-3.5531
X2.9035Y-3.6004
X2.9035Y-3.6476
X2.9035Y-3.6949
X2.9508Y-3.5531
X2.9508Y-3.6004
X2.9508Y-3.6476
X2.9508Y-3.6949
X2.998Y-3.5531
X2.998Y-3.6004
X2.998Y-3.6476
X2.998Y-3.6949
X3.7945Y-3.6752
X3.7945Y-3.7146
X3.8339Y-3.6752
X3.8339Y-3.7146
T4
X1.997Y-4.5169
X1.997Y-4.6169
X1.997Y-4.7169
X1.997Y-4.8169
X1.997Y-4.9169
X2.097Y-4.5669
X2.097Y-4.6669
X2.097Y-4.7669
X2.097Y-4.8669
X2.097Y-4.9669
T5
X6.9051Y-5.4079
X7.1551Y-5.3079
X7.3758Y-5.4087
X7.6258Y-5.3087
T6
X2.1226Y-2.411
X2.2159Y-5.4071
X2.2171Y-3.911
X2.3116Y-3.163
X2.3156Y-5.4081
X2.3726Y-2.311
X2.4061Y-3.911
X2.4659Y-5.3071
X2.4671Y-3.811
X2.5616Y-3.063
X2.5656Y-5.3081
X2.5915Y-4.6591
X2.6561Y-3.811
X2.8415Y-4.5591
X2.8707Y-2.411
X3.1207Y-2.311
X3.1541Y-5.4071
X3.2486Y-3.163
X3.2518Y-5.4079
X3.4041Y-5.3071
X3.4376Y-3.911
X3.4986Y-3.063
X3.5018Y-5.3079
X3.6187Y-2.411
X3.6876Y-3.811
X3.8104Y-4.6591
X3.8687Y-2.311
X3.9927Y-3.163
X4.0604Y-4.5591
X4.0927Y-5.4071
X4.188Y-5.4081
X4.1896Y-3.911
X4.2427Y-3.063
X4.3427Y-5.3071
X4.3667Y-2.411
X4.438Y-5.3081
X4.4396Y-3.811
X4.5624Y-4.6591
X4.6167Y-2.311
X4.7407Y-3.163
X4.8124Y-4.5591
X4.9415Y-3.911
X4.9907Y-3.063
X5.1148Y-2.411
X5.1915Y-3.811
X5.3124Y-4.6591
X5.3648Y-2.311
X5.4888Y-3.163
X5.5624Y-4.5591
X5.6935Y-3.911
X5.7388Y-3.063
X5.8628Y-2.411
X5.9435Y-3.811
X6.0648Y-4.6591
X6.1128Y-2.311
X6.2368Y-3.163
X6.3148Y-4.5591
X6.4409Y-3.911
X6.4868Y-3.063
X6.6108Y-2.411
X6.6909Y-3.811
X6.8159Y-4.6591
X6.8608Y-2.311
X6.9848Y-3.163
X7.0659Y-4.5591
X7.189Y-3.911
X7.2348Y-3.063
X7.3589Y-2.411
X7.439Y-3.811
X7.5675Y-4.6591
X7.6089Y-2.311
X7.7329Y-3.163
X7.8175Y-4.5591
X7.9409Y-3.911
X7.9829Y-3.063
X8.1069Y-2.411
X8.1909Y-3.811
X8.3179Y-4.6591
X8.3569Y-2.311
X8.4809Y-3.163
X8.5679Y-4.5591
X8.689Y-3.911
X8.7309Y-3.063
X8.8589Y-2.411
X8.939Y-3.811
X9.0687Y-4.6591
X9.1089Y-2.311
X9.2289Y-3.163
X9.3187Y-4.5591
X9.437Y-3.911
X9.4789Y-3.063
X9.6108Y-2.411
X9.687Y-3.811
X9.715Y-5.4079
X9.8183Y-4.6591
X9.8608Y-2.311
X9.965Y-5.3079
X9.977Y-3.163
X10.0683Y-4.5591
X10.187Y-3.911
X10.227Y-3.063
X10.3628Y-2.411
X10.437Y-3.811
X10.562Y-5.4096
X10.5675Y-4.6591
X10.6128Y-2.311
X10.652Y-5.4098
X10.7343Y-3.163
X10.812Y-5.3096
X10.8175Y-4.5591
X10.902Y-5.3098
X10.935Y-3.911
X10.9843Y-3.063
X11.1187Y-2.411
X11.185Y-3.811
X11.3687Y-2.311
X11.4927Y-3.163
X11.499Y-5.4081
X11.5909Y-5.4098
X11.5953Y-4.6598
X11.7427Y-3.063
X11.749Y-5.3081
X11.8409Y-5.3098
X11.8453Y-4.5598
X11.8707Y-2.411
X11.9661Y-4.6598
X12.1207Y-2.311
X12.1541Y-3.911
X12.2161Y-4.5598
X12.2461Y-2.4134
X12.4041Y-3.811
X12.4348Y-3.163
X12.436Y-5.4075
X12.4961Y-2.3134
X12.5291Y-5.4098
X12.622Y-4.6598
X12.6226Y-2.411
X12.6848Y-3.063
X12.686Y-5.3075
X12.7791Y-5.3098
X12.872Y-4.5598
X12.8726Y-2.311
T3
G00X2.4504Y-2.189
M15
G01X2.4504Y-2.2205
M16
G05
G00X2.4504Y-2.3472
M15
G01X2.4504Y-2.3906
M16
G05
G00X2.7909Y-2.189
M15
G01X2.7909Y-2.2205
M16
G05
G00X2.7909Y-2.3472
M15
G01X2.7909Y-2.3906
M16
G05
T0
M30
