%TF.GenerationSoftware,KiCad,Pcbnew,7.0.1-0*%
%TF.CreationDate,2023-07-30T16:54:28+05:30*%
%TF.ProjectId,Keyboard_60%,4b657962-6f61-4726-945f-3630252e6b69,rev?*%
%TF.SameCoordinates,Original*%
%TF.FileFunction,Paste,Bot*%
%TF.FilePolarity,Positive*%
%FSLAX46Y46*%
G04 Gerber Fmt 4.6, Leading zero omitted, Abs format (unit mm)*
G04 Created by KiCad (PCBNEW 7.0.1-0) date 2023-07-30 16:54:28*
%MOMM*%
%LPD*%
G01*
G04 APERTURE LIST*
G04 Aperture macros list*
%AMRoundRect*
0 Rectangle with rounded corners*
0 $1 Rounding radius*
0 $2 $3 $4 $5 $6 $7 $8 $9 X,Y pos of 4 corners*
0 Add a 4 corners polygon primitive as box body*
4,1,4,$2,$3,$4,$5,$6,$7,$8,$9,$2,$3,0*
0 Add four circle primitives for the rounded corners*
1,1,$1+$1,$2,$3*
1,1,$1+$1,$4,$5*
1,1,$1+$1,$6,$7*
1,1,$1+$1,$8,$9*
0 Add four rect primitives between the rounded corners*
20,1,$1+$1,$2,$3,$4,$5,0*
20,1,$1+$1,$4,$5,$6,$7,0*
20,1,$1+$1,$6,$7,$8,$9,0*
20,1,$1+$1,$8,$9,$2,$3,0*%
G04 Aperture macros list end*
%ADD10C,0.010000*%
%ADD11RoundRect,0.140000X-0.170000X0.140000X-0.170000X-0.140000X0.170000X-0.140000X0.170000X0.140000X0*%
%ADD12RoundRect,0.250000X0.400000X-0.250000X0.400000X0.250000X-0.400000X0.250000X-0.400000X-0.250000X0*%
%ADD13RoundRect,0.225000X0.225000X0.250000X-0.225000X0.250000X-0.225000X-0.250000X0.225000X-0.250000X0*%
%ADD14RoundRect,0.250000X-0.400000X0.250000X-0.400000X-0.250000X0.400000X-0.250000X0.400000X0.250000X0*%
%ADD15C,0.250000*%
%ADD16R,1.800000X1.200000*%
%ADD17R,1.550000X0.600000*%
%ADD18RoundRect,0.135000X-0.135000X-0.185000X0.135000X-0.185000X0.135000X0.185000X-0.135000X0.185000X0*%
%ADD19RoundRect,0.225000X-0.250000X0.225000X-0.250000X-0.225000X0.250000X-0.225000X0.250000X0.225000X0*%
%ADD20RoundRect,0.250000X0.250000X0.400000X-0.250000X0.400000X-0.250000X-0.400000X0.250000X-0.400000X0*%
%ADD21R,0.800000X0.950000*%
%ADD22R,0.900000X1.250000*%
%ADD23RoundRect,0.150000X0.512500X0.150000X-0.512500X0.150000X-0.512500X-0.150000X0.512500X-0.150000X0*%
%ADD24RoundRect,0.140000X0.140000X0.170000X-0.140000X0.170000X-0.140000X-0.170000X0.140000X-0.170000X0*%
%ADD25RoundRect,0.250000X-0.475000X0.250000X-0.475000X-0.250000X0.475000X-0.250000X0.475000X0.250000X0*%
%ADD26RoundRect,0.135000X-0.185000X0.135000X-0.185000X-0.135000X0.185000X-0.135000X0.185000X0.135000X0*%
%ADD27RoundRect,0.140000X0.170000X-0.140000X0.170000X0.140000X-0.170000X0.140000X-0.170000X-0.140000X0*%
%ADD28RoundRect,0.147500X0.147500X0.172500X-0.147500X0.172500X-0.147500X-0.172500X0.147500X-0.172500X0*%
%ADD29RoundRect,0.006000X0.094000X-0.276500X0.094000X0.276500X-0.094000X0.276500X-0.094000X-0.276500X0*%
%ADD30RoundRect,0.218750X0.256250X-0.218750X0.256250X0.218750X-0.256250X0.218750X-0.256250X-0.218750X0*%
%ADD31RoundRect,0.135000X0.135000X0.185000X-0.135000X0.185000X-0.135000X-0.185000X0.135000X-0.185000X0*%
%ADD32RoundRect,0.140000X-0.140000X-0.170000X0.140000X-0.170000X0.140000X0.170000X-0.140000X0.170000X0*%
%ADD33R,1.350000X0.650000*%
%ADD34RoundRect,0.135000X0.185000X-0.135000X0.185000X0.135000X-0.185000X0.135000X-0.185000X-0.135000X0*%
%ADD35RoundRect,0.250000X-0.250000X-0.400000X0.250000X-0.400000X0.250000X0.400000X-0.250000X0.400000X0*%
%ADD36R,1.400000X1.200000*%
%ADD37R,0.600000X1.140000*%
%ADD38R,0.300000X1.140000*%
%ADD39RoundRect,0.007800X0.422200X0.122200X-0.422200X0.122200X-0.422200X-0.122200X0.422200X-0.122200X0*%
%ADD40RoundRect,0.007800X0.122200X-0.422200X0.122200X0.422200X-0.122200X0.422200X-0.122200X-0.422200X0*%
%ADD41R,0.500000X5.000000*%
%ADD42R,0.500000X0.500000*%
%ADD43R,4.900000X0.500000*%
%ADD44R,2.640000X0.500000*%
%ADD45R,0.500000X2.000000*%
%ADD46R,0.500000X2.700000*%
%ADD47R,3.940000X0.500000*%
%ADD48R,4.900000X0.900000*%
%ADD49RoundRect,0.250000X-0.250000X-0.475000X0.250000X-0.475000X0.250000X0.475000X-0.250000X0.475000X0*%
G04 APERTURE END LIST*
%TO.C,U3*%
D10*
X76425000Y-94125000D02*
X74705000Y-94125000D01*
X74705000Y-92405000D01*
X76425000Y-92405000D01*
X76425000Y-94125000D01*
G36*
X76425000Y-94125000D02*
G01*
X74705000Y-94125000D01*
X74705000Y-92405000D01*
X76425000Y-92405000D01*
X76425000Y-94125000D01*
G37*
X76425000Y-91695000D02*
X74705000Y-91695000D01*
X74705000Y-89975000D01*
X76425000Y-89975000D01*
X76425000Y-91695000D01*
G36*
X76425000Y-91695000D02*
G01*
X74705000Y-91695000D01*
X74705000Y-89975000D01*
X76425000Y-89975000D01*
X76425000Y-91695000D01*
G37*
X73995000Y-94125000D02*
X72275000Y-94125000D01*
X72275000Y-92405000D01*
X73995000Y-92405000D01*
X73995000Y-94125000D01*
G36*
X73995000Y-94125000D02*
G01*
X72275000Y-94125000D01*
X72275000Y-92405000D01*
X73995000Y-92405000D01*
X73995000Y-94125000D01*
G37*
X73995000Y-91695000D02*
X72275000Y-91695000D01*
X72275000Y-89975000D01*
X73995000Y-89975000D01*
X73995000Y-91695000D01*
G36*
X73995000Y-91695000D02*
G01*
X72275000Y-91695000D01*
X72275000Y-89975000D01*
X73995000Y-89975000D01*
X73995000Y-91695000D01*
G37*
%TO.C,U4*%
X66988000Y-63803500D02*
X66990000Y-63803500D01*
X66993000Y-63804500D01*
X66995000Y-63804500D01*
X66998000Y-63805500D01*
X67000000Y-63806500D01*
X67003000Y-63807500D01*
X67005000Y-63809500D01*
X67007000Y-63810500D01*
X67009000Y-63812500D01*
X67011000Y-63813500D01*
X67013000Y-63815500D01*
X67015000Y-63817500D01*
X67017000Y-63819500D01*
X67019000Y-63821500D01*
X67020000Y-63823500D01*
X67022000Y-63825500D01*
X67023000Y-63827500D01*
X67025000Y-63829500D01*
X67026000Y-63832500D01*
X67027000Y-63834500D01*
X67028000Y-63837500D01*
X67028000Y-63839500D01*
X67029000Y-63842500D01*
X67029000Y-63844500D01*
X67030000Y-63847500D01*
X67030000Y-63849500D01*
X67030000Y-63852500D01*
X67030000Y-64317500D01*
X67030000Y-64320500D01*
X67030000Y-64322500D01*
X67029000Y-64325500D01*
X67029000Y-64327500D01*
X67028000Y-64330500D01*
X67028000Y-64332500D01*
X67027000Y-64335500D01*
X67026000Y-64337500D01*
X67025000Y-64340500D01*
X67023000Y-64342500D01*
X67022000Y-64344500D01*
X67020000Y-64346500D01*
X67019000Y-64348500D01*
X67017000Y-64350500D01*
X67015000Y-64352500D01*
X67013000Y-64354500D01*
X67011000Y-64356500D01*
X67009000Y-64357500D01*
X67007000Y-64359500D01*
X67005000Y-64360500D01*
X67003000Y-64362500D01*
X67000000Y-64363500D01*
X66998000Y-64364500D01*
X66995000Y-64365500D01*
X66993000Y-64365500D01*
X66990000Y-64366500D01*
X66988000Y-64366500D01*
X66985000Y-64367500D01*
X66983000Y-64367500D01*
X66980000Y-64367500D01*
X66720000Y-64367500D01*
X66717000Y-64367500D01*
X66715000Y-64367500D01*
X66712000Y-64366500D01*
X66710000Y-64366500D01*
X66707000Y-64365500D01*
X66705000Y-64365500D01*
X66702000Y-64364500D01*
X66700000Y-64363500D01*
X66697000Y-64362500D01*
X66695000Y-64360500D01*
X66693000Y-64359500D01*
X66691000Y-64357500D01*
X66689000Y-64356500D01*
X66687000Y-64354500D01*
X66685000Y-64352500D01*
X66683000Y-64350500D01*
X66681000Y-64348500D01*
X66680000Y-64346500D01*
X66678000Y-64344500D01*
X66677000Y-64342500D01*
X66675000Y-64340500D01*
X66674000Y-64337500D01*
X66673000Y-64335500D01*
X66672000Y-64332500D01*
X66672000Y-64330500D01*
X66671000Y-64327500D01*
X66671000Y-64325500D01*
X66670000Y-64322500D01*
X66670000Y-64320500D01*
X66670000Y-64317500D01*
X66670000Y-63852500D01*
X66670000Y-63849500D01*
X66670000Y-63847500D01*
X66671000Y-63844500D01*
X66671000Y-63842500D01*
X66672000Y-63839500D01*
X66672000Y-63837500D01*
X66673000Y-63834500D01*
X66674000Y-63832500D01*
X66675000Y-63829500D01*
X66677000Y-63827500D01*
X66678000Y-63825500D01*
X66680000Y-63823500D01*
X66681000Y-63821500D01*
X66683000Y-63819500D01*
X66685000Y-63817500D01*
X66687000Y-63815500D01*
X66689000Y-63813500D01*
X66691000Y-63812500D01*
X66693000Y-63810500D01*
X66695000Y-63809500D01*
X66697000Y-63807500D01*
X66700000Y-63806500D01*
X66702000Y-63805500D01*
X66705000Y-63804500D01*
X66707000Y-63804500D01*
X66710000Y-63803500D01*
X66712000Y-63803500D01*
X66715000Y-63802500D01*
X66717000Y-63802500D01*
X66720000Y-63802500D01*
X66980000Y-63802500D01*
X66983000Y-63802500D01*
X66985000Y-63802500D01*
X66988000Y-63803500D01*
G36*
X66988000Y-63803500D02*
G01*
X66990000Y-63803500D01*
X66993000Y-63804500D01*
X66995000Y-63804500D01*
X66998000Y-63805500D01*
X67000000Y-63806500D01*
X67003000Y-63807500D01*
X67005000Y-63809500D01*
X67007000Y-63810500D01*
X67009000Y-63812500D01*
X67011000Y-63813500D01*
X67013000Y-63815500D01*
X67015000Y-63817500D01*
X67017000Y-63819500D01*
X67019000Y-63821500D01*
X67020000Y-63823500D01*
X67022000Y-63825500D01*
X67023000Y-63827500D01*
X67025000Y-63829500D01*
X67026000Y-63832500D01*
X67027000Y-63834500D01*
X67028000Y-63837500D01*
X67028000Y-63839500D01*
X67029000Y-63842500D01*
X67029000Y-63844500D01*
X67030000Y-63847500D01*
X67030000Y-63849500D01*
X67030000Y-63852500D01*
X67030000Y-64317500D01*
X67030000Y-64320500D01*
X67030000Y-64322500D01*
X67029000Y-64325500D01*
X67029000Y-64327500D01*
X67028000Y-64330500D01*
X67028000Y-64332500D01*
X67027000Y-64335500D01*
X67026000Y-64337500D01*
X67025000Y-64340500D01*
X67023000Y-64342500D01*
X67022000Y-64344500D01*
X67020000Y-64346500D01*
X67019000Y-64348500D01*
X67017000Y-64350500D01*
X67015000Y-64352500D01*
X67013000Y-64354500D01*
X67011000Y-64356500D01*
X67009000Y-64357500D01*
X67007000Y-64359500D01*
X67005000Y-64360500D01*
X67003000Y-64362500D01*
X67000000Y-64363500D01*
X66998000Y-64364500D01*
X66995000Y-64365500D01*
X66993000Y-64365500D01*
X66990000Y-64366500D01*
X66988000Y-64366500D01*
X66985000Y-64367500D01*
X66983000Y-64367500D01*
X66980000Y-64367500D01*
X66720000Y-64367500D01*
X66717000Y-64367500D01*
X66715000Y-64367500D01*
X66712000Y-64366500D01*
X66710000Y-64366500D01*
X66707000Y-64365500D01*
X66705000Y-64365500D01*
X66702000Y-64364500D01*
X66700000Y-64363500D01*
X66697000Y-64362500D01*
X66695000Y-64360500D01*
X66693000Y-64359500D01*
X66691000Y-64357500D01*
X66689000Y-64356500D01*
X66687000Y-64354500D01*
X66685000Y-64352500D01*
X66683000Y-64350500D01*
X66681000Y-64348500D01*
X66680000Y-64346500D01*
X66678000Y-64344500D01*
X66677000Y-64342500D01*
X66675000Y-64340500D01*
X66674000Y-64337500D01*
X66673000Y-64335500D01*
X66672000Y-64332500D01*
X66672000Y-64330500D01*
X66671000Y-64327500D01*
X66671000Y-64325500D01*
X66670000Y-64322500D01*
X66670000Y-64320500D01*
X66670000Y-64317500D01*
X66670000Y-63852500D01*
X66670000Y-63849500D01*
X66670000Y-63847500D01*
X66671000Y-63844500D01*
X66671000Y-63842500D01*
X66672000Y-63839500D01*
X66672000Y-63837500D01*
X66673000Y-63834500D01*
X66674000Y-63832500D01*
X66675000Y-63829500D01*
X66677000Y-63827500D01*
X66678000Y-63825500D01*
X66680000Y-63823500D01*
X66681000Y-63821500D01*
X66683000Y-63819500D01*
X66685000Y-63817500D01*
X66687000Y-63815500D01*
X66689000Y-63813500D01*
X66691000Y-63812500D01*
X66693000Y-63810500D01*
X66695000Y-63809500D01*
X66697000Y-63807500D01*
X66700000Y-63806500D01*
X66702000Y-63805500D01*
X66705000Y-63804500D01*
X66707000Y-63804500D01*
X66710000Y-63803500D01*
X66712000Y-63803500D01*
X66715000Y-63802500D01*
X66717000Y-63802500D01*
X66720000Y-63802500D01*
X66980000Y-63802500D01*
X66983000Y-63802500D01*
X66985000Y-63802500D01*
X66988000Y-63803500D01*
G37*
X66988000Y-62968500D02*
X66990000Y-62968500D01*
X66993000Y-62969500D01*
X66995000Y-62969500D01*
X66998000Y-62970500D01*
X67000000Y-62971500D01*
X67003000Y-62972500D01*
X67005000Y-62974500D01*
X67007000Y-62975500D01*
X67009000Y-62977500D01*
X67011000Y-62978500D01*
X67013000Y-62980500D01*
X67015000Y-62982500D01*
X67017000Y-62984500D01*
X67019000Y-62986500D01*
X67020000Y-62988500D01*
X67022000Y-62990500D01*
X67023000Y-62992500D01*
X67025000Y-62994500D01*
X67026000Y-62997500D01*
X67027000Y-62999500D01*
X67028000Y-63002500D01*
X67028000Y-63004500D01*
X67029000Y-63007500D01*
X67029000Y-63009500D01*
X67030000Y-63012500D01*
X67030000Y-63014500D01*
X67030000Y-63017500D01*
X67030000Y-63482500D01*
X67030000Y-63485500D01*
X67030000Y-63487500D01*
X67029000Y-63490500D01*
X67029000Y-63492500D01*
X67028000Y-63495500D01*
X67028000Y-63497500D01*
X67027000Y-63500500D01*
X67026000Y-63502500D01*
X67025000Y-63505500D01*
X67023000Y-63507500D01*
X67022000Y-63509500D01*
X67020000Y-63511500D01*
X67019000Y-63513500D01*
X67017000Y-63515500D01*
X67015000Y-63517500D01*
X67013000Y-63519500D01*
X67011000Y-63521500D01*
X67009000Y-63522500D01*
X67007000Y-63524500D01*
X67005000Y-63525500D01*
X67003000Y-63527500D01*
X67000000Y-63528500D01*
X66998000Y-63529500D01*
X66995000Y-63530500D01*
X66993000Y-63530500D01*
X66990000Y-63531500D01*
X66988000Y-63531500D01*
X66985000Y-63532500D01*
X66983000Y-63532500D01*
X66980000Y-63532500D01*
X66720000Y-63532500D01*
X66717000Y-63532500D01*
X66715000Y-63532500D01*
X66712000Y-63531500D01*
X66710000Y-63531500D01*
X66707000Y-63530500D01*
X66705000Y-63530500D01*
X66702000Y-63529500D01*
X66700000Y-63528500D01*
X66697000Y-63527500D01*
X66695000Y-63525500D01*
X66693000Y-63524500D01*
X66691000Y-63522500D01*
X66689000Y-63521500D01*
X66687000Y-63519500D01*
X66685000Y-63517500D01*
X66683000Y-63515500D01*
X66681000Y-63513500D01*
X66680000Y-63511500D01*
X66678000Y-63509500D01*
X66677000Y-63507500D01*
X66675000Y-63505500D01*
X66674000Y-63502500D01*
X66673000Y-63500500D01*
X66672000Y-63497500D01*
X66672000Y-63495500D01*
X66671000Y-63492500D01*
X66671000Y-63490500D01*
X66670000Y-63487500D01*
X66670000Y-63485500D01*
X66670000Y-63482500D01*
X66670000Y-63017500D01*
X66670000Y-63014500D01*
X66670000Y-63012500D01*
X66671000Y-63009500D01*
X66671000Y-63007500D01*
X66672000Y-63004500D01*
X66672000Y-63002500D01*
X66673000Y-62999500D01*
X66674000Y-62997500D01*
X66675000Y-62994500D01*
X66677000Y-62992500D01*
X66678000Y-62990500D01*
X66680000Y-62988500D01*
X66681000Y-62986500D01*
X66683000Y-62984500D01*
X66685000Y-62982500D01*
X66687000Y-62980500D01*
X66689000Y-62978500D01*
X66691000Y-62977500D01*
X66693000Y-62975500D01*
X66695000Y-62974500D01*
X66697000Y-62972500D01*
X66700000Y-62971500D01*
X66702000Y-62970500D01*
X66705000Y-62969500D01*
X66707000Y-62969500D01*
X66710000Y-62968500D01*
X66712000Y-62968500D01*
X66715000Y-62967500D01*
X66717000Y-62967500D01*
X66720000Y-62967500D01*
X66980000Y-62967500D01*
X66983000Y-62967500D01*
X66985000Y-62967500D01*
X66988000Y-62968500D01*
G36*
X66988000Y-62968500D02*
G01*
X66990000Y-62968500D01*
X66993000Y-62969500D01*
X66995000Y-62969500D01*
X66998000Y-62970500D01*
X67000000Y-62971500D01*
X67003000Y-62972500D01*
X67005000Y-62974500D01*
X67007000Y-62975500D01*
X67009000Y-62977500D01*
X67011000Y-62978500D01*
X67013000Y-62980500D01*
X67015000Y-62982500D01*
X67017000Y-62984500D01*
X67019000Y-62986500D01*
X67020000Y-62988500D01*
X67022000Y-62990500D01*
X67023000Y-62992500D01*
X67025000Y-62994500D01*
X67026000Y-62997500D01*
X67027000Y-62999500D01*
X67028000Y-63002500D01*
X67028000Y-63004500D01*
X67029000Y-63007500D01*
X67029000Y-63009500D01*
X67030000Y-63012500D01*
X67030000Y-63014500D01*
X67030000Y-63017500D01*
X67030000Y-63482500D01*
X67030000Y-63485500D01*
X67030000Y-63487500D01*
X67029000Y-63490500D01*
X67029000Y-63492500D01*
X67028000Y-63495500D01*
X67028000Y-63497500D01*
X67027000Y-63500500D01*
X67026000Y-63502500D01*
X67025000Y-63505500D01*
X67023000Y-63507500D01*
X67022000Y-63509500D01*
X67020000Y-63511500D01*
X67019000Y-63513500D01*
X67017000Y-63515500D01*
X67015000Y-63517500D01*
X67013000Y-63519500D01*
X67011000Y-63521500D01*
X67009000Y-63522500D01*
X67007000Y-63524500D01*
X67005000Y-63525500D01*
X67003000Y-63527500D01*
X67000000Y-63528500D01*
X66998000Y-63529500D01*
X66995000Y-63530500D01*
X66993000Y-63530500D01*
X66990000Y-63531500D01*
X66988000Y-63531500D01*
X66985000Y-63532500D01*
X66983000Y-63532500D01*
X66980000Y-63532500D01*
X66720000Y-63532500D01*
X66717000Y-63532500D01*
X66715000Y-63532500D01*
X66712000Y-63531500D01*
X66710000Y-63531500D01*
X66707000Y-63530500D01*
X66705000Y-63530500D01*
X66702000Y-63529500D01*
X66700000Y-63528500D01*
X66697000Y-63527500D01*
X66695000Y-63525500D01*
X66693000Y-63524500D01*
X66691000Y-63522500D01*
X66689000Y-63521500D01*
X66687000Y-63519500D01*
X66685000Y-63517500D01*
X66683000Y-63515500D01*
X66681000Y-63513500D01*
X66680000Y-63511500D01*
X66678000Y-63509500D01*
X66677000Y-63507500D01*
X66675000Y-63505500D01*
X66674000Y-63502500D01*
X66673000Y-63500500D01*
X66672000Y-63497500D01*
X66672000Y-63495500D01*
X66671000Y-63492500D01*
X66671000Y-63490500D01*
X66670000Y-63487500D01*
X66670000Y-63485500D01*
X66670000Y-63482500D01*
X66670000Y-63017500D01*
X66670000Y-63014500D01*
X66670000Y-63012500D01*
X66671000Y-63009500D01*
X66671000Y-63007500D01*
X66672000Y-63004500D01*
X66672000Y-63002500D01*
X66673000Y-62999500D01*
X66674000Y-62997500D01*
X66675000Y-62994500D01*
X66677000Y-62992500D01*
X66678000Y-62990500D01*
X66680000Y-62988500D01*
X66681000Y-62986500D01*
X66683000Y-62984500D01*
X66685000Y-62982500D01*
X66687000Y-62980500D01*
X66689000Y-62978500D01*
X66691000Y-62977500D01*
X66693000Y-62975500D01*
X66695000Y-62974500D01*
X66697000Y-62972500D01*
X66700000Y-62971500D01*
X66702000Y-62970500D01*
X66705000Y-62969500D01*
X66707000Y-62969500D01*
X66710000Y-62968500D01*
X66712000Y-62968500D01*
X66715000Y-62967500D01*
X66717000Y-62967500D01*
X66720000Y-62967500D01*
X66980000Y-62967500D01*
X66983000Y-62967500D01*
X66985000Y-62967500D01*
X66988000Y-62968500D01*
G37*
%TO.C,U1*%
X97410000Y-94380000D02*
X96350000Y-94380000D01*
X96350000Y-93320000D01*
X97410000Y-93320000D01*
X97410000Y-94380000D01*
G36*
X97410000Y-94380000D02*
G01*
X96350000Y-94380000D01*
X96350000Y-93320000D01*
X97410000Y-93320000D01*
X97410000Y-94380000D01*
G37*
%TD*%
D11*
%TO.C,C5*%
X70765000Y-85220000D03*
X70765000Y-86180000D03*
%TD*%
D12*
%TO.C,D47*%
X111500000Y-121650000D03*
X111500000Y-118350000D03*
%TD*%
%TO.C,D4*%
X84600000Y-65150000D03*
X84600000Y-61850000D03*
%TD*%
D13*
%TO.C,C14*%
X76375000Y-86700000D03*
X74825000Y-86700000D03*
%TD*%
D14*
%TO.C,D31*%
X315800000Y-74250000D03*
X315800000Y-77550000D03*
%TD*%
D15*
%TO.C,U3*%
X75600000Y-88800000D03*
X75100000Y-88800000D03*
X74600000Y-88800000D03*
X74100000Y-88800000D03*
X73600000Y-88800000D03*
X73100000Y-88800000D03*
X72600000Y-88800000D03*
X72100000Y-88800000D03*
X71600000Y-88800000D03*
X71100000Y-94300000D03*
X77100000Y-94550000D03*
X76350000Y-94800000D03*
X75350000Y-94800000D03*
X74850000Y-94800000D03*
X74350000Y-94800000D03*
X73850000Y-94800000D03*
X73350000Y-94800000D03*
X72850000Y-94800000D03*
X72350000Y-94800000D03*
X71100000Y-94800000D03*
X77100000Y-95300000D03*
X76600000Y-95300000D03*
X76100000Y-95300000D03*
X75600000Y-95300000D03*
X75100000Y-95300000D03*
X74600000Y-95300000D03*
X74100000Y-95300000D03*
X73600000Y-95300000D03*
X73100000Y-95300000D03*
X72600000Y-95300000D03*
X72100000Y-95300000D03*
X71600000Y-95300000D03*
X77600000Y-89300000D03*
X76850000Y-89300000D03*
X76350000Y-89300000D03*
X75850000Y-89300000D03*
X75350000Y-89300000D03*
X74850000Y-89300000D03*
X74350000Y-89300000D03*
X73850000Y-89300000D03*
X73350000Y-89300000D03*
X72850000Y-89300000D03*
X71100000Y-89300000D03*
X77600000Y-89800000D03*
X77100000Y-90050000D03*
X71600000Y-90050000D03*
X71100000Y-90300000D03*
X77100000Y-90550000D03*
X71600000Y-90550000D03*
X77600000Y-90800000D03*
X77100000Y-91050000D03*
X71600000Y-91050000D03*
X77600000Y-91300000D03*
X71100000Y-91300000D03*
X77100000Y-91550000D03*
X77600000Y-91800000D03*
X71100000Y-91800000D03*
X77100000Y-92050000D03*
X77600000Y-92300000D03*
X71100000Y-92300000D03*
X77100000Y-92550000D03*
X71600000Y-92550000D03*
X77600000Y-92800000D03*
X71100000Y-92800000D03*
X77100000Y-93050000D03*
X71600000Y-93050000D03*
X77600000Y-93300000D03*
X71100000Y-93300000D03*
X71600000Y-93550000D03*
X77600000Y-93800000D03*
X71100000Y-93800000D03*
X77100000Y-94050000D03*
X71600000Y-94050000D03*
%TD*%
D11*
%TO.C,C27*%
X79300000Y-86020000D03*
X79300000Y-86980000D03*
%TD*%
D16*
%TO.C,J1*%
X158340000Y-90800000D03*
X158340000Y-96400000D03*
D17*
X154465000Y-92100000D03*
X154465000Y-93100000D03*
X154465000Y-94100000D03*
X154465000Y-95100000D03*
%TD*%
D12*
%TO.C,D45*%
X61900000Y-121650000D03*
X61900000Y-118350000D03*
%TD*%
D18*
%TO.C,R23*%
X51345000Y-135850000D03*
X52365000Y-135850000D03*
%TD*%
D12*
%TO.C,D9*%
X163565000Y-65150000D03*
X163565000Y-61850000D03*
%TD*%
%TO.C,D5*%
X87500000Y-65150000D03*
X87500000Y-61850000D03*
%TD*%
%TO.C,D62*%
X241750000Y-140650000D03*
X241750000Y-137350000D03*
%TD*%
D14*
%TO.C,D26*%
X215400000Y-74250000D03*
X215400000Y-77550000D03*
%TD*%
D19*
%TO.C,C4*%
X86065000Y-93925000D03*
X86065000Y-95475000D03*
%TD*%
D14*
%TO.C,D21*%
X120500000Y-74250000D03*
X120500000Y-77550000D03*
%TD*%
%TO.C,D23*%
X158400000Y-74250000D03*
X158400000Y-77550000D03*
%TD*%
D12*
%TO.C,D39*%
X197300000Y-102650000D03*
X197300000Y-99350000D03*
%TD*%
%TO.C,D37*%
X159300000Y-102650000D03*
X159300000Y-99350000D03*
%TD*%
D20*
%TO.C,D32*%
X60050000Y-106400000D03*
X56750000Y-106400000D03*
%TD*%
D21*
%TO.C,SW1*%
X103215000Y-109150000D03*
X103215000Y-106850000D03*
X95715000Y-109150000D03*
X95715000Y-106850000D03*
D22*
X101715000Y-105900000D03*
X98715000Y-105900000D03*
X97215000Y-105900000D03*
%TD*%
D12*
%TO.C,D64*%
X287865000Y-140650000D03*
X287865000Y-137350000D03*
%TD*%
%TO.C,D33*%
X83465000Y-104350000D03*
X83465000Y-101050000D03*
%TD*%
D14*
%TO.C,D27*%
X234400000Y-74250000D03*
X234400000Y-77550000D03*
%TD*%
D12*
%TO.C,D58*%
X51300000Y-140650000D03*
X51300000Y-137350000D03*
%TD*%
D23*
%TO.C,U2*%
X90102500Y-93950000D03*
X90102500Y-94900000D03*
X90102500Y-95850000D03*
X87827500Y-95850000D03*
X87827500Y-93950000D03*
%TD*%
D18*
%TO.C,R18*%
X55665000Y-123500000D03*
X56685000Y-123500000D03*
%TD*%
%TO.C,R15*%
X74590000Y-84300000D03*
X75610000Y-84300000D03*
%TD*%
D24*
%TO.C,C24*%
X71545000Y-97100000D03*
X70585000Y-97100000D03*
%TD*%
D25*
%TO.C,C21*%
X79915000Y-94700000D03*
X79915000Y-96600000D03*
%TD*%
D12*
%TO.C,D35*%
X121200000Y-102650000D03*
X121200000Y-99350000D03*
%TD*%
%TO.C,D53*%
X226000000Y-121550000D03*
X226000000Y-118250000D03*
%TD*%
%TO.C,D48*%
X130700000Y-121550000D03*
X130700000Y-118250000D03*
%TD*%
D14*
%TO.C,D24*%
X177500000Y-74250000D03*
X177500000Y-77550000D03*
%TD*%
D26*
%TO.C,R9*%
X55800000Y-120790000D03*
X55800000Y-121810000D03*
%TD*%
D27*
%TO.C,C6*%
X65765000Y-85980000D03*
X65765000Y-85020000D03*
%TD*%
D12*
%TO.C,D6*%
X106565000Y-65150000D03*
X106565000Y-61850000D03*
%TD*%
D18*
%TO.C,R11*%
X55690000Y-119800000D03*
X56710000Y-119800000D03*
%TD*%
D26*
%TO.C,R2*%
X98200000Y-96695000D03*
X98200000Y-97715000D03*
%TD*%
D12*
%TO.C,D38*%
X178300000Y-102650000D03*
X178300000Y-99350000D03*
%TD*%
%TO.C,D10*%
X182565000Y-65150000D03*
X182565000Y-61850000D03*
%TD*%
%TO.C,D50*%
X168800000Y-121550000D03*
X168800000Y-118250000D03*
%TD*%
%TO.C,D61*%
X169700000Y-140650000D03*
X169700000Y-137350000D03*
%TD*%
D26*
%TO.C,R20*%
X68165000Y-75090000D03*
X68165000Y-76110000D03*
%TD*%
D28*
%TO.C,L1*%
X68085000Y-91000000D03*
X67115000Y-91000000D03*
%TD*%
D25*
%TO.C,C2*%
X100100000Y-94055000D03*
X100100000Y-95955000D03*
%TD*%
D29*
%TO.C,U4*%
X67850000Y-64085000D03*
X67350000Y-64085000D03*
X66350000Y-64085000D03*
X65850000Y-64085000D03*
X65850000Y-63250000D03*
X66350000Y-63250000D03*
X67350000Y-63250000D03*
X67850000Y-63250000D03*
%TD*%
D30*
%TO.C,L2*%
X72700000Y-57587500D03*
X72700000Y-56012500D03*
%TD*%
D25*
%TO.C,C22*%
X82015000Y-94050000D03*
X82015000Y-95950000D03*
%TD*%
D31*
%TO.C,R21*%
X62775000Y-104750000D03*
X61755000Y-104750000D03*
%TD*%
D12*
%TO.C,D49*%
X149800000Y-121650000D03*
X149800000Y-118350000D03*
%TD*%
D14*
%TO.C,D30*%
X292000000Y-74250000D03*
X292000000Y-77550000D03*
%TD*%
D26*
%TO.C,R14*%
X102065000Y-92695000D03*
X102065000Y-93715000D03*
%TD*%
%TO.C,R4*%
X94165000Y-92040000D03*
X94165000Y-93060000D03*
%TD*%
D12*
%TO.C,D44*%
X304200000Y-102650000D03*
X304200000Y-99350000D03*
%TD*%
D14*
%TO.C,D28*%
X253500000Y-74250000D03*
X253500000Y-77550000D03*
%TD*%
%TO.C,D29*%
X272600000Y-74250000D03*
X272600000Y-77550000D03*
%TD*%
D12*
%TO.C,D55*%
X264300000Y-121650000D03*
X264300000Y-118350000D03*
%TD*%
D14*
%TO.C,D20*%
X101500000Y-74250000D03*
X101500000Y-77550000D03*
%TD*%
D12*
%TO.C,D40*%
X216400000Y-102650000D03*
X216400000Y-99350000D03*
%TD*%
D24*
%TO.C,C7*%
X82045000Y-88300000D03*
X81085000Y-88300000D03*
%TD*%
D12*
%TO.C,D65*%
X311465000Y-140850000D03*
X311465000Y-137550000D03*
%TD*%
%TO.C,D15*%
X278065000Y-65150000D03*
X278065000Y-61850000D03*
%TD*%
D13*
%TO.C,C1*%
X95840000Y-90800000D03*
X94290000Y-90800000D03*
%TD*%
D12*
%TO.C,D59*%
X74400000Y-140550000D03*
X74400000Y-137250000D03*
%TD*%
D16*
%TO.C,BT1*%
X108965000Y-91200000D03*
X108965000Y-94800000D03*
D17*
X105090000Y-92500000D03*
X105090000Y-93500000D03*
%TD*%
D11*
%TO.C,C15*%
X73465000Y-85670000D03*
X73465000Y-86630000D03*
%TD*%
D24*
%TO.C,C8*%
X82045000Y-90600000D03*
X81085000Y-90600000D03*
%TD*%
D12*
%TO.C,D63*%
X264265000Y-140650000D03*
X264265000Y-137350000D03*
%TD*%
D32*
%TO.C,C9*%
X68385000Y-92450000D03*
X69345000Y-92450000D03*
%TD*%
D12*
%TO.C,D57*%
X316500000Y-121650000D03*
X316500000Y-118350000D03*
%TD*%
%TO.C,D51*%
X188000000Y-121650000D03*
X188000000Y-118350000D03*
%TD*%
%TO.C,D43*%
X273500000Y-102650000D03*
X273500000Y-99350000D03*
%TD*%
%TO.C,D60*%
X99065000Y-140650000D03*
X99065000Y-137350000D03*
%TD*%
D33*
%TO.C,Y2*%
X79865000Y-88300000D03*
X79865000Y-90700000D03*
%TD*%
D14*
%TO.C,D22*%
X139500000Y-74250000D03*
X139500000Y-77550000D03*
%TD*%
D31*
%TO.C,R22*%
X61925000Y-123150000D03*
X60905000Y-123150000D03*
%TD*%
D24*
%TO.C,C16*%
X75580000Y-85400000D03*
X74620000Y-85400000D03*
%TD*%
D26*
%TO.C,R17*%
X69000000Y-63240000D03*
X69000000Y-64260000D03*
%TD*%
D14*
%TO.C,D19*%
X82500000Y-74250000D03*
X82500000Y-77550000D03*
%TD*%
D34*
%TO.C,R5*%
X97100000Y-91225000D03*
X97100000Y-90205000D03*
%TD*%
D35*
%TO.C,D17*%
X317100000Y-68400000D03*
X320400000Y-68400000D03*
%TD*%
D27*
%TO.C,C10*%
X69200000Y-90980000D03*
X69200000Y-90020000D03*
%TD*%
D18*
%TO.C,R12*%
X55790000Y-116500000D03*
X56810000Y-116500000D03*
%TD*%
%TO.C,R10*%
X55690000Y-124700000D03*
X56710000Y-124700000D03*
%TD*%
D12*
%TO.C,D36*%
X140300000Y-102650000D03*
X140300000Y-99350000D03*
%TD*%
%TO.C,D12*%
X220565000Y-65150000D03*
X220565000Y-61850000D03*
%TD*%
D26*
%TO.C,R3*%
X98300000Y-90195000D03*
X98300000Y-91215000D03*
%TD*%
D12*
%TO.C,D11*%
X201565000Y-65150000D03*
X201565000Y-61850000D03*
%TD*%
%TO.C,D46*%
X92600000Y-121550000D03*
X92600000Y-118250000D03*
%TD*%
D36*
%TO.C,Y1*%
X69365000Y-86550000D03*
X67165000Y-86550000D03*
X67165000Y-84850000D03*
X69365000Y-84850000D03*
%TD*%
D18*
%TO.C,TH1*%
X99655000Y-92000000D03*
X100675000Y-92000000D03*
%TD*%
D37*
%TO.C,J4*%
X63365000Y-60750000D03*
X64165000Y-60750000D03*
D38*
X65315000Y-60750000D03*
X66315000Y-60750000D03*
X66815000Y-60750000D03*
X67815000Y-60750000D03*
D37*
X69765000Y-60750000D03*
X68965000Y-60750000D03*
D38*
X68315000Y-60750000D03*
X67315000Y-60750000D03*
X65815000Y-60750000D03*
X64815000Y-60750000D03*
%TD*%
D12*
%TO.C,D7*%
X125565000Y-65150000D03*
X125565000Y-61850000D03*
%TD*%
%TO.C,D8*%
X144565000Y-65150000D03*
X144565000Y-61850000D03*
%TD*%
%TO.C,D34*%
X102000000Y-102550000D03*
X102000000Y-99250000D03*
%TD*%
%TO.C,D56*%
X289300000Y-121750000D03*
X289300000Y-118450000D03*
%TD*%
D19*
%TO.C,C3*%
X91865000Y-93925000D03*
X91865000Y-95475000D03*
%TD*%
D14*
%TO.C,D18*%
X58750000Y-74250000D03*
X58750000Y-77550000D03*
%TD*%
D20*
%TO.C,D3*%
X57900000Y-68750000D03*
X54600000Y-68750000D03*
%TD*%
D12*
%TO.C,D54*%
X245200000Y-121750000D03*
X245200000Y-118450000D03*
%TD*%
D32*
%TO.C,C12*%
X66985000Y-89100000D03*
X67945000Y-89100000D03*
%TD*%
%TO.C,C13*%
X66885000Y-87900000D03*
X67845000Y-87900000D03*
%TD*%
D27*
%TO.C,C26*%
X72215000Y-86680000D03*
X72215000Y-85720000D03*
%TD*%
D12*
%TO.C,D16*%
X297065000Y-65150000D03*
X297065000Y-61850000D03*
%TD*%
D26*
%TO.C,R13*%
X55865000Y-117590000D03*
X55865000Y-118610000D03*
%TD*%
D12*
%TO.C,D13*%
X239565000Y-65150000D03*
X239565000Y-61850000D03*
%TD*%
D27*
%TO.C,C11*%
X66035000Y-90980000D03*
X66035000Y-90020000D03*
%TD*%
D26*
%TO.C,R19*%
X62865000Y-70080000D03*
X62865000Y-71100000D03*
%TD*%
D12*
%TO.C,D42*%
X254400000Y-102650000D03*
X254400000Y-99350000D03*
%TD*%
%TO.C,D41*%
X235500000Y-102550000D03*
X235500000Y-99250000D03*
%TD*%
D19*
%TO.C,C23*%
X78000000Y-85225000D03*
X78000000Y-86775000D03*
%TD*%
D12*
%TO.C,D52*%
X207000000Y-121650000D03*
X207000000Y-118350000D03*
%TD*%
D26*
%TO.C,R16*%
X64750000Y-63240000D03*
X64750000Y-64260000D03*
%TD*%
D39*
%TO.C,U1*%
X98315000Y-93100000D03*
X98315000Y-93600000D03*
X98315000Y-94100000D03*
X98315000Y-94600000D03*
D40*
X97630000Y-95285000D03*
X97130000Y-95285000D03*
X96630000Y-95285000D03*
X96130000Y-95285000D03*
D39*
X95445000Y-94600000D03*
X95445000Y-94100000D03*
X95445000Y-93600000D03*
X95445000Y-93100000D03*
D40*
X96130000Y-92415000D03*
X96630000Y-92415000D03*
X97130000Y-92415000D03*
X97630000Y-92415000D03*
%TD*%
D32*
%TO.C,C25*%
X74585000Y-97100000D03*
X75545000Y-97100000D03*
%TD*%
D14*
%TO.C,D25*%
X196500000Y-74250000D03*
X196500000Y-77550000D03*
%TD*%
D12*
%TO.C,D14*%
X259065000Y-65150000D03*
X259065000Y-61850000D03*
%TD*%
D41*
%TO.C,AE1*%
X49360000Y-88700000D03*
D42*
X54260000Y-88750000D03*
D43*
X52060000Y-88750000D03*
D44*
X50930000Y-90950000D03*
D45*
X52000000Y-92200000D03*
D44*
X50930000Y-93450000D03*
D46*
X49360000Y-94550000D03*
D44*
X50930000Y-95650000D03*
D45*
X52000000Y-96900000D03*
D44*
X50930000Y-98150000D03*
D46*
X49360000Y-99250000D03*
D47*
X51580000Y-100350000D03*
D48*
X52060000Y-86650000D03*
%TD*%
D49*
%TO.C,C20*%
X79065000Y-98400000D03*
X80965000Y-98400000D03*
%TD*%
D26*
%TO.C,R1*%
X96950000Y-96695000D03*
X96950000Y-97715000D03*
%TD*%
%TO.C,R8*%
X55800000Y-125790000D03*
X55800000Y-126810000D03*
%TD*%
M02*
