%TF.GenerationSoftware,KiCad,Pcbnew,7.0.1-0*%
%TF.CreationDate,2023-08-05T13:33:11+05:30*%
%TF.ProjectId,Keyboard_60%,4b657962-6f61-4726-945f-3630252e6b69,rev?*%
%TF.SameCoordinates,Original*%
%TF.FileFunction,Soldermask,Bot*%
%TF.FilePolarity,Negative*%
%FSLAX46Y46*%
G04 Gerber Fmt 4.6, Leading zero omitted, Abs format (unit mm)*
G04 Created by KiCad (PCBNEW 7.0.1-0) date 2023-08-05 13:33:11*
%MOMM*%
%LPD*%
G01*
G04 APERTURE LIST*
G04 Aperture macros list*
%AMRoundRect*
0 Rectangle with rounded corners*
0 $1 Rounding radius*
0 $2 $3 $4 $5 $6 $7 $8 $9 X,Y pos of 4 corners*
0 Add a 4 corners polygon primitive as box body*
4,1,4,$2,$3,$4,$5,$6,$7,$8,$9,$2,$3,0*
0 Add four circle primitives for the rounded corners*
1,1,$1+$1,$2,$3*
1,1,$1+$1,$4,$5*
1,1,$1+$1,$6,$7*
1,1,$1+$1,$8,$9*
0 Add four rect primitives between the rounded corners*
20,1,$1+$1,$2,$3,$4,$5,0*
20,1,$1+$1,$4,$5,$6,$7,0*
20,1,$1+$1,$6,$7,$8,$9,0*
20,1,$1+$1,$8,$9,$2,$3,0*%
G04 Aperture macros list end*
%ADD10C,0.300000*%
%ADD11C,0.010000*%
%ADD12C,1.700000*%
%ADD13C,4.000000*%
%ADD14C,2.200000*%
%ADD15C,2.150000*%
%ADD16C,2.550000*%
%ADD17C,1.900000*%
%ADD18C,1.850000*%
%ADD19O,9.999980X5.001260*%
%ADD20C,3.050000*%
%ADD21O,6.000000X3.500000*%
%ADD22C,3.987800*%
%ADD23C,3.048000*%
%ADD24C,1.750000*%
%ADD25C,2.250000*%
%ADD26C,1.016000*%
%ADD27RoundRect,0.140000X-0.170000X0.140000X-0.170000X-0.140000X0.170000X-0.140000X0.170000X0.140000X0*%
%ADD28RoundRect,0.250000X0.400000X-0.250000X0.400000X0.250000X-0.400000X0.250000X-0.400000X-0.250000X0*%
%ADD29RoundRect,0.225000X0.225000X0.250000X-0.225000X0.250000X-0.225000X-0.250000X0.225000X-0.250000X0*%
%ADD30RoundRect,0.250000X-0.400000X0.250000X-0.400000X-0.250000X0.400000X-0.250000X0.400000X0.250000X0*%
%ADD31R,4.850000X4.850000*%
%ADD32C,0.600000*%
%ADD33C,0.250000*%
%ADD34RoundRect,0.140000X0.140000X0.170000X-0.140000X0.170000X-0.140000X-0.170000X0.140000X-0.170000X0*%
%ADD35R,1.800000X1.200000*%
%ADD36R,1.550000X0.600000*%
%ADD37RoundRect,0.135000X0.185000X-0.135000X0.185000X0.135000X-0.185000X0.135000X-0.185000X-0.135000X0*%
%ADD38RoundRect,0.250000X-0.250000X-0.400000X0.250000X-0.400000X0.250000X0.400000X-0.250000X0.400000X0*%
%ADD39RoundRect,0.147500X0.147500X0.172500X-0.147500X0.172500X-0.147500X-0.172500X0.147500X-0.172500X0*%
%ADD40RoundRect,0.250000X0.250000X0.400000X-0.250000X0.400000X-0.250000X-0.400000X0.250000X-0.400000X0*%
%ADD41R,0.800000X0.950000*%
%ADD42C,0.900000*%
%ADD43R,0.900000X1.250000*%
%ADD44RoundRect,0.140000X-0.140000X-0.170000X0.140000X-0.170000X0.140000X0.170000X-0.140000X0.170000X0*%
%ADD45RoundRect,0.135000X-0.135000X-0.185000X0.135000X-0.185000X0.135000X0.185000X-0.135000X0.185000X0*%
%ADD46RoundRect,0.250000X-0.250000X-0.475000X0.250000X-0.475000X0.250000X0.475000X-0.250000X0.475000X0*%
%ADD47RoundRect,0.135000X-0.185000X0.135000X-0.185000X-0.135000X0.185000X-0.135000X0.185000X0.135000X0*%
%ADD48RoundRect,0.140000X0.170000X-0.140000X0.170000X0.140000X-0.170000X0.140000X-0.170000X-0.140000X0*%
%ADD49RoundRect,0.250000X-0.475000X0.250000X-0.475000X-0.250000X0.475000X-0.250000X0.475000X0.250000X0*%
%ADD50RoundRect,0.218750X-0.256250X0.218750X-0.256250X-0.218750X0.256250X-0.218750X0.256250X0.218750X0*%
%ADD51RoundRect,0.218750X0.256250X-0.218750X0.256250X0.218750X-0.256250X0.218750X-0.256250X-0.218750X0*%
%ADD52RoundRect,0.135000X0.135000X0.185000X-0.135000X0.185000X-0.135000X-0.185000X0.135000X-0.185000X0*%
%ADD53RoundRect,0.375000X0.375000X0.375000X-0.375000X0.375000X-0.375000X-0.375000X0.375000X-0.375000X0*%
%ADD54R,1.350000X0.650000*%
%ADD55R,1.000000X1.500000*%
%ADD56R,1.400000X1.200000*%
%ADD57O,0.900000X1.700000*%
%ADD58O,0.900000X2.000000*%
%ADD59RoundRect,0.225000X-0.250000X0.225000X-0.250000X-0.225000X0.250000X-0.225000X0.250000X0.225000X0*%
%ADD60RoundRect,0.218750X0.218750X0.256250X-0.218750X0.256250X-0.218750X-0.256250X0.218750X-0.256250X0*%
%ADD61RoundRect,0.007800X0.422200X0.122200X-0.422200X0.122200X-0.422200X-0.122200X0.422200X-0.122200X0*%
%ADD62RoundRect,0.007800X0.122200X-0.422200X0.122200X0.422200X-0.122200X0.422200X-0.122200X-0.422200X0*%
%ADD63R,1.680000X1.680000*%
%ADD64R,0.500000X0.500000*%
%ADD65RoundRect,0.147500X-0.147500X-0.172500X0.147500X-0.172500X0.147500X0.172500X-0.147500X0.172500X0*%
G04 APERTURE END LIST*
D10*
G36*
X138665331Y-73685485D02*
G01*
X139036336Y-73685485D01*
X139065818Y-73602543D01*
X139098486Y-73518489D01*
X139134340Y-73433323D01*
X139173379Y-73347045D01*
X139215604Y-73259655D01*
X139261014Y-73171153D01*
X139309611Y-73081539D01*
X139343778Y-73021179D01*
X139379361Y-72960324D01*
X139416360Y-72898975D01*
X139454775Y-72837132D01*
X139494606Y-72774795D01*
X139515052Y-72743441D01*
X139556098Y-72682419D01*
X139596743Y-72625017D01*
X139656960Y-72545702D01*
X139716276Y-72474530D01*
X139774689Y-72411504D01*
X139832201Y-72356621D01*
X139888812Y-72309883D01*
X139962890Y-72260235D01*
X140035365Y-72225066D01*
X140106237Y-72204376D01*
X140123705Y-72201466D01*
X140194461Y-72193483D01*
X140272088Y-72185992D01*
X140344096Y-72179961D01*
X140421153Y-72174291D01*
X140503258Y-72168982D01*
X140572281Y-72164549D01*
X140651141Y-72160221D01*
X140725673Y-72156975D01*
X140795878Y-72154812D01*
X140872313Y-72153654D01*
X140893070Y-72153594D01*
X141118750Y-72153594D01*
X141118750Y-77503245D01*
X141115805Y-77576911D01*
X141106969Y-77646813D01*
X141089659Y-77722094D01*
X141064654Y-77792459D01*
X141057201Y-77809282D01*
X141018092Y-77871686D01*
X140964023Y-77927251D01*
X140904440Y-77970261D01*
X140844253Y-78002959D01*
X140811004Y-78017865D01*
X140738891Y-78042178D01*
X140669527Y-78061462D01*
X140600825Y-78078252D01*
X140523588Y-78095282D01*
X140467355Y-78106770D01*
X140395870Y-78120527D01*
X140327807Y-78132949D01*
X140250650Y-78146093D01*
X140178422Y-78157313D01*
X140100385Y-78167971D01*
X140068995Y-78171738D01*
X140068995Y-78500001D01*
X143873077Y-78500001D01*
X143873077Y-78171738D01*
X143796034Y-78164151D01*
X143717225Y-78156286D01*
X143641211Y-78148632D01*
X143571896Y-78141611D01*
X143497155Y-78134006D01*
X143481556Y-78132415D01*
X143406447Y-78123574D01*
X143326786Y-78112194D01*
X143258545Y-78099972D01*
X143185322Y-78082368D01*
X143137906Y-78065737D01*
X143071829Y-78035022D01*
X143005982Y-77994479D01*
X142952243Y-77948863D01*
X142905654Y-77890519D01*
X142888290Y-77858863D01*
X142860614Y-77790902D01*
X142840846Y-77716958D01*
X142830035Y-77647348D01*
X142825278Y-77573156D01*
X142825031Y-77551117D01*
X142825031Y-72153594D01*
X143050711Y-72153594D01*
X143125464Y-72154331D01*
X143194226Y-72156134D01*
X143267316Y-72159019D01*
X143344733Y-72162986D01*
X143426478Y-72168035D01*
X143440523Y-72168982D01*
X143509295Y-72173381D01*
X143587193Y-72178991D01*
X143660042Y-72184962D01*
X143738652Y-72192383D01*
X143810389Y-72200296D01*
X143820076Y-72201466D01*
X143890548Y-72218536D01*
X143962622Y-72250086D01*
X144036300Y-72296114D01*
X144092610Y-72340137D01*
X144149821Y-72392305D01*
X144207934Y-72452617D01*
X144266949Y-72521073D01*
X144326865Y-72597674D01*
X144367310Y-72653266D01*
X144408156Y-72712478D01*
X144428729Y-72743441D01*
X144469268Y-72806025D01*
X144508391Y-72868115D01*
X144546098Y-72929711D01*
X144582389Y-72990813D01*
X144617264Y-73051421D01*
X144650723Y-73111534D01*
X144698258Y-73200777D01*
X144742606Y-73288909D01*
X144783769Y-73375928D01*
X144821747Y-73461835D01*
X144856538Y-73546631D01*
X144888145Y-73630314D01*
X144907445Y-73685485D01*
X145276741Y-73685485D01*
X145276741Y-71715911D01*
X138665331Y-71715911D01*
X138665331Y-73685485D01*
G37*
G36*
X138306294Y-72044174D02*
G01*
X138266724Y-72050677D01*
X138194382Y-72063687D01*
X138121967Y-72077700D01*
X138053125Y-72091664D01*
X137978032Y-72107432D01*
X137901155Y-72124182D01*
X137828246Y-72142374D01*
X137759304Y-72162009D01*
X137683885Y-72186740D01*
X137613866Y-72213434D01*
X137589228Y-72224453D01*
X137522290Y-72258955D01*
X137457413Y-72301941D01*
X137400699Y-72354674D01*
X137359120Y-72418598D01*
X137333500Y-72488592D01*
X137317765Y-72558529D01*
X137308656Y-72635733D01*
X137306120Y-72709247D01*
X137306120Y-77564795D01*
X137306367Y-77587622D01*
X137311123Y-77663520D01*
X137321934Y-77733200D01*
X137341703Y-77805221D01*
X137369378Y-77869121D01*
X137381986Y-77890895D01*
X137426037Y-77945579D01*
X137485262Y-77995347D01*
X137549531Y-78034862D01*
X137613866Y-78065737D01*
X137654458Y-78079481D01*
X137723166Y-78096685D01*
X137796960Y-78110686D01*
X137870371Y-78121906D01*
X137938709Y-78130705D01*
X138007639Y-78138469D01*
X138084736Y-78147124D01*
X138155702Y-78155059D01*
X138230747Y-78163403D01*
X138306294Y-78171738D01*
X138306294Y-78500001D01*
X134666343Y-78500001D01*
X134666343Y-78171738D01*
X134701846Y-78167491D01*
X134778141Y-78156591D01*
X134850685Y-78144425D01*
X134928628Y-78129804D01*
X134999734Y-78115318D01*
X135011814Y-78112755D01*
X135080015Y-78097448D01*
X135150315Y-78079742D01*
X135218436Y-78059706D01*
X135285254Y-78034962D01*
X135318518Y-78019229D01*
X135378825Y-77985690D01*
X135438700Y-77943066D01*
X135493303Y-77889744D01*
X135533161Y-77831508D01*
X135541028Y-77816121D01*
X135567421Y-77750297D01*
X135585694Y-77677635D01*
X135595020Y-77608445D01*
X135598129Y-77534020D01*
X135598129Y-75436218D01*
X135334836Y-75436218D01*
X135252129Y-75535922D01*
X135171132Y-75634143D01*
X135091844Y-75730881D01*
X135014267Y-75826137D01*
X134938399Y-75919910D01*
X134864241Y-76012200D01*
X134791792Y-76103008D01*
X134721053Y-76192333D01*
X134652024Y-76280176D01*
X134584705Y-76366535D01*
X134519095Y-76451413D01*
X134455195Y-76534807D01*
X134393005Y-76616719D01*
X134332524Y-76697149D01*
X134273753Y-76776095D01*
X134216692Y-76853559D01*
X134159590Y-76931718D01*
X134100699Y-77013176D01*
X134040018Y-77097933D01*
X133977547Y-77185989D01*
X133913287Y-77277345D01*
X133847236Y-77371999D01*
X133779396Y-77469953D01*
X133709766Y-77571206D01*
X133638346Y-77675758D01*
X133565136Y-77783610D01*
X133490136Y-77894760D01*
X133451965Y-77951573D01*
X133413346Y-78009210D01*
X133374281Y-78067672D01*
X133334767Y-78126959D01*
X133294806Y-78187070D01*
X133254398Y-78248007D01*
X133213542Y-78309768D01*
X133172239Y-78372354D01*
X133130488Y-78435765D01*
X133088290Y-78500001D01*
X130472449Y-78500001D01*
X130472449Y-78171738D01*
X130508610Y-78168594D01*
X130576731Y-78160981D01*
X130645172Y-78152245D01*
X130715226Y-78142673D01*
X130787162Y-78130962D01*
X130862362Y-78116377D01*
X130930082Y-78100508D01*
X130997327Y-78081124D01*
X131034733Y-78067019D01*
X131099481Y-78034962D01*
X131167235Y-77992220D01*
X131223602Y-77950332D01*
X131281892Y-77901606D01*
X131342105Y-77846040D01*
X131404242Y-77783636D01*
X131452107Y-77732345D01*
X131499246Y-77679592D01*
X131559152Y-77611684D01*
X131615692Y-77546556D01*
X131668867Y-77484205D01*
X131718675Y-77424633D01*
X131765117Y-77367839D01*
X131808194Y-77313823D01*
X131857306Y-77250210D01*
X131916150Y-77177861D01*
X131974714Y-77105713D01*
X132032998Y-77033766D01*
X132091000Y-76962019D01*
X132148723Y-76890472D01*
X132206165Y-76819125D01*
X132263326Y-76747979D01*
X132320207Y-76677033D01*
X132376808Y-76606287D01*
X132433127Y-76535742D01*
X132489167Y-76465397D01*
X132544926Y-76395253D01*
X132600404Y-76325309D01*
X132655602Y-76255565D01*
X132710520Y-76186022D01*
X132765157Y-76116679D01*
X132792193Y-76082082D01*
X132845634Y-76013681D01*
X132898234Y-75946335D01*
X132949993Y-75880044D01*
X133000910Y-75814808D01*
X133050985Y-75750628D01*
X133100219Y-75687502D01*
X133148612Y-75625432D01*
X133196163Y-75564417D01*
X133242872Y-75504458D01*
X133288740Y-75445553D01*
X133333767Y-75387704D01*
X133377952Y-75330910D01*
X133421296Y-75275171D01*
X133463798Y-75220487D01*
X133525973Y-75140440D01*
X133422509Y-75109352D01*
X133322412Y-75076781D01*
X133225680Y-75042727D01*
X133132315Y-75007190D01*
X133042315Y-74970171D01*
X132955681Y-74931670D01*
X132872413Y-74891685D01*
X132792512Y-74850219D01*
X132715976Y-74807269D01*
X132642806Y-74762837D01*
X132573002Y-74716922D01*
X132506564Y-74669525D01*
X132443492Y-74620645D01*
X132383787Y-74570282D01*
X132327447Y-74518437D01*
X132274473Y-74465109D01*
X132224577Y-74409951D01*
X132177901Y-74352616D01*
X132134444Y-74293104D01*
X132094206Y-74231414D01*
X132057187Y-74167547D01*
X132023387Y-74101504D01*
X131992806Y-74033283D01*
X131965444Y-73962884D01*
X131941302Y-73890309D01*
X131920378Y-73815556D01*
X131902673Y-73738626D01*
X131888187Y-73659519D01*
X131876921Y-73578235D01*
X131868873Y-73494774D01*
X131866998Y-73461515D01*
X133748234Y-73461515D01*
X133749757Y-73559849D01*
X133754325Y-73654818D01*
X133761938Y-73746420D01*
X133772597Y-73834657D01*
X133786302Y-73919527D01*
X133803051Y-74001032D01*
X133822846Y-74079171D01*
X133845687Y-74153943D01*
X133871573Y-74225350D01*
X133900504Y-74293391D01*
X133932481Y-74358065D01*
X133967503Y-74419374D01*
X134005571Y-74477317D01*
X134068382Y-74557920D01*
X134138046Y-74630950D01*
X134162612Y-74653565D01*
X134240040Y-74717102D01*
X134323057Y-74774179D01*
X134411664Y-74824793D01*
X134473841Y-74854947D01*
X134538503Y-74882229D01*
X134605648Y-74906639D01*
X134675279Y-74928177D01*
X134747393Y-74946843D01*
X134821992Y-74962638D01*
X134899076Y-74975561D01*
X134978644Y-74985612D01*
X135060696Y-74992792D01*
X135145232Y-74997099D01*
X135232254Y-74998535D01*
X135598129Y-74998535D01*
X135598129Y-72153594D01*
X135218576Y-72153594D01*
X135174762Y-72153902D01*
X135089036Y-72156359D01*
X135005849Y-72161275D01*
X134925199Y-72168648D01*
X134847087Y-72178479D01*
X134771513Y-72190767D01*
X134698477Y-72205513D01*
X134627978Y-72222717D01*
X134560018Y-72242379D01*
X134462835Y-72276479D01*
X134371363Y-72316109D01*
X134285601Y-72361269D01*
X134205549Y-72411959D01*
X134131207Y-72468179D01*
X134062765Y-72530074D01*
X134001056Y-72598430D01*
X133946078Y-72673248D01*
X133897833Y-72754527D01*
X133856319Y-72842268D01*
X133821537Y-72936470D01*
X133802090Y-73002861D01*
X133785634Y-73072124D01*
X133772170Y-73144259D01*
X133761698Y-73219265D01*
X133754218Y-73297143D01*
X133749730Y-73377893D01*
X133748234Y-73461515D01*
X131866998Y-73461515D01*
X131864044Y-73409135D01*
X131862435Y-73321319D01*
X131865040Y-73222043D01*
X131872853Y-73125959D01*
X131885877Y-73033068D01*
X131904109Y-72943369D01*
X131927550Y-72856862D01*
X131956201Y-72773548D01*
X131990061Y-72693425D01*
X132029131Y-72616496D01*
X132073409Y-72542758D01*
X132122897Y-72472213D01*
X132177594Y-72404860D01*
X132237500Y-72340700D01*
X132302616Y-72279731D01*
X132372941Y-72221956D01*
X132448475Y-72167372D01*
X132529218Y-72115981D01*
X132614770Y-72067535D01*
X132705157Y-72022215D01*
X132800379Y-71980020D01*
X132900437Y-71940950D01*
X133005329Y-71905007D01*
X133115057Y-71872188D01*
X133229621Y-71842496D01*
X133349019Y-71815929D01*
X133473253Y-71792487D01*
X133602322Y-71772171D01*
X133736226Y-71754980D01*
X133804991Y-71747557D01*
X133874965Y-71740916D01*
X133946148Y-71735055D01*
X134018540Y-71729976D01*
X134092141Y-71725679D01*
X134166950Y-71722162D01*
X134242968Y-71719427D01*
X134320195Y-71717474D01*
X134398631Y-71716302D01*
X134478276Y-71715911D01*
X138306294Y-71715911D01*
X138306294Y-72044174D01*
G37*
G36*
X127506120Y-76421005D02*
G01*
X130419448Y-76421005D01*
X130419448Y-75326797D01*
X127506120Y-75326797D01*
X127506120Y-76421005D01*
G37*
G36*
X122332593Y-71512802D02*
G01*
X122457476Y-71530295D01*
X122580699Y-71549548D01*
X122702263Y-71570560D01*
X122822168Y-71593332D01*
X122940413Y-71617864D01*
X123056998Y-71644156D01*
X123171923Y-71672207D01*
X123285189Y-71702018D01*
X123396796Y-71733589D01*
X123506742Y-71766920D01*
X123615029Y-71802011D01*
X123721657Y-71838861D01*
X123826625Y-71877471D01*
X123929933Y-71917841D01*
X124031582Y-71959971D01*
X124131571Y-72003860D01*
X124229900Y-72049510D01*
X124326570Y-72096919D01*
X124421580Y-72146088D01*
X124514931Y-72197016D01*
X124606622Y-72249705D01*
X124696653Y-72304153D01*
X124785025Y-72360361D01*
X124871737Y-72418329D01*
X124956790Y-72478057D01*
X125040183Y-72539544D01*
X125121916Y-72602791D01*
X125201990Y-72667798D01*
X125280404Y-72734565D01*
X125357159Y-72803092D01*
X125432254Y-72873378D01*
X125505253Y-72945135D01*
X125575935Y-73018075D01*
X125644300Y-73092196D01*
X125710347Y-73167500D01*
X125774077Y-73243986D01*
X125835489Y-73321653D01*
X125894584Y-73400503D01*
X125951361Y-73480535D01*
X126005821Y-73561749D01*
X126057964Y-73644145D01*
X126107789Y-73727724D01*
X126155296Y-73812484D01*
X126200486Y-73898427D01*
X126243359Y-73985551D01*
X126283914Y-74073858D01*
X126322152Y-74163347D01*
X126358073Y-74254017D01*
X126391676Y-74345870D01*
X126422961Y-74438906D01*
X126451929Y-74533123D01*
X126478580Y-74628522D01*
X126502913Y-74725103D01*
X126524929Y-74822867D01*
X126544627Y-74921812D01*
X126562008Y-75021940D01*
X126577071Y-75123250D01*
X126589817Y-75225741D01*
X126600246Y-75329415D01*
X126608357Y-75434271D01*
X126614150Y-75540310D01*
X126617627Y-75647530D01*
X126618785Y-75755932D01*
X126618049Y-75836946D01*
X126615840Y-75916924D01*
X126612159Y-75995868D01*
X126607004Y-76073776D01*
X126600378Y-76150649D01*
X126592278Y-76226487D01*
X126582706Y-76301290D01*
X126571662Y-76375057D01*
X126559144Y-76447790D01*
X126545155Y-76519487D01*
X126529692Y-76590149D01*
X126512757Y-76659776D01*
X126494349Y-76728367D01*
X126474469Y-76795924D01*
X126453116Y-76862445D01*
X126430291Y-76927931D01*
X126405993Y-76992382D01*
X126380222Y-77055798D01*
X126324263Y-77179524D01*
X126262413Y-77299110D01*
X126194673Y-77414555D01*
X126121042Y-77525859D01*
X126041521Y-77633022D01*
X125956110Y-77736045D01*
X125864808Y-77834927D01*
X125817100Y-77882577D01*
X125718819Y-77973338D01*
X125616717Y-78058048D01*
X125510796Y-78136708D01*
X125401055Y-78209316D01*
X125287493Y-78275875D01*
X125170112Y-78336382D01*
X125048910Y-78390838D01*
X124923888Y-78439244D01*
X124795046Y-78481600D01*
X124729193Y-78500508D01*
X124662384Y-78517904D01*
X124594621Y-78533787D01*
X124525902Y-78548158D01*
X124456229Y-78561015D01*
X124385600Y-78572361D01*
X124314016Y-78582193D01*
X124241478Y-78590513D01*
X124167984Y-78597320D01*
X124093535Y-78602614D01*
X124018131Y-78606396D01*
X123941773Y-78608665D01*
X123864459Y-78609421D01*
X123790290Y-78608762D01*
X123716957Y-78606783D01*
X123644458Y-78603486D01*
X123572795Y-78598869D01*
X123501966Y-78592934D01*
X123431971Y-78585679D01*
X123362812Y-78577106D01*
X123294487Y-78567213D01*
X123160343Y-78543471D01*
X123029537Y-78514453D01*
X122902071Y-78480159D01*
X122777944Y-78440588D01*
X122657157Y-78395742D01*
X122539708Y-78345620D01*
X122425599Y-78290222D01*
X122314829Y-78229547D01*
X122207399Y-78163597D01*
X122103307Y-78092371D01*
X122002555Y-78015868D01*
X121905143Y-77934090D01*
X121812184Y-77848191D01*
X121725223Y-77759754D01*
X121644260Y-77668779D01*
X121569293Y-77575267D01*
X121500324Y-77479216D01*
X121437353Y-77380628D01*
X121380378Y-77279502D01*
X121329401Y-77175838D01*
X121284421Y-77069636D01*
X121245439Y-76960897D01*
X121212454Y-76849619D01*
X121185466Y-76735804D01*
X121164475Y-76619451D01*
X121149482Y-76500560D01*
X121140928Y-76385102D01*
X122917285Y-76385102D01*
X122917540Y-76438046D01*
X122919584Y-76541669D01*
X122923671Y-76642275D01*
X122929802Y-76739861D01*
X122937977Y-76834429D01*
X122948195Y-76925978D01*
X122960457Y-77014508D01*
X122974762Y-77100020D01*
X122991111Y-77182513D01*
X123009504Y-77261987D01*
X123029940Y-77338443D01*
X123052420Y-77411880D01*
X123076943Y-77482298D01*
X123103510Y-77549698D01*
X123132121Y-77614079D01*
X123178869Y-77704990D01*
X123212222Y-77761510D01*
X123264705Y-77839454D01*
X123320133Y-77909192D01*
X123378507Y-77970726D01*
X123439825Y-78024056D01*
X123504089Y-78069181D01*
X123571299Y-78106102D01*
X123641453Y-78134818D01*
X123714553Y-78155329D01*
X123790598Y-78167636D01*
X123869588Y-78171738D01*
X123950897Y-78166509D01*
X124029411Y-78150821D01*
X124105131Y-78124675D01*
X124178055Y-78088070D01*
X124248184Y-78041006D01*
X124315519Y-77983484D01*
X124380058Y-77915504D01*
X124441803Y-77837064D01*
X124481413Y-77778961D01*
X124519781Y-77716210D01*
X124556907Y-77648810D01*
X124592791Y-77576763D01*
X124626744Y-77500340D01*
X124658507Y-77419817D01*
X124688080Y-77335194D01*
X124715462Y-77246470D01*
X124740653Y-77153645D01*
X124763654Y-77056720D01*
X124784464Y-76955694D01*
X124803084Y-76850567D01*
X124819513Y-76741340D01*
X124833752Y-76628013D01*
X124845800Y-76510584D01*
X124855657Y-76389055D01*
X124863324Y-76263426D01*
X124868801Y-76133696D01*
X124872086Y-75999865D01*
X124872908Y-75931412D01*
X124873182Y-75861934D01*
X124873175Y-75854340D01*
X124872641Y-75785418D01*
X124871472Y-75713190D01*
X124869413Y-75662099D01*
X124866248Y-75590612D01*
X124862923Y-75521703D01*
X124862503Y-75510089D01*
X124860093Y-75441436D01*
X124857794Y-75369540D01*
X124857183Y-75358941D01*
X124854375Y-75287474D01*
X124826612Y-75249413D01*
X124771207Y-75178301D01*
X124715963Y-75113866D01*
X124660878Y-75056111D01*
X124605954Y-75005033D01*
X124551190Y-74960634D01*
X124482961Y-74914528D01*
X124414982Y-74878856D01*
X124344632Y-74850289D01*
X124270359Y-74826563D01*
X124192162Y-74807680D01*
X124110041Y-74793638D01*
X124041519Y-74785891D01*
X123970487Y-74781243D01*
X123896943Y-74779693D01*
X123841865Y-74781390D01*
X123761878Y-74790296D01*
X123685047Y-74806835D01*
X123611371Y-74831008D01*
X123540851Y-74862814D01*
X123473487Y-74902254D01*
X123409278Y-74949328D01*
X123348224Y-75004035D01*
X123290327Y-75066375D01*
X123235585Y-75136350D01*
X123183998Y-75213957D01*
X123151701Y-75269422D01*
X123107162Y-75357053D01*
X123067311Y-75450003D01*
X123043349Y-75514925D01*
X123021470Y-75582211D01*
X123001675Y-75651861D01*
X122983963Y-75723875D01*
X122968335Y-75798254D01*
X122954791Y-75874997D01*
X122943331Y-75954104D01*
X122933954Y-76035575D01*
X122926662Y-76119410D01*
X122921452Y-76205610D01*
X122918327Y-76294174D01*
X122917285Y-76385102D01*
X121140928Y-76385102D01*
X121140486Y-76379131D01*
X121137487Y-76255164D01*
X121139725Y-76138357D01*
X121146436Y-76024302D01*
X121157623Y-75912997D01*
X121173284Y-75804445D01*
X121193420Y-75698644D01*
X121218030Y-75595594D01*
X121247115Y-75495296D01*
X121280675Y-75397750D01*
X121318709Y-75302955D01*
X121361218Y-75210912D01*
X121408201Y-75121620D01*
X121459659Y-75035080D01*
X121515591Y-74951291D01*
X121575999Y-74870254D01*
X121640880Y-74791969D01*
X121710237Y-74716435D01*
X121782619Y-74644594D01*
X121857004Y-74577388D01*
X121933393Y-74514817D01*
X122011785Y-74456881D01*
X122092181Y-74403580D01*
X122174581Y-74354913D01*
X122258984Y-74310882D01*
X122345390Y-74271485D01*
X122433800Y-74236723D01*
X122524214Y-74206597D01*
X122616632Y-74181105D01*
X122711052Y-74160248D01*
X122807477Y-74144026D01*
X122905905Y-74132438D01*
X123006336Y-74125486D01*
X123108771Y-74123169D01*
X123167516Y-74123670D01*
X123254730Y-74126299D01*
X123340863Y-74131183D01*
X123425914Y-74138321D01*
X123509883Y-74147712D01*
X123592770Y-74159358D01*
X123674575Y-74173258D01*
X123755298Y-74189411D01*
X123834940Y-74207819D01*
X123913499Y-74228481D01*
X123990976Y-74251396D01*
X124067988Y-74277252D01*
X124145150Y-74307375D01*
X124222462Y-74341767D01*
X124299925Y-74380425D01*
X124377537Y-74423351D01*
X124455300Y-74470545D01*
X124533213Y-74522006D01*
X124611277Y-74577735D01*
X124689491Y-74637732D01*
X124767855Y-74701996D01*
X124820181Y-74747209D01*
X124810945Y-74694162D01*
X124796113Y-74614415D01*
X124780110Y-74534458D01*
X124762934Y-74454291D01*
X124744587Y-74373914D01*
X124725067Y-74293326D01*
X124704375Y-74212527D01*
X124682512Y-74131518D01*
X124659476Y-74050299D01*
X124635268Y-73968870D01*
X124609888Y-73887230D01*
X124591949Y-73833081D01*
X124563489Y-73753159D01*
X124533165Y-73674800D01*
X124500978Y-73598004D01*
X124466928Y-73522770D01*
X124431014Y-73449099D01*
X124393237Y-73376992D01*
X124353596Y-73306446D01*
X124312093Y-73237464D01*
X124268726Y-73170044D01*
X124223496Y-73104188D01*
X124191118Y-73059408D01*
X124140549Y-72993416D01*
X124087575Y-72928836D01*
X124032196Y-72865669D01*
X123974414Y-72803915D01*
X123914227Y-72743573D01*
X123851636Y-72684643D01*
X123786641Y-72627126D01*
X123719241Y-72571022D01*
X123649437Y-72516330D01*
X123577229Y-72463050D01*
X123527548Y-72428469D01*
X123450245Y-72378350D01*
X123369607Y-72330335D01*
X123285633Y-72284423D01*
X123198324Y-72240615D01*
X123107678Y-72198911D01*
X123013696Y-72159311D01*
X122949188Y-72134080D01*
X122883198Y-72109783D01*
X122815725Y-72086422D01*
X122746769Y-72063995D01*
X122676331Y-72042504D01*
X122604410Y-72021947D01*
X122094919Y-71934753D01*
X122206050Y-71497070D01*
X122332593Y-71512802D01*
G37*
G36*
X117406909Y-73248677D02*
G01*
X117496200Y-73251302D01*
X117584183Y-73255676D01*
X117670857Y-73261800D01*
X117756222Y-73269674D01*
X117840278Y-73279298D01*
X117923024Y-73290672D01*
X118004462Y-73303795D01*
X118084591Y-73318668D01*
X118163411Y-73335291D01*
X118240922Y-73353663D01*
X118317124Y-73373786D01*
X118392016Y-73395658D01*
X118465600Y-73419280D01*
X118537875Y-73444652D01*
X118608841Y-73471773D01*
X118643805Y-73485808D01*
X118712580Y-73514739D01*
X118779819Y-73544819D01*
X118845523Y-73576048D01*
X118909690Y-73608425D01*
X118972321Y-73641952D01*
X119033416Y-73676626D01*
X119092975Y-73712450D01*
X119150998Y-73749422D01*
X119235152Y-73807034D01*
X119315850Y-73867231D01*
X119393092Y-73930013D01*
X119466878Y-73995379D01*
X119537208Y-74063329D01*
X119583257Y-74111328D01*
X119649499Y-74184603D01*
X119712346Y-74259410D01*
X119771796Y-74335751D01*
X119827850Y-74413624D01*
X119880509Y-74493030D01*
X119929771Y-74573968D01*
X119975638Y-74656440D01*
X120018108Y-74740444D01*
X120057182Y-74825981D01*
X120092861Y-74913050D01*
X120114599Y-74971921D01*
X120144577Y-75061405D01*
X120171400Y-75152301D01*
X120195067Y-75244610D01*
X120215578Y-75338331D01*
X120232934Y-75433465D01*
X120247134Y-75530011D01*
X120258179Y-75627970D01*
X120266068Y-75727341D01*
X120270801Y-75828125D01*
X120272379Y-75930322D01*
X120271638Y-75999291D01*
X120267746Y-76101717D01*
X120260518Y-76202912D01*
X120249954Y-76302874D01*
X120236055Y-76401604D01*
X120218819Y-76499102D01*
X120198248Y-76595368D01*
X120174340Y-76690402D01*
X120147097Y-76784203D01*
X120116518Y-76876772D01*
X120082602Y-76968109D01*
X120058192Y-77027889D01*
X120018998Y-77115730D01*
X119976708Y-77201377D01*
X119931322Y-77284830D01*
X119882841Y-77366089D01*
X119831265Y-77445154D01*
X119776593Y-77522025D01*
X119718825Y-77596703D01*
X119657962Y-77669187D01*
X119594004Y-77739476D01*
X119526950Y-77807572D01*
X119503687Y-77829982D01*
X119431714Y-77895568D01*
X119356466Y-77958690D01*
X119277942Y-78019348D01*
X119196141Y-78077541D01*
X119111065Y-78133270D01*
X119052528Y-78169053D01*
X118992535Y-78203742D01*
X118931086Y-78237334D01*
X118868181Y-78269832D01*
X118803820Y-78301235D01*
X118738004Y-78331542D01*
X118670731Y-78360753D01*
X118602002Y-78388870D01*
X118531878Y-78415577D01*
X118460418Y-78440562D01*
X118387622Y-78463823D01*
X118313490Y-78485361D01*
X118238023Y-78505176D01*
X118161220Y-78523268D01*
X118083082Y-78539637D01*
X118003607Y-78554283D01*
X117922797Y-78567206D01*
X117840652Y-78578406D01*
X117757170Y-78587883D01*
X117672353Y-78595637D01*
X117586200Y-78601668D01*
X117498712Y-78605975D01*
X117409887Y-78608560D01*
X117319727Y-78609421D01*
X117234436Y-78608693D01*
X117150387Y-78606509D01*
X117067580Y-78602870D01*
X116986015Y-78597774D01*
X116905693Y-78591222D01*
X116826612Y-78583215D01*
X116748774Y-78573751D01*
X116672178Y-78562832D01*
X116596825Y-78550457D01*
X116522713Y-78536625D01*
X116449844Y-78521338D01*
X116378217Y-78504595D01*
X116307832Y-78486396D01*
X116238689Y-78466741D01*
X116170789Y-78445631D01*
X116104131Y-78423064D01*
X116038394Y-78398894D01*
X115973686Y-78373403D01*
X115910006Y-78346588D01*
X115847355Y-78318452D01*
X115755307Y-78273767D01*
X115665573Y-78226108D01*
X115578153Y-78175473D01*
X115493047Y-78121863D01*
X115410255Y-78065278D01*
X115329777Y-78005717D01*
X115251613Y-77943181D01*
X115175764Y-77877670D01*
X115128947Y-77834333D01*
X115061077Y-77767099D01*
X114996031Y-77697190D01*
X114933811Y-77624606D01*
X114874416Y-77549347D01*
X114817845Y-77471414D01*
X114764100Y-77390806D01*
X114713180Y-77307523D01*
X114665084Y-77221566D01*
X114619814Y-77132933D01*
X114577369Y-77041626D01*
X114538259Y-76947610D01*
X114502997Y-76851489D01*
X114481625Y-76786240D01*
X114461964Y-76720056D01*
X114444012Y-76652937D01*
X114427770Y-76584883D01*
X114413237Y-76515894D01*
X114400415Y-76445970D01*
X114389302Y-76375111D01*
X114379898Y-76303317D01*
X114372205Y-76230588D01*
X114366221Y-76156924D01*
X114361946Y-76082325D01*
X114359382Y-76006791D01*
X114358527Y-75930322D01*
X114358545Y-75928612D01*
X116170809Y-75928612D01*
X116171043Y-75996359D01*
X116172270Y-76095575D01*
X116174549Y-76191906D01*
X116177880Y-76285351D01*
X116182263Y-76375912D01*
X116187697Y-76463588D01*
X116194184Y-76548378D01*
X116201722Y-76630283D01*
X116210312Y-76709304D01*
X116219955Y-76785439D01*
X116230648Y-76858689D01*
X116242575Y-76929559D01*
X116255913Y-76999198D01*
X116270664Y-77067604D01*
X116286828Y-77134778D01*
X116310577Y-77222427D01*
X116336837Y-77307886D01*
X116365608Y-77391153D01*
X116396890Y-77472230D01*
X116430683Y-77551117D01*
X116464664Y-77621054D01*
X116501636Y-77687252D01*
X116541600Y-77749709D01*
X116584556Y-77808427D01*
X116630505Y-77863404D01*
X116679445Y-77914642D01*
X116731377Y-77962140D01*
X116786301Y-78005897D01*
X116844003Y-78044766D01*
X116904270Y-78078453D01*
X116967102Y-78106957D01*
X117032498Y-78130278D01*
X117100458Y-78148417D01*
X117170983Y-78161373D01*
X117244073Y-78169147D01*
X117319727Y-78171738D01*
X117401018Y-78168853D01*
X117479050Y-78160198D01*
X117553823Y-78145772D01*
X117625336Y-78125576D01*
X117693591Y-78099610D01*
X117758586Y-78067874D01*
X117820322Y-78030367D01*
X117878799Y-77987091D01*
X117933563Y-77938711D01*
X117985014Y-77886753D01*
X118033153Y-77831214D01*
X118077979Y-77772096D01*
X118119493Y-77709398D01*
X118157694Y-77643120D01*
X118192583Y-77573263D01*
X118224159Y-77499826D01*
X118256616Y-77416051D01*
X118286456Y-77331421D01*
X118313677Y-77245936D01*
X118338281Y-77159596D01*
X118360267Y-77072401D01*
X118379634Y-76984352D01*
X118396384Y-76895447D01*
X118410516Y-76805688D01*
X118416520Y-76759786D01*
X118424800Y-76688705D01*
X118432208Y-76614949D01*
X118438744Y-76538519D01*
X118444409Y-76459414D01*
X118449203Y-76377633D01*
X118453125Y-76293179D01*
X118456175Y-76206049D01*
X118458354Y-76116245D01*
X118459661Y-76023766D01*
X118460097Y-75928612D01*
X118459870Y-75867590D01*
X118458678Y-75777235D01*
X118456464Y-75688292D01*
X118453228Y-75600762D01*
X118448971Y-75514644D01*
X118443691Y-75429939D01*
X118437390Y-75346646D01*
X118430067Y-75264766D01*
X118421722Y-75184298D01*
X118412356Y-75105243D01*
X118401967Y-75027600D01*
X118390482Y-74951790D01*
X118377825Y-74878235D01*
X118363995Y-74806933D01*
X118348993Y-74737886D01*
X118327168Y-74649329D01*
X118303259Y-74564779D01*
X118277266Y-74484236D01*
X118249190Y-74407700D01*
X118219030Y-74335171D01*
X118183126Y-74259597D01*
X118144658Y-74188458D01*
X118103625Y-74121753D01*
X118060027Y-74059482D01*
X118013866Y-74001646D01*
X117965139Y-73948245D01*
X117913848Y-73899278D01*
X117859993Y-73854746D01*
X117802798Y-73815075D01*
X117742344Y-73780694D01*
X117678631Y-73751603D01*
X117611659Y-73727801D01*
X117541427Y-73709288D01*
X117467937Y-73696064D01*
X117391187Y-73688130D01*
X117311179Y-73685485D01*
X117231998Y-73688184D01*
X117156024Y-73696278D01*
X117083254Y-73709769D01*
X117013691Y-73728655D01*
X116947333Y-73752939D01*
X116884181Y-73782618D01*
X116824235Y-73817693D01*
X116767494Y-73858165D01*
X116713318Y-73903152D01*
X116661920Y-73952626D01*
X116613301Y-74006589D01*
X116567459Y-74065039D01*
X116524396Y-74127977D01*
X116484112Y-74195404D01*
X116446605Y-74267318D01*
X116411877Y-74343720D01*
X116403829Y-74362934D01*
X116373108Y-74441527D01*
X116344738Y-74522898D01*
X116318718Y-74607047D01*
X116295049Y-74693975D01*
X116278841Y-74760994D01*
X116263954Y-74829575D01*
X116250390Y-74899720D01*
X116238148Y-74971427D01*
X116227229Y-75044697D01*
X116220397Y-75094231D01*
X116210975Y-75169961D01*
X116202545Y-75247403D01*
X116195107Y-75326559D01*
X116188661Y-75407427D01*
X116183206Y-75490009D01*
X116178743Y-75574303D01*
X116175272Y-75660311D01*
X116172793Y-75748031D01*
X116171305Y-75837465D01*
X116170809Y-75928612D01*
X114358545Y-75928612D01*
X114359215Y-75866128D01*
X114362826Y-75770338D01*
X114369533Y-75675149D01*
X114379336Y-75580561D01*
X114392234Y-75486574D01*
X114408227Y-75393189D01*
X114427316Y-75300404D01*
X114449500Y-75208220D01*
X114474780Y-75116638D01*
X114503155Y-75025656D01*
X114534626Y-74935276D01*
X114557173Y-74875430D01*
X114593798Y-74787239D01*
X114633789Y-74700940D01*
X114677146Y-74616536D01*
X114723869Y-74534024D01*
X114773957Y-74453406D01*
X114827412Y-74374682D01*
X114884233Y-74297850D01*
X114944420Y-74222912D01*
X115007973Y-74149868D01*
X115074891Y-74078716D01*
X115120773Y-74032895D01*
X115192550Y-73966242D01*
X115267874Y-73902083D01*
X115346744Y-73840419D01*
X115429160Y-73781249D01*
X115486074Y-73743188D01*
X115544565Y-73706236D01*
X115604631Y-73670392D01*
X115666274Y-73635657D01*
X115729493Y-73602031D01*
X115794288Y-73569513D01*
X115860659Y-73538104D01*
X115928606Y-73507804D01*
X115998129Y-73478612D01*
X116069195Y-73450662D01*
X116141771Y-73424516D01*
X116215856Y-73400173D01*
X116291450Y-73377633D01*
X116368553Y-73356896D01*
X116447166Y-73337962D01*
X116527288Y-73320832D01*
X116608920Y-73305505D01*
X116692060Y-73291981D01*
X116776711Y-73280260D01*
X116862870Y-73270342D01*
X116950539Y-73262228D01*
X117039717Y-73255917D01*
X117130405Y-73251409D01*
X117222602Y-73248704D01*
X117316308Y-73247802D01*
X117406909Y-73248677D01*
G37*
%TO.C,U4*%
D11*
X17813000Y-9533500D02*
X17815000Y-9533500D01*
X17818000Y-9534500D01*
X17820000Y-9534500D01*
X17823000Y-9535500D01*
X17825000Y-9536500D01*
X17828000Y-9537500D01*
X17830000Y-9539500D01*
X17832000Y-9540500D01*
X17834000Y-9542500D01*
X17836000Y-9543500D01*
X17838000Y-9545500D01*
X17840000Y-9547500D01*
X17842000Y-9549500D01*
X17844000Y-9551500D01*
X17845000Y-9553500D01*
X17847000Y-9555500D01*
X17848000Y-9557500D01*
X17850000Y-9559500D01*
X17851000Y-9562500D01*
X17852000Y-9564500D01*
X17853000Y-9567500D01*
X17853000Y-9569500D01*
X17854000Y-9572500D01*
X17854000Y-9574500D01*
X17855000Y-9577500D01*
X17855000Y-9579500D01*
X17855000Y-9582500D01*
X17855000Y-10187500D01*
X17855000Y-10190500D01*
X17855000Y-10192500D01*
X17854000Y-10195500D01*
X17854000Y-10197500D01*
X17853000Y-10200500D01*
X17853000Y-10202500D01*
X17852000Y-10205500D01*
X17851000Y-10207500D01*
X17850000Y-10210500D01*
X17848000Y-10212500D01*
X17847000Y-10214500D01*
X17845000Y-10216500D01*
X17844000Y-10218500D01*
X17842000Y-10220500D01*
X17840000Y-10222500D01*
X17838000Y-10224500D01*
X17836000Y-10226500D01*
X17834000Y-10227500D01*
X17832000Y-10229500D01*
X17830000Y-10230500D01*
X17828000Y-10232500D01*
X17825000Y-10233500D01*
X17823000Y-10234500D01*
X17820000Y-10235500D01*
X17818000Y-10235500D01*
X17815000Y-10236500D01*
X17813000Y-10236500D01*
X17810000Y-10237500D01*
X17808000Y-10237500D01*
X17805000Y-10237500D01*
X17565000Y-10237500D01*
X17562000Y-10237500D01*
X17560000Y-10237500D01*
X17557000Y-10236500D01*
X17555000Y-10236500D01*
X17552000Y-10235500D01*
X17550000Y-10235500D01*
X17547000Y-10234500D01*
X17545000Y-10233500D01*
X17542000Y-10232500D01*
X17540000Y-10230500D01*
X17538000Y-10229500D01*
X17536000Y-10227500D01*
X17534000Y-10226500D01*
X17532000Y-10224500D01*
X17530000Y-10222500D01*
X17528000Y-10220500D01*
X17526000Y-10218500D01*
X17525000Y-10216500D01*
X17523000Y-10214500D01*
X17522000Y-10212500D01*
X17520000Y-10210500D01*
X17519000Y-10207500D01*
X17518000Y-10205500D01*
X17517000Y-10202500D01*
X17517000Y-10200500D01*
X17516000Y-10197500D01*
X17516000Y-10195500D01*
X17515000Y-10192500D01*
X17515000Y-10190500D01*
X17515000Y-10187500D01*
X17515000Y-9582500D01*
X17515000Y-9579500D01*
X17515000Y-9577500D01*
X17516000Y-9574500D01*
X17516000Y-9572500D01*
X17517000Y-9569500D01*
X17517000Y-9567500D01*
X17518000Y-9564500D01*
X17519000Y-9562500D01*
X17520000Y-9559500D01*
X17522000Y-9557500D01*
X17523000Y-9555500D01*
X17525000Y-9553500D01*
X17526000Y-9551500D01*
X17528000Y-9549500D01*
X17530000Y-9547500D01*
X17532000Y-9545500D01*
X17534000Y-9543500D01*
X17536000Y-9542500D01*
X17538000Y-9540500D01*
X17540000Y-9539500D01*
X17542000Y-9537500D01*
X17545000Y-9536500D01*
X17547000Y-9535500D01*
X17550000Y-9534500D01*
X17552000Y-9534500D01*
X17555000Y-9533500D01*
X17557000Y-9533500D01*
X17560000Y-9532500D01*
X17562000Y-9532500D01*
X17565000Y-9532500D01*
X17805000Y-9532500D01*
X17808000Y-9532500D01*
X17810000Y-9532500D01*
X17813000Y-9533500D01*
G36*
X17813000Y-9533500D02*
G01*
X17815000Y-9533500D01*
X17818000Y-9534500D01*
X17820000Y-9534500D01*
X17823000Y-9535500D01*
X17825000Y-9536500D01*
X17828000Y-9537500D01*
X17830000Y-9539500D01*
X17832000Y-9540500D01*
X17834000Y-9542500D01*
X17836000Y-9543500D01*
X17838000Y-9545500D01*
X17840000Y-9547500D01*
X17842000Y-9549500D01*
X17844000Y-9551500D01*
X17845000Y-9553500D01*
X17847000Y-9555500D01*
X17848000Y-9557500D01*
X17850000Y-9559500D01*
X17851000Y-9562500D01*
X17852000Y-9564500D01*
X17853000Y-9567500D01*
X17853000Y-9569500D01*
X17854000Y-9572500D01*
X17854000Y-9574500D01*
X17855000Y-9577500D01*
X17855000Y-9579500D01*
X17855000Y-9582500D01*
X17855000Y-10187500D01*
X17855000Y-10190500D01*
X17855000Y-10192500D01*
X17854000Y-10195500D01*
X17854000Y-10197500D01*
X17853000Y-10200500D01*
X17853000Y-10202500D01*
X17852000Y-10205500D01*
X17851000Y-10207500D01*
X17850000Y-10210500D01*
X17848000Y-10212500D01*
X17847000Y-10214500D01*
X17845000Y-10216500D01*
X17844000Y-10218500D01*
X17842000Y-10220500D01*
X17840000Y-10222500D01*
X17838000Y-10224500D01*
X17836000Y-10226500D01*
X17834000Y-10227500D01*
X17832000Y-10229500D01*
X17830000Y-10230500D01*
X17828000Y-10232500D01*
X17825000Y-10233500D01*
X17823000Y-10234500D01*
X17820000Y-10235500D01*
X17818000Y-10235500D01*
X17815000Y-10236500D01*
X17813000Y-10236500D01*
X17810000Y-10237500D01*
X17808000Y-10237500D01*
X17805000Y-10237500D01*
X17565000Y-10237500D01*
X17562000Y-10237500D01*
X17560000Y-10237500D01*
X17557000Y-10236500D01*
X17555000Y-10236500D01*
X17552000Y-10235500D01*
X17550000Y-10235500D01*
X17547000Y-10234500D01*
X17545000Y-10233500D01*
X17542000Y-10232500D01*
X17540000Y-10230500D01*
X17538000Y-10229500D01*
X17536000Y-10227500D01*
X17534000Y-10226500D01*
X17532000Y-10224500D01*
X17530000Y-10222500D01*
X17528000Y-10220500D01*
X17526000Y-10218500D01*
X17525000Y-10216500D01*
X17523000Y-10214500D01*
X17522000Y-10212500D01*
X17520000Y-10210500D01*
X17519000Y-10207500D01*
X17518000Y-10205500D01*
X17517000Y-10202500D01*
X17517000Y-10200500D01*
X17516000Y-10197500D01*
X17516000Y-10195500D01*
X17515000Y-10192500D01*
X17515000Y-10190500D01*
X17515000Y-10187500D01*
X17515000Y-9582500D01*
X17515000Y-9579500D01*
X17515000Y-9577500D01*
X17516000Y-9574500D01*
X17516000Y-9572500D01*
X17517000Y-9569500D01*
X17517000Y-9567500D01*
X17518000Y-9564500D01*
X17519000Y-9562500D01*
X17520000Y-9559500D01*
X17522000Y-9557500D01*
X17523000Y-9555500D01*
X17525000Y-9553500D01*
X17526000Y-9551500D01*
X17528000Y-9549500D01*
X17530000Y-9547500D01*
X17532000Y-9545500D01*
X17534000Y-9543500D01*
X17536000Y-9542500D01*
X17538000Y-9540500D01*
X17540000Y-9539500D01*
X17542000Y-9537500D01*
X17545000Y-9536500D01*
X17547000Y-9535500D01*
X17550000Y-9534500D01*
X17552000Y-9534500D01*
X17555000Y-9533500D01*
X17557000Y-9533500D01*
X17560000Y-9532500D01*
X17562000Y-9532500D01*
X17565000Y-9532500D01*
X17805000Y-9532500D01*
X17808000Y-9532500D01*
X17810000Y-9532500D01*
X17813000Y-9533500D01*
G37*
X18913000Y-9533500D02*
X18915000Y-9533500D01*
X18918000Y-9534500D01*
X18920000Y-9534500D01*
X18923000Y-9535500D01*
X18925000Y-9536500D01*
X18928000Y-9537500D01*
X18930000Y-9539500D01*
X18932000Y-9540500D01*
X18934000Y-9542500D01*
X18936000Y-9543500D01*
X18938000Y-9545500D01*
X18940000Y-9547500D01*
X18942000Y-9549500D01*
X18944000Y-9551500D01*
X18945000Y-9553500D01*
X18947000Y-9555500D01*
X18948000Y-9557500D01*
X18950000Y-9559500D01*
X18951000Y-9562500D01*
X18952000Y-9564500D01*
X18953000Y-9567500D01*
X18953000Y-9569500D01*
X18954000Y-9572500D01*
X18954000Y-9574500D01*
X18955000Y-9577500D01*
X18955000Y-9579500D01*
X18955000Y-9582500D01*
X18955000Y-10187500D01*
X18955000Y-10190500D01*
X18955000Y-10192500D01*
X18954000Y-10195500D01*
X18954000Y-10197500D01*
X18953000Y-10200500D01*
X18953000Y-10202500D01*
X18952000Y-10205500D01*
X18951000Y-10207500D01*
X18950000Y-10210500D01*
X18948000Y-10212500D01*
X18947000Y-10214500D01*
X18945000Y-10216500D01*
X18944000Y-10218500D01*
X18942000Y-10220500D01*
X18940000Y-10222500D01*
X18938000Y-10224500D01*
X18936000Y-10226500D01*
X18934000Y-10227500D01*
X18932000Y-10229500D01*
X18930000Y-10230500D01*
X18928000Y-10232500D01*
X18925000Y-10233500D01*
X18923000Y-10234500D01*
X18920000Y-10235500D01*
X18918000Y-10235500D01*
X18915000Y-10236500D01*
X18913000Y-10236500D01*
X18910000Y-10237500D01*
X18908000Y-10237500D01*
X18905000Y-10237500D01*
X18465000Y-10237500D01*
X18462000Y-10237500D01*
X18460000Y-10237500D01*
X18457000Y-10236500D01*
X18455000Y-10236500D01*
X18452000Y-10235500D01*
X18450000Y-10235500D01*
X18447000Y-10234500D01*
X18445000Y-10233500D01*
X18442000Y-10232500D01*
X18440000Y-10230500D01*
X18438000Y-10229500D01*
X18436000Y-10227500D01*
X18434000Y-10226500D01*
X18432000Y-10224500D01*
X18430000Y-10222500D01*
X18428000Y-10220500D01*
X18426000Y-10218500D01*
X18425000Y-10216500D01*
X18423000Y-10214500D01*
X18422000Y-10212500D01*
X18420000Y-10210500D01*
X18419000Y-10207500D01*
X18418000Y-10205500D01*
X18417000Y-10202500D01*
X18417000Y-10200500D01*
X18416000Y-10197500D01*
X18416000Y-10195500D01*
X18415000Y-10192500D01*
X18415000Y-10190500D01*
X18415000Y-10187500D01*
X18415000Y-9582500D01*
X18415000Y-9579500D01*
X18415000Y-9577500D01*
X18416000Y-9574500D01*
X18416000Y-9572500D01*
X18417000Y-9569500D01*
X18417000Y-9567500D01*
X18418000Y-9564500D01*
X18419000Y-9562500D01*
X18420000Y-9559500D01*
X18422000Y-9557500D01*
X18423000Y-9555500D01*
X18425000Y-9553500D01*
X18426000Y-9551500D01*
X18428000Y-9549500D01*
X18430000Y-9547500D01*
X18432000Y-9545500D01*
X18434000Y-9543500D01*
X18436000Y-9542500D01*
X18438000Y-9540500D01*
X18440000Y-9539500D01*
X18442000Y-9537500D01*
X18445000Y-9536500D01*
X18447000Y-9535500D01*
X18450000Y-9534500D01*
X18452000Y-9534500D01*
X18455000Y-9533500D01*
X18457000Y-9533500D01*
X18460000Y-9532500D01*
X18462000Y-9532500D01*
X18465000Y-9532500D01*
X18905000Y-9532500D01*
X18908000Y-9532500D01*
X18910000Y-9532500D01*
X18913000Y-9533500D01*
G36*
X18913000Y-9533500D02*
G01*
X18915000Y-9533500D01*
X18918000Y-9534500D01*
X18920000Y-9534500D01*
X18923000Y-9535500D01*
X18925000Y-9536500D01*
X18928000Y-9537500D01*
X18930000Y-9539500D01*
X18932000Y-9540500D01*
X18934000Y-9542500D01*
X18936000Y-9543500D01*
X18938000Y-9545500D01*
X18940000Y-9547500D01*
X18942000Y-9549500D01*
X18944000Y-9551500D01*
X18945000Y-9553500D01*
X18947000Y-9555500D01*
X18948000Y-9557500D01*
X18950000Y-9559500D01*
X18951000Y-9562500D01*
X18952000Y-9564500D01*
X18953000Y-9567500D01*
X18953000Y-9569500D01*
X18954000Y-9572500D01*
X18954000Y-9574500D01*
X18955000Y-9577500D01*
X18955000Y-9579500D01*
X18955000Y-9582500D01*
X18955000Y-10187500D01*
X18955000Y-10190500D01*
X18955000Y-10192500D01*
X18954000Y-10195500D01*
X18954000Y-10197500D01*
X18953000Y-10200500D01*
X18953000Y-10202500D01*
X18952000Y-10205500D01*
X18951000Y-10207500D01*
X18950000Y-10210500D01*
X18948000Y-10212500D01*
X18947000Y-10214500D01*
X18945000Y-10216500D01*
X18944000Y-10218500D01*
X18942000Y-10220500D01*
X18940000Y-10222500D01*
X18938000Y-10224500D01*
X18936000Y-10226500D01*
X18934000Y-10227500D01*
X18932000Y-10229500D01*
X18930000Y-10230500D01*
X18928000Y-10232500D01*
X18925000Y-10233500D01*
X18923000Y-10234500D01*
X18920000Y-10235500D01*
X18918000Y-10235500D01*
X18915000Y-10236500D01*
X18913000Y-10236500D01*
X18910000Y-10237500D01*
X18908000Y-10237500D01*
X18905000Y-10237500D01*
X18465000Y-10237500D01*
X18462000Y-10237500D01*
X18460000Y-10237500D01*
X18457000Y-10236500D01*
X18455000Y-10236500D01*
X18452000Y-10235500D01*
X18450000Y-10235500D01*
X18447000Y-10234500D01*
X18445000Y-10233500D01*
X18442000Y-10232500D01*
X18440000Y-10230500D01*
X18438000Y-10229500D01*
X18436000Y-10227500D01*
X18434000Y-10226500D01*
X18432000Y-10224500D01*
X18430000Y-10222500D01*
X18428000Y-10220500D01*
X18426000Y-10218500D01*
X18425000Y-10216500D01*
X18423000Y-10214500D01*
X18422000Y-10212500D01*
X18420000Y-10210500D01*
X18419000Y-10207500D01*
X18418000Y-10205500D01*
X18417000Y-10202500D01*
X18417000Y-10200500D01*
X18416000Y-10197500D01*
X18416000Y-10195500D01*
X18415000Y-10192500D01*
X18415000Y-10190500D01*
X18415000Y-10187500D01*
X18415000Y-9582500D01*
X18415000Y-9579500D01*
X18415000Y-9577500D01*
X18416000Y-9574500D01*
X18416000Y-9572500D01*
X18417000Y-9569500D01*
X18417000Y-9567500D01*
X18418000Y-9564500D01*
X18419000Y-9562500D01*
X18420000Y-9559500D01*
X18422000Y-9557500D01*
X18423000Y-9555500D01*
X18425000Y-9553500D01*
X18426000Y-9551500D01*
X18428000Y-9549500D01*
X18430000Y-9547500D01*
X18432000Y-9545500D01*
X18434000Y-9543500D01*
X18436000Y-9542500D01*
X18438000Y-9540500D01*
X18440000Y-9539500D01*
X18442000Y-9537500D01*
X18445000Y-9536500D01*
X18447000Y-9535500D01*
X18450000Y-9534500D01*
X18452000Y-9534500D01*
X18455000Y-9533500D01*
X18457000Y-9533500D01*
X18460000Y-9532500D01*
X18462000Y-9532500D01*
X18465000Y-9532500D01*
X18905000Y-9532500D01*
X18908000Y-9532500D01*
X18910000Y-9532500D01*
X18913000Y-9533500D01*
G37*
X19813000Y-9533500D02*
X19815000Y-9533500D01*
X19818000Y-9534500D01*
X19820000Y-9534500D01*
X19823000Y-9535500D01*
X19825000Y-9536500D01*
X19828000Y-9537500D01*
X19830000Y-9539500D01*
X19832000Y-9540500D01*
X19834000Y-9542500D01*
X19836000Y-9543500D01*
X19838000Y-9545500D01*
X19840000Y-9547500D01*
X19842000Y-9549500D01*
X19844000Y-9551500D01*
X19845000Y-9553500D01*
X19847000Y-9555500D01*
X19848000Y-9557500D01*
X19850000Y-9559500D01*
X19851000Y-9562500D01*
X19852000Y-9564500D01*
X19853000Y-9567500D01*
X19853000Y-9569500D01*
X19854000Y-9572500D01*
X19854000Y-9574500D01*
X19855000Y-9577500D01*
X19855000Y-9579500D01*
X19855000Y-9582500D01*
X19855000Y-10187500D01*
X19855000Y-10190500D01*
X19855000Y-10192500D01*
X19854000Y-10195500D01*
X19854000Y-10197500D01*
X19853000Y-10200500D01*
X19853000Y-10202500D01*
X19852000Y-10205500D01*
X19851000Y-10207500D01*
X19850000Y-10210500D01*
X19848000Y-10212500D01*
X19847000Y-10214500D01*
X19845000Y-10216500D01*
X19844000Y-10218500D01*
X19842000Y-10220500D01*
X19840000Y-10222500D01*
X19838000Y-10224500D01*
X19836000Y-10226500D01*
X19834000Y-10227500D01*
X19832000Y-10229500D01*
X19830000Y-10230500D01*
X19828000Y-10232500D01*
X19825000Y-10233500D01*
X19823000Y-10234500D01*
X19820000Y-10235500D01*
X19818000Y-10235500D01*
X19815000Y-10236500D01*
X19813000Y-10236500D01*
X19810000Y-10237500D01*
X19808000Y-10237500D01*
X19805000Y-10237500D01*
X19565000Y-10237500D01*
X19562000Y-10237500D01*
X19560000Y-10237500D01*
X19557000Y-10236500D01*
X19555000Y-10236500D01*
X19552000Y-10235500D01*
X19550000Y-10235500D01*
X19547000Y-10234500D01*
X19545000Y-10233500D01*
X19542000Y-10232500D01*
X19540000Y-10230500D01*
X19538000Y-10229500D01*
X19536000Y-10227500D01*
X19534000Y-10226500D01*
X19532000Y-10224500D01*
X19530000Y-10222500D01*
X19528000Y-10220500D01*
X19526000Y-10218500D01*
X19525000Y-10216500D01*
X19523000Y-10214500D01*
X19522000Y-10212500D01*
X19520000Y-10210500D01*
X19519000Y-10207500D01*
X19518000Y-10205500D01*
X19517000Y-10202500D01*
X19517000Y-10200500D01*
X19516000Y-10197500D01*
X19516000Y-10195500D01*
X19515000Y-10192500D01*
X19515000Y-10190500D01*
X19515000Y-10187500D01*
X19515000Y-9582500D01*
X19515000Y-9579500D01*
X19515000Y-9577500D01*
X19516000Y-9574500D01*
X19516000Y-9572500D01*
X19517000Y-9569500D01*
X19517000Y-9567500D01*
X19518000Y-9564500D01*
X19519000Y-9562500D01*
X19520000Y-9559500D01*
X19522000Y-9557500D01*
X19523000Y-9555500D01*
X19525000Y-9553500D01*
X19526000Y-9551500D01*
X19528000Y-9549500D01*
X19530000Y-9547500D01*
X19532000Y-9545500D01*
X19534000Y-9543500D01*
X19536000Y-9542500D01*
X19538000Y-9540500D01*
X19540000Y-9539500D01*
X19542000Y-9537500D01*
X19545000Y-9536500D01*
X19547000Y-9535500D01*
X19550000Y-9534500D01*
X19552000Y-9534500D01*
X19555000Y-9533500D01*
X19557000Y-9533500D01*
X19560000Y-9532500D01*
X19562000Y-9532500D01*
X19565000Y-9532500D01*
X19805000Y-9532500D01*
X19808000Y-9532500D01*
X19810000Y-9532500D01*
X19813000Y-9533500D01*
G36*
X19813000Y-9533500D02*
G01*
X19815000Y-9533500D01*
X19818000Y-9534500D01*
X19820000Y-9534500D01*
X19823000Y-9535500D01*
X19825000Y-9536500D01*
X19828000Y-9537500D01*
X19830000Y-9539500D01*
X19832000Y-9540500D01*
X19834000Y-9542500D01*
X19836000Y-9543500D01*
X19838000Y-9545500D01*
X19840000Y-9547500D01*
X19842000Y-9549500D01*
X19844000Y-9551500D01*
X19845000Y-9553500D01*
X19847000Y-9555500D01*
X19848000Y-9557500D01*
X19850000Y-9559500D01*
X19851000Y-9562500D01*
X19852000Y-9564500D01*
X19853000Y-9567500D01*
X19853000Y-9569500D01*
X19854000Y-9572500D01*
X19854000Y-9574500D01*
X19855000Y-9577500D01*
X19855000Y-9579500D01*
X19855000Y-9582500D01*
X19855000Y-10187500D01*
X19855000Y-10190500D01*
X19855000Y-10192500D01*
X19854000Y-10195500D01*
X19854000Y-10197500D01*
X19853000Y-10200500D01*
X19853000Y-10202500D01*
X19852000Y-10205500D01*
X19851000Y-10207500D01*
X19850000Y-10210500D01*
X19848000Y-10212500D01*
X19847000Y-10214500D01*
X19845000Y-10216500D01*
X19844000Y-10218500D01*
X19842000Y-10220500D01*
X19840000Y-10222500D01*
X19838000Y-10224500D01*
X19836000Y-10226500D01*
X19834000Y-10227500D01*
X19832000Y-10229500D01*
X19830000Y-10230500D01*
X19828000Y-10232500D01*
X19825000Y-10233500D01*
X19823000Y-10234500D01*
X19820000Y-10235500D01*
X19818000Y-10235500D01*
X19815000Y-10236500D01*
X19813000Y-10236500D01*
X19810000Y-10237500D01*
X19808000Y-10237500D01*
X19805000Y-10237500D01*
X19565000Y-10237500D01*
X19562000Y-10237500D01*
X19560000Y-10237500D01*
X19557000Y-10236500D01*
X19555000Y-10236500D01*
X19552000Y-10235500D01*
X19550000Y-10235500D01*
X19547000Y-10234500D01*
X19545000Y-10233500D01*
X19542000Y-10232500D01*
X19540000Y-10230500D01*
X19538000Y-10229500D01*
X19536000Y-10227500D01*
X19534000Y-10226500D01*
X19532000Y-10224500D01*
X19530000Y-10222500D01*
X19528000Y-10220500D01*
X19526000Y-10218500D01*
X19525000Y-10216500D01*
X19523000Y-10214500D01*
X19522000Y-10212500D01*
X19520000Y-10210500D01*
X19519000Y-10207500D01*
X19518000Y-10205500D01*
X19517000Y-10202500D01*
X19517000Y-10200500D01*
X19516000Y-10197500D01*
X19516000Y-10195500D01*
X19515000Y-10192500D01*
X19515000Y-10190500D01*
X19515000Y-10187500D01*
X19515000Y-9582500D01*
X19515000Y-9579500D01*
X19515000Y-9577500D01*
X19516000Y-9574500D01*
X19516000Y-9572500D01*
X19517000Y-9569500D01*
X19517000Y-9567500D01*
X19518000Y-9564500D01*
X19519000Y-9562500D01*
X19520000Y-9559500D01*
X19522000Y-9557500D01*
X19523000Y-9555500D01*
X19525000Y-9553500D01*
X19526000Y-9551500D01*
X19528000Y-9549500D01*
X19530000Y-9547500D01*
X19532000Y-9545500D01*
X19534000Y-9543500D01*
X19536000Y-9542500D01*
X19538000Y-9540500D01*
X19540000Y-9539500D01*
X19542000Y-9537500D01*
X19545000Y-9536500D01*
X19547000Y-9535500D01*
X19550000Y-9534500D01*
X19552000Y-9534500D01*
X19555000Y-9533500D01*
X19557000Y-9533500D01*
X19560000Y-9532500D01*
X19562000Y-9532500D01*
X19565000Y-9532500D01*
X19805000Y-9532500D01*
X19808000Y-9532500D01*
X19810000Y-9532500D01*
X19813000Y-9533500D01*
G37*
X18313000Y-9533500D02*
X18315000Y-9533500D01*
X18318000Y-9534500D01*
X18320000Y-9534500D01*
X18323000Y-9535500D01*
X18325000Y-9536500D01*
X18328000Y-9537500D01*
X18330000Y-9539500D01*
X18332000Y-9540500D01*
X18334000Y-9542500D01*
X18336000Y-9543500D01*
X18338000Y-9545500D01*
X18340000Y-9547500D01*
X18342000Y-9549500D01*
X18344000Y-9551500D01*
X18345000Y-9553500D01*
X18347000Y-9555500D01*
X18348000Y-9557500D01*
X18350000Y-9559500D01*
X18351000Y-9562500D01*
X18352000Y-9564500D01*
X18353000Y-9567500D01*
X18353000Y-9569500D01*
X18354000Y-9572500D01*
X18354000Y-9574500D01*
X18355000Y-9577500D01*
X18355000Y-9579500D01*
X18355000Y-9582500D01*
X18355000Y-10187500D01*
X18355000Y-10190500D01*
X18355000Y-10192500D01*
X18354000Y-10195500D01*
X18354000Y-10197500D01*
X18353000Y-10200500D01*
X18353000Y-10202500D01*
X18352000Y-10205500D01*
X18351000Y-10207500D01*
X18350000Y-10210500D01*
X18348000Y-10212500D01*
X18347000Y-10214500D01*
X18345000Y-10216500D01*
X18344000Y-10218500D01*
X18342000Y-10220500D01*
X18340000Y-10222500D01*
X18338000Y-10224500D01*
X18336000Y-10226500D01*
X18334000Y-10227500D01*
X18332000Y-10229500D01*
X18330000Y-10230500D01*
X18328000Y-10232500D01*
X18325000Y-10233500D01*
X18323000Y-10234500D01*
X18320000Y-10235500D01*
X18318000Y-10235500D01*
X18315000Y-10236500D01*
X18313000Y-10236500D01*
X18310000Y-10237500D01*
X18308000Y-10237500D01*
X18305000Y-10237500D01*
X18065000Y-10237500D01*
X18062000Y-10237500D01*
X18060000Y-10237500D01*
X18057000Y-10236500D01*
X18055000Y-10236500D01*
X18052000Y-10235500D01*
X18050000Y-10235500D01*
X18047000Y-10234500D01*
X18045000Y-10233500D01*
X18042000Y-10232500D01*
X18040000Y-10230500D01*
X18038000Y-10229500D01*
X18036000Y-10227500D01*
X18034000Y-10226500D01*
X18032000Y-10224500D01*
X18030000Y-10222500D01*
X18028000Y-10220500D01*
X18026000Y-10218500D01*
X18025000Y-10216500D01*
X18023000Y-10214500D01*
X18022000Y-10212500D01*
X18020000Y-10210500D01*
X18019000Y-10207500D01*
X18018000Y-10205500D01*
X18017000Y-10202500D01*
X18017000Y-10200500D01*
X18016000Y-10197500D01*
X18016000Y-10195500D01*
X18015000Y-10192500D01*
X18015000Y-10190500D01*
X18015000Y-10187500D01*
X18015000Y-9582500D01*
X18015000Y-9579500D01*
X18015000Y-9577500D01*
X18016000Y-9574500D01*
X18016000Y-9572500D01*
X18017000Y-9569500D01*
X18017000Y-9567500D01*
X18018000Y-9564500D01*
X18019000Y-9562500D01*
X18020000Y-9559500D01*
X18022000Y-9557500D01*
X18023000Y-9555500D01*
X18025000Y-9553500D01*
X18026000Y-9551500D01*
X18028000Y-9549500D01*
X18030000Y-9547500D01*
X18032000Y-9545500D01*
X18034000Y-9543500D01*
X18036000Y-9542500D01*
X18038000Y-9540500D01*
X18040000Y-9539500D01*
X18042000Y-9537500D01*
X18045000Y-9536500D01*
X18047000Y-9535500D01*
X18050000Y-9534500D01*
X18052000Y-9534500D01*
X18055000Y-9533500D01*
X18057000Y-9533500D01*
X18060000Y-9532500D01*
X18062000Y-9532500D01*
X18065000Y-9532500D01*
X18305000Y-9532500D01*
X18308000Y-9532500D01*
X18310000Y-9532500D01*
X18313000Y-9533500D01*
G36*
X18313000Y-9533500D02*
G01*
X18315000Y-9533500D01*
X18318000Y-9534500D01*
X18320000Y-9534500D01*
X18323000Y-9535500D01*
X18325000Y-9536500D01*
X18328000Y-9537500D01*
X18330000Y-9539500D01*
X18332000Y-9540500D01*
X18334000Y-9542500D01*
X18336000Y-9543500D01*
X18338000Y-9545500D01*
X18340000Y-9547500D01*
X18342000Y-9549500D01*
X18344000Y-9551500D01*
X18345000Y-9553500D01*
X18347000Y-9555500D01*
X18348000Y-9557500D01*
X18350000Y-9559500D01*
X18351000Y-9562500D01*
X18352000Y-9564500D01*
X18353000Y-9567500D01*
X18353000Y-9569500D01*
X18354000Y-9572500D01*
X18354000Y-9574500D01*
X18355000Y-9577500D01*
X18355000Y-9579500D01*
X18355000Y-9582500D01*
X18355000Y-10187500D01*
X18355000Y-10190500D01*
X18355000Y-10192500D01*
X18354000Y-10195500D01*
X18354000Y-10197500D01*
X18353000Y-10200500D01*
X18353000Y-10202500D01*
X18352000Y-10205500D01*
X18351000Y-10207500D01*
X18350000Y-10210500D01*
X18348000Y-10212500D01*
X18347000Y-10214500D01*
X18345000Y-10216500D01*
X18344000Y-10218500D01*
X18342000Y-10220500D01*
X18340000Y-10222500D01*
X18338000Y-10224500D01*
X18336000Y-10226500D01*
X18334000Y-10227500D01*
X18332000Y-10229500D01*
X18330000Y-10230500D01*
X18328000Y-10232500D01*
X18325000Y-10233500D01*
X18323000Y-10234500D01*
X18320000Y-10235500D01*
X18318000Y-10235500D01*
X18315000Y-10236500D01*
X18313000Y-10236500D01*
X18310000Y-10237500D01*
X18308000Y-10237500D01*
X18305000Y-10237500D01*
X18065000Y-10237500D01*
X18062000Y-10237500D01*
X18060000Y-10237500D01*
X18057000Y-10236500D01*
X18055000Y-10236500D01*
X18052000Y-10235500D01*
X18050000Y-10235500D01*
X18047000Y-10234500D01*
X18045000Y-10233500D01*
X18042000Y-10232500D01*
X18040000Y-10230500D01*
X18038000Y-10229500D01*
X18036000Y-10227500D01*
X18034000Y-10226500D01*
X18032000Y-10224500D01*
X18030000Y-10222500D01*
X18028000Y-10220500D01*
X18026000Y-10218500D01*
X18025000Y-10216500D01*
X18023000Y-10214500D01*
X18022000Y-10212500D01*
X18020000Y-10210500D01*
X18019000Y-10207500D01*
X18018000Y-10205500D01*
X18017000Y-10202500D01*
X18017000Y-10200500D01*
X18016000Y-10197500D01*
X18016000Y-10195500D01*
X18015000Y-10192500D01*
X18015000Y-10190500D01*
X18015000Y-10187500D01*
X18015000Y-9582500D01*
X18015000Y-9579500D01*
X18015000Y-9577500D01*
X18016000Y-9574500D01*
X18016000Y-9572500D01*
X18017000Y-9569500D01*
X18017000Y-9567500D01*
X18018000Y-9564500D01*
X18019000Y-9562500D01*
X18020000Y-9559500D01*
X18022000Y-9557500D01*
X18023000Y-9555500D01*
X18025000Y-9553500D01*
X18026000Y-9551500D01*
X18028000Y-9549500D01*
X18030000Y-9547500D01*
X18032000Y-9545500D01*
X18034000Y-9543500D01*
X18036000Y-9542500D01*
X18038000Y-9540500D01*
X18040000Y-9539500D01*
X18042000Y-9537500D01*
X18045000Y-9536500D01*
X18047000Y-9535500D01*
X18050000Y-9534500D01*
X18052000Y-9534500D01*
X18055000Y-9533500D01*
X18057000Y-9533500D01*
X18060000Y-9532500D01*
X18062000Y-9532500D01*
X18065000Y-9532500D01*
X18305000Y-9532500D01*
X18308000Y-9532500D01*
X18310000Y-9532500D01*
X18313000Y-9533500D01*
G37*
X19313000Y-9533500D02*
X19315000Y-9533500D01*
X19318000Y-9534500D01*
X19320000Y-9534500D01*
X19323000Y-9535500D01*
X19325000Y-9536500D01*
X19328000Y-9537500D01*
X19330000Y-9539500D01*
X19332000Y-9540500D01*
X19334000Y-9542500D01*
X19336000Y-9543500D01*
X19338000Y-9545500D01*
X19340000Y-9547500D01*
X19342000Y-9549500D01*
X19344000Y-9551500D01*
X19345000Y-9553500D01*
X19347000Y-9555500D01*
X19348000Y-9557500D01*
X19350000Y-9559500D01*
X19351000Y-9562500D01*
X19352000Y-9564500D01*
X19353000Y-9567500D01*
X19353000Y-9569500D01*
X19354000Y-9572500D01*
X19354000Y-9574500D01*
X19355000Y-9577500D01*
X19355000Y-9579500D01*
X19355000Y-9582500D01*
X19355000Y-10187500D01*
X19355000Y-10190500D01*
X19355000Y-10192500D01*
X19354000Y-10195500D01*
X19354000Y-10197500D01*
X19353000Y-10200500D01*
X19353000Y-10202500D01*
X19352000Y-10205500D01*
X19351000Y-10207500D01*
X19350000Y-10210500D01*
X19348000Y-10212500D01*
X19347000Y-10214500D01*
X19345000Y-10216500D01*
X19344000Y-10218500D01*
X19342000Y-10220500D01*
X19340000Y-10222500D01*
X19338000Y-10224500D01*
X19336000Y-10226500D01*
X19334000Y-10227500D01*
X19332000Y-10229500D01*
X19330000Y-10230500D01*
X19328000Y-10232500D01*
X19325000Y-10233500D01*
X19323000Y-10234500D01*
X19320000Y-10235500D01*
X19318000Y-10235500D01*
X19315000Y-10236500D01*
X19313000Y-10236500D01*
X19310000Y-10237500D01*
X19308000Y-10237500D01*
X19305000Y-10237500D01*
X19065000Y-10237500D01*
X19062000Y-10237500D01*
X19060000Y-10237500D01*
X19057000Y-10236500D01*
X19055000Y-10236500D01*
X19052000Y-10235500D01*
X19050000Y-10235500D01*
X19047000Y-10234500D01*
X19045000Y-10233500D01*
X19042000Y-10232500D01*
X19040000Y-10230500D01*
X19038000Y-10229500D01*
X19036000Y-10227500D01*
X19034000Y-10226500D01*
X19032000Y-10224500D01*
X19030000Y-10222500D01*
X19028000Y-10220500D01*
X19026000Y-10218500D01*
X19025000Y-10216500D01*
X19023000Y-10214500D01*
X19022000Y-10212500D01*
X19020000Y-10210500D01*
X19019000Y-10207500D01*
X19018000Y-10205500D01*
X19017000Y-10202500D01*
X19017000Y-10200500D01*
X19016000Y-10197500D01*
X19016000Y-10195500D01*
X19015000Y-10192500D01*
X19015000Y-10190500D01*
X19015000Y-10187500D01*
X19015000Y-9582500D01*
X19015000Y-9579500D01*
X19015000Y-9577500D01*
X19016000Y-9574500D01*
X19016000Y-9572500D01*
X19017000Y-9569500D01*
X19017000Y-9567500D01*
X19018000Y-9564500D01*
X19019000Y-9562500D01*
X19020000Y-9559500D01*
X19022000Y-9557500D01*
X19023000Y-9555500D01*
X19025000Y-9553500D01*
X19026000Y-9551500D01*
X19028000Y-9549500D01*
X19030000Y-9547500D01*
X19032000Y-9545500D01*
X19034000Y-9543500D01*
X19036000Y-9542500D01*
X19038000Y-9540500D01*
X19040000Y-9539500D01*
X19042000Y-9537500D01*
X19045000Y-9536500D01*
X19047000Y-9535500D01*
X19050000Y-9534500D01*
X19052000Y-9534500D01*
X19055000Y-9533500D01*
X19057000Y-9533500D01*
X19060000Y-9532500D01*
X19062000Y-9532500D01*
X19065000Y-9532500D01*
X19305000Y-9532500D01*
X19308000Y-9532500D01*
X19310000Y-9532500D01*
X19313000Y-9533500D01*
G36*
X19313000Y-9533500D02*
G01*
X19315000Y-9533500D01*
X19318000Y-9534500D01*
X19320000Y-9534500D01*
X19323000Y-9535500D01*
X19325000Y-9536500D01*
X19328000Y-9537500D01*
X19330000Y-9539500D01*
X19332000Y-9540500D01*
X19334000Y-9542500D01*
X19336000Y-9543500D01*
X19338000Y-9545500D01*
X19340000Y-9547500D01*
X19342000Y-9549500D01*
X19344000Y-9551500D01*
X19345000Y-9553500D01*
X19347000Y-9555500D01*
X19348000Y-9557500D01*
X19350000Y-9559500D01*
X19351000Y-9562500D01*
X19352000Y-9564500D01*
X19353000Y-9567500D01*
X19353000Y-9569500D01*
X19354000Y-9572500D01*
X19354000Y-9574500D01*
X19355000Y-9577500D01*
X19355000Y-9579500D01*
X19355000Y-9582500D01*
X19355000Y-10187500D01*
X19355000Y-10190500D01*
X19355000Y-10192500D01*
X19354000Y-10195500D01*
X19354000Y-10197500D01*
X19353000Y-10200500D01*
X19353000Y-10202500D01*
X19352000Y-10205500D01*
X19351000Y-10207500D01*
X19350000Y-10210500D01*
X19348000Y-10212500D01*
X19347000Y-10214500D01*
X19345000Y-10216500D01*
X19344000Y-10218500D01*
X19342000Y-10220500D01*
X19340000Y-10222500D01*
X19338000Y-10224500D01*
X19336000Y-10226500D01*
X19334000Y-10227500D01*
X19332000Y-10229500D01*
X19330000Y-10230500D01*
X19328000Y-10232500D01*
X19325000Y-10233500D01*
X19323000Y-10234500D01*
X19320000Y-10235500D01*
X19318000Y-10235500D01*
X19315000Y-10236500D01*
X19313000Y-10236500D01*
X19310000Y-10237500D01*
X19308000Y-10237500D01*
X19305000Y-10237500D01*
X19065000Y-10237500D01*
X19062000Y-10237500D01*
X19060000Y-10237500D01*
X19057000Y-10236500D01*
X19055000Y-10236500D01*
X19052000Y-10235500D01*
X19050000Y-10235500D01*
X19047000Y-10234500D01*
X19045000Y-10233500D01*
X19042000Y-10232500D01*
X19040000Y-10230500D01*
X19038000Y-10229500D01*
X19036000Y-10227500D01*
X19034000Y-10226500D01*
X19032000Y-10224500D01*
X19030000Y-10222500D01*
X19028000Y-10220500D01*
X19026000Y-10218500D01*
X19025000Y-10216500D01*
X19023000Y-10214500D01*
X19022000Y-10212500D01*
X19020000Y-10210500D01*
X19019000Y-10207500D01*
X19018000Y-10205500D01*
X19017000Y-10202500D01*
X19017000Y-10200500D01*
X19016000Y-10197500D01*
X19016000Y-10195500D01*
X19015000Y-10192500D01*
X19015000Y-10190500D01*
X19015000Y-10187500D01*
X19015000Y-9582500D01*
X19015000Y-9579500D01*
X19015000Y-9577500D01*
X19016000Y-9574500D01*
X19016000Y-9572500D01*
X19017000Y-9569500D01*
X19017000Y-9567500D01*
X19018000Y-9564500D01*
X19019000Y-9562500D01*
X19020000Y-9559500D01*
X19022000Y-9557500D01*
X19023000Y-9555500D01*
X19025000Y-9553500D01*
X19026000Y-9551500D01*
X19028000Y-9549500D01*
X19030000Y-9547500D01*
X19032000Y-9545500D01*
X19034000Y-9543500D01*
X19036000Y-9542500D01*
X19038000Y-9540500D01*
X19040000Y-9539500D01*
X19042000Y-9537500D01*
X19045000Y-9536500D01*
X19047000Y-9535500D01*
X19050000Y-9534500D01*
X19052000Y-9534500D01*
X19055000Y-9533500D01*
X19057000Y-9533500D01*
X19060000Y-9532500D01*
X19062000Y-9532500D01*
X19065000Y-9532500D01*
X19305000Y-9532500D01*
X19308000Y-9532500D01*
X19310000Y-9532500D01*
X19313000Y-9533500D01*
G37*
X18313000Y-8698500D02*
X18315000Y-8698500D01*
X18318000Y-8699500D01*
X18320000Y-8699500D01*
X18323000Y-8700500D01*
X18325000Y-8701500D01*
X18328000Y-8702500D01*
X18330000Y-8704500D01*
X18332000Y-8705500D01*
X18334000Y-8707500D01*
X18336000Y-8708500D01*
X18338000Y-8710500D01*
X18340000Y-8712500D01*
X18342000Y-8714500D01*
X18344000Y-8716500D01*
X18345000Y-8718500D01*
X18347000Y-8720500D01*
X18348000Y-8722500D01*
X18350000Y-8724500D01*
X18351000Y-8727500D01*
X18352000Y-8729500D01*
X18353000Y-8732500D01*
X18353000Y-8734500D01*
X18354000Y-8737500D01*
X18354000Y-8739500D01*
X18355000Y-8742500D01*
X18355000Y-8744500D01*
X18355000Y-8747500D01*
X18355000Y-9352500D01*
X18355000Y-9355500D01*
X18355000Y-9357500D01*
X18354000Y-9360500D01*
X18354000Y-9362500D01*
X18353000Y-9365500D01*
X18353000Y-9367500D01*
X18352000Y-9370500D01*
X18351000Y-9372500D01*
X18350000Y-9375500D01*
X18348000Y-9377500D01*
X18347000Y-9379500D01*
X18345000Y-9381500D01*
X18344000Y-9383500D01*
X18342000Y-9385500D01*
X18340000Y-9387500D01*
X18338000Y-9389500D01*
X18336000Y-9391500D01*
X18334000Y-9392500D01*
X18332000Y-9394500D01*
X18330000Y-9395500D01*
X18328000Y-9397500D01*
X18325000Y-9398500D01*
X18323000Y-9399500D01*
X18320000Y-9400500D01*
X18318000Y-9400500D01*
X18315000Y-9401500D01*
X18313000Y-9401500D01*
X18310000Y-9402500D01*
X18308000Y-9402500D01*
X18305000Y-9402500D01*
X18065000Y-9402500D01*
X18062000Y-9402500D01*
X18060000Y-9402500D01*
X18057000Y-9401500D01*
X18055000Y-9401500D01*
X18052000Y-9400500D01*
X18050000Y-9400500D01*
X18047000Y-9399500D01*
X18045000Y-9398500D01*
X18042000Y-9397500D01*
X18040000Y-9395500D01*
X18038000Y-9394500D01*
X18036000Y-9392500D01*
X18034000Y-9391500D01*
X18032000Y-9389500D01*
X18030000Y-9387500D01*
X18028000Y-9385500D01*
X18026000Y-9383500D01*
X18025000Y-9381500D01*
X18023000Y-9379500D01*
X18022000Y-9377500D01*
X18020000Y-9375500D01*
X18019000Y-9372500D01*
X18018000Y-9370500D01*
X18017000Y-9367500D01*
X18017000Y-9365500D01*
X18016000Y-9362500D01*
X18016000Y-9360500D01*
X18015000Y-9357500D01*
X18015000Y-9355500D01*
X18015000Y-9352500D01*
X18015000Y-8747500D01*
X18015000Y-8744500D01*
X18015000Y-8742500D01*
X18016000Y-8739500D01*
X18016000Y-8737500D01*
X18017000Y-8734500D01*
X18017000Y-8732500D01*
X18018000Y-8729500D01*
X18019000Y-8727500D01*
X18020000Y-8724500D01*
X18022000Y-8722500D01*
X18023000Y-8720500D01*
X18025000Y-8718500D01*
X18026000Y-8716500D01*
X18028000Y-8714500D01*
X18030000Y-8712500D01*
X18032000Y-8710500D01*
X18034000Y-8708500D01*
X18036000Y-8707500D01*
X18038000Y-8705500D01*
X18040000Y-8704500D01*
X18042000Y-8702500D01*
X18045000Y-8701500D01*
X18047000Y-8700500D01*
X18050000Y-8699500D01*
X18052000Y-8699500D01*
X18055000Y-8698500D01*
X18057000Y-8698500D01*
X18060000Y-8697500D01*
X18062000Y-8697500D01*
X18065000Y-8697500D01*
X18305000Y-8697500D01*
X18308000Y-8697500D01*
X18310000Y-8697500D01*
X18313000Y-8698500D01*
G36*
X18313000Y-8698500D02*
G01*
X18315000Y-8698500D01*
X18318000Y-8699500D01*
X18320000Y-8699500D01*
X18323000Y-8700500D01*
X18325000Y-8701500D01*
X18328000Y-8702500D01*
X18330000Y-8704500D01*
X18332000Y-8705500D01*
X18334000Y-8707500D01*
X18336000Y-8708500D01*
X18338000Y-8710500D01*
X18340000Y-8712500D01*
X18342000Y-8714500D01*
X18344000Y-8716500D01*
X18345000Y-8718500D01*
X18347000Y-8720500D01*
X18348000Y-8722500D01*
X18350000Y-8724500D01*
X18351000Y-8727500D01*
X18352000Y-8729500D01*
X18353000Y-8732500D01*
X18353000Y-8734500D01*
X18354000Y-8737500D01*
X18354000Y-8739500D01*
X18355000Y-8742500D01*
X18355000Y-8744500D01*
X18355000Y-8747500D01*
X18355000Y-9352500D01*
X18355000Y-9355500D01*
X18355000Y-9357500D01*
X18354000Y-9360500D01*
X18354000Y-9362500D01*
X18353000Y-9365500D01*
X18353000Y-9367500D01*
X18352000Y-9370500D01*
X18351000Y-9372500D01*
X18350000Y-9375500D01*
X18348000Y-9377500D01*
X18347000Y-9379500D01*
X18345000Y-9381500D01*
X18344000Y-9383500D01*
X18342000Y-9385500D01*
X18340000Y-9387500D01*
X18338000Y-9389500D01*
X18336000Y-9391500D01*
X18334000Y-9392500D01*
X18332000Y-9394500D01*
X18330000Y-9395500D01*
X18328000Y-9397500D01*
X18325000Y-9398500D01*
X18323000Y-9399500D01*
X18320000Y-9400500D01*
X18318000Y-9400500D01*
X18315000Y-9401500D01*
X18313000Y-9401500D01*
X18310000Y-9402500D01*
X18308000Y-9402500D01*
X18305000Y-9402500D01*
X18065000Y-9402500D01*
X18062000Y-9402500D01*
X18060000Y-9402500D01*
X18057000Y-9401500D01*
X18055000Y-9401500D01*
X18052000Y-9400500D01*
X18050000Y-9400500D01*
X18047000Y-9399500D01*
X18045000Y-9398500D01*
X18042000Y-9397500D01*
X18040000Y-9395500D01*
X18038000Y-9394500D01*
X18036000Y-9392500D01*
X18034000Y-9391500D01*
X18032000Y-9389500D01*
X18030000Y-9387500D01*
X18028000Y-9385500D01*
X18026000Y-9383500D01*
X18025000Y-9381500D01*
X18023000Y-9379500D01*
X18022000Y-9377500D01*
X18020000Y-9375500D01*
X18019000Y-9372500D01*
X18018000Y-9370500D01*
X18017000Y-9367500D01*
X18017000Y-9365500D01*
X18016000Y-9362500D01*
X18016000Y-9360500D01*
X18015000Y-9357500D01*
X18015000Y-9355500D01*
X18015000Y-9352500D01*
X18015000Y-8747500D01*
X18015000Y-8744500D01*
X18015000Y-8742500D01*
X18016000Y-8739500D01*
X18016000Y-8737500D01*
X18017000Y-8734500D01*
X18017000Y-8732500D01*
X18018000Y-8729500D01*
X18019000Y-8727500D01*
X18020000Y-8724500D01*
X18022000Y-8722500D01*
X18023000Y-8720500D01*
X18025000Y-8718500D01*
X18026000Y-8716500D01*
X18028000Y-8714500D01*
X18030000Y-8712500D01*
X18032000Y-8710500D01*
X18034000Y-8708500D01*
X18036000Y-8707500D01*
X18038000Y-8705500D01*
X18040000Y-8704500D01*
X18042000Y-8702500D01*
X18045000Y-8701500D01*
X18047000Y-8700500D01*
X18050000Y-8699500D01*
X18052000Y-8699500D01*
X18055000Y-8698500D01*
X18057000Y-8698500D01*
X18060000Y-8697500D01*
X18062000Y-8697500D01*
X18065000Y-8697500D01*
X18305000Y-8697500D01*
X18308000Y-8697500D01*
X18310000Y-8697500D01*
X18313000Y-8698500D01*
G37*
X19313000Y-8698500D02*
X19315000Y-8698500D01*
X19318000Y-8699500D01*
X19320000Y-8699500D01*
X19323000Y-8700500D01*
X19325000Y-8701500D01*
X19328000Y-8702500D01*
X19330000Y-8704500D01*
X19332000Y-8705500D01*
X19334000Y-8707500D01*
X19336000Y-8708500D01*
X19338000Y-8710500D01*
X19340000Y-8712500D01*
X19342000Y-8714500D01*
X19344000Y-8716500D01*
X19345000Y-8718500D01*
X19347000Y-8720500D01*
X19348000Y-8722500D01*
X19350000Y-8724500D01*
X19351000Y-8727500D01*
X19352000Y-8729500D01*
X19353000Y-8732500D01*
X19353000Y-8734500D01*
X19354000Y-8737500D01*
X19354000Y-8739500D01*
X19355000Y-8742500D01*
X19355000Y-8744500D01*
X19355000Y-8747500D01*
X19355000Y-9352500D01*
X19355000Y-9355500D01*
X19355000Y-9357500D01*
X19354000Y-9360500D01*
X19354000Y-9362500D01*
X19353000Y-9365500D01*
X19353000Y-9367500D01*
X19352000Y-9370500D01*
X19351000Y-9372500D01*
X19350000Y-9375500D01*
X19348000Y-9377500D01*
X19347000Y-9379500D01*
X19345000Y-9381500D01*
X19344000Y-9383500D01*
X19342000Y-9385500D01*
X19340000Y-9387500D01*
X19338000Y-9389500D01*
X19336000Y-9391500D01*
X19334000Y-9392500D01*
X19332000Y-9394500D01*
X19330000Y-9395500D01*
X19328000Y-9397500D01*
X19325000Y-9398500D01*
X19323000Y-9399500D01*
X19320000Y-9400500D01*
X19318000Y-9400500D01*
X19315000Y-9401500D01*
X19313000Y-9401500D01*
X19310000Y-9402500D01*
X19308000Y-9402500D01*
X19305000Y-9402500D01*
X19065000Y-9402500D01*
X19062000Y-9402500D01*
X19060000Y-9402500D01*
X19057000Y-9401500D01*
X19055000Y-9401500D01*
X19052000Y-9400500D01*
X19050000Y-9400500D01*
X19047000Y-9399500D01*
X19045000Y-9398500D01*
X19042000Y-9397500D01*
X19040000Y-9395500D01*
X19038000Y-9394500D01*
X19036000Y-9392500D01*
X19034000Y-9391500D01*
X19032000Y-9389500D01*
X19030000Y-9387500D01*
X19028000Y-9385500D01*
X19026000Y-9383500D01*
X19025000Y-9381500D01*
X19023000Y-9379500D01*
X19022000Y-9377500D01*
X19020000Y-9375500D01*
X19019000Y-9372500D01*
X19018000Y-9370500D01*
X19017000Y-9367500D01*
X19017000Y-9365500D01*
X19016000Y-9362500D01*
X19016000Y-9360500D01*
X19015000Y-9357500D01*
X19015000Y-9355500D01*
X19015000Y-9352500D01*
X19015000Y-8747500D01*
X19015000Y-8744500D01*
X19015000Y-8742500D01*
X19016000Y-8739500D01*
X19016000Y-8737500D01*
X19017000Y-8734500D01*
X19017000Y-8732500D01*
X19018000Y-8729500D01*
X19019000Y-8727500D01*
X19020000Y-8724500D01*
X19022000Y-8722500D01*
X19023000Y-8720500D01*
X19025000Y-8718500D01*
X19026000Y-8716500D01*
X19028000Y-8714500D01*
X19030000Y-8712500D01*
X19032000Y-8710500D01*
X19034000Y-8708500D01*
X19036000Y-8707500D01*
X19038000Y-8705500D01*
X19040000Y-8704500D01*
X19042000Y-8702500D01*
X19045000Y-8701500D01*
X19047000Y-8700500D01*
X19050000Y-8699500D01*
X19052000Y-8699500D01*
X19055000Y-8698500D01*
X19057000Y-8698500D01*
X19060000Y-8697500D01*
X19062000Y-8697500D01*
X19065000Y-8697500D01*
X19305000Y-8697500D01*
X19308000Y-8697500D01*
X19310000Y-8697500D01*
X19313000Y-8698500D01*
G36*
X19313000Y-8698500D02*
G01*
X19315000Y-8698500D01*
X19318000Y-8699500D01*
X19320000Y-8699500D01*
X19323000Y-8700500D01*
X19325000Y-8701500D01*
X19328000Y-8702500D01*
X19330000Y-8704500D01*
X19332000Y-8705500D01*
X19334000Y-8707500D01*
X19336000Y-8708500D01*
X19338000Y-8710500D01*
X19340000Y-8712500D01*
X19342000Y-8714500D01*
X19344000Y-8716500D01*
X19345000Y-8718500D01*
X19347000Y-8720500D01*
X19348000Y-8722500D01*
X19350000Y-8724500D01*
X19351000Y-8727500D01*
X19352000Y-8729500D01*
X19353000Y-8732500D01*
X19353000Y-8734500D01*
X19354000Y-8737500D01*
X19354000Y-8739500D01*
X19355000Y-8742500D01*
X19355000Y-8744500D01*
X19355000Y-8747500D01*
X19355000Y-9352500D01*
X19355000Y-9355500D01*
X19355000Y-9357500D01*
X19354000Y-9360500D01*
X19354000Y-9362500D01*
X19353000Y-9365500D01*
X19353000Y-9367500D01*
X19352000Y-9370500D01*
X19351000Y-9372500D01*
X19350000Y-9375500D01*
X19348000Y-9377500D01*
X19347000Y-9379500D01*
X19345000Y-9381500D01*
X19344000Y-9383500D01*
X19342000Y-9385500D01*
X19340000Y-9387500D01*
X19338000Y-9389500D01*
X19336000Y-9391500D01*
X19334000Y-9392500D01*
X19332000Y-9394500D01*
X19330000Y-9395500D01*
X19328000Y-9397500D01*
X19325000Y-9398500D01*
X19323000Y-9399500D01*
X19320000Y-9400500D01*
X19318000Y-9400500D01*
X19315000Y-9401500D01*
X19313000Y-9401500D01*
X19310000Y-9402500D01*
X19308000Y-9402500D01*
X19305000Y-9402500D01*
X19065000Y-9402500D01*
X19062000Y-9402500D01*
X19060000Y-9402500D01*
X19057000Y-9401500D01*
X19055000Y-9401500D01*
X19052000Y-9400500D01*
X19050000Y-9400500D01*
X19047000Y-9399500D01*
X19045000Y-9398500D01*
X19042000Y-9397500D01*
X19040000Y-9395500D01*
X19038000Y-9394500D01*
X19036000Y-9392500D01*
X19034000Y-9391500D01*
X19032000Y-9389500D01*
X19030000Y-9387500D01*
X19028000Y-9385500D01*
X19026000Y-9383500D01*
X19025000Y-9381500D01*
X19023000Y-9379500D01*
X19022000Y-9377500D01*
X19020000Y-9375500D01*
X19019000Y-9372500D01*
X19018000Y-9370500D01*
X19017000Y-9367500D01*
X19017000Y-9365500D01*
X19016000Y-9362500D01*
X19016000Y-9360500D01*
X19015000Y-9357500D01*
X19015000Y-9355500D01*
X19015000Y-9352500D01*
X19015000Y-8747500D01*
X19015000Y-8744500D01*
X19015000Y-8742500D01*
X19016000Y-8739500D01*
X19016000Y-8737500D01*
X19017000Y-8734500D01*
X19017000Y-8732500D01*
X19018000Y-8729500D01*
X19019000Y-8727500D01*
X19020000Y-8724500D01*
X19022000Y-8722500D01*
X19023000Y-8720500D01*
X19025000Y-8718500D01*
X19026000Y-8716500D01*
X19028000Y-8714500D01*
X19030000Y-8712500D01*
X19032000Y-8710500D01*
X19034000Y-8708500D01*
X19036000Y-8707500D01*
X19038000Y-8705500D01*
X19040000Y-8704500D01*
X19042000Y-8702500D01*
X19045000Y-8701500D01*
X19047000Y-8700500D01*
X19050000Y-8699500D01*
X19052000Y-8699500D01*
X19055000Y-8698500D01*
X19057000Y-8698500D01*
X19060000Y-8697500D01*
X19062000Y-8697500D01*
X19065000Y-8697500D01*
X19305000Y-8697500D01*
X19308000Y-8697500D01*
X19310000Y-8697500D01*
X19313000Y-8698500D01*
G37*
X17813000Y-8698500D02*
X17815000Y-8698500D01*
X17818000Y-8699500D01*
X17820000Y-8699500D01*
X17823000Y-8700500D01*
X17825000Y-8701500D01*
X17828000Y-8702500D01*
X17830000Y-8704500D01*
X17832000Y-8705500D01*
X17834000Y-8707500D01*
X17836000Y-8708500D01*
X17838000Y-8710500D01*
X17840000Y-8712500D01*
X17842000Y-8714500D01*
X17844000Y-8716500D01*
X17845000Y-8718500D01*
X17847000Y-8720500D01*
X17848000Y-8722500D01*
X17850000Y-8724500D01*
X17851000Y-8727500D01*
X17852000Y-8729500D01*
X17853000Y-8732500D01*
X17853000Y-8734500D01*
X17854000Y-8737500D01*
X17854000Y-8739500D01*
X17855000Y-8742500D01*
X17855000Y-8744500D01*
X17855000Y-8747500D01*
X17855000Y-9352500D01*
X17855000Y-9355500D01*
X17855000Y-9357500D01*
X17854000Y-9360500D01*
X17854000Y-9362500D01*
X17853000Y-9365500D01*
X17853000Y-9367500D01*
X17852000Y-9370500D01*
X17851000Y-9372500D01*
X17850000Y-9375500D01*
X17848000Y-9377500D01*
X17847000Y-9379500D01*
X17845000Y-9381500D01*
X17844000Y-9383500D01*
X17842000Y-9385500D01*
X17840000Y-9387500D01*
X17838000Y-9389500D01*
X17836000Y-9391500D01*
X17834000Y-9392500D01*
X17832000Y-9394500D01*
X17830000Y-9395500D01*
X17828000Y-9397500D01*
X17825000Y-9398500D01*
X17823000Y-9399500D01*
X17820000Y-9400500D01*
X17818000Y-9400500D01*
X17815000Y-9401500D01*
X17813000Y-9401500D01*
X17810000Y-9402500D01*
X17808000Y-9402500D01*
X17805000Y-9402500D01*
X17565000Y-9402500D01*
X17562000Y-9402500D01*
X17560000Y-9402500D01*
X17557000Y-9401500D01*
X17555000Y-9401500D01*
X17552000Y-9400500D01*
X17550000Y-9400500D01*
X17547000Y-9399500D01*
X17545000Y-9398500D01*
X17542000Y-9397500D01*
X17540000Y-9395500D01*
X17538000Y-9394500D01*
X17536000Y-9392500D01*
X17534000Y-9391500D01*
X17532000Y-9389500D01*
X17530000Y-9387500D01*
X17528000Y-9385500D01*
X17526000Y-9383500D01*
X17525000Y-9381500D01*
X17523000Y-9379500D01*
X17522000Y-9377500D01*
X17520000Y-9375500D01*
X17519000Y-9372500D01*
X17518000Y-9370500D01*
X17517000Y-9367500D01*
X17517000Y-9365500D01*
X17516000Y-9362500D01*
X17516000Y-9360500D01*
X17515000Y-9357500D01*
X17515000Y-9355500D01*
X17515000Y-9352500D01*
X17515000Y-8747500D01*
X17515000Y-8744500D01*
X17515000Y-8742500D01*
X17516000Y-8739500D01*
X17516000Y-8737500D01*
X17517000Y-8734500D01*
X17517000Y-8732500D01*
X17518000Y-8729500D01*
X17519000Y-8727500D01*
X17520000Y-8724500D01*
X17522000Y-8722500D01*
X17523000Y-8720500D01*
X17525000Y-8718500D01*
X17526000Y-8716500D01*
X17528000Y-8714500D01*
X17530000Y-8712500D01*
X17532000Y-8710500D01*
X17534000Y-8708500D01*
X17536000Y-8707500D01*
X17538000Y-8705500D01*
X17540000Y-8704500D01*
X17542000Y-8702500D01*
X17545000Y-8701500D01*
X17547000Y-8700500D01*
X17550000Y-8699500D01*
X17552000Y-8699500D01*
X17555000Y-8698500D01*
X17557000Y-8698500D01*
X17560000Y-8697500D01*
X17562000Y-8697500D01*
X17565000Y-8697500D01*
X17805000Y-8697500D01*
X17808000Y-8697500D01*
X17810000Y-8697500D01*
X17813000Y-8698500D01*
G36*
X17813000Y-8698500D02*
G01*
X17815000Y-8698500D01*
X17818000Y-8699500D01*
X17820000Y-8699500D01*
X17823000Y-8700500D01*
X17825000Y-8701500D01*
X17828000Y-8702500D01*
X17830000Y-8704500D01*
X17832000Y-8705500D01*
X17834000Y-8707500D01*
X17836000Y-8708500D01*
X17838000Y-8710500D01*
X17840000Y-8712500D01*
X17842000Y-8714500D01*
X17844000Y-8716500D01*
X17845000Y-8718500D01*
X17847000Y-8720500D01*
X17848000Y-8722500D01*
X17850000Y-8724500D01*
X17851000Y-8727500D01*
X17852000Y-8729500D01*
X17853000Y-8732500D01*
X17853000Y-8734500D01*
X17854000Y-8737500D01*
X17854000Y-8739500D01*
X17855000Y-8742500D01*
X17855000Y-8744500D01*
X17855000Y-8747500D01*
X17855000Y-9352500D01*
X17855000Y-9355500D01*
X17855000Y-9357500D01*
X17854000Y-9360500D01*
X17854000Y-9362500D01*
X17853000Y-9365500D01*
X17853000Y-9367500D01*
X17852000Y-9370500D01*
X17851000Y-9372500D01*
X17850000Y-9375500D01*
X17848000Y-9377500D01*
X17847000Y-9379500D01*
X17845000Y-9381500D01*
X17844000Y-9383500D01*
X17842000Y-9385500D01*
X17840000Y-9387500D01*
X17838000Y-9389500D01*
X17836000Y-9391500D01*
X17834000Y-9392500D01*
X17832000Y-9394500D01*
X17830000Y-9395500D01*
X17828000Y-9397500D01*
X17825000Y-9398500D01*
X17823000Y-9399500D01*
X17820000Y-9400500D01*
X17818000Y-9400500D01*
X17815000Y-9401500D01*
X17813000Y-9401500D01*
X17810000Y-9402500D01*
X17808000Y-9402500D01*
X17805000Y-9402500D01*
X17565000Y-9402500D01*
X17562000Y-9402500D01*
X17560000Y-9402500D01*
X17557000Y-9401500D01*
X17555000Y-9401500D01*
X17552000Y-9400500D01*
X17550000Y-9400500D01*
X17547000Y-9399500D01*
X17545000Y-9398500D01*
X17542000Y-9397500D01*
X17540000Y-9395500D01*
X17538000Y-9394500D01*
X17536000Y-9392500D01*
X17534000Y-9391500D01*
X17532000Y-9389500D01*
X17530000Y-9387500D01*
X17528000Y-9385500D01*
X17526000Y-9383500D01*
X17525000Y-9381500D01*
X17523000Y-9379500D01*
X17522000Y-9377500D01*
X17520000Y-9375500D01*
X17519000Y-9372500D01*
X17518000Y-9370500D01*
X17517000Y-9367500D01*
X17517000Y-9365500D01*
X17516000Y-9362500D01*
X17516000Y-9360500D01*
X17515000Y-9357500D01*
X17515000Y-9355500D01*
X17515000Y-9352500D01*
X17515000Y-8747500D01*
X17515000Y-8744500D01*
X17515000Y-8742500D01*
X17516000Y-8739500D01*
X17516000Y-8737500D01*
X17517000Y-8734500D01*
X17517000Y-8732500D01*
X17518000Y-8729500D01*
X17519000Y-8727500D01*
X17520000Y-8724500D01*
X17522000Y-8722500D01*
X17523000Y-8720500D01*
X17525000Y-8718500D01*
X17526000Y-8716500D01*
X17528000Y-8714500D01*
X17530000Y-8712500D01*
X17532000Y-8710500D01*
X17534000Y-8708500D01*
X17536000Y-8707500D01*
X17538000Y-8705500D01*
X17540000Y-8704500D01*
X17542000Y-8702500D01*
X17545000Y-8701500D01*
X17547000Y-8700500D01*
X17550000Y-8699500D01*
X17552000Y-8699500D01*
X17555000Y-8698500D01*
X17557000Y-8698500D01*
X17560000Y-8697500D01*
X17562000Y-8697500D01*
X17565000Y-8697500D01*
X17805000Y-8697500D01*
X17808000Y-8697500D01*
X17810000Y-8697500D01*
X17813000Y-8698500D01*
G37*
X18913000Y-8698500D02*
X18915000Y-8698500D01*
X18918000Y-8699500D01*
X18920000Y-8699500D01*
X18923000Y-8700500D01*
X18925000Y-8701500D01*
X18928000Y-8702500D01*
X18930000Y-8704500D01*
X18932000Y-8705500D01*
X18934000Y-8707500D01*
X18936000Y-8708500D01*
X18938000Y-8710500D01*
X18940000Y-8712500D01*
X18942000Y-8714500D01*
X18944000Y-8716500D01*
X18945000Y-8718500D01*
X18947000Y-8720500D01*
X18948000Y-8722500D01*
X18950000Y-8724500D01*
X18951000Y-8727500D01*
X18952000Y-8729500D01*
X18953000Y-8732500D01*
X18953000Y-8734500D01*
X18954000Y-8737500D01*
X18954000Y-8739500D01*
X18955000Y-8742500D01*
X18955000Y-8744500D01*
X18955000Y-8747500D01*
X18955000Y-9352500D01*
X18955000Y-9355500D01*
X18955000Y-9357500D01*
X18954000Y-9360500D01*
X18954000Y-9362500D01*
X18953000Y-9365500D01*
X18953000Y-9367500D01*
X18952000Y-9370500D01*
X18951000Y-9372500D01*
X18950000Y-9375500D01*
X18948000Y-9377500D01*
X18947000Y-9379500D01*
X18945000Y-9381500D01*
X18944000Y-9383500D01*
X18942000Y-9385500D01*
X18940000Y-9387500D01*
X18938000Y-9389500D01*
X18936000Y-9391500D01*
X18934000Y-9392500D01*
X18932000Y-9394500D01*
X18930000Y-9395500D01*
X18928000Y-9397500D01*
X18925000Y-9398500D01*
X18923000Y-9399500D01*
X18920000Y-9400500D01*
X18918000Y-9400500D01*
X18915000Y-9401500D01*
X18913000Y-9401500D01*
X18910000Y-9402500D01*
X18908000Y-9402500D01*
X18905000Y-9402500D01*
X18465000Y-9402500D01*
X18462000Y-9402500D01*
X18460000Y-9402500D01*
X18457000Y-9401500D01*
X18455000Y-9401500D01*
X18452000Y-9400500D01*
X18450000Y-9400500D01*
X18447000Y-9399500D01*
X18445000Y-9398500D01*
X18442000Y-9397500D01*
X18440000Y-9395500D01*
X18438000Y-9394500D01*
X18436000Y-9392500D01*
X18434000Y-9391500D01*
X18432000Y-9389500D01*
X18430000Y-9387500D01*
X18428000Y-9385500D01*
X18426000Y-9383500D01*
X18425000Y-9381500D01*
X18423000Y-9379500D01*
X18422000Y-9377500D01*
X18420000Y-9375500D01*
X18419000Y-9372500D01*
X18418000Y-9370500D01*
X18417000Y-9367500D01*
X18417000Y-9365500D01*
X18416000Y-9362500D01*
X18416000Y-9360500D01*
X18415000Y-9357500D01*
X18415000Y-9355500D01*
X18415000Y-9352500D01*
X18415000Y-8747500D01*
X18415000Y-8744500D01*
X18415000Y-8742500D01*
X18416000Y-8739500D01*
X18416000Y-8737500D01*
X18417000Y-8734500D01*
X18417000Y-8732500D01*
X18418000Y-8729500D01*
X18419000Y-8727500D01*
X18420000Y-8724500D01*
X18422000Y-8722500D01*
X18423000Y-8720500D01*
X18425000Y-8718500D01*
X18426000Y-8716500D01*
X18428000Y-8714500D01*
X18430000Y-8712500D01*
X18432000Y-8710500D01*
X18434000Y-8708500D01*
X18436000Y-8707500D01*
X18438000Y-8705500D01*
X18440000Y-8704500D01*
X18442000Y-8702500D01*
X18445000Y-8701500D01*
X18447000Y-8700500D01*
X18450000Y-8699500D01*
X18452000Y-8699500D01*
X18455000Y-8698500D01*
X18457000Y-8698500D01*
X18460000Y-8697500D01*
X18462000Y-8697500D01*
X18465000Y-8697500D01*
X18905000Y-8697500D01*
X18908000Y-8697500D01*
X18910000Y-8697500D01*
X18913000Y-8698500D01*
G36*
X18913000Y-8698500D02*
G01*
X18915000Y-8698500D01*
X18918000Y-8699500D01*
X18920000Y-8699500D01*
X18923000Y-8700500D01*
X18925000Y-8701500D01*
X18928000Y-8702500D01*
X18930000Y-8704500D01*
X18932000Y-8705500D01*
X18934000Y-8707500D01*
X18936000Y-8708500D01*
X18938000Y-8710500D01*
X18940000Y-8712500D01*
X18942000Y-8714500D01*
X18944000Y-8716500D01*
X18945000Y-8718500D01*
X18947000Y-8720500D01*
X18948000Y-8722500D01*
X18950000Y-8724500D01*
X18951000Y-8727500D01*
X18952000Y-8729500D01*
X18953000Y-8732500D01*
X18953000Y-8734500D01*
X18954000Y-8737500D01*
X18954000Y-8739500D01*
X18955000Y-8742500D01*
X18955000Y-8744500D01*
X18955000Y-8747500D01*
X18955000Y-9352500D01*
X18955000Y-9355500D01*
X18955000Y-9357500D01*
X18954000Y-9360500D01*
X18954000Y-9362500D01*
X18953000Y-9365500D01*
X18953000Y-9367500D01*
X18952000Y-9370500D01*
X18951000Y-9372500D01*
X18950000Y-9375500D01*
X18948000Y-9377500D01*
X18947000Y-9379500D01*
X18945000Y-9381500D01*
X18944000Y-9383500D01*
X18942000Y-9385500D01*
X18940000Y-9387500D01*
X18938000Y-9389500D01*
X18936000Y-9391500D01*
X18934000Y-9392500D01*
X18932000Y-9394500D01*
X18930000Y-9395500D01*
X18928000Y-9397500D01*
X18925000Y-9398500D01*
X18923000Y-9399500D01*
X18920000Y-9400500D01*
X18918000Y-9400500D01*
X18915000Y-9401500D01*
X18913000Y-9401500D01*
X18910000Y-9402500D01*
X18908000Y-9402500D01*
X18905000Y-9402500D01*
X18465000Y-9402500D01*
X18462000Y-9402500D01*
X18460000Y-9402500D01*
X18457000Y-9401500D01*
X18455000Y-9401500D01*
X18452000Y-9400500D01*
X18450000Y-9400500D01*
X18447000Y-9399500D01*
X18445000Y-9398500D01*
X18442000Y-9397500D01*
X18440000Y-9395500D01*
X18438000Y-9394500D01*
X18436000Y-9392500D01*
X18434000Y-9391500D01*
X18432000Y-9389500D01*
X18430000Y-9387500D01*
X18428000Y-9385500D01*
X18426000Y-9383500D01*
X18425000Y-9381500D01*
X18423000Y-9379500D01*
X18422000Y-9377500D01*
X18420000Y-9375500D01*
X18419000Y-9372500D01*
X18418000Y-9370500D01*
X18417000Y-9367500D01*
X18417000Y-9365500D01*
X18416000Y-9362500D01*
X18416000Y-9360500D01*
X18415000Y-9357500D01*
X18415000Y-9355500D01*
X18415000Y-9352500D01*
X18415000Y-8747500D01*
X18415000Y-8744500D01*
X18415000Y-8742500D01*
X18416000Y-8739500D01*
X18416000Y-8737500D01*
X18417000Y-8734500D01*
X18417000Y-8732500D01*
X18418000Y-8729500D01*
X18419000Y-8727500D01*
X18420000Y-8724500D01*
X18422000Y-8722500D01*
X18423000Y-8720500D01*
X18425000Y-8718500D01*
X18426000Y-8716500D01*
X18428000Y-8714500D01*
X18430000Y-8712500D01*
X18432000Y-8710500D01*
X18434000Y-8708500D01*
X18436000Y-8707500D01*
X18438000Y-8705500D01*
X18440000Y-8704500D01*
X18442000Y-8702500D01*
X18445000Y-8701500D01*
X18447000Y-8700500D01*
X18450000Y-8699500D01*
X18452000Y-8699500D01*
X18455000Y-8698500D01*
X18457000Y-8698500D01*
X18460000Y-8697500D01*
X18462000Y-8697500D01*
X18465000Y-8697500D01*
X18905000Y-8697500D01*
X18908000Y-8697500D01*
X18910000Y-8697500D01*
X18913000Y-8698500D01*
G37*
X19813000Y-8698500D02*
X19815000Y-8698500D01*
X19818000Y-8699500D01*
X19820000Y-8699500D01*
X19823000Y-8700500D01*
X19825000Y-8701500D01*
X19828000Y-8702500D01*
X19830000Y-8704500D01*
X19832000Y-8705500D01*
X19834000Y-8707500D01*
X19836000Y-8708500D01*
X19838000Y-8710500D01*
X19840000Y-8712500D01*
X19842000Y-8714500D01*
X19844000Y-8716500D01*
X19845000Y-8718500D01*
X19847000Y-8720500D01*
X19848000Y-8722500D01*
X19850000Y-8724500D01*
X19851000Y-8727500D01*
X19852000Y-8729500D01*
X19853000Y-8732500D01*
X19853000Y-8734500D01*
X19854000Y-8737500D01*
X19854000Y-8739500D01*
X19855000Y-8742500D01*
X19855000Y-8744500D01*
X19855000Y-8747500D01*
X19855000Y-9352500D01*
X19855000Y-9355500D01*
X19855000Y-9357500D01*
X19854000Y-9360500D01*
X19854000Y-9362500D01*
X19853000Y-9365500D01*
X19853000Y-9367500D01*
X19852000Y-9370500D01*
X19851000Y-9372500D01*
X19850000Y-9375500D01*
X19848000Y-9377500D01*
X19847000Y-9379500D01*
X19845000Y-9381500D01*
X19844000Y-9383500D01*
X19842000Y-9385500D01*
X19840000Y-9387500D01*
X19838000Y-9389500D01*
X19836000Y-9391500D01*
X19834000Y-9392500D01*
X19832000Y-9394500D01*
X19830000Y-9395500D01*
X19828000Y-9397500D01*
X19825000Y-9398500D01*
X19823000Y-9399500D01*
X19820000Y-9400500D01*
X19818000Y-9400500D01*
X19815000Y-9401500D01*
X19813000Y-9401500D01*
X19810000Y-9402500D01*
X19808000Y-9402500D01*
X19805000Y-9402500D01*
X19565000Y-9402500D01*
X19562000Y-9402500D01*
X19560000Y-9402500D01*
X19557000Y-9401500D01*
X19555000Y-9401500D01*
X19552000Y-9400500D01*
X19550000Y-9400500D01*
X19547000Y-9399500D01*
X19545000Y-9398500D01*
X19542000Y-9397500D01*
X19540000Y-9395500D01*
X19538000Y-9394500D01*
X19536000Y-9392500D01*
X19534000Y-9391500D01*
X19532000Y-9389500D01*
X19530000Y-9387500D01*
X19528000Y-9385500D01*
X19526000Y-9383500D01*
X19525000Y-9381500D01*
X19523000Y-9379500D01*
X19522000Y-9377500D01*
X19520000Y-9375500D01*
X19519000Y-9372500D01*
X19518000Y-9370500D01*
X19517000Y-9367500D01*
X19517000Y-9365500D01*
X19516000Y-9362500D01*
X19516000Y-9360500D01*
X19515000Y-9357500D01*
X19515000Y-9355500D01*
X19515000Y-9352500D01*
X19515000Y-8747500D01*
X19515000Y-8744500D01*
X19515000Y-8742500D01*
X19516000Y-8739500D01*
X19516000Y-8737500D01*
X19517000Y-8734500D01*
X19517000Y-8732500D01*
X19518000Y-8729500D01*
X19519000Y-8727500D01*
X19520000Y-8724500D01*
X19522000Y-8722500D01*
X19523000Y-8720500D01*
X19525000Y-8718500D01*
X19526000Y-8716500D01*
X19528000Y-8714500D01*
X19530000Y-8712500D01*
X19532000Y-8710500D01*
X19534000Y-8708500D01*
X19536000Y-8707500D01*
X19538000Y-8705500D01*
X19540000Y-8704500D01*
X19542000Y-8702500D01*
X19545000Y-8701500D01*
X19547000Y-8700500D01*
X19550000Y-8699500D01*
X19552000Y-8699500D01*
X19555000Y-8698500D01*
X19557000Y-8698500D01*
X19560000Y-8697500D01*
X19562000Y-8697500D01*
X19565000Y-8697500D01*
X19805000Y-8697500D01*
X19808000Y-8697500D01*
X19810000Y-8697500D01*
X19813000Y-8698500D01*
G36*
X19813000Y-8698500D02*
G01*
X19815000Y-8698500D01*
X19818000Y-8699500D01*
X19820000Y-8699500D01*
X19823000Y-8700500D01*
X19825000Y-8701500D01*
X19828000Y-8702500D01*
X19830000Y-8704500D01*
X19832000Y-8705500D01*
X19834000Y-8707500D01*
X19836000Y-8708500D01*
X19838000Y-8710500D01*
X19840000Y-8712500D01*
X19842000Y-8714500D01*
X19844000Y-8716500D01*
X19845000Y-8718500D01*
X19847000Y-8720500D01*
X19848000Y-8722500D01*
X19850000Y-8724500D01*
X19851000Y-8727500D01*
X19852000Y-8729500D01*
X19853000Y-8732500D01*
X19853000Y-8734500D01*
X19854000Y-8737500D01*
X19854000Y-8739500D01*
X19855000Y-8742500D01*
X19855000Y-8744500D01*
X19855000Y-8747500D01*
X19855000Y-9352500D01*
X19855000Y-9355500D01*
X19855000Y-9357500D01*
X19854000Y-9360500D01*
X19854000Y-9362500D01*
X19853000Y-9365500D01*
X19853000Y-9367500D01*
X19852000Y-9370500D01*
X19851000Y-9372500D01*
X19850000Y-9375500D01*
X19848000Y-9377500D01*
X19847000Y-9379500D01*
X19845000Y-9381500D01*
X19844000Y-9383500D01*
X19842000Y-9385500D01*
X19840000Y-9387500D01*
X19838000Y-9389500D01*
X19836000Y-9391500D01*
X19834000Y-9392500D01*
X19832000Y-9394500D01*
X19830000Y-9395500D01*
X19828000Y-9397500D01*
X19825000Y-9398500D01*
X19823000Y-9399500D01*
X19820000Y-9400500D01*
X19818000Y-9400500D01*
X19815000Y-9401500D01*
X19813000Y-9401500D01*
X19810000Y-9402500D01*
X19808000Y-9402500D01*
X19805000Y-9402500D01*
X19565000Y-9402500D01*
X19562000Y-9402500D01*
X19560000Y-9402500D01*
X19557000Y-9401500D01*
X19555000Y-9401500D01*
X19552000Y-9400500D01*
X19550000Y-9400500D01*
X19547000Y-9399500D01*
X19545000Y-9398500D01*
X19542000Y-9397500D01*
X19540000Y-9395500D01*
X19538000Y-9394500D01*
X19536000Y-9392500D01*
X19534000Y-9391500D01*
X19532000Y-9389500D01*
X19530000Y-9387500D01*
X19528000Y-9385500D01*
X19526000Y-9383500D01*
X19525000Y-9381500D01*
X19523000Y-9379500D01*
X19522000Y-9377500D01*
X19520000Y-9375500D01*
X19519000Y-9372500D01*
X19518000Y-9370500D01*
X19517000Y-9367500D01*
X19517000Y-9365500D01*
X19516000Y-9362500D01*
X19516000Y-9360500D01*
X19515000Y-9357500D01*
X19515000Y-9355500D01*
X19515000Y-9352500D01*
X19515000Y-8747500D01*
X19515000Y-8744500D01*
X19515000Y-8742500D01*
X19516000Y-8739500D01*
X19516000Y-8737500D01*
X19517000Y-8734500D01*
X19517000Y-8732500D01*
X19518000Y-8729500D01*
X19519000Y-8727500D01*
X19520000Y-8724500D01*
X19522000Y-8722500D01*
X19523000Y-8720500D01*
X19525000Y-8718500D01*
X19526000Y-8716500D01*
X19528000Y-8714500D01*
X19530000Y-8712500D01*
X19532000Y-8710500D01*
X19534000Y-8708500D01*
X19536000Y-8707500D01*
X19538000Y-8705500D01*
X19540000Y-8704500D01*
X19542000Y-8702500D01*
X19545000Y-8701500D01*
X19547000Y-8700500D01*
X19550000Y-8699500D01*
X19552000Y-8699500D01*
X19555000Y-8698500D01*
X19557000Y-8698500D01*
X19560000Y-8697500D01*
X19562000Y-8697500D01*
X19565000Y-8697500D01*
X19805000Y-8697500D01*
X19808000Y-8697500D01*
X19810000Y-8697500D01*
X19813000Y-8698500D01*
G37*
%TO.C,J4*%
X15550000Y-7170000D02*
X14850000Y-7170000D01*
X14850000Y-5930000D01*
X15550000Y-5930000D01*
X15550000Y-7170000D01*
G36*
X15550000Y-7170000D02*
G01*
X14850000Y-7170000D01*
X14850000Y-5930000D01*
X15550000Y-5930000D01*
X15550000Y-7170000D01*
G37*
X16350000Y-7170000D02*
X15650000Y-7170000D01*
X15650000Y-5930000D01*
X16350000Y-5930000D01*
X16350000Y-7170000D01*
G36*
X16350000Y-7170000D02*
G01*
X15650000Y-7170000D01*
X15650000Y-5930000D01*
X16350000Y-5930000D01*
X16350000Y-7170000D01*
G37*
X16850000Y-7170000D02*
X16450000Y-7170000D01*
X16450000Y-5930000D01*
X16850000Y-5930000D01*
X16850000Y-7170000D01*
G36*
X16850000Y-7170000D02*
G01*
X16450000Y-7170000D01*
X16450000Y-5930000D01*
X16850000Y-5930000D01*
X16850000Y-7170000D01*
G37*
X17350000Y-7170000D02*
X16950000Y-7170000D01*
X16950000Y-5930000D01*
X17350000Y-5930000D01*
X17350000Y-7170000D01*
G36*
X17350000Y-7170000D02*
G01*
X16950000Y-7170000D01*
X16950000Y-5930000D01*
X17350000Y-5930000D01*
X17350000Y-7170000D01*
G37*
X17850000Y-7170000D02*
X17450000Y-7170000D01*
X17450000Y-5930000D01*
X17850000Y-5930000D01*
X17850000Y-7170000D01*
G36*
X17850000Y-7170000D02*
G01*
X17450000Y-7170000D01*
X17450000Y-5930000D01*
X17850000Y-5930000D01*
X17850000Y-7170000D01*
G37*
X18350000Y-7170000D02*
X17950000Y-7170000D01*
X17950000Y-5930000D01*
X18350000Y-5930000D01*
X18350000Y-7170000D01*
G36*
X18350000Y-7170000D02*
G01*
X17950000Y-7170000D01*
X17950000Y-5930000D01*
X18350000Y-5930000D01*
X18350000Y-7170000D01*
G37*
X18850000Y-7170000D02*
X18450000Y-7170000D01*
X18450000Y-5930000D01*
X18850000Y-5930000D01*
X18850000Y-7170000D01*
G36*
X18850000Y-7170000D02*
G01*
X18450000Y-7170000D01*
X18450000Y-5930000D01*
X18850000Y-5930000D01*
X18850000Y-7170000D01*
G37*
X19350000Y-7170000D02*
X18950000Y-7170000D01*
X18950000Y-5930000D01*
X19350000Y-5930000D01*
X19350000Y-7170000D01*
G36*
X19350000Y-7170000D02*
G01*
X18950000Y-7170000D01*
X18950000Y-5930000D01*
X19350000Y-5930000D01*
X19350000Y-7170000D01*
G37*
X19850000Y-7170000D02*
X19450000Y-7170000D01*
X19450000Y-5930000D01*
X19850000Y-5930000D01*
X19850000Y-7170000D01*
G36*
X19850000Y-7170000D02*
G01*
X19450000Y-7170000D01*
X19450000Y-5930000D01*
X19850000Y-5930000D01*
X19850000Y-7170000D01*
G37*
X20350000Y-7170000D02*
X19950000Y-7170000D01*
X19950000Y-5930000D01*
X20350000Y-5930000D01*
X20350000Y-7170000D01*
G36*
X20350000Y-7170000D02*
G01*
X19950000Y-7170000D01*
X19950000Y-5930000D01*
X20350000Y-5930000D01*
X20350000Y-7170000D01*
G37*
X21150000Y-7170000D02*
X20450000Y-7170000D01*
X20450000Y-5930000D01*
X21150000Y-5930000D01*
X21150000Y-7170000D01*
G36*
X21150000Y-7170000D02*
G01*
X20450000Y-7170000D01*
X20450000Y-5930000D01*
X21150000Y-5930000D01*
X21150000Y-7170000D01*
G37*
X21950000Y-7170000D02*
X21250000Y-7170000D01*
X21250000Y-5930000D01*
X21950000Y-5930000D01*
X21950000Y-7170000D01*
G36*
X21950000Y-7170000D02*
G01*
X21250000Y-7170000D01*
X21250000Y-5930000D01*
X21950000Y-5930000D01*
X21950000Y-7170000D01*
G37*
%TD*%
D12*
%TO.C,MX17*%
X9280000Y-28680000D03*
D13*
X14360000Y-28680000D03*
D12*
X19440000Y-28680000D03*
D14*
X10550000Y-26140000D03*
X16900000Y-23600000D03*
%TD*%
D12*
%TO.C,MX68*%
X33160000Y-85700000D03*
D13*
X38240000Y-85700000D03*
D12*
X43320000Y-85700000D03*
D14*
X34430000Y-83160000D03*
X40780000Y-80620000D03*
%TD*%
D12*
%TO.C,MX3*%
X42480000Y-9580000D03*
D13*
X47560000Y-9580000D03*
D12*
X52640000Y-9580000D03*
D14*
X43750000Y-7040000D03*
X50100000Y-4500000D03*
%TD*%
D12*
%TO.C,MX34*%
X56910000Y-47670000D03*
D13*
X61990000Y-47670000D03*
D12*
X67070000Y-47670000D03*
D14*
X58180000Y-45130000D03*
X64530000Y-42590000D03*
%TD*%
D12*
%TO.C,MX61*%
X54520000Y-85680000D03*
D13*
X59600000Y-85680000D03*
D12*
X64680000Y-85680000D03*
D14*
X55790000Y-83140000D03*
X62140000Y-80600000D03*
%TD*%
D12*
%TO.C,MX59*%
X6850000Y-85680000D03*
D13*
X11930000Y-85680000D03*
D12*
X17010000Y-85680000D03*
D14*
X8120000Y-83140000D03*
X14470000Y-80600000D03*
%TD*%
D12*
%TO.C,MX56*%
X245085000Y-66700000D03*
D13*
X250165000Y-66700000D03*
D12*
X255245000Y-66700000D03*
D14*
X246355000Y-64160000D03*
X252705000Y-61620000D03*
%TD*%
D12*
%TO.C,MX18*%
X33080000Y-28680000D03*
D13*
X38160000Y-28680000D03*
D12*
X43240000Y-28680000D03*
D14*
X34350000Y-26140000D03*
X40700000Y-23600000D03*
%TD*%
D12*
%TO.C,MX5*%
X80480000Y-9580000D03*
D13*
X85560000Y-9580000D03*
D12*
X90640000Y-9580000D03*
D14*
X81750000Y-7040000D03*
X88100000Y-4500000D03*
%TD*%
D12*
%TO.C,MX26*%
X184980000Y-28680000D03*
D13*
X190060000Y-28680000D03*
D12*
X195140000Y-28680000D03*
D14*
X186250000Y-26140000D03*
X192600000Y-23600000D03*
%TD*%
D12*
%TO.C,MX19*%
X51980000Y-28680000D03*
D13*
X57060000Y-28680000D03*
D12*
X62140000Y-28680000D03*
D14*
X53250000Y-26140000D03*
X59600000Y-23600000D03*
%TD*%
D15*
%TO.C,J3*%
X2560000Y-74780000D03*
D16*
X5100000Y-60690000D03*
D17*
X2560000Y-72180000D03*
X2560000Y-69640000D03*
D18*
X2560000Y-67100000D03*
X2560000Y-64560000D03*
X2560000Y-62020000D03*
D17*
X5100000Y-73450000D03*
X5100000Y-70910000D03*
X5100000Y-68370000D03*
X5100000Y-65830000D03*
X5100000Y-63290000D03*
%TD*%
D12*
%TO.C,MX40*%
X171265000Y-47680000D03*
D13*
X176345000Y-47680000D03*
D12*
X181425000Y-47680000D03*
D14*
X172535000Y-45140000D03*
X178885000Y-42600000D03*
%TD*%
D12*
%TO.C,MX41*%
X190265000Y-47680000D03*
D13*
X195345000Y-47680000D03*
D12*
X200425000Y-47680000D03*
D14*
X191535000Y-45140000D03*
X197885000Y-42600000D03*
%TD*%
D19*
%TO.C,H5*%
X2000000Y-56500000D03*
%TD*%
D12*
%TO.C,MX57*%
X271165000Y-66700000D03*
D13*
X276245000Y-66700000D03*
D12*
X281325000Y-66700000D03*
D14*
X272435000Y-64160000D03*
X278785000Y-61620000D03*
%TD*%
D20*
%TO.C,MX45*%
X9570000Y-59680000D03*
D13*
X9570000Y-74920000D03*
D12*
X16390000Y-66680000D03*
D13*
X21470000Y-66680000D03*
D12*
X26550000Y-66680000D03*
D20*
X33370000Y-59680000D03*
D13*
X33370000Y-74920000D03*
D14*
X17660000Y-64140000D03*
X24010000Y-61600000D03*
%TD*%
D12*
%TO.C,MX33*%
X37840000Y-47670000D03*
D13*
X42920000Y-47670000D03*
D12*
X48000000Y-47670000D03*
D14*
X39110000Y-45130000D03*
X45460000Y-42590000D03*
%TD*%
D12*
%TO.C,MX69*%
X56940000Y-85705000D03*
D13*
X62020000Y-85705000D03*
D12*
X67100000Y-85705000D03*
D14*
X58210000Y-83165000D03*
X64560000Y-80625000D03*
%TD*%
D12*
%TO.C,MX20*%
X70980000Y-28680000D03*
D13*
X76060000Y-28680000D03*
D12*
X81140000Y-28680000D03*
D14*
X72250000Y-26140000D03*
X78600000Y-23600000D03*
%TD*%
D12*
%TO.C,MX24*%
X146980000Y-28680000D03*
D13*
X152060000Y-28680000D03*
D12*
X157140000Y-28680000D03*
D14*
X148250000Y-26140000D03*
X154600000Y-23600000D03*
%TD*%
D12*
%TO.C,MX8*%
X137480000Y-9580000D03*
D13*
X142560000Y-9580000D03*
D12*
X147640000Y-9580000D03*
D14*
X138750000Y-7040000D03*
X145100000Y-4500000D03*
%TD*%
D12*
%TO.C,MX48*%
X85500000Y-66680000D03*
D13*
X90580000Y-66680000D03*
D12*
X95660000Y-66680000D03*
D14*
X86770000Y-64140000D03*
X93120000Y-61600000D03*
%TD*%
D12*
%TO.C,MX51*%
X142780000Y-66680000D03*
D13*
X147860000Y-66680000D03*
D12*
X152940000Y-66680000D03*
D14*
X144050000Y-64140000D03*
X150400000Y-61600000D03*
%TD*%
D12*
%TO.C,MX7*%
X118480000Y-9580000D03*
D13*
X123560000Y-9580000D03*
D12*
X128640000Y-9580000D03*
D14*
X119750000Y-7040000D03*
X126100000Y-4500000D03*
%TD*%
D12*
%TO.C,MX2*%
X23480000Y-9580000D03*
D13*
X28560000Y-9580000D03*
D12*
X33640000Y-9580000D03*
D14*
X24750000Y-7040000D03*
X31100000Y-4500000D03*
%TD*%
D21*
%TO.C,H2*%
X260050000Y-27900000D03*
%TD*%
%TO.C,H3*%
X128700000Y-47800000D03*
%TD*%
D12*
%TO.C,MX31*%
X11640000Y-47650000D03*
D13*
X16720000Y-47650000D03*
D12*
X21800000Y-47650000D03*
D14*
X12910000Y-45110000D03*
X19260000Y-42570000D03*
%TD*%
D22*
%TO.C,MX62*%
X81035000Y-77445000D03*
D23*
X81035000Y-92685000D03*
D24*
X125954900Y-85700000D03*
D22*
X131034900Y-85700000D03*
D24*
X136114900Y-85700000D03*
D22*
X181034800Y-77445000D03*
D23*
X181034800Y-92685000D03*
D25*
X127224900Y-83160000D03*
X133574900Y-80620000D03*
%TD*%
D12*
%TO.C,MX47*%
X66450000Y-66680000D03*
D13*
X71530000Y-66680000D03*
D12*
X76610000Y-66680000D03*
D14*
X67720000Y-64140000D03*
X74070000Y-61600000D03*
%TD*%
D20*
%TO.C,MX16*%
X254795000Y-2580000D03*
D13*
X254795000Y-17820000D03*
D12*
X261615000Y-9580000D03*
D13*
X266695000Y-9580000D03*
D12*
X271775000Y-9580000D03*
D20*
X278595000Y-2580000D03*
D13*
X278595000Y-17820000D03*
D14*
X262885000Y-7040000D03*
X269235000Y-4500000D03*
%TD*%
D21*
%TO.C,H1*%
X25200000Y-27900000D03*
%TD*%
D26*
%TO.C,J5*%
X7375000Y-80200000D03*
X2295000Y-81216000D03*
X2295000Y-79184000D03*
%TD*%
D12*
%TO.C,MX55*%
X218980000Y-66680000D03*
D13*
X224060000Y-66680000D03*
D12*
X229140000Y-66680000D03*
D14*
X220250000Y-64140000D03*
X226600000Y-61600000D03*
%TD*%
D12*
%TO.C,MX32*%
X6880000Y-47680000D03*
D13*
X11960000Y-47680000D03*
D12*
X17040000Y-47680000D03*
D14*
X8150000Y-45140000D03*
X14500000Y-42600000D03*
%TD*%
D12*
%TO.C,MX13*%
X232980000Y-9580000D03*
D13*
X238060000Y-9580000D03*
D12*
X243140000Y-9580000D03*
D14*
X234250000Y-7040000D03*
X240600000Y-4500000D03*
%TD*%
D12*
%TO.C,MX27*%
X203980000Y-28680000D03*
D13*
X209060000Y-28680000D03*
D12*
X214140000Y-28680000D03*
D14*
X205250000Y-26140000D03*
X211600000Y-23600000D03*
%TD*%
D12*
%TO.C,MX30*%
X266410000Y-28680000D03*
D13*
X271490000Y-28680000D03*
D12*
X276570000Y-28680000D03*
D14*
X267680000Y-26140000D03*
X274030000Y-23600000D03*
%TD*%
D12*
%TO.C,MX35*%
X75960000Y-47660000D03*
D13*
X81040000Y-47660000D03*
D12*
X86120000Y-47660000D03*
D14*
X77230000Y-45120000D03*
X83580000Y-42580000D03*
%TD*%
D12*
%TO.C,MX64*%
X221125000Y-85750000D03*
D13*
X226205000Y-85750000D03*
D12*
X231285000Y-85750000D03*
D14*
X222395000Y-83210000D03*
X228745000Y-80670000D03*
%TD*%
D20*
%TO.C,MX58*%
X247685000Y-59700000D03*
D13*
X247685000Y-74940000D03*
D12*
X254505000Y-66700000D03*
D13*
X259585000Y-66700000D03*
D12*
X264665000Y-66700000D03*
D20*
X271485000Y-59700000D03*
D13*
X271485000Y-74940000D03*
D14*
X255775000Y-64160000D03*
X262125000Y-61620000D03*
%TD*%
D12*
%TO.C,MX72*%
X242640000Y-85705000D03*
D13*
X247720000Y-85705000D03*
D12*
X252800000Y-85705000D03*
D14*
X243910000Y-83165000D03*
X250260000Y-80625000D03*
%TD*%
D12*
%TO.C,MX67*%
X9380000Y-85705000D03*
D13*
X14460000Y-85705000D03*
D12*
X19540000Y-85705000D03*
D14*
X10650000Y-83165000D03*
X17000000Y-80625000D03*
%TD*%
D12*
%TO.C,MX42*%
X209315000Y-47680000D03*
D13*
X214395000Y-47680000D03*
D12*
X219475000Y-47680000D03*
D14*
X210585000Y-45140000D03*
X216935000Y-42600000D03*
%TD*%
D12*
%TO.C,MX28*%
X223215000Y-28680000D03*
D13*
X228295000Y-28680000D03*
D12*
X233375000Y-28680000D03*
D14*
X224485000Y-26140000D03*
X230835000Y-23600000D03*
%TD*%
D12*
%TO.C,MX66*%
X268805000Y-85750000D03*
D13*
X273885000Y-85750000D03*
D12*
X278965000Y-85750000D03*
D14*
X270075000Y-83210000D03*
X276425000Y-80670000D03*
%TD*%
D12*
%TO.C,MX49*%
X104610000Y-66680000D03*
D13*
X109690000Y-66680000D03*
D12*
X114770000Y-66680000D03*
D14*
X105880000Y-64140000D03*
X112230000Y-61600000D03*
%TD*%
D12*
%TO.C,MX10*%
X175580000Y-9580000D03*
D13*
X180660000Y-9580000D03*
D12*
X185740000Y-9580000D03*
D14*
X176850000Y-7040000D03*
X183200000Y-4500000D03*
%TD*%
D21*
%TO.C,H4*%
X190500000Y-85200000D03*
%TD*%
D12*
%TO.C,MX15*%
X271180000Y-9580000D03*
D13*
X276260000Y-9580000D03*
D12*
X281340000Y-9580000D03*
D14*
X272450000Y-7040000D03*
X278800000Y-4500000D03*
%TD*%
D12*
%TO.C,MX21*%
X89980000Y-28680000D03*
D13*
X95060000Y-28680000D03*
D12*
X100140000Y-28680000D03*
D14*
X91250000Y-26140000D03*
X97600000Y-23600000D03*
%TD*%
D12*
%TO.C,MX43*%
X228315000Y-47680000D03*
D13*
X233395000Y-47680000D03*
D12*
X238475000Y-47680000D03*
D14*
X229585000Y-45140000D03*
X235935000Y-42600000D03*
%TD*%
D12*
%TO.C,MX39*%
X152265000Y-47680000D03*
D13*
X157345000Y-47680000D03*
D12*
X162425000Y-47680000D03*
D14*
X153535000Y-45140000D03*
X159885000Y-42600000D03*
%TD*%
D12*
%TO.C,MX29*%
X242480000Y-28680000D03*
D13*
X247560000Y-28680000D03*
D12*
X252640000Y-28680000D03*
D14*
X243750000Y-26140000D03*
X250100000Y-23600000D03*
%TD*%
D12*
%TO.C,MX73*%
X266440000Y-85690000D03*
D13*
X271520000Y-85690000D03*
D12*
X276600000Y-85690000D03*
D14*
X267710000Y-83150000D03*
X274060000Y-80610000D03*
%TD*%
D12*
%TO.C,MX60*%
X30680000Y-85680000D03*
D13*
X35760000Y-85680000D03*
D12*
X40840000Y-85680000D03*
D14*
X31950000Y-83140000D03*
X38300000Y-80600000D03*
%TD*%
D12*
%TO.C,MX23*%
X127980000Y-28680000D03*
D13*
X133060000Y-28680000D03*
D12*
X138140000Y-28680000D03*
D14*
X129250000Y-26140000D03*
X135600000Y-23600000D03*
%TD*%
D12*
%TO.C,MX46*%
X47350000Y-66680000D03*
D13*
X52430000Y-66680000D03*
D12*
X57510000Y-66680000D03*
D14*
X48620000Y-64140000D03*
X54970000Y-61600000D03*
%TD*%
D22*
%TO.C,MX70*%
X85840000Y-77465000D03*
D23*
X85840000Y-92705000D03*
D24*
X137910000Y-85720000D03*
D22*
X142990000Y-85720000D03*
D24*
X148070000Y-85720000D03*
D22*
X200140000Y-77465000D03*
D23*
X200140000Y-92705000D03*
D25*
X139180000Y-83180000D03*
X145530000Y-80640000D03*
%TD*%
D12*
%TO.C,MX11*%
X194680000Y-9580000D03*
D13*
X199760000Y-9580000D03*
D12*
X204840000Y-9580000D03*
D14*
X195950000Y-7040000D03*
X202300000Y-4500000D03*
%TD*%
D12*
%TO.C,MX9*%
X156480000Y-9580000D03*
D13*
X161560000Y-9580000D03*
D12*
X166640000Y-9580000D03*
D14*
X157750000Y-7040000D03*
X164100000Y-4500000D03*
%TD*%
D12*
%TO.C,MX12*%
X213780000Y-9580000D03*
D13*
X218860000Y-9580000D03*
D12*
X223940000Y-9580000D03*
D14*
X215050000Y-7040000D03*
X221400000Y-4500000D03*
%TD*%
D12*
%TO.C,MX50*%
X123690000Y-66680000D03*
D13*
X128770000Y-66680000D03*
D12*
X133850000Y-66680000D03*
D14*
X124960000Y-64140000D03*
X131310000Y-61600000D03*
%TD*%
D12*
%TO.C,MX6*%
X99480000Y-9580000D03*
D13*
X104560000Y-9580000D03*
D12*
X109640000Y-9580000D03*
D14*
X100750000Y-7040000D03*
X107100000Y-4500000D03*
%TD*%
D12*
%TO.C,MX1*%
X4480000Y-9580000D03*
D13*
X9560000Y-9580000D03*
D12*
X14640000Y-9580000D03*
D14*
X5750000Y-7040000D03*
X12100000Y-4500000D03*
%TD*%
D19*
%TO.C,H6*%
X284000000Y-56500000D03*
%TD*%
D12*
%TO.C,MX54*%
X199950000Y-66680000D03*
D13*
X205030000Y-66680000D03*
D12*
X210110000Y-66680000D03*
D14*
X201220000Y-64140000D03*
X207570000Y-61600000D03*
%TD*%
D12*
%TO.C,MX4*%
X61480000Y-9580000D03*
D13*
X66560000Y-9580000D03*
D12*
X71640000Y-9580000D03*
D14*
X62750000Y-7040000D03*
X69100000Y-4500000D03*
%TD*%
D12*
%TO.C,MX22*%
X108980000Y-28680000D03*
D13*
X114060000Y-28680000D03*
D12*
X119140000Y-28680000D03*
D14*
X110250000Y-26140000D03*
X116600000Y-23600000D03*
%TD*%
D12*
%TO.C,MX14*%
X252080000Y-9580000D03*
D13*
X257160000Y-9580000D03*
D12*
X262240000Y-9580000D03*
D14*
X253350000Y-7040000D03*
X259700000Y-4500000D03*
%TD*%
D12*
%TO.C,MX65*%
X244975000Y-85750000D03*
D13*
X250055000Y-85750000D03*
D12*
X255135000Y-85750000D03*
D14*
X246245000Y-83210000D03*
X252595000Y-80670000D03*
%TD*%
D12*
%TO.C,MX53*%
X180910000Y-66680000D03*
D13*
X185990000Y-66680000D03*
D12*
X191070000Y-66680000D03*
D14*
X182180000Y-64140000D03*
X188530000Y-61600000D03*
%TD*%
D12*
%TO.C,MX38*%
X133150000Y-47710000D03*
D13*
X138230000Y-47710000D03*
D12*
X143310000Y-47710000D03*
D14*
X134420000Y-45170000D03*
X140770000Y-42630000D03*
%TD*%
D12*
%TO.C,MX37*%
X114100000Y-47710000D03*
D13*
X119180000Y-47710000D03*
D12*
X124260000Y-47710000D03*
D14*
X115370000Y-45170000D03*
X121720000Y-42630000D03*
%TD*%
D12*
%TO.C,MX52*%
X161840000Y-66680000D03*
D13*
X166920000Y-66680000D03*
D12*
X172000000Y-66680000D03*
D14*
X163110000Y-64140000D03*
X169460000Y-61600000D03*
%TD*%
D12*
%TO.C,MX63*%
X197325000Y-85700000D03*
D13*
X202405000Y-85700000D03*
D12*
X207485000Y-85700000D03*
D14*
X198595000Y-83160000D03*
X204945000Y-80620000D03*
%TD*%
D20*
%TO.C,MX44*%
X252460000Y-40680000D03*
D13*
X252460000Y-55920000D03*
D12*
X259280000Y-47680000D03*
D13*
X264360000Y-47680000D03*
D12*
X269440000Y-47680000D03*
D20*
X276260000Y-40680000D03*
D13*
X276260000Y-55920000D03*
D14*
X260550000Y-45140000D03*
X266900000Y-42600000D03*
%TD*%
D12*
%TO.C,MX71*%
X218840000Y-85745000D03*
D13*
X223920000Y-85745000D03*
D12*
X229000000Y-85745000D03*
D14*
X220110000Y-83205000D03*
X226460000Y-80665000D03*
%TD*%
D12*
%TO.C,MX25*%
X165980000Y-28680000D03*
D13*
X171060000Y-28680000D03*
D12*
X176140000Y-28680000D03*
D14*
X167250000Y-26140000D03*
X173600000Y-23600000D03*
%TD*%
D12*
%TO.C,MX36*%
X95040000Y-47690000D03*
D13*
X100120000Y-47690000D03*
D12*
X105200000Y-47690000D03*
D14*
X96310000Y-45150000D03*
X102660000Y-42610000D03*
%TD*%
D27*
%TO.C,C5*%
X22840000Y-33160000D03*
X22840000Y-34120000D03*
%TD*%
D28*
%TO.C,D47*%
X63335000Y-67450000D03*
X63335000Y-64150000D03*
%TD*%
%TO.C,D4*%
X36000000Y-10950000D03*
X36000000Y-7650000D03*
%TD*%
D29*
%TO.C,C14*%
X28525000Y-34650000D03*
X26975000Y-34650000D03*
%TD*%
D30*
%TO.C,D31*%
X267635000Y-20050000D03*
X267635000Y-23350000D03*
%TD*%
D31*
%TO.C,U3*%
X26500000Y-40000000D03*
D32*
X28300000Y-38200000D03*
X27100000Y-38200000D03*
X25900000Y-38200000D03*
X24700000Y-38200000D03*
X28300000Y-39400000D03*
X27100000Y-39400000D03*
X25900000Y-39400000D03*
X24700000Y-39400000D03*
X28300000Y-40600000D03*
X27100000Y-40600000D03*
X25900000Y-40600000D03*
X24700000Y-40600000D03*
X28300000Y-41800000D03*
X27100000Y-41800000D03*
X25900000Y-41800000D03*
X24700000Y-41800000D03*
D33*
X27750000Y-36750000D03*
X27250000Y-36750000D03*
X26750000Y-36750000D03*
X26250000Y-36750000D03*
X25750000Y-36750000D03*
X25250000Y-36750000D03*
X24750000Y-36750000D03*
X24250000Y-36750000D03*
X23750000Y-36750000D03*
X23250000Y-42250000D03*
X29250000Y-42500000D03*
X28500000Y-42750000D03*
X27500000Y-42750000D03*
X27000000Y-42750000D03*
X26500000Y-42750000D03*
X26000000Y-42750000D03*
X25500000Y-42750000D03*
X25000000Y-42750000D03*
X24500000Y-42750000D03*
X23250000Y-42750000D03*
X29250000Y-43250000D03*
X28750000Y-43250000D03*
X28250000Y-43250000D03*
X27750000Y-43250000D03*
X27250000Y-43250000D03*
X26750000Y-43250000D03*
X26250000Y-43250000D03*
X25750000Y-43250000D03*
X25250000Y-43250000D03*
X24750000Y-43250000D03*
X24250000Y-43250000D03*
X23750000Y-43250000D03*
X29750000Y-37250000D03*
X29000000Y-37250000D03*
X28500000Y-37250000D03*
X28000000Y-37250000D03*
X27500000Y-37250000D03*
X27000000Y-37250000D03*
X26500000Y-37250000D03*
X26000000Y-37250000D03*
X25500000Y-37250000D03*
X25000000Y-37250000D03*
X23250000Y-37250000D03*
X29750000Y-37750000D03*
X29250000Y-38000000D03*
X23750000Y-38000000D03*
X23250000Y-38250000D03*
X29250000Y-38500000D03*
X23750000Y-38500000D03*
X29750000Y-38750000D03*
X29250000Y-39000000D03*
X23750000Y-39000000D03*
X29750000Y-39250000D03*
X23250000Y-39250000D03*
X29250000Y-39500000D03*
X29750000Y-39750000D03*
X23250000Y-39750000D03*
X29250000Y-40000000D03*
X29750000Y-40250000D03*
X23250000Y-40250000D03*
X29250000Y-40500000D03*
X23750000Y-40500000D03*
X29750000Y-40750000D03*
X23250000Y-40750000D03*
X29250000Y-41000000D03*
X23750000Y-41000000D03*
X29750000Y-41250000D03*
X23250000Y-41250000D03*
X23750000Y-41500000D03*
X29750000Y-41750000D03*
X23250000Y-41750000D03*
X29250000Y-42000000D03*
X23750000Y-42000000D03*
%TD*%
D34*
%TO.C,C27*%
X33930000Y-34750000D03*
X32970000Y-34750000D03*
%TD*%
D35*
%TO.C,J1*%
X50875000Y-14740000D03*
X50875000Y-20340000D03*
D36*
X47000000Y-16040000D03*
X47000000Y-17040000D03*
X47000000Y-18040000D03*
X47000000Y-19040000D03*
%TD*%
D28*
%TO.C,D45*%
X13735000Y-67450000D03*
X13735000Y-64150000D03*
%TD*%
D37*
%TO.C,R23*%
X21700000Y-86010000D03*
X21700000Y-84990000D03*
%TD*%
D28*
%TO.C,D9*%
X131300000Y-10950000D03*
X131300000Y-7650000D03*
%TD*%
%TO.C,D5*%
X55470000Y-10970000D03*
X55470000Y-7670000D03*
%TD*%
D38*
%TO.C,D62*%
X193750000Y-80500000D03*
X197050000Y-80500000D03*
%TD*%
D30*
%TO.C,D26*%
X167235000Y-20050000D03*
X167235000Y-23350000D03*
%TD*%
D39*
%TO.C,L6*%
X17170000Y-38900000D03*
X16200000Y-38900000D03*
%TD*%
D30*
%TO.C,D21*%
X72335000Y-20050000D03*
X72335000Y-23350000D03*
%TD*%
%TO.C,D23*%
X110235000Y-20050000D03*
X110235000Y-23350000D03*
%TD*%
D28*
%TO.C,D39*%
X149135000Y-48450000D03*
X149135000Y-45150000D03*
%TD*%
%TO.C,D37*%
X111135000Y-48450000D03*
X111135000Y-45150000D03*
%TD*%
D40*
%TO.C,D32*%
X11885000Y-52200000D03*
X8585000Y-52200000D03*
%TD*%
D41*
%TO.C,SW1*%
X53550000Y-55090000D03*
X53550000Y-52790000D03*
D42*
X51300000Y-53940000D03*
X48300000Y-53940000D03*
D41*
X46050000Y-55090000D03*
X46050000Y-52790000D03*
D43*
X52050000Y-51840000D03*
X49050000Y-51840000D03*
X47550000Y-51840000D03*
%TD*%
D28*
%TO.C,D64*%
X239700000Y-86450000D03*
X239700000Y-83150000D03*
%TD*%
D40*
%TO.C,D33*%
X40350000Y-51900000D03*
X37050000Y-51900000D03*
%TD*%
D30*
%TO.C,D27*%
X186235000Y-20050000D03*
X186235000Y-23350000D03*
%TD*%
D28*
%TO.C,D58*%
X4335000Y-89350000D03*
X4335000Y-86050000D03*
%TD*%
D44*
%TO.C,C17*%
X20270000Y-36950000D03*
X21230000Y-36950000D03*
%TD*%
D45*
%TO.C,R18*%
X7625000Y-69300000D03*
X8645000Y-69300000D03*
%TD*%
%TO.C,R15*%
X26740000Y-32250000D03*
X27760000Y-32250000D03*
%TD*%
D34*
%TO.C,C24*%
X23695000Y-45050000D03*
X22735000Y-45050000D03*
%TD*%
D46*
%TO.C,C21*%
X31900000Y-43850000D03*
X33800000Y-43850000D03*
%TD*%
D28*
%TO.C,D35*%
X73035000Y-48450000D03*
X73035000Y-45150000D03*
%TD*%
%TO.C,D53*%
X177835000Y-67350000D03*
X177835000Y-64050000D03*
%TD*%
%TO.C,D48*%
X82535000Y-67350000D03*
X82535000Y-64050000D03*
%TD*%
D30*
%TO.C,D24*%
X129335000Y-20050000D03*
X129335000Y-23350000D03*
%TD*%
D47*
%TO.C,R9*%
X7635000Y-66590000D03*
X7635000Y-67610000D03*
%TD*%
D48*
%TO.C,C6*%
X17915000Y-33930000D03*
X17915000Y-32970000D03*
%TD*%
D28*
%TO.C,D6*%
X58400000Y-10950000D03*
X58400000Y-7650000D03*
%TD*%
D45*
%TO.C,R11*%
X7525000Y-65600000D03*
X8545000Y-65600000D03*
%TD*%
D47*
%TO.C,R2*%
X50035000Y-42495000D03*
X50035000Y-43515000D03*
%TD*%
D28*
%TO.C,D38*%
X135100000Y-53450000D03*
X135100000Y-50150000D03*
%TD*%
%TO.C,D10*%
X134400000Y-10950000D03*
X134400000Y-7650000D03*
%TD*%
%TO.C,D50*%
X120635000Y-67350000D03*
X120635000Y-64050000D03*
%TD*%
%TO.C,D61*%
X121535000Y-86450000D03*
X121535000Y-83150000D03*
%TD*%
D47*
%TO.C,R20*%
X20000000Y-20890000D03*
X20000000Y-21910000D03*
%TD*%
D39*
%TO.C,L1*%
X20235000Y-38950000D03*
X19265000Y-38950000D03*
%TD*%
D49*
%TO.C,C2*%
X51935000Y-39855000D03*
X51935000Y-41755000D03*
%TD*%
D50*
%TO.C,L3*%
X30050000Y-33162500D03*
X30050000Y-34737500D03*
%TD*%
D51*
%TO.C,L2*%
X24535000Y-3387500D03*
X24535000Y-1812500D03*
%TD*%
D49*
%TO.C,C22*%
X35650000Y-42100000D03*
X35650000Y-44000000D03*
%TD*%
D52*
%TO.C,R21*%
X14610000Y-50550000D03*
X13590000Y-50550000D03*
%TD*%
D28*
%TO.C,D49*%
X101635000Y-67450000D03*
X101635000Y-64150000D03*
%TD*%
D30*
%TO.C,D30*%
X243835000Y-20050000D03*
X243835000Y-23350000D03*
%TD*%
D47*
%TO.C,R14*%
X53900000Y-38730000D03*
X53900000Y-39750000D03*
%TD*%
%TO.C,R4*%
X46000000Y-37840000D03*
X46000000Y-38860000D03*
%TD*%
D28*
%TO.C,D44*%
X256035000Y-48450000D03*
X256035000Y-45150000D03*
%TD*%
D30*
%TO.C,D28*%
X205335000Y-20050000D03*
X205335000Y-23350000D03*
%TD*%
%TO.C,D29*%
X224435000Y-20050000D03*
X224435000Y-23350000D03*
%TD*%
D28*
%TO.C,D55*%
X216135000Y-67450000D03*
X216135000Y-64150000D03*
%TD*%
D38*
%TO.C,D20*%
X47450000Y-26040000D03*
X50750000Y-26040000D03*
%TD*%
D28*
%TO.C,D40*%
X168235000Y-48450000D03*
X168235000Y-45150000D03*
%TD*%
D34*
%TO.C,C7*%
X34195000Y-36250000D03*
X33235000Y-36250000D03*
%TD*%
D28*
%TO.C,D65*%
X263800000Y-86550000D03*
X263800000Y-83250000D03*
%TD*%
D53*
%TO.C,SW2*%
X37225000Y-65400000D03*
X31775000Y-65400000D03*
X37225000Y-68400000D03*
X31775000Y-68400000D03*
%TD*%
D28*
%TO.C,D15*%
X229900000Y-10950000D03*
X229900000Y-7650000D03*
%TD*%
D29*
%TO.C,C1*%
X47675000Y-36600000D03*
X46125000Y-36600000D03*
%TD*%
D28*
%TO.C,D59*%
X46100000Y-86450000D03*
X46100000Y-83150000D03*
%TD*%
D35*
%TO.C,BT1*%
X60800000Y-37000000D03*
X60800000Y-40600000D03*
D36*
X56925000Y-38300000D03*
X56925000Y-39300000D03*
%TD*%
D34*
%TO.C,C8*%
X34195000Y-38550000D03*
X33235000Y-38550000D03*
%TD*%
D28*
%TO.C,D63*%
X216100000Y-86450000D03*
X216100000Y-83150000D03*
%TD*%
D44*
%TO.C,C9*%
X20220000Y-40600000D03*
X21180000Y-40600000D03*
%TD*%
D28*
%TO.C,D57*%
X268335000Y-67450000D03*
X268335000Y-64150000D03*
%TD*%
%TO.C,D51*%
X139835000Y-67450000D03*
X139835000Y-64150000D03*
%TD*%
%TO.C,D43*%
X225335000Y-48450000D03*
X225335000Y-45150000D03*
%TD*%
%TO.C,D60*%
X50900000Y-86450000D03*
X50900000Y-83150000D03*
%TD*%
D54*
%TO.C,Y2*%
X32015000Y-36250000D03*
X32015000Y-38650000D03*
%TD*%
D30*
%TO.C,D22*%
X91335000Y-20050000D03*
X91335000Y-23350000D03*
%TD*%
D52*
%TO.C,R22*%
X13760000Y-68950000D03*
X12740000Y-68950000D03*
%TD*%
D34*
%TO.C,C16*%
X27730000Y-33350000D03*
X26770000Y-33350000D03*
%TD*%
D47*
%TO.C,R17*%
X20835000Y-9040000D03*
X20835000Y-10060000D03*
%TD*%
D30*
%TO.C,D19*%
X34335000Y-20050000D03*
X34335000Y-23350000D03*
%TD*%
D37*
%TO.C,R5*%
X48935000Y-37025000D03*
X48935000Y-36005000D03*
%TD*%
D38*
%TO.C,D17*%
X269750000Y-12700000D03*
X273050000Y-12700000D03*
%TD*%
D48*
%TO.C,C10*%
X21350000Y-38930000D03*
X21350000Y-37970000D03*
%TD*%
D45*
%TO.C,R12*%
X7625000Y-62300000D03*
X8645000Y-62300000D03*
%TD*%
%TO.C,R10*%
X7525000Y-70500000D03*
X8545000Y-70500000D03*
%TD*%
D28*
%TO.C,D36*%
X92135000Y-48450000D03*
X92135000Y-45150000D03*
%TD*%
%TO.C,D12*%
X188400000Y-10950000D03*
X188400000Y-7650000D03*
%TD*%
D47*
%TO.C,R3*%
X50135000Y-35995000D03*
X50135000Y-37015000D03*
%TD*%
D28*
%TO.C,D11*%
X153400000Y-10950000D03*
X153400000Y-7650000D03*
%TD*%
%TO.C,D46*%
X44435000Y-67350000D03*
X44435000Y-64050000D03*
%TD*%
D55*
%TO.C,JP1*%
X4950000Y-76600000D03*
X6250000Y-76600000D03*
%TD*%
D56*
%TO.C,Y1*%
X21515000Y-34500000D03*
X19315000Y-34500000D03*
X19315000Y-32800000D03*
X21515000Y-32800000D03*
%TD*%
D45*
%TO.C,TH1*%
X51490000Y-37800000D03*
X52510000Y-37800000D03*
%TD*%
D32*
%TO.C,J4*%
X15510000Y-5480000D03*
X21290000Y-5480000D03*
D57*
X14075000Y-1800000D03*
D58*
X14075000Y-5970000D03*
D57*
X22725000Y-1800000D03*
D58*
X22725000Y-5970000D03*
%TD*%
D28*
%TO.C,D7*%
X77400000Y-10950000D03*
X77400000Y-7650000D03*
%TD*%
%TO.C,D8*%
X96400000Y-10950000D03*
X96400000Y-7650000D03*
%TD*%
%TO.C,D34*%
X53835000Y-48350000D03*
X53835000Y-45050000D03*
%TD*%
%TO.C,D56*%
X241135000Y-67550000D03*
X241135000Y-64250000D03*
%TD*%
D30*
%TO.C,D18*%
X10585000Y-20050000D03*
X10585000Y-23350000D03*
%TD*%
D40*
%TO.C,D3*%
X9735000Y-14550000D03*
X6435000Y-14550000D03*
%TD*%
D28*
%TO.C,D54*%
X197035000Y-67550000D03*
X197035000Y-64250000D03*
%TD*%
D27*
%TO.C,C12*%
X25550000Y-33570000D03*
X25550000Y-34530000D03*
%TD*%
D44*
%TO.C,C13*%
X18370000Y-35750000D03*
X19330000Y-35750000D03*
%TD*%
D48*
%TO.C,C26*%
X24365000Y-34630000D03*
X24365000Y-33670000D03*
%TD*%
D28*
%TO.C,D16*%
X249500000Y-10650000D03*
X249500000Y-7350000D03*
%TD*%
D47*
%TO.C,R13*%
X7700000Y-63390000D03*
X7700000Y-64410000D03*
%TD*%
D28*
%TO.C,D13*%
X191400000Y-10950000D03*
X191400000Y-7650000D03*
%TD*%
D48*
%TO.C,C11*%
X18185000Y-38930000D03*
X18185000Y-37970000D03*
%TD*%
D47*
%TO.C,R19*%
X14700000Y-15880000D03*
X14700000Y-16900000D03*
%TD*%
D28*
%TO.C,D42*%
X206235000Y-48450000D03*
X206235000Y-45150000D03*
%TD*%
%TO.C,D41*%
X187335000Y-48350000D03*
X187335000Y-45050000D03*
%TD*%
D59*
%TO.C,C23*%
X31650000Y-33075000D03*
X31650000Y-34625000D03*
%TD*%
D28*
%TO.C,D52*%
X158835000Y-67450000D03*
X158835000Y-64150000D03*
%TD*%
D47*
%TO.C,R16*%
X16585000Y-9040000D03*
X16585000Y-10060000D03*
%TD*%
D60*
%TO.C,L5*%
X33437500Y-42050000D03*
X31862500Y-42050000D03*
%TD*%
D61*
%TO.C,U1*%
X50150000Y-38900000D03*
X50150000Y-39400000D03*
X50150000Y-39900000D03*
X50150000Y-40400000D03*
D62*
X49465000Y-41085000D03*
X48965000Y-41085000D03*
X48465000Y-41085000D03*
X47965000Y-41085000D03*
D61*
X47280000Y-40400000D03*
X47280000Y-39900000D03*
X47280000Y-39400000D03*
X47280000Y-38900000D03*
D62*
X47965000Y-38215000D03*
X48465000Y-38215000D03*
X48965000Y-38215000D03*
X49465000Y-38215000D03*
D63*
X48715000Y-39650000D03*
%TD*%
D44*
%TO.C,C25*%
X26735000Y-45050000D03*
X27695000Y-45050000D03*
%TD*%
D30*
%TO.C,D25*%
X148335000Y-20050000D03*
X148335000Y-23350000D03*
%TD*%
D28*
%TO.C,D14*%
X210900000Y-10950000D03*
X210900000Y-7650000D03*
%TD*%
D64*
%TO.C,AE1*%
X6095000Y-34550000D03*
D32*
X6045000Y-32450000D03*
%TD*%
D65*
%TO.C,L4*%
X29115000Y-31900000D03*
X30085000Y-31900000D03*
%TD*%
D46*
%TO.C,C20*%
X31000000Y-45950000D03*
X32900000Y-45950000D03*
%TD*%
D47*
%TO.C,R1*%
X48785000Y-42495000D03*
X48785000Y-43515000D03*
%TD*%
%TO.C,R8*%
X7635000Y-71590000D03*
X7635000Y-72610000D03*
%TD*%
M02*
