M48
; DRILL file {KiCad 7.0.1-0} date 2023 July 30, Sunday 16:54:23
; FORMAT={-:-/ absolute / inch / decimal}
; #@! TF.CreationDate,2023-07-30T16:54:23+05:30
; #@! TF.GenerationSoftware,Kicad,Pcbnew,7.0.1-0
; #@! TF.FileFunction,NonPlated,1,2,NPTH
FMAT,2
INCH
; #@! TA.AperFunction,NonPlated,NPTH,ComponentDrill
T1C0.0236
; #@! TA.AperFunction,NonPlated,NPTH,ComponentDrill
T2C0.0354
; #@! TA.AperFunction,NonPlated,NPTH,ComponentDrill
T3C0.0400
; #@! TA.AperFunction,NonPlated,NPTH,ComponentDrill
T4C0.0669
; #@! TA.AperFunction,NonPlated,NPTH,ComponentDrill
T5C0.0689
; #@! TA.AperFunction,NonPlated,NPTH,ComponentDrill
T6C0.0846
; #@! TA.AperFunction,NonPlated,NPTH,ComponentDrill
T7C0.1004
; #@! TA.AperFunction,NonPlated,NPTH,ComponentDrill
T8C0.1200
; #@! TA.AperFunction,NonPlated,NPTH,ComponentDrill
T9C0.1201
; #@! TA.AperFunction,NonPlated,NPTH,ComponentDrill
T10C0.1570
; #@! TA.AperFunction,NonPlated,NPTH,ComponentDrill
T11C0.1575
%
G90
G05
T1
X2.5069Y-2.3496
X2.7344Y-2.3496
T2
X3.8569Y-4.252
X3.975Y-4.252
T3
X2.0019Y-4.1126
X2.0419Y-4.3126
X2.0819Y-4.1126
T4
X2.0726Y-2.511
X2.1659Y-5.5071
X2.1671Y-4.011
X2.2616Y-3.263
X2.2656Y-5.5081
X2.3561Y-4.011
X2.4726Y-2.511
X2.5415Y-4.7591
X2.5659Y-5.5071
X2.5671Y-4.011
X2.6616Y-3.263
X2.6656Y-5.5081
X2.7561Y-4.011
X2.8207Y-2.511
X2.9415Y-4.7591
X3.1041Y-5.5071
X3.1986Y-3.263
X3.2018Y-5.5079
X3.2207Y-2.511
X3.3876Y-4.011
X3.5041Y-5.5071
X3.5687Y-2.511
X3.5986Y-3.263
X3.6018Y-5.5079
X3.7604Y-4.7591
X3.7876Y-4.011
X3.9427Y-3.263
X3.9687Y-2.511
X4.0427Y-5.5071
X4.138Y-5.5081
X4.1396Y-4.011
X4.1604Y-4.7591
X4.3167Y-2.511
X4.3427Y-3.263
X4.4427Y-5.5071
X4.5124Y-4.7591
X4.538Y-5.5081
X4.5396Y-4.011
X4.6907Y-3.263
X4.7167Y-2.511
X4.8915Y-4.011
X4.9124Y-4.7591
X5.0648Y-2.511
X5.0907Y-3.263
X5.2624Y-4.7591
X5.2915Y-4.011
X5.4388Y-3.263
X5.4648Y-2.511
X5.6435Y-4.011
X5.6624Y-4.7591
X5.8128Y-2.511
X5.8388Y-3.263
X6.0148Y-4.7591
X6.0435Y-4.011
X6.1868Y-3.263
X6.2128Y-2.511
X6.3909Y-4.011
X6.4148Y-4.7591
X6.5608Y-2.511
X6.5868Y-3.263
X6.7659Y-4.7591
X6.7909Y-4.011
X6.9348Y-3.263
X6.9608Y-2.511
X7.139Y-4.011
X7.1659Y-4.7591
X7.3089Y-2.511
X7.3348Y-3.263
X7.5175Y-4.7591
X7.539Y-4.011
X7.6829Y-3.263
X7.7089Y-2.511
X7.8909Y-4.011
X7.9175Y-4.7591
X8.0569Y-2.511
X8.0829Y-3.263
X8.2679Y-4.7591
X8.2909Y-4.011
X8.4309Y-3.263
X8.4569Y-2.511
X8.639Y-4.011
X8.6679Y-4.7591
X8.8089Y-2.511
X8.8309Y-3.263
X9.0187Y-4.7591
X9.039Y-4.011
X9.1789Y-3.263
X9.2089Y-2.511
X9.387Y-4.011
X9.4187Y-4.7591
X9.5608Y-2.511
X9.5789Y-3.263
X9.665Y-5.5079
X9.7683Y-4.7591
X9.787Y-4.011
X9.927Y-3.263
X9.9608Y-2.511
X10.065Y-5.5079
X10.137Y-4.011
X10.1683Y-4.7591
X10.3128Y-2.511
X10.327Y-3.263
X10.512Y-5.5096
X10.5175Y-4.7591
X10.537Y-4.011
X10.602Y-5.5098
X10.6843Y-3.263
X10.7128Y-2.511
X10.885Y-4.011
X10.912Y-5.5096
X10.9175Y-4.7591
X11.002Y-5.5098
X11.0687Y-2.511
X11.0843Y-3.263
X11.285Y-4.011
X11.4427Y-3.263
X11.449Y-5.5081
X11.4687Y-2.511
X11.5409Y-5.5098
X11.5453Y-4.7598
X11.8207Y-2.511
X11.8427Y-3.263
X11.849Y-5.5081
X11.9161Y-4.7598
X11.9409Y-5.5098
X11.9453Y-4.7598
X12.1041Y-4.011
X12.1961Y-2.5134
X12.2207Y-2.511
X12.3161Y-4.7598
X12.3848Y-3.263
X12.386Y-5.5075
X12.4791Y-5.5098
X12.5041Y-4.011
X12.572Y-4.7598
X12.5726Y-2.511
X12.5961Y-2.5134
X12.7848Y-3.263
X12.786Y-5.5075
X12.8791Y-5.5098
X12.972Y-4.7598
X12.9726Y-2.511
T5
X6.8551Y-5.5079
X7.2551Y-5.5079
X7.3258Y-5.5087
X7.7258Y-5.5087
T6
X1.997Y-5.0193
T7
X2.097Y-4.4646
T8
X5.0866Y-5.7829
X5.2758Y-5.7837
X9.0236Y-5.7829
X9.7758Y-5.7837
T9
X2.273Y-4.4835
X3.21Y-4.4835
X11.6476Y-4.4843
X11.8356Y-3.7354
X11.9276Y-2.2378
X12.5846Y-4.4843
X12.7726Y-3.7354
X12.8646Y-2.2378
T10
X5.0866Y-5.1829
X5.2758Y-5.1837
X7.0551Y-5.5079
X7.5258Y-5.5087
X9.0236Y-5.1829
X9.7758Y-5.1837
T11
X2.2726Y-2.511
X2.273Y-5.0835
X2.3659Y-5.5071
X2.3671Y-4.011
X2.4616Y-3.263
X2.4656Y-5.5081
X2.5561Y-4.011
X2.7415Y-4.7591
X3.0207Y-2.511
X3.21Y-5.0835
X3.3041Y-5.5071
X3.3986Y-3.263
X3.4018Y-5.5079
X3.5876Y-4.011
X3.7687Y-2.511
X3.9604Y-4.7591
X4.1427Y-3.263
X4.2427Y-5.5071
X4.338Y-5.5081
X4.3396Y-4.011
X4.5167Y-2.511
X4.7124Y-4.7591
X4.8907Y-3.263
X5.0915Y-4.011
X5.2648Y-2.511
X5.4624Y-4.7591
X5.6388Y-3.263
X5.8435Y-4.011
X6.0128Y-2.511
X6.2148Y-4.7591
X6.3868Y-3.263
X6.5909Y-4.011
X6.7608Y-2.511
X6.9659Y-4.7591
X7.1348Y-3.263
X7.339Y-4.011
X7.5089Y-2.511
X7.7175Y-4.7591
X7.8829Y-3.263
X8.0909Y-4.011
X8.2569Y-2.511
X8.4679Y-4.7591
X8.6309Y-3.263
X8.839Y-4.011
X9.0089Y-2.511
X9.2187Y-4.7591
X9.3789Y-3.263
X9.587Y-4.011
X9.7608Y-2.511
X9.865Y-5.5079
X9.9683Y-4.7591
X10.127Y-3.263
X10.337Y-4.011
X10.5128Y-2.511
X10.712Y-5.5096
X10.7175Y-4.7591
X10.802Y-5.5098
X10.8843Y-3.263
X11.085Y-4.011
X11.2687Y-2.511
X11.6427Y-3.263
X11.6476Y-5.0843
X11.649Y-5.5081
X11.7409Y-5.5098
X11.7453Y-4.7598
X11.8356Y-4.3354
X11.9276Y-2.8378
X12.0207Y-2.511
X12.1161Y-4.7598
X12.3041Y-4.011
X12.3961Y-2.5134
X12.5846Y-5.0843
X12.5848Y-3.263
X12.586Y-5.5075
X12.6791Y-5.5098
X12.772Y-4.7598
X12.7726Y-2.511
X12.7726Y-4.3354
X12.8646Y-2.8378
T0
M30
