M48
; DRILL file {KiCad 7.0.1-0} date 2023 August 04, Friday 20:55:44
; FORMAT={-:-/ absolute / metric / decimal}
; #@! TF.CreationDate,2023-08-04T20:55:44+05:30
; #@! TF.GenerationSoftware,Kicad,Pcbnew,7.0.1-0
; #@! TF.FileFunction,MixedPlating,1,2
FMAT,2
METRIC
; #@! TA.AperFunction,Plated,PTH,ViaDrill
T1C0.300
; #@! TA.AperFunction,Plated,PTH,ComponentDrill
T2C0.300
; #@! TA.AperFunction,Plated,PTH,ComponentDrill
T3C0.600
; #@! TA.AperFunction,Plated,PTH,ComponentDrill
T4C1.450
; #@! TA.AperFunction,Plated,PTH,ComponentDrill
T5C1.470
; #@! TA.AperFunction,Plated,PTH,ComponentDrill
T6C1.500
; #@! TA.AperFunction,Plated,PTH,ComponentDrill
T7C2.400
; #@! TA.AperFunction,Plated,PTH,ComponentDrill
T8C2.499
; #@! TA.AperFunction,NonPlated,NPTH,ComponentDrill
T9C0.600
; #@! TA.AperFunction,NonPlated,NPTH,ComponentDrill
T10C0.900
; #@! TA.AperFunction,NonPlated,NPTH,ComponentDrill
T11C1.016
; #@! TA.AperFunction,NonPlated,NPTH,ComponentDrill
T12C1.700
; #@! TA.AperFunction,NonPlated,NPTH,ComponentDrill
T13C1.750
; #@! TA.AperFunction,NonPlated,NPTH,ComponentDrill
T14C2.150
; #@! TA.AperFunction,NonPlated,NPTH,ComponentDrill
T15C2.550
; #@! TA.AperFunction,NonPlated,NPTH,ComponentDrill
T16C3.048
; #@! TA.AperFunction,NonPlated,NPTH,ComponentDrill
T17C3.050
; #@! TA.AperFunction,NonPlated,NPTH,ComponentDrill
T18C3.988
; #@! TA.AperFunction,NonPlated,NPTH,ComponentDrill
T19C4.000
%
G90
G05
T1
X2.01Y-77.44
X3.435Y-78.8
X4.835Y-79.565
X4.9Y-75.3
X5.93Y-72.21
X6.135Y-78.6
X7.08Y-69.3
X7.935Y-68.5
X7.95Y-43.05
X8.435Y-71.6
X8.635Y-64.4
X8.735Y-67.6
X9.348Y-68.913
X9.65Y-50.45
X9.782Y-70.047
X9.95Y-39.6
X10.6Y-52.2
X10.89Y-69.76
X11.0Y-54.95
X11.3Y-80.85
X11.4Y-44.3
X11.479Y-68.9
X11.9Y-59.05
X12.15Y-64.25
X12.79Y-79.155
X12.8Y-43.2
X12.8Y-69.85
X13.7Y-54.8
X13.835Y-57.5
X14.75Y-18.1
X15.035Y-57.6
X15.7Y-62.9
X16.235Y-56.2
X16.35Y-54.4
X16.5Y-62.9
X16.6Y-10.8
X16.65Y-44.5
X16.65Y-50.85
X16.7Y-40.35
X17.3Y-41.2
X17.65Y-35.7
X17.7Y-11.29
X18.104Y-13.841
X18.705Y-14.54
X18.8Y-10.6
X19.078Y-11.296
X19.3Y-40.55
X19.335Y-55.9
X20.0Y-22.6
X20.2Y-61.9
X20.267Y-45.367
X20.425Y-46.825
X20.575Y-44.275
X20.9Y-10.7
X21.0Y-62.0
X21.2Y-42.5
X21.25Y-49.25
X21.45Y-57.25
X21.85Y-30.85
X22.1Y-45.05
X22.15Y-56.3
X23.571Y-46.824
X24.1Y-55.75
X24.35Y-47.25
X24.4Y-32.7
X24.55Y-35.8
X24.6Y-60.0
X25.435Y-3.4
X25.45Y-47.4
X25.5Y-31.95
X25.55Y-32.75
X25.85Y-36.05
X26.15Y-31.2
X26.235Y-54.8
X26.4Y-58.7
X26.79Y-43.65
X26.897Y-47.95
X26.95Y-31.4
X27.247Y-44.266
X27.322Y-35.934
X27.7Y-22.0
X27.7Y-55.573
X27.76Y-31.59
X27.945Y-36.35
X27.985Y-44.135
X28.1Y-71.6
X28.357Y-13.146
X28.55Y-54.55
X28.7Y-49.2
X29.535Y-79.1
X29.919Y-43.881
X30.055Y-13.595
X30.4Y-30.045
X30.4Y-65.4
X30.45Y-31.172
X30.6Y-41.9
X30.6Y-53.34
X31.0Y-47.35
X31.65Y-32.25
X32.0Y-45.95
X32.43Y-14.47
X32.85Y-47.1
X32.95Y-43.75
X33.8Y-45.25
X33.8Y-46.65
X33.85Y-45.95
X34.25Y-37.4
X34.45Y-45.1
X34.6Y-42.95
X34.7Y-34.7
X35.3Y-45.15
X35.4Y-43.05
X35.4Y-49.8
X35.5Y-20.9
X35.6Y-58.4
X36.2Y-43.05
X36.6Y-34.15
X36.85Y-76.35
X36.95Y-41.9
X38.05Y-60.85
X38.7Y-20.04
X38.7Y-23.24
X40.4Y-48.9
X40.6Y-42.94
X41.75Y-52.3
X42.408Y-36.094
X43.22Y-36.06
X43.8Y-50.35
X45.2Y-36.6
X45.25Y-5.79
X45.3Y-37.8
X45.75Y-16.04
X45.779Y-17.236
X45.835Y-19.1
X46.0Y-18.04
X46.335Y-19.7
X47.035Y-19.7
X47.035Y-44.5
X47.342Y-41.663
X47.735Y-19.7
X48.235Y-19.0
X48.482Y-41.788
X48.9Y-35.4
X50.1Y-35.4
X50.1Y-53.04
X50.75Y-41.855
X51.2Y-47.94
X51.9Y-42.655
X52.1Y-49.24
X52.1Y-50.84
X53.1Y-41.805
X53.6Y-46.399
X53.95Y-37.75
X54.37Y-22.37
X56.4Y-40.0
X57.3Y-16.04
X57.3Y-40.0
X58.1Y-39.4
X61.5Y-43.9
X65.6Y-52.74
X240.6Y-17.35
X240.75Y-21.3
X251.3Y-16.8
X256.7Y-19.7
X257.1Y-16.2
X258.0Y-20.6
X265.9Y-19.8
X283.7Y-1.8
T2
X6.045Y-32.45
X24.7Y-38.2
X24.7Y-39.4
X24.7Y-40.6
X24.7Y-41.8
X25.9Y-38.2
X25.9Y-39.4
X25.9Y-40.6
X25.9Y-41.8
X27.1Y-38.2
X27.1Y-39.4
X27.1Y-40.6
X27.1Y-41.8
X28.3Y-38.2
X28.3Y-39.4
X28.3Y-40.6
X28.3Y-41.8
X48.215Y-39.15
X48.215Y-40.15
X49.215Y-39.15
X49.215Y-40.15
T4
X2.56Y-62.02
X2.56Y-64.56
X2.56Y-67.1
X2.56Y-69.64
X2.56Y-72.18
X5.1Y-63.29
X5.1Y-65.83
X5.1Y-68.37
X5.1Y-70.91
X5.1Y-73.45
T5
X127.225Y-83.16
X133.575Y-80.62
X139.18Y-83.18
X145.53Y-80.64
T6
X5.75Y-7.04
X8.12Y-83.14
X8.15Y-45.14
X10.55Y-26.14
X10.65Y-83.165
X12.1Y-4.5
X12.91Y-45.11
X14.47Y-80.6
X14.5Y-42.6
X16.9Y-23.6
X17.0Y-80.625
X17.66Y-64.14
X19.26Y-42.57
X24.01Y-61.6
X24.75Y-7.04
X31.1Y-4.5
X31.95Y-83.14
X34.35Y-26.14
X34.43Y-83.16
X38.3Y-80.6
X39.11Y-45.13
X40.7Y-23.6
X40.78Y-80.62
X43.75Y-7.04
X45.46Y-42.59
X48.62Y-64.14
X50.1Y-4.5
X53.25Y-26.14
X54.97Y-61.6
X55.79Y-83.14
X58.18Y-45.13
X58.21Y-83.165
X59.6Y-23.6
X62.14Y-80.6
X62.75Y-7.04
X64.53Y-42.59
X64.56Y-80.625
X67.72Y-64.14
X69.1Y-4.5
X72.25Y-26.14
X74.07Y-61.6
X77.23Y-45.12
X78.6Y-23.6
X81.75Y-7.04
X83.58Y-42.58
X86.77Y-64.14
X88.1Y-4.5
X91.25Y-26.14
X93.12Y-61.6
X96.31Y-45.15
X97.6Y-23.6
X100.75Y-7.04
X102.66Y-42.61
X105.88Y-64.14
X107.1Y-4.5
X110.25Y-26.14
X112.23Y-61.6
X115.37Y-45.17
X116.6Y-23.6
X119.75Y-7.04
X121.72Y-42.63
X124.96Y-64.14
X126.1Y-4.5
X129.25Y-26.14
X131.31Y-61.6
X134.435Y-45.14
X135.6Y-23.6
X138.75Y-7.04
X140.785Y-42.6
X144.05Y-64.14
X145.1Y-4.5
X148.25Y-26.14
X150.4Y-61.6
X153.535Y-45.14
X154.6Y-23.6
X157.75Y-7.04
X159.885Y-42.6
X163.11Y-64.14
X164.1Y-4.5
X167.25Y-26.14
X169.46Y-61.6
X172.535Y-45.14
X173.6Y-23.6
X176.85Y-7.04
X178.885Y-42.6
X182.18Y-64.14
X183.2Y-4.5
X186.25Y-26.14
X188.53Y-61.6
X191.535Y-45.14
X192.6Y-23.6
X195.95Y-7.04
X197.885Y-42.6
X198.595Y-83.16
X201.22Y-64.14
X202.3Y-4.5
X204.945Y-80.62
X205.25Y-26.14
X207.57Y-61.6
X210.585Y-45.14
X211.6Y-23.6
X215.05Y-7.04
X216.935Y-42.6
X220.11Y-83.205
X220.25Y-64.14
X221.4Y-4.5
X222.395Y-83.21
X224.485Y-26.14
X226.46Y-80.665
X226.6Y-61.6
X228.745Y-80.67
X229.585Y-45.14
X230.835Y-23.6
X234.25Y-7.04
X235.935Y-42.6
X240.6Y-4.5
X243.75Y-26.14
X243.91Y-83.165
X246.245Y-83.21
X246.355Y-64.16
X250.1Y-23.6
X250.26Y-80.625
X252.595Y-80.67
X252.705Y-61.62
X253.35Y-7.04
X255.775Y-64.16
X259.7Y-4.5
X260.55Y-45.14
X262.125Y-61.62
X262.885Y-7.1
X266.9Y-42.6
X267.68Y-26.14
X267.71Y-83.15
X269.235Y-4.56
X270.075Y-83.21
X272.435Y-64.16
X272.45Y-7.04
X274.03Y-23.6
X274.06Y-80.61
X276.425Y-80.67
X278.785Y-61.62
X278.8Y-4.5
T9
X15.51Y-5.48
X21.29Y-5.48
T10
X48.3Y-53.94
X51.3Y-53.94
T11
X2.295Y-79.184
X2.295Y-81.216
X7.375Y-80.2
T12
X4.48Y-9.58
X6.85Y-85.68
X6.88Y-47.68
X9.28Y-28.68
X9.38Y-85.705
X11.64Y-47.65
X14.64Y-9.58
X16.39Y-66.68
X17.01Y-85.68
X17.04Y-47.68
X19.44Y-28.68
X19.54Y-85.705
X21.8Y-47.65
X23.48Y-9.58
X26.55Y-66.68
X30.68Y-85.68
X33.08Y-28.68
X33.16Y-85.7
X33.64Y-9.58
X37.84Y-47.67
X40.84Y-85.68
X42.48Y-9.58
X43.24Y-28.68
X43.32Y-85.7
X47.35Y-66.68
X48.0Y-47.67
X51.98Y-28.68
X52.64Y-9.58
X54.52Y-85.68
X56.91Y-47.67
X56.94Y-85.705
X57.51Y-66.68
X61.48Y-9.58
X62.14Y-28.68
X64.68Y-85.68
X66.45Y-66.68
X67.07Y-47.67
X67.1Y-85.705
X70.98Y-28.68
X71.64Y-9.58
X75.96Y-47.66
X76.61Y-66.68
X80.48Y-9.58
X81.14Y-28.68
X85.5Y-66.68
X86.12Y-47.66
X89.98Y-28.68
X90.64Y-9.58
X95.04Y-47.69
X95.66Y-66.68
X99.48Y-9.58
X100.14Y-28.68
X104.61Y-66.68
X105.2Y-47.69
X108.98Y-28.68
X109.64Y-9.58
X114.1Y-47.71
X114.77Y-66.68
X118.48Y-9.58
X119.14Y-28.68
X123.69Y-66.68
X124.26Y-47.71
X127.98Y-28.68
X128.64Y-9.58
X133.165Y-47.68
X133.85Y-66.68
X137.48Y-9.58
X138.14Y-28.68
X142.78Y-66.68
X143.325Y-47.68
X146.98Y-28.68
X147.64Y-9.58
X152.265Y-47.68
X152.94Y-66.68
X156.48Y-9.58
X157.14Y-28.68
X161.84Y-66.68
X162.425Y-47.68
X165.98Y-28.68
X166.64Y-9.58
X171.265Y-47.68
X172.0Y-66.68
X175.58Y-9.58
X176.14Y-28.68
X180.91Y-66.68
X181.425Y-47.68
X184.98Y-28.68
X185.74Y-9.58
X190.265Y-47.68
X191.07Y-66.68
X194.68Y-9.58
X195.14Y-28.68
X197.325Y-85.7
X199.95Y-66.68
X200.425Y-47.68
X203.98Y-28.68
X204.84Y-9.58
X207.485Y-85.7
X209.315Y-47.68
X210.11Y-66.68
X213.78Y-9.58
X214.14Y-28.68
X218.84Y-85.745
X218.98Y-66.68
X219.475Y-47.68
X221.125Y-85.75
X223.215Y-28.68
X223.94Y-9.58
X228.315Y-47.68
X229.0Y-85.745
X229.14Y-66.68
X231.285Y-85.75
X232.98Y-9.58
X233.375Y-28.68
X238.475Y-47.68
X242.48Y-28.68
X242.64Y-85.705
X243.14Y-9.58
X244.975Y-85.75
X245.085Y-66.7
X252.08Y-9.58
X252.64Y-28.68
X252.8Y-85.705
X254.505Y-66.7
X255.135Y-85.75
X255.245Y-66.7
X259.28Y-47.68
X261.615Y-9.64
X262.24Y-9.58
X264.665Y-66.7
X266.41Y-28.68
X266.44Y-85.69
X268.805Y-85.75
X269.44Y-47.68
X271.165Y-66.7
X271.18Y-9.58
X271.775Y-9.64
X276.57Y-28.68
X276.6Y-85.69
X278.965Y-85.75
X281.325Y-66.7
X281.34Y-9.58
T13
X125.955Y-85.7
X136.115Y-85.7
X137.91Y-85.72
X148.07Y-85.72
T14
X2.56Y-74.78
T15
X5.1Y-60.69
T16
X81.035Y-92.685
X85.84Y-92.705
X181.035Y-92.685
X200.14Y-92.705
T17
X9.57Y-59.68
X33.37Y-59.68
X247.685Y-59.7
X252.46Y-40.68
X254.795Y-2.64
X271.485Y-59.7
X276.26Y-40.68
X278.595Y-2.64
T18
X81.035Y-77.445
X85.84Y-77.465
X131.035Y-85.7
X142.99Y-85.72
X181.035Y-77.445
X200.14Y-77.465
T19
X9.56Y-9.58
X9.57Y-74.92
X11.93Y-85.68
X11.96Y-47.68
X14.36Y-28.68
X14.46Y-85.705
X16.72Y-47.65
X21.47Y-66.68
X28.56Y-9.58
X33.37Y-74.92
X35.76Y-85.68
X38.16Y-28.68
X38.24Y-85.7
X42.92Y-47.67
X47.56Y-9.58
X52.43Y-66.68
X57.06Y-28.68
X59.6Y-85.68
X61.99Y-47.67
X62.02Y-85.705
X66.56Y-9.58
X71.53Y-66.68
X76.06Y-28.68
X81.04Y-47.66
X85.56Y-9.58
X90.58Y-66.68
X95.06Y-28.68
X100.12Y-47.69
X104.56Y-9.58
X109.69Y-66.68
X114.06Y-28.68
X119.18Y-47.71
X123.56Y-9.58
X128.77Y-66.68
X133.06Y-28.68
X138.245Y-47.68
X142.56Y-9.58
X147.86Y-66.68
X152.06Y-28.68
X157.345Y-47.68
X161.56Y-9.58
X166.92Y-66.68
X171.06Y-28.68
X176.345Y-47.68
X180.66Y-9.58
X185.99Y-66.68
X190.06Y-28.68
X195.345Y-47.68
X199.76Y-9.58
X202.405Y-85.7
X205.03Y-66.68
X209.06Y-28.68
X214.395Y-47.68
X218.86Y-9.58
X223.92Y-85.745
X224.06Y-66.68
X226.205Y-85.75
X228.295Y-28.68
X233.395Y-47.68
X238.06Y-9.58
X247.56Y-28.68
X247.685Y-74.94
X247.72Y-85.705
X250.055Y-85.75
X250.165Y-66.7
X252.46Y-55.92
X254.795Y-17.88
X257.16Y-9.58
X259.585Y-66.7
X264.36Y-47.68
X266.695Y-9.64
X271.485Y-74.94
X271.49Y-28.68
X271.52Y-85.69
X273.885Y-85.75
X276.245Y-66.7
X276.26Y-9.58
X276.26Y-55.92
X278.595Y-17.88
T3
G00X14.075Y-1.4
M15
G01X14.075Y-2.2
M16
G05
G00X14.075Y-5.42
M15
G01X14.075Y-6.52
M16
G05
G00X22.725Y-1.4
M15
G01X22.725Y-2.2
M16
G05
G00X22.725Y-5.42
M15
G01X22.725Y-6.52
M16
G05
T7
G00X23.95Y-27.9
M15
G01X26.45Y-27.9
M16
G05
G00X127.45Y-47.8
M15
G01X129.95Y-47.8
M16
G05
G00X189.25Y-85.2
M15
G01X191.75Y-85.2
M16
G05
G00X258.8Y-27.9
M15
G01X261.3Y-27.9
M16
G05
T8
G00X-0.25Y-56.5
M15
G01X4.25Y-56.5
M16
G05
G00X281.75Y-56.5
M15
G01X286.25Y-56.5
M16
G05
T0
M30
