%TF.GenerationSoftware,KiCad,Pcbnew,7.0.1-0*%
%TF.CreationDate,2023-07-30T16:54:28+05:30*%
%TF.ProjectId,Keyboard_60%,4b657962-6f61-4726-945f-3630252e6b69,rev?*%
%TF.SameCoordinates,Original*%
%TF.FileFunction,Legend,Top*%
%TF.FilePolarity,Positive*%
%FSLAX46Y46*%
G04 Gerber Fmt 4.6, Leading zero omitted, Abs format (unit mm)*
G04 Created by KiCad (PCBNEW 7.0.1-0) date 2023-07-30 16:54:28*
%MOMM*%
%LPD*%
G01*
G04 APERTURE LIST*
%ADD10C,0.150000*%
%ADD11C,0.120000*%
%ADD12C,0.100000*%
%ADD13C,0.127000*%
G04 APERTURE END LIST*
D10*
X57279333Y-121400000D02*
X57979333Y-120933333D01*
X57279333Y-120933333D02*
X57979333Y-121400000D01*
X56212666Y-124733333D02*
X56246000Y-124766666D01*
X56246000Y-124766666D02*
X56279333Y-124866666D01*
X56279333Y-124866666D02*
X56279333Y-124933333D01*
X56279333Y-124933333D02*
X56246000Y-125033333D01*
X56246000Y-125033333D02*
X56179333Y-125100000D01*
X56179333Y-125100000D02*
X56112666Y-125133333D01*
X56112666Y-125133333D02*
X55979333Y-125166666D01*
X55979333Y-125166666D02*
X55879333Y-125166666D01*
X55879333Y-125166666D02*
X55746000Y-125133333D01*
X55746000Y-125133333D02*
X55679333Y-125100000D01*
X55679333Y-125100000D02*
X55612666Y-125033333D01*
X55612666Y-125033333D02*
X55579333Y-124933333D01*
X55579333Y-124933333D02*
X55579333Y-124866666D01*
X55579333Y-124866666D02*
X55612666Y-124766666D01*
X55612666Y-124766666D02*
X55646000Y-124733333D01*
X56279333Y-124100000D02*
X56279333Y-124433333D01*
X56279333Y-124433333D02*
X55579333Y-124433333D01*
X56279333Y-123866666D02*
X55579333Y-123866666D01*
X56279333Y-123466666D02*
X55879333Y-123766666D01*
X55579333Y-123466666D02*
X55979333Y-123866666D01*
X57879333Y-123833333D02*
X57546000Y-124066666D01*
X57879333Y-124233333D02*
X57179333Y-124233333D01*
X57179333Y-124233333D02*
X57179333Y-123966666D01*
X57179333Y-123966666D02*
X57212666Y-123900000D01*
X57212666Y-123900000D02*
X57246000Y-123866666D01*
X57246000Y-123866666D02*
X57312666Y-123833333D01*
X57312666Y-123833333D02*
X57412666Y-123833333D01*
X57412666Y-123833333D02*
X57479333Y-123866666D01*
X57479333Y-123866666D02*
X57512666Y-123900000D01*
X57512666Y-123900000D02*
X57546000Y-123966666D01*
X57546000Y-123966666D02*
X57546000Y-124233333D01*
X57846000Y-123566666D02*
X57879333Y-123466666D01*
X57879333Y-123466666D02*
X57879333Y-123300000D01*
X57879333Y-123300000D02*
X57846000Y-123233333D01*
X57846000Y-123233333D02*
X57812666Y-123200000D01*
X57812666Y-123200000D02*
X57746000Y-123166666D01*
X57746000Y-123166666D02*
X57679333Y-123166666D01*
X57679333Y-123166666D02*
X57612666Y-123200000D01*
X57612666Y-123200000D02*
X57579333Y-123233333D01*
X57579333Y-123233333D02*
X57546000Y-123300000D01*
X57546000Y-123300000D02*
X57512666Y-123433333D01*
X57512666Y-123433333D02*
X57479333Y-123500000D01*
X57479333Y-123500000D02*
X57446000Y-123533333D01*
X57446000Y-123533333D02*
X57379333Y-123566666D01*
X57379333Y-123566666D02*
X57312666Y-123566666D01*
X57312666Y-123566666D02*
X57246000Y-123533333D01*
X57246000Y-123533333D02*
X57212666Y-123500000D01*
X57212666Y-123500000D02*
X57179333Y-123433333D01*
X57179333Y-123433333D02*
X57179333Y-123266666D01*
X57179333Y-123266666D02*
X57212666Y-123166666D01*
X57179333Y-122966666D02*
X57179333Y-122566666D01*
X57879333Y-122766666D02*
X57179333Y-122766666D01*
X55479333Y-120000000D02*
X56179333Y-119533333D01*
X55479333Y-119533333D02*
X56179333Y-120000000D01*
X56146000Y-122766666D02*
X56179333Y-122666666D01*
X56179333Y-122666666D02*
X56179333Y-122500000D01*
X56179333Y-122500000D02*
X56146000Y-122433333D01*
X56146000Y-122433333D02*
X56112666Y-122400000D01*
X56112666Y-122400000D02*
X56046000Y-122366666D01*
X56046000Y-122366666D02*
X55979333Y-122366666D01*
X55979333Y-122366666D02*
X55912666Y-122400000D01*
X55912666Y-122400000D02*
X55879333Y-122433333D01*
X55879333Y-122433333D02*
X55846000Y-122500000D01*
X55846000Y-122500000D02*
X55812666Y-122633333D01*
X55812666Y-122633333D02*
X55779333Y-122700000D01*
X55779333Y-122700000D02*
X55746000Y-122733333D01*
X55746000Y-122733333D02*
X55679333Y-122766666D01*
X55679333Y-122766666D02*
X55612666Y-122766666D01*
X55612666Y-122766666D02*
X55546000Y-122733333D01*
X55546000Y-122733333D02*
X55512666Y-122700000D01*
X55512666Y-122700000D02*
X55479333Y-122633333D01*
X55479333Y-122633333D02*
X55479333Y-122466666D01*
X55479333Y-122466666D02*
X55512666Y-122366666D01*
X55479333Y-122133333D02*
X56179333Y-121966666D01*
X56179333Y-121966666D02*
X55679333Y-121833333D01*
X55679333Y-121833333D02*
X56179333Y-121699999D01*
X56179333Y-121699999D02*
X55479333Y-121533333D01*
X55479333Y-121133333D02*
X55479333Y-120999999D01*
X55479333Y-120999999D02*
X55512666Y-120933333D01*
X55512666Y-120933333D02*
X55579333Y-120866666D01*
X55579333Y-120866666D02*
X55712666Y-120833333D01*
X55712666Y-120833333D02*
X55946000Y-120833333D01*
X55946000Y-120833333D02*
X56079333Y-120866666D01*
X56079333Y-120866666D02*
X56146000Y-120933333D01*
X56146000Y-120933333D02*
X56179333Y-120999999D01*
X56179333Y-120999999D02*
X56179333Y-121133333D01*
X56179333Y-121133333D02*
X56146000Y-121199999D01*
X56146000Y-121199999D02*
X56079333Y-121266666D01*
X56079333Y-121266666D02*
X55946000Y-121299999D01*
X55946000Y-121299999D02*
X55712666Y-121299999D01*
X55712666Y-121299999D02*
X55579333Y-121266666D01*
X55579333Y-121266666D02*
X55512666Y-121199999D01*
X55512666Y-121199999D02*
X55479333Y-121133333D01*
X189378095Y-132337619D02*
X189378095Y-131337619D01*
X189378095Y-131337619D02*
X189711428Y-132051904D01*
X189711428Y-132051904D02*
X190044761Y-131337619D01*
X190044761Y-131337619D02*
X190044761Y-132337619D01*
X190425714Y-131337619D02*
X191092380Y-132337619D01*
X191092380Y-131337619D02*
X190425714Y-132337619D01*
X191378095Y-131337619D02*
X192044761Y-131337619D01*
X192044761Y-131337619D02*
X191616190Y-132337619D01*
X192616190Y-131337619D02*
X192711428Y-131337619D01*
X192711428Y-131337619D02*
X192806666Y-131385238D01*
X192806666Y-131385238D02*
X192854285Y-131432857D01*
X192854285Y-131432857D02*
X192901904Y-131528095D01*
X192901904Y-131528095D02*
X192949523Y-131718571D01*
X192949523Y-131718571D02*
X192949523Y-131956666D01*
X192949523Y-131956666D02*
X192901904Y-132147142D01*
X192901904Y-132147142D02*
X192854285Y-132242380D01*
X192854285Y-132242380D02*
X192806666Y-132290000D01*
X192806666Y-132290000D02*
X192711428Y-132337619D01*
X192711428Y-132337619D02*
X192616190Y-132337619D01*
X192616190Y-132337619D02*
X192520952Y-132290000D01*
X192520952Y-132290000D02*
X192473333Y-132242380D01*
X192473333Y-132242380D02*
X192425714Y-132147142D01*
X192425714Y-132147142D02*
X192378095Y-131956666D01*
X192378095Y-131956666D02*
X192378095Y-131718571D01*
X192378095Y-131718571D02*
X192425714Y-131528095D01*
X192425714Y-131528095D02*
X192473333Y-131432857D01*
X192473333Y-131432857D02*
X192520952Y-131385238D01*
X192520952Y-131385238D02*
X192616190Y-131337619D01*
X57879333Y-126233333D02*
X57179333Y-126233333D01*
X57179333Y-125766667D02*
X57179333Y-125633333D01*
X57179333Y-125633333D02*
X57212666Y-125566667D01*
X57212666Y-125566667D02*
X57279333Y-125500000D01*
X57279333Y-125500000D02*
X57412666Y-125466667D01*
X57412666Y-125466667D02*
X57646000Y-125466667D01*
X57646000Y-125466667D02*
X57779333Y-125500000D01*
X57779333Y-125500000D02*
X57846000Y-125566667D01*
X57846000Y-125566667D02*
X57879333Y-125633333D01*
X57879333Y-125633333D02*
X57879333Y-125766667D01*
X57879333Y-125766667D02*
X57846000Y-125833333D01*
X57846000Y-125833333D02*
X57779333Y-125900000D01*
X57779333Y-125900000D02*
X57646000Y-125933333D01*
X57646000Y-125933333D02*
X57412666Y-125933333D01*
X57412666Y-125933333D02*
X57279333Y-125900000D01*
X57279333Y-125900000D02*
X57212666Y-125833333D01*
X57212666Y-125833333D02*
X57179333Y-125766667D01*
X55412666Y-116066666D02*
X55379333Y-116133333D01*
X55379333Y-116133333D02*
X55379333Y-116233333D01*
X55379333Y-116233333D02*
X55412666Y-116333333D01*
X55412666Y-116333333D02*
X55479333Y-116400000D01*
X55479333Y-116400000D02*
X55546000Y-116433333D01*
X55546000Y-116433333D02*
X55679333Y-116466666D01*
X55679333Y-116466666D02*
X55779333Y-116466666D01*
X55779333Y-116466666D02*
X55912666Y-116433333D01*
X55912666Y-116433333D02*
X55979333Y-116400000D01*
X55979333Y-116400000D02*
X56046000Y-116333333D01*
X56046000Y-116333333D02*
X56079333Y-116233333D01*
X56079333Y-116233333D02*
X56079333Y-116166666D01*
X56079333Y-116166666D02*
X56046000Y-116066666D01*
X56046000Y-116066666D02*
X56012666Y-116033333D01*
X56012666Y-116033333D02*
X55779333Y-116033333D01*
X55779333Y-116033333D02*
X55779333Y-116166666D01*
X56079333Y-115733333D02*
X55379333Y-115733333D01*
X55379333Y-115733333D02*
X56079333Y-115333333D01*
X56079333Y-115333333D02*
X55379333Y-115333333D01*
X56079333Y-115000000D02*
X55379333Y-115000000D01*
X55379333Y-115000000D02*
X55379333Y-114833333D01*
X55379333Y-114833333D02*
X55412666Y-114733333D01*
X55412666Y-114733333D02*
X55479333Y-114666667D01*
X55479333Y-114666667D02*
X55546000Y-114633333D01*
X55546000Y-114633333D02*
X55679333Y-114600000D01*
X55679333Y-114600000D02*
X55779333Y-114600000D01*
X55779333Y-114600000D02*
X55912666Y-114633333D01*
X55912666Y-114633333D02*
X55979333Y-114666667D01*
X55979333Y-114666667D02*
X56046000Y-114733333D01*
X56046000Y-114733333D02*
X56079333Y-114833333D01*
X56079333Y-114833333D02*
X56079333Y-115000000D01*
X57079333Y-119100000D02*
X57779333Y-118633333D01*
X57079333Y-118633333D02*
X57779333Y-119100000D01*
X56979333Y-117500000D02*
X56979333Y-117066666D01*
X56979333Y-117066666D02*
X57246000Y-117300000D01*
X57246000Y-117300000D02*
X57246000Y-117200000D01*
X57246000Y-117200000D02*
X57279333Y-117133333D01*
X57279333Y-117133333D02*
X57312666Y-117100000D01*
X57312666Y-117100000D02*
X57379333Y-117066666D01*
X57379333Y-117066666D02*
X57546000Y-117066666D01*
X57546000Y-117066666D02*
X57612666Y-117100000D01*
X57612666Y-117100000D02*
X57646000Y-117133333D01*
X57646000Y-117133333D02*
X57679333Y-117200000D01*
X57679333Y-117200000D02*
X57679333Y-117400000D01*
X57679333Y-117400000D02*
X57646000Y-117466666D01*
X57646000Y-117466666D02*
X57612666Y-117500000D01*
X56979333Y-116866666D02*
X57679333Y-116633333D01*
X57679333Y-116633333D02*
X56979333Y-116399999D01*
X56979333Y-116233333D02*
X56979333Y-115799999D01*
X56979333Y-115799999D02*
X57246000Y-116033333D01*
X57246000Y-116033333D02*
X57246000Y-115933333D01*
X57246000Y-115933333D02*
X57279333Y-115866666D01*
X57279333Y-115866666D02*
X57312666Y-115833333D01*
X57312666Y-115833333D02*
X57379333Y-115799999D01*
X57379333Y-115799999D02*
X57546000Y-115799999D01*
X57546000Y-115799999D02*
X57612666Y-115833333D01*
X57612666Y-115833333D02*
X57646000Y-115866666D01*
X57646000Y-115866666D02*
X57679333Y-115933333D01*
X57679333Y-115933333D02*
X57679333Y-116133333D01*
X57679333Y-116133333D02*
X57646000Y-116199999D01*
X57646000Y-116199999D02*
X57612666Y-116233333D01*
X177303095Y-91077619D02*
X177303095Y-90077619D01*
X177303095Y-90077619D02*
X177684047Y-90077619D01*
X177684047Y-90077619D02*
X177779285Y-90125238D01*
X177779285Y-90125238D02*
X177826904Y-90172857D01*
X177826904Y-90172857D02*
X177874523Y-90268095D01*
X177874523Y-90268095D02*
X177874523Y-90410952D01*
X177874523Y-90410952D02*
X177826904Y-90506190D01*
X177826904Y-90506190D02*
X177779285Y-90553809D01*
X177779285Y-90553809D02*
X177684047Y-90601428D01*
X177684047Y-90601428D02*
X177303095Y-90601428D01*
X178445952Y-91077619D02*
X178350714Y-91030000D01*
X178350714Y-91030000D02*
X178303095Y-90982380D01*
X178303095Y-90982380D02*
X178255476Y-90887142D01*
X178255476Y-90887142D02*
X178255476Y-90601428D01*
X178255476Y-90601428D02*
X178303095Y-90506190D01*
X178303095Y-90506190D02*
X178350714Y-90458571D01*
X178350714Y-90458571D02*
X178445952Y-90410952D01*
X178445952Y-90410952D02*
X178588809Y-90410952D01*
X178588809Y-90410952D02*
X178684047Y-90458571D01*
X178684047Y-90458571D02*
X178731666Y-90506190D01*
X178731666Y-90506190D02*
X178779285Y-90601428D01*
X178779285Y-90601428D02*
X178779285Y-90887142D01*
X178779285Y-90887142D02*
X178731666Y-90982380D01*
X178731666Y-90982380D02*
X178684047Y-91030000D01*
X178684047Y-91030000D02*
X178588809Y-91077619D01*
X178588809Y-91077619D02*
X178445952Y-91077619D01*
X179112619Y-90410952D02*
X179303095Y-91077619D01*
X179303095Y-91077619D02*
X179493571Y-90601428D01*
X179493571Y-90601428D02*
X179684047Y-91077619D01*
X179684047Y-91077619D02*
X179874523Y-90410952D01*
X180636428Y-91030000D02*
X180541190Y-91077619D01*
X180541190Y-91077619D02*
X180350714Y-91077619D01*
X180350714Y-91077619D02*
X180255476Y-91030000D01*
X180255476Y-91030000D02*
X180207857Y-90934761D01*
X180207857Y-90934761D02*
X180207857Y-90553809D01*
X180207857Y-90553809D02*
X180255476Y-90458571D01*
X180255476Y-90458571D02*
X180350714Y-90410952D01*
X180350714Y-90410952D02*
X180541190Y-90410952D01*
X180541190Y-90410952D02*
X180636428Y-90458571D01*
X180636428Y-90458571D02*
X180684047Y-90553809D01*
X180684047Y-90553809D02*
X180684047Y-90649047D01*
X180684047Y-90649047D02*
X180207857Y-90744285D01*
X181112619Y-91077619D02*
X181112619Y-90410952D01*
X181112619Y-90601428D02*
X181160238Y-90506190D01*
X181160238Y-90506190D02*
X181207857Y-90458571D01*
X181207857Y-90458571D02*
X181303095Y-90410952D01*
X181303095Y-90410952D02*
X181398333Y-90410952D01*
X182112619Y-91030000D02*
X182017381Y-91077619D01*
X182017381Y-91077619D02*
X181826905Y-91077619D01*
X181826905Y-91077619D02*
X181731667Y-91030000D01*
X181731667Y-91030000D02*
X181684048Y-90934761D01*
X181684048Y-90934761D02*
X181684048Y-90553809D01*
X181684048Y-90553809D02*
X181731667Y-90458571D01*
X181731667Y-90458571D02*
X181826905Y-90410952D01*
X181826905Y-90410952D02*
X182017381Y-90410952D01*
X182017381Y-90410952D02*
X182112619Y-90458571D01*
X182112619Y-90458571D02*
X182160238Y-90553809D01*
X182160238Y-90553809D02*
X182160238Y-90649047D01*
X182160238Y-90649047D02*
X181684048Y-90744285D01*
X183017381Y-91077619D02*
X183017381Y-90077619D01*
X183017381Y-91030000D02*
X182922143Y-91077619D01*
X182922143Y-91077619D02*
X182731667Y-91077619D01*
X182731667Y-91077619D02*
X182636429Y-91030000D01*
X182636429Y-91030000D02*
X182588810Y-90982380D01*
X182588810Y-90982380D02*
X182541191Y-90887142D01*
X182541191Y-90887142D02*
X182541191Y-90601428D01*
X182541191Y-90601428D02*
X182588810Y-90506190D01*
X182588810Y-90506190D02*
X182636429Y-90458571D01*
X182636429Y-90458571D02*
X182731667Y-90410952D01*
X182731667Y-90410952D02*
X182922143Y-90410952D01*
X182922143Y-90410952D02*
X183017381Y-90458571D01*
X184255477Y-91077619D02*
X184255477Y-90077619D01*
X184255477Y-90458571D02*
X184350715Y-90410952D01*
X184350715Y-90410952D02*
X184541191Y-90410952D01*
X184541191Y-90410952D02*
X184636429Y-90458571D01*
X184636429Y-90458571D02*
X184684048Y-90506190D01*
X184684048Y-90506190D02*
X184731667Y-90601428D01*
X184731667Y-90601428D02*
X184731667Y-90887142D01*
X184731667Y-90887142D02*
X184684048Y-90982380D01*
X184684048Y-90982380D02*
X184636429Y-91030000D01*
X184636429Y-91030000D02*
X184541191Y-91077619D01*
X184541191Y-91077619D02*
X184350715Y-91077619D01*
X184350715Y-91077619D02*
X184255477Y-91030000D01*
X185065001Y-90410952D02*
X185303096Y-91077619D01*
X185541191Y-90410952D02*
X185303096Y-91077619D01*
X185303096Y-91077619D02*
X185207858Y-91315714D01*
X185207858Y-91315714D02*
X185160239Y-91363333D01*
X185160239Y-91363333D02*
X185065001Y-91410952D01*
X55479333Y-118000000D02*
X56179333Y-117533333D01*
X55479333Y-117533333D02*
X56179333Y-118000000D01*
%TO.C,MX17*%
X60763095Y-75468619D02*
X60763095Y-74468619D01*
X60763095Y-74468619D02*
X61096428Y-75182904D01*
X61096428Y-75182904D02*
X61429761Y-74468619D01*
X61429761Y-74468619D02*
X61429761Y-75468619D01*
X61810714Y-74468619D02*
X62477380Y-75468619D01*
X62477380Y-74468619D02*
X61810714Y-75468619D01*
X63382142Y-75468619D02*
X62810714Y-75468619D01*
X63096428Y-75468619D02*
X63096428Y-74468619D01*
X63096428Y-74468619D02*
X63001190Y-74611476D01*
X63001190Y-74611476D02*
X62905952Y-74706714D01*
X62905952Y-74706714D02*
X62810714Y-74754333D01*
X63715476Y-74468619D02*
X64382142Y-74468619D01*
X64382142Y-74468619D02*
X63953571Y-75468619D01*
%TO.C,MX68*%
X84643095Y-132488619D02*
X84643095Y-131488619D01*
X84643095Y-131488619D02*
X84976428Y-132202904D01*
X84976428Y-132202904D02*
X85309761Y-131488619D01*
X85309761Y-131488619D02*
X85309761Y-132488619D01*
X85690714Y-131488619D02*
X86357380Y-132488619D01*
X86357380Y-131488619D02*
X85690714Y-132488619D01*
X87166904Y-131488619D02*
X86976428Y-131488619D01*
X86976428Y-131488619D02*
X86881190Y-131536238D01*
X86881190Y-131536238D02*
X86833571Y-131583857D01*
X86833571Y-131583857D02*
X86738333Y-131726714D01*
X86738333Y-131726714D02*
X86690714Y-131917190D01*
X86690714Y-131917190D02*
X86690714Y-132298142D01*
X86690714Y-132298142D02*
X86738333Y-132393380D01*
X86738333Y-132393380D02*
X86785952Y-132441000D01*
X86785952Y-132441000D02*
X86881190Y-132488619D01*
X86881190Y-132488619D02*
X87071666Y-132488619D01*
X87071666Y-132488619D02*
X87166904Y-132441000D01*
X87166904Y-132441000D02*
X87214523Y-132393380D01*
X87214523Y-132393380D02*
X87262142Y-132298142D01*
X87262142Y-132298142D02*
X87262142Y-132060047D01*
X87262142Y-132060047D02*
X87214523Y-131964809D01*
X87214523Y-131964809D02*
X87166904Y-131917190D01*
X87166904Y-131917190D02*
X87071666Y-131869571D01*
X87071666Y-131869571D02*
X86881190Y-131869571D01*
X86881190Y-131869571D02*
X86785952Y-131917190D01*
X86785952Y-131917190D02*
X86738333Y-131964809D01*
X86738333Y-131964809D02*
X86690714Y-132060047D01*
X87833571Y-131917190D02*
X87738333Y-131869571D01*
X87738333Y-131869571D02*
X87690714Y-131821952D01*
X87690714Y-131821952D02*
X87643095Y-131726714D01*
X87643095Y-131726714D02*
X87643095Y-131679095D01*
X87643095Y-131679095D02*
X87690714Y-131583857D01*
X87690714Y-131583857D02*
X87738333Y-131536238D01*
X87738333Y-131536238D02*
X87833571Y-131488619D01*
X87833571Y-131488619D02*
X88024047Y-131488619D01*
X88024047Y-131488619D02*
X88119285Y-131536238D01*
X88119285Y-131536238D02*
X88166904Y-131583857D01*
X88166904Y-131583857D02*
X88214523Y-131679095D01*
X88214523Y-131679095D02*
X88214523Y-131726714D01*
X88214523Y-131726714D02*
X88166904Y-131821952D01*
X88166904Y-131821952D02*
X88119285Y-131869571D01*
X88119285Y-131869571D02*
X88024047Y-131917190D01*
X88024047Y-131917190D02*
X87833571Y-131917190D01*
X87833571Y-131917190D02*
X87738333Y-131964809D01*
X87738333Y-131964809D02*
X87690714Y-132012428D01*
X87690714Y-132012428D02*
X87643095Y-132107666D01*
X87643095Y-132107666D02*
X87643095Y-132298142D01*
X87643095Y-132298142D02*
X87690714Y-132393380D01*
X87690714Y-132393380D02*
X87738333Y-132441000D01*
X87738333Y-132441000D02*
X87833571Y-132488619D01*
X87833571Y-132488619D02*
X88024047Y-132488619D01*
X88024047Y-132488619D02*
X88119285Y-132441000D01*
X88119285Y-132441000D02*
X88166904Y-132393380D01*
X88166904Y-132393380D02*
X88214523Y-132298142D01*
X88214523Y-132298142D02*
X88214523Y-132107666D01*
X88214523Y-132107666D02*
X88166904Y-132012428D01*
X88166904Y-132012428D02*
X88119285Y-131964809D01*
X88119285Y-131964809D02*
X88024047Y-131917190D01*
%TO.C,MX3*%
X94439286Y-56368619D02*
X94439286Y-55368619D01*
X94439286Y-55368619D02*
X94772619Y-56082904D01*
X94772619Y-56082904D02*
X95105952Y-55368619D01*
X95105952Y-55368619D02*
X95105952Y-56368619D01*
X95486905Y-55368619D02*
X96153571Y-56368619D01*
X96153571Y-55368619D02*
X95486905Y-56368619D01*
X96439286Y-55368619D02*
X97058333Y-55368619D01*
X97058333Y-55368619D02*
X96725000Y-55749571D01*
X96725000Y-55749571D02*
X96867857Y-55749571D01*
X96867857Y-55749571D02*
X96963095Y-55797190D01*
X96963095Y-55797190D02*
X97010714Y-55844809D01*
X97010714Y-55844809D02*
X97058333Y-55940047D01*
X97058333Y-55940047D02*
X97058333Y-56178142D01*
X97058333Y-56178142D02*
X97010714Y-56273380D01*
X97010714Y-56273380D02*
X96963095Y-56321000D01*
X96963095Y-56321000D02*
X96867857Y-56368619D01*
X96867857Y-56368619D02*
X96582143Y-56368619D01*
X96582143Y-56368619D02*
X96486905Y-56321000D01*
X96486905Y-56321000D02*
X96439286Y-56273380D01*
%TO.C,MX34*%
X108463095Y-94468619D02*
X108463095Y-93468619D01*
X108463095Y-93468619D02*
X108796428Y-94182904D01*
X108796428Y-94182904D02*
X109129761Y-93468619D01*
X109129761Y-93468619D02*
X109129761Y-94468619D01*
X109510714Y-93468619D02*
X110177380Y-94468619D01*
X110177380Y-93468619D02*
X109510714Y-94468619D01*
X110463095Y-93468619D02*
X111082142Y-93468619D01*
X111082142Y-93468619D02*
X110748809Y-93849571D01*
X110748809Y-93849571D02*
X110891666Y-93849571D01*
X110891666Y-93849571D02*
X110986904Y-93897190D01*
X110986904Y-93897190D02*
X111034523Y-93944809D01*
X111034523Y-93944809D02*
X111082142Y-94040047D01*
X111082142Y-94040047D02*
X111082142Y-94278142D01*
X111082142Y-94278142D02*
X111034523Y-94373380D01*
X111034523Y-94373380D02*
X110986904Y-94421000D01*
X110986904Y-94421000D02*
X110891666Y-94468619D01*
X110891666Y-94468619D02*
X110605952Y-94468619D01*
X110605952Y-94468619D02*
X110510714Y-94421000D01*
X110510714Y-94421000D02*
X110463095Y-94373380D01*
X111939285Y-93801952D02*
X111939285Y-94468619D01*
X111701190Y-93421000D02*
X111463095Y-94135285D01*
X111463095Y-94135285D02*
X112082142Y-94135285D01*
%TO.C,MX61*%
X104303095Y-132462619D02*
X104303095Y-131462619D01*
X104303095Y-131462619D02*
X104636428Y-132176904D01*
X104636428Y-132176904D02*
X104969761Y-131462619D01*
X104969761Y-131462619D02*
X104969761Y-132462619D01*
X105350714Y-131462619D02*
X106017380Y-132462619D01*
X106017380Y-131462619D02*
X105350714Y-132462619D01*
X106826904Y-131462619D02*
X106636428Y-131462619D01*
X106636428Y-131462619D02*
X106541190Y-131510238D01*
X106541190Y-131510238D02*
X106493571Y-131557857D01*
X106493571Y-131557857D02*
X106398333Y-131700714D01*
X106398333Y-131700714D02*
X106350714Y-131891190D01*
X106350714Y-131891190D02*
X106350714Y-132272142D01*
X106350714Y-132272142D02*
X106398333Y-132367380D01*
X106398333Y-132367380D02*
X106445952Y-132415000D01*
X106445952Y-132415000D02*
X106541190Y-132462619D01*
X106541190Y-132462619D02*
X106731666Y-132462619D01*
X106731666Y-132462619D02*
X106826904Y-132415000D01*
X106826904Y-132415000D02*
X106874523Y-132367380D01*
X106874523Y-132367380D02*
X106922142Y-132272142D01*
X106922142Y-132272142D02*
X106922142Y-132034047D01*
X106922142Y-132034047D02*
X106874523Y-131938809D01*
X106874523Y-131938809D02*
X106826904Y-131891190D01*
X106826904Y-131891190D02*
X106731666Y-131843571D01*
X106731666Y-131843571D02*
X106541190Y-131843571D01*
X106541190Y-131843571D02*
X106445952Y-131891190D01*
X106445952Y-131891190D02*
X106398333Y-131938809D01*
X106398333Y-131938809D02*
X106350714Y-132034047D01*
X107874523Y-132462619D02*
X107303095Y-132462619D01*
X107588809Y-132462619D02*
X107588809Y-131462619D01*
X107588809Y-131462619D02*
X107493571Y-131605476D01*
X107493571Y-131605476D02*
X107398333Y-131700714D01*
X107398333Y-131700714D02*
X107303095Y-131748333D01*
%TO.C,MX59*%
X58333095Y-132468619D02*
X58333095Y-131468619D01*
X58333095Y-131468619D02*
X58666428Y-132182904D01*
X58666428Y-132182904D02*
X58999761Y-131468619D01*
X58999761Y-131468619D02*
X58999761Y-132468619D01*
X59380714Y-131468619D02*
X60047380Y-132468619D01*
X60047380Y-131468619D02*
X59380714Y-132468619D01*
X60904523Y-131468619D02*
X60428333Y-131468619D01*
X60428333Y-131468619D02*
X60380714Y-131944809D01*
X60380714Y-131944809D02*
X60428333Y-131897190D01*
X60428333Y-131897190D02*
X60523571Y-131849571D01*
X60523571Y-131849571D02*
X60761666Y-131849571D01*
X60761666Y-131849571D02*
X60856904Y-131897190D01*
X60856904Y-131897190D02*
X60904523Y-131944809D01*
X60904523Y-131944809D02*
X60952142Y-132040047D01*
X60952142Y-132040047D02*
X60952142Y-132278142D01*
X60952142Y-132278142D02*
X60904523Y-132373380D01*
X60904523Y-132373380D02*
X60856904Y-132421000D01*
X60856904Y-132421000D02*
X60761666Y-132468619D01*
X60761666Y-132468619D02*
X60523571Y-132468619D01*
X60523571Y-132468619D02*
X60428333Y-132421000D01*
X60428333Y-132421000D02*
X60380714Y-132373380D01*
X61428333Y-132468619D02*
X61618809Y-132468619D01*
X61618809Y-132468619D02*
X61714047Y-132421000D01*
X61714047Y-132421000D02*
X61761666Y-132373380D01*
X61761666Y-132373380D02*
X61856904Y-132230523D01*
X61856904Y-132230523D02*
X61904523Y-132040047D01*
X61904523Y-132040047D02*
X61904523Y-131659095D01*
X61904523Y-131659095D02*
X61856904Y-131563857D01*
X61856904Y-131563857D02*
X61809285Y-131516238D01*
X61809285Y-131516238D02*
X61714047Y-131468619D01*
X61714047Y-131468619D02*
X61523571Y-131468619D01*
X61523571Y-131468619D02*
X61428333Y-131516238D01*
X61428333Y-131516238D02*
X61380714Y-131563857D01*
X61380714Y-131563857D02*
X61333095Y-131659095D01*
X61333095Y-131659095D02*
X61333095Y-131897190D01*
X61333095Y-131897190D02*
X61380714Y-131992428D01*
X61380714Y-131992428D02*
X61428333Y-132040047D01*
X61428333Y-132040047D02*
X61523571Y-132087666D01*
X61523571Y-132087666D02*
X61714047Y-132087666D01*
X61714047Y-132087666D02*
X61809285Y-132040047D01*
X61809285Y-132040047D02*
X61856904Y-131992428D01*
X61856904Y-131992428D02*
X61904523Y-131897190D01*
%TO.C,MX56*%
X298503095Y-113662619D02*
X298503095Y-112662619D01*
X298503095Y-112662619D02*
X298836428Y-113376904D01*
X298836428Y-113376904D02*
X299169761Y-112662619D01*
X299169761Y-112662619D02*
X299169761Y-113662619D01*
X299550714Y-112662619D02*
X300217380Y-113662619D01*
X300217380Y-112662619D02*
X299550714Y-113662619D01*
X301074523Y-112662619D02*
X300598333Y-112662619D01*
X300598333Y-112662619D02*
X300550714Y-113138809D01*
X300550714Y-113138809D02*
X300598333Y-113091190D01*
X300598333Y-113091190D02*
X300693571Y-113043571D01*
X300693571Y-113043571D02*
X300931666Y-113043571D01*
X300931666Y-113043571D02*
X301026904Y-113091190D01*
X301026904Y-113091190D02*
X301074523Y-113138809D01*
X301074523Y-113138809D02*
X301122142Y-113234047D01*
X301122142Y-113234047D02*
X301122142Y-113472142D01*
X301122142Y-113472142D02*
X301074523Y-113567380D01*
X301074523Y-113567380D02*
X301026904Y-113615000D01*
X301026904Y-113615000D02*
X300931666Y-113662619D01*
X300931666Y-113662619D02*
X300693571Y-113662619D01*
X300693571Y-113662619D02*
X300598333Y-113615000D01*
X300598333Y-113615000D02*
X300550714Y-113567380D01*
X301979285Y-112662619D02*
X301788809Y-112662619D01*
X301788809Y-112662619D02*
X301693571Y-112710238D01*
X301693571Y-112710238D02*
X301645952Y-112757857D01*
X301645952Y-112757857D02*
X301550714Y-112900714D01*
X301550714Y-112900714D02*
X301503095Y-113091190D01*
X301503095Y-113091190D02*
X301503095Y-113472142D01*
X301503095Y-113472142D02*
X301550714Y-113567380D01*
X301550714Y-113567380D02*
X301598333Y-113615000D01*
X301598333Y-113615000D02*
X301693571Y-113662619D01*
X301693571Y-113662619D02*
X301884047Y-113662619D01*
X301884047Y-113662619D02*
X301979285Y-113615000D01*
X301979285Y-113615000D02*
X302026904Y-113567380D01*
X302026904Y-113567380D02*
X302074523Y-113472142D01*
X302074523Y-113472142D02*
X302074523Y-113234047D01*
X302074523Y-113234047D02*
X302026904Y-113138809D01*
X302026904Y-113138809D02*
X301979285Y-113091190D01*
X301979285Y-113091190D02*
X301884047Y-113043571D01*
X301884047Y-113043571D02*
X301693571Y-113043571D01*
X301693571Y-113043571D02*
X301598333Y-113091190D01*
X301598333Y-113091190D02*
X301550714Y-113138809D01*
X301550714Y-113138809D02*
X301503095Y-113234047D01*
%TO.C,MX18*%
X84563095Y-75468619D02*
X84563095Y-74468619D01*
X84563095Y-74468619D02*
X84896428Y-75182904D01*
X84896428Y-75182904D02*
X85229761Y-74468619D01*
X85229761Y-74468619D02*
X85229761Y-75468619D01*
X85610714Y-74468619D02*
X86277380Y-75468619D01*
X86277380Y-74468619D02*
X85610714Y-75468619D01*
X87182142Y-75468619D02*
X86610714Y-75468619D01*
X86896428Y-75468619D02*
X86896428Y-74468619D01*
X86896428Y-74468619D02*
X86801190Y-74611476D01*
X86801190Y-74611476D02*
X86705952Y-74706714D01*
X86705952Y-74706714D02*
X86610714Y-74754333D01*
X87753571Y-74897190D02*
X87658333Y-74849571D01*
X87658333Y-74849571D02*
X87610714Y-74801952D01*
X87610714Y-74801952D02*
X87563095Y-74706714D01*
X87563095Y-74706714D02*
X87563095Y-74659095D01*
X87563095Y-74659095D02*
X87610714Y-74563857D01*
X87610714Y-74563857D02*
X87658333Y-74516238D01*
X87658333Y-74516238D02*
X87753571Y-74468619D01*
X87753571Y-74468619D02*
X87944047Y-74468619D01*
X87944047Y-74468619D02*
X88039285Y-74516238D01*
X88039285Y-74516238D02*
X88086904Y-74563857D01*
X88086904Y-74563857D02*
X88134523Y-74659095D01*
X88134523Y-74659095D02*
X88134523Y-74706714D01*
X88134523Y-74706714D02*
X88086904Y-74801952D01*
X88086904Y-74801952D02*
X88039285Y-74849571D01*
X88039285Y-74849571D02*
X87944047Y-74897190D01*
X87944047Y-74897190D02*
X87753571Y-74897190D01*
X87753571Y-74897190D02*
X87658333Y-74944809D01*
X87658333Y-74944809D02*
X87610714Y-74992428D01*
X87610714Y-74992428D02*
X87563095Y-75087666D01*
X87563095Y-75087666D02*
X87563095Y-75278142D01*
X87563095Y-75278142D02*
X87610714Y-75373380D01*
X87610714Y-75373380D02*
X87658333Y-75421000D01*
X87658333Y-75421000D02*
X87753571Y-75468619D01*
X87753571Y-75468619D02*
X87944047Y-75468619D01*
X87944047Y-75468619D02*
X88039285Y-75421000D01*
X88039285Y-75421000D02*
X88086904Y-75373380D01*
X88086904Y-75373380D02*
X88134523Y-75278142D01*
X88134523Y-75278142D02*
X88134523Y-75087666D01*
X88134523Y-75087666D02*
X88086904Y-74992428D01*
X88086904Y-74992428D02*
X88039285Y-74944809D01*
X88039285Y-74944809D02*
X87944047Y-74897190D01*
%TO.C,MX5*%
X132439286Y-56368619D02*
X132439286Y-55368619D01*
X132439286Y-55368619D02*
X132772619Y-56082904D01*
X132772619Y-56082904D02*
X133105952Y-55368619D01*
X133105952Y-55368619D02*
X133105952Y-56368619D01*
X133486905Y-55368619D02*
X134153571Y-56368619D01*
X134153571Y-55368619D02*
X133486905Y-56368619D01*
X135010714Y-55368619D02*
X134534524Y-55368619D01*
X134534524Y-55368619D02*
X134486905Y-55844809D01*
X134486905Y-55844809D02*
X134534524Y-55797190D01*
X134534524Y-55797190D02*
X134629762Y-55749571D01*
X134629762Y-55749571D02*
X134867857Y-55749571D01*
X134867857Y-55749571D02*
X134963095Y-55797190D01*
X134963095Y-55797190D02*
X135010714Y-55844809D01*
X135010714Y-55844809D02*
X135058333Y-55940047D01*
X135058333Y-55940047D02*
X135058333Y-56178142D01*
X135058333Y-56178142D02*
X135010714Y-56273380D01*
X135010714Y-56273380D02*
X134963095Y-56321000D01*
X134963095Y-56321000D02*
X134867857Y-56368619D01*
X134867857Y-56368619D02*
X134629762Y-56368619D01*
X134629762Y-56368619D02*
X134534524Y-56321000D01*
X134534524Y-56321000D02*
X134486905Y-56273380D01*
%TO.C,MX26*%
X236463095Y-75468619D02*
X236463095Y-74468619D01*
X236463095Y-74468619D02*
X236796428Y-75182904D01*
X236796428Y-75182904D02*
X237129761Y-74468619D01*
X237129761Y-74468619D02*
X237129761Y-75468619D01*
X237510714Y-74468619D02*
X238177380Y-75468619D01*
X238177380Y-74468619D02*
X237510714Y-75468619D01*
X238510714Y-74563857D02*
X238558333Y-74516238D01*
X238558333Y-74516238D02*
X238653571Y-74468619D01*
X238653571Y-74468619D02*
X238891666Y-74468619D01*
X238891666Y-74468619D02*
X238986904Y-74516238D01*
X238986904Y-74516238D02*
X239034523Y-74563857D01*
X239034523Y-74563857D02*
X239082142Y-74659095D01*
X239082142Y-74659095D02*
X239082142Y-74754333D01*
X239082142Y-74754333D02*
X239034523Y-74897190D01*
X239034523Y-74897190D02*
X238463095Y-75468619D01*
X238463095Y-75468619D02*
X239082142Y-75468619D01*
X239939285Y-74468619D02*
X239748809Y-74468619D01*
X239748809Y-74468619D02*
X239653571Y-74516238D01*
X239653571Y-74516238D02*
X239605952Y-74563857D01*
X239605952Y-74563857D02*
X239510714Y-74706714D01*
X239510714Y-74706714D02*
X239463095Y-74897190D01*
X239463095Y-74897190D02*
X239463095Y-75278142D01*
X239463095Y-75278142D02*
X239510714Y-75373380D01*
X239510714Y-75373380D02*
X239558333Y-75421000D01*
X239558333Y-75421000D02*
X239653571Y-75468619D01*
X239653571Y-75468619D02*
X239844047Y-75468619D01*
X239844047Y-75468619D02*
X239939285Y-75421000D01*
X239939285Y-75421000D02*
X239986904Y-75373380D01*
X239986904Y-75373380D02*
X240034523Y-75278142D01*
X240034523Y-75278142D02*
X240034523Y-75040047D01*
X240034523Y-75040047D02*
X239986904Y-74944809D01*
X239986904Y-74944809D02*
X239939285Y-74897190D01*
X239939285Y-74897190D02*
X239844047Y-74849571D01*
X239844047Y-74849571D02*
X239653571Y-74849571D01*
X239653571Y-74849571D02*
X239558333Y-74897190D01*
X239558333Y-74897190D02*
X239510714Y-74944809D01*
X239510714Y-74944809D02*
X239463095Y-75040047D01*
%TO.C,MX19*%
X103463095Y-75468619D02*
X103463095Y-74468619D01*
X103463095Y-74468619D02*
X103796428Y-75182904D01*
X103796428Y-75182904D02*
X104129761Y-74468619D01*
X104129761Y-74468619D02*
X104129761Y-75468619D01*
X104510714Y-74468619D02*
X105177380Y-75468619D01*
X105177380Y-74468619D02*
X104510714Y-75468619D01*
X106082142Y-75468619D02*
X105510714Y-75468619D01*
X105796428Y-75468619D02*
X105796428Y-74468619D01*
X105796428Y-74468619D02*
X105701190Y-74611476D01*
X105701190Y-74611476D02*
X105605952Y-74706714D01*
X105605952Y-74706714D02*
X105510714Y-74754333D01*
X106558333Y-75468619D02*
X106748809Y-75468619D01*
X106748809Y-75468619D02*
X106844047Y-75421000D01*
X106844047Y-75421000D02*
X106891666Y-75373380D01*
X106891666Y-75373380D02*
X106986904Y-75230523D01*
X106986904Y-75230523D02*
X107034523Y-75040047D01*
X107034523Y-75040047D02*
X107034523Y-74659095D01*
X107034523Y-74659095D02*
X106986904Y-74563857D01*
X106986904Y-74563857D02*
X106939285Y-74516238D01*
X106939285Y-74516238D02*
X106844047Y-74468619D01*
X106844047Y-74468619D02*
X106653571Y-74468619D01*
X106653571Y-74468619D02*
X106558333Y-74516238D01*
X106558333Y-74516238D02*
X106510714Y-74563857D01*
X106510714Y-74563857D02*
X106463095Y-74659095D01*
X106463095Y-74659095D02*
X106463095Y-74897190D01*
X106463095Y-74897190D02*
X106510714Y-74992428D01*
X106510714Y-74992428D02*
X106558333Y-75040047D01*
X106558333Y-75040047D02*
X106653571Y-75087666D01*
X106653571Y-75087666D02*
X106844047Y-75087666D01*
X106844047Y-75087666D02*
X106939285Y-75040047D01*
X106939285Y-75040047D02*
X106986904Y-74992428D01*
X106986904Y-74992428D02*
X107034523Y-74897190D01*
%TO.C,J3*%
X51746666Y-129762619D02*
X51746666Y-130476904D01*
X51746666Y-130476904D02*
X51699047Y-130619761D01*
X51699047Y-130619761D02*
X51603809Y-130715000D01*
X51603809Y-130715000D02*
X51460952Y-130762619D01*
X51460952Y-130762619D02*
X51365714Y-130762619D01*
X52127619Y-129762619D02*
X52746666Y-129762619D01*
X52746666Y-129762619D02*
X52413333Y-130143571D01*
X52413333Y-130143571D02*
X52556190Y-130143571D01*
X52556190Y-130143571D02*
X52651428Y-130191190D01*
X52651428Y-130191190D02*
X52699047Y-130238809D01*
X52699047Y-130238809D02*
X52746666Y-130334047D01*
X52746666Y-130334047D02*
X52746666Y-130572142D01*
X52746666Y-130572142D02*
X52699047Y-130667380D01*
X52699047Y-130667380D02*
X52651428Y-130715000D01*
X52651428Y-130715000D02*
X52556190Y-130762619D01*
X52556190Y-130762619D02*
X52270476Y-130762619D01*
X52270476Y-130762619D02*
X52175238Y-130715000D01*
X52175238Y-130715000D02*
X52127619Y-130667380D01*
%TO.C,MX40*%
X222748095Y-94468619D02*
X222748095Y-93468619D01*
X222748095Y-93468619D02*
X223081428Y-94182904D01*
X223081428Y-94182904D02*
X223414761Y-93468619D01*
X223414761Y-93468619D02*
X223414761Y-94468619D01*
X223795714Y-93468619D02*
X224462380Y-94468619D01*
X224462380Y-93468619D02*
X223795714Y-94468619D01*
X225271904Y-93801952D02*
X225271904Y-94468619D01*
X225033809Y-93421000D02*
X224795714Y-94135285D01*
X224795714Y-94135285D02*
X225414761Y-94135285D01*
X225986190Y-93468619D02*
X226081428Y-93468619D01*
X226081428Y-93468619D02*
X226176666Y-93516238D01*
X226176666Y-93516238D02*
X226224285Y-93563857D01*
X226224285Y-93563857D02*
X226271904Y-93659095D01*
X226271904Y-93659095D02*
X226319523Y-93849571D01*
X226319523Y-93849571D02*
X226319523Y-94087666D01*
X226319523Y-94087666D02*
X226271904Y-94278142D01*
X226271904Y-94278142D02*
X226224285Y-94373380D01*
X226224285Y-94373380D02*
X226176666Y-94421000D01*
X226176666Y-94421000D02*
X226081428Y-94468619D01*
X226081428Y-94468619D02*
X225986190Y-94468619D01*
X225986190Y-94468619D02*
X225890952Y-94421000D01*
X225890952Y-94421000D02*
X225843333Y-94373380D01*
X225843333Y-94373380D02*
X225795714Y-94278142D01*
X225795714Y-94278142D02*
X225748095Y-94087666D01*
X225748095Y-94087666D02*
X225748095Y-93849571D01*
X225748095Y-93849571D02*
X225795714Y-93659095D01*
X225795714Y-93659095D02*
X225843333Y-93563857D01*
X225843333Y-93563857D02*
X225890952Y-93516238D01*
X225890952Y-93516238D02*
X225986190Y-93468619D01*
%TO.C,MX41*%
X241748095Y-94468619D02*
X241748095Y-93468619D01*
X241748095Y-93468619D02*
X242081428Y-94182904D01*
X242081428Y-94182904D02*
X242414761Y-93468619D01*
X242414761Y-93468619D02*
X242414761Y-94468619D01*
X242795714Y-93468619D02*
X243462380Y-94468619D01*
X243462380Y-93468619D02*
X242795714Y-94468619D01*
X244271904Y-93801952D02*
X244271904Y-94468619D01*
X244033809Y-93421000D02*
X243795714Y-94135285D01*
X243795714Y-94135285D02*
X244414761Y-94135285D01*
X245319523Y-94468619D02*
X244748095Y-94468619D01*
X245033809Y-94468619D02*
X245033809Y-93468619D01*
X245033809Y-93468619D02*
X244938571Y-93611476D01*
X244938571Y-93611476D02*
X244843333Y-93706714D01*
X244843333Y-93706714D02*
X244748095Y-93754333D01*
%TO.C,MX57*%
X322648095Y-113488619D02*
X322648095Y-112488619D01*
X322648095Y-112488619D02*
X322981428Y-113202904D01*
X322981428Y-113202904D02*
X323314761Y-112488619D01*
X323314761Y-112488619D02*
X323314761Y-113488619D01*
X323695714Y-112488619D02*
X324362380Y-113488619D01*
X324362380Y-112488619D02*
X323695714Y-113488619D01*
X325219523Y-112488619D02*
X324743333Y-112488619D01*
X324743333Y-112488619D02*
X324695714Y-112964809D01*
X324695714Y-112964809D02*
X324743333Y-112917190D01*
X324743333Y-112917190D02*
X324838571Y-112869571D01*
X324838571Y-112869571D02*
X325076666Y-112869571D01*
X325076666Y-112869571D02*
X325171904Y-112917190D01*
X325171904Y-112917190D02*
X325219523Y-112964809D01*
X325219523Y-112964809D02*
X325267142Y-113060047D01*
X325267142Y-113060047D02*
X325267142Y-113298142D01*
X325267142Y-113298142D02*
X325219523Y-113393380D01*
X325219523Y-113393380D02*
X325171904Y-113441000D01*
X325171904Y-113441000D02*
X325076666Y-113488619D01*
X325076666Y-113488619D02*
X324838571Y-113488619D01*
X324838571Y-113488619D02*
X324743333Y-113441000D01*
X324743333Y-113441000D02*
X324695714Y-113393380D01*
X325600476Y-112488619D02*
X326267142Y-112488619D01*
X326267142Y-112488619D02*
X325838571Y-113488619D01*
%TO.C,MX45*%
X67873095Y-113468619D02*
X67873095Y-112468619D01*
X67873095Y-112468619D02*
X68206428Y-113182904D01*
X68206428Y-113182904D02*
X68539761Y-112468619D01*
X68539761Y-112468619D02*
X68539761Y-113468619D01*
X68920714Y-112468619D02*
X69587380Y-113468619D01*
X69587380Y-112468619D02*
X68920714Y-113468619D01*
X70396904Y-112801952D02*
X70396904Y-113468619D01*
X70158809Y-112421000D02*
X69920714Y-113135285D01*
X69920714Y-113135285D02*
X70539761Y-113135285D01*
X71396904Y-112468619D02*
X70920714Y-112468619D01*
X70920714Y-112468619D02*
X70873095Y-112944809D01*
X70873095Y-112944809D02*
X70920714Y-112897190D01*
X70920714Y-112897190D02*
X71015952Y-112849571D01*
X71015952Y-112849571D02*
X71254047Y-112849571D01*
X71254047Y-112849571D02*
X71349285Y-112897190D01*
X71349285Y-112897190D02*
X71396904Y-112944809D01*
X71396904Y-112944809D02*
X71444523Y-113040047D01*
X71444523Y-113040047D02*
X71444523Y-113278142D01*
X71444523Y-113278142D02*
X71396904Y-113373380D01*
X71396904Y-113373380D02*
X71349285Y-113421000D01*
X71349285Y-113421000D02*
X71254047Y-113468619D01*
X71254047Y-113468619D02*
X71015952Y-113468619D01*
X71015952Y-113468619D02*
X70920714Y-113421000D01*
X70920714Y-113421000D02*
X70873095Y-113373380D01*
%TO.C,MX33*%
X89363095Y-94468619D02*
X89363095Y-93468619D01*
X89363095Y-93468619D02*
X89696428Y-94182904D01*
X89696428Y-94182904D02*
X90029761Y-93468619D01*
X90029761Y-93468619D02*
X90029761Y-94468619D01*
X90410714Y-93468619D02*
X91077380Y-94468619D01*
X91077380Y-93468619D02*
X90410714Y-94468619D01*
X91363095Y-93468619D02*
X91982142Y-93468619D01*
X91982142Y-93468619D02*
X91648809Y-93849571D01*
X91648809Y-93849571D02*
X91791666Y-93849571D01*
X91791666Y-93849571D02*
X91886904Y-93897190D01*
X91886904Y-93897190D02*
X91934523Y-93944809D01*
X91934523Y-93944809D02*
X91982142Y-94040047D01*
X91982142Y-94040047D02*
X91982142Y-94278142D01*
X91982142Y-94278142D02*
X91934523Y-94373380D01*
X91934523Y-94373380D02*
X91886904Y-94421000D01*
X91886904Y-94421000D02*
X91791666Y-94468619D01*
X91791666Y-94468619D02*
X91505952Y-94468619D01*
X91505952Y-94468619D02*
X91410714Y-94421000D01*
X91410714Y-94421000D02*
X91363095Y-94373380D01*
X92315476Y-93468619D02*
X92934523Y-93468619D01*
X92934523Y-93468619D02*
X92601190Y-93849571D01*
X92601190Y-93849571D02*
X92744047Y-93849571D01*
X92744047Y-93849571D02*
X92839285Y-93897190D01*
X92839285Y-93897190D02*
X92886904Y-93944809D01*
X92886904Y-93944809D02*
X92934523Y-94040047D01*
X92934523Y-94040047D02*
X92934523Y-94278142D01*
X92934523Y-94278142D02*
X92886904Y-94373380D01*
X92886904Y-94373380D02*
X92839285Y-94421000D01*
X92839285Y-94421000D02*
X92744047Y-94468619D01*
X92744047Y-94468619D02*
X92458333Y-94468619D01*
X92458333Y-94468619D02*
X92363095Y-94421000D01*
X92363095Y-94421000D02*
X92315476Y-94373380D01*
%TO.C,MX69*%
X111653095Y-132512619D02*
X111653095Y-131512619D01*
X111653095Y-131512619D02*
X111986428Y-132226904D01*
X111986428Y-132226904D02*
X112319761Y-131512619D01*
X112319761Y-131512619D02*
X112319761Y-132512619D01*
X112700714Y-131512619D02*
X113367380Y-132512619D01*
X113367380Y-131512619D02*
X112700714Y-132512619D01*
X114176904Y-131512619D02*
X113986428Y-131512619D01*
X113986428Y-131512619D02*
X113891190Y-131560238D01*
X113891190Y-131560238D02*
X113843571Y-131607857D01*
X113843571Y-131607857D02*
X113748333Y-131750714D01*
X113748333Y-131750714D02*
X113700714Y-131941190D01*
X113700714Y-131941190D02*
X113700714Y-132322142D01*
X113700714Y-132322142D02*
X113748333Y-132417380D01*
X113748333Y-132417380D02*
X113795952Y-132465000D01*
X113795952Y-132465000D02*
X113891190Y-132512619D01*
X113891190Y-132512619D02*
X114081666Y-132512619D01*
X114081666Y-132512619D02*
X114176904Y-132465000D01*
X114176904Y-132465000D02*
X114224523Y-132417380D01*
X114224523Y-132417380D02*
X114272142Y-132322142D01*
X114272142Y-132322142D02*
X114272142Y-132084047D01*
X114272142Y-132084047D02*
X114224523Y-131988809D01*
X114224523Y-131988809D02*
X114176904Y-131941190D01*
X114176904Y-131941190D02*
X114081666Y-131893571D01*
X114081666Y-131893571D02*
X113891190Y-131893571D01*
X113891190Y-131893571D02*
X113795952Y-131941190D01*
X113795952Y-131941190D02*
X113748333Y-131988809D01*
X113748333Y-131988809D02*
X113700714Y-132084047D01*
X114748333Y-132512619D02*
X114938809Y-132512619D01*
X114938809Y-132512619D02*
X115034047Y-132465000D01*
X115034047Y-132465000D02*
X115081666Y-132417380D01*
X115081666Y-132417380D02*
X115176904Y-132274523D01*
X115176904Y-132274523D02*
X115224523Y-132084047D01*
X115224523Y-132084047D02*
X115224523Y-131703095D01*
X115224523Y-131703095D02*
X115176904Y-131607857D01*
X115176904Y-131607857D02*
X115129285Y-131560238D01*
X115129285Y-131560238D02*
X115034047Y-131512619D01*
X115034047Y-131512619D02*
X114843571Y-131512619D01*
X114843571Y-131512619D02*
X114748333Y-131560238D01*
X114748333Y-131560238D02*
X114700714Y-131607857D01*
X114700714Y-131607857D02*
X114653095Y-131703095D01*
X114653095Y-131703095D02*
X114653095Y-131941190D01*
X114653095Y-131941190D02*
X114700714Y-132036428D01*
X114700714Y-132036428D02*
X114748333Y-132084047D01*
X114748333Y-132084047D02*
X114843571Y-132131666D01*
X114843571Y-132131666D02*
X115034047Y-132131666D01*
X115034047Y-132131666D02*
X115129285Y-132084047D01*
X115129285Y-132084047D02*
X115176904Y-132036428D01*
X115176904Y-132036428D02*
X115224523Y-131941190D01*
%TO.C,MX20*%
X122463095Y-75468619D02*
X122463095Y-74468619D01*
X122463095Y-74468619D02*
X122796428Y-75182904D01*
X122796428Y-75182904D02*
X123129761Y-74468619D01*
X123129761Y-74468619D02*
X123129761Y-75468619D01*
X123510714Y-74468619D02*
X124177380Y-75468619D01*
X124177380Y-74468619D02*
X123510714Y-75468619D01*
X124510714Y-74563857D02*
X124558333Y-74516238D01*
X124558333Y-74516238D02*
X124653571Y-74468619D01*
X124653571Y-74468619D02*
X124891666Y-74468619D01*
X124891666Y-74468619D02*
X124986904Y-74516238D01*
X124986904Y-74516238D02*
X125034523Y-74563857D01*
X125034523Y-74563857D02*
X125082142Y-74659095D01*
X125082142Y-74659095D02*
X125082142Y-74754333D01*
X125082142Y-74754333D02*
X125034523Y-74897190D01*
X125034523Y-74897190D02*
X124463095Y-75468619D01*
X124463095Y-75468619D02*
X125082142Y-75468619D01*
X125701190Y-74468619D02*
X125796428Y-74468619D01*
X125796428Y-74468619D02*
X125891666Y-74516238D01*
X125891666Y-74516238D02*
X125939285Y-74563857D01*
X125939285Y-74563857D02*
X125986904Y-74659095D01*
X125986904Y-74659095D02*
X126034523Y-74849571D01*
X126034523Y-74849571D02*
X126034523Y-75087666D01*
X126034523Y-75087666D02*
X125986904Y-75278142D01*
X125986904Y-75278142D02*
X125939285Y-75373380D01*
X125939285Y-75373380D02*
X125891666Y-75421000D01*
X125891666Y-75421000D02*
X125796428Y-75468619D01*
X125796428Y-75468619D02*
X125701190Y-75468619D01*
X125701190Y-75468619D02*
X125605952Y-75421000D01*
X125605952Y-75421000D02*
X125558333Y-75373380D01*
X125558333Y-75373380D02*
X125510714Y-75278142D01*
X125510714Y-75278142D02*
X125463095Y-75087666D01*
X125463095Y-75087666D02*
X125463095Y-74849571D01*
X125463095Y-74849571D02*
X125510714Y-74659095D01*
X125510714Y-74659095D02*
X125558333Y-74563857D01*
X125558333Y-74563857D02*
X125605952Y-74516238D01*
X125605952Y-74516238D02*
X125701190Y-74468619D01*
%TO.C,MX24*%
X198463095Y-75468619D02*
X198463095Y-74468619D01*
X198463095Y-74468619D02*
X198796428Y-75182904D01*
X198796428Y-75182904D02*
X199129761Y-74468619D01*
X199129761Y-74468619D02*
X199129761Y-75468619D01*
X199510714Y-74468619D02*
X200177380Y-75468619D01*
X200177380Y-74468619D02*
X199510714Y-75468619D01*
X200510714Y-74563857D02*
X200558333Y-74516238D01*
X200558333Y-74516238D02*
X200653571Y-74468619D01*
X200653571Y-74468619D02*
X200891666Y-74468619D01*
X200891666Y-74468619D02*
X200986904Y-74516238D01*
X200986904Y-74516238D02*
X201034523Y-74563857D01*
X201034523Y-74563857D02*
X201082142Y-74659095D01*
X201082142Y-74659095D02*
X201082142Y-74754333D01*
X201082142Y-74754333D02*
X201034523Y-74897190D01*
X201034523Y-74897190D02*
X200463095Y-75468619D01*
X200463095Y-75468619D02*
X201082142Y-75468619D01*
X201939285Y-74801952D02*
X201939285Y-75468619D01*
X201701190Y-74421000D02*
X201463095Y-75135285D01*
X201463095Y-75135285D02*
X202082142Y-75135285D01*
%TO.C,MX8*%
X189439286Y-56368619D02*
X189439286Y-55368619D01*
X189439286Y-55368619D02*
X189772619Y-56082904D01*
X189772619Y-56082904D02*
X190105952Y-55368619D01*
X190105952Y-55368619D02*
X190105952Y-56368619D01*
X190486905Y-55368619D02*
X191153571Y-56368619D01*
X191153571Y-55368619D02*
X190486905Y-56368619D01*
X191677381Y-55797190D02*
X191582143Y-55749571D01*
X191582143Y-55749571D02*
X191534524Y-55701952D01*
X191534524Y-55701952D02*
X191486905Y-55606714D01*
X191486905Y-55606714D02*
X191486905Y-55559095D01*
X191486905Y-55559095D02*
X191534524Y-55463857D01*
X191534524Y-55463857D02*
X191582143Y-55416238D01*
X191582143Y-55416238D02*
X191677381Y-55368619D01*
X191677381Y-55368619D02*
X191867857Y-55368619D01*
X191867857Y-55368619D02*
X191963095Y-55416238D01*
X191963095Y-55416238D02*
X192010714Y-55463857D01*
X192010714Y-55463857D02*
X192058333Y-55559095D01*
X192058333Y-55559095D02*
X192058333Y-55606714D01*
X192058333Y-55606714D02*
X192010714Y-55701952D01*
X192010714Y-55701952D02*
X191963095Y-55749571D01*
X191963095Y-55749571D02*
X191867857Y-55797190D01*
X191867857Y-55797190D02*
X191677381Y-55797190D01*
X191677381Y-55797190D02*
X191582143Y-55844809D01*
X191582143Y-55844809D02*
X191534524Y-55892428D01*
X191534524Y-55892428D02*
X191486905Y-55987666D01*
X191486905Y-55987666D02*
X191486905Y-56178142D01*
X191486905Y-56178142D02*
X191534524Y-56273380D01*
X191534524Y-56273380D02*
X191582143Y-56321000D01*
X191582143Y-56321000D02*
X191677381Y-56368619D01*
X191677381Y-56368619D02*
X191867857Y-56368619D01*
X191867857Y-56368619D02*
X191963095Y-56321000D01*
X191963095Y-56321000D02*
X192010714Y-56273380D01*
X192010714Y-56273380D02*
X192058333Y-56178142D01*
X192058333Y-56178142D02*
X192058333Y-55987666D01*
X192058333Y-55987666D02*
X192010714Y-55892428D01*
X192010714Y-55892428D02*
X191963095Y-55844809D01*
X191963095Y-55844809D02*
X191867857Y-55797190D01*
%TO.C,MX48*%
X136983095Y-113468619D02*
X136983095Y-112468619D01*
X136983095Y-112468619D02*
X137316428Y-113182904D01*
X137316428Y-113182904D02*
X137649761Y-112468619D01*
X137649761Y-112468619D02*
X137649761Y-113468619D01*
X138030714Y-112468619D02*
X138697380Y-113468619D01*
X138697380Y-112468619D02*
X138030714Y-113468619D01*
X139506904Y-112801952D02*
X139506904Y-113468619D01*
X139268809Y-112421000D02*
X139030714Y-113135285D01*
X139030714Y-113135285D02*
X139649761Y-113135285D01*
X140173571Y-112897190D02*
X140078333Y-112849571D01*
X140078333Y-112849571D02*
X140030714Y-112801952D01*
X140030714Y-112801952D02*
X139983095Y-112706714D01*
X139983095Y-112706714D02*
X139983095Y-112659095D01*
X139983095Y-112659095D02*
X140030714Y-112563857D01*
X140030714Y-112563857D02*
X140078333Y-112516238D01*
X140078333Y-112516238D02*
X140173571Y-112468619D01*
X140173571Y-112468619D02*
X140364047Y-112468619D01*
X140364047Y-112468619D02*
X140459285Y-112516238D01*
X140459285Y-112516238D02*
X140506904Y-112563857D01*
X140506904Y-112563857D02*
X140554523Y-112659095D01*
X140554523Y-112659095D02*
X140554523Y-112706714D01*
X140554523Y-112706714D02*
X140506904Y-112801952D01*
X140506904Y-112801952D02*
X140459285Y-112849571D01*
X140459285Y-112849571D02*
X140364047Y-112897190D01*
X140364047Y-112897190D02*
X140173571Y-112897190D01*
X140173571Y-112897190D02*
X140078333Y-112944809D01*
X140078333Y-112944809D02*
X140030714Y-112992428D01*
X140030714Y-112992428D02*
X139983095Y-113087666D01*
X139983095Y-113087666D02*
X139983095Y-113278142D01*
X139983095Y-113278142D02*
X140030714Y-113373380D01*
X140030714Y-113373380D02*
X140078333Y-113421000D01*
X140078333Y-113421000D02*
X140173571Y-113468619D01*
X140173571Y-113468619D02*
X140364047Y-113468619D01*
X140364047Y-113468619D02*
X140459285Y-113421000D01*
X140459285Y-113421000D02*
X140506904Y-113373380D01*
X140506904Y-113373380D02*
X140554523Y-113278142D01*
X140554523Y-113278142D02*
X140554523Y-113087666D01*
X140554523Y-113087666D02*
X140506904Y-112992428D01*
X140506904Y-112992428D02*
X140459285Y-112944809D01*
X140459285Y-112944809D02*
X140364047Y-112897190D01*
%TO.C,MX51*%
X194263095Y-113468619D02*
X194263095Y-112468619D01*
X194263095Y-112468619D02*
X194596428Y-113182904D01*
X194596428Y-113182904D02*
X194929761Y-112468619D01*
X194929761Y-112468619D02*
X194929761Y-113468619D01*
X195310714Y-112468619D02*
X195977380Y-113468619D01*
X195977380Y-112468619D02*
X195310714Y-113468619D01*
X196834523Y-112468619D02*
X196358333Y-112468619D01*
X196358333Y-112468619D02*
X196310714Y-112944809D01*
X196310714Y-112944809D02*
X196358333Y-112897190D01*
X196358333Y-112897190D02*
X196453571Y-112849571D01*
X196453571Y-112849571D02*
X196691666Y-112849571D01*
X196691666Y-112849571D02*
X196786904Y-112897190D01*
X196786904Y-112897190D02*
X196834523Y-112944809D01*
X196834523Y-112944809D02*
X196882142Y-113040047D01*
X196882142Y-113040047D02*
X196882142Y-113278142D01*
X196882142Y-113278142D02*
X196834523Y-113373380D01*
X196834523Y-113373380D02*
X196786904Y-113421000D01*
X196786904Y-113421000D02*
X196691666Y-113468619D01*
X196691666Y-113468619D02*
X196453571Y-113468619D01*
X196453571Y-113468619D02*
X196358333Y-113421000D01*
X196358333Y-113421000D02*
X196310714Y-113373380D01*
X197834523Y-113468619D02*
X197263095Y-113468619D01*
X197548809Y-113468619D02*
X197548809Y-112468619D01*
X197548809Y-112468619D02*
X197453571Y-112611476D01*
X197453571Y-112611476D02*
X197358333Y-112706714D01*
X197358333Y-112706714D02*
X197263095Y-112754333D01*
%TO.C,MX7*%
X170439286Y-56368619D02*
X170439286Y-55368619D01*
X170439286Y-55368619D02*
X170772619Y-56082904D01*
X170772619Y-56082904D02*
X171105952Y-55368619D01*
X171105952Y-55368619D02*
X171105952Y-56368619D01*
X171486905Y-55368619D02*
X172153571Y-56368619D01*
X172153571Y-55368619D02*
X171486905Y-56368619D01*
X172439286Y-55368619D02*
X173105952Y-55368619D01*
X173105952Y-55368619D02*
X172677381Y-56368619D01*
%TO.C,MX2*%
X75439286Y-56368619D02*
X75439286Y-55368619D01*
X75439286Y-55368619D02*
X75772619Y-56082904D01*
X75772619Y-56082904D02*
X76105952Y-55368619D01*
X76105952Y-55368619D02*
X76105952Y-56368619D01*
X76486905Y-55368619D02*
X77153571Y-56368619D01*
X77153571Y-55368619D02*
X76486905Y-56368619D01*
X77486905Y-55463857D02*
X77534524Y-55416238D01*
X77534524Y-55416238D02*
X77629762Y-55368619D01*
X77629762Y-55368619D02*
X77867857Y-55368619D01*
X77867857Y-55368619D02*
X77963095Y-55416238D01*
X77963095Y-55416238D02*
X78010714Y-55463857D01*
X78010714Y-55463857D02*
X78058333Y-55559095D01*
X78058333Y-55559095D02*
X78058333Y-55654333D01*
X78058333Y-55654333D02*
X78010714Y-55797190D01*
X78010714Y-55797190D02*
X77439286Y-56368619D01*
X77439286Y-56368619D02*
X78058333Y-56368619D01*
%TO.C,MX62*%
X177203095Y-132412619D02*
X177203095Y-131412619D01*
X177203095Y-131412619D02*
X177536428Y-132126904D01*
X177536428Y-132126904D02*
X177869761Y-131412619D01*
X177869761Y-131412619D02*
X177869761Y-132412619D01*
X178250714Y-131412619D02*
X178917380Y-132412619D01*
X178917380Y-131412619D02*
X178250714Y-132412619D01*
X179726904Y-131412619D02*
X179536428Y-131412619D01*
X179536428Y-131412619D02*
X179441190Y-131460238D01*
X179441190Y-131460238D02*
X179393571Y-131507857D01*
X179393571Y-131507857D02*
X179298333Y-131650714D01*
X179298333Y-131650714D02*
X179250714Y-131841190D01*
X179250714Y-131841190D02*
X179250714Y-132222142D01*
X179250714Y-132222142D02*
X179298333Y-132317380D01*
X179298333Y-132317380D02*
X179345952Y-132365000D01*
X179345952Y-132365000D02*
X179441190Y-132412619D01*
X179441190Y-132412619D02*
X179631666Y-132412619D01*
X179631666Y-132412619D02*
X179726904Y-132365000D01*
X179726904Y-132365000D02*
X179774523Y-132317380D01*
X179774523Y-132317380D02*
X179822142Y-132222142D01*
X179822142Y-132222142D02*
X179822142Y-131984047D01*
X179822142Y-131984047D02*
X179774523Y-131888809D01*
X179774523Y-131888809D02*
X179726904Y-131841190D01*
X179726904Y-131841190D02*
X179631666Y-131793571D01*
X179631666Y-131793571D02*
X179441190Y-131793571D01*
X179441190Y-131793571D02*
X179345952Y-131841190D01*
X179345952Y-131841190D02*
X179298333Y-131888809D01*
X179298333Y-131888809D02*
X179250714Y-131984047D01*
X180203095Y-131507857D02*
X180250714Y-131460238D01*
X180250714Y-131460238D02*
X180345952Y-131412619D01*
X180345952Y-131412619D02*
X180584047Y-131412619D01*
X180584047Y-131412619D02*
X180679285Y-131460238D01*
X180679285Y-131460238D02*
X180726904Y-131507857D01*
X180726904Y-131507857D02*
X180774523Y-131603095D01*
X180774523Y-131603095D02*
X180774523Y-131698333D01*
X180774523Y-131698333D02*
X180726904Y-131841190D01*
X180726904Y-131841190D02*
X180155476Y-132412619D01*
X180155476Y-132412619D02*
X180774523Y-132412619D01*
%TO.C,MX47*%
X117933095Y-113468619D02*
X117933095Y-112468619D01*
X117933095Y-112468619D02*
X118266428Y-113182904D01*
X118266428Y-113182904D02*
X118599761Y-112468619D01*
X118599761Y-112468619D02*
X118599761Y-113468619D01*
X118980714Y-112468619D02*
X119647380Y-113468619D01*
X119647380Y-112468619D02*
X118980714Y-113468619D01*
X120456904Y-112801952D02*
X120456904Y-113468619D01*
X120218809Y-112421000D02*
X119980714Y-113135285D01*
X119980714Y-113135285D02*
X120599761Y-113135285D01*
X120885476Y-112468619D02*
X121552142Y-112468619D01*
X121552142Y-112468619D02*
X121123571Y-113468619D01*
%TO.C,MX16*%
X313098095Y-56428619D02*
X313098095Y-55428619D01*
X313098095Y-55428619D02*
X313431428Y-56142904D01*
X313431428Y-56142904D02*
X313764761Y-55428619D01*
X313764761Y-55428619D02*
X313764761Y-56428619D01*
X314145714Y-55428619D02*
X314812380Y-56428619D01*
X314812380Y-55428619D02*
X314145714Y-56428619D01*
X315717142Y-56428619D02*
X315145714Y-56428619D01*
X315431428Y-56428619D02*
X315431428Y-55428619D01*
X315431428Y-55428619D02*
X315336190Y-55571476D01*
X315336190Y-55571476D02*
X315240952Y-55666714D01*
X315240952Y-55666714D02*
X315145714Y-55714333D01*
X316574285Y-55428619D02*
X316383809Y-55428619D01*
X316383809Y-55428619D02*
X316288571Y-55476238D01*
X316288571Y-55476238D02*
X316240952Y-55523857D01*
X316240952Y-55523857D02*
X316145714Y-55666714D01*
X316145714Y-55666714D02*
X316098095Y-55857190D01*
X316098095Y-55857190D02*
X316098095Y-56238142D01*
X316098095Y-56238142D02*
X316145714Y-56333380D01*
X316145714Y-56333380D02*
X316193333Y-56381000D01*
X316193333Y-56381000D02*
X316288571Y-56428619D01*
X316288571Y-56428619D02*
X316479047Y-56428619D01*
X316479047Y-56428619D02*
X316574285Y-56381000D01*
X316574285Y-56381000D02*
X316621904Y-56333380D01*
X316621904Y-56333380D02*
X316669523Y-56238142D01*
X316669523Y-56238142D02*
X316669523Y-56000047D01*
X316669523Y-56000047D02*
X316621904Y-55904809D01*
X316621904Y-55904809D02*
X316574285Y-55857190D01*
X316574285Y-55857190D02*
X316479047Y-55809571D01*
X316479047Y-55809571D02*
X316288571Y-55809571D01*
X316288571Y-55809571D02*
X316193333Y-55857190D01*
X316193333Y-55857190D02*
X316145714Y-55904809D01*
X316145714Y-55904809D02*
X316098095Y-56000047D01*
%TO.C,J5*%
X51597808Y-102369249D02*
X51597808Y-102941802D01*
X51597808Y-102941802D02*
X51559638Y-103056313D01*
X51559638Y-103056313D02*
X51483297Y-103132654D01*
X51483297Y-103132654D02*
X51368787Y-103170824D01*
X51368787Y-103170824D02*
X51292446Y-103170824D01*
X52361213Y-102369249D02*
X51979511Y-102369249D01*
X51979511Y-102369249D02*
X51941340Y-102750951D01*
X51941340Y-102750951D02*
X51979511Y-102712781D01*
X51979511Y-102712781D02*
X52055851Y-102674611D01*
X52055851Y-102674611D02*
X52246702Y-102674611D01*
X52246702Y-102674611D02*
X52323043Y-102712781D01*
X52323043Y-102712781D02*
X52361213Y-102750951D01*
X52361213Y-102750951D02*
X52399383Y-102827292D01*
X52399383Y-102827292D02*
X52399383Y-103018143D01*
X52399383Y-103018143D02*
X52361213Y-103094483D01*
X52361213Y-103094483D02*
X52323043Y-103132654D01*
X52323043Y-103132654D02*
X52246702Y-103170824D01*
X52246702Y-103170824D02*
X52055851Y-103170824D01*
X52055851Y-103170824D02*
X51979511Y-103132654D01*
X51979511Y-103132654D02*
X51941340Y-103094483D01*
%TO.C,MX55*%
X270463095Y-113468619D02*
X270463095Y-112468619D01*
X270463095Y-112468619D02*
X270796428Y-113182904D01*
X270796428Y-113182904D02*
X271129761Y-112468619D01*
X271129761Y-112468619D02*
X271129761Y-113468619D01*
X271510714Y-112468619D02*
X272177380Y-113468619D01*
X272177380Y-112468619D02*
X271510714Y-113468619D01*
X273034523Y-112468619D02*
X272558333Y-112468619D01*
X272558333Y-112468619D02*
X272510714Y-112944809D01*
X272510714Y-112944809D02*
X272558333Y-112897190D01*
X272558333Y-112897190D02*
X272653571Y-112849571D01*
X272653571Y-112849571D02*
X272891666Y-112849571D01*
X272891666Y-112849571D02*
X272986904Y-112897190D01*
X272986904Y-112897190D02*
X273034523Y-112944809D01*
X273034523Y-112944809D02*
X273082142Y-113040047D01*
X273082142Y-113040047D02*
X273082142Y-113278142D01*
X273082142Y-113278142D02*
X273034523Y-113373380D01*
X273034523Y-113373380D02*
X272986904Y-113421000D01*
X272986904Y-113421000D02*
X272891666Y-113468619D01*
X272891666Y-113468619D02*
X272653571Y-113468619D01*
X272653571Y-113468619D02*
X272558333Y-113421000D01*
X272558333Y-113421000D02*
X272510714Y-113373380D01*
X273986904Y-112468619D02*
X273510714Y-112468619D01*
X273510714Y-112468619D02*
X273463095Y-112944809D01*
X273463095Y-112944809D02*
X273510714Y-112897190D01*
X273510714Y-112897190D02*
X273605952Y-112849571D01*
X273605952Y-112849571D02*
X273844047Y-112849571D01*
X273844047Y-112849571D02*
X273939285Y-112897190D01*
X273939285Y-112897190D02*
X273986904Y-112944809D01*
X273986904Y-112944809D02*
X274034523Y-113040047D01*
X274034523Y-113040047D02*
X274034523Y-113278142D01*
X274034523Y-113278142D02*
X273986904Y-113373380D01*
X273986904Y-113373380D02*
X273939285Y-113421000D01*
X273939285Y-113421000D02*
X273844047Y-113468619D01*
X273844047Y-113468619D02*
X273605952Y-113468619D01*
X273605952Y-113468619D02*
X273510714Y-113421000D01*
X273510714Y-113421000D02*
X273463095Y-113373380D01*
%TO.C,MX31*%
X63163095Y-94468619D02*
X63163095Y-93468619D01*
X63163095Y-93468619D02*
X63496428Y-94182904D01*
X63496428Y-94182904D02*
X63829761Y-93468619D01*
X63829761Y-93468619D02*
X63829761Y-94468619D01*
X64210714Y-93468619D02*
X64877380Y-94468619D01*
X64877380Y-93468619D02*
X64210714Y-94468619D01*
X65163095Y-93468619D02*
X65782142Y-93468619D01*
X65782142Y-93468619D02*
X65448809Y-93849571D01*
X65448809Y-93849571D02*
X65591666Y-93849571D01*
X65591666Y-93849571D02*
X65686904Y-93897190D01*
X65686904Y-93897190D02*
X65734523Y-93944809D01*
X65734523Y-93944809D02*
X65782142Y-94040047D01*
X65782142Y-94040047D02*
X65782142Y-94278142D01*
X65782142Y-94278142D02*
X65734523Y-94373380D01*
X65734523Y-94373380D02*
X65686904Y-94421000D01*
X65686904Y-94421000D02*
X65591666Y-94468619D01*
X65591666Y-94468619D02*
X65305952Y-94468619D01*
X65305952Y-94468619D02*
X65210714Y-94421000D01*
X65210714Y-94421000D02*
X65163095Y-94373380D01*
X66734523Y-94468619D02*
X66163095Y-94468619D01*
X66448809Y-94468619D02*
X66448809Y-93468619D01*
X66448809Y-93468619D02*
X66353571Y-93611476D01*
X66353571Y-93611476D02*
X66258333Y-93706714D01*
X66258333Y-93706714D02*
X66163095Y-93754333D01*
%TO.C,MX32*%
X58363095Y-94468619D02*
X58363095Y-93468619D01*
X58363095Y-93468619D02*
X58696428Y-94182904D01*
X58696428Y-94182904D02*
X59029761Y-93468619D01*
X59029761Y-93468619D02*
X59029761Y-94468619D01*
X59410714Y-93468619D02*
X60077380Y-94468619D01*
X60077380Y-93468619D02*
X59410714Y-94468619D01*
X60363095Y-93468619D02*
X60982142Y-93468619D01*
X60982142Y-93468619D02*
X60648809Y-93849571D01*
X60648809Y-93849571D02*
X60791666Y-93849571D01*
X60791666Y-93849571D02*
X60886904Y-93897190D01*
X60886904Y-93897190D02*
X60934523Y-93944809D01*
X60934523Y-93944809D02*
X60982142Y-94040047D01*
X60982142Y-94040047D02*
X60982142Y-94278142D01*
X60982142Y-94278142D02*
X60934523Y-94373380D01*
X60934523Y-94373380D02*
X60886904Y-94421000D01*
X60886904Y-94421000D02*
X60791666Y-94468619D01*
X60791666Y-94468619D02*
X60505952Y-94468619D01*
X60505952Y-94468619D02*
X60410714Y-94421000D01*
X60410714Y-94421000D02*
X60363095Y-94373380D01*
X61363095Y-93563857D02*
X61410714Y-93516238D01*
X61410714Y-93516238D02*
X61505952Y-93468619D01*
X61505952Y-93468619D02*
X61744047Y-93468619D01*
X61744047Y-93468619D02*
X61839285Y-93516238D01*
X61839285Y-93516238D02*
X61886904Y-93563857D01*
X61886904Y-93563857D02*
X61934523Y-93659095D01*
X61934523Y-93659095D02*
X61934523Y-93754333D01*
X61934523Y-93754333D02*
X61886904Y-93897190D01*
X61886904Y-93897190D02*
X61315476Y-94468619D01*
X61315476Y-94468619D02*
X61934523Y-94468619D01*
%TO.C,MX13*%
X284463095Y-56368619D02*
X284463095Y-55368619D01*
X284463095Y-55368619D02*
X284796428Y-56082904D01*
X284796428Y-56082904D02*
X285129761Y-55368619D01*
X285129761Y-55368619D02*
X285129761Y-56368619D01*
X285510714Y-55368619D02*
X286177380Y-56368619D01*
X286177380Y-55368619D02*
X285510714Y-56368619D01*
X287082142Y-56368619D02*
X286510714Y-56368619D01*
X286796428Y-56368619D02*
X286796428Y-55368619D01*
X286796428Y-55368619D02*
X286701190Y-55511476D01*
X286701190Y-55511476D02*
X286605952Y-55606714D01*
X286605952Y-55606714D02*
X286510714Y-55654333D01*
X287415476Y-55368619D02*
X288034523Y-55368619D01*
X288034523Y-55368619D02*
X287701190Y-55749571D01*
X287701190Y-55749571D02*
X287844047Y-55749571D01*
X287844047Y-55749571D02*
X287939285Y-55797190D01*
X287939285Y-55797190D02*
X287986904Y-55844809D01*
X287986904Y-55844809D02*
X288034523Y-55940047D01*
X288034523Y-55940047D02*
X288034523Y-56178142D01*
X288034523Y-56178142D02*
X287986904Y-56273380D01*
X287986904Y-56273380D02*
X287939285Y-56321000D01*
X287939285Y-56321000D02*
X287844047Y-56368619D01*
X287844047Y-56368619D02*
X287558333Y-56368619D01*
X287558333Y-56368619D02*
X287463095Y-56321000D01*
X287463095Y-56321000D02*
X287415476Y-56273380D01*
%TO.C,MX27*%
X255463095Y-75468619D02*
X255463095Y-74468619D01*
X255463095Y-74468619D02*
X255796428Y-75182904D01*
X255796428Y-75182904D02*
X256129761Y-74468619D01*
X256129761Y-74468619D02*
X256129761Y-75468619D01*
X256510714Y-74468619D02*
X257177380Y-75468619D01*
X257177380Y-74468619D02*
X256510714Y-75468619D01*
X257510714Y-74563857D02*
X257558333Y-74516238D01*
X257558333Y-74516238D02*
X257653571Y-74468619D01*
X257653571Y-74468619D02*
X257891666Y-74468619D01*
X257891666Y-74468619D02*
X257986904Y-74516238D01*
X257986904Y-74516238D02*
X258034523Y-74563857D01*
X258034523Y-74563857D02*
X258082142Y-74659095D01*
X258082142Y-74659095D02*
X258082142Y-74754333D01*
X258082142Y-74754333D02*
X258034523Y-74897190D01*
X258034523Y-74897190D02*
X257463095Y-75468619D01*
X257463095Y-75468619D02*
X258082142Y-75468619D01*
X258415476Y-74468619D02*
X259082142Y-74468619D01*
X259082142Y-74468619D02*
X258653571Y-75468619D01*
%TO.C,MX30*%
X317893095Y-75468619D02*
X317893095Y-74468619D01*
X317893095Y-74468619D02*
X318226428Y-75182904D01*
X318226428Y-75182904D02*
X318559761Y-74468619D01*
X318559761Y-74468619D02*
X318559761Y-75468619D01*
X318940714Y-74468619D02*
X319607380Y-75468619D01*
X319607380Y-74468619D02*
X318940714Y-75468619D01*
X319893095Y-74468619D02*
X320512142Y-74468619D01*
X320512142Y-74468619D02*
X320178809Y-74849571D01*
X320178809Y-74849571D02*
X320321666Y-74849571D01*
X320321666Y-74849571D02*
X320416904Y-74897190D01*
X320416904Y-74897190D02*
X320464523Y-74944809D01*
X320464523Y-74944809D02*
X320512142Y-75040047D01*
X320512142Y-75040047D02*
X320512142Y-75278142D01*
X320512142Y-75278142D02*
X320464523Y-75373380D01*
X320464523Y-75373380D02*
X320416904Y-75421000D01*
X320416904Y-75421000D02*
X320321666Y-75468619D01*
X320321666Y-75468619D02*
X320035952Y-75468619D01*
X320035952Y-75468619D02*
X319940714Y-75421000D01*
X319940714Y-75421000D02*
X319893095Y-75373380D01*
X321131190Y-74468619D02*
X321226428Y-74468619D01*
X321226428Y-74468619D02*
X321321666Y-74516238D01*
X321321666Y-74516238D02*
X321369285Y-74563857D01*
X321369285Y-74563857D02*
X321416904Y-74659095D01*
X321416904Y-74659095D02*
X321464523Y-74849571D01*
X321464523Y-74849571D02*
X321464523Y-75087666D01*
X321464523Y-75087666D02*
X321416904Y-75278142D01*
X321416904Y-75278142D02*
X321369285Y-75373380D01*
X321369285Y-75373380D02*
X321321666Y-75421000D01*
X321321666Y-75421000D02*
X321226428Y-75468619D01*
X321226428Y-75468619D02*
X321131190Y-75468619D01*
X321131190Y-75468619D02*
X321035952Y-75421000D01*
X321035952Y-75421000D02*
X320988333Y-75373380D01*
X320988333Y-75373380D02*
X320940714Y-75278142D01*
X320940714Y-75278142D02*
X320893095Y-75087666D01*
X320893095Y-75087666D02*
X320893095Y-74849571D01*
X320893095Y-74849571D02*
X320940714Y-74659095D01*
X320940714Y-74659095D02*
X320988333Y-74563857D01*
X320988333Y-74563857D02*
X321035952Y-74516238D01*
X321035952Y-74516238D02*
X321131190Y-74468619D01*
%TO.C,MX35*%
X127563095Y-94468619D02*
X127563095Y-93468619D01*
X127563095Y-93468619D02*
X127896428Y-94182904D01*
X127896428Y-94182904D02*
X128229761Y-93468619D01*
X128229761Y-93468619D02*
X128229761Y-94468619D01*
X128610714Y-93468619D02*
X129277380Y-94468619D01*
X129277380Y-93468619D02*
X128610714Y-94468619D01*
X129563095Y-93468619D02*
X130182142Y-93468619D01*
X130182142Y-93468619D02*
X129848809Y-93849571D01*
X129848809Y-93849571D02*
X129991666Y-93849571D01*
X129991666Y-93849571D02*
X130086904Y-93897190D01*
X130086904Y-93897190D02*
X130134523Y-93944809D01*
X130134523Y-93944809D02*
X130182142Y-94040047D01*
X130182142Y-94040047D02*
X130182142Y-94278142D01*
X130182142Y-94278142D02*
X130134523Y-94373380D01*
X130134523Y-94373380D02*
X130086904Y-94421000D01*
X130086904Y-94421000D02*
X129991666Y-94468619D01*
X129991666Y-94468619D02*
X129705952Y-94468619D01*
X129705952Y-94468619D02*
X129610714Y-94421000D01*
X129610714Y-94421000D02*
X129563095Y-94373380D01*
X131086904Y-93468619D02*
X130610714Y-93468619D01*
X130610714Y-93468619D02*
X130563095Y-93944809D01*
X130563095Y-93944809D02*
X130610714Y-93897190D01*
X130610714Y-93897190D02*
X130705952Y-93849571D01*
X130705952Y-93849571D02*
X130944047Y-93849571D01*
X130944047Y-93849571D02*
X131039285Y-93897190D01*
X131039285Y-93897190D02*
X131086904Y-93944809D01*
X131086904Y-93944809D02*
X131134523Y-94040047D01*
X131134523Y-94040047D02*
X131134523Y-94278142D01*
X131134523Y-94278142D02*
X131086904Y-94373380D01*
X131086904Y-94373380D02*
X131039285Y-94421000D01*
X131039285Y-94421000D02*
X130944047Y-94468619D01*
X130944047Y-94468619D02*
X130705952Y-94468619D01*
X130705952Y-94468619D02*
X130610714Y-94421000D01*
X130610714Y-94421000D02*
X130563095Y-94373380D01*
%TO.C,D1*%
X98626905Y-103662619D02*
X98626905Y-102662619D01*
X98626905Y-102662619D02*
X98865000Y-102662619D01*
X98865000Y-102662619D02*
X99007857Y-102710238D01*
X99007857Y-102710238D02*
X99103095Y-102805476D01*
X99103095Y-102805476D02*
X99150714Y-102900714D01*
X99150714Y-102900714D02*
X99198333Y-103091190D01*
X99198333Y-103091190D02*
X99198333Y-103234047D01*
X99198333Y-103234047D02*
X99150714Y-103424523D01*
X99150714Y-103424523D02*
X99103095Y-103519761D01*
X99103095Y-103519761D02*
X99007857Y-103615000D01*
X99007857Y-103615000D02*
X98865000Y-103662619D01*
X98865000Y-103662619D02*
X98626905Y-103662619D01*
X100150714Y-103662619D02*
X99579286Y-103662619D01*
X99865000Y-103662619D02*
X99865000Y-102662619D01*
X99865000Y-102662619D02*
X99769762Y-102805476D01*
X99769762Y-102805476D02*
X99674524Y-102900714D01*
X99674524Y-102900714D02*
X99579286Y-102948333D01*
%TO.C,MX64*%
X273903095Y-132562619D02*
X273903095Y-131562619D01*
X273903095Y-131562619D02*
X274236428Y-132276904D01*
X274236428Y-132276904D02*
X274569761Y-131562619D01*
X274569761Y-131562619D02*
X274569761Y-132562619D01*
X274950714Y-131562619D02*
X275617380Y-132562619D01*
X275617380Y-131562619D02*
X274950714Y-132562619D01*
X276426904Y-131562619D02*
X276236428Y-131562619D01*
X276236428Y-131562619D02*
X276141190Y-131610238D01*
X276141190Y-131610238D02*
X276093571Y-131657857D01*
X276093571Y-131657857D02*
X275998333Y-131800714D01*
X275998333Y-131800714D02*
X275950714Y-131991190D01*
X275950714Y-131991190D02*
X275950714Y-132372142D01*
X275950714Y-132372142D02*
X275998333Y-132467380D01*
X275998333Y-132467380D02*
X276045952Y-132515000D01*
X276045952Y-132515000D02*
X276141190Y-132562619D01*
X276141190Y-132562619D02*
X276331666Y-132562619D01*
X276331666Y-132562619D02*
X276426904Y-132515000D01*
X276426904Y-132515000D02*
X276474523Y-132467380D01*
X276474523Y-132467380D02*
X276522142Y-132372142D01*
X276522142Y-132372142D02*
X276522142Y-132134047D01*
X276522142Y-132134047D02*
X276474523Y-132038809D01*
X276474523Y-132038809D02*
X276426904Y-131991190D01*
X276426904Y-131991190D02*
X276331666Y-131943571D01*
X276331666Y-131943571D02*
X276141190Y-131943571D01*
X276141190Y-131943571D02*
X276045952Y-131991190D01*
X276045952Y-131991190D02*
X275998333Y-132038809D01*
X275998333Y-132038809D02*
X275950714Y-132134047D01*
X277379285Y-131895952D02*
X277379285Y-132562619D01*
X277141190Y-131515000D02*
X276903095Y-132229285D01*
X276903095Y-132229285D02*
X277522142Y-132229285D01*
%TO.C,MX58*%
X305988095Y-113488619D02*
X305988095Y-112488619D01*
X305988095Y-112488619D02*
X306321428Y-113202904D01*
X306321428Y-113202904D02*
X306654761Y-112488619D01*
X306654761Y-112488619D02*
X306654761Y-113488619D01*
X307035714Y-112488619D02*
X307702380Y-113488619D01*
X307702380Y-112488619D02*
X307035714Y-113488619D01*
X308559523Y-112488619D02*
X308083333Y-112488619D01*
X308083333Y-112488619D02*
X308035714Y-112964809D01*
X308035714Y-112964809D02*
X308083333Y-112917190D01*
X308083333Y-112917190D02*
X308178571Y-112869571D01*
X308178571Y-112869571D02*
X308416666Y-112869571D01*
X308416666Y-112869571D02*
X308511904Y-112917190D01*
X308511904Y-112917190D02*
X308559523Y-112964809D01*
X308559523Y-112964809D02*
X308607142Y-113060047D01*
X308607142Y-113060047D02*
X308607142Y-113298142D01*
X308607142Y-113298142D02*
X308559523Y-113393380D01*
X308559523Y-113393380D02*
X308511904Y-113441000D01*
X308511904Y-113441000D02*
X308416666Y-113488619D01*
X308416666Y-113488619D02*
X308178571Y-113488619D01*
X308178571Y-113488619D02*
X308083333Y-113441000D01*
X308083333Y-113441000D02*
X308035714Y-113393380D01*
X309178571Y-112917190D02*
X309083333Y-112869571D01*
X309083333Y-112869571D02*
X309035714Y-112821952D01*
X309035714Y-112821952D02*
X308988095Y-112726714D01*
X308988095Y-112726714D02*
X308988095Y-112679095D01*
X308988095Y-112679095D02*
X309035714Y-112583857D01*
X309035714Y-112583857D02*
X309083333Y-112536238D01*
X309083333Y-112536238D02*
X309178571Y-112488619D01*
X309178571Y-112488619D02*
X309369047Y-112488619D01*
X309369047Y-112488619D02*
X309464285Y-112536238D01*
X309464285Y-112536238D02*
X309511904Y-112583857D01*
X309511904Y-112583857D02*
X309559523Y-112679095D01*
X309559523Y-112679095D02*
X309559523Y-112726714D01*
X309559523Y-112726714D02*
X309511904Y-112821952D01*
X309511904Y-112821952D02*
X309464285Y-112869571D01*
X309464285Y-112869571D02*
X309369047Y-112917190D01*
X309369047Y-112917190D02*
X309178571Y-112917190D01*
X309178571Y-112917190D02*
X309083333Y-112964809D01*
X309083333Y-112964809D02*
X309035714Y-113012428D01*
X309035714Y-113012428D02*
X308988095Y-113107666D01*
X308988095Y-113107666D02*
X308988095Y-113298142D01*
X308988095Y-113298142D02*
X309035714Y-113393380D01*
X309035714Y-113393380D02*
X309083333Y-113441000D01*
X309083333Y-113441000D02*
X309178571Y-113488619D01*
X309178571Y-113488619D02*
X309369047Y-113488619D01*
X309369047Y-113488619D02*
X309464285Y-113441000D01*
X309464285Y-113441000D02*
X309511904Y-113393380D01*
X309511904Y-113393380D02*
X309559523Y-113298142D01*
X309559523Y-113298142D02*
X309559523Y-113107666D01*
X309559523Y-113107666D02*
X309511904Y-113012428D01*
X309511904Y-113012428D02*
X309464285Y-112964809D01*
X309464285Y-112964809D02*
X309369047Y-112917190D01*
%TO.C,MX72*%
X289803095Y-132662619D02*
X289803095Y-131662619D01*
X289803095Y-131662619D02*
X290136428Y-132376904D01*
X290136428Y-132376904D02*
X290469761Y-131662619D01*
X290469761Y-131662619D02*
X290469761Y-132662619D01*
X290850714Y-131662619D02*
X291517380Y-132662619D01*
X291517380Y-131662619D02*
X290850714Y-132662619D01*
X291803095Y-131662619D02*
X292469761Y-131662619D01*
X292469761Y-131662619D02*
X292041190Y-132662619D01*
X292803095Y-131757857D02*
X292850714Y-131710238D01*
X292850714Y-131710238D02*
X292945952Y-131662619D01*
X292945952Y-131662619D02*
X293184047Y-131662619D01*
X293184047Y-131662619D02*
X293279285Y-131710238D01*
X293279285Y-131710238D02*
X293326904Y-131757857D01*
X293326904Y-131757857D02*
X293374523Y-131853095D01*
X293374523Y-131853095D02*
X293374523Y-131948333D01*
X293374523Y-131948333D02*
X293326904Y-132091190D01*
X293326904Y-132091190D02*
X292755476Y-132662619D01*
X292755476Y-132662619D02*
X293374523Y-132662619D01*
%TO.C,MX67*%
X63703095Y-132387619D02*
X63703095Y-131387619D01*
X63703095Y-131387619D02*
X64036428Y-132101904D01*
X64036428Y-132101904D02*
X64369761Y-131387619D01*
X64369761Y-131387619D02*
X64369761Y-132387619D01*
X64750714Y-131387619D02*
X65417380Y-132387619D01*
X65417380Y-131387619D02*
X64750714Y-132387619D01*
X66226904Y-131387619D02*
X66036428Y-131387619D01*
X66036428Y-131387619D02*
X65941190Y-131435238D01*
X65941190Y-131435238D02*
X65893571Y-131482857D01*
X65893571Y-131482857D02*
X65798333Y-131625714D01*
X65798333Y-131625714D02*
X65750714Y-131816190D01*
X65750714Y-131816190D02*
X65750714Y-132197142D01*
X65750714Y-132197142D02*
X65798333Y-132292380D01*
X65798333Y-132292380D02*
X65845952Y-132340000D01*
X65845952Y-132340000D02*
X65941190Y-132387619D01*
X65941190Y-132387619D02*
X66131666Y-132387619D01*
X66131666Y-132387619D02*
X66226904Y-132340000D01*
X66226904Y-132340000D02*
X66274523Y-132292380D01*
X66274523Y-132292380D02*
X66322142Y-132197142D01*
X66322142Y-132197142D02*
X66322142Y-131959047D01*
X66322142Y-131959047D02*
X66274523Y-131863809D01*
X66274523Y-131863809D02*
X66226904Y-131816190D01*
X66226904Y-131816190D02*
X66131666Y-131768571D01*
X66131666Y-131768571D02*
X65941190Y-131768571D01*
X65941190Y-131768571D02*
X65845952Y-131816190D01*
X65845952Y-131816190D02*
X65798333Y-131863809D01*
X65798333Y-131863809D02*
X65750714Y-131959047D01*
X66655476Y-131387619D02*
X67322142Y-131387619D01*
X67322142Y-131387619D02*
X66893571Y-132387619D01*
%TO.C,MX42*%
X260798095Y-94468619D02*
X260798095Y-93468619D01*
X260798095Y-93468619D02*
X261131428Y-94182904D01*
X261131428Y-94182904D02*
X261464761Y-93468619D01*
X261464761Y-93468619D02*
X261464761Y-94468619D01*
X261845714Y-93468619D02*
X262512380Y-94468619D01*
X262512380Y-93468619D02*
X261845714Y-94468619D01*
X263321904Y-93801952D02*
X263321904Y-94468619D01*
X263083809Y-93421000D02*
X262845714Y-94135285D01*
X262845714Y-94135285D02*
X263464761Y-94135285D01*
X263798095Y-93563857D02*
X263845714Y-93516238D01*
X263845714Y-93516238D02*
X263940952Y-93468619D01*
X263940952Y-93468619D02*
X264179047Y-93468619D01*
X264179047Y-93468619D02*
X264274285Y-93516238D01*
X264274285Y-93516238D02*
X264321904Y-93563857D01*
X264321904Y-93563857D02*
X264369523Y-93659095D01*
X264369523Y-93659095D02*
X264369523Y-93754333D01*
X264369523Y-93754333D02*
X264321904Y-93897190D01*
X264321904Y-93897190D02*
X263750476Y-94468619D01*
X263750476Y-94468619D02*
X264369523Y-94468619D01*
%TO.C,MX28*%
X274698095Y-75468619D02*
X274698095Y-74468619D01*
X274698095Y-74468619D02*
X275031428Y-75182904D01*
X275031428Y-75182904D02*
X275364761Y-74468619D01*
X275364761Y-74468619D02*
X275364761Y-75468619D01*
X275745714Y-74468619D02*
X276412380Y-75468619D01*
X276412380Y-74468619D02*
X275745714Y-75468619D01*
X276745714Y-74563857D02*
X276793333Y-74516238D01*
X276793333Y-74516238D02*
X276888571Y-74468619D01*
X276888571Y-74468619D02*
X277126666Y-74468619D01*
X277126666Y-74468619D02*
X277221904Y-74516238D01*
X277221904Y-74516238D02*
X277269523Y-74563857D01*
X277269523Y-74563857D02*
X277317142Y-74659095D01*
X277317142Y-74659095D02*
X277317142Y-74754333D01*
X277317142Y-74754333D02*
X277269523Y-74897190D01*
X277269523Y-74897190D02*
X276698095Y-75468619D01*
X276698095Y-75468619D02*
X277317142Y-75468619D01*
X277888571Y-74897190D02*
X277793333Y-74849571D01*
X277793333Y-74849571D02*
X277745714Y-74801952D01*
X277745714Y-74801952D02*
X277698095Y-74706714D01*
X277698095Y-74706714D02*
X277698095Y-74659095D01*
X277698095Y-74659095D02*
X277745714Y-74563857D01*
X277745714Y-74563857D02*
X277793333Y-74516238D01*
X277793333Y-74516238D02*
X277888571Y-74468619D01*
X277888571Y-74468619D02*
X278079047Y-74468619D01*
X278079047Y-74468619D02*
X278174285Y-74516238D01*
X278174285Y-74516238D02*
X278221904Y-74563857D01*
X278221904Y-74563857D02*
X278269523Y-74659095D01*
X278269523Y-74659095D02*
X278269523Y-74706714D01*
X278269523Y-74706714D02*
X278221904Y-74801952D01*
X278221904Y-74801952D02*
X278174285Y-74849571D01*
X278174285Y-74849571D02*
X278079047Y-74897190D01*
X278079047Y-74897190D02*
X277888571Y-74897190D01*
X277888571Y-74897190D02*
X277793333Y-74944809D01*
X277793333Y-74944809D02*
X277745714Y-74992428D01*
X277745714Y-74992428D02*
X277698095Y-75087666D01*
X277698095Y-75087666D02*
X277698095Y-75278142D01*
X277698095Y-75278142D02*
X277745714Y-75373380D01*
X277745714Y-75373380D02*
X277793333Y-75421000D01*
X277793333Y-75421000D02*
X277888571Y-75468619D01*
X277888571Y-75468619D02*
X278079047Y-75468619D01*
X278079047Y-75468619D02*
X278174285Y-75421000D01*
X278174285Y-75421000D02*
X278221904Y-75373380D01*
X278221904Y-75373380D02*
X278269523Y-75278142D01*
X278269523Y-75278142D02*
X278269523Y-75087666D01*
X278269523Y-75087666D02*
X278221904Y-74992428D01*
X278221904Y-74992428D02*
X278174285Y-74944809D01*
X278174285Y-74944809D02*
X278079047Y-74897190D01*
%TO.C,MX66*%
X321203095Y-132362619D02*
X321203095Y-131362619D01*
X321203095Y-131362619D02*
X321536428Y-132076904D01*
X321536428Y-132076904D02*
X321869761Y-131362619D01*
X321869761Y-131362619D02*
X321869761Y-132362619D01*
X322250714Y-131362619D02*
X322917380Y-132362619D01*
X322917380Y-131362619D02*
X322250714Y-132362619D01*
X323726904Y-131362619D02*
X323536428Y-131362619D01*
X323536428Y-131362619D02*
X323441190Y-131410238D01*
X323441190Y-131410238D02*
X323393571Y-131457857D01*
X323393571Y-131457857D02*
X323298333Y-131600714D01*
X323298333Y-131600714D02*
X323250714Y-131791190D01*
X323250714Y-131791190D02*
X323250714Y-132172142D01*
X323250714Y-132172142D02*
X323298333Y-132267380D01*
X323298333Y-132267380D02*
X323345952Y-132315000D01*
X323345952Y-132315000D02*
X323441190Y-132362619D01*
X323441190Y-132362619D02*
X323631666Y-132362619D01*
X323631666Y-132362619D02*
X323726904Y-132315000D01*
X323726904Y-132315000D02*
X323774523Y-132267380D01*
X323774523Y-132267380D02*
X323822142Y-132172142D01*
X323822142Y-132172142D02*
X323822142Y-131934047D01*
X323822142Y-131934047D02*
X323774523Y-131838809D01*
X323774523Y-131838809D02*
X323726904Y-131791190D01*
X323726904Y-131791190D02*
X323631666Y-131743571D01*
X323631666Y-131743571D02*
X323441190Y-131743571D01*
X323441190Y-131743571D02*
X323345952Y-131791190D01*
X323345952Y-131791190D02*
X323298333Y-131838809D01*
X323298333Y-131838809D02*
X323250714Y-131934047D01*
X324679285Y-131362619D02*
X324488809Y-131362619D01*
X324488809Y-131362619D02*
X324393571Y-131410238D01*
X324393571Y-131410238D02*
X324345952Y-131457857D01*
X324345952Y-131457857D02*
X324250714Y-131600714D01*
X324250714Y-131600714D02*
X324203095Y-131791190D01*
X324203095Y-131791190D02*
X324203095Y-132172142D01*
X324203095Y-132172142D02*
X324250714Y-132267380D01*
X324250714Y-132267380D02*
X324298333Y-132315000D01*
X324298333Y-132315000D02*
X324393571Y-132362619D01*
X324393571Y-132362619D02*
X324584047Y-132362619D01*
X324584047Y-132362619D02*
X324679285Y-132315000D01*
X324679285Y-132315000D02*
X324726904Y-132267380D01*
X324726904Y-132267380D02*
X324774523Y-132172142D01*
X324774523Y-132172142D02*
X324774523Y-131934047D01*
X324774523Y-131934047D02*
X324726904Y-131838809D01*
X324726904Y-131838809D02*
X324679285Y-131791190D01*
X324679285Y-131791190D02*
X324584047Y-131743571D01*
X324584047Y-131743571D02*
X324393571Y-131743571D01*
X324393571Y-131743571D02*
X324298333Y-131791190D01*
X324298333Y-131791190D02*
X324250714Y-131838809D01*
X324250714Y-131838809D02*
X324203095Y-131934047D01*
%TO.C,MX49*%
X156093095Y-113468619D02*
X156093095Y-112468619D01*
X156093095Y-112468619D02*
X156426428Y-113182904D01*
X156426428Y-113182904D02*
X156759761Y-112468619D01*
X156759761Y-112468619D02*
X156759761Y-113468619D01*
X157140714Y-112468619D02*
X157807380Y-113468619D01*
X157807380Y-112468619D02*
X157140714Y-113468619D01*
X158616904Y-112801952D02*
X158616904Y-113468619D01*
X158378809Y-112421000D02*
X158140714Y-113135285D01*
X158140714Y-113135285D02*
X158759761Y-113135285D01*
X159188333Y-113468619D02*
X159378809Y-113468619D01*
X159378809Y-113468619D02*
X159474047Y-113421000D01*
X159474047Y-113421000D02*
X159521666Y-113373380D01*
X159521666Y-113373380D02*
X159616904Y-113230523D01*
X159616904Y-113230523D02*
X159664523Y-113040047D01*
X159664523Y-113040047D02*
X159664523Y-112659095D01*
X159664523Y-112659095D02*
X159616904Y-112563857D01*
X159616904Y-112563857D02*
X159569285Y-112516238D01*
X159569285Y-112516238D02*
X159474047Y-112468619D01*
X159474047Y-112468619D02*
X159283571Y-112468619D01*
X159283571Y-112468619D02*
X159188333Y-112516238D01*
X159188333Y-112516238D02*
X159140714Y-112563857D01*
X159140714Y-112563857D02*
X159093095Y-112659095D01*
X159093095Y-112659095D02*
X159093095Y-112897190D01*
X159093095Y-112897190D02*
X159140714Y-112992428D01*
X159140714Y-112992428D02*
X159188333Y-113040047D01*
X159188333Y-113040047D02*
X159283571Y-113087666D01*
X159283571Y-113087666D02*
X159474047Y-113087666D01*
X159474047Y-113087666D02*
X159569285Y-113040047D01*
X159569285Y-113040047D02*
X159616904Y-112992428D01*
X159616904Y-112992428D02*
X159664523Y-112897190D01*
%TO.C,MX10*%
X227063095Y-56368619D02*
X227063095Y-55368619D01*
X227063095Y-55368619D02*
X227396428Y-56082904D01*
X227396428Y-56082904D02*
X227729761Y-55368619D01*
X227729761Y-55368619D02*
X227729761Y-56368619D01*
X228110714Y-55368619D02*
X228777380Y-56368619D01*
X228777380Y-55368619D02*
X228110714Y-56368619D01*
X229682142Y-56368619D02*
X229110714Y-56368619D01*
X229396428Y-56368619D02*
X229396428Y-55368619D01*
X229396428Y-55368619D02*
X229301190Y-55511476D01*
X229301190Y-55511476D02*
X229205952Y-55606714D01*
X229205952Y-55606714D02*
X229110714Y-55654333D01*
X230301190Y-55368619D02*
X230396428Y-55368619D01*
X230396428Y-55368619D02*
X230491666Y-55416238D01*
X230491666Y-55416238D02*
X230539285Y-55463857D01*
X230539285Y-55463857D02*
X230586904Y-55559095D01*
X230586904Y-55559095D02*
X230634523Y-55749571D01*
X230634523Y-55749571D02*
X230634523Y-55987666D01*
X230634523Y-55987666D02*
X230586904Y-56178142D01*
X230586904Y-56178142D02*
X230539285Y-56273380D01*
X230539285Y-56273380D02*
X230491666Y-56321000D01*
X230491666Y-56321000D02*
X230396428Y-56368619D01*
X230396428Y-56368619D02*
X230301190Y-56368619D01*
X230301190Y-56368619D02*
X230205952Y-56321000D01*
X230205952Y-56321000D02*
X230158333Y-56273380D01*
X230158333Y-56273380D02*
X230110714Y-56178142D01*
X230110714Y-56178142D02*
X230063095Y-55987666D01*
X230063095Y-55987666D02*
X230063095Y-55749571D01*
X230063095Y-55749571D02*
X230110714Y-55559095D01*
X230110714Y-55559095D02*
X230158333Y-55463857D01*
X230158333Y-55463857D02*
X230205952Y-55416238D01*
X230205952Y-55416238D02*
X230301190Y-55368619D01*
%TO.C,MX15*%
X320203095Y-56312619D02*
X320203095Y-55312619D01*
X320203095Y-55312619D02*
X320536428Y-56026904D01*
X320536428Y-56026904D02*
X320869761Y-55312619D01*
X320869761Y-55312619D02*
X320869761Y-56312619D01*
X321250714Y-55312619D02*
X321917380Y-56312619D01*
X321917380Y-55312619D02*
X321250714Y-56312619D01*
X322822142Y-56312619D02*
X322250714Y-56312619D01*
X322536428Y-56312619D02*
X322536428Y-55312619D01*
X322536428Y-55312619D02*
X322441190Y-55455476D01*
X322441190Y-55455476D02*
X322345952Y-55550714D01*
X322345952Y-55550714D02*
X322250714Y-55598333D01*
X323726904Y-55312619D02*
X323250714Y-55312619D01*
X323250714Y-55312619D02*
X323203095Y-55788809D01*
X323203095Y-55788809D02*
X323250714Y-55741190D01*
X323250714Y-55741190D02*
X323345952Y-55693571D01*
X323345952Y-55693571D02*
X323584047Y-55693571D01*
X323584047Y-55693571D02*
X323679285Y-55741190D01*
X323679285Y-55741190D02*
X323726904Y-55788809D01*
X323726904Y-55788809D02*
X323774523Y-55884047D01*
X323774523Y-55884047D02*
X323774523Y-56122142D01*
X323774523Y-56122142D02*
X323726904Y-56217380D01*
X323726904Y-56217380D02*
X323679285Y-56265000D01*
X323679285Y-56265000D02*
X323584047Y-56312619D01*
X323584047Y-56312619D02*
X323345952Y-56312619D01*
X323345952Y-56312619D02*
X323250714Y-56265000D01*
X323250714Y-56265000D02*
X323203095Y-56217380D01*
%TO.C,MX21*%
X141463095Y-75468619D02*
X141463095Y-74468619D01*
X141463095Y-74468619D02*
X141796428Y-75182904D01*
X141796428Y-75182904D02*
X142129761Y-74468619D01*
X142129761Y-74468619D02*
X142129761Y-75468619D01*
X142510714Y-74468619D02*
X143177380Y-75468619D01*
X143177380Y-74468619D02*
X142510714Y-75468619D01*
X143510714Y-74563857D02*
X143558333Y-74516238D01*
X143558333Y-74516238D02*
X143653571Y-74468619D01*
X143653571Y-74468619D02*
X143891666Y-74468619D01*
X143891666Y-74468619D02*
X143986904Y-74516238D01*
X143986904Y-74516238D02*
X144034523Y-74563857D01*
X144034523Y-74563857D02*
X144082142Y-74659095D01*
X144082142Y-74659095D02*
X144082142Y-74754333D01*
X144082142Y-74754333D02*
X144034523Y-74897190D01*
X144034523Y-74897190D02*
X143463095Y-75468619D01*
X143463095Y-75468619D02*
X144082142Y-75468619D01*
X145034523Y-75468619D02*
X144463095Y-75468619D01*
X144748809Y-75468619D02*
X144748809Y-74468619D01*
X144748809Y-74468619D02*
X144653571Y-74611476D01*
X144653571Y-74611476D02*
X144558333Y-74706714D01*
X144558333Y-74706714D02*
X144463095Y-74754333D01*
%TO.C,MX43*%
X279798095Y-94468619D02*
X279798095Y-93468619D01*
X279798095Y-93468619D02*
X280131428Y-94182904D01*
X280131428Y-94182904D02*
X280464761Y-93468619D01*
X280464761Y-93468619D02*
X280464761Y-94468619D01*
X280845714Y-93468619D02*
X281512380Y-94468619D01*
X281512380Y-93468619D02*
X280845714Y-94468619D01*
X282321904Y-93801952D02*
X282321904Y-94468619D01*
X282083809Y-93421000D02*
X281845714Y-94135285D01*
X281845714Y-94135285D02*
X282464761Y-94135285D01*
X282750476Y-93468619D02*
X283369523Y-93468619D01*
X283369523Y-93468619D02*
X283036190Y-93849571D01*
X283036190Y-93849571D02*
X283179047Y-93849571D01*
X283179047Y-93849571D02*
X283274285Y-93897190D01*
X283274285Y-93897190D02*
X283321904Y-93944809D01*
X283321904Y-93944809D02*
X283369523Y-94040047D01*
X283369523Y-94040047D02*
X283369523Y-94278142D01*
X283369523Y-94278142D02*
X283321904Y-94373380D01*
X283321904Y-94373380D02*
X283274285Y-94421000D01*
X283274285Y-94421000D02*
X283179047Y-94468619D01*
X283179047Y-94468619D02*
X282893333Y-94468619D01*
X282893333Y-94468619D02*
X282798095Y-94421000D01*
X282798095Y-94421000D02*
X282750476Y-94373380D01*
%TO.C,MX39*%
X203748095Y-94468619D02*
X203748095Y-93468619D01*
X203748095Y-93468619D02*
X204081428Y-94182904D01*
X204081428Y-94182904D02*
X204414761Y-93468619D01*
X204414761Y-93468619D02*
X204414761Y-94468619D01*
X204795714Y-93468619D02*
X205462380Y-94468619D01*
X205462380Y-93468619D02*
X204795714Y-94468619D01*
X205748095Y-93468619D02*
X206367142Y-93468619D01*
X206367142Y-93468619D02*
X206033809Y-93849571D01*
X206033809Y-93849571D02*
X206176666Y-93849571D01*
X206176666Y-93849571D02*
X206271904Y-93897190D01*
X206271904Y-93897190D02*
X206319523Y-93944809D01*
X206319523Y-93944809D02*
X206367142Y-94040047D01*
X206367142Y-94040047D02*
X206367142Y-94278142D01*
X206367142Y-94278142D02*
X206319523Y-94373380D01*
X206319523Y-94373380D02*
X206271904Y-94421000D01*
X206271904Y-94421000D02*
X206176666Y-94468619D01*
X206176666Y-94468619D02*
X205890952Y-94468619D01*
X205890952Y-94468619D02*
X205795714Y-94421000D01*
X205795714Y-94421000D02*
X205748095Y-94373380D01*
X206843333Y-94468619D02*
X207033809Y-94468619D01*
X207033809Y-94468619D02*
X207129047Y-94421000D01*
X207129047Y-94421000D02*
X207176666Y-94373380D01*
X207176666Y-94373380D02*
X207271904Y-94230523D01*
X207271904Y-94230523D02*
X207319523Y-94040047D01*
X207319523Y-94040047D02*
X207319523Y-93659095D01*
X207319523Y-93659095D02*
X207271904Y-93563857D01*
X207271904Y-93563857D02*
X207224285Y-93516238D01*
X207224285Y-93516238D02*
X207129047Y-93468619D01*
X207129047Y-93468619D02*
X206938571Y-93468619D01*
X206938571Y-93468619D02*
X206843333Y-93516238D01*
X206843333Y-93516238D02*
X206795714Y-93563857D01*
X206795714Y-93563857D02*
X206748095Y-93659095D01*
X206748095Y-93659095D02*
X206748095Y-93897190D01*
X206748095Y-93897190D02*
X206795714Y-93992428D01*
X206795714Y-93992428D02*
X206843333Y-94040047D01*
X206843333Y-94040047D02*
X206938571Y-94087666D01*
X206938571Y-94087666D02*
X207129047Y-94087666D01*
X207129047Y-94087666D02*
X207224285Y-94040047D01*
X207224285Y-94040047D02*
X207271904Y-93992428D01*
X207271904Y-93992428D02*
X207319523Y-93897190D01*
%TO.C,MX29*%
X293963095Y-75468619D02*
X293963095Y-74468619D01*
X293963095Y-74468619D02*
X294296428Y-75182904D01*
X294296428Y-75182904D02*
X294629761Y-74468619D01*
X294629761Y-74468619D02*
X294629761Y-75468619D01*
X295010714Y-74468619D02*
X295677380Y-75468619D01*
X295677380Y-74468619D02*
X295010714Y-75468619D01*
X296010714Y-74563857D02*
X296058333Y-74516238D01*
X296058333Y-74516238D02*
X296153571Y-74468619D01*
X296153571Y-74468619D02*
X296391666Y-74468619D01*
X296391666Y-74468619D02*
X296486904Y-74516238D01*
X296486904Y-74516238D02*
X296534523Y-74563857D01*
X296534523Y-74563857D02*
X296582142Y-74659095D01*
X296582142Y-74659095D02*
X296582142Y-74754333D01*
X296582142Y-74754333D02*
X296534523Y-74897190D01*
X296534523Y-74897190D02*
X295963095Y-75468619D01*
X295963095Y-75468619D02*
X296582142Y-75468619D01*
X297058333Y-75468619D02*
X297248809Y-75468619D01*
X297248809Y-75468619D02*
X297344047Y-75421000D01*
X297344047Y-75421000D02*
X297391666Y-75373380D01*
X297391666Y-75373380D02*
X297486904Y-75230523D01*
X297486904Y-75230523D02*
X297534523Y-75040047D01*
X297534523Y-75040047D02*
X297534523Y-74659095D01*
X297534523Y-74659095D02*
X297486904Y-74563857D01*
X297486904Y-74563857D02*
X297439285Y-74516238D01*
X297439285Y-74516238D02*
X297344047Y-74468619D01*
X297344047Y-74468619D02*
X297153571Y-74468619D01*
X297153571Y-74468619D02*
X297058333Y-74516238D01*
X297058333Y-74516238D02*
X297010714Y-74563857D01*
X297010714Y-74563857D02*
X296963095Y-74659095D01*
X296963095Y-74659095D02*
X296963095Y-74897190D01*
X296963095Y-74897190D02*
X297010714Y-74992428D01*
X297010714Y-74992428D02*
X297058333Y-75040047D01*
X297058333Y-75040047D02*
X297153571Y-75087666D01*
X297153571Y-75087666D02*
X297344047Y-75087666D01*
X297344047Y-75087666D02*
X297439285Y-75040047D01*
X297439285Y-75040047D02*
X297486904Y-74992428D01*
X297486904Y-74992428D02*
X297534523Y-74897190D01*
%TO.C,MX73*%
X314303095Y-132262619D02*
X314303095Y-131262619D01*
X314303095Y-131262619D02*
X314636428Y-131976904D01*
X314636428Y-131976904D02*
X314969761Y-131262619D01*
X314969761Y-131262619D02*
X314969761Y-132262619D01*
X315350714Y-131262619D02*
X316017380Y-132262619D01*
X316017380Y-131262619D02*
X315350714Y-132262619D01*
X316303095Y-131262619D02*
X316969761Y-131262619D01*
X316969761Y-131262619D02*
X316541190Y-132262619D01*
X317255476Y-131262619D02*
X317874523Y-131262619D01*
X317874523Y-131262619D02*
X317541190Y-131643571D01*
X317541190Y-131643571D02*
X317684047Y-131643571D01*
X317684047Y-131643571D02*
X317779285Y-131691190D01*
X317779285Y-131691190D02*
X317826904Y-131738809D01*
X317826904Y-131738809D02*
X317874523Y-131834047D01*
X317874523Y-131834047D02*
X317874523Y-132072142D01*
X317874523Y-132072142D02*
X317826904Y-132167380D01*
X317826904Y-132167380D02*
X317779285Y-132215000D01*
X317779285Y-132215000D02*
X317684047Y-132262619D01*
X317684047Y-132262619D02*
X317398333Y-132262619D01*
X317398333Y-132262619D02*
X317303095Y-132215000D01*
X317303095Y-132215000D02*
X317255476Y-132167380D01*
%TO.C,MX60*%
X79603095Y-132612619D02*
X79603095Y-131612619D01*
X79603095Y-131612619D02*
X79936428Y-132326904D01*
X79936428Y-132326904D02*
X80269761Y-131612619D01*
X80269761Y-131612619D02*
X80269761Y-132612619D01*
X80650714Y-131612619D02*
X81317380Y-132612619D01*
X81317380Y-131612619D02*
X80650714Y-132612619D01*
X82126904Y-131612619D02*
X81936428Y-131612619D01*
X81936428Y-131612619D02*
X81841190Y-131660238D01*
X81841190Y-131660238D02*
X81793571Y-131707857D01*
X81793571Y-131707857D02*
X81698333Y-131850714D01*
X81698333Y-131850714D02*
X81650714Y-132041190D01*
X81650714Y-132041190D02*
X81650714Y-132422142D01*
X81650714Y-132422142D02*
X81698333Y-132517380D01*
X81698333Y-132517380D02*
X81745952Y-132565000D01*
X81745952Y-132565000D02*
X81841190Y-132612619D01*
X81841190Y-132612619D02*
X82031666Y-132612619D01*
X82031666Y-132612619D02*
X82126904Y-132565000D01*
X82126904Y-132565000D02*
X82174523Y-132517380D01*
X82174523Y-132517380D02*
X82222142Y-132422142D01*
X82222142Y-132422142D02*
X82222142Y-132184047D01*
X82222142Y-132184047D02*
X82174523Y-132088809D01*
X82174523Y-132088809D02*
X82126904Y-132041190D01*
X82126904Y-132041190D02*
X82031666Y-131993571D01*
X82031666Y-131993571D02*
X81841190Y-131993571D01*
X81841190Y-131993571D02*
X81745952Y-132041190D01*
X81745952Y-132041190D02*
X81698333Y-132088809D01*
X81698333Y-132088809D02*
X81650714Y-132184047D01*
X82841190Y-131612619D02*
X82936428Y-131612619D01*
X82936428Y-131612619D02*
X83031666Y-131660238D01*
X83031666Y-131660238D02*
X83079285Y-131707857D01*
X83079285Y-131707857D02*
X83126904Y-131803095D01*
X83126904Y-131803095D02*
X83174523Y-131993571D01*
X83174523Y-131993571D02*
X83174523Y-132231666D01*
X83174523Y-132231666D02*
X83126904Y-132422142D01*
X83126904Y-132422142D02*
X83079285Y-132517380D01*
X83079285Y-132517380D02*
X83031666Y-132565000D01*
X83031666Y-132565000D02*
X82936428Y-132612619D01*
X82936428Y-132612619D02*
X82841190Y-132612619D01*
X82841190Y-132612619D02*
X82745952Y-132565000D01*
X82745952Y-132565000D02*
X82698333Y-132517380D01*
X82698333Y-132517380D02*
X82650714Y-132422142D01*
X82650714Y-132422142D02*
X82603095Y-132231666D01*
X82603095Y-132231666D02*
X82603095Y-131993571D01*
X82603095Y-131993571D02*
X82650714Y-131803095D01*
X82650714Y-131803095D02*
X82698333Y-131707857D01*
X82698333Y-131707857D02*
X82745952Y-131660238D01*
X82745952Y-131660238D02*
X82841190Y-131612619D01*
%TO.C,MX23*%
X179463095Y-75468619D02*
X179463095Y-74468619D01*
X179463095Y-74468619D02*
X179796428Y-75182904D01*
X179796428Y-75182904D02*
X180129761Y-74468619D01*
X180129761Y-74468619D02*
X180129761Y-75468619D01*
X180510714Y-74468619D02*
X181177380Y-75468619D01*
X181177380Y-74468619D02*
X180510714Y-75468619D01*
X181510714Y-74563857D02*
X181558333Y-74516238D01*
X181558333Y-74516238D02*
X181653571Y-74468619D01*
X181653571Y-74468619D02*
X181891666Y-74468619D01*
X181891666Y-74468619D02*
X181986904Y-74516238D01*
X181986904Y-74516238D02*
X182034523Y-74563857D01*
X182034523Y-74563857D02*
X182082142Y-74659095D01*
X182082142Y-74659095D02*
X182082142Y-74754333D01*
X182082142Y-74754333D02*
X182034523Y-74897190D01*
X182034523Y-74897190D02*
X181463095Y-75468619D01*
X181463095Y-75468619D02*
X182082142Y-75468619D01*
X182415476Y-74468619D02*
X183034523Y-74468619D01*
X183034523Y-74468619D02*
X182701190Y-74849571D01*
X182701190Y-74849571D02*
X182844047Y-74849571D01*
X182844047Y-74849571D02*
X182939285Y-74897190D01*
X182939285Y-74897190D02*
X182986904Y-74944809D01*
X182986904Y-74944809D02*
X183034523Y-75040047D01*
X183034523Y-75040047D02*
X183034523Y-75278142D01*
X183034523Y-75278142D02*
X182986904Y-75373380D01*
X182986904Y-75373380D02*
X182939285Y-75421000D01*
X182939285Y-75421000D02*
X182844047Y-75468619D01*
X182844047Y-75468619D02*
X182558333Y-75468619D01*
X182558333Y-75468619D02*
X182463095Y-75421000D01*
X182463095Y-75421000D02*
X182415476Y-75373380D01*
%TO.C,MX46*%
X98303095Y-129262619D02*
X98303095Y-128262619D01*
X98303095Y-128262619D02*
X98636428Y-128976904D01*
X98636428Y-128976904D02*
X98969761Y-128262619D01*
X98969761Y-128262619D02*
X98969761Y-129262619D01*
X99350714Y-128262619D02*
X100017380Y-129262619D01*
X100017380Y-128262619D02*
X99350714Y-129262619D01*
X100826904Y-128595952D02*
X100826904Y-129262619D01*
X100588809Y-128215000D02*
X100350714Y-128929285D01*
X100350714Y-128929285D02*
X100969761Y-128929285D01*
X101779285Y-128262619D02*
X101588809Y-128262619D01*
X101588809Y-128262619D02*
X101493571Y-128310238D01*
X101493571Y-128310238D02*
X101445952Y-128357857D01*
X101445952Y-128357857D02*
X101350714Y-128500714D01*
X101350714Y-128500714D02*
X101303095Y-128691190D01*
X101303095Y-128691190D02*
X101303095Y-129072142D01*
X101303095Y-129072142D02*
X101350714Y-129167380D01*
X101350714Y-129167380D02*
X101398333Y-129215000D01*
X101398333Y-129215000D02*
X101493571Y-129262619D01*
X101493571Y-129262619D02*
X101684047Y-129262619D01*
X101684047Y-129262619D02*
X101779285Y-129215000D01*
X101779285Y-129215000D02*
X101826904Y-129167380D01*
X101826904Y-129167380D02*
X101874523Y-129072142D01*
X101874523Y-129072142D02*
X101874523Y-128834047D01*
X101874523Y-128834047D02*
X101826904Y-128738809D01*
X101826904Y-128738809D02*
X101779285Y-128691190D01*
X101779285Y-128691190D02*
X101684047Y-128643571D01*
X101684047Y-128643571D02*
X101493571Y-128643571D01*
X101493571Y-128643571D02*
X101398333Y-128691190D01*
X101398333Y-128691190D02*
X101350714Y-128738809D01*
X101350714Y-128738809D02*
X101303095Y-128834047D01*
%TO.C,MX11*%
X246163095Y-56368619D02*
X246163095Y-55368619D01*
X246163095Y-55368619D02*
X246496428Y-56082904D01*
X246496428Y-56082904D02*
X246829761Y-55368619D01*
X246829761Y-55368619D02*
X246829761Y-56368619D01*
X247210714Y-55368619D02*
X247877380Y-56368619D01*
X247877380Y-55368619D02*
X247210714Y-56368619D01*
X248782142Y-56368619D02*
X248210714Y-56368619D01*
X248496428Y-56368619D02*
X248496428Y-55368619D01*
X248496428Y-55368619D02*
X248401190Y-55511476D01*
X248401190Y-55511476D02*
X248305952Y-55606714D01*
X248305952Y-55606714D02*
X248210714Y-55654333D01*
X249734523Y-56368619D02*
X249163095Y-56368619D01*
X249448809Y-56368619D02*
X249448809Y-55368619D01*
X249448809Y-55368619D02*
X249353571Y-55511476D01*
X249353571Y-55511476D02*
X249258333Y-55606714D01*
X249258333Y-55606714D02*
X249163095Y-55654333D01*
%TO.C,MX9*%
X208439286Y-56368619D02*
X208439286Y-55368619D01*
X208439286Y-55368619D02*
X208772619Y-56082904D01*
X208772619Y-56082904D02*
X209105952Y-55368619D01*
X209105952Y-55368619D02*
X209105952Y-56368619D01*
X209486905Y-55368619D02*
X210153571Y-56368619D01*
X210153571Y-55368619D02*
X209486905Y-56368619D01*
X210582143Y-56368619D02*
X210772619Y-56368619D01*
X210772619Y-56368619D02*
X210867857Y-56321000D01*
X210867857Y-56321000D02*
X210915476Y-56273380D01*
X210915476Y-56273380D02*
X211010714Y-56130523D01*
X211010714Y-56130523D02*
X211058333Y-55940047D01*
X211058333Y-55940047D02*
X211058333Y-55559095D01*
X211058333Y-55559095D02*
X211010714Y-55463857D01*
X211010714Y-55463857D02*
X210963095Y-55416238D01*
X210963095Y-55416238D02*
X210867857Y-55368619D01*
X210867857Y-55368619D02*
X210677381Y-55368619D01*
X210677381Y-55368619D02*
X210582143Y-55416238D01*
X210582143Y-55416238D02*
X210534524Y-55463857D01*
X210534524Y-55463857D02*
X210486905Y-55559095D01*
X210486905Y-55559095D02*
X210486905Y-55797190D01*
X210486905Y-55797190D02*
X210534524Y-55892428D01*
X210534524Y-55892428D02*
X210582143Y-55940047D01*
X210582143Y-55940047D02*
X210677381Y-55987666D01*
X210677381Y-55987666D02*
X210867857Y-55987666D01*
X210867857Y-55987666D02*
X210963095Y-55940047D01*
X210963095Y-55940047D02*
X211010714Y-55892428D01*
X211010714Y-55892428D02*
X211058333Y-55797190D01*
%TO.C,MX12*%
X265263095Y-56368619D02*
X265263095Y-55368619D01*
X265263095Y-55368619D02*
X265596428Y-56082904D01*
X265596428Y-56082904D02*
X265929761Y-55368619D01*
X265929761Y-55368619D02*
X265929761Y-56368619D01*
X266310714Y-55368619D02*
X266977380Y-56368619D01*
X266977380Y-55368619D02*
X266310714Y-56368619D01*
X267882142Y-56368619D02*
X267310714Y-56368619D01*
X267596428Y-56368619D02*
X267596428Y-55368619D01*
X267596428Y-55368619D02*
X267501190Y-55511476D01*
X267501190Y-55511476D02*
X267405952Y-55606714D01*
X267405952Y-55606714D02*
X267310714Y-55654333D01*
X268263095Y-55463857D02*
X268310714Y-55416238D01*
X268310714Y-55416238D02*
X268405952Y-55368619D01*
X268405952Y-55368619D02*
X268644047Y-55368619D01*
X268644047Y-55368619D02*
X268739285Y-55416238D01*
X268739285Y-55416238D02*
X268786904Y-55463857D01*
X268786904Y-55463857D02*
X268834523Y-55559095D01*
X268834523Y-55559095D02*
X268834523Y-55654333D01*
X268834523Y-55654333D02*
X268786904Y-55797190D01*
X268786904Y-55797190D02*
X268215476Y-56368619D01*
X268215476Y-56368619D02*
X268834523Y-56368619D01*
%TO.C,MX50*%
X175173095Y-113468619D02*
X175173095Y-112468619D01*
X175173095Y-112468619D02*
X175506428Y-113182904D01*
X175506428Y-113182904D02*
X175839761Y-112468619D01*
X175839761Y-112468619D02*
X175839761Y-113468619D01*
X176220714Y-112468619D02*
X176887380Y-113468619D01*
X176887380Y-112468619D02*
X176220714Y-113468619D01*
X177744523Y-112468619D02*
X177268333Y-112468619D01*
X177268333Y-112468619D02*
X177220714Y-112944809D01*
X177220714Y-112944809D02*
X177268333Y-112897190D01*
X177268333Y-112897190D02*
X177363571Y-112849571D01*
X177363571Y-112849571D02*
X177601666Y-112849571D01*
X177601666Y-112849571D02*
X177696904Y-112897190D01*
X177696904Y-112897190D02*
X177744523Y-112944809D01*
X177744523Y-112944809D02*
X177792142Y-113040047D01*
X177792142Y-113040047D02*
X177792142Y-113278142D01*
X177792142Y-113278142D02*
X177744523Y-113373380D01*
X177744523Y-113373380D02*
X177696904Y-113421000D01*
X177696904Y-113421000D02*
X177601666Y-113468619D01*
X177601666Y-113468619D02*
X177363571Y-113468619D01*
X177363571Y-113468619D02*
X177268333Y-113421000D01*
X177268333Y-113421000D02*
X177220714Y-113373380D01*
X178411190Y-112468619D02*
X178506428Y-112468619D01*
X178506428Y-112468619D02*
X178601666Y-112516238D01*
X178601666Y-112516238D02*
X178649285Y-112563857D01*
X178649285Y-112563857D02*
X178696904Y-112659095D01*
X178696904Y-112659095D02*
X178744523Y-112849571D01*
X178744523Y-112849571D02*
X178744523Y-113087666D01*
X178744523Y-113087666D02*
X178696904Y-113278142D01*
X178696904Y-113278142D02*
X178649285Y-113373380D01*
X178649285Y-113373380D02*
X178601666Y-113421000D01*
X178601666Y-113421000D02*
X178506428Y-113468619D01*
X178506428Y-113468619D02*
X178411190Y-113468619D01*
X178411190Y-113468619D02*
X178315952Y-113421000D01*
X178315952Y-113421000D02*
X178268333Y-113373380D01*
X178268333Y-113373380D02*
X178220714Y-113278142D01*
X178220714Y-113278142D02*
X178173095Y-113087666D01*
X178173095Y-113087666D02*
X178173095Y-112849571D01*
X178173095Y-112849571D02*
X178220714Y-112659095D01*
X178220714Y-112659095D02*
X178268333Y-112563857D01*
X178268333Y-112563857D02*
X178315952Y-112516238D01*
X178315952Y-112516238D02*
X178411190Y-112468619D01*
%TO.C,MX6*%
X151579286Y-56462619D02*
X151579286Y-55462619D01*
X151579286Y-55462619D02*
X151912619Y-56176904D01*
X151912619Y-56176904D02*
X152245952Y-55462619D01*
X152245952Y-55462619D02*
X152245952Y-56462619D01*
X152626905Y-55462619D02*
X153293571Y-56462619D01*
X153293571Y-55462619D02*
X152626905Y-56462619D01*
X154103095Y-55462619D02*
X153912619Y-55462619D01*
X153912619Y-55462619D02*
X153817381Y-55510238D01*
X153817381Y-55510238D02*
X153769762Y-55557857D01*
X153769762Y-55557857D02*
X153674524Y-55700714D01*
X153674524Y-55700714D02*
X153626905Y-55891190D01*
X153626905Y-55891190D02*
X153626905Y-56272142D01*
X153626905Y-56272142D02*
X153674524Y-56367380D01*
X153674524Y-56367380D02*
X153722143Y-56415000D01*
X153722143Y-56415000D02*
X153817381Y-56462619D01*
X153817381Y-56462619D02*
X154007857Y-56462619D01*
X154007857Y-56462619D02*
X154103095Y-56415000D01*
X154103095Y-56415000D02*
X154150714Y-56367380D01*
X154150714Y-56367380D02*
X154198333Y-56272142D01*
X154198333Y-56272142D02*
X154198333Y-56034047D01*
X154198333Y-56034047D02*
X154150714Y-55938809D01*
X154150714Y-55938809D02*
X154103095Y-55891190D01*
X154103095Y-55891190D02*
X154007857Y-55843571D01*
X154007857Y-55843571D02*
X153817381Y-55843571D01*
X153817381Y-55843571D02*
X153722143Y-55891190D01*
X153722143Y-55891190D02*
X153674524Y-55938809D01*
X153674524Y-55938809D02*
X153626905Y-56034047D01*
%TO.C,D2*%
X101226905Y-103662619D02*
X101226905Y-102662619D01*
X101226905Y-102662619D02*
X101465000Y-102662619D01*
X101465000Y-102662619D02*
X101607857Y-102710238D01*
X101607857Y-102710238D02*
X101703095Y-102805476D01*
X101703095Y-102805476D02*
X101750714Y-102900714D01*
X101750714Y-102900714D02*
X101798333Y-103091190D01*
X101798333Y-103091190D02*
X101798333Y-103234047D01*
X101798333Y-103234047D02*
X101750714Y-103424523D01*
X101750714Y-103424523D02*
X101703095Y-103519761D01*
X101703095Y-103519761D02*
X101607857Y-103615000D01*
X101607857Y-103615000D02*
X101465000Y-103662619D01*
X101465000Y-103662619D02*
X101226905Y-103662619D01*
X102179286Y-102757857D02*
X102226905Y-102710238D01*
X102226905Y-102710238D02*
X102322143Y-102662619D01*
X102322143Y-102662619D02*
X102560238Y-102662619D01*
X102560238Y-102662619D02*
X102655476Y-102710238D01*
X102655476Y-102710238D02*
X102703095Y-102757857D01*
X102703095Y-102757857D02*
X102750714Y-102853095D01*
X102750714Y-102853095D02*
X102750714Y-102948333D01*
X102750714Y-102948333D02*
X102703095Y-103091190D01*
X102703095Y-103091190D02*
X102131667Y-103662619D01*
X102131667Y-103662619D02*
X102750714Y-103662619D01*
%TO.C,MX1*%
X56439286Y-56368619D02*
X56439286Y-55368619D01*
X56439286Y-55368619D02*
X56772619Y-56082904D01*
X56772619Y-56082904D02*
X57105952Y-55368619D01*
X57105952Y-55368619D02*
X57105952Y-56368619D01*
X57486905Y-55368619D02*
X58153571Y-56368619D01*
X58153571Y-55368619D02*
X57486905Y-56368619D01*
X59058333Y-56368619D02*
X58486905Y-56368619D01*
X58772619Y-56368619D02*
X58772619Y-55368619D01*
X58772619Y-55368619D02*
X58677381Y-55511476D01*
X58677381Y-55511476D02*
X58582143Y-55606714D01*
X58582143Y-55606714D02*
X58486905Y-55654333D01*
%TO.C,MX54*%
X251433095Y-113468619D02*
X251433095Y-112468619D01*
X251433095Y-112468619D02*
X251766428Y-113182904D01*
X251766428Y-113182904D02*
X252099761Y-112468619D01*
X252099761Y-112468619D02*
X252099761Y-113468619D01*
X252480714Y-112468619D02*
X253147380Y-113468619D01*
X253147380Y-112468619D02*
X252480714Y-113468619D01*
X254004523Y-112468619D02*
X253528333Y-112468619D01*
X253528333Y-112468619D02*
X253480714Y-112944809D01*
X253480714Y-112944809D02*
X253528333Y-112897190D01*
X253528333Y-112897190D02*
X253623571Y-112849571D01*
X253623571Y-112849571D02*
X253861666Y-112849571D01*
X253861666Y-112849571D02*
X253956904Y-112897190D01*
X253956904Y-112897190D02*
X254004523Y-112944809D01*
X254004523Y-112944809D02*
X254052142Y-113040047D01*
X254052142Y-113040047D02*
X254052142Y-113278142D01*
X254052142Y-113278142D02*
X254004523Y-113373380D01*
X254004523Y-113373380D02*
X253956904Y-113421000D01*
X253956904Y-113421000D02*
X253861666Y-113468619D01*
X253861666Y-113468619D02*
X253623571Y-113468619D01*
X253623571Y-113468619D02*
X253528333Y-113421000D01*
X253528333Y-113421000D02*
X253480714Y-113373380D01*
X254909285Y-112801952D02*
X254909285Y-113468619D01*
X254671190Y-112421000D02*
X254433095Y-113135285D01*
X254433095Y-113135285D02*
X255052142Y-113135285D01*
%TO.C,MX4*%
X113439286Y-56368619D02*
X113439286Y-55368619D01*
X113439286Y-55368619D02*
X113772619Y-56082904D01*
X113772619Y-56082904D02*
X114105952Y-55368619D01*
X114105952Y-55368619D02*
X114105952Y-56368619D01*
X114486905Y-55368619D02*
X115153571Y-56368619D01*
X115153571Y-55368619D02*
X114486905Y-56368619D01*
X115963095Y-55701952D02*
X115963095Y-56368619D01*
X115725000Y-55321000D02*
X115486905Y-56035285D01*
X115486905Y-56035285D02*
X116105952Y-56035285D01*
%TO.C,MX22*%
X160463095Y-75468619D02*
X160463095Y-74468619D01*
X160463095Y-74468619D02*
X160796428Y-75182904D01*
X160796428Y-75182904D02*
X161129761Y-74468619D01*
X161129761Y-74468619D02*
X161129761Y-75468619D01*
X161510714Y-74468619D02*
X162177380Y-75468619D01*
X162177380Y-74468619D02*
X161510714Y-75468619D01*
X162510714Y-74563857D02*
X162558333Y-74516238D01*
X162558333Y-74516238D02*
X162653571Y-74468619D01*
X162653571Y-74468619D02*
X162891666Y-74468619D01*
X162891666Y-74468619D02*
X162986904Y-74516238D01*
X162986904Y-74516238D02*
X163034523Y-74563857D01*
X163034523Y-74563857D02*
X163082142Y-74659095D01*
X163082142Y-74659095D02*
X163082142Y-74754333D01*
X163082142Y-74754333D02*
X163034523Y-74897190D01*
X163034523Y-74897190D02*
X162463095Y-75468619D01*
X162463095Y-75468619D02*
X163082142Y-75468619D01*
X163463095Y-74563857D02*
X163510714Y-74516238D01*
X163510714Y-74516238D02*
X163605952Y-74468619D01*
X163605952Y-74468619D02*
X163844047Y-74468619D01*
X163844047Y-74468619D02*
X163939285Y-74516238D01*
X163939285Y-74516238D02*
X163986904Y-74563857D01*
X163986904Y-74563857D02*
X164034523Y-74659095D01*
X164034523Y-74659095D02*
X164034523Y-74754333D01*
X164034523Y-74754333D02*
X163986904Y-74897190D01*
X163986904Y-74897190D02*
X163415476Y-75468619D01*
X163415476Y-75468619D02*
X164034523Y-75468619D01*
%TO.C,MX14*%
X305353095Y-56368619D02*
X305353095Y-55368619D01*
X305353095Y-55368619D02*
X305686428Y-56082904D01*
X305686428Y-56082904D02*
X306019761Y-55368619D01*
X306019761Y-55368619D02*
X306019761Y-56368619D01*
X306400714Y-55368619D02*
X307067380Y-56368619D01*
X307067380Y-55368619D02*
X306400714Y-56368619D01*
X307972142Y-56368619D02*
X307400714Y-56368619D01*
X307686428Y-56368619D02*
X307686428Y-55368619D01*
X307686428Y-55368619D02*
X307591190Y-55511476D01*
X307591190Y-55511476D02*
X307495952Y-55606714D01*
X307495952Y-55606714D02*
X307400714Y-55654333D01*
X308829285Y-55701952D02*
X308829285Y-56368619D01*
X308591190Y-55321000D02*
X308353095Y-56035285D01*
X308353095Y-56035285D02*
X308972142Y-56035285D01*
%TO.C,MX65*%
X299353095Y-132662619D02*
X299353095Y-131662619D01*
X299353095Y-131662619D02*
X299686428Y-132376904D01*
X299686428Y-132376904D02*
X300019761Y-131662619D01*
X300019761Y-131662619D02*
X300019761Y-132662619D01*
X300400714Y-131662619D02*
X301067380Y-132662619D01*
X301067380Y-131662619D02*
X300400714Y-132662619D01*
X301876904Y-131662619D02*
X301686428Y-131662619D01*
X301686428Y-131662619D02*
X301591190Y-131710238D01*
X301591190Y-131710238D02*
X301543571Y-131757857D01*
X301543571Y-131757857D02*
X301448333Y-131900714D01*
X301448333Y-131900714D02*
X301400714Y-132091190D01*
X301400714Y-132091190D02*
X301400714Y-132472142D01*
X301400714Y-132472142D02*
X301448333Y-132567380D01*
X301448333Y-132567380D02*
X301495952Y-132615000D01*
X301495952Y-132615000D02*
X301591190Y-132662619D01*
X301591190Y-132662619D02*
X301781666Y-132662619D01*
X301781666Y-132662619D02*
X301876904Y-132615000D01*
X301876904Y-132615000D02*
X301924523Y-132567380D01*
X301924523Y-132567380D02*
X301972142Y-132472142D01*
X301972142Y-132472142D02*
X301972142Y-132234047D01*
X301972142Y-132234047D02*
X301924523Y-132138809D01*
X301924523Y-132138809D02*
X301876904Y-132091190D01*
X301876904Y-132091190D02*
X301781666Y-132043571D01*
X301781666Y-132043571D02*
X301591190Y-132043571D01*
X301591190Y-132043571D02*
X301495952Y-132091190D01*
X301495952Y-132091190D02*
X301448333Y-132138809D01*
X301448333Y-132138809D02*
X301400714Y-132234047D01*
X302876904Y-131662619D02*
X302400714Y-131662619D01*
X302400714Y-131662619D02*
X302353095Y-132138809D01*
X302353095Y-132138809D02*
X302400714Y-132091190D01*
X302400714Y-132091190D02*
X302495952Y-132043571D01*
X302495952Y-132043571D02*
X302734047Y-132043571D01*
X302734047Y-132043571D02*
X302829285Y-132091190D01*
X302829285Y-132091190D02*
X302876904Y-132138809D01*
X302876904Y-132138809D02*
X302924523Y-132234047D01*
X302924523Y-132234047D02*
X302924523Y-132472142D01*
X302924523Y-132472142D02*
X302876904Y-132567380D01*
X302876904Y-132567380D02*
X302829285Y-132615000D01*
X302829285Y-132615000D02*
X302734047Y-132662619D01*
X302734047Y-132662619D02*
X302495952Y-132662619D01*
X302495952Y-132662619D02*
X302400714Y-132615000D01*
X302400714Y-132615000D02*
X302353095Y-132567380D01*
%TO.C,MX53*%
X232393095Y-113468619D02*
X232393095Y-112468619D01*
X232393095Y-112468619D02*
X232726428Y-113182904D01*
X232726428Y-113182904D02*
X233059761Y-112468619D01*
X233059761Y-112468619D02*
X233059761Y-113468619D01*
X233440714Y-112468619D02*
X234107380Y-113468619D01*
X234107380Y-112468619D02*
X233440714Y-113468619D01*
X234964523Y-112468619D02*
X234488333Y-112468619D01*
X234488333Y-112468619D02*
X234440714Y-112944809D01*
X234440714Y-112944809D02*
X234488333Y-112897190D01*
X234488333Y-112897190D02*
X234583571Y-112849571D01*
X234583571Y-112849571D02*
X234821666Y-112849571D01*
X234821666Y-112849571D02*
X234916904Y-112897190D01*
X234916904Y-112897190D02*
X234964523Y-112944809D01*
X234964523Y-112944809D02*
X235012142Y-113040047D01*
X235012142Y-113040047D02*
X235012142Y-113278142D01*
X235012142Y-113278142D02*
X234964523Y-113373380D01*
X234964523Y-113373380D02*
X234916904Y-113421000D01*
X234916904Y-113421000D02*
X234821666Y-113468619D01*
X234821666Y-113468619D02*
X234583571Y-113468619D01*
X234583571Y-113468619D02*
X234488333Y-113421000D01*
X234488333Y-113421000D02*
X234440714Y-113373380D01*
X235345476Y-112468619D02*
X235964523Y-112468619D01*
X235964523Y-112468619D02*
X235631190Y-112849571D01*
X235631190Y-112849571D02*
X235774047Y-112849571D01*
X235774047Y-112849571D02*
X235869285Y-112897190D01*
X235869285Y-112897190D02*
X235916904Y-112944809D01*
X235916904Y-112944809D02*
X235964523Y-113040047D01*
X235964523Y-113040047D02*
X235964523Y-113278142D01*
X235964523Y-113278142D02*
X235916904Y-113373380D01*
X235916904Y-113373380D02*
X235869285Y-113421000D01*
X235869285Y-113421000D02*
X235774047Y-113468619D01*
X235774047Y-113468619D02*
X235488333Y-113468619D01*
X235488333Y-113468619D02*
X235393095Y-113421000D01*
X235393095Y-113421000D02*
X235345476Y-113373380D01*
%TO.C,MX38*%
X184903095Y-110362619D02*
X184903095Y-109362619D01*
X184903095Y-109362619D02*
X185236428Y-110076904D01*
X185236428Y-110076904D02*
X185569761Y-109362619D01*
X185569761Y-109362619D02*
X185569761Y-110362619D01*
X185950714Y-109362619D02*
X186617380Y-110362619D01*
X186617380Y-109362619D02*
X185950714Y-110362619D01*
X186903095Y-109362619D02*
X187522142Y-109362619D01*
X187522142Y-109362619D02*
X187188809Y-109743571D01*
X187188809Y-109743571D02*
X187331666Y-109743571D01*
X187331666Y-109743571D02*
X187426904Y-109791190D01*
X187426904Y-109791190D02*
X187474523Y-109838809D01*
X187474523Y-109838809D02*
X187522142Y-109934047D01*
X187522142Y-109934047D02*
X187522142Y-110172142D01*
X187522142Y-110172142D02*
X187474523Y-110267380D01*
X187474523Y-110267380D02*
X187426904Y-110315000D01*
X187426904Y-110315000D02*
X187331666Y-110362619D01*
X187331666Y-110362619D02*
X187045952Y-110362619D01*
X187045952Y-110362619D02*
X186950714Y-110315000D01*
X186950714Y-110315000D02*
X186903095Y-110267380D01*
X188093571Y-109791190D02*
X187998333Y-109743571D01*
X187998333Y-109743571D02*
X187950714Y-109695952D01*
X187950714Y-109695952D02*
X187903095Y-109600714D01*
X187903095Y-109600714D02*
X187903095Y-109553095D01*
X187903095Y-109553095D02*
X187950714Y-109457857D01*
X187950714Y-109457857D02*
X187998333Y-109410238D01*
X187998333Y-109410238D02*
X188093571Y-109362619D01*
X188093571Y-109362619D02*
X188284047Y-109362619D01*
X188284047Y-109362619D02*
X188379285Y-109410238D01*
X188379285Y-109410238D02*
X188426904Y-109457857D01*
X188426904Y-109457857D02*
X188474523Y-109553095D01*
X188474523Y-109553095D02*
X188474523Y-109600714D01*
X188474523Y-109600714D02*
X188426904Y-109695952D01*
X188426904Y-109695952D02*
X188379285Y-109743571D01*
X188379285Y-109743571D02*
X188284047Y-109791190D01*
X188284047Y-109791190D02*
X188093571Y-109791190D01*
X188093571Y-109791190D02*
X187998333Y-109838809D01*
X187998333Y-109838809D02*
X187950714Y-109886428D01*
X187950714Y-109886428D02*
X187903095Y-109981666D01*
X187903095Y-109981666D02*
X187903095Y-110172142D01*
X187903095Y-110172142D02*
X187950714Y-110267380D01*
X187950714Y-110267380D02*
X187998333Y-110315000D01*
X187998333Y-110315000D02*
X188093571Y-110362619D01*
X188093571Y-110362619D02*
X188284047Y-110362619D01*
X188284047Y-110362619D02*
X188379285Y-110315000D01*
X188379285Y-110315000D02*
X188426904Y-110267380D01*
X188426904Y-110267380D02*
X188474523Y-110172142D01*
X188474523Y-110172142D02*
X188474523Y-109981666D01*
X188474523Y-109981666D02*
X188426904Y-109886428D01*
X188426904Y-109886428D02*
X188379285Y-109838809D01*
X188379285Y-109838809D02*
X188284047Y-109791190D01*
%TO.C,MX37*%
X165648095Y-94468619D02*
X165648095Y-93468619D01*
X165648095Y-93468619D02*
X165981428Y-94182904D01*
X165981428Y-94182904D02*
X166314761Y-93468619D01*
X166314761Y-93468619D02*
X166314761Y-94468619D01*
X166695714Y-93468619D02*
X167362380Y-94468619D01*
X167362380Y-93468619D02*
X166695714Y-94468619D01*
X167648095Y-93468619D02*
X168267142Y-93468619D01*
X168267142Y-93468619D02*
X167933809Y-93849571D01*
X167933809Y-93849571D02*
X168076666Y-93849571D01*
X168076666Y-93849571D02*
X168171904Y-93897190D01*
X168171904Y-93897190D02*
X168219523Y-93944809D01*
X168219523Y-93944809D02*
X168267142Y-94040047D01*
X168267142Y-94040047D02*
X168267142Y-94278142D01*
X168267142Y-94278142D02*
X168219523Y-94373380D01*
X168219523Y-94373380D02*
X168171904Y-94421000D01*
X168171904Y-94421000D02*
X168076666Y-94468619D01*
X168076666Y-94468619D02*
X167790952Y-94468619D01*
X167790952Y-94468619D02*
X167695714Y-94421000D01*
X167695714Y-94421000D02*
X167648095Y-94373380D01*
X168600476Y-93468619D02*
X169267142Y-93468619D01*
X169267142Y-93468619D02*
X168838571Y-94468619D01*
%TO.C,MX52*%
X213323095Y-113468619D02*
X213323095Y-112468619D01*
X213323095Y-112468619D02*
X213656428Y-113182904D01*
X213656428Y-113182904D02*
X213989761Y-112468619D01*
X213989761Y-112468619D02*
X213989761Y-113468619D01*
X214370714Y-112468619D02*
X215037380Y-113468619D01*
X215037380Y-112468619D02*
X214370714Y-113468619D01*
X215894523Y-112468619D02*
X215418333Y-112468619D01*
X215418333Y-112468619D02*
X215370714Y-112944809D01*
X215370714Y-112944809D02*
X215418333Y-112897190D01*
X215418333Y-112897190D02*
X215513571Y-112849571D01*
X215513571Y-112849571D02*
X215751666Y-112849571D01*
X215751666Y-112849571D02*
X215846904Y-112897190D01*
X215846904Y-112897190D02*
X215894523Y-112944809D01*
X215894523Y-112944809D02*
X215942142Y-113040047D01*
X215942142Y-113040047D02*
X215942142Y-113278142D01*
X215942142Y-113278142D02*
X215894523Y-113373380D01*
X215894523Y-113373380D02*
X215846904Y-113421000D01*
X215846904Y-113421000D02*
X215751666Y-113468619D01*
X215751666Y-113468619D02*
X215513571Y-113468619D01*
X215513571Y-113468619D02*
X215418333Y-113421000D01*
X215418333Y-113421000D02*
X215370714Y-113373380D01*
X216323095Y-112563857D02*
X216370714Y-112516238D01*
X216370714Y-112516238D02*
X216465952Y-112468619D01*
X216465952Y-112468619D02*
X216704047Y-112468619D01*
X216704047Y-112468619D02*
X216799285Y-112516238D01*
X216799285Y-112516238D02*
X216846904Y-112563857D01*
X216846904Y-112563857D02*
X216894523Y-112659095D01*
X216894523Y-112659095D02*
X216894523Y-112754333D01*
X216894523Y-112754333D02*
X216846904Y-112897190D01*
X216846904Y-112897190D02*
X216275476Y-113468619D01*
X216275476Y-113468619D02*
X216894523Y-113468619D01*
%TO.C,MX63*%
X251353095Y-132412619D02*
X251353095Y-131412619D01*
X251353095Y-131412619D02*
X251686428Y-132126904D01*
X251686428Y-132126904D02*
X252019761Y-131412619D01*
X252019761Y-131412619D02*
X252019761Y-132412619D01*
X252400714Y-131412619D02*
X253067380Y-132412619D01*
X253067380Y-131412619D02*
X252400714Y-132412619D01*
X253876904Y-131412619D02*
X253686428Y-131412619D01*
X253686428Y-131412619D02*
X253591190Y-131460238D01*
X253591190Y-131460238D02*
X253543571Y-131507857D01*
X253543571Y-131507857D02*
X253448333Y-131650714D01*
X253448333Y-131650714D02*
X253400714Y-131841190D01*
X253400714Y-131841190D02*
X253400714Y-132222142D01*
X253400714Y-132222142D02*
X253448333Y-132317380D01*
X253448333Y-132317380D02*
X253495952Y-132365000D01*
X253495952Y-132365000D02*
X253591190Y-132412619D01*
X253591190Y-132412619D02*
X253781666Y-132412619D01*
X253781666Y-132412619D02*
X253876904Y-132365000D01*
X253876904Y-132365000D02*
X253924523Y-132317380D01*
X253924523Y-132317380D02*
X253972142Y-132222142D01*
X253972142Y-132222142D02*
X253972142Y-131984047D01*
X253972142Y-131984047D02*
X253924523Y-131888809D01*
X253924523Y-131888809D02*
X253876904Y-131841190D01*
X253876904Y-131841190D02*
X253781666Y-131793571D01*
X253781666Y-131793571D02*
X253591190Y-131793571D01*
X253591190Y-131793571D02*
X253495952Y-131841190D01*
X253495952Y-131841190D02*
X253448333Y-131888809D01*
X253448333Y-131888809D02*
X253400714Y-131984047D01*
X254305476Y-131412619D02*
X254924523Y-131412619D01*
X254924523Y-131412619D02*
X254591190Y-131793571D01*
X254591190Y-131793571D02*
X254734047Y-131793571D01*
X254734047Y-131793571D02*
X254829285Y-131841190D01*
X254829285Y-131841190D02*
X254876904Y-131888809D01*
X254876904Y-131888809D02*
X254924523Y-131984047D01*
X254924523Y-131984047D02*
X254924523Y-132222142D01*
X254924523Y-132222142D02*
X254876904Y-132317380D01*
X254876904Y-132317380D02*
X254829285Y-132365000D01*
X254829285Y-132365000D02*
X254734047Y-132412619D01*
X254734047Y-132412619D02*
X254448333Y-132412619D01*
X254448333Y-132412619D02*
X254353095Y-132365000D01*
X254353095Y-132365000D02*
X254305476Y-132317380D01*
%TO.C,MX44*%
X310763095Y-94468619D02*
X310763095Y-93468619D01*
X310763095Y-93468619D02*
X311096428Y-94182904D01*
X311096428Y-94182904D02*
X311429761Y-93468619D01*
X311429761Y-93468619D02*
X311429761Y-94468619D01*
X311810714Y-93468619D02*
X312477380Y-94468619D01*
X312477380Y-93468619D02*
X311810714Y-94468619D01*
X313286904Y-93801952D02*
X313286904Y-94468619D01*
X313048809Y-93421000D02*
X312810714Y-94135285D01*
X312810714Y-94135285D02*
X313429761Y-94135285D01*
X314239285Y-93801952D02*
X314239285Y-94468619D01*
X314001190Y-93421000D02*
X313763095Y-94135285D01*
X313763095Y-94135285D02*
X314382142Y-94135285D01*
%TO.C,MX71*%
X266503095Y-132612619D02*
X266503095Y-131612619D01*
X266503095Y-131612619D02*
X266836428Y-132326904D01*
X266836428Y-132326904D02*
X267169761Y-131612619D01*
X267169761Y-131612619D02*
X267169761Y-132612619D01*
X267550714Y-131612619D02*
X268217380Y-132612619D01*
X268217380Y-131612619D02*
X267550714Y-132612619D01*
X268503095Y-131612619D02*
X269169761Y-131612619D01*
X269169761Y-131612619D02*
X268741190Y-132612619D01*
X270074523Y-132612619D02*
X269503095Y-132612619D01*
X269788809Y-132612619D02*
X269788809Y-131612619D01*
X269788809Y-131612619D02*
X269693571Y-131755476D01*
X269693571Y-131755476D02*
X269598333Y-131850714D01*
X269598333Y-131850714D02*
X269503095Y-131898333D01*
%TO.C,MX25*%
X217463095Y-75468619D02*
X217463095Y-74468619D01*
X217463095Y-74468619D02*
X217796428Y-75182904D01*
X217796428Y-75182904D02*
X218129761Y-74468619D01*
X218129761Y-74468619D02*
X218129761Y-75468619D01*
X218510714Y-74468619D02*
X219177380Y-75468619D01*
X219177380Y-74468619D02*
X218510714Y-75468619D01*
X219510714Y-74563857D02*
X219558333Y-74516238D01*
X219558333Y-74516238D02*
X219653571Y-74468619D01*
X219653571Y-74468619D02*
X219891666Y-74468619D01*
X219891666Y-74468619D02*
X219986904Y-74516238D01*
X219986904Y-74516238D02*
X220034523Y-74563857D01*
X220034523Y-74563857D02*
X220082142Y-74659095D01*
X220082142Y-74659095D02*
X220082142Y-74754333D01*
X220082142Y-74754333D02*
X220034523Y-74897190D01*
X220034523Y-74897190D02*
X219463095Y-75468619D01*
X219463095Y-75468619D02*
X220082142Y-75468619D01*
X220986904Y-74468619D02*
X220510714Y-74468619D01*
X220510714Y-74468619D02*
X220463095Y-74944809D01*
X220463095Y-74944809D02*
X220510714Y-74897190D01*
X220510714Y-74897190D02*
X220605952Y-74849571D01*
X220605952Y-74849571D02*
X220844047Y-74849571D01*
X220844047Y-74849571D02*
X220939285Y-74897190D01*
X220939285Y-74897190D02*
X220986904Y-74944809D01*
X220986904Y-74944809D02*
X221034523Y-75040047D01*
X221034523Y-75040047D02*
X221034523Y-75278142D01*
X221034523Y-75278142D02*
X220986904Y-75373380D01*
X220986904Y-75373380D02*
X220939285Y-75421000D01*
X220939285Y-75421000D02*
X220844047Y-75468619D01*
X220844047Y-75468619D02*
X220605952Y-75468619D01*
X220605952Y-75468619D02*
X220510714Y-75421000D01*
X220510714Y-75421000D02*
X220463095Y-75373380D01*
%TO.C,MX36*%
X146663095Y-94468619D02*
X146663095Y-93468619D01*
X146663095Y-93468619D02*
X146996428Y-94182904D01*
X146996428Y-94182904D02*
X147329761Y-93468619D01*
X147329761Y-93468619D02*
X147329761Y-94468619D01*
X147710714Y-93468619D02*
X148377380Y-94468619D01*
X148377380Y-93468619D02*
X147710714Y-94468619D01*
X148663095Y-93468619D02*
X149282142Y-93468619D01*
X149282142Y-93468619D02*
X148948809Y-93849571D01*
X148948809Y-93849571D02*
X149091666Y-93849571D01*
X149091666Y-93849571D02*
X149186904Y-93897190D01*
X149186904Y-93897190D02*
X149234523Y-93944809D01*
X149234523Y-93944809D02*
X149282142Y-94040047D01*
X149282142Y-94040047D02*
X149282142Y-94278142D01*
X149282142Y-94278142D02*
X149234523Y-94373380D01*
X149234523Y-94373380D02*
X149186904Y-94421000D01*
X149186904Y-94421000D02*
X149091666Y-94468619D01*
X149091666Y-94468619D02*
X148805952Y-94468619D01*
X148805952Y-94468619D02*
X148710714Y-94421000D01*
X148710714Y-94421000D02*
X148663095Y-94373380D01*
X150139285Y-93468619D02*
X149948809Y-93468619D01*
X149948809Y-93468619D02*
X149853571Y-93516238D01*
X149853571Y-93516238D02*
X149805952Y-93563857D01*
X149805952Y-93563857D02*
X149710714Y-93706714D01*
X149710714Y-93706714D02*
X149663095Y-93897190D01*
X149663095Y-93897190D02*
X149663095Y-94278142D01*
X149663095Y-94278142D02*
X149710714Y-94373380D01*
X149710714Y-94373380D02*
X149758333Y-94421000D01*
X149758333Y-94421000D02*
X149853571Y-94468619D01*
X149853571Y-94468619D02*
X150044047Y-94468619D01*
X150044047Y-94468619D02*
X150139285Y-94421000D01*
X150139285Y-94421000D02*
X150186904Y-94373380D01*
X150186904Y-94373380D02*
X150234523Y-94278142D01*
X150234523Y-94278142D02*
X150234523Y-94040047D01*
X150234523Y-94040047D02*
X150186904Y-93944809D01*
X150186904Y-93944809D02*
X150139285Y-93897190D01*
X150139285Y-93897190D02*
X150044047Y-93849571D01*
X150044047Y-93849571D02*
X149853571Y-93849571D01*
X149853571Y-93849571D02*
X149758333Y-93897190D01*
X149758333Y-93897190D02*
X149710714Y-93944809D01*
X149710714Y-93944809D02*
X149663095Y-94040047D01*
D11*
%TO.C,MX17*%
X55540000Y-75895000D02*
X69510000Y-75895000D01*
X55540000Y-89865000D02*
X55540000Y-75895000D01*
X69510000Y-75895000D02*
X69510000Y-89865000D01*
X69510000Y-89865000D02*
X55540000Y-89865000D01*
%TO.C,MX68*%
X79420000Y-132915000D02*
X93390000Y-132915000D01*
X79420000Y-146885000D02*
X79420000Y-132915000D01*
X93390000Y-132915000D02*
X93390000Y-146885000D01*
X93390000Y-146885000D02*
X79420000Y-146885000D01*
%TO.C,MX3*%
X88740000Y-56795000D02*
X102710000Y-56795000D01*
X88740000Y-70765000D02*
X88740000Y-56795000D01*
X102710000Y-56795000D02*
X102710000Y-70765000D01*
X102710000Y-70765000D02*
X88740000Y-70765000D01*
%TO.C,MX34*%
X103240000Y-94895000D02*
X117210000Y-94895000D01*
X103240000Y-108865000D02*
X103240000Y-94895000D01*
X117210000Y-94895000D02*
X117210000Y-108865000D01*
X117210000Y-108865000D02*
X103240000Y-108865000D01*
%TO.C,MX61*%
X100780000Y-132895000D02*
X114750000Y-132895000D01*
X100780000Y-146865000D02*
X100780000Y-132895000D01*
X114750000Y-132895000D02*
X114750000Y-146865000D01*
X114750000Y-146865000D02*
X100780000Y-146865000D01*
%TO.C,MX59*%
X53110000Y-132895000D02*
X67080000Y-132895000D01*
X53110000Y-146865000D02*
X53110000Y-132895000D01*
X67080000Y-132895000D02*
X67080000Y-146865000D01*
X67080000Y-146865000D02*
X53110000Y-146865000D01*
%TO.C,MX56*%
X291345000Y-113915000D02*
X305315000Y-113915000D01*
X291345000Y-127885000D02*
X291345000Y-113915000D01*
X305315000Y-113915000D02*
X305315000Y-127885000D01*
X305315000Y-127885000D02*
X291345000Y-127885000D01*
%TO.C,MX18*%
X79340000Y-75895000D02*
X93310000Y-75895000D01*
X79340000Y-89865000D02*
X79340000Y-75895000D01*
X93310000Y-75895000D02*
X93310000Y-89865000D01*
X93310000Y-89865000D02*
X79340000Y-89865000D01*
%TO.C,MX5*%
X126740000Y-56795000D02*
X140710000Y-56795000D01*
X126740000Y-70765000D02*
X126740000Y-56795000D01*
X140710000Y-56795000D02*
X140710000Y-70765000D01*
X140710000Y-70765000D02*
X126740000Y-70765000D01*
%TO.C,MX26*%
X231240000Y-75895000D02*
X245210000Y-75895000D01*
X231240000Y-89865000D02*
X231240000Y-75895000D01*
X245210000Y-75895000D02*
X245210000Y-89865000D01*
X245210000Y-89865000D02*
X231240000Y-89865000D01*
%TO.C,MX19*%
X98240000Y-75895000D02*
X112210000Y-75895000D01*
X98240000Y-89865000D02*
X98240000Y-75895000D01*
X112210000Y-75895000D02*
X112210000Y-89865000D01*
X112210000Y-89865000D02*
X98240000Y-89865000D01*
%TO.C,J3*%
X48820000Y-129335000D02*
X48820000Y-111555000D01*
X55170000Y-129335000D02*
X48820000Y-129335000D01*
X48820000Y-128700000D02*
X48820000Y-129335000D01*
X48820000Y-111555000D02*
X55170000Y-111555000D01*
X55170000Y-111555000D02*
X55170000Y-129335000D01*
%TO.C,MX40*%
X217525000Y-94895000D02*
X231495000Y-94895000D01*
X217525000Y-108865000D02*
X217525000Y-94895000D01*
X231495000Y-94895000D02*
X231495000Y-108865000D01*
X231495000Y-108865000D02*
X217525000Y-108865000D01*
%TO.C,MX41*%
X236525000Y-94895000D02*
X250495000Y-94895000D01*
X236525000Y-108865000D02*
X236525000Y-94895000D01*
X250495000Y-94895000D02*
X250495000Y-108865000D01*
X250495000Y-108865000D02*
X236525000Y-108865000D01*
%TO.C,MX57*%
X317425000Y-113915000D02*
X331395000Y-113915000D01*
X317425000Y-127885000D02*
X317425000Y-113915000D01*
X331395000Y-113915000D02*
X331395000Y-127885000D01*
X331395000Y-127885000D02*
X317425000Y-127885000D01*
%TO.C,MX45*%
X62650000Y-113895000D02*
X76620000Y-113895000D01*
X62650000Y-127865000D02*
X62650000Y-113895000D01*
X76620000Y-113895000D02*
X76620000Y-127865000D01*
X76620000Y-127865000D02*
X62650000Y-127865000D01*
%TO.C,MX33*%
X84140000Y-94895000D02*
X98110000Y-94895000D01*
X84140000Y-108865000D02*
X84140000Y-94895000D01*
X98110000Y-94895000D02*
X98110000Y-108865000D01*
X98110000Y-108865000D02*
X84140000Y-108865000D01*
%TO.C,MX69*%
X103200000Y-132920000D02*
X117170000Y-132920000D01*
X103200000Y-146890000D02*
X103200000Y-132920000D01*
X117170000Y-132920000D02*
X117170000Y-146890000D01*
X117170000Y-146890000D02*
X103200000Y-146890000D01*
%TO.C,MX20*%
X117240000Y-75895000D02*
X131210000Y-75895000D01*
X117240000Y-89865000D02*
X117240000Y-75895000D01*
X131210000Y-75895000D02*
X131210000Y-89865000D01*
X131210000Y-89865000D02*
X117240000Y-89865000D01*
%TO.C,MX24*%
X193240000Y-75895000D02*
X207210000Y-75895000D01*
X193240000Y-89865000D02*
X193240000Y-75895000D01*
X207210000Y-75895000D02*
X207210000Y-89865000D01*
X207210000Y-89865000D02*
X193240000Y-89865000D01*
%TO.C,MX8*%
X183740000Y-56795000D02*
X197710000Y-56795000D01*
X183740000Y-70765000D02*
X183740000Y-56795000D01*
X197710000Y-56795000D02*
X197710000Y-70765000D01*
X197710000Y-70765000D02*
X183740000Y-70765000D01*
%TO.C,MX48*%
X131760000Y-113895000D02*
X145730000Y-113895000D01*
X131760000Y-127865000D02*
X131760000Y-113895000D01*
X145730000Y-113895000D02*
X145730000Y-127865000D01*
X145730000Y-127865000D02*
X131760000Y-127865000D01*
%TO.C,MX51*%
X189040000Y-113895000D02*
X203010000Y-113895000D01*
X189040000Y-127865000D02*
X189040000Y-113895000D01*
X203010000Y-113895000D02*
X203010000Y-127865000D01*
X203010000Y-127865000D02*
X189040000Y-127865000D01*
%TO.C,MX7*%
X164740000Y-56795000D02*
X178710000Y-56795000D01*
X164740000Y-70765000D02*
X164740000Y-56795000D01*
X178710000Y-56795000D02*
X178710000Y-70765000D01*
X178710000Y-70765000D02*
X164740000Y-70765000D01*
%TO.C,MX2*%
X69740000Y-56795000D02*
X83710000Y-56795000D01*
X69740000Y-70765000D02*
X69740000Y-56795000D01*
X83710000Y-56795000D02*
X83710000Y-70765000D01*
X83710000Y-70765000D02*
X69740000Y-70765000D01*
D12*
%TO.C,MX62*%
X172199900Y-132900000D02*
X172199900Y-146900000D01*
X172199900Y-146900000D02*
X186199900Y-146900000D01*
X186199900Y-132900000D02*
X172199900Y-132900000D01*
X186199900Y-146900000D02*
X186199900Y-132900000D01*
D11*
%TO.C,MX47*%
X112710000Y-113895000D02*
X126680000Y-113895000D01*
X112710000Y-127865000D02*
X112710000Y-113895000D01*
X126680000Y-113895000D02*
X126680000Y-127865000D01*
X126680000Y-127865000D02*
X112710000Y-127865000D01*
%TO.C,MX16*%
X307875000Y-56855000D02*
X321845000Y-56855000D01*
X307875000Y-70825000D02*
X307875000Y-56855000D01*
X321845000Y-56855000D02*
X321845000Y-70825000D01*
X321845000Y-70825000D02*
X307875000Y-70825000D01*
D13*
%TO.C,J5*%
X52406434Y-110556000D02*
X51323566Y-110556000D01*
X50751840Y-110197330D02*
X49946860Y-108531840D01*
X53783140Y-108531840D02*
X52978160Y-110197330D01*
X49820300Y-107979178D02*
X49820300Y-104714000D01*
X53909700Y-104714000D02*
X53909700Y-107979178D01*
X51090300Y-103444000D02*
X52639700Y-103444000D01*
X50751840Y-110197330D02*
G75*
G03*
X51323566Y-110556000I571727J276337D01*
G01*
X52406434Y-110556000D02*
G75*
G03*
X52978161Y-110197330I3J635002D01*
G01*
X49820301Y-107979178D02*
G75*
G03*
X49946861Y-108531840I1269988J6D01*
G01*
X53783140Y-108531840D02*
G75*
G03*
X53909700Y-107979178I-1143429J552668D01*
G01*
X51090300Y-103444000D02*
G75*
G03*
X49820300Y-104714000I0J-1270000D01*
G01*
X53909700Y-104714000D02*
G75*
G03*
X52639700Y-103444000I-1270000J0D01*
G01*
X53135000Y-108270000D02*
G75*
G03*
X53135000Y-108270000I-635000J0D01*
G01*
D11*
%TO.C,MX55*%
X265240000Y-113895000D02*
X279210000Y-113895000D01*
X265240000Y-127865000D02*
X265240000Y-113895000D01*
X279210000Y-113895000D02*
X279210000Y-127865000D01*
X279210000Y-127865000D02*
X265240000Y-127865000D01*
%TO.C,MX31*%
X57940000Y-94895000D02*
X71910000Y-94895000D01*
X57940000Y-108865000D02*
X57940000Y-94895000D01*
X71910000Y-94895000D02*
X71910000Y-108865000D01*
X71910000Y-108865000D02*
X57940000Y-108865000D01*
%TO.C,MX32*%
X53140000Y-94895000D02*
X67110000Y-94895000D01*
X53140000Y-108865000D02*
X53140000Y-94895000D01*
X67110000Y-94895000D02*
X67110000Y-108865000D01*
X67110000Y-108865000D02*
X53140000Y-108865000D01*
%TO.C,MX13*%
X279240000Y-56795000D02*
X293210000Y-56795000D01*
X279240000Y-70765000D02*
X279240000Y-56795000D01*
X293210000Y-56795000D02*
X293210000Y-70765000D01*
X293210000Y-70765000D02*
X279240000Y-70765000D01*
%TO.C,MX27*%
X250240000Y-75895000D02*
X264210000Y-75895000D01*
X250240000Y-89865000D02*
X250240000Y-75895000D01*
X264210000Y-75895000D02*
X264210000Y-89865000D01*
X264210000Y-89865000D02*
X250240000Y-89865000D01*
%TO.C,MX30*%
X312670000Y-75895000D02*
X326640000Y-75895000D01*
X312670000Y-89865000D02*
X312670000Y-75895000D01*
X326640000Y-75895000D02*
X326640000Y-89865000D01*
X326640000Y-89865000D02*
X312670000Y-89865000D01*
%TO.C,MX35*%
X122340000Y-94895000D02*
X136310000Y-94895000D01*
X122340000Y-108865000D02*
X122340000Y-94895000D01*
X136310000Y-94895000D02*
X136310000Y-108865000D01*
X136310000Y-108865000D02*
X122340000Y-108865000D01*
%TO.C,D1*%
X100000000Y-99015000D02*
X98530000Y-99015000D01*
X98530000Y-99015000D02*
X98530000Y-101300000D01*
X100000000Y-101300000D02*
X100000000Y-99015000D01*
%TO.C,MX64*%
X267385000Y-132965000D02*
X281355000Y-132965000D01*
X267385000Y-146935000D02*
X267385000Y-132965000D01*
X281355000Y-132965000D02*
X281355000Y-146935000D01*
X281355000Y-146935000D02*
X267385000Y-146935000D01*
%TO.C,MX58*%
X300765000Y-113915000D02*
X314735000Y-113915000D01*
X300765000Y-127885000D02*
X300765000Y-113915000D01*
X314735000Y-113915000D02*
X314735000Y-127885000D01*
X314735000Y-127885000D02*
X300765000Y-127885000D01*
%TO.C,MX72*%
X288900000Y-132920000D02*
X302870000Y-132920000D01*
X288900000Y-146890000D02*
X288900000Y-132920000D01*
X302870000Y-132920000D02*
X302870000Y-146890000D01*
X302870000Y-146890000D02*
X288900000Y-146890000D01*
%TO.C,MX67*%
X55640000Y-132920000D02*
X69610000Y-132920000D01*
X55640000Y-146890000D02*
X55640000Y-132920000D01*
X69610000Y-132920000D02*
X69610000Y-146890000D01*
X69610000Y-146890000D02*
X55640000Y-146890000D01*
%TO.C,MX42*%
X255575000Y-94895000D02*
X269545000Y-94895000D01*
X255575000Y-108865000D02*
X255575000Y-94895000D01*
X269545000Y-94895000D02*
X269545000Y-108865000D01*
X269545000Y-108865000D02*
X255575000Y-108865000D01*
%TO.C,MX28*%
X269475000Y-75895000D02*
X283445000Y-75895000D01*
X269475000Y-89865000D02*
X269475000Y-75895000D01*
X283445000Y-75895000D02*
X283445000Y-89865000D01*
X283445000Y-89865000D02*
X269475000Y-89865000D01*
%TO.C,MX66*%
X315065000Y-132965000D02*
X329035000Y-132965000D01*
X315065000Y-146935000D02*
X315065000Y-132965000D01*
X329035000Y-132965000D02*
X329035000Y-146935000D01*
X329035000Y-146935000D02*
X315065000Y-146935000D01*
%TO.C,MX49*%
X150870000Y-113895000D02*
X164840000Y-113895000D01*
X150870000Y-127865000D02*
X150870000Y-113895000D01*
X164840000Y-113895000D02*
X164840000Y-127865000D01*
X164840000Y-127865000D02*
X150870000Y-127865000D01*
%TO.C,MX10*%
X221840000Y-56795000D02*
X235810000Y-56795000D01*
X221840000Y-70765000D02*
X221840000Y-56795000D01*
X235810000Y-56795000D02*
X235810000Y-70765000D01*
X235810000Y-70765000D02*
X221840000Y-70765000D01*
%TO.C,MX15*%
X317440000Y-56795000D02*
X331410000Y-56795000D01*
X317440000Y-70765000D02*
X317440000Y-56795000D01*
X331410000Y-56795000D02*
X331410000Y-70765000D01*
X331410000Y-70765000D02*
X317440000Y-70765000D01*
%TO.C,MX21*%
X136240000Y-75895000D02*
X150210000Y-75895000D01*
X136240000Y-89865000D02*
X136240000Y-75895000D01*
X150210000Y-75895000D02*
X150210000Y-89865000D01*
X150210000Y-89865000D02*
X136240000Y-89865000D01*
%TO.C,MX43*%
X274575000Y-94895000D02*
X288545000Y-94895000D01*
X274575000Y-108865000D02*
X274575000Y-94895000D01*
X288545000Y-94895000D02*
X288545000Y-108865000D01*
X288545000Y-108865000D02*
X274575000Y-108865000D01*
%TO.C,MX39*%
X198525000Y-94895000D02*
X212495000Y-94895000D01*
X198525000Y-108865000D02*
X198525000Y-94895000D01*
X212495000Y-94895000D02*
X212495000Y-108865000D01*
X212495000Y-108865000D02*
X198525000Y-108865000D01*
%TO.C,MX29*%
X288740000Y-75895000D02*
X302710000Y-75895000D01*
X288740000Y-89865000D02*
X288740000Y-75895000D01*
X302710000Y-75895000D02*
X302710000Y-89865000D01*
X302710000Y-89865000D02*
X288740000Y-89865000D01*
%TO.C,MX73*%
X312700000Y-132905000D02*
X326670000Y-132905000D01*
X312700000Y-146875000D02*
X312700000Y-132905000D01*
X326670000Y-132905000D02*
X326670000Y-146875000D01*
X326670000Y-146875000D02*
X312700000Y-146875000D01*
%TO.C,MX60*%
X76940000Y-132895000D02*
X90910000Y-132895000D01*
X76940000Y-146865000D02*
X76940000Y-132895000D01*
X90910000Y-132895000D02*
X90910000Y-146865000D01*
X90910000Y-146865000D02*
X76940000Y-146865000D01*
%TO.C,MX23*%
X174240000Y-75895000D02*
X188210000Y-75895000D01*
X174240000Y-89865000D02*
X174240000Y-75895000D01*
X188210000Y-75895000D02*
X188210000Y-89865000D01*
X188210000Y-89865000D02*
X174240000Y-89865000D01*
%TO.C,MX46*%
X93610000Y-113895000D02*
X107580000Y-113895000D01*
X93610000Y-127865000D02*
X93610000Y-113895000D01*
X107580000Y-113895000D02*
X107580000Y-127865000D01*
X107580000Y-127865000D02*
X93610000Y-127865000D01*
D12*
%TO.C,MX70*%
X184155000Y-132920000D02*
X184155000Y-146920000D01*
X184155000Y-146920000D02*
X198155000Y-146920000D01*
X198155000Y-132920000D02*
X184155000Y-132920000D01*
X198155000Y-146920000D02*
X198155000Y-132920000D01*
D11*
%TO.C,MX11*%
X240940000Y-56795000D02*
X254910000Y-56795000D01*
X240940000Y-70765000D02*
X240940000Y-56795000D01*
X254910000Y-56795000D02*
X254910000Y-70765000D01*
X254910000Y-70765000D02*
X240940000Y-70765000D01*
%TO.C,MX9*%
X202740000Y-56795000D02*
X216710000Y-56795000D01*
X202740000Y-70765000D02*
X202740000Y-56795000D01*
X216710000Y-56795000D02*
X216710000Y-70765000D01*
X216710000Y-70765000D02*
X202740000Y-70765000D01*
%TO.C,MX12*%
X260040000Y-56795000D02*
X274010000Y-56795000D01*
X260040000Y-70765000D02*
X260040000Y-56795000D01*
X274010000Y-56795000D02*
X274010000Y-70765000D01*
X274010000Y-70765000D02*
X260040000Y-70765000D01*
%TO.C,MX50*%
X169950000Y-113895000D02*
X183920000Y-113895000D01*
X169950000Y-127865000D02*
X169950000Y-113895000D01*
X183920000Y-113895000D02*
X183920000Y-127865000D01*
X183920000Y-127865000D02*
X169950000Y-127865000D01*
%TO.C,MX6*%
X145740000Y-56795000D02*
X159710000Y-56795000D01*
X145740000Y-70765000D02*
X145740000Y-56795000D01*
X159710000Y-56795000D02*
X159710000Y-70765000D01*
X159710000Y-70765000D02*
X145740000Y-70765000D01*
%TO.C,D2*%
X102500000Y-99015000D02*
X101030000Y-99015000D01*
X101030000Y-99015000D02*
X101030000Y-101300000D01*
X102500000Y-101300000D02*
X102500000Y-99015000D01*
%TO.C,MX1*%
X50740000Y-56795000D02*
X64710000Y-56795000D01*
X50740000Y-70765000D02*
X50740000Y-56795000D01*
X64710000Y-56795000D02*
X64710000Y-70765000D01*
X64710000Y-70765000D02*
X50740000Y-70765000D01*
%TO.C,MX54*%
X246210000Y-113895000D02*
X260180000Y-113895000D01*
X246210000Y-127865000D02*
X246210000Y-113895000D01*
X260180000Y-113895000D02*
X260180000Y-127865000D01*
X260180000Y-127865000D02*
X246210000Y-127865000D01*
%TO.C,MX4*%
X107740000Y-56795000D02*
X121710000Y-56795000D01*
X107740000Y-70765000D02*
X107740000Y-56795000D01*
X121710000Y-56795000D02*
X121710000Y-70765000D01*
X121710000Y-70765000D02*
X107740000Y-70765000D01*
%TO.C,MX22*%
X155240000Y-75895000D02*
X169210000Y-75895000D01*
X155240000Y-89865000D02*
X155240000Y-75895000D01*
X169210000Y-75895000D02*
X169210000Y-89865000D01*
X169210000Y-89865000D02*
X155240000Y-89865000D01*
%TO.C,MX14*%
X298340000Y-56795000D02*
X312310000Y-56795000D01*
X298340000Y-70765000D02*
X298340000Y-56795000D01*
X312310000Y-56795000D02*
X312310000Y-70765000D01*
X312310000Y-70765000D02*
X298340000Y-70765000D01*
%TO.C,kibuzzard-64C2769B*%
G36*
X182017475Y-94495016D02*
G01*
X179974362Y-94495016D01*
X178774213Y-94495016D01*
X178278119Y-94495016D01*
X178278119Y-93763178D01*
X178774213Y-93763178D01*
X178800406Y-93874502D01*
X178878987Y-93951297D01*
X178983762Y-93979872D01*
X179974362Y-93979872D01*
X180095806Y-93965584D01*
X180145812Y-93934628D01*
X180174387Y-93872716D01*
X180186294Y-93765559D01*
X180185621Y-93760797D01*
X180341075Y-93760797D01*
X180344647Y-93846522D01*
X180367269Y-93908434D01*
X180430372Y-93956655D01*
X180548244Y-93972728D01*
X180669688Y-93956655D01*
X180733981Y-93908434D01*
X180756603Y-93847713D01*
X180760175Y-93765559D01*
X180760175Y-92963078D01*
X180804228Y-93022312D01*
X180912575Y-93171438D01*
X181029852Y-93331874D01*
X181100694Y-93425041D01*
X181119744Y-93451234D01*
X181182847Y-93500050D01*
X181280478Y-93525053D01*
X181380491Y-93497669D01*
X181438831Y-93454806D01*
X181481694Y-93398847D01*
X181533486Y-93328302D01*
X181626950Y-93197631D01*
X181727558Y-93058626D01*
X181800781Y-92963078D01*
X181800781Y-93760797D01*
X181812687Y-93884622D01*
X181846025Y-93932247D01*
X181907937Y-93960822D01*
X182017475Y-93972728D01*
X182131775Y-93958441D01*
X182199641Y-93895933D01*
X182222263Y-93765559D01*
X182222263Y-93763178D01*
X182412762Y-93763178D01*
X182427050Y-93884622D01*
X182490153Y-93952487D01*
X182622313Y-93975109D01*
X182744947Y-93959036D01*
X182808050Y-93910816D01*
X182830672Y-93848903D01*
X182834244Y-93765559D01*
X182834244Y-93301216D01*
X183358119Y-93898909D01*
X183504566Y-93998922D01*
X183660537Y-93916769D01*
X183755787Y-93773894D01*
X183677206Y-93625066D01*
X183587761Y-93526095D01*
X183471823Y-93405395D01*
X183329395Y-93262967D01*
X183160475Y-93098809D01*
X183255725Y-93008322D01*
X183391456Y-92876460D01*
X183508137Y-92759481D01*
X183605769Y-92657385D01*
X183684350Y-92570172D01*
X183755787Y-92426106D01*
X183660537Y-92283231D01*
X183503375Y-92201078D01*
X183358119Y-92298709D01*
X183273156Y-92397293D01*
X183178287Y-92506354D01*
X183073512Y-92625893D01*
X182958831Y-92755909D01*
X182834244Y-92896403D01*
X182834244Y-92441584D01*
X182822337Y-92317759D01*
X182757448Y-92251680D01*
X182624694Y-92229653D01*
X182502059Y-92245727D01*
X182438956Y-92293947D01*
X182416334Y-92357050D01*
X182412762Y-92439203D01*
X182412762Y-93763178D01*
X182222263Y-93763178D01*
X182222263Y-92443966D01*
X182218691Y-92360622D01*
X182196069Y-92296328D01*
X182133263Y-92248108D01*
X182011522Y-92232034D01*
X181887995Y-92248108D01*
X181819831Y-92296328D01*
X181754776Y-92379481D01*
X181668193Y-92491781D01*
X181560085Y-92633227D01*
X181430449Y-92803820D01*
X181279287Y-93003559D01*
X180738744Y-92293947D01*
X180724456Y-92279659D01*
X180663734Y-92247513D01*
X180553006Y-92232034D01*
X180431562Y-92247512D01*
X180367269Y-92293947D01*
X180344647Y-92357050D01*
X180341075Y-92439203D01*
X180341075Y-93760797D01*
X180185621Y-93760797D01*
X180170816Y-93656022D01*
X180113666Y-93590537D01*
X179979125Y-93567916D01*
X179386194Y-93567916D01*
X180124381Y-92546359D01*
X180152956Y-92443966D01*
X180125572Y-92332047D01*
X180048181Y-92255847D01*
X179943406Y-92227272D01*
X178986144Y-92227272D01*
X178901609Y-92230844D01*
X178838506Y-92253466D01*
X178790286Y-92316569D01*
X178774213Y-92439203D01*
X178791477Y-92556480D01*
X178843269Y-92617797D01*
X178908753Y-92638037D01*
X178993287Y-92641609D01*
X179540975Y-92641609D01*
X178802788Y-93663166D01*
X178774213Y-93763178D01*
X178278119Y-93763178D01*
X178278119Y-91704984D01*
X178774213Y-91704984D01*
X183755787Y-91704984D01*
X184251881Y-91704984D01*
X184251881Y-94495016D01*
X183755787Y-94495016D01*
X183504566Y-94495016D01*
X182017475Y-94495016D01*
G37*
%TO.C,MX65*%
X291235000Y-132965000D02*
X305205000Y-132965000D01*
X291235000Y-146935000D02*
X291235000Y-132965000D01*
X305205000Y-132965000D02*
X305205000Y-146935000D01*
X305205000Y-146935000D02*
X291235000Y-146935000D01*
%TO.C,MX53*%
X227170000Y-113895000D02*
X241140000Y-113895000D01*
X227170000Y-127865000D02*
X227170000Y-113895000D01*
X241140000Y-113895000D02*
X241140000Y-127865000D01*
X241140000Y-127865000D02*
X227170000Y-127865000D01*
%TO.C,MX38*%
X179425000Y-94895000D02*
X193395000Y-94895000D01*
X179425000Y-108865000D02*
X179425000Y-94895000D01*
X193395000Y-94895000D02*
X193395000Y-108865000D01*
X193395000Y-108865000D02*
X179425000Y-108865000D01*
%TO.C,MX37*%
X160425000Y-94895000D02*
X174395000Y-94895000D01*
X160425000Y-108865000D02*
X160425000Y-94895000D01*
X174395000Y-94895000D02*
X174395000Y-108865000D01*
X174395000Y-108865000D02*
X160425000Y-108865000D01*
%TO.C,MX52*%
X208100000Y-113895000D02*
X222070000Y-113895000D01*
X208100000Y-127865000D02*
X208100000Y-113895000D01*
X222070000Y-113895000D02*
X222070000Y-127865000D01*
X222070000Y-127865000D02*
X208100000Y-127865000D01*
%TO.C,MX63*%
X243585000Y-132915000D02*
X257555000Y-132915000D01*
X243585000Y-146885000D02*
X243585000Y-132915000D01*
X257555000Y-132915000D02*
X257555000Y-146885000D01*
X257555000Y-146885000D02*
X243585000Y-146885000D01*
%TO.C,MX44*%
X305540000Y-94895000D02*
X319510000Y-94895000D01*
X305540000Y-108865000D02*
X305540000Y-94895000D01*
X319510000Y-94895000D02*
X319510000Y-108865000D01*
X319510000Y-108865000D02*
X305540000Y-108865000D01*
%TO.C,MX71*%
X265100000Y-132960000D02*
X279070000Y-132960000D01*
X265100000Y-146930000D02*
X265100000Y-132960000D01*
X279070000Y-132960000D02*
X279070000Y-146930000D01*
X279070000Y-146930000D02*
X265100000Y-146930000D01*
%TO.C,MX25*%
X212240000Y-75895000D02*
X226210000Y-75895000D01*
X212240000Y-89865000D02*
X212240000Y-75895000D01*
X226210000Y-75895000D02*
X226210000Y-89865000D01*
X226210000Y-89865000D02*
X212240000Y-89865000D01*
%TO.C,MX36*%
X141440000Y-94895000D02*
X155410000Y-94895000D01*
X141440000Y-108865000D02*
X141440000Y-94895000D01*
X155410000Y-94895000D02*
X155410000Y-108865000D01*
X155410000Y-108865000D02*
X141440000Y-108865000D01*
%TD*%
M02*
