G04 #@! TF.GenerationSoftware,KiCad,Pcbnew,7.0.1-0*
G04 #@! TF.CreationDate,2023-08-08T22:45:16+05:30*
G04 #@! TF.ProjectId,Keyboard_60,4b657962-6f61-4726-945f-3630252e6b69,rev?*
G04 #@! TF.SameCoordinates,Original*
G04 #@! TF.FileFunction,Paste,Bot*
G04 #@! TF.FilePolarity,Positive*
%FSLAX46Y46*%
G04 Gerber Fmt 4.6, Leading zero omitted, Abs format (unit mm)*
G04 Created by KiCad (PCBNEW 7.0.1-0) date 2023-08-08 22:45:16*
%MOMM*%
%LPD*%
G01*
G04 APERTURE LIST*
G04 Aperture macros list*
%AMRoundRect*
0 Rectangle with rounded corners*
0 $1 Rounding radius*
0 $2 $3 $4 $5 $6 $7 $8 $9 X,Y pos of 4 corners*
0 Add a 4 corners polygon primitive as box body*
4,1,4,$2,$3,$4,$5,$6,$7,$8,$9,$2,$3,0*
0 Add four circle primitives for the rounded corners*
1,1,$1+$1,$2,$3*
1,1,$1+$1,$4,$5*
1,1,$1+$1,$6,$7*
1,1,$1+$1,$8,$9*
0 Add four rect primitives between the rounded corners*
20,1,$1+$1,$2,$3,$4,$5,0*
20,1,$1+$1,$4,$5,$6,$7,0*
20,1,$1+$1,$6,$7,$8,$9,0*
20,1,$1+$1,$8,$9,$2,$3,0*%
G04 Aperture macros list end*
%ADD10C,0.010000*%
%ADD11RoundRect,0.140000X-0.170000X0.140000X-0.170000X-0.140000X0.170000X-0.140000X0.170000X0.140000X0*%
%ADD12RoundRect,0.250000X0.400000X-0.250000X0.400000X0.250000X-0.400000X0.250000X-0.400000X-0.250000X0*%
%ADD13RoundRect,0.225000X0.225000X0.250000X-0.225000X0.250000X-0.225000X-0.250000X0.225000X-0.250000X0*%
%ADD14RoundRect,0.250000X-0.400000X0.250000X-0.400000X-0.250000X0.400000X-0.250000X0.400000X0.250000X0*%
%ADD15C,0.250000*%
%ADD16RoundRect,0.140000X0.140000X0.170000X-0.140000X0.170000X-0.140000X-0.170000X0.140000X-0.170000X0*%
%ADD17R,1.800000X1.200000*%
%ADD18R,1.550000X0.600000*%
%ADD19RoundRect,0.135000X0.185000X-0.135000X0.185000X0.135000X-0.185000X0.135000X-0.185000X-0.135000X0*%
%ADD20RoundRect,0.250000X-0.250000X-0.400000X0.250000X-0.400000X0.250000X0.400000X-0.250000X0.400000X0*%
%ADD21RoundRect,0.147500X0.147500X0.172500X-0.147500X0.172500X-0.147500X-0.172500X0.147500X-0.172500X0*%
%ADD22RoundRect,0.250000X0.250000X0.400000X-0.250000X0.400000X-0.250000X-0.400000X0.250000X-0.400000X0*%
%ADD23R,0.800000X0.950000*%
%ADD24R,0.900000X1.250000*%
%ADD25RoundRect,0.140000X-0.140000X-0.170000X0.140000X-0.170000X0.140000X0.170000X-0.140000X0.170000X0*%
%ADD26RoundRect,0.135000X-0.135000X-0.185000X0.135000X-0.185000X0.135000X0.185000X-0.135000X0.185000X0*%
%ADD27RoundRect,0.250000X-0.250000X-0.475000X0.250000X-0.475000X0.250000X0.475000X-0.250000X0.475000X0*%
%ADD28RoundRect,0.135000X-0.185000X0.135000X-0.185000X-0.135000X0.185000X-0.135000X0.185000X0.135000X0*%
%ADD29RoundRect,0.140000X0.170000X-0.140000X0.170000X0.140000X-0.170000X0.140000X-0.170000X-0.140000X0*%
%ADD30RoundRect,0.250000X-0.475000X0.250000X-0.475000X-0.250000X0.475000X-0.250000X0.475000X0.250000X0*%
%ADD31RoundRect,0.218750X-0.256250X0.218750X-0.256250X-0.218750X0.256250X-0.218750X0.256250X0.218750X0*%
%ADD32RoundRect,0.006000X0.094000X-0.276500X0.094000X0.276500X-0.094000X0.276500X-0.094000X-0.276500X0*%
%ADD33RoundRect,0.218750X0.256250X-0.218750X0.256250X0.218750X-0.256250X0.218750X-0.256250X-0.218750X0*%
%ADD34RoundRect,0.135000X0.135000X0.185000X-0.135000X0.185000X-0.135000X-0.185000X0.135000X-0.185000X0*%
%ADD35RoundRect,0.375000X0.375000X0.375000X-0.375000X0.375000X-0.375000X-0.375000X0.375000X-0.375000X0*%
%ADD36R,1.350000X0.650000*%
%ADD37R,1.400000X1.200000*%
%ADD38R,0.600000X1.140000*%
%ADD39R,0.300000X1.140000*%
%ADD40RoundRect,0.225000X-0.250000X0.225000X-0.250000X-0.225000X0.250000X-0.225000X0.250000X0.225000X0*%
%ADD41RoundRect,0.218750X0.218750X0.256250X-0.218750X0.256250X-0.218750X-0.256250X0.218750X-0.256250X0*%
%ADD42RoundRect,0.007800X0.422200X0.122200X-0.422200X0.122200X-0.422200X-0.122200X0.422200X-0.122200X0*%
%ADD43RoundRect,0.007800X0.122200X-0.422200X0.122200X0.422200X-0.122200X0.422200X-0.122200X-0.422200X0*%
%ADD44R,0.500000X5.000000*%
%ADD45R,0.500000X0.500000*%
%ADD46R,4.900000X0.500000*%
%ADD47R,2.640000X0.500000*%
%ADD48R,0.500000X2.000000*%
%ADD49R,0.500000X2.700000*%
%ADD50R,3.940000X0.500000*%
%ADD51R,4.900000X0.900000*%
%ADD52RoundRect,0.147500X-0.147500X-0.172500X0.147500X-0.172500X0.147500X0.172500X-0.147500X0.172500X0*%
G04 APERTURE END LIST*
D10*
X28575000Y-42075000D02*
X26855000Y-42075000D01*
X26855000Y-40355000D01*
X28575000Y-40355000D01*
X28575000Y-42075000D01*
G36*
X28575000Y-42075000D02*
G01*
X26855000Y-42075000D01*
X26855000Y-40355000D01*
X28575000Y-40355000D01*
X28575000Y-42075000D01*
G37*
X28575000Y-39645000D02*
X26855000Y-39645000D01*
X26855000Y-37925000D01*
X28575000Y-37925000D01*
X28575000Y-39645000D01*
G36*
X28575000Y-39645000D02*
G01*
X26855000Y-39645000D01*
X26855000Y-37925000D01*
X28575000Y-37925000D01*
X28575000Y-39645000D01*
G37*
X26145000Y-42075000D02*
X24425000Y-42075000D01*
X24425000Y-40355000D01*
X26145000Y-40355000D01*
X26145000Y-42075000D01*
G36*
X26145000Y-42075000D02*
G01*
X24425000Y-42075000D01*
X24425000Y-40355000D01*
X26145000Y-40355000D01*
X26145000Y-42075000D01*
G37*
X26145000Y-39645000D02*
X24425000Y-39645000D01*
X24425000Y-37925000D01*
X26145000Y-37925000D01*
X26145000Y-39645000D01*
G36*
X26145000Y-39645000D02*
G01*
X24425000Y-39645000D01*
X24425000Y-37925000D01*
X26145000Y-37925000D01*
X26145000Y-39645000D01*
G37*
X18823000Y-9603500D02*
X18825000Y-9603500D01*
X18828000Y-9604500D01*
X18830000Y-9604500D01*
X18833000Y-9605500D01*
X18835000Y-9606500D01*
X18838000Y-9607500D01*
X18840000Y-9609500D01*
X18842000Y-9610500D01*
X18844000Y-9612500D01*
X18846000Y-9613500D01*
X18848000Y-9615500D01*
X18850000Y-9617500D01*
X18852000Y-9619500D01*
X18854000Y-9621500D01*
X18855000Y-9623500D01*
X18857000Y-9625500D01*
X18858000Y-9627500D01*
X18860000Y-9629500D01*
X18861000Y-9632500D01*
X18862000Y-9634500D01*
X18863000Y-9637500D01*
X18863000Y-9639500D01*
X18864000Y-9642500D01*
X18864000Y-9644500D01*
X18865000Y-9647500D01*
X18865000Y-9649500D01*
X18865000Y-9652500D01*
X18865000Y-10117500D01*
X18865000Y-10120500D01*
X18865000Y-10122500D01*
X18864000Y-10125500D01*
X18864000Y-10127500D01*
X18863000Y-10130500D01*
X18863000Y-10132500D01*
X18862000Y-10135500D01*
X18861000Y-10137500D01*
X18860000Y-10140500D01*
X18858000Y-10142500D01*
X18857000Y-10144500D01*
X18855000Y-10146500D01*
X18854000Y-10148500D01*
X18852000Y-10150500D01*
X18850000Y-10152500D01*
X18848000Y-10154500D01*
X18846000Y-10156500D01*
X18844000Y-10157500D01*
X18842000Y-10159500D01*
X18840000Y-10160500D01*
X18838000Y-10162500D01*
X18835000Y-10163500D01*
X18833000Y-10164500D01*
X18830000Y-10165500D01*
X18828000Y-10165500D01*
X18825000Y-10166500D01*
X18823000Y-10166500D01*
X18820000Y-10167500D01*
X18818000Y-10167500D01*
X18815000Y-10167500D01*
X18555000Y-10167500D01*
X18552000Y-10167500D01*
X18550000Y-10167500D01*
X18547000Y-10166500D01*
X18545000Y-10166500D01*
X18542000Y-10165500D01*
X18540000Y-10165500D01*
X18537000Y-10164500D01*
X18535000Y-10163500D01*
X18532000Y-10162500D01*
X18530000Y-10160500D01*
X18528000Y-10159500D01*
X18526000Y-10157500D01*
X18524000Y-10156500D01*
X18522000Y-10154500D01*
X18520000Y-10152500D01*
X18518000Y-10150500D01*
X18516000Y-10148500D01*
X18515000Y-10146500D01*
X18513000Y-10144500D01*
X18512000Y-10142500D01*
X18510000Y-10140500D01*
X18509000Y-10137500D01*
X18508000Y-10135500D01*
X18507000Y-10132500D01*
X18507000Y-10130500D01*
X18506000Y-10127500D01*
X18506000Y-10125500D01*
X18505000Y-10122500D01*
X18505000Y-10120500D01*
X18505000Y-10117500D01*
X18505000Y-9652500D01*
X18505000Y-9649500D01*
X18505000Y-9647500D01*
X18506000Y-9644500D01*
X18506000Y-9642500D01*
X18507000Y-9639500D01*
X18507000Y-9637500D01*
X18508000Y-9634500D01*
X18509000Y-9632500D01*
X18510000Y-9629500D01*
X18512000Y-9627500D01*
X18513000Y-9625500D01*
X18515000Y-9623500D01*
X18516000Y-9621500D01*
X18518000Y-9619500D01*
X18520000Y-9617500D01*
X18522000Y-9615500D01*
X18524000Y-9613500D01*
X18526000Y-9612500D01*
X18528000Y-9610500D01*
X18530000Y-9609500D01*
X18532000Y-9607500D01*
X18535000Y-9606500D01*
X18537000Y-9605500D01*
X18540000Y-9604500D01*
X18542000Y-9604500D01*
X18545000Y-9603500D01*
X18547000Y-9603500D01*
X18550000Y-9602500D01*
X18552000Y-9602500D01*
X18555000Y-9602500D01*
X18815000Y-9602500D01*
X18818000Y-9602500D01*
X18820000Y-9602500D01*
X18823000Y-9603500D01*
G36*
X18823000Y-9603500D02*
G01*
X18825000Y-9603500D01*
X18828000Y-9604500D01*
X18830000Y-9604500D01*
X18833000Y-9605500D01*
X18835000Y-9606500D01*
X18838000Y-9607500D01*
X18840000Y-9609500D01*
X18842000Y-9610500D01*
X18844000Y-9612500D01*
X18846000Y-9613500D01*
X18848000Y-9615500D01*
X18850000Y-9617500D01*
X18852000Y-9619500D01*
X18854000Y-9621500D01*
X18855000Y-9623500D01*
X18857000Y-9625500D01*
X18858000Y-9627500D01*
X18860000Y-9629500D01*
X18861000Y-9632500D01*
X18862000Y-9634500D01*
X18863000Y-9637500D01*
X18863000Y-9639500D01*
X18864000Y-9642500D01*
X18864000Y-9644500D01*
X18865000Y-9647500D01*
X18865000Y-9649500D01*
X18865000Y-9652500D01*
X18865000Y-10117500D01*
X18865000Y-10120500D01*
X18865000Y-10122500D01*
X18864000Y-10125500D01*
X18864000Y-10127500D01*
X18863000Y-10130500D01*
X18863000Y-10132500D01*
X18862000Y-10135500D01*
X18861000Y-10137500D01*
X18860000Y-10140500D01*
X18858000Y-10142500D01*
X18857000Y-10144500D01*
X18855000Y-10146500D01*
X18854000Y-10148500D01*
X18852000Y-10150500D01*
X18850000Y-10152500D01*
X18848000Y-10154500D01*
X18846000Y-10156500D01*
X18844000Y-10157500D01*
X18842000Y-10159500D01*
X18840000Y-10160500D01*
X18838000Y-10162500D01*
X18835000Y-10163500D01*
X18833000Y-10164500D01*
X18830000Y-10165500D01*
X18828000Y-10165500D01*
X18825000Y-10166500D01*
X18823000Y-10166500D01*
X18820000Y-10167500D01*
X18818000Y-10167500D01*
X18815000Y-10167500D01*
X18555000Y-10167500D01*
X18552000Y-10167500D01*
X18550000Y-10167500D01*
X18547000Y-10166500D01*
X18545000Y-10166500D01*
X18542000Y-10165500D01*
X18540000Y-10165500D01*
X18537000Y-10164500D01*
X18535000Y-10163500D01*
X18532000Y-10162500D01*
X18530000Y-10160500D01*
X18528000Y-10159500D01*
X18526000Y-10157500D01*
X18524000Y-10156500D01*
X18522000Y-10154500D01*
X18520000Y-10152500D01*
X18518000Y-10150500D01*
X18516000Y-10148500D01*
X18515000Y-10146500D01*
X18513000Y-10144500D01*
X18512000Y-10142500D01*
X18510000Y-10140500D01*
X18509000Y-10137500D01*
X18508000Y-10135500D01*
X18507000Y-10132500D01*
X18507000Y-10130500D01*
X18506000Y-10127500D01*
X18506000Y-10125500D01*
X18505000Y-10122500D01*
X18505000Y-10120500D01*
X18505000Y-10117500D01*
X18505000Y-9652500D01*
X18505000Y-9649500D01*
X18505000Y-9647500D01*
X18506000Y-9644500D01*
X18506000Y-9642500D01*
X18507000Y-9639500D01*
X18507000Y-9637500D01*
X18508000Y-9634500D01*
X18509000Y-9632500D01*
X18510000Y-9629500D01*
X18512000Y-9627500D01*
X18513000Y-9625500D01*
X18515000Y-9623500D01*
X18516000Y-9621500D01*
X18518000Y-9619500D01*
X18520000Y-9617500D01*
X18522000Y-9615500D01*
X18524000Y-9613500D01*
X18526000Y-9612500D01*
X18528000Y-9610500D01*
X18530000Y-9609500D01*
X18532000Y-9607500D01*
X18535000Y-9606500D01*
X18537000Y-9605500D01*
X18540000Y-9604500D01*
X18542000Y-9604500D01*
X18545000Y-9603500D01*
X18547000Y-9603500D01*
X18550000Y-9602500D01*
X18552000Y-9602500D01*
X18555000Y-9602500D01*
X18815000Y-9602500D01*
X18818000Y-9602500D01*
X18820000Y-9602500D01*
X18823000Y-9603500D01*
G37*
X18823000Y-8768500D02*
X18825000Y-8768500D01*
X18828000Y-8769500D01*
X18830000Y-8769500D01*
X18833000Y-8770500D01*
X18835000Y-8771500D01*
X18838000Y-8772500D01*
X18840000Y-8774500D01*
X18842000Y-8775500D01*
X18844000Y-8777500D01*
X18846000Y-8778500D01*
X18848000Y-8780500D01*
X18850000Y-8782500D01*
X18852000Y-8784500D01*
X18854000Y-8786500D01*
X18855000Y-8788500D01*
X18857000Y-8790500D01*
X18858000Y-8792500D01*
X18860000Y-8794500D01*
X18861000Y-8797500D01*
X18862000Y-8799500D01*
X18863000Y-8802500D01*
X18863000Y-8804500D01*
X18864000Y-8807500D01*
X18864000Y-8809500D01*
X18865000Y-8812500D01*
X18865000Y-8814500D01*
X18865000Y-8817500D01*
X18865000Y-9282500D01*
X18865000Y-9285500D01*
X18865000Y-9287500D01*
X18864000Y-9290500D01*
X18864000Y-9292500D01*
X18863000Y-9295500D01*
X18863000Y-9297500D01*
X18862000Y-9300500D01*
X18861000Y-9302500D01*
X18860000Y-9305500D01*
X18858000Y-9307500D01*
X18857000Y-9309500D01*
X18855000Y-9311500D01*
X18854000Y-9313500D01*
X18852000Y-9315500D01*
X18850000Y-9317500D01*
X18848000Y-9319500D01*
X18846000Y-9321500D01*
X18844000Y-9322500D01*
X18842000Y-9324500D01*
X18840000Y-9325500D01*
X18838000Y-9327500D01*
X18835000Y-9328500D01*
X18833000Y-9329500D01*
X18830000Y-9330500D01*
X18828000Y-9330500D01*
X18825000Y-9331500D01*
X18823000Y-9331500D01*
X18820000Y-9332500D01*
X18818000Y-9332500D01*
X18815000Y-9332500D01*
X18555000Y-9332500D01*
X18552000Y-9332500D01*
X18550000Y-9332500D01*
X18547000Y-9331500D01*
X18545000Y-9331500D01*
X18542000Y-9330500D01*
X18540000Y-9330500D01*
X18537000Y-9329500D01*
X18535000Y-9328500D01*
X18532000Y-9327500D01*
X18530000Y-9325500D01*
X18528000Y-9324500D01*
X18526000Y-9322500D01*
X18524000Y-9321500D01*
X18522000Y-9319500D01*
X18520000Y-9317500D01*
X18518000Y-9315500D01*
X18516000Y-9313500D01*
X18515000Y-9311500D01*
X18513000Y-9309500D01*
X18512000Y-9307500D01*
X18510000Y-9305500D01*
X18509000Y-9302500D01*
X18508000Y-9300500D01*
X18507000Y-9297500D01*
X18507000Y-9295500D01*
X18506000Y-9292500D01*
X18506000Y-9290500D01*
X18505000Y-9287500D01*
X18505000Y-9285500D01*
X18505000Y-9282500D01*
X18505000Y-8817500D01*
X18505000Y-8814500D01*
X18505000Y-8812500D01*
X18506000Y-8809500D01*
X18506000Y-8807500D01*
X18507000Y-8804500D01*
X18507000Y-8802500D01*
X18508000Y-8799500D01*
X18509000Y-8797500D01*
X18510000Y-8794500D01*
X18512000Y-8792500D01*
X18513000Y-8790500D01*
X18515000Y-8788500D01*
X18516000Y-8786500D01*
X18518000Y-8784500D01*
X18520000Y-8782500D01*
X18522000Y-8780500D01*
X18524000Y-8778500D01*
X18526000Y-8777500D01*
X18528000Y-8775500D01*
X18530000Y-8774500D01*
X18532000Y-8772500D01*
X18535000Y-8771500D01*
X18537000Y-8770500D01*
X18540000Y-8769500D01*
X18542000Y-8769500D01*
X18545000Y-8768500D01*
X18547000Y-8768500D01*
X18550000Y-8767500D01*
X18552000Y-8767500D01*
X18555000Y-8767500D01*
X18815000Y-8767500D01*
X18818000Y-8767500D01*
X18820000Y-8767500D01*
X18823000Y-8768500D01*
G36*
X18823000Y-8768500D02*
G01*
X18825000Y-8768500D01*
X18828000Y-8769500D01*
X18830000Y-8769500D01*
X18833000Y-8770500D01*
X18835000Y-8771500D01*
X18838000Y-8772500D01*
X18840000Y-8774500D01*
X18842000Y-8775500D01*
X18844000Y-8777500D01*
X18846000Y-8778500D01*
X18848000Y-8780500D01*
X18850000Y-8782500D01*
X18852000Y-8784500D01*
X18854000Y-8786500D01*
X18855000Y-8788500D01*
X18857000Y-8790500D01*
X18858000Y-8792500D01*
X18860000Y-8794500D01*
X18861000Y-8797500D01*
X18862000Y-8799500D01*
X18863000Y-8802500D01*
X18863000Y-8804500D01*
X18864000Y-8807500D01*
X18864000Y-8809500D01*
X18865000Y-8812500D01*
X18865000Y-8814500D01*
X18865000Y-8817500D01*
X18865000Y-9282500D01*
X18865000Y-9285500D01*
X18865000Y-9287500D01*
X18864000Y-9290500D01*
X18864000Y-9292500D01*
X18863000Y-9295500D01*
X18863000Y-9297500D01*
X18862000Y-9300500D01*
X18861000Y-9302500D01*
X18860000Y-9305500D01*
X18858000Y-9307500D01*
X18857000Y-9309500D01*
X18855000Y-9311500D01*
X18854000Y-9313500D01*
X18852000Y-9315500D01*
X18850000Y-9317500D01*
X18848000Y-9319500D01*
X18846000Y-9321500D01*
X18844000Y-9322500D01*
X18842000Y-9324500D01*
X18840000Y-9325500D01*
X18838000Y-9327500D01*
X18835000Y-9328500D01*
X18833000Y-9329500D01*
X18830000Y-9330500D01*
X18828000Y-9330500D01*
X18825000Y-9331500D01*
X18823000Y-9331500D01*
X18820000Y-9332500D01*
X18818000Y-9332500D01*
X18815000Y-9332500D01*
X18555000Y-9332500D01*
X18552000Y-9332500D01*
X18550000Y-9332500D01*
X18547000Y-9331500D01*
X18545000Y-9331500D01*
X18542000Y-9330500D01*
X18540000Y-9330500D01*
X18537000Y-9329500D01*
X18535000Y-9328500D01*
X18532000Y-9327500D01*
X18530000Y-9325500D01*
X18528000Y-9324500D01*
X18526000Y-9322500D01*
X18524000Y-9321500D01*
X18522000Y-9319500D01*
X18520000Y-9317500D01*
X18518000Y-9315500D01*
X18516000Y-9313500D01*
X18515000Y-9311500D01*
X18513000Y-9309500D01*
X18512000Y-9307500D01*
X18510000Y-9305500D01*
X18509000Y-9302500D01*
X18508000Y-9300500D01*
X18507000Y-9297500D01*
X18507000Y-9295500D01*
X18506000Y-9292500D01*
X18506000Y-9290500D01*
X18505000Y-9287500D01*
X18505000Y-9285500D01*
X18505000Y-9282500D01*
X18505000Y-8817500D01*
X18505000Y-8814500D01*
X18505000Y-8812500D01*
X18506000Y-8809500D01*
X18506000Y-8807500D01*
X18507000Y-8804500D01*
X18507000Y-8802500D01*
X18508000Y-8799500D01*
X18509000Y-8797500D01*
X18510000Y-8794500D01*
X18512000Y-8792500D01*
X18513000Y-8790500D01*
X18515000Y-8788500D01*
X18516000Y-8786500D01*
X18518000Y-8784500D01*
X18520000Y-8782500D01*
X18522000Y-8780500D01*
X18524000Y-8778500D01*
X18526000Y-8777500D01*
X18528000Y-8775500D01*
X18530000Y-8774500D01*
X18532000Y-8772500D01*
X18535000Y-8771500D01*
X18537000Y-8770500D01*
X18540000Y-8769500D01*
X18542000Y-8769500D01*
X18545000Y-8768500D01*
X18547000Y-8768500D01*
X18550000Y-8767500D01*
X18552000Y-8767500D01*
X18555000Y-8767500D01*
X18815000Y-8767500D01*
X18818000Y-8767500D01*
X18820000Y-8767500D01*
X18823000Y-8768500D01*
G37*
X49245000Y-40180000D02*
X48185000Y-40180000D01*
X48185000Y-39120000D01*
X49245000Y-39120000D01*
X49245000Y-40180000D01*
G36*
X49245000Y-40180000D02*
G01*
X48185000Y-40180000D01*
X48185000Y-39120000D01*
X49245000Y-39120000D01*
X49245000Y-40180000D01*
G37*
D11*
X22840000Y-33160000D03*
X22840000Y-34120000D03*
D12*
X63335000Y-67450000D03*
X63335000Y-64150000D03*
X36000000Y-10950000D03*
X36000000Y-7650000D03*
D13*
X28525000Y-34650000D03*
X26975000Y-34650000D03*
D14*
X267635000Y-20050000D03*
X267635000Y-23350000D03*
D15*
X27750000Y-36750000D03*
X27250000Y-36750000D03*
X26750000Y-36750000D03*
X26250000Y-36750000D03*
X25750000Y-36750000D03*
X25250000Y-36750000D03*
X24750000Y-36750000D03*
X24250000Y-36750000D03*
X23750000Y-36750000D03*
X23250000Y-42250000D03*
X29250000Y-42500000D03*
X28500000Y-42750000D03*
X27500000Y-42750000D03*
X27000000Y-42750000D03*
X26500000Y-42750000D03*
X26000000Y-42750000D03*
X25500000Y-42750000D03*
X25000000Y-42750000D03*
X24500000Y-42750000D03*
X23250000Y-42750000D03*
X29250000Y-43250000D03*
X28750000Y-43250000D03*
X28250000Y-43250000D03*
X27750000Y-43250000D03*
X27250000Y-43250000D03*
X26750000Y-43250000D03*
X26250000Y-43250000D03*
X25750000Y-43250000D03*
X25250000Y-43250000D03*
X24750000Y-43250000D03*
X24250000Y-43250000D03*
X23750000Y-43250000D03*
X29750000Y-37250000D03*
X29000000Y-37250000D03*
X28500000Y-37250000D03*
X28000000Y-37250000D03*
X27500000Y-37250000D03*
X27000000Y-37250000D03*
X26500000Y-37250000D03*
X26000000Y-37250000D03*
X25500000Y-37250000D03*
X25000000Y-37250000D03*
X23250000Y-37250000D03*
X29750000Y-37750000D03*
X29250000Y-38000000D03*
X23750000Y-38000000D03*
X23250000Y-38250000D03*
X29250000Y-38500000D03*
X23750000Y-38500000D03*
X29750000Y-38750000D03*
X29250000Y-39000000D03*
X23750000Y-39000000D03*
X29750000Y-39250000D03*
X23250000Y-39250000D03*
X29250000Y-39500000D03*
X29750000Y-39750000D03*
X23250000Y-39750000D03*
X29250000Y-40000000D03*
X29750000Y-40250000D03*
X23250000Y-40250000D03*
X29250000Y-40500000D03*
X23750000Y-40500000D03*
X29750000Y-40750000D03*
X23250000Y-40750000D03*
X29250000Y-41000000D03*
X23750000Y-41000000D03*
X29750000Y-41250000D03*
X23250000Y-41250000D03*
X23750000Y-41500000D03*
X29750000Y-41750000D03*
X23250000Y-41750000D03*
X29250000Y-42000000D03*
X23750000Y-42000000D03*
D16*
X33930000Y-34750000D03*
X32970000Y-34750000D03*
D17*
X50875000Y-14740000D03*
X50875000Y-20340000D03*
D18*
X47000000Y-16040000D03*
X47000000Y-17040000D03*
X47000000Y-18040000D03*
X47000000Y-19040000D03*
D12*
X13735000Y-67450000D03*
X13735000Y-64150000D03*
D19*
X21700000Y-86010000D03*
X21700000Y-84990000D03*
D12*
X131300000Y-10950000D03*
X131300000Y-7650000D03*
X55470000Y-10970000D03*
X55470000Y-7670000D03*
D20*
X193750000Y-80500000D03*
X197050000Y-80500000D03*
D14*
X167235000Y-20050000D03*
X167235000Y-23350000D03*
D21*
X17170000Y-38900000D03*
X16200000Y-38900000D03*
D14*
X72335000Y-20050000D03*
X72335000Y-23350000D03*
X110235000Y-20050000D03*
X110235000Y-23350000D03*
D12*
X149135000Y-48450000D03*
X149135000Y-45150000D03*
X111135000Y-48450000D03*
X111135000Y-45150000D03*
D22*
X11885000Y-52200000D03*
X8585000Y-52200000D03*
D23*
X53550000Y-55090000D03*
X53550000Y-52790000D03*
X46050000Y-55090000D03*
X46050000Y-52790000D03*
D24*
X52050000Y-51840000D03*
X49050000Y-51840000D03*
X47550000Y-51840000D03*
D12*
X239700000Y-86450000D03*
X239700000Y-83150000D03*
D22*
X40350000Y-51900000D03*
X37050000Y-51900000D03*
D14*
X186235000Y-20050000D03*
X186235000Y-23350000D03*
D12*
X4335000Y-89350000D03*
X4335000Y-86050000D03*
D25*
X20270000Y-36950000D03*
X21230000Y-36950000D03*
D26*
X7625000Y-69300000D03*
X8645000Y-69300000D03*
X26740000Y-32250000D03*
X27760000Y-32250000D03*
D16*
X23695000Y-45050000D03*
X22735000Y-45050000D03*
D27*
X31900000Y-43850000D03*
X33800000Y-43850000D03*
D12*
X73035000Y-48450000D03*
X73035000Y-45150000D03*
X177835000Y-67350000D03*
X177835000Y-64050000D03*
X82535000Y-67350000D03*
X82535000Y-64050000D03*
D14*
X129335000Y-20050000D03*
X129335000Y-23350000D03*
D28*
X7635000Y-66590000D03*
X7635000Y-67610000D03*
D29*
X17915000Y-33930000D03*
X17915000Y-32970000D03*
D12*
X58400000Y-10950000D03*
X58400000Y-7650000D03*
D26*
X7525000Y-65600000D03*
X8545000Y-65600000D03*
D28*
X50035000Y-42495000D03*
X50035000Y-43515000D03*
D12*
X135100000Y-53450000D03*
X135100000Y-50150000D03*
X134400000Y-10950000D03*
X134400000Y-7650000D03*
X120635000Y-67350000D03*
X120635000Y-64050000D03*
X121535000Y-86450000D03*
X121535000Y-83150000D03*
D28*
X20000000Y-20890000D03*
X20000000Y-21910000D03*
D21*
X20235000Y-38950000D03*
X19265000Y-38950000D03*
D30*
X51935000Y-39855000D03*
X51935000Y-41755000D03*
D31*
X30050000Y-33162500D03*
X30050000Y-34737500D03*
D32*
X19685000Y-9885000D03*
X19185000Y-9885000D03*
X18185000Y-9885000D03*
X17685000Y-9885000D03*
X17685000Y-9050000D03*
X18185000Y-9050000D03*
X19185000Y-9050000D03*
X19685000Y-9050000D03*
D33*
X24535000Y-3387500D03*
X24535000Y-1812500D03*
D30*
X35650000Y-42100000D03*
X35650000Y-44000000D03*
D34*
X14610000Y-50550000D03*
X13590000Y-50550000D03*
D12*
X101635000Y-67450000D03*
X101635000Y-64150000D03*
D14*
X243835000Y-20050000D03*
X243835000Y-23350000D03*
D28*
X53900000Y-38730000D03*
X53900000Y-39750000D03*
X46000000Y-37840000D03*
X46000000Y-38860000D03*
D12*
X256035000Y-48450000D03*
X256035000Y-45150000D03*
D14*
X205335000Y-20050000D03*
X205335000Y-23350000D03*
X224435000Y-20050000D03*
X224435000Y-23350000D03*
D12*
X216135000Y-67450000D03*
X216135000Y-64150000D03*
D20*
X47450000Y-26040000D03*
X50750000Y-26040000D03*
D12*
X168235000Y-48450000D03*
X168235000Y-45150000D03*
D16*
X34195000Y-36250000D03*
X33235000Y-36250000D03*
D12*
X263800000Y-86550000D03*
X263800000Y-83250000D03*
D35*
X37225000Y-65400000D03*
X31775000Y-65400000D03*
X37225000Y-68400000D03*
X31775000Y-68400000D03*
D12*
X229900000Y-10950000D03*
X229900000Y-7650000D03*
D13*
X47675000Y-36600000D03*
X46125000Y-36600000D03*
D12*
X46100000Y-86450000D03*
X46100000Y-83150000D03*
D17*
X60800000Y-37000000D03*
X60800000Y-40600000D03*
D18*
X56925000Y-38300000D03*
X56925000Y-39300000D03*
D16*
X34195000Y-38550000D03*
X33235000Y-38550000D03*
D12*
X216100000Y-86450000D03*
X216100000Y-83150000D03*
D25*
X20220000Y-40600000D03*
X21180000Y-40600000D03*
D12*
X268335000Y-67450000D03*
X268335000Y-64150000D03*
X139835000Y-67450000D03*
X139835000Y-64150000D03*
X225335000Y-48450000D03*
X225335000Y-45150000D03*
X50900000Y-86450000D03*
X50900000Y-83150000D03*
D36*
X32015000Y-36250000D03*
X32015000Y-38650000D03*
D14*
X91335000Y-20050000D03*
X91335000Y-23350000D03*
D34*
X13760000Y-68950000D03*
X12740000Y-68950000D03*
D16*
X27730000Y-33350000D03*
X26770000Y-33350000D03*
D28*
X20835000Y-9040000D03*
X20835000Y-10060000D03*
D14*
X34335000Y-20050000D03*
X34335000Y-23350000D03*
D19*
X48935000Y-37025000D03*
X48935000Y-36005000D03*
D20*
X269750000Y-12700000D03*
X273050000Y-12700000D03*
D29*
X21350000Y-38930000D03*
X21350000Y-37970000D03*
D26*
X7625000Y-62300000D03*
X8645000Y-62300000D03*
X7525000Y-70500000D03*
X8545000Y-70500000D03*
D12*
X92135000Y-48450000D03*
X92135000Y-45150000D03*
X188400000Y-10950000D03*
X188400000Y-7650000D03*
D28*
X50135000Y-35995000D03*
X50135000Y-37015000D03*
D12*
X153400000Y-10950000D03*
X153400000Y-7650000D03*
X44435000Y-67350000D03*
X44435000Y-64050000D03*
D37*
X21515000Y-34500000D03*
X19315000Y-34500000D03*
X19315000Y-32800000D03*
X21515000Y-32800000D03*
D26*
X51490000Y-37800000D03*
X52510000Y-37800000D03*
D38*
X15200000Y-6550000D03*
X16000000Y-6550000D03*
D39*
X17150000Y-6550000D03*
X18150000Y-6550000D03*
X18650000Y-6550000D03*
X19650000Y-6550000D03*
D38*
X21600000Y-6550000D03*
X20800000Y-6550000D03*
D39*
X20150000Y-6550000D03*
X19150000Y-6550000D03*
X17650000Y-6550000D03*
X16650000Y-6550000D03*
D12*
X77400000Y-10950000D03*
X77400000Y-7650000D03*
X96400000Y-10950000D03*
X96400000Y-7650000D03*
X53835000Y-48350000D03*
X53835000Y-45050000D03*
X241135000Y-67550000D03*
X241135000Y-64250000D03*
D14*
X10585000Y-20050000D03*
X10585000Y-23350000D03*
D22*
X9735000Y-14550000D03*
X6435000Y-14550000D03*
D12*
X197035000Y-67550000D03*
X197035000Y-64250000D03*
D11*
X25550000Y-33570000D03*
X25550000Y-34530000D03*
D25*
X18370000Y-35750000D03*
X19330000Y-35750000D03*
D29*
X24365000Y-34630000D03*
X24365000Y-33670000D03*
D12*
X249500000Y-10650000D03*
X249500000Y-7350000D03*
D28*
X7700000Y-63390000D03*
X7700000Y-64410000D03*
D12*
X191400000Y-10950000D03*
X191400000Y-7650000D03*
D29*
X18185000Y-38930000D03*
X18185000Y-37970000D03*
D28*
X14700000Y-15880000D03*
X14700000Y-16900000D03*
D12*
X206235000Y-48450000D03*
X206235000Y-45150000D03*
X187335000Y-48350000D03*
X187335000Y-45050000D03*
D40*
X31650000Y-33075000D03*
X31650000Y-34625000D03*
D12*
X158835000Y-67450000D03*
X158835000Y-64150000D03*
D28*
X16585000Y-9040000D03*
X16585000Y-10060000D03*
D41*
X33437500Y-42050000D03*
X31862500Y-42050000D03*
D42*
X50150000Y-38900000D03*
X50150000Y-39400000D03*
X50150000Y-39900000D03*
X50150000Y-40400000D03*
D43*
X49465000Y-41085000D03*
X48965000Y-41085000D03*
X48465000Y-41085000D03*
X47965000Y-41085000D03*
D42*
X47280000Y-40400000D03*
X47280000Y-39900000D03*
X47280000Y-39400000D03*
X47280000Y-38900000D03*
D43*
X47965000Y-38215000D03*
X48465000Y-38215000D03*
X48965000Y-38215000D03*
X49465000Y-38215000D03*
D25*
X26735000Y-45050000D03*
X27695000Y-45050000D03*
D14*
X148335000Y-20050000D03*
X148335000Y-23350000D03*
D12*
X210900000Y-10950000D03*
X210900000Y-7650000D03*
D44*
X1195000Y-34500000D03*
D45*
X6095000Y-34550000D03*
D46*
X3895000Y-34550000D03*
D47*
X2765000Y-36750000D03*
D48*
X3835000Y-38000000D03*
D47*
X2765000Y-39250000D03*
D49*
X1195000Y-40350000D03*
D47*
X2765000Y-41450000D03*
D48*
X3835000Y-42700000D03*
D47*
X2765000Y-43950000D03*
D49*
X1195000Y-45050000D03*
D50*
X3415000Y-46150000D03*
D51*
X3895000Y-32450000D03*
D52*
X29115000Y-31900000D03*
X30085000Y-31900000D03*
D27*
X31000000Y-45950000D03*
X32900000Y-45950000D03*
D28*
X48785000Y-42495000D03*
X48785000Y-43515000D03*
X7635000Y-71590000D03*
X7635000Y-72610000D03*
M02*
