M48
; DRILL file {KiCad 7.0.1-0} date 2023 August 08, Tuesday 22:46:07
; FORMAT={-:-/ absolute / metric / decimal}
; #@! TF.CreationDate,2023-08-08T22:46:07+05:30
; #@! TF.GenerationSoftware,Kicad,Pcbnew,7.0.1-0
; #@! TF.FileFunction,Plated,1,2,PTH
FMAT,2
METRIC
; #@! TA.AperFunction,Plated,PTH,ViaDrill
T1C0.300
; #@! TA.AperFunction,Plated,PTH,ComponentDrill
T2C0.300
; #@! TA.AperFunction,Plated,PTH,ComponentDrill
T3C0.600
; #@! TA.AperFunction,Plated,PTH,ComponentDrill
T4C1.450
; #@! TA.AperFunction,Plated,PTH,ComponentDrill
T5C1.470
; #@! TA.AperFunction,Plated,PTH,ComponentDrill
T6C1.500
; #@! TA.AperFunction,Plated,PTH,ComponentDrill
T7C2.400
; #@! TA.AperFunction,Plated,PTH,ComponentDrill
T8C2.499
%
G90
G05
T1
X2.01Y-77.44
X3.435Y-78.8
X4.835Y-79.565
X4.9Y-75.3
X5.93Y-72.21
X6.135Y-78.6
X7.08Y-69.3
X7.935Y-68.5
X7.95Y-43.05
X8.435Y-71.6
X8.635Y-64.4
X8.735Y-67.6
X9.348Y-68.913
X9.65Y-50.45
X9.782Y-70.047
X9.95Y-39.6
X10.6Y-52.2
X10.89Y-69.76
X11.0Y-54.95
X11.0Y-71.8
X11.3Y-80.85
X11.4Y-44.3
X11.479Y-68.9
X11.9Y-59.05
X12.15Y-64.25
X12.79Y-79.155
X12.8Y-43.2
X12.8Y-69.85
X13.7Y-54.8
X13.835Y-57.5
X14.75Y-18.1
X15.035Y-57.6
X15.7Y-62.9
X16.235Y-56.2
X16.35Y-54.4
X16.5Y-62.9
X16.6Y-10.8
X16.65Y-44.5
X16.65Y-50.85
X16.7Y-40.35
X17.3Y-41.2
X17.65Y-35.7
X17.7Y-11.29
X18.104Y-13.841
X18.18Y-37.35
X18.705Y-14.54
X18.8Y-10.6
X19.078Y-11.296
X19.09Y-37.91
X19.3Y-40.55
X19.335Y-55.9
X19.55Y-37.01
X19.97Y-37.91
X20.0Y-22.6
X20.2Y-61.9
X20.267Y-45.367
X20.425Y-46.825
X20.575Y-44.275
X20.9Y-10.7
X21.0Y-62.0
X21.2Y-42.5
X21.25Y-49.25
X21.45Y-57.25
X22.1Y-45.05
X22.15Y-56.3
X23.099Y-34.848
X23.571Y-46.824
X24.1Y-55.75
X24.35Y-47.25
X24.4Y-32.7
X24.55Y-35.8
X24.6Y-60.0
X25.435Y-3.4
X25.45Y-47.4
X25.5Y-31.95
X25.55Y-32.75
X25.85Y-36.05
X26.15Y-31.2
X26.235Y-54.8
X26.4Y-58.7
X26.79Y-43.65
X26.897Y-47.95
X26.95Y-31.4
X27.247Y-44.266
X27.303Y-14.2
X27.322Y-35.934
X27.7Y-22.0
X27.7Y-45.73
X27.7Y-55.573
X27.76Y-31.59
X27.945Y-36.35
X27.985Y-44.135
X28.1Y-71.6
X28.55Y-54.55
X28.964Y-49.341
X29.535Y-79.1
X29.919Y-43.881
X30.1Y-14.1
X30.4Y-30.045
X30.4Y-65.4
X30.45Y-31.172
X30.6Y-41.9
X30.6Y-53.34
X31.0Y-47.35
X31.65Y-32.25
X32.0Y-45.95
X32.43Y-14.47
X32.85Y-47.1
X32.95Y-43.75
X33.8Y-45.25
X33.8Y-46.65
X33.85Y-45.95
X34.25Y-37.4
X34.45Y-45.1
X34.6Y-42.95
X34.7Y-34.7
X35.3Y-45.15
X35.4Y-43.05
X35.4Y-49.8
X35.5Y-20.9
X35.6Y-58.4
X36.2Y-43.05
X36.6Y-34.15
X36.85Y-76.35
X36.95Y-41.9
X38.05Y-60.85
X38.7Y-20.04
X38.7Y-23.24
X40.4Y-48.9
X40.6Y-42.94
X41.75Y-52.3
X42.09Y-44.54
X42.408Y-36.094
X43.22Y-36.06
X43.8Y-50.35
X45.2Y-36.6
X45.25Y-5.79
X45.3Y-37.8
X45.75Y-16.04
X45.779Y-17.236
X45.835Y-19.1
X46.0Y-18.04
X46.335Y-19.7
X47.035Y-19.7
X47.035Y-44.5
X47.342Y-41.663
X47.735Y-19.7
X48.235Y-19.0
X48.482Y-41.788
X48.9Y-35.4
X50.1Y-35.4
X50.1Y-53.04
X50.75Y-41.855
X51.2Y-47.94
X51.9Y-42.655
X52.1Y-49.24
X52.1Y-50.84
X53.1Y-41.805
X53.6Y-46.399
X53.95Y-37.75
X54.37Y-22.37
X56.4Y-40.0
X57.3Y-16.04
X57.3Y-40.0
X58.1Y-39.4
X61.5Y-43.9
X65.6Y-52.74
X240.6Y-17.35
X240.75Y-21.3
X251.3Y-16.8
X256.7Y-19.7
X257.1Y-16.2
X258.0Y-20.6
X265.9Y-19.8
X283.7Y-1.8
T2
X6.045Y-32.45
X24.7Y-38.2
X24.7Y-39.4
X24.7Y-40.6
X24.7Y-41.8
X25.9Y-38.2
X25.9Y-39.4
X25.9Y-40.6
X25.9Y-41.8
X27.1Y-38.2
X27.1Y-39.4
X27.1Y-40.6
X27.1Y-41.8
X28.3Y-38.2
X28.3Y-39.4
X28.3Y-40.6
X28.3Y-41.8
X48.215Y-39.15
X48.215Y-40.15
X49.215Y-39.15
X49.215Y-40.15
T4
X2.56Y-62.02
X2.56Y-64.56
X2.56Y-67.1
X2.56Y-69.64
X2.56Y-72.18
X5.1Y-63.29
X5.1Y-65.83
X5.1Y-68.37
X5.1Y-70.91
X5.1Y-73.45
T5
X127.225Y-83.16
X133.575Y-80.62
X139.18Y-83.18
X145.53Y-80.64
T6
X5.75Y-7.04
X8.12Y-83.14
X8.15Y-45.14
X10.55Y-26.14
X10.65Y-83.165
X12.1Y-4.5
X12.91Y-45.11
X14.47Y-80.6
X14.5Y-42.6
X16.9Y-23.6
X17.0Y-80.625
X17.66Y-64.14
X19.26Y-42.57
X24.01Y-61.6
X24.75Y-7.04
X31.1Y-4.5
X31.95Y-83.14
X34.35Y-26.14
X34.43Y-83.16
X38.3Y-80.6
X39.11Y-45.13
X40.7Y-23.6
X40.78Y-80.62
X43.75Y-7.04
X45.46Y-42.59
X48.62Y-64.14
X50.1Y-4.5
X53.25Y-26.14
X54.97Y-61.6
X55.79Y-83.14
X58.18Y-45.13
X58.21Y-83.165
X59.6Y-23.6
X62.14Y-80.6
X62.75Y-7.04
X64.53Y-42.59
X64.56Y-80.625
X67.72Y-64.14
X69.1Y-4.5
X72.25Y-26.14
X74.07Y-61.6
X77.23Y-45.12
X78.6Y-23.6
X81.75Y-7.04
X83.58Y-42.58
X86.77Y-64.14
X88.1Y-4.5
X91.25Y-26.14
X93.12Y-61.6
X96.31Y-45.15
X97.6Y-23.6
X100.75Y-7.04
X102.66Y-42.61
X105.88Y-64.14
X107.1Y-4.5
X110.25Y-26.14
X112.23Y-61.6
X115.37Y-45.17
X116.6Y-23.6
X119.75Y-7.04
X121.72Y-42.63
X124.96Y-64.14
X126.1Y-4.5
X129.25Y-26.14
X131.31Y-61.6
X134.42Y-45.17
X135.6Y-23.6
X138.75Y-7.04
X140.77Y-42.63
X144.05Y-64.14
X145.1Y-4.5
X148.25Y-26.14
X150.4Y-61.6
X153.535Y-45.14
X154.6Y-23.6
X157.75Y-7.04
X159.885Y-42.6
X163.11Y-64.14
X164.1Y-4.5
X167.25Y-26.14
X169.46Y-61.6
X172.535Y-45.14
X173.6Y-23.6
X176.85Y-7.04
X178.885Y-42.6
X182.18Y-64.14
X183.2Y-4.5
X186.25Y-26.14
X188.53Y-61.6
X191.535Y-45.14
X192.6Y-23.6
X195.95Y-7.04
X197.885Y-42.6
X198.595Y-83.16
X201.22Y-64.14
X202.3Y-4.5
X204.945Y-80.62
X205.25Y-26.14
X207.57Y-61.6
X210.585Y-45.14
X211.6Y-23.6
X215.05Y-7.04
X216.935Y-42.6
X220.11Y-83.205
X220.25Y-64.14
X221.4Y-4.5
X222.395Y-83.21
X224.485Y-26.14
X226.46Y-80.665
X226.6Y-61.6
X228.745Y-80.67
X229.585Y-45.14
X230.835Y-23.6
X234.25Y-7.04
X235.935Y-42.6
X240.6Y-4.5
X243.75Y-26.14
X243.91Y-83.165
X246.245Y-83.21
X246.355Y-64.16
X250.1Y-23.6
X250.26Y-80.625
X252.595Y-80.67
X252.705Y-61.62
X253.35Y-7.04
X255.775Y-64.16
X259.7Y-4.5
X260.55Y-45.14
X262.125Y-61.62
X262.885Y-7.04
X266.9Y-42.6
X267.68Y-26.14
X267.71Y-83.15
X269.235Y-4.5
X270.075Y-83.21
X272.435Y-64.16
X272.45Y-7.04
X274.03Y-23.6
X274.06Y-80.61
X276.425Y-80.67
X278.785Y-61.62
X278.8Y-4.5
T3
X14.075Y-1.4G85X14.075Y-2.2
G05
X14.075Y-5.42G85X14.075Y-6.52
G05
X22.725Y-1.4G85X22.725Y-2.2
G05
X22.725Y-5.42G85X22.725Y-6.52
G05
T7
X23.95Y-27.9G85X26.45Y-27.9
G05
X127.45Y-47.8G85X129.95Y-47.8
G05
X189.25Y-85.2G85X191.75Y-85.2
G05
X258.8Y-27.9G85X261.3Y-27.9
G05
T8
X-0.25Y-56.5G85X4.25Y-56.5
G05
X281.75Y-56.5G85X286.25Y-56.5
G05
T0
M30
