M48
; DRILL file {KiCad 7.0.1-0} date 2023 August 08, Tuesday 22:46:07
; FORMAT={-:-/ absolute / metric / decimal}
; #@! TF.CreationDate,2023-08-08T22:46:07+05:30
; #@! TF.GenerationSoftware,Kicad,Pcbnew,7.0.1-0
; #@! TF.FileFunction,NonPlated,1,2,NPTH
FMAT,2
METRIC
; #@! TA.AperFunction,NonPlated,NPTH,ComponentDrill
T1C0.600
; #@! TA.AperFunction,NonPlated,NPTH,ComponentDrill
T2C0.900
; #@! TA.AperFunction,NonPlated,NPTH,ComponentDrill
T3C1.016
; #@! TA.AperFunction,NonPlated,NPTH,ComponentDrill
T4C1.700
; #@! TA.AperFunction,NonPlated,NPTH,ComponentDrill
T5C1.750
; #@! TA.AperFunction,NonPlated,NPTH,ComponentDrill
T6C2.150
; #@! TA.AperFunction,NonPlated,NPTH,ComponentDrill
T7C2.550
; #@! TA.AperFunction,NonPlated,NPTH,ComponentDrill
T8C3.048
; #@! TA.AperFunction,NonPlated,NPTH,ComponentDrill
T9C3.050
; #@! TA.AperFunction,NonPlated,NPTH,ComponentDrill
T10C3.988
; #@! TA.AperFunction,NonPlated,NPTH,ComponentDrill
T11C4.000
%
G90
G05
T1
X15.51Y-5.48
X21.29Y-5.48
T2
X48.3Y-53.94
X51.3Y-53.94
T3
X2.295Y-79.184
X2.295Y-81.216
X7.375Y-80.2
T4
X4.48Y-9.58
X6.85Y-85.68
X6.88Y-47.68
X9.28Y-28.68
X9.38Y-85.705
X11.64Y-47.65
X14.64Y-9.58
X16.39Y-66.68
X17.01Y-85.68
X17.04Y-47.68
X19.44Y-28.68
X19.54Y-85.705
X21.8Y-47.65
X23.48Y-9.58
X26.55Y-66.68
X30.68Y-85.68
X33.08Y-28.68
X33.16Y-85.7
X33.64Y-9.58
X37.84Y-47.67
X40.84Y-85.68
X42.48Y-9.58
X43.24Y-28.68
X43.32Y-85.7
X47.35Y-66.68
X48.0Y-47.67
X51.98Y-28.68
X52.64Y-9.58
X54.52Y-85.68
X56.91Y-47.67
X56.94Y-85.705
X57.51Y-66.68
X61.48Y-9.58
X62.14Y-28.68
X64.68Y-85.68
X66.45Y-66.68
X67.07Y-47.67
X67.1Y-85.705
X70.98Y-28.68
X71.64Y-9.58
X75.96Y-47.66
X76.61Y-66.68
X80.48Y-9.58
X81.14Y-28.68
X85.5Y-66.68
X86.12Y-47.66
X89.98Y-28.68
X90.64Y-9.58
X95.04Y-47.69
X95.66Y-66.68
X99.48Y-9.58
X100.14Y-28.68
X104.61Y-66.68
X105.2Y-47.69
X108.98Y-28.68
X109.64Y-9.58
X114.1Y-47.71
X114.77Y-66.68
X118.48Y-9.58
X119.14Y-28.68
X123.69Y-66.68
X124.26Y-47.71
X127.98Y-28.68
X128.64Y-9.58
X133.15Y-47.71
X133.85Y-66.68
X137.48Y-9.58
X138.14Y-28.68
X142.78Y-66.68
X143.31Y-47.71
X146.98Y-28.68
X147.64Y-9.58
X152.265Y-47.68
X152.94Y-66.68
X156.48Y-9.58
X157.14Y-28.68
X161.84Y-66.68
X162.425Y-47.68
X165.98Y-28.68
X166.64Y-9.58
X171.265Y-47.68
X172.0Y-66.68
X175.58Y-9.58
X176.14Y-28.68
X180.91Y-66.68
X181.425Y-47.68
X184.98Y-28.68
X185.74Y-9.58
X190.265Y-47.68
X191.07Y-66.68
X194.68Y-9.58
X195.14Y-28.68
X197.325Y-85.7
X199.95Y-66.68
X200.425Y-47.68
X203.98Y-28.68
X204.84Y-9.58
X207.485Y-85.7
X209.315Y-47.68
X210.11Y-66.68
X213.78Y-9.58
X214.14Y-28.68
X218.84Y-85.745
X218.98Y-66.68
X219.475Y-47.68
X221.125Y-85.75
X223.215Y-28.68
X223.94Y-9.58
X228.315Y-47.68
X229.0Y-85.745
X229.14Y-66.68
X231.285Y-85.75
X232.98Y-9.58
X233.375Y-28.68
X238.475Y-47.68
X242.48Y-28.68
X242.64Y-85.705
X243.14Y-9.58
X244.975Y-85.75
X245.085Y-66.7
X252.08Y-9.58
X252.64Y-28.68
X252.8Y-85.705
X254.505Y-66.7
X255.135Y-85.75
X255.245Y-66.7
X259.28Y-47.68
X261.615Y-9.58
X262.24Y-9.58
X264.665Y-66.7
X266.41Y-28.68
X266.44Y-85.69
X268.805Y-85.75
X269.44Y-47.68
X271.165Y-66.7
X271.18Y-9.58
X271.775Y-9.58
X276.57Y-28.68
X276.6Y-85.69
X278.965Y-85.75
X281.325Y-66.7
X281.34Y-9.58
T5
X125.955Y-85.7
X136.115Y-85.7
X137.91Y-85.72
X148.07Y-85.72
T6
X2.56Y-74.78
T7
X5.1Y-60.69
T8
X81.035Y-92.685
X85.84Y-92.705
X181.035Y-92.685
X200.14Y-92.705
T9
X9.57Y-59.68
X33.37Y-59.68
X247.685Y-59.7
X252.46Y-40.68
X254.795Y-2.58
X271.485Y-59.7
X276.26Y-40.68
X278.595Y-2.58
T10
X81.035Y-77.445
X85.84Y-77.465
X131.035Y-85.7
X142.99Y-85.72
X181.035Y-77.445
X200.14Y-77.465
T11
X9.56Y-9.58
X9.57Y-74.92
X11.93Y-85.68
X11.96Y-47.68
X14.36Y-28.68
X14.46Y-85.705
X16.72Y-47.65
X21.47Y-66.68
X28.56Y-9.58
X33.37Y-74.92
X35.76Y-85.68
X38.16Y-28.68
X38.24Y-85.7
X42.92Y-47.67
X47.56Y-9.58
X52.43Y-66.68
X57.06Y-28.68
X59.6Y-85.68
X61.99Y-47.67
X62.02Y-85.705
X66.56Y-9.58
X71.53Y-66.68
X76.06Y-28.68
X81.04Y-47.66
X85.56Y-9.58
X90.58Y-66.68
X95.06Y-28.68
X100.12Y-47.69
X104.56Y-9.58
X109.69Y-66.68
X114.06Y-28.68
X119.18Y-47.71
X123.56Y-9.58
X128.77Y-66.68
X133.06Y-28.68
X138.23Y-47.71
X142.56Y-9.58
X147.86Y-66.68
X152.06Y-28.68
X157.345Y-47.68
X161.56Y-9.58
X166.92Y-66.68
X171.06Y-28.68
X176.345Y-47.68
X180.66Y-9.58
X185.99Y-66.68
X190.06Y-28.68
X195.345Y-47.68
X199.76Y-9.58
X202.405Y-85.7
X205.03Y-66.68
X209.06Y-28.68
X214.395Y-47.68
X218.86Y-9.58
X223.92Y-85.745
X224.06Y-66.68
X226.205Y-85.75
X228.295Y-28.68
X233.395Y-47.68
X238.06Y-9.58
X247.56Y-28.68
X247.685Y-74.94
X247.72Y-85.705
X250.055Y-85.75
X250.165Y-66.7
X252.46Y-55.92
X254.795Y-17.82
X257.16Y-9.58
X259.585Y-66.7
X264.36Y-47.68
X266.695Y-9.58
X271.485Y-74.94
X271.49Y-28.68
X271.52Y-85.69
X273.885Y-85.75
X276.245Y-66.7
X276.26Y-9.58
X276.26Y-55.92
X278.595Y-17.82
T0
M30
