G04 #@! TF.GenerationSoftware,KiCad,Pcbnew,7.0.1-0*
G04 #@! TF.CreationDate,2023-08-08T22:45:17+05:30*
G04 #@! TF.ProjectId,Keyboard_60,4b657962-6f61-4726-945f-3630252e6b69,rev?*
G04 #@! TF.SameCoordinates,Original*
G04 #@! TF.FileFunction,Soldermask,Top*
G04 #@! TF.FilePolarity,Negative*
%FSLAX46Y46*%
G04 Gerber Fmt 4.6, Leading zero omitted, Abs format (unit mm)*
G04 Created by KiCad (PCBNEW 7.0.1-0) date 2023-08-08 22:45:17*
%MOMM*%
%LPD*%
G01*
G04 APERTURE LIST*
G04 Aperture macros list*
%AMRoundRect*
0 Rectangle with rounded corners*
0 $1 Rounding radius*
0 $2 $3 $4 $5 $6 $7 $8 $9 X,Y pos of 4 corners*
0 Add a 4 corners polygon primitive as box body*
4,1,4,$2,$3,$4,$5,$6,$7,$8,$9,$2,$3,0*
0 Add four circle primitives for the rounded corners*
1,1,$1+$1,$2,$3*
1,1,$1+$1,$4,$5*
1,1,$1+$1,$6,$7*
1,1,$1+$1,$8,$9*
0 Add four rect primitives between the rounded corners*
20,1,$1+$1,$2,$3,$4,$5,0*
20,1,$1+$1,$4,$5,$6,$7,0*
20,1,$1+$1,$6,$7,$8,$9,0*
20,1,$1+$1,$8,$9,$2,$3,0*%
G04 Aperture macros list end*
%ADD10C,0.200000*%
%ADD11C,0.250000*%
%ADD12C,0.010000*%
%ADD13C,1.700000*%
%ADD14C,4.000000*%
%ADD15C,2.200000*%
%ADD16C,2.150000*%
%ADD17C,2.550000*%
%ADD18C,1.900000*%
%ADD19C,1.850000*%
%ADD20O,9.999980X5.001260*%
%ADD21C,3.050000*%
%ADD22O,6.000000X3.500000*%
%ADD23C,3.987800*%
%ADD24C,3.048000*%
%ADD25C,1.750000*%
%ADD26C,1.016000*%
%ADD27C,0.787400*%
%ADD28RoundRect,0.218750X-0.256250X0.218750X-0.256250X-0.218750X0.256250X-0.218750X0.256250X0.218750X0*%
%ADD29C,0.600000*%
%ADD30C,0.900000*%
%ADD31O,0.900000X1.700000*%
%ADD32O,0.900000X2.000000*%
G04 APERTURE END LIST*
D10*
X145590476Y-46083047D02*
X145857142Y-46083047D01*
X145971428Y-46502095D02*
X145590476Y-46502095D01*
X145590476Y-46502095D02*
X145590476Y-45702095D01*
X145590476Y-45702095D02*
X145971428Y-45702095D01*
X146314286Y-45968761D02*
X146314286Y-46502095D01*
X146314286Y-46044952D02*
X146352381Y-46006857D01*
X146352381Y-46006857D02*
X146428571Y-45968761D01*
X146428571Y-45968761D02*
X146542857Y-45968761D01*
X146542857Y-45968761D02*
X146619048Y-46006857D01*
X146619048Y-46006857D02*
X146657143Y-46083047D01*
X146657143Y-46083047D02*
X146657143Y-46502095D01*
X147380953Y-46502095D02*
X147380953Y-46083047D01*
X147380953Y-46083047D02*
X147342858Y-46006857D01*
X147342858Y-46006857D02*
X147266667Y-45968761D01*
X147266667Y-45968761D02*
X147114286Y-45968761D01*
X147114286Y-45968761D02*
X147038096Y-46006857D01*
X147380953Y-46464000D02*
X147304762Y-46502095D01*
X147304762Y-46502095D02*
X147114286Y-46502095D01*
X147114286Y-46502095D02*
X147038096Y-46464000D01*
X147038096Y-46464000D02*
X147000000Y-46387809D01*
X147000000Y-46387809D02*
X147000000Y-46311619D01*
X147000000Y-46311619D02*
X147038096Y-46235428D01*
X147038096Y-46235428D02*
X147114286Y-46197333D01*
X147114286Y-46197333D02*
X147304762Y-46197333D01*
X147304762Y-46197333D02*
X147380953Y-46159238D01*
X147761906Y-46502095D02*
X147761906Y-45702095D01*
X147761906Y-46006857D02*
X147838096Y-45968761D01*
X147838096Y-45968761D02*
X147990477Y-45968761D01*
X147990477Y-45968761D02*
X148066668Y-46006857D01*
X148066668Y-46006857D02*
X148104763Y-46044952D01*
X148104763Y-46044952D02*
X148142858Y-46121142D01*
X148142858Y-46121142D02*
X148142858Y-46349714D01*
X148142858Y-46349714D02*
X148104763Y-46425904D01*
X148104763Y-46425904D02*
X148066668Y-46464000D01*
X148066668Y-46464000D02*
X147990477Y-46502095D01*
X147990477Y-46502095D02*
X147838096Y-46502095D01*
X147838096Y-46502095D02*
X147761906Y-46464000D01*
X148600001Y-46502095D02*
X148523811Y-46464000D01*
X148523811Y-46464000D02*
X148485716Y-46387809D01*
X148485716Y-46387809D02*
X148485716Y-45702095D01*
X149209526Y-46464000D02*
X149133335Y-46502095D01*
X149133335Y-46502095D02*
X148980954Y-46502095D01*
X148980954Y-46502095D02*
X148904764Y-46464000D01*
X148904764Y-46464000D02*
X148866668Y-46387809D01*
X148866668Y-46387809D02*
X148866668Y-46083047D01*
X148866668Y-46083047D02*
X148904764Y-46006857D01*
X148904764Y-46006857D02*
X148980954Y-45968761D01*
X148980954Y-45968761D02*
X149133335Y-45968761D01*
X149133335Y-45968761D02*
X149209526Y-46006857D01*
X149209526Y-46006857D02*
X149247621Y-46083047D01*
X149247621Y-46083047D02*
X149247621Y-46159238D01*
X149247621Y-46159238D02*
X148866668Y-46235428D01*
X149933335Y-46502095D02*
X149933335Y-45702095D01*
X149933335Y-46464000D02*
X149857144Y-46502095D01*
X149857144Y-46502095D02*
X149704763Y-46502095D01*
X149704763Y-46502095D02*
X149628573Y-46464000D01*
X149628573Y-46464000D02*
X149590478Y-46425904D01*
X149590478Y-46425904D02*
X149552382Y-46349714D01*
X149552382Y-46349714D02*
X149552382Y-46121142D01*
X149552382Y-46121142D02*
X149590478Y-46044952D01*
X149590478Y-46044952D02*
X149628573Y-46006857D01*
X149628573Y-46006857D02*
X149704763Y-45968761D01*
X149704763Y-45968761D02*
X149857144Y-45968761D01*
X149857144Y-45968761D02*
X149933335Y-46006857D01*
D11*
X146871428Y-44553809D02*
X147014285Y-44601428D01*
X147014285Y-44601428D02*
X147061904Y-44649047D01*
X147061904Y-44649047D02*
X147109523Y-44744285D01*
X147109523Y-44744285D02*
X147109523Y-44887142D01*
X147109523Y-44887142D02*
X147061904Y-44982380D01*
X147061904Y-44982380D02*
X147014285Y-45030000D01*
X147014285Y-45030000D02*
X146919047Y-45077619D01*
X146919047Y-45077619D02*
X146538095Y-45077619D01*
X146538095Y-45077619D02*
X146538095Y-44077619D01*
X146538095Y-44077619D02*
X146871428Y-44077619D01*
X146871428Y-44077619D02*
X146966666Y-44125238D01*
X146966666Y-44125238D02*
X147014285Y-44172857D01*
X147014285Y-44172857D02*
X147061904Y-44268095D01*
X147061904Y-44268095D02*
X147061904Y-44363333D01*
X147061904Y-44363333D02*
X147014285Y-44458571D01*
X147014285Y-44458571D02*
X146966666Y-44506190D01*
X146966666Y-44506190D02*
X146871428Y-44553809D01*
X146871428Y-44553809D02*
X146538095Y-44553809D01*
X148014285Y-45077619D02*
X147538095Y-45077619D01*
X147538095Y-45077619D02*
X147538095Y-44077619D01*
X148347619Y-44553809D02*
X148680952Y-44553809D01*
X148823809Y-45077619D02*
X148347619Y-45077619D01*
X148347619Y-45077619D02*
X148347619Y-44077619D01*
X148347619Y-44077619D02*
X148823809Y-44077619D01*
D12*
X126352600Y-39058752D02*
X126369948Y-39066334D01*
X126411356Y-39099128D01*
X126446765Y-39146547D01*
X126468664Y-39197151D01*
X126472229Y-39222098D01*
X126460279Y-39256927D01*
X126434067Y-39275357D01*
X126405964Y-39286516D01*
X126393095Y-39288572D01*
X126386829Y-39273649D01*
X126374456Y-39241175D01*
X126369028Y-39226502D01*
X126338590Y-39175744D01*
X126294520Y-39150427D01*
X126238010Y-39151206D01*
X126233825Y-39152203D01*
X126203655Y-39166507D01*
X126181476Y-39194393D01*
X126166327Y-39239287D01*
X126157250Y-39304615D01*
X126153286Y-39393804D01*
X126152914Y-39441261D01*
X126152730Y-39516071D01*
X126151522Y-39567069D01*
X126148309Y-39599471D01*
X126142109Y-39618495D01*
X126131940Y-39629356D01*
X126116819Y-39637272D01*
X126115946Y-39637670D01*
X126086828Y-39649981D01*
X126072403Y-39654514D01*
X126070186Y-39640809D01*
X126068289Y-39602925D01*
X126066847Y-39545715D01*
X126065998Y-39474027D01*
X126065829Y-39421565D01*
X126066692Y-39320047D01*
X126070070Y-39243032D01*
X126077142Y-39186023D01*
X126089088Y-39144526D01*
X126107090Y-39114043D01*
X126132327Y-39090080D01*
X126157247Y-39073355D01*
X126217171Y-39051097D01*
X126286911Y-39046076D01*
X126352600Y-39058752D01*
G36*
X126352600Y-39058752D02*
G01*
X126369948Y-39066334D01*
X126411356Y-39099128D01*
X126446765Y-39146547D01*
X126468664Y-39197151D01*
X126472229Y-39222098D01*
X126460279Y-39256927D01*
X126434067Y-39275357D01*
X126405964Y-39286516D01*
X126393095Y-39288572D01*
X126386829Y-39273649D01*
X126374456Y-39241175D01*
X126369028Y-39226502D01*
X126338590Y-39175744D01*
X126294520Y-39150427D01*
X126238010Y-39151206D01*
X126233825Y-39152203D01*
X126203655Y-39166507D01*
X126181476Y-39194393D01*
X126166327Y-39239287D01*
X126157250Y-39304615D01*
X126153286Y-39393804D01*
X126152914Y-39441261D01*
X126152730Y-39516071D01*
X126151522Y-39567069D01*
X126148309Y-39599471D01*
X126142109Y-39618495D01*
X126131940Y-39629356D01*
X126116819Y-39637272D01*
X126115946Y-39637670D01*
X126086828Y-39649981D01*
X126072403Y-39654514D01*
X126070186Y-39640809D01*
X126068289Y-39602925D01*
X126066847Y-39545715D01*
X126065998Y-39474027D01*
X126065829Y-39421565D01*
X126066692Y-39320047D01*
X126070070Y-39243032D01*
X126077142Y-39186023D01*
X126089088Y-39144526D01*
X126107090Y-39114043D01*
X126132327Y-39090080D01*
X126157247Y-39073355D01*
X126217171Y-39051097D01*
X126286911Y-39046076D01*
X126352600Y-39058752D01*
G37*
X122416093Y-39027780D02*
X122462672Y-39054723D01*
X122495057Y-39081466D01*
X122518742Y-39109484D01*
X122535059Y-39143748D01*
X122545339Y-39189227D01*
X122550914Y-39250892D01*
X122553116Y-39333711D01*
X122553371Y-39393246D01*
X122553371Y-39612391D01*
X122491686Y-39640044D01*
X122430000Y-39667697D01*
X122422743Y-39427670D01*
X122419744Y-39338028D01*
X122416598Y-39272962D01*
X122412701Y-39228026D01*
X122407447Y-39198770D01*
X122400231Y-39180748D01*
X122390450Y-39169511D01*
X122387312Y-39167079D01*
X122339761Y-39148083D01*
X122291697Y-39155600D01*
X122263086Y-39175543D01*
X122251447Y-39189675D01*
X122243391Y-39208220D01*
X122238271Y-39236334D01*
X122235441Y-39279173D01*
X122234256Y-39341895D01*
X122234057Y-39407261D01*
X122234018Y-39489268D01*
X122232614Y-39547316D01*
X122227914Y-39586465D01*
X122217987Y-39611780D01*
X122200903Y-39628323D01*
X122174732Y-39641156D01*
X122139775Y-39654491D01*
X122101596Y-39669007D01*
X122106141Y-39411389D01*
X122107971Y-39318519D01*
X122110112Y-39249889D01*
X122113181Y-39200711D01*
X122117794Y-39166198D01*
X122124568Y-39141562D01*
X122134119Y-39122016D01*
X122145634Y-39104770D01*
X122201190Y-39049680D01*
X122268980Y-39017822D01*
X122342713Y-39010191D01*
X122416093Y-39027780D01*
G36*
X122416093Y-39027780D02*
G01*
X122462672Y-39054723D01*
X122495057Y-39081466D01*
X122518742Y-39109484D01*
X122535059Y-39143748D01*
X122545339Y-39189227D01*
X122550914Y-39250892D01*
X122553116Y-39333711D01*
X122553371Y-39393246D01*
X122553371Y-39612391D01*
X122491686Y-39640044D01*
X122430000Y-39667697D01*
X122422743Y-39427670D01*
X122419744Y-39338028D01*
X122416598Y-39272962D01*
X122412701Y-39228026D01*
X122407447Y-39198770D01*
X122400231Y-39180748D01*
X122390450Y-39169511D01*
X122387312Y-39167079D01*
X122339761Y-39148083D01*
X122291697Y-39155600D01*
X122263086Y-39175543D01*
X122251447Y-39189675D01*
X122243391Y-39208220D01*
X122238271Y-39236334D01*
X122235441Y-39279173D01*
X122234256Y-39341895D01*
X122234057Y-39407261D01*
X122234018Y-39489268D01*
X122232614Y-39547316D01*
X122227914Y-39586465D01*
X122217987Y-39611780D01*
X122200903Y-39628323D01*
X122174732Y-39641156D01*
X122139775Y-39654491D01*
X122101596Y-39669007D01*
X122106141Y-39411389D01*
X122107971Y-39318519D01*
X122110112Y-39249889D01*
X122113181Y-39200711D01*
X122117794Y-39166198D01*
X122124568Y-39141562D01*
X122134119Y-39122016D01*
X122145634Y-39104770D01*
X122201190Y-39049680D01*
X122268980Y-39017822D01*
X122342713Y-39010191D01*
X122416093Y-39027780D01*
G37*
X124229926Y-39049755D02*
X124295858Y-39074084D01*
X124349273Y-39117117D01*
X124370164Y-39147409D01*
X124392939Y-39202994D01*
X124392466Y-39243186D01*
X124368562Y-39270217D01*
X124359717Y-39274813D01*
X124321530Y-39289144D01*
X124302028Y-39285472D01*
X124295422Y-39261407D01*
X124295086Y-39248114D01*
X124282992Y-39199210D01*
X124251471Y-39164999D01*
X124207659Y-39148476D01*
X124158695Y-39152634D01*
X124118894Y-39174227D01*
X124105450Y-39186544D01*
X124095921Y-39201487D01*
X124089485Y-39224075D01*
X124085317Y-39259328D01*
X124082597Y-39312266D01*
X124080502Y-39387907D01*
X124079960Y-39411857D01*
X124077981Y-39493790D01*
X124075731Y-39551455D01*
X124072357Y-39589608D01*
X124067006Y-39613004D01*
X124058824Y-39626398D01*
X124046959Y-39634545D01*
X124039362Y-39638144D01*
X124007102Y-39650452D01*
X123988111Y-39654514D01*
X123981836Y-39640948D01*
X123978006Y-39599934D01*
X123976600Y-39530999D01*
X123977598Y-39433669D01*
X123977908Y-39418657D01*
X123980101Y-39329859D01*
X123982693Y-39265019D01*
X123986382Y-39219067D01*
X123991864Y-39186935D01*
X123999835Y-39163553D01*
X124010993Y-39143852D01*
X124016830Y-39135410D01*
X124050296Y-39098057D01*
X124087727Y-39069003D01*
X124092309Y-39066467D01*
X124159426Y-39046443D01*
X124229926Y-39049755D01*
G36*
X124229926Y-39049755D02*
G01*
X124295858Y-39074084D01*
X124349273Y-39117117D01*
X124370164Y-39147409D01*
X124392939Y-39202994D01*
X124392466Y-39243186D01*
X124368562Y-39270217D01*
X124359717Y-39274813D01*
X124321530Y-39289144D01*
X124302028Y-39285472D01*
X124295422Y-39261407D01*
X124295086Y-39248114D01*
X124282992Y-39199210D01*
X124251471Y-39164999D01*
X124207659Y-39148476D01*
X124158695Y-39152634D01*
X124118894Y-39174227D01*
X124105450Y-39186544D01*
X124095921Y-39201487D01*
X124089485Y-39224075D01*
X124085317Y-39259328D01*
X124082597Y-39312266D01*
X124080502Y-39387907D01*
X124079960Y-39411857D01*
X124077981Y-39493790D01*
X124075731Y-39551455D01*
X124072357Y-39589608D01*
X124067006Y-39613004D01*
X124058824Y-39626398D01*
X124046959Y-39634545D01*
X124039362Y-39638144D01*
X124007102Y-39650452D01*
X123988111Y-39654514D01*
X123981836Y-39640948D01*
X123978006Y-39599934D01*
X123976600Y-39530999D01*
X123977598Y-39433669D01*
X123977908Y-39418657D01*
X123980101Y-39329859D01*
X123982693Y-39265019D01*
X123986382Y-39219067D01*
X123991864Y-39186935D01*
X123999835Y-39163553D01*
X124010993Y-39143852D01*
X124016830Y-39135410D01*
X124050296Y-39098057D01*
X124087727Y-39069003D01*
X124092309Y-39066467D01*
X124159426Y-39046443D01*
X124229926Y-39049755D01*
G37*
X123075886Y-38951289D02*
X123080139Y-39010613D01*
X123085025Y-39045572D01*
X123091795Y-39060820D01*
X123101702Y-39061015D01*
X123104914Y-39059195D01*
X123147644Y-39046015D01*
X123203227Y-39046785D01*
X123259737Y-39060333D01*
X123295082Y-39077861D01*
X123331321Y-39105861D01*
X123357813Y-39137549D01*
X123375999Y-39177813D01*
X123387322Y-39231543D01*
X123393222Y-39303626D01*
X123395143Y-39398951D01*
X123395177Y-39417237D01*
X123395200Y-39622646D01*
X123349491Y-39638580D01*
X123317027Y-39649420D01*
X123299215Y-39654468D01*
X123298691Y-39654514D01*
X123296937Y-39640828D01*
X123295444Y-39603076D01*
X123294326Y-39546224D01*
X123293697Y-39475234D01*
X123293600Y-39432073D01*
X123293398Y-39346973D01*
X123292358Y-39285981D01*
X123289831Y-39244177D01*
X123285164Y-39216642D01*
X123277707Y-39198456D01*
X123266811Y-39184698D01*
X123260007Y-39178073D01*
X123213272Y-39151375D01*
X123162272Y-39149375D01*
X123116001Y-39171955D01*
X123107444Y-39180107D01*
X123094893Y-39195436D01*
X123086188Y-39213618D01*
X123080631Y-39239909D01*
X123077526Y-39279562D01*
X123076176Y-39337832D01*
X123075886Y-39418173D01*
X123075886Y-39622646D01*
X123030177Y-39638580D01*
X122997713Y-39649420D01*
X122979901Y-39654468D01*
X122979377Y-39654514D01*
X122978037Y-39640623D01*
X122976828Y-39601439D01*
X122975801Y-39540700D01*
X122975002Y-39462141D01*
X122974481Y-39369498D01*
X122974286Y-39266509D01*
X122974286Y-38869342D01*
X123021457Y-38849444D01*
X123068629Y-38829547D01*
X123075886Y-38951289D01*
G36*
X123075886Y-38951289D02*
G01*
X123080139Y-39010613D01*
X123085025Y-39045572D01*
X123091795Y-39060820D01*
X123101702Y-39061015D01*
X123104914Y-39059195D01*
X123147644Y-39046015D01*
X123203227Y-39046785D01*
X123259737Y-39060333D01*
X123295082Y-39077861D01*
X123331321Y-39105861D01*
X123357813Y-39137549D01*
X123375999Y-39177813D01*
X123387322Y-39231543D01*
X123393222Y-39303626D01*
X123395143Y-39398951D01*
X123395177Y-39417237D01*
X123395200Y-39622646D01*
X123349491Y-39638580D01*
X123317027Y-39649420D01*
X123299215Y-39654468D01*
X123298691Y-39654514D01*
X123296937Y-39640828D01*
X123295444Y-39603076D01*
X123294326Y-39546224D01*
X123293697Y-39475234D01*
X123293600Y-39432073D01*
X123293398Y-39346973D01*
X123292358Y-39285981D01*
X123289831Y-39244177D01*
X123285164Y-39216642D01*
X123277707Y-39198456D01*
X123266811Y-39184698D01*
X123260007Y-39178073D01*
X123213272Y-39151375D01*
X123162272Y-39149375D01*
X123116001Y-39171955D01*
X123107444Y-39180107D01*
X123094893Y-39195436D01*
X123086188Y-39213618D01*
X123080631Y-39239909D01*
X123077526Y-39279562D01*
X123076176Y-39337832D01*
X123075886Y-39418173D01*
X123075886Y-39622646D01*
X123030177Y-39638580D01*
X122997713Y-39649420D01*
X122979901Y-39654468D01*
X122979377Y-39654514D01*
X122978037Y-39640623D01*
X122976828Y-39601439D01*
X122975801Y-39540700D01*
X122975002Y-39462141D01*
X122974481Y-39369498D01*
X122974286Y-39266509D01*
X122974286Y-38869342D01*
X123021457Y-38849444D01*
X123068629Y-38829547D01*
X123075886Y-38951289D01*
G37*
X125479833Y-39058663D02*
X125482048Y-39096850D01*
X125483784Y-39154886D01*
X125484899Y-39228180D01*
X125485257Y-39305055D01*
X125485257Y-39565196D01*
X125439326Y-39611127D01*
X125407675Y-39639429D01*
X125379890Y-39650893D01*
X125341915Y-39650168D01*
X125326840Y-39648321D01*
X125279726Y-39642948D01*
X125240756Y-39639869D01*
X125231257Y-39639585D01*
X125199233Y-39641445D01*
X125153432Y-39646114D01*
X125135674Y-39648321D01*
X125092057Y-39651735D01*
X125062745Y-39644320D01*
X125033680Y-39621427D01*
X125023188Y-39611127D01*
X124977257Y-39565196D01*
X124977257Y-39078602D01*
X125014226Y-39061758D01*
X125046059Y-39049282D01*
X125064683Y-39044914D01*
X125069458Y-39058718D01*
X125073921Y-39097286D01*
X125077775Y-39156356D01*
X125080722Y-39231663D01*
X125082143Y-39295286D01*
X125086114Y-39545657D01*
X125120759Y-39550556D01*
X125152268Y-39547131D01*
X125167708Y-39536041D01*
X125172023Y-39515308D01*
X125175708Y-39471145D01*
X125178469Y-39409146D01*
X125180012Y-39334909D01*
X125180235Y-39296706D01*
X125180457Y-39076783D01*
X125226166Y-39060849D01*
X125258518Y-39050015D01*
X125276115Y-39044962D01*
X125276623Y-39044914D01*
X125278388Y-39058648D01*
X125280329Y-39096730D01*
X125282282Y-39154482D01*
X125284084Y-39227227D01*
X125285343Y-39295286D01*
X125289314Y-39545657D01*
X125376400Y-39545657D01*
X125380396Y-39317240D01*
X125384392Y-39088822D01*
X125426847Y-39066868D01*
X125458192Y-39051793D01*
X125476744Y-39044951D01*
X125477279Y-39044914D01*
X125479833Y-39058663D01*
G36*
X125479833Y-39058663D02*
G01*
X125482048Y-39096850D01*
X125483784Y-39154886D01*
X125484899Y-39228180D01*
X125485257Y-39305055D01*
X125485257Y-39565196D01*
X125439326Y-39611127D01*
X125407675Y-39639429D01*
X125379890Y-39650893D01*
X125341915Y-39650168D01*
X125326840Y-39648321D01*
X125279726Y-39642948D01*
X125240756Y-39639869D01*
X125231257Y-39639585D01*
X125199233Y-39641445D01*
X125153432Y-39646114D01*
X125135674Y-39648321D01*
X125092057Y-39651735D01*
X125062745Y-39644320D01*
X125033680Y-39621427D01*
X125023188Y-39611127D01*
X124977257Y-39565196D01*
X124977257Y-39078602D01*
X125014226Y-39061758D01*
X125046059Y-39049282D01*
X125064683Y-39044914D01*
X125069458Y-39058718D01*
X125073921Y-39097286D01*
X125077775Y-39156356D01*
X125080722Y-39231663D01*
X125082143Y-39295286D01*
X125086114Y-39545657D01*
X125120759Y-39550556D01*
X125152268Y-39547131D01*
X125167708Y-39536041D01*
X125172023Y-39515308D01*
X125175708Y-39471145D01*
X125178469Y-39409146D01*
X125180012Y-39334909D01*
X125180235Y-39296706D01*
X125180457Y-39076783D01*
X125226166Y-39060849D01*
X125258518Y-39050015D01*
X125276115Y-39044962D01*
X125276623Y-39044914D01*
X125278388Y-39058648D01*
X125280329Y-39096730D01*
X125282282Y-39154482D01*
X125284084Y-39227227D01*
X125285343Y-39295286D01*
X125289314Y-39545657D01*
X125376400Y-39545657D01*
X125380396Y-39317240D01*
X125384392Y-39088822D01*
X125426847Y-39066868D01*
X125458192Y-39051793D01*
X125476744Y-39044951D01*
X125477279Y-39044914D01*
X125479833Y-39058663D01*
G37*
X120434322Y-39330192D02*
X120579429Y-39330192D01*
X120580273Y-39396430D01*
X120583596Y-39440386D01*
X120590583Y-39468779D01*
X120602416Y-39488325D01*
X120608457Y-39494857D01*
X120643186Y-39519680D01*
X120676903Y-39518548D01*
X120710995Y-39497016D01*
X120731329Y-39474029D01*
X120743371Y-39440478D01*
X120750134Y-39387569D01*
X120750598Y-39381399D01*
X120751752Y-39285513D01*
X120739688Y-39214299D01*
X120714570Y-39168194D01*
X120676560Y-39147635D01*
X120662992Y-39146514D01*
X120627364Y-39152152D01*
X120602994Y-39171686D01*
X120588093Y-39209042D01*
X120580875Y-39268150D01*
X120579429Y-39330192D01*
X120434322Y-39330192D01*
X120434826Y-39260413D01*
X120437096Y-39208159D01*
X120442068Y-39171949D01*
X120450713Y-39145299D01*
X120464005Y-39121722D01*
X120466943Y-39117338D01*
X120516313Y-39058249D01*
X120570109Y-39023947D01*
X120635602Y-39010331D01*
X120657842Y-39009665D01*
X120741115Y-39021962D01*
X120809145Y-39057733D01*
X120859351Y-39115301D01*
X120877185Y-39152312D01*
X120891063Y-39207882D01*
X120898167Y-39278096D01*
X120898840Y-39354727D01*
X120893427Y-39429552D01*
X120882270Y-39494342D01*
X120865714Y-39540873D01*
X120860626Y-39548887D01*
X120800355Y-39608707D01*
X120728769Y-39644535D01*
X120651092Y-39655020D01*
X120572548Y-39638810D01*
X120550689Y-39629092D01*
X120508122Y-39599143D01*
X120470763Y-39559433D01*
X120467232Y-39554397D01*
X120452881Y-39530124D01*
X120443394Y-39504178D01*
X120437790Y-39470022D01*
X120435086Y-39421119D01*
X120434299Y-39350935D01*
X120434286Y-39335200D01*
X120434322Y-39330192D01*
G36*
X120434322Y-39330192D02*
G01*
X120579429Y-39330192D01*
X120580273Y-39396430D01*
X120583596Y-39440386D01*
X120590583Y-39468779D01*
X120602416Y-39488325D01*
X120608457Y-39494857D01*
X120643186Y-39519680D01*
X120676903Y-39518548D01*
X120710995Y-39497016D01*
X120731329Y-39474029D01*
X120743371Y-39440478D01*
X120750134Y-39387569D01*
X120750598Y-39381399D01*
X120751752Y-39285513D01*
X120739688Y-39214299D01*
X120714570Y-39168194D01*
X120676560Y-39147635D01*
X120662992Y-39146514D01*
X120627364Y-39152152D01*
X120602994Y-39171686D01*
X120588093Y-39209042D01*
X120580875Y-39268150D01*
X120579429Y-39330192D01*
X120434322Y-39330192D01*
X120434826Y-39260413D01*
X120437096Y-39208159D01*
X120442068Y-39171949D01*
X120450713Y-39145299D01*
X120464005Y-39121722D01*
X120466943Y-39117338D01*
X120516313Y-39058249D01*
X120570109Y-39023947D01*
X120635602Y-39010331D01*
X120657842Y-39009665D01*
X120741115Y-39021962D01*
X120809145Y-39057733D01*
X120859351Y-39115301D01*
X120877185Y-39152312D01*
X120891063Y-39207882D01*
X120898167Y-39278096D01*
X120898840Y-39354727D01*
X120893427Y-39429552D01*
X120882270Y-39494342D01*
X120865714Y-39540873D01*
X120860626Y-39548887D01*
X120800355Y-39608707D01*
X120728769Y-39644535D01*
X120651092Y-39655020D01*
X120572548Y-39638810D01*
X120550689Y-39629092D01*
X120508122Y-39599143D01*
X120470763Y-39559433D01*
X120467232Y-39554397D01*
X120452881Y-39530124D01*
X120443394Y-39504178D01*
X120437790Y-39470022D01*
X120435086Y-39421119D01*
X120434299Y-39350935D01*
X120434286Y-39335200D01*
X120434322Y-39330192D01*
G37*
X126560372Y-39306247D02*
X126648007Y-39306247D01*
X126649023Y-39331126D01*
X126651556Y-39335200D01*
X126668274Y-39329665D01*
X126704249Y-39315017D01*
X126752331Y-39294190D01*
X126762386Y-39289714D01*
X126823152Y-39258814D01*
X126856632Y-39231657D01*
X126863990Y-39206220D01*
X126846391Y-39180481D01*
X126831856Y-39169109D01*
X126779410Y-39146364D01*
X126730322Y-39150122D01*
X126689227Y-39177884D01*
X126660758Y-39227152D01*
X126651631Y-39266257D01*
X126648007Y-39306247D01*
X126560372Y-39306247D01*
X126561285Y-39262249D01*
X126568196Y-39195384D01*
X126581884Y-39146695D01*
X126604096Y-39110849D01*
X126636574Y-39082513D01*
X126650733Y-39073355D01*
X126715053Y-39049507D01*
X126785473Y-39048006D01*
X126853595Y-39066966D01*
X126911021Y-39104497D01*
X126938719Y-39138096D01*
X126960662Y-39199064D01*
X126962405Y-39247308D01*
X126958457Y-39311816D01*
X126809686Y-39376934D01*
X126737349Y-39410202D01*
X126690084Y-39436964D01*
X126665507Y-39460144D01*
X126661237Y-39482667D01*
X126674889Y-39507455D01*
X126689943Y-39523886D01*
X126733746Y-39550235D01*
X126781389Y-39552081D01*
X126825145Y-39531546D01*
X126857289Y-39490752D01*
X126863038Y-39476347D01*
X126890576Y-39431356D01*
X126922258Y-39412182D01*
X126965714Y-39395779D01*
X126965714Y-39457966D01*
X126961872Y-39500283D01*
X126946823Y-39535969D01*
X126915280Y-39576943D01*
X126910592Y-39582267D01*
X126875506Y-39618720D01*
X126845347Y-39638283D01*
X126807615Y-39647283D01*
X126776335Y-39650230D01*
X126720385Y-39650965D01*
X126680555Y-39641660D01*
X126655708Y-39627846D01*
X126616656Y-39597467D01*
X126589625Y-39564613D01*
X126572517Y-39523294D01*
X126563238Y-39467521D01*
X126559693Y-39391305D01*
X126559410Y-39352622D01*
X126560372Y-39306247D01*
G36*
X126560372Y-39306247D02*
G01*
X126648007Y-39306247D01*
X126649023Y-39331126D01*
X126651556Y-39335200D01*
X126668274Y-39329665D01*
X126704249Y-39315017D01*
X126752331Y-39294190D01*
X126762386Y-39289714D01*
X126823152Y-39258814D01*
X126856632Y-39231657D01*
X126863990Y-39206220D01*
X126846391Y-39180481D01*
X126831856Y-39169109D01*
X126779410Y-39146364D01*
X126730322Y-39150122D01*
X126689227Y-39177884D01*
X126660758Y-39227152D01*
X126651631Y-39266257D01*
X126648007Y-39306247D01*
X126560372Y-39306247D01*
X126561285Y-39262249D01*
X126568196Y-39195384D01*
X126581884Y-39146695D01*
X126604096Y-39110849D01*
X126636574Y-39082513D01*
X126650733Y-39073355D01*
X126715053Y-39049507D01*
X126785473Y-39048006D01*
X126853595Y-39066966D01*
X126911021Y-39104497D01*
X126938719Y-39138096D01*
X126960662Y-39199064D01*
X126962405Y-39247308D01*
X126958457Y-39311816D01*
X126809686Y-39376934D01*
X126737349Y-39410202D01*
X126690084Y-39436964D01*
X126665507Y-39460144D01*
X126661237Y-39482667D01*
X126674889Y-39507455D01*
X126689943Y-39523886D01*
X126733746Y-39550235D01*
X126781389Y-39552081D01*
X126825145Y-39531546D01*
X126857289Y-39490752D01*
X126863038Y-39476347D01*
X126890576Y-39431356D01*
X126922258Y-39412182D01*
X126965714Y-39395779D01*
X126965714Y-39457966D01*
X126961872Y-39500283D01*
X126946823Y-39535969D01*
X126915280Y-39576943D01*
X126910592Y-39582267D01*
X126875506Y-39618720D01*
X126845347Y-39638283D01*
X126807615Y-39647283D01*
X126776335Y-39650230D01*
X126720385Y-39650965D01*
X126680555Y-39641660D01*
X126655708Y-39627846D01*
X126616656Y-39597467D01*
X126589625Y-39564613D01*
X126572517Y-39523294D01*
X126563238Y-39467521D01*
X126559693Y-39391305D01*
X126559410Y-39352622D01*
X126560372Y-39306247D01*
G37*
X124469458Y-39345647D02*
X124570857Y-39345647D01*
X124571476Y-39410550D01*
X124574314Y-39453514D01*
X124580840Y-39481622D01*
X124592523Y-39501953D01*
X124606483Y-39517288D01*
X124653365Y-39546890D01*
X124703701Y-39549419D01*
X124751276Y-39524705D01*
X124754979Y-39521356D01*
X124770783Y-39503935D01*
X124780693Y-39483209D01*
X124786058Y-39452362D01*
X124788228Y-39404577D01*
X124788571Y-39351748D01*
X124787827Y-39285381D01*
X124784748Y-39241106D01*
X124778061Y-39212009D01*
X124766496Y-39191173D01*
X124757013Y-39180107D01*
X124712960Y-39152198D01*
X124662224Y-39148843D01*
X124613796Y-39170159D01*
X124604450Y-39178073D01*
X124588540Y-39195647D01*
X124578610Y-39216587D01*
X124573278Y-39247782D01*
X124571163Y-39296122D01*
X124570857Y-39345647D01*
X124469458Y-39345647D01*
X124472810Y-39258568D01*
X124484726Y-39190086D01*
X124507135Y-39138600D01*
X124542124Y-39098443D01*
X124569375Y-39077861D01*
X124618907Y-39055625D01*
X124676316Y-39045304D01*
X124729682Y-39048067D01*
X124759543Y-39059212D01*
X124771261Y-39062383D01*
X124779037Y-39050557D01*
X124784465Y-39018866D01*
X124788571Y-38970593D01*
X124793067Y-38916829D01*
X124799313Y-38884482D01*
X124810676Y-38865985D01*
X124830528Y-38853770D01*
X124843000Y-38848362D01*
X124890171Y-38828601D01*
X124890117Y-39165358D01*
X124889933Y-39273837D01*
X124889219Y-39357287D01*
X124887675Y-39419704D01*
X124885001Y-39465085D01*
X124880894Y-39497429D01*
X124875055Y-39520733D01*
X124867182Y-39538995D01*
X124861221Y-39549418D01*
X124811855Y-39605945D01*
X124749264Y-39641377D01*
X124680013Y-39654090D01*
X124610668Y-39642463D01*
X124569375Y-39621568D01*
X124526025Y-39585422D01*
X124496481Y-39541276D01*
X124478655Y-39483462D01*
X124470463Y-39406313D01*
X124469302Y-39349714D01*
X124469458Y-39345647D01*
G36*
X124469458Y-39345647D02*
G01*
X124570857Y-39345647D01*
X124571476Y-39410550D01*
X124574314Y-39453514D01*
X124580840Y-39481622D01*
X124592523Y-39501953D01*
X124606483Y-39517288D01*
X124653365Y-39546890D01*
X124703701Y-39549419D01*
X124751276Y-39524705D01*
X124754979Y-39521356D01*
X124770783Y-39503935D01*
X124780693Y-39483209D01*
X124786058Y-39452362D01*
X124788228Y-39404577D01*
X124788571Y-39351748D01*
X124787827Y-39285381D01*
X124784748Y-39241106D01*
X124778061Y-39212009D01*
X124766496Y-39191173D01*
X124757013Y-39180107D01*
X124712960Y-39152198D01*
X124662224Y-39148843D01*
X124613796Y-39170159D01*
X124604450Y-39178073D01*
X124588540Y-39195647D01*
X124578610Y-39216587D01*
X124573278Y-39247782D01*
X124571163Y-39296122D01*
X124570857Y-39345647D01*
X124469458Y-39345647D01*
X124472810Y-39258568D01*
X124484726Y-39190086D01*
X124507135Y-39138600D01*
X124542124Y-39098443D01*
X124569375Y-39077861D01*
X124618907Y-39055625D01*
X124676316Y-39045304D01*
X124729682Y-39048067D01*
X124759543Y-39059212D01*
X124771261Y-39062383D01*
X124779037Y-39050557D01*
X124784465Y-39018866D01*
X124788571Y-38970593D01*
X124793067Y-38916829D01*
X124799313Y-38884482D01*
X124810676Y-38865985D01*
X124830528Y-38853770D01*
X124843000Y-38848362D01*
X124890171Y-38828601D01*
X124890117Y-39165358D01*
X124889933Y-39273837D01*
X124889219Y-39357287D01*
X124887675Y-39419704D01*
X124885001Y-39465085D01*
X124880894Y-39497429D01*
X124875055Y-39520733D01*
X124867182Y-39538995D01*
X124861221Y-39549418D01*
X124811855Y-39605945D01*
X124749264Y-39641377D01*
X124680013Y-39654090D01*
X124610668Y-39642463D01*
X124569375Y-39621568D01*
X124526025Y-39585422D01*
X124496481Y-39541276D01*
X124478655Y-39483462D01*
X124470463Y-39406313D01*
X124469302Y-39349714D01*
X124469458Y-39345647D01*
G37*
X121543233Y-39242748D02*
X121682514Y-39242748D01*
X121684324Y-39274753D01*
X121694222Y-39284093D01*
X121718898Y-39277105D01*
X121757795Y-39260587D01*
X121801275Y-39239881D01*
X121802356Y-39239333D01*
X121839209Y-39219949D01*
X121854000Y-39207013D01*
X121850353Y-39193451D01*
X121834995Y-39175632D01*
X121795923Y-39149845D01*
X121753846Y-39147950D01*
X121716103Y-39166717D01*
X121690034Y-39202915D01*
X121682514Y-39242748D01*
X121543233Y-39242748D01*
X121547194Y-39206027D01*
X121571550Y-39136212D01*
X121605456Y-39087302D01*
X121666653Y-39037878D01*
X121734063Y-39013359D01*
X121802880Y-39011797D01*
X121868303Y-39031239D01*
X121925527Y-39069735D01*
X121969749Y-39125335D01*
X121996167Y-39196086D01*
X122001510Y-39248162D01*
X122000903Y-39269893D01*
X121995822Y-39286531D01*
X121981855Y-39301437D01*
X121954589Y-39317973D01*
X121909612Y-39339498D01*
X121842511Y-39369374D01*
X121842171Y-39369524D01*
X121780407Y-39397813D01*
X121729759Y-39422933D01*
X121695404Y-39442179D01*
X121682518Y-39452848D01*
X121682514Y-39452934D01*
X121693872Y-39476166D01*
X121720431Y-39501774D01*
X121750923Y-39520221D01*
X121766370Y-39523886D01*
X121808515Y-39511212D01*
X121844808Y-39479471D01*
X121862517Y-39444572D01*
X121879552Y-39418845D01*
X121912922Y-39389546D01*
X121952149Y-39364235D01*
X121986756Y-39350471D01*
X121993993Y-39349714D01*
X122002139Y-39362160D01*
X122002630Y-39393972D01*
X121996643Y-39436866D01*
X121985357Y-39482558D01*
X121969950Y-39522761D01*
X121969171Y-39524322D01*
X121922804Y-39589062D01*
X121862711Y-39633097D01*
X121794465Y-39654711D01*
X121723638Y-39652185D01*
X121655804Y-39623804D01*
X121652788Y-39621808D01*
X121599427Y-39573448D01*
X121564340Y-39510352D01*
X121544922Y-39427387D01*
X121542316Y-39404078D01*
X121537701Y-39294055D01*
X121543233Y-39242748D01*
G36*
X121543233Y-39242748D02*
G01*
X121682514Y-39242748D01*
X121684324Y-39274753D01*
X121694222Y-39284093D01*
X121718898Y-39277105D01*
X121757795Y-39260587D01*
X121801275Y-39239881D01*
X121802356Y-39239333D01*
X121839209Y-39219949D01*
X121854000Y-39207013D01*
X121850353Y-39193451D01*
X121834995Y-39175632D01*
X121795923Y-39149845D01*
X121753846Y-39147950D01*
X121716103Y-39166717D01*
X121690034Y-39202915D01*
X121682514Y-39242748D01*
X121543233Y-39242748D01*
X121547194Y-39206027D01*
X121571550Y-39136212D01*
X121605456Y-39087302D01*
X121666653Y-39037878D01*
X121734063Y-39013359D01*
X121802880Y-39011797D01*
X121868303Y-39031239D01*
X121925527Y-39069735D01*
X121969749Y-39125335D01*
X121996167Y-39196086D01*
X122001510Y-39248162D01*
X122000903Y-39269893D01*
X121995822Y-39286531D01*
X121981855Y-39301437D01*
X121954589Y-39317973D01*
X121909612Y-39339498D01*
X121842511Y-39369374D01*
X121842171Y-39369524D01*
X121780407Y-39397813D01*
X121729759Y-39422933D01*
X121695404Y-39442179D01*
X121682518Y-39452848D01*
X121682514Y-39452934D01*
X121693872Y-39476166D01*
X121720431Y-39501774D01*
X121750923Y-39520221D01*
X121766370Y-39523886D01*
X121808515Y-39511212D01*
X121844808Y-39479471D01*
X121862517Y-39444572D01*
X121879552Y-39418845D01*
X121912922Y-39389546D01*
X121952149Y-39364235D01*
X121986756Y-39350471D01*
X121993993Y-39349714D01*
X122002139Y-39362160D01*
X122002630Y-39393972D01*
X121996643Y-39436866D01*
X121985357Y-39482558D01*
X121969950Y-39522761D01*
X121969171Y-39524322D01*
X121922804Y-39589062D01*
X121862711Y-39633097D01*
X121794465Y-39654711D01*
X121723638Y-39652185D01*
X121655804Y-39623804D01*
X121652788Y-39621808D01*
X121599427Y-39573448D01*
X121564340Y-39510352D01*
X121544922Y-39427387D01*
X121542316Y-39404078D01*
X121537701Y-39294055D01*
X121543233Y-39242748D01*
G37*
X123739744Y-39050968D02*
X123796616Y-39072087D01*
X123797267Y-39072493D01*
X123832440Y-39098380D01*
X123858407Y-39128633D01*
X123876670Y-39168058D01*
X123888732Y-39221462D01*
X123896096Y-39293651D01*
X123900264Y-39389432D01*
X123900629Y-39403078D01*
X123905876Y-39608842D01*
X123861716Y-39631678D01*
X123829763Y-39647110D01*
X123810470Y-39654423D01*
X123809578Y-39654514D01*
X123806239Y-39641022D01*
X123803587Y-39604626D01*
X123801956Y-39551452D01*
X123801600Y-39508393D01*
X123801592Y-39438641D01*
X123798403Y-39394837D01*
X123787288Y-39373944D01*
X123763501Y-39372925D01*
X123722296Y-39388741D01*
X123660086Y-39417815D01*
X123614341Y-39441963D01*
X123590813Y-39462913D01*
X123583896Y-39485747D01*
X123583886Y-39486877D01*
X123595299Y-39526212D01*
X123629092Y-39547462D01*
X123680809Y-39550539D01*
X123718061Y-39550006D01*
X123737703Y-39560735D01*
X123749952Y-39586505D01*
X123757002Y-39619337D01*
X123746842Y-39637966D01*
X123743017Y-39640632D01*
X123707001Y-39651340D01*
X123656566Y-39652856D01*
X123604626Y-39645759D01*
X123567822Y-39632788D01*
X123516938Y-39589585D01*
X123488014Y-39529446D01*
X123482286Y-39482462D01*
X123486657Y-39440082D01*
X123502475Y-39405488D01*
X123533797Y-39374763D01*
X123584678Y-39343990D01*
X123659176Y-39309252D01*
X123663714Y-39307288D01*
X123730821Y-39276287D01*
X123772232Y-39250862D01*
X123789981Y-39228014D01*
X123786107Y-39204745D01*
X123762643Y-39178056D01*
X123755627Y-39171914D01*
X123708630Y-39148100D01*
X123659933Y-39149103D01*
X123617522Y-39172451D01*
X123589384Y-39215675D01*
X123586769Y-39224160D01*
X123561308Y-39265308D01*
X123529001Y-39285128D01*
X123482286Y-39304770D01*
X123482286Y-39253950D01*
X123496496Y-39180082D01*
X123538675Y-39112327D01*
X123560624Y-39089661D01*
X123610517Y-39060569D01*
X123673967Y-39047400D01*
X123739744Y-39050968D01*
G36*
X123739744Y-39050968D02*
G01*
X123796616Y-39072087D01*
X123797267Y-39072493D01*
X123832440Y-39098380D01*
X123858407Y-39128633D01*
X123876670Y-39168058D01*
X123888732Y-39221462D01*
X123896096Y-39293651D01*
X123900264Y-39389432D01*
X123900629Y-39403078D01*
X123905876Y-39608842D01*
X123861716Y-39631678D01*
X123829763Y-39647110D01*
X123810470Y-39654423D01*
X123809578Y-39654514D01*
X123806239Y-39641022D01*
X123803587Y-39604626D01*
X123801956Y-39551452D01*
X123801600Y-39508393D01*
X123801592Y-39438641D01*
X123798403Y-39394837D01*
X123787288Y-39373944D01*
X123763501Y-39372925D01*
X123722296Y-39388741D01*
X123660086Y-39417815D01*
X123614341Y-39441963D01*
X123590813Y-39462913D01*
X123583896Y-39485747D01*
X123583886Y-39486877D01*
X123595299Y-39526212D01*
X123629092Y-39547462D01*
X123680809Y-39550539D01*
X123718061Y-39550006D01*
X123737703Y-39560735D01*
X123749952Y-39586505D01*
X123757002Y-39619337D01*
X123746842Y-39637966D01*
X123743017Y-39640632D01*
X123707001Y-39651340D01*
X123656566Y-39652856D01*
X123604626Y-39645759D01*
X123567822Y-39632788D01*
X123516938Y-39589585D01*
X123488014Y-39529446D01*
X123482286Y-39482462D01*
X123486657Y-39440082D01*
X123502475Y-39405488D01*
X123533797Y-39374763D01*
X123584678Y-39343990D01*
X123659176Y-39309252D01*
X123663714Y-39307288D01*
X123730821Y-39276287D01*
X123772232Y-39250862D01*
X123789981Y-39228014D01*
X123786107Y-39204745D01*
X123762643Y-39178056D01*
X123755627Y-39171914D01*
X123708630Y-39148100D01*
X123659933Y-39149103D01*
X123617522Y-39172451D01*
X123589384Y-39215675D01*
X123586769Y-39224160D01*
X123561308Y-39265308D01*
X123529001Y-39285128D01*
X123482286Y-39304770D01*
X123482286Y-39253950D01*
X123496496Y-39180082D01*
X123538675Y-39112327D01*
X123560624Y-39089661D01*
X123610517Y-39060569D01*
X123673967Y-39047400D01*
X123739744Y-39050968D01*
G37*
X120991472Y-39328603D02*
X121130971Y-39328603D01*
X121131755Y-39390499D01*
X121135240Y-39430997D01*
X121143124Y-39457708D01*
X121157105Y-39478244D01*
X121166597Y-39488260D01*
X121205404Y-39517567D01*
X121239763Y-39519952D01*
X121275216Y-39495750D01*
X121276114Y-39494857D01*
X121290539Y-39476153D01*
X121299313Y-39450732D01*
X121303739Y-39411584D01*
X121305118Y-39351697D01*
X121305143Y-39338430D01*
X121301812Y-39255901D01*
X121290969Y-39198691D01*
X121271340Y-39163766D01*
X121241650Y-39148094D01*
X121224491Y-39146514D01*
X121183766Y-39153926D01*
X121155832Y-39178330D01*
X121139017Y-39222980D01*
X121131650Y-39291130D01*
X121130971Y-39328603D01*
X120991472Y-39328603D01*
X120991708Y-39315245D01*
X120993677Y-39250333D01*
X120996450Y-39202958D01*
X121000388Y-39169290D01*
X121005849Y-39145498D01*
X121013192Y-39127753D01*
X121022777Y-39112224D01*
X121026887Y-39106381D01*
X121081405Y-39051185D01*
X121150336Y-39019890D01*
X121230072Y-39011165D01*
X121299744Y-39019918D01*
X121355201Y-39047568D01*
X121404148Y-39098480D01*
X121417629Y-39117338D01*
X121432314Y-39142015D01*
X121441842Y-39168816D01*
X121447293Y-39204587D01*
X121449747Y-39256169D01*
X121450286Y-39324267D01*
X121447852Y-39417588D01*
X121439394Y-39487657D01*
X121423174Y-39539931D01*
X121397454Y-39579869D01*
X121360497Y-39612929D01*
X121357782Y-39614886D01*
X121321360Y-39634908D01*
X121277502Y-39644815D01*
X121221724Y-39647257D01*
X121131048Y-39647257D01*
X121131010Y-39735283D01*
X121130166Y-39784308D01*
X121125024Y-39813065D01*
X121111587Y-39830311D01*
X121085858Y-39844808D01*
X121079679Y-39847769D01*
X121050764Y-39861648D01*
X121028376Y-39870414D01*
X121011729Y-39871171D01*
X121000036Y-39861023D01*
X120992510Y-39837073D01*
X120988366Y-39796426D01*
X120986815Y-39736186D01*
X120987071Y-39653455D01*
X120988349Y-39545339D01*
X120988748Y-39513000D01*
X120990185Y-39401524D01*
X120991472Y-39328603D01*
G36*
X120991472Y-39328603D02*
G01*
X121130971Y-39328603D01*
X121131755Y-39390499D01*
X121135240Y-39430997D01*
X121143124Y-39457708D01*
X121157105Y-39478244D01*
X121166597Y-39488260D01*
X121205404Y-39517567D01*
X121239763Y-39519952D01*
X121275216Y-39495750D01*
X121276114Y-39494857D01*
X121290539Y-39476153D01*
X121299313Y-39450732D01*
X121303739Y-39411584D01*
X121305118Y-39351697D01*
X121305143Y-39338430D01*
X121301812Y-39255901D01*
X121290969Y-39198691D01*
X121271340Y-39163766D01*
X121241650Y-39148094D01*
X121224491Y-39146514D01*
X121183766Y-39153926D01*
X121155832Y-39178330D01*
X121139017Y-39222980D01*
X121131650Y-39291130D01*
X121130971Y-39328603D01*
X120991472Y-39328603D01*
X120991708Y-39315245D01*
X120993677Y-39250333D01*
X120996450Y-39202958D01*
X121000388Y-39169290D01*
X121005849Y-39145498D01*
X121013192Y-39127753D01*
X121022777Y-39112224D01*
X121026887Y-39106381D01*
X121081405Y-39051185D01*
X121150336Y-39019890D01*
X121230072Y-39011165D01*
X121299744Y-39019918D01*
X121355201Y-39047568D01*
X121404148Y-39098480D01*
X121417629Y-39117338D01*
X121432314Y-39142015D01*
X121441842Y-39168816D01*
X121447293Y-39204587D01*
X121449747Y-39256169D01*
X121450286Y-39324267D01*
X121447852Y-39417588D01*
X121439394Y-39487657D01*
X121423174Y-39539931D01*
X121397454Y-39579869D01*
X121360497Y-39612929D01*
X121357782Y-39614886D01*
X121321360Y-39634908D01*
X121277502Y-39644815D01*
X121221724Y-39647257D01*
X121131048Y-39647257D01*
X121131010Y-39735283D01*
X121130166Y-39784308D01*
X121125024Y-39813065D01*
X121111587Y-39830311D01*
X121085858Y-39844808D01*
X121079679Y-39847769D01*
X121050764Y-39861648D01*
X121028376Y-39870414D01*
X121011729Y-39871171D01*
X121000036Y-39861023D01*
X120992510Y-39837073D01*
X120988366Y-39796426D01*
X120986815Y-39736186D01*
X120987071Y-39653455D01*
X120988349Y-39545339D01*
X120988748Y-39513000D01*
X120990185Y-39401524D01*
X120991472Y-39328603D01*
G37*
X125844876Y-39056335D02*
X125886667Y-39075344D01*
X125919469Y-39098378D01*
X125943503Y-39124133D01*
X125960097Y-39157358D01*
X125970577Y-39202800D01*
X125976271Y-39265207D01*
X125978507Y-39349327D01*
X125978743Y-39404721D01*
X125978743Y-39620826D01*
X125941774Y-39637670D01*
X125912656Y-39649981D01*
X125898231Y-39654514D01*
X125895472Y-39641025D01*
X125893282Y-39604653D01*
X125891942Y-39551542D01*
X125891657Y-39509372D01*
X125890434Y-39448447D01*
X125887136Y-39400115D01*
X125882321Y-39370518D01*
X125878496Y-39364229D01*
X125852783Y-39370652D01*
X125812418Y-39387125D01*
X125765679Y-39409458D01*
X125720845Y-39433457D01*
X125686193Y-39454930D01*
X125670002Y-39469685D01*
X125669938Y-39469845D01*
X125671330Y-39497152D01*
X125683818Y-39523219D01*
X125705743Y-39544392D01*
X125737743Y-39551474D01*
X125765092Y-39550649D01*
X125803826Y-39550042D01*
X125824158Y-39559116D01*
X125836369Y-39583092D01*
X125837909Y-39587613D01*
X125843203Y-39621806D01*
X125829047Y-39642568D01*
X125792148Y-39652462D01*
X125752289Y-39654292D01*
X125680562Y-39640727D01*
X125643432Y-39621355D01*
X125597576Y-39575845D01*
X125573256Y-39519983D01*
X125571073Y-39460957D01*
X125591629Y-39405953D01*
X125622549Y-39371486D01*
X125653420Y-39352189D01*
X125701942Y-39327759D01*
X125758485Y-39302985D01*
X125767910Y-39299199D01*
X125830019Y-39271791D01*
X125865822Y-39247634D01*
X125877337Y-39223619D01*
X125866580Y-39196635D01*
X125848114Y-39175543D01*
X125804469Y-39149572D01*
X125756446Y-39147624D01*
X125712406Y-39167637D01*
X125680709Y-39207551D01*
X125676549Y-39217848D01*
X125652327Y-39255724D01*
X125616965Y-39283842D01*
X125572343Y-39306917D01*
X125572343Y-39241485D01*
X125574969Y-39201506D01*
X125586230Y-39169997D01*
X125611199Y-39136378D01*
X125635169Y-39110484D01*
X125672441Y-39073817D01*
X125701401Y-39054121D01*
X125732505Y-39046220D01*
X125767713Y-39044914D01*
X125844876Y-39056335D01*
G36*
X125844876Y-39056335D02*
G01*
X125886667Y-39075344D01*
X125919469Y-39098378D01*
X125943503Y-39124133D01*
X125960097Y-39157358D01*
X125970577Y-39202800D01*
X125976271Y-39265207D01*
X125978507Y-39349327D01*
X125978743Y-39404721D01*
X125978743Y-39620826D01*
X125941774Y-39637670D01*
X125912656Y-39649981D01*
X125898231Y-39654514D01*
X125895472Y-39641025D01*
X125893282Y-39604653D01*
X125891942Y-39551542D01*
X125891657Y-39509372D01*
X125890434Y-39448447D01*
X125887136Y-39400115D01*
X125882321Y-39370518D01*
X125878496Y-39364229D01*
X125852783Y-39370652D01*
X125812418Y-39387125D01*
X125765679Y-39409458D01*
X125720845Y-39433457D01*
X125686193Y-39454930D01*
X125670002Y-39469685D01*
X125669938Y-39469845D01*
X125671330Y-39497152D01*
X125683818Y-39523219D01*
X125705743Y-39544392D01*
X125737743Y-39551474D01*
X125765092Y-39550649D01*
X125803826Y-39550042D01*
X125824158Y-39559116D01*
X125836369Y-39583092D01*
X125837909Y-39587613D01*
X125843203Y-39621806D01*
X125829047Y-39642568D01*
X125792148Y-39652462D01*
X125752289Y-39654292D01*
X125680562Y-39640727D01*
X125643432Y-39621355D01*
X125597576Y-39575845D01*
X125573256Y-39519983D01*
X125571073Y-39460957D01*
X125591629Y-39405953D01*
X125622549Y-39371486D01*
X125653420Y-39352189D01*
X125701942Y-39327759D01*
X125758485Y-39302985D01*
X125767910Y-39299199D01*
X125830019Y-39271791D01*
X125865822Y-39247634D01*
X125877337Y-39223619D01*
X125866580Y-39196635D01*
X125848114Y-39175543D01*
X125804469Y-39149572D01*
X125756446Y-39147624D01*
X125712406Y-39167637D01*
X125680709Y-39207551D01*
X125676549Y-39217848D01*
X125652327Y-39255724D01*
X125616965Y-39283842D01*
X125572343Y-39306917D01*
X125572343Y-39241485D01*
X125574969Y-39201506D01*
X125586230Y-39169997D01*
X125611199Y-39136378D01*
X125635169Y-39110484D01*
X125672441Y-39073817D01*
X125701401Y-39054121D01*
X125732505Y-39046220D01*
X125767713Y-39044914D01*
X125844876Y-39056335D01*
G37*
X123803910Y-34342348D02*
X123882454Y-34342778D01*
X123939298Y-34343942D01*
X123978105Y-34346207D01*
X124002538Y-34349940D01*
X124016262Y-34355506D01*
X124022940Y-34363273D01*
X124026236Y-34373605D01*
X124026556Y-34374943D01*
X124031562Y-34399079D01*
X124040829Y-34446701D01*
X124053392Y-34512741D01*
X124068287Y-34592128D01*
X124084551Y-34679796D01*
X124085119Y-34682875D01*
X124101410Y-34768789D01*
X124116652Y-34844696D01*
X124129861Y-34906045D01*
X124140054Y-34948282D01*
X124146248Y-34966855D01*
X124146543Y-34967184D01*
X124164788Y-34976253D01*
X124202405Y-34991367D01*
X124251271Y-35009262D01*
X124251543Y-35009358D01*
X124313093Y-35032493D01*
X124385657Y-35061965D01*
X124454057Y-35091597D01*
X124457294Y-35093062D01*
X124568702Y-35143626D01*
X124815399Y-34975160D01*
X124891077Y-34923803D01*
X124959631Y-34877889D01*
X125017088Y-34840030D01*
X125059476Y-34812837D01*
X125082825Y-34798921D01*
X125085042Y-34797889D01*
X125102010Y-34802484D01*
X125133701Y-34824655D01*
X125181352Y-34865447D01*
X125246198Y-34925905D01*
X125312397Y-34990227D01*
X125376214Y-35053612D01*
X125433329Y-35111451D01*
X125480305Y-35160175D01*
X125513703Y-35196210D01*
X125530085Y-35215984D01*
X125530694Y-35217002D01*
X125532505Y-35230572D01*
X125525683Y-35252733D01*
X125508540Y-35286478D01*
X125479393Y-35334800D01*
X125436555Y-35400692D01*
X125379448Y-35485517D01*
X125328766Y-35560177D01*
X125283461Y-35627140D01*
X125246150Y-35682516D01*
X125219452Y-35722420D01*
X125205985Y-35742962D01*
X125205137Y-35744356D01*
X125206781Y-35764038D01*
X125219245Y-35802293D01*
X125240048Y-35851889D01*
X125247462Y-35867728D01*
X125279814Y-35938290D01*
X125314328Y-36018353D01*
X125342365Y-36087629D01*
X125362568Y-36139045D01*
X125378615Y-36178119D01*
X125387888Y-36198541D01*
X125389041Y-36200114D01*
X125406096Y-36202721D01*
X125446298Y-36209863D01*
X125504302Y-36220523D01*
X125574763Y-36233685D01*
X125652335Y-36248333D01*
X125731672Y-36263449D01*
X125807431Y-36278018D01*
X125874264Y-36291022D01*
X125926828Y-36301445D01*
X125959776Y-36308270D01*
X125967857Y-36310199D01*
X125976205Y-36314962D01*
X125982506Y-36325718D01*
X125987045Y-36346098D01*
X125990104Y-36379734D01*
X125991967Y-36430255D01*
X125992918Y-36501292D01*
X125993240Y-36596476D01*
X125993257Y-36635492D01*
X125993257Y-36952799D01*
X125917057Y-36967839D01*
X125874663Y-36975995D01*
X125811400Y-36987899D01*
X125734962Y-37002116D01*
X125653043Y-37017210D01*
X125630400Y-37021355D01*
X125554806Y-37036053D01*
X125488953Y-37050505D01*
X125438366Y-37063375D01*
X125408574Y-37073322D01*
X125403612Y-37076287D01*
X125391426Y-37097283D01*
X125373953Y-37137967D01*
X125354577Y-37190322D01*
X125350734Y-37201600D01*
X125325339Y-37271523D01*
X125293817Y-37350418D01*
X125262969Y-37421266D01*
X125262817Y-37421595D01*
X125211447Y-37532733D01*
X125380399Y-37781253D01*
X125549352Y-38029772D01*
X125332429Y-38247058D01*
X125266819Y-38311726D01*
X125206979Y-38368733D01*
X125156267Y-38415033D01*
X125118046Y-38447584D01*
X125095675Y-38463343D01*
X125092466Y-38464343D01*
X125073626Y-38456469D01*
X125035180Y-38434578D01*
X124981330Y-38401267D01*
X124916276Y-38359131D01*
X124845940Y-38311943D01*
X124774555Y-38263810D01*
X124710908Y-38221928D01*
X124659041Y-38188871D01*
X124622995Y-38167218D01*
X124606867Y-38159543D01*
X124587189Y-38166037D01*
X124549875Y-38183150D01*
X124502621Y-38207326D01*
X124497612Y-38210013D01*
X124433977Y-38241927D01*
X124390341Y-38257579D01*
X124363202Y-38257745D01*
X124349057Y-38243204D01*
X124348975Y-38243000D01*
X124341905Y-38225779D01*
X124325042Y-38184899D01*
X124299695Y-38123525D01*
X124267171Y-38044819D01*
X124228778Y-37951947D01*
X124185822Y-37848072D01*
X124144222Y-37747502D01*
X124098504Y-37636516D01*
X124056526Y-37533703D01*
X124019548Y-37442215D01*
X123988827Y-37365201D01*
X123965622Y-37305815D01*
X123951190Y-37267209D01*
X123946743Y-37252800D01*
X123957896Y-37236272D01*
X123987069Y-37209930D01*
X124025971Y-37180887D01*
X124136757Y-37089039D01*
X124223351Y-36983759D01*
X124284716Y-36867266D01*
X124319815Y-36741776D01*
X124327608Y-36609507D01*
X124321943Y-36548457D01*
X124291078Y-36421795D01*
X124237920Y-36309941D01*
X124165767Y-36214001D01*
X124077917Y-36135076D01*
X123977665Y-36074270D01*
X123868310Y-36032687D01*
X123753147Y-36011428D01*
X123635475Y-36011599D01*
X123518590Y-36034301D01*
X123405789Y-36080638D01*
X123300369Y-36151713D01*
X123256368Y-36191911D01*
X123171979Y-36295129D01*
X123113222Y-36407925D01*
X123079704Y-36527010D01*
X123071035Y-36649095D01*
X123086823Y-36770893D01*
X123126678Y-36889116D01*
X123190207Y-37000475D01*
X123277021Y-37101684D01*
X123374029Y-37180887D01*
X123414437Y-37211162D01*
X123442982Y-37237219D01*
X123453257Y-37252825D01*
X123447877Y-37269843D01*
X123432575Y-37310500D01*
X123408612Y-37371642D01*
X123377244Y-37450119D01*
X123339732Y-37542780D01*
X123297333Y-37646472D01*
X123255663Y-37747526D01*
X123209690Y-37858607D01*
X123167107Y-37961541D01*
X123129221Y-38053165D01*
X123097340Y-38130316D01*
X123072771Y-38189831D01*
X123056820Y-38228544D01*
X123050910Y-38243000D01*
X123036948Y-38257685D01*
X123009940Y-38257642D01*
X122966413Y-38242099D01*
X122902890Y-38210284D01*
X122902388Y-38210013D01*
X122854560Y-38185323D01*
X122815897Y-38167338D01*
X122794095Y-38159614D01*
X122793133Y-38159543D01*
X122776721Y-38167378D01*
X122740487Y-38189165D01*
X122688474Y-38222328D01*
X122624725Y-38264291D01*
X122554060Y-38311943D01*
X122482116Y-38360191D01*
X122417274Y-38402151D01*
X122363735Y-38435227D01*
X122325697Y-38456821D01*
X122307533Y-38464343D01*
X122290808Y-38454457D01*
X122257180Y-38426826D01*
X122210010Y-38384495D01*
X122152658Y-38330505D01*
X122088484Y-38267899D01*
X122067497Y-38246983D01*
X121850499Y-38029623D01*
X122015668Y-37787220D01*
X122065864Y-37712781D01*
X122109919Y-37645972D01*
X122145362Y-37590665D01*
X122169719Y-37550729D01*
X122180522Y-37530036D01*
X122180838Y-37528563D01*
X122175143Y-37509058D01*
X122159826Y-37469822D01*
X122137537Y-37417430D01*
X122121893Y-37382355D01*
X122092641Y-37315201D01*
X122065094Y-37247358D01*
X122043737Y-37190034D01*
X122037935Y-37172572D01*
X122021452Y-37125938D01*
X122005340Y-37089905D01*
X121996490Y-37076287D01*
X121976960Y-37067952D01*
X121934334Y-37056137D01*
X121874145Y-37042181D01*
X121801922Y-37027422D01*
X121769600Y-37021355D01*
X121687522Y-37006273D01*
X121608795Y-36991669D01*
X121541109Y-36978980D01*
X121492160Y-36969642D01*
X121482943Y-36967839D01*
X121406743Y-36952799D01*
X121406743Y-36635492D01*
X121406914Y-36531154D01*
X121407616Y-36452213D01*
X121409134Y-36395038D01*
X121411749Y-36355999D01*
X121415746Y-36331465D01*
X121421409Y-36317805D01*
X121429020Y-36311389D01*
X121432143Y-36310199D01*
X121450978Y-36305980D01*
X121492588Y-36297562D01*
X121551630Y-36285961D01*
X121622757Y-36272195D01*
X121700625Y-36257280D01*
X121779887Y-36242232D01*
X121855198Y-36228069D01*
X121921213Y-36215806D01*
X121972587Y-36206461D01*
X122003975Y-36201050D01*
X122010959Y-36200114D01*
X122017285Y-36187596D01*
X122031290Y-36154246D01*
X122050355Y-36106377D01*
X122057634Y-36087629D01*
X122086996Y-36015195D01*
X122121571Y-35935170D01*
X122152537Y-35867728D01*
X122175323Y-35816159D01*
X122190482Y-35773785D01*
X122195542Y-35747834D01*
X122194736Y-35744356D01*
X122184041Y-35727936D01*
X122159620Y-35691417D01*
X122124095Y-35638687D01*
X122080087Y-35573635D01*
X122030217Y-35500151D01*
X122020356Y-35485645D01*
X121962492Y-35399704D01*
X121919956Y-35334261D01*
X121891054Y-35286304D01*
X121874090Y-35252820D01*
X121867367Y-35230795D01*
X121869190Y-35217217D01*
X121869236Y-35217131D01*
X121883586Y-35199297D01*
X121915323Y-35164817D01*
X121961010Y-35117268D01*
X122017204Y-35060222D01*
X122080468Y-34997255D01*
X122087602Y-34990227D01*
X122167330Y-34913020D01*
X122228857Y-34856330D01*
X122273421Y-34819110D01*
X122302257Y-34800315D01*
X122314958Y-34797889D01*
X122333494Y-34808471D01*
X122371961Y-34832916D01*
X122426386Y-34868612D01*
X122492798Y-34912947D01*
X122567225Y-34963311D01*
X122584601Y-34975160D01*
X122831297Y-35143626D01*
X122942706Y-35093062D01*
X123010457Y-35063595D01*
X123083183Y-35033959D01*
X123145703Y-35010330D01*
X123148457Y-35009358D01*
X123197360Y-34991457D01*
X123235057Y-34976320D01*
X123253425Y-34967210D01*
X123253456Y-34967184D01*
X123259285Y-34950717D01*
X123269192Y-34910219D01*
X123282195Y-34850242D01*
X123297309Y-34775340D01*
X123313552Y-34690064D01*
X123314881Y-34682875D01*
X123331175Y-34595014D01*
X123346133Y-34515260D01*
X123358791Y-34448681D01*
X123368186Y-34400347D01*
X123373354Y-34375325D01*
X123373444Y-34374943D01*
X123376589Y-34364299D01*
X123382704Y-34356262D01*
X123395453Y-34350467D01*
X123418500Y-34346547D01*
X123455509Y-34344135D01*
X123510144Y-34342865D01*
X123586067Y-34342371D01*
X123686944Y-34342286D01*
X123700000Y-34342286D01*
X123803910Y-34342348D01*
G36*
X123803910Y-34342348D02*
G01*
X123882454Y-34342778D01*
X123939298Y-34343942D01*
X123978105Y-34346207D01*
X124002538Y-34349940D01*
X124016262Y-34355506D01*
X124022940Y-34363273D01*
X124026236Y-34373605D01*
X124026556Y-34374943D01*
X124031562Y-34399079D01*
X124040829Y-34446701D01*
X124053392Y-34512741D01*
X124068287Y-34592128D01*
X124084551Y-34679796D01*
X124085119Y-34682875D01*
X124101410Y-34768789D01*
X124116652Y-34844696D01*
X124129861Y-34906045D01*
X124140054Y-34948282D01*
X124146248Y-34966855D01*
X124146543Y-34967184D01*
X124164788Y-34976253D01*
X124202405Y-34991367D01*
X124251271Y-35009262D01*
X124251543Y-35009358D01*
X124313093Y-35032493D01*
X124385657Y-35061965D01*
X124454057Y-35091597D01*
X124457294Y-35093062D01*
X124568702Y-35143626D01*
X124815399Y-34975160D01*
X124891077Y-34923803D01*
X124959631Y-34877889D01*
X125017088Y-34840030D01*
X125059476Y-34812837D01*
X125082825Y-34798921D01*
X125085042Y-34797889D01*
X125102010Y-34802484D01*
X125133701Y-34824655D01*
X125181352Y-34865447D01*
X125246198Y-34925905D01*
X125312397Y-34990227D01*
X125376214Y-35053612D01*
X125433329Y-35111451D01*
X125480305Y-35160175D01*
X125513703Y-35196210D01*
X125530085Y-35215984D01*
X125530694Y-35217002D01*
X125532505Y-35230572D01*
X125525683Y-35252733D01*
X125508540Y-35286478D01*
X125479393Y-35334800D01*
X125436555Y-35400692D01*
X125379448Y-35485517D01*
X125328766Y-35560177D01*
X125283461Y-35627140D01*
X125246150Y-35682516D01*
X125219452Y-35722420D01*
X125205985Y-35742962D01*
X125205137Y-35744356D01*
X125206781Y-35764038D01*
X125219245Y-35802293D01*
X125240048Y-35851889D01*
X125247462Y-35867728D01*
X125279814Y-35938290D01*
X125314328Y-36018353D01*
X125342365Y-36087629D01*
X125362568Y-36139045D01*
X125378615Y-36178119D01*
X125387888Y-36198541D01*
X125389041Y-36200114D01*
X125406096Y-36202721D01*
X125446298Y-36209863D01*
X125504302Y-36220523D01*
X125574763Y-36233685D01*
X125652335Y-36248333D01*
X125731672Y-36263449D01*
X125807431Y-36278018D01*
X125874264Y-36291022D01*
X125926828Y-36301445D01*
X125959776Y-36308270D01*
X125967857Y-36310199D01*
X125976205Y-36314962D01*
X125982506Y-36325718D01*
X125987045Y-36346098D01*
X125990104Y-36379734D01*
X125991967Y-36430255D01*
X125992918Y-36501292D01*
X125993240Y-36596476D01*
X125993257Y-36635492D01*
X125993257Y-36952799D01*
X125917057Y-36967839D01*
X125874663Y-36975995D01*
X125811400Y-36987899D01*
X125734962Y-37002116D01*
X125653043Y-37017210D01*
X125630400Y-37021355D01*
X125554806Y-37036053D01*
X125488953Y-37050505D01*
X125438366Y-37063375D01*
X125408574Y-37073322D01*
X125403612Y-37076287D01*
X125391426Y-37097283D01*
X125373953Y-37137967D01*
X125354577Y-37190322D01*
X125350734Y-37201600D01*
X125325339Y-37271523D01*
X125293817Y-37350418D01*
X125262969Y-37421266D01*
X125262817Y-37421595D01*
X125211447Y-37532733D01*
X125380399Y-37781253D01*
X125549352Y-38029772D01*
X125332429Y-38247058D01*
X125266819Y-38311726D01*
X125206979Y-38368733D01*
X125156267Y-38415033D01*
X125118046Y-38447584D01*
X125095675Y-38463343D01*
X125092466Y-38464343D01*
X125073626Y-38456469D01*
X125035180Y-38434578D01*
X124981330Y-38401267D01*
X124916276Y-38359131D01*
X124845940Y-38311943D01*
X124774555Y-38263810D01*
X124710908Y-38221928D01*
X124659041Y-38188871D01*
X124622995Y-38167218D01*
X124606867Y-38159543D01*
X124587189Y-38166037D01*
X124549875Y-38183150D01*
X124502621Y-38207326D01*
X124497612Y-38210013D01*
X124433977Y-38241927D01*
X124390341Y-38257579D01*
X124363202Y-38257745D01*
X124349057Y-38243204D01*
X124348975Y-38243000D01*
X124341905Y-38225779D01*
X124325042Y-38184899D01*
X124299695Y-38123525D01*
X124267171Y-38044819D01*
X124228778Y-37951947D01*
X124185822Y-37848072D01*
X124144222Y-37747502D01*
X124098504Y-37636516D01*
X124056526Y-37533703D01*
X124019548Y-37442215D01*
X123988827Y-37365201D01*
X123965622Y-37305815D01*
X123951190Y-37267209D01*
X123946743Y-37252800D01*
X123957896Y-37236272D01*
X123987069Y-37209930D01*
X124025971Y-37180887D01*
X124136757Y-37089039D01*
X124223351Y-36983759D01*
X124284716Y-36867266D01*
X124319815Y-36741776D01*
X124327608Y-36609507D01*
X124321943Y-36548457D01*
X124291078Y-36421795D01*
X124237920Y-36309941D01*
X124165767Y-36214001D01*
X124077917Y-36135076D01*
X123977665Y-36074270D01*
X123868310Y-36032687D01*
X123753147Y-36011428D01*
X123635475Y-36011599D01*
X123518590Y-36034301D01*
X123405789Y-36080638D01*
X123300369Y-36151713D01*
X123256368Y-36191911D01*
X123171979Y-36295129D01*
X123113222Y-36407925D01*
X123079704Y-36527010D01*
X123071035Y-36649095D01*
X123086823Y-36770893D01*
X123126678Y-36889116D01*
X123190207Y-37000475D01*
X123277021Y-37101684D01*
X123374029Y-37180887D01*
X123414437Y-37211162D01*
X123442982Y-37237219D01*
X123453257Y-37252825D01*
X123447877Y-37269843D01*
X123432575Y-37310500D01*
X123408612Y-37371642D01*
X123377244Y-37450119D01*
X123339732Y-37542780D01*
X123297333Y-37646472D01*
X123255663Y-37747526D01*
X123209690Y-37858607D01*
X123167107Y-37961541D01*
X123129221Y-38053165D01*
X123097340Y-38130316D01*
X123072771Y-38189831D01*
X123056820Y-38228544D01*
X123050910Y-38243000D01*
X123036948Y-38257685D01*
X123009940Y-38257642D01*
X122966413Y-38242099D01*
X122902890Y-38210284D01*
X122902388Y-38210013D01*
X122854560Y-38185323D01*
X122815897Y-38167338D01*
X122794095Y-38159614D01*
X122793133Y-38159543D01*
X122776721Y-38167378D01*
X122740487Y-38189165D01*
X122688474Y-38222328D01*
X122624725Y-38264291D01*
X122554060Y-38311943D01*
X122482116Y-38360191D01*
X122417274Y-38402151D01*
X122363735Y-38435227D01*
X122325697Y-38456821D01*
X122307533Y-38464343D01*
X122290808Y-38454457D01*
X122257180Y-38426826D01*
X122210010Y-38384495D01*
X122152658Y-38330505D01*
X122088484Y-38267899D01*
X122067497Y-38246983D01*
X121850499Y-38029623D01*
X122015668Y-37787220D01*
X122065864Y-37712781D01*
X122109919Y-37645972D01*
X122145362Y-37590665D01*
X122169719Y-37550729D01*
X122180522Y-37530036D01*
X122180838Y-37528563D01*
X122175143Y-37509058D01*
X122159826Y-37469822D01*
X122137537Y-37417430D01*
X122121893Y-37382355D01*
X122092641Y-37315201D01*
X122065094Y-37247358D01*
X122043737Y-37190034D01*
X122037935Y-37172572D01*
X122021452Y-37125938D01*
X122005340Y-37089905D01*
X121996490Y-37076287D01*
X121976960Y-37067952D01*
X121934334Y-37056137D01*
X121874145Y-37042181D01*
X121801922Y-37027422D01*
X121769600Y-37021355D01*
X121687522Y-37006273D01*
X121608795Y-36991669D01*
X121541109Y-36978980D01*
X121492160Y-36969642D01*
X121482943Y-36967839D01*
X121406743Y-36952799D01*
X121406743Y-36635492D01*
X121406914Y-36531154D01*
X121407616Y-36452213D01*
X121409134Y-36395038D01*
X121411749Y-36355999D01*
X121415746Y-36331465D01*
X121421409Y-36317805D01*
X121429020Y-36311389D01*
X121432143Y-36310199D01*
X121450978Y-36305980D01*
X121492588Y-36297562D01*
X121551630Y-36285961D01*
X121622757Y-36272195D01*
X121700625Y-36257280D01*
X121779887Y-36242232D01*
X121855198Y-36228069D01*
X121921213Y-36215806D01*
X121972587Y-36206461D01*
X122003975Y-36201050D01*
X122010959Y-36200114D01*
X122017285Y-36187596D01*
X122031290Y-36154246D01*
X122050355Y-36106377D01*
X122057634Y-36087629D01*
X122086996Y-36015195D01*
X122121571Y-35935170D01*
X122152537Y-35867728D01*
X122175323Y-35816159D01*
X122190482Y-35773785D01*
X122195542Y-35747834D01*
X122194736Y-35744356D01*
X122184041Y-35727936D01*
X122159620Y-35691417D01*
X122124095Y-35638687D01*
X122080087Y-35573635D01*
X122030217Y-35500151D01*
X122020356Y-35485645D01*
X121962492Y-35399704D01*
X121919956Y-35334261D01*
X121891054Y-35286304D01*
X121874090Y-35252820D01*
X121867367Y-35230795D01*
X121869190Y-35217217D01*
X121869236Y-35217131D01*
X121883586Y-35199297D01*
X121915323Y-35164817D01*
X121961010Y-35117268D01*
X122017204Y-35060222D01*
X122080468Y-34997255D01*
X122087602Y-34990227D01*
X122167330Y-34913020D01*
X122228857Y-34856330D01*
X122273421Y-34819110D01*
X122302257Y-34800315D01*
X122314958Y-34797889D01*
X122333494Y-34808471D01*
X122371961Y-34832916D01*
X122426386Y-34868612D01*
X122492798Y-34912947D01*
X122567225Y-34963311D01*
X122584601Y-34975160D01*
X122831297Y-35143626D01*
X122942706Y-35093062D01*
X123010457Y-35063595D01*
X123083183Y-35033959D01*
X123145703Y-35010330D01*
X123148457Y-35009358D01*
X123197360Y-34991457D01*
X123235057Y-34976320D01*
X123253425Y-34967210D01*
X123253456Y-34967184D01*
X123259285Y-34950717D01*
X123269192Y-34910219D01*
X123282195Y-34850242D01*
X123297309Y-34775340D01*
X123313552Y-34690064D01*
X123314881Y-34682875D01*
X123331175Y-34595014D01*
X123346133Y-34515260D01*
X123358791Y-34448681D01*
X123368186Y-34400347D01*
X123373354Y-34375325D01*
X123373444Y-34374943D01*
X123376589Y-34364299D01*
X123382704Y-34356262D01*
X123395453Y-34350467D01*
X123418500Y-34346547D01*
X123455509Y-34344135D01*
X123510144Y-34342865D01*
X123586067Y-34342371D01*
X123686944Y-34342286D01*
X123700000Y-34342286D01*
X123803910Y-34342348D01*
G37*
X134190250Y-37425297D02*
X134195568Y-37440748D01*
X134137333Y-37446649D01*
X134077235Y-37439996D01*
X134084417Y-37425297D01*
X134171088Y-37419705D01*
X134190250Y-37425297D01*
G36*
X134190250Y-37425297D02*
G01*
X134195568Y-37440748D01*
X134137333Y-37446649D01*
X134077235Y-37439996D01*
X134084417Y-37425297D01*
X134171088Y-37419705D01*
X134190250Y-37425297D01*
G37*
X135226535Y-37427757D02*
X135213909Y-37446998D01*
X135170972Y-37449991D01*
X135125801Y-37439652D01*
X135145396Y-37424415D01*
X135211558Y-37419368D01*
X135226535Y-37427757D01*
G36*
X135226535Y-37427757D02*
G01*
X135213909Y-37446998D01*
X135170972Y-37449991D01*
X135125801Y-37439652D01*
X135145396Y-37424415D01*
X135211558Y-37419368D01*
X135226535Y-37427757D01*
G37*
X135291722Y-37594899D02*
X135293129Y-37608796D01*
X135226858Y-37614472D01*
X135216833Y-37614414D01*
X135151176Y-37608309D01*
X135157444Y-37595425D01*
X135164722Y-37593330D01*
X135256937Y-37587132D01*
X135291722Y-37594899D01*
G36*
X135291722Y-37594899D02*
G01*
X135293129Y-37608796D01*
X135226858Y-37614472D01*
X135216833Y-37614414D01*
X135151176Y-37608309D01*
X135157444Y-37595425D01*
X135164722Y-37593330D01*
X135256937Y-37587132D01*
X135291722Y-37594899D01*
G37*
X142264453Y-38679789D02*
X142297083Y-38712750D01*
X142275054Y-38752894D01*
X142180667Y-38765667D01*
X142083627Y-38751689D01*
X142064250Y-38712750D01*
X142115275Y-38671428D01*
X142180667Y-38659833D01*
X142264453Y-38679789D01*
G36*
X142264453Y-38679789D02*
G01*
X142297083Y-38712750D01*
X142275054Y-38752894D01*
X142180667Y-38765667D01*
X142083627Y-38751689D01*
X142064250Y-38712750D01*
X142115275Y-38671428D01*
X142180667Y-38659833D01*
X142264453Y-38679789D01*
G37*
X132644469Y-37418941D02*
X132714526Y-37464953D01*
X132731342Y-37501409D01*
X132712317Y-37570798D01*
X132644681Y-37600250D01*
X132571576Y-37580689D01*
X132536397Y-37522237D01*
X132556731Y-37455890D01*
X132616071Y-37418272D01*
X132644469Y-37418941D01*
G36*
X132644469Y-37418941D02*
G01*
X132714526Y-37464953D01*
X132731342Y-37501409D01*
X132712317Y-37570798D01*
X132644681Y-37600250D01*
X132571576Y-37580689D01*
X132536397Y-37522237D01*
X132556731Y-37455890D01*
X132616071Y-37418272D01*
X132644469Y-37418941D01*
G37*
X135744254Y-37451042D02*
X135767167Y-37516833D01*
X135732758Y-37592184D01*
X135668528Y-37615472D01*
X135595946Y-37612181D01*
X135580889Y-37557163D01*
X135583861Y-37530805D01*
X135621372Y-37455952D01*
X135685290Y-37428568D01*
X135744254Y-37451042D01*
G36*
X135744254Y-37451042D02*
G01*
X135767167Y-37516833D01*
X135732758Y-37592184D01*
X135668528Y-37615472D01*
X135595946Y-37612181D01*
X135580889Y-37557163D01*
X135583861Y-37530805D01*
X135621372Y-37455952D01*
X135685290Y-37428568D01*
X135744254Y-37451042D01*
G37*
X133184139Y-37437315D02*
X133226330Y-37504675D01*
X133227167Y-37517413D01*
X133194479Y-37587265D01*
X133121356Y-37618072D01*
X133045209Y-37602630D01*
X133009689Y-37559290D01*
X133008436Y-37477508D01*
X133026549Y-37446518D01*
X133105077Y-37413523D01*
X133184139Y-37437315D01*
G36*
X133184139Y-37437315D02*
G01*
X133226330Y-37504675D01*
X133227167Y-37517413D01*
X133194479Y-37587265D01*
X133121356Y-37618072D01*
X133045209Y-37602630D01*
X133009689Y-37559290D01*
X133008436Y-37477508D01*
X133026549Y-37446518D01*
X133105077Y-37413523D01*
X133184139Y-37437315D01*
G37*
X136813005Y-37451509D02*
X136846546Y-37531025D01*
X136846667Y-37536671D01*
X136815725Y-37602690D01*
X136747028Y-37623870D01*
X136676763Y-37596608D01*
X136649217Y-37556321D01*
X136650446Y-37474488D01*
X136668867Y-37444867D01*
X136742726Y-37417083D01*
X136813005Y-37451509D01*
G36*
X136813005Y-37451509D02*
G01*
X136846546Y-37531025D01*
X136846667Y-37536671D01*
X136815725Y-37602690D01*
X136747028Y-37623870D01*
X136676763Y-37596608D01*
X136649217Y-37556321D01*
X136650446Y-37474488D01*
X136668867Y-37444867D01*
X136742726Y-37417083D01*
X136813005Y-37451509D01*
G37*
X140771774Y-38922592D02*
X140775718Y-38989425D01*
X140746219Y-39058754D01*
X140692364Y-39095661D01*
X140616420Y-39083452D01*
X140593469Y-39062489D01*
X140593194Y-38995067D01*
X140644283Y-38927482D01*
X140720318Y-38893011D01*
X140728294Y-38892667D01*
X140771774Y-38922592D01*
G36*
X140771774Y-38922592D02*
G01*
X140775718Y-38989425D01*
X140746219Y-39058754D01*
X140692364Y-39095661D01*
X140616420Y-39083452D01*
X140593469Y-39062489D01*
X140593194Y-38995067D01*
X140644283Y-38927482D01*
X140720318Y-38893011D01*
X140728294Y-38892667D01*
X140771774Y-38922592D01*
G37*
X130214901Y-37921927D02*
X130291389Y-37935212D01*
X130322303Y-37965606D01*
X130327333Y-38006920D01*
X130303539Y-38084534D01*
X130241200Y-38203047D01*
X130155048Y-38335003D01*
X129982762Y-38575167D01*
X130176214Y-38588069D01*
X130308843Y-38607602D01*
X130366016Y-38645136D01*
X130369667Y-38662153D01*
X130349031Y-38696939D01*
X130277225Y-38716148D01*
X130139397Y-38723113D01*
X130096998Y-38723333D01*
X129953132Y-38718001D01*
X129846077Y-38704082D01*
X129801461Y-38686331D01*
X129811705Y-38635328D01*
X129859903Y-38535022D01*
X129936042Y-38405882D01*
X129947130Y-38388569D01*
X130029407Y-38256030D01*
X130089425Y-38149357D01*
X130115395Y-38089653D01*
X130115667Y-38086905D01*
X130078448Y-38059866D01*
X129986930Y-38046353D01*
X129967500Y-38046000D01*
X129857913Y-38032230D01*
X129819601Y-37988283D01*
X129819333Y-37982500D01*
X129838840Y-37945628D01*
X129907990Y-37925832D01*
X130042729Y-37919125D01*
X130073333Y-37919000D01*
X130214901Y-37921927D01*
G36*
X130214901Y-37921927D02*
G01*
X130291389Y-37935212D01*
X130322303Y-37965606D01*
X130327333Y-38006920D01*
X130303539Y-38084534D01*
X130241200Y-38203047D01*
X130155048Y-38335003D01*
X129982762Y-38575167D01*
X130176214Y-38588069D01*
X130308843Y-38607602D01*
X130366016Y-38645136D01*
X130369667Y-38662153D01*
X130349031Y-38696939D01*
X130277225Y-38716148D01*
X130139397Y-38723113D01*
X130096998Y-38723333D01*
X129953132Y-38718001D01*
X129846077Y-38704082D01*
X129801461Y-38686331D01*
X129811705Y-38635328D01*
X129859903Y-38535022D01*
X129936042Y-38405882D01*
X129947130Y-38388569D01*
X130029407Y-38256030D01*
X130089425Y-38149357D01*
X130115395Y-38089653D01*
X130115667Y-38086905D01*
X130078448Y-38059866D01*
X129986930Y-38046353D01*
X129967500Y-38046000D01*
X129857913Y-38032230D01*
X129819601Y-37988283D01*
X129819333Y-37982500D01*
X129838840Y-37945628D01*
X129907990Y-37925832D01*
X130042729Y-37919125D01*
X130073333Y-37919000D01*
X130214901Y-37921927D01*
G37*
X131312843Y-37932378D02*
X131337837Y-37987090D01*
X131344004Y-38098917D01*
X131344674Y-38278833D01*
X131460420Y-38099221D01*
X131541093Y-37995295D01*
X131617903Y-37930291D01*
X131650250Y-37919305D01*
X131705213Y-37925302D01*
X131717131Y-37954499D01*
X131683514Y-38022769D01*
X131618500Y-38121573D01*
X131554111Y-38223696D01*
X131516589Y-38297461D01*
X131512667Y-38312783D01*
X131534951Y-38365032D01*
X131592161Y-38461053D01*
X131641700Y-38535789D01*
X131714424Y-38643825D01*
X131741939Y-38699511D01*
X131727177Y-38720146D01*
X131673450Y-38723028D01*
X131584038Y-38689727D01*
X131488480Y-38584708D01*
X131460420Y-38543112D01*
X131344674Y-38363500D01*
X131344004Y-38543417D01*
X131337279Y-38658435D01*
X131311336Y-38711115D01*
X131258667Y-38723333D01*
X131219315Y-38717260D01*
X131194480Y-38688572D01*
X131180853Y-38621561D01*
X131175129Y-38500524D01*
X131174000Y-38321167D01*
X131175278Y-38134248D01*
X131181318Y-38016279D01*
X131195425Y-37951552D01*
X131220907Y-37924364D01*
X131258667Y-37919000D01*
X131312843Y-37932378D01*
G36*
X131312843Y-37932378D02*
G01*
X131337837Y-37987090D01*
X131344004Y-38098917D01*
X131344674Y-38278833D01*
X131460420Y-38099221D01*
X131541093Y-37995295D01*
X131617903Y-37930291D01*
X131650250Y-37919305D01*
X131705213Y-37925302D01*
X131717131Y-37954499D01*
X131683514Y-38022769D01*
X131618500Y-38121573D01*
X131554111Y-38223696D01*
X131516589Y-38297461D01*
X131512667Y-38312783D01*
X131534951Y-38365032D01*
X131592161Y-38461053D01*
X131641700Y-38535789D01*
X131714424Y-38643825D01*
X131741939Y-38699511D01*
X131727177Y-38720146D01*
X131673450Y-38723028D01*
X131584038Y-38689727D01*
X131488480Y-38584708D01*
X131460420Y-38543112D01*
X131344674Y-38363500D01*
X131344004Y-38543417D01*
X131337279Y-38658435D01*
X131311336Y-38711115D01*
X131258667Y-38723333D01*
X131219315Y-38717260D01*
X131194480Y-38688572D01*
X131180853Y-38621561D01*
X131175129Y-38500524D01*
X131174000Y-38321167D01*
X131175278Y-38134248D01*
X131181318Y-38016279D01*
X131195425Y-37951552D01*
X131220907Y-37924364D01*
X131258667Y-37919000D01*
X131312843Y-37932378D01*
G37*
X130652709Y-37936663D02*
X130666000Y-37958577D01*
X130680452Y-38023452D01*
X130713251Y-38117327D01*
X130760502Y-38236500D01*
X130812061Y-38088333D01*
X130880683Y-37966384D01*
X130955310Y-37926639D01*
X131002422Y-37925155D01*
X131029889Y-37949442D01*
X131043042Y-38016625D01*
X131047214Y-38143828D01*
X131047578Y-38222972D01*
X131051289Y-38390256D01*
X131060485Y-38534831D01*
X131073205Y-38626249D01*
X131073682Y-38628083D01*
X131077205Y-38703923D01*
X131035300Y-38723333D01*
X130975973Y-38700180D01*
X130939013Y-38622941D01*
X130920498Y-38479949D01*
X130916779Y-38370621D01*
X130913559Y-38151833D01*
X130860086Y-38300000D01*
X130811634Y-38396567D01*
X130760083Y-38446341D01*
X130750667Y-38448167D01*
X130701204Y-38412146D01*
X130650307Y-38323192D01*
X130641247Y-38300000D01*
X130612972Y-38225501D01*
X130596715Y-38204778D01*
X130588788Y-38246782D01*
X130585503Y-38360461D01*
X130584554Y-38437583D01*
X130578663Y-38595742D01*
X130563040Y-38684921D01*
X130534076Y-38720587D01*
X130517833Y-38723333D01*
X130477396Y-38700100D01*
X130457986Y-38620020D01*
X130454333Y-38517575D01*
X130463456Y-38251527D01*
X130490464Y-38061579D01*
X130534819Y-37950161D01*
X130587087Y-37919000D01*
X130652709Y-37936663D01*
G36*
X130652709Y-37936663D02*
G01*
X130666000Y-37958577D01*
X130680452Y-38023452D01*
X130713251Y-38117327D01*
X130760502Y-38236500D01*
X130812061Y-38088333D01*
X130880683Y-37966384D01*
X130955310Y-37926639D01*
X131002422Y-37925155D01*
X131029889Y-37949442D01*
X131043042Y-38016625D01*
X131047214Y-38143828D01*
X131047578Y-38222972D01*
X131051289Y-38390256D01*
X131060485Y-38534831D01*
X131073205Y-38626249D01*
X131073682Y-38628083D01*
X131077205Y-38703923D01*
X131035300Y-38723333D01*
X130975973Y-38700180D01*
X130939013Y-38622941D01*
X130920498Y-38479949D01*
X130916779Y-38370621D01*
X130913559Y-38151833D01*
X130860086Y-38300000D01*
X130811634Y-38396567D01*
X130760083Y-38446341D01*
X130750667Y-38448167D01*
X130701204Y-38412146D01*
X130650307Y-38323192D01*
X130641247Y-38300000D01*
X130612972Y-38225501D01*
X130596715Y-38204778D01*
X130588788Y-38246782D01*
X130585503Y-38360461D01*
X130584554Y-38437583D01*
X130578663Y-38595742D01*
X130563040Y-38684921D01*
X130534076Y-38720587D01*
X130517833Y-38723333D01*
X130477396Y-38700100D01*
X130457986Y-38620020D01*
X130454333Y-38517575D01*
X130463456Y-38251527D01*
X130490464Y-38061579D01*
X130534819Y-37950161D01*
X130587087Y-37919000D01*
X130652709Y-37936663D01*
G37*
X129142347Y-38290961D02*
X129517047Y-38290961D01*
X129547087Y-38583154D01*
X129652819Y-38864370D01*
X129834245Y-39122389D01*
X129880863Y-39171385D01*
X130036168Y-39306892D01*
X130195783Y-39413724D01*
X130286150Y-39456683D01*
X130488716Y-39503053D01*
X130728279Y-39516370D01*
X130971856Y-39498142D01*
X131186467Y-39449876D01*
X131279833Y-39411267D01*
X131470770Y-39279290D01*
X141249333Y-39279290D01*
X141365750Y-39265895D01*
X141429606Y-39253382D01*
X141465828Y-39220749D01*
X141483965Y-39147443D01*
X141493565Y-39012910D01*
X141494762Y-38988218D01*
X141501838Y-38885331D01*
X141801013Y-38885331D01*
X141828874Y-39052746D01*
X141917204Y-39172433D01*
X141990167Y-39222536D01*
X142100148Y-39257125D01*
X142248207Y-39271948D01*
X142389499Y-39264335D01*
X142447693Y-39249766D01*
X142491233Y-39194319D01*
X142489059Y-39145877D01*
X142453346Y-39089976D01*
X142373314Y-39085303D01*
X142350743Y-39089368D01*
X142239228Y-39090072D01*
X142133372Y-39058596D01*
X142064485Y-39006905D01*
X142053667Y-38975844D01*
X142092120Y-38954303D01*
X142192071Y-38939503D01*
X142307667Y-38935000D01*
X142459105Y-38930242D01*
X142538616Y-38905874D01*
X142558823Y-38846756D01*
X142532345Y-38737745D01*
X142514880Y-38686423D01*
X142442348Y-38557359D01*
X142327137Y-38488424D01*
X142166046Y-38469333D01*
X142015856Y-38508058D01*
X141894308Y-38611460D01*
X141818214Y-38760378D01*
X141801013Y-38885331D01*
X141501838Y-38885331D01*
X141504828Y-38841857D01*
X141523123Y-38758685D01*
X141558257Y-38717225D01*
X141611179Y-38697879D01*
X141695025Y-38648776D01*
X141715000Y-38570577D01*
X141685187Y-38490897D01*
X141613297Y-38467649D01*
X141525655Y-38507369D01*
X141511800Y-38520133D01*
X141469852Y-38549585D01*
X141461000Y-38520133D01*
X141424829Y-38481970D01*
X141355167Y-38469333D01*
X141306275Y-38472096D01*
X141275378Y-38490920D01*
X141258348Y-38541610D01*
X141251053Y-38639970D01*
X141249364Y-38801803D01*
X141249333Y-38874312D01*
X141249333Y-39279290D01*
X131470770Y-39279290D01*
X131542771Y-39229522D01*
X131581110Y-39184476D01*
X132280899Y-39184476D01*
X132311891Y-39238648D01*
X132405214Y-39264750D01*
X132564183Y-39273014D01*
X132698000Y-39273667D01*
X133240905Y-39273667D01*
X133345161Y-39273667D01*
X133424249Y-39255115D01*
X133465780Y-39183856D01*
X133475875Y-39141375D01*
X133491085Y-39025332D01*
X133502332Y-38866049D01*
X133506151Y-38749792D01*
X133509139Y-38612241D01*
X133515008Y-38551384D01*
X133527007Y-38559247D01*
X133548383Y-38627859D01*
X133551416Y-38638667D01*
X133616179Y-38869157D01*
X133663618Y-39030485D01*
X133699355Y-39134987D01*
X133729014Y-39194998D01*
X133758218Y-39222855D01*
X133792589Y-39230893D01*
X133821568Y-39231333D01*
X133871293Y-39223429D01*
X133911935Y-39189862D01*
X133952054Y-39115848D01*
X134000210Y-38986602D01*
X134048278Y-38839750D01*
X134173428Y-38448167D01*
X134176547Y-38860917D01*
X134179667Y-39273667D01*
X134446345Y-39273667D01*
X134418839Y-38886163D01*
X134406290Y-38691330D01*
X134396744Y-38508742D01*
X134391732Y-38369077D01*
X134391333Y-38335830D01*
X134386907Y-38231345D01*
X134357279Y-38185107D01*
X134277921Y-38173362D01*
X134223218Y-38173000D01*
X134645333Y-38173000D01*
X134645333Y-39273667D01*
X134751167Y-39273667D01*
X135957667Y-39273667D01*
X136084667Y-39273667D01*
X136762000Y-39273667D01*
X137016000Y-39273667D01*
X137016000Y-38843278D01*
X137185333Y-38843278D01*
X137188336Y-39013633D01*
X137196361Y-39150323D01*
X137207933Y-39232316D01*
X137213555Y-39245444D01*
X137274130Y-39267719D01*
X137340555Y-39273667D01*
X137820333Y-39273667D01*
X137945399Y-39273667D01*
X138011736Y-39270494D01*
X138050101Y-39248450D01*
X138069540Y-39188747D01*
X138079099Y-39072596D01*
X138082982Y-38987917D01*
X138092416Y-38835130D01*
X138108028Y-38748751D01*
X138136030Y-38710520D01*
X138180167Y-38702167D01*
X138225842Y-38711416D01*
X138253184Y-38751338D01*
X138268404Y-38840191D01*
X138277351Y-38987917D01*
X138285412Y-39139171D01*
X138298859Y-39224622D01*
X138326612Y-39263059D01*
X138377591Y-39273272D01*
X138413000Y-39273667D01*
X138478322Y-39270335D01*
X138516130Y-39247815D01*
X138535343Y-39187316D01*
X138544881Y-39070050D01*
X138548649Y-38987917D01*
X138557952Y-38835019D01*
X138573725Y-38747272D01*
X138602997Y-38705160D01*
X138652793Y-38689170D01*
X138656417Y-38688639D01*
X138705985Y-38686673D01*
X138734481Y-38710023D01*
X138747714Y-38776123D01*
X138751497Y-38902408D01*
X138751667Y-38974389D01*
X138751667Y-39273667D01*
X139005667Y-39273667D01*
X139005667Y-38965586D01*
X138994064Y-38743760D01*
X138955691Y-38593988D01*
X138893539Y-38516768D01*
X139100797Y-38516768D01*
X139105026Y-38531227D01*
X139126816Y-38599226D01*
X139163695Y-38725129D01*
X139208724Y-38885086D01*
X139222030Y-38933393D01*
X139269456Y-39100024D01*
X139306246Y-39200980D01*
X139342651Y-39252637D01*
X139388921Y-39271371D01*
X139435032Y-39273667D01*
X139511234Y-39264168D01*
X139557320Y-39221049D01*
X139592551Y-39122371D01*
X139602930Y-39082447D01*
X139642286Y-38956739D01*
X139681078Y-38880167D01*
X139711353Y-38862881D01*
X139725160Y-38915033D01*
X139725333Y-38926184D01*
X139739082Y-39022480D01*
X139772191Y-39141444D01*
X139772621Y-39142683D01*
X139818177Y-39236498D01*
X139880305Y-39267291D01*
X139927716Y-39265417D01*
X139990209Y-39246585D01*
X140038853Y-39195562D01*
X140086321Y-39094084D01*
X140106469Y-39037123D01*
X140318000Y-39037123D01*
X140340560Y-39105694D01*
X140383900Y-39179580D01*
X140475203Y-39247965D01*
X140600642Y-39275222D01*
X140721412Y-39257061D01*
X140775200Y-39222867D01*
X140817147Y-39193414D01*
X140826000Y-39222867D01*
X140862171Y-39261030D01*
X140931833Y-39273667D01*
X140985664Y-39269710D01*
X141017219Y-39245950D01*
X141032442Y-39184552D01*
X141037277Y-39067683D01*
X141037667Y-38956167D01*
X141035726Y-38874312D01*
X141033517Y-38781229D01*
X141017873Y-38667930D01*
X140985943Y-38593504D01*
X140953000Y-38554000D01*
X140860836Y-38498316D01*
X140739770Y-38470573D01*
X140612024Y-38468818D01*
X140499823Y-38491099D01*
X140425390Y-38535462D01*
X140410948Y-38599955D01*
X140411471Y-38601579D01*
X140468407Y-38642062D01*
X140581689Y-38645934D01*
X140699563Y-38648796D01*
X140755296Y-38674348D01*
X140742208Y-38710115D01*
X140653615Y-38743621D01*
X140635933Y-38747212D01*
X140513111Y-38796341D01*
X140402776Y-38882578D01*
X140331286Y-38981888D01*
X140318000Y-39037123D01*
X140106469Y-39037123D01*
X140127619Y-38977333D01*
X140196823Y-38768062D01*
X140239441Y-38625951D01*
X140256174Y-38538013D01*
X140247720Y-38491256D01*
X140214781Y-38472693D01*
X140158054Y-38469335D01*
X140154981Y-38469333D01*
X140087437Y-38474911D01*
X140044694Y-38504311D01*
X140014035Y-38576527D01*
X139982746Y-38710559D01*
X139977886Y-38733917D01*
X139923090Y-38998500D01*
X139859184Y-38733917D01*
X139820232Y-38588586D01*
X139784762Y-38508320D01*
X139741545Y-38474806D01*
X139696983Y-38469333D01*
X139639640Y-38480512D01*
X139597068Y-38526089D01*
X139557469Y-38624129D01*
X139525812Y-38731457D01*
X139452934Y-38993582D01*
X139419982Y-38826707D01*
X139385067Y-38654535D01*
X139357299Y-38549043D01*
X139327174Y-38493900D01*
X139285188Y-38472774D01*
X139221834Y-38469333D01*
X139211997Y-38469333D01*
X139121632Y-38479934D01*
X139100797Y-38516768D01*
X138893539Y-38516768D01*
X138885203Y-38506412D01*
X138777255Y-38471173D01*
X138736566Y-38469333D01*
X138625115Y-38484137D01*
X138548829Y-38519774D01*
X138548467Y-38520133D01*
X138490860Y-38549136D01*
X138446867Y-38520133D01*
X138359645Y-38480421D01*
X138237791Y-38471640D01*
X138125485Y-38493790D01*
X138082800Y-38520133D01*
X138040852Y-38549585D01*
X138032000Y-38520133D01*
X137995829Y-38481970D01*
X137926167Y-38469333D01*
X137877138Y-38472126D01*
X137846216Y-38491077D01*
X137829228Y-38542046D01*
X137822001Y-38640892D01*
X137820360Y-38803473D01*
X137820333Y-38871500D01*
X137820333Y-39273667D01*
X137340555Y-39273667D01*
X137397505Y-39266469D01*
X137426997Y-39231059D01*
X137437940Y-39146714D01*
X137439333Y-39043857D01*
X137457698Y-38871500D01*
X137459615Y-38853509D01*
X137518940Y-38731434D01*
X137615025Y-38681907D01*
X137632857Y-38681000D01*
X137680660Y-38644136D01*
X137693333Y-38575167D01*
X137664246Y-38491848D01*
X137592403Y-38467576D01*
X137500936Y-38508220D01*
X137484842Y-38522250D01*
X137434603Y-38553937D01*
X137409347Y-38522250D01*
X137356899Y-38481395D01*
X137287639Y-38469333D01*
X137238840Y-38472863D01*
X137208708Y-38494413D01*
X137192744Y-38550420D01*
X137186452Y-38657322D01*
X137185334Y-38831559D01*
X137185333Y-38843278D01*
X137016000Y-38843278D01*
X137016000Y-38469333D01*
X136762000Y-38469333D01*
X136762000Y-39273667D01*
X136084667Y-39273667D01*
X136160164Y-39268949D01*
X136197608Y-39240156D01*
X136210329Y-39165321D01*
X136211667Y-39064434D01*
X136211667Y-38855201D01*
X136391583Y-38842184D01*
X136509043Y-38825993D01*
X136565966Y-38791014D01*
X136585027Y-38733917D01*
X136585125Y-38675557D01*
X136549724Y-38647587D01*
X136458172Y-38639074D01*
X136405111Y-38638667D01*
X136286811Y-38635132D01*
X136230343Y-38614545D01*
X136212895Y-38561930D01*
X136211667Y-38511667D01*
X136214660Y-38469333D01*
X136217189Y-38433572D01*
X136249074Y-38396584D01*
X136330298Y-38385384D01*
X136402167Y-38384667D01*
X136519720Y-38380280D01*
X136575416Y-38358718D01*
X136591939Y-38307379D01*
X136592229Y-38296003D01*
X136769026Y-38296003D01*
X136819741Y-38364356D01*
X136899394Y-38377052D01*
X136975057Y-38340507D01*
X136994833Y-38257667D01*
X136971566Y-38170459D01*
X136899394Y-38138281D01*
X136810096Y-38153657D01*
X136778448Y-38191197D01*
X136769026Y-38296003D01*
X136592229Y-38296003D01*
X136592667Y-38278833D01*
X136588710Y-38225002D01*
X136564950Y-38193447D01*
X136503552Y-38178225D01*
X136386683Y-38173389D01*
X136275167Y-38173000D01*
X135957667Y-38173000D01*
X135957667Y-39273667D01*
X134751167Y-39273667D01*
X134820579Y-39263795D01*
X134850554Y-39218022D01*
X134857000Y-39112424D01*
X134870768Y-38986126D01*
X134904533Y-38887259D01*
X134910759Y-38877662D01*
X134944606Y-38844620D01*
X134979734Y-38855656D01*
X135029344Y-38921733D01*
X135092164Y-39028321D01*
X135173011Y-39158225D01*
X135240871Y-39229267D01*
X135316580Y-39260203D01*
X135355905Y-39265765D01*
X135448656Y-39267512D01*
X135491637Y-39253942D01*
X135492000Y-39252000D01*
X135471787Y-39205357D01*
X135418118Y-39105545D01*
X135341444Y-38971785D01*
X135318385Y-38932732D01*
X135144770Y-38640495D01*
X135283899Y-38459664D01*
X135370097Y-38347387D01*
X135438626Y-38257697D01*
X135462697Y-38225917D01*
X135468972Y-38190080D01*
X135408537Y-38174686D01*
X135349449Y-38173000D01*
X135262813Y-38179733D01*
X135196274Y-38210663D01*
X135128924Y-38281888D01*
X135039853Y-38409507D01*
X135037349Y-38413284D01*
X134878167Y-38653569D01*
X134865471Y-38413284D01*
X134855309Y-38277044D01*
X134836773Y-38205141D01*
X134800021Y-38177262D01*
X134749054Y-38173000D01*
X134645333Y-38173000D01*
X134223218Y-38173000D01*
X134055103Y-38173000D01*
X133963335Y-38479917D01*
X133916343Y-38632778D01*
X133876635Y-38754217D01*
X133851844Y-38821024D01*
X133849899Y-38824871D01*
X133829650Y-38807105D01*
X133796864Y-38724472D01*
X133758419Y-38594513D01*
X133756115Y-38585719D01*
X133706565Y-38398986D01*
X133668576Y-38279281D01*
X133632359Y-38211701D01*
X133588124Y-38181344D01*
X133526081Y-38173306D01*
X133484994Y-38173000D01*
X133381592Y-38181254D01*
X133322254Y-38201456D01*
X133319549Y-38204750D01*
X133310126Y-38257073D01*
X133297950Y-38376446D01*
X133284565Y-38545362D01*
X133271515Y-38746313D01*
X133271004Y-38755083D01*
X133240905Y-39273667D01*
X132698000Y-39273667D01*
X132890115Y-39272980D01*
X133013021Y-39268395D01*
X133082175Y-39256119D01*
X133113034Y-39232363D01*
X133121056Y-39193336D01*
X133121333Y-39169853D01*
X133115059Y-39112150D01*
X133083099Y-39079462D01*
X133005744Y-39062848D01*
X132864781Y-39053437D01*
X132608229Y-39040833D01*
X132864781Y-38673463D01*
X132971034Y-38515303D01*
X133055826Y-38377646D01*
X133108768Y-38278067D01*
X133121333Y-38239546D01*
X133108848Y-38208052D01*
X133061614Y-38188130D01*
X132964957Y-38177351D01*
X132804208Y-38173288D01*
X132719167Y-38173000D01*
X132532857Y-38173735D01*
X132415355Y-38178722D01*
X132350801Y-38192135D01*
X132323337Y-38218147D01*
X132317102Y-38260931D01*
X132317000Y-38278833D01*
X132323040Y-38339435D01*
X132354970Y-38370997D01*
X132433504Y-38382929D01*
X132549943Y-38384667D01*
X132782885Y-38384667D01*
X132528776Y-38751235D01*
X132392656Y-38951001D01*
X132308926Y-39092004D01*
X132280899Y-39184476D01*
X131581110Y-39184476D01*
X131742605Y-38994732D01*
X131874052Y-38715701D01*
X131931825Y-38401235D01*
X131934140Y-38321167D01*
X131896071Y-37999783D01*
X131786819Y-37716241D01*
X131703287Y-37601500D01*
X132380500Y-37601500D01*
X132382065Y-37749313D01*
X132392168Y-37831629D01*
X132418918Y-37867617D01*
X132470425Y-37876445D01*
X132496917Y-37876667D01*
X132581402Y-37863384D01*
X132613333Y-37834333D01*
X137016000Y-37834333D01*
X137053293Y-37861979D01*
X137145336Y-37876168D01*
X137168696Y-37876667D01*
X137268601Y-37869570D01*
X137301652Y-37842081D01*
X137295010Y-37807918D01*
X137299102Y-37732374D01*
X137339776Y-37618058D01*
X137371895Y-37554406D01*
X137430911Y-37423220D01*
X137431972Y-37347409D01*
X137375723Y-37330123D01*
X137328789Y-37343450D01*
X137285395Y-37383708D01*
X137288621Y-37406881D01*
X137295556Y-37475422D01*
X137284496Y-37518952D01*
X137258223Y-37569298D01*
X137225915Y-37549432D01*
X137202599Y-37518658D01*
X137168381Y-37433579D01*
X137171603Y-37385718D01*
X137160349Y-37336959D01*
X137105196Y-37326333D01*
X137043864Y-37330357D01*
X137022596Y-37354472D01*
X137041144Y-37416747D01*
X137099264Y-37535248D01*
X137102268Y-37541138D01*
X137157882Y-37679313D01*
X137153484Y-37761455D01*
X137088661Y-37791669D01*
X137077001Y-37792000D01*
X137022288Y-37815669D01*
X137016000Y-37834333D01*
X132613333Y-37834333D01*
X132581119Y-37793230D01*
X132571000Y-37792000D01*
X132533224Y-37757806D01*
X132528667Y-37729828D01*
X132557326Y-37686861D01*
X132588859Y-37690755D01*
X132686922Y-37689339D01*
X132776617Y-37631521D01*
X132823695Y-37541516D01*
X132825000Y-37523810D01*
X132819371Y-37500716D01*
X132920368Y-37500716D01*
X132929706Y-37607181D01*
X132952456Y-37644383D01*
X133041141Y-37695051D01*
X133159141Y-37703327D01*
X133263108Y-37668982D01*
X133288733Y-37646163D01*
X133325835Y-37544605D01*
X133306305Y-37431975D01*
X133256003Y-37370477D01*
X133398905Y-37370477D01*
X133409774Y-37425352D01*
X133448095Y-37501687D01*
X133476136Y-37590917D01*
X133508740Y-37684705D01*
X133550041Y-37697717D01*
X133612345Y-37633766D01*
X133612737Y-37633250D01*
X133655951Y-37582331D01*
X133669045Y-37600114D01*
X133670320Y-37633250D01*
X133692924Y-37697796D01*
X133740988Y-37701124D01*
X133790215Y-37650516D01*
X133811577Y-37590917D01*
X133837071Y-37486525D01*
X133935683Y-37486525D01*
X133948406Y-37582292D01*
X134012572Y-37662895D01*
X134123516Y-37705365D01*
X134157491Y-37707333D01*
X134262409Y-37696004D01*
X134325278Y-37668389D01*
X134327833Y-37665000D01*
X134476000Y-37665000D01*
X134513556Y-37691509D01*
X134607376Y-37706254D01*
X134645333Y-37707333D01*
X134751370Y-37697944D01*
X134810349Y-37674489D01*
X134814667Y-37665000D01*
X134779210Y-37630605D01*
X134730000Y-37622667D01*
X134661335Y-37598365D01*
X134645333Y-37564350D01*
X134666649Y-37511267D01*
X134952895Y-37511267D01*
X134953372Y-37573235D01*
X135009460Y-37642078D01*
X135010432Y-37643051D01*
X135118582Y-37694680D01*
X135229404Y-37698991D01*
X135334033Y-37679276D01*
X135378673Y-37633354D01*
X135386443Y-37590300D01*
X135373960Y-37516833D01*
X135492000Y-37516833D01*
X135514925Y-37613981D01*
X135542800Y-37656533D01*
X135608539Y-37686443D01*
X135712970Y-37703038D01*
X135826009Y-37705702D01*
X135917568Y-37693823D01*
X135957560Y-37666786D01*
X135957667Y-37665000D01*
X136465667Y-37665000D01*
X136502565Y-37689549D01*
X136592723Y-37703287D01*
X136705332Y-37705460D01*
X136809582Y-37695311D01*
X136870921Y-37674935D01*
X136934455Y-37590099D01*
X136936068Y-37487328D01*
X136885861Y-37393201D01*
X136793934Y-37334295D01*
X136738433Y-37326333D01*
X136656278Y-37304680D01*
X136635000Y-37265332D01*
X136604985Y-37190118D01*
X136537099Y-37168065D01*
X136504311Y-37180446D01*
X136481184Y-37222712D01*
X136504311Y-37254911D01*
X136533573Y-37320053D01*
X136547856Y-37420949D01*
X136546841Y-37525738D01*
X136530208Y-37602557D01*
X136508000Y-37622667D01*
X136466897Y-37654881D01*
X136465667Y-37665000D01*
X135957667Y-37665000D01*
X135925452Y-37623897D01*
X135915333Y-37622667D01*
X135892300Y-37584360D01*
X135876925Y-37485410D01*
X135873000Y-37386305D01*
X135867008Y-37244178D01*
X135847435Y-37176108D01*
X135820083Y-37168447D01*
X135780515Y-37219337D01*
X135779606Y-37256642D01*
X135761224Y-37312580D01*
X135692822Y-37326333D01*
X135569341Y-37359540D01*
X135501338Y-37451343D01*
X135492000Y-37516833D01*
X135373960Y-37516833D01*
X135364537Y-37461378D01*
X135292716Y-37371760D01*
X135192888Y-37331270D01*
X135086961Y-37349730D01*
X135007567Y-37420419D01*
X134952895Y-37511267D01*
X134666649Y-37511267D01*
X134674544Y-37491609D01*
X134738744Y-37432976D01*
X134799627Y-37420098D01*
X134849346Y-37401534D01*
X134857000Y-37389833D01*
X134832497Y-37362456D01*
X134740945Y-37343184D01*
X134677083Y-37338233D01*
X134560008Y-37340558D01*
X134487513Y-37356865D01*
X134476000Y-37369983D01*
X134508254Y-37409817D01*
X134518333Y-37411000D01*
X134550156Y-37447228D01*
X134560667Y-37516833D01*
X134546175Y-37596391D01*
X134518333Y-37622667D01*
X134477230Y-37654881D01*
X134476000Y-37665000D01*
X134327833Y-37665000D01*
X134309011Y-37635381D01*
X134222122Y-37617455D01*
X134192748Y-37615550D01*
X134031500Y-37608434D01*
X134192839Y-37591674D01*
X134298402Y-37573152D01*
X134340008Y-37537825D01*
X134341006Y-37486697D01*
X134289288Y-37382075D01*
X134262955Y-37369983D01*
X134184858Y-37334123D01*
X134083207Y-37341364D01*
X133979062Y-37398560D01*
X133935683Y-37486525D01*
X133837071Y-37486525D01*
X133839779Y-37475440D01*
X133863731Y-37400417D01*
X133867055Y-37342639D01*
X133803356Y-37326344D01*
X133800343Y-37326333D01*
X133735026Y-37340061D01*
X133731450Y-37397216D01*
X133738420Y-37421251D01*
X133754173Y-37486245D01*
X133728237Y-37481508D01*
X133695713Y-37455723D01*
X133633503Y-37416930D01*
X133591157Y-37440888D01*
X133579780Y-37456055D01*
X133550623Y-37489769D01*
X133558540Y-37449251D01*
X133561126Y-37441147D01*
X133554826Y-37365864D01*
X133524813Y-37342146D01*
X133445544Y-37335757D01*
X133398905Y-37370477D01*
X133256003Y-37370477D01*
X133244302Y-37356173D01*
X133153988Y-37333904D01*
X133065030Y-37341911D01*
X132969519Y-37401431D01*
X132920368Y-37500716D01*
X132819371Y-37500716D01*
X132797420Y-37410661D01*
X132709579Y-37346680D01*
X132553828Y-37326335D01*
X132551950Y-37326333D01*
X132380500Y-37326333D01*
X132380500Y-37601500D01*
X131703287Y-37601500D01*
X131613819Y-37478605D01*
X131423705Y-37326333D01*
X131384505Y-37294936D01*
X131106310Y-37173295D01*
X130830413Y-37124207D01*
X130522025Y-37131119D01*
X130256381Y-37204176D01*
X130016392Y-37349614D01*
X129881068Y-37470743D01*
X129684039Y-37722534D01*
X129562698Y-38000014D01*
X129517047Y-38290961D01*
X129142347Y-38290961D01*
X129142677Y-37977931D01*
X129144224Y-37708760D01*
X129147652Y-37503054D01*
X129153658Y-37350211D01*
X129162939Y-37239632D01*
X129176190Y-37160715D01*
X129194107Y-37102860D01*
X129217387Y-37055467D01*
X129226438Y-37040196D01*
X129323919Y-36920512D01*
X129443857Y-36821002D01*
X129448530Y-36818104D01*
X129468315Y-36806811D01*
X129491536Y-36796576D01*
X129522249Y-36787347D01*
X129564513Y-36779074D01*
X129622386Y-36771702D01*
X129699923Y-36765181D01*
X129801184Y-36759459D01*
X129930225Y-36754482D01*
X130091105Y-36750200D01*
X130287879Y-36746559D01*
X130524607Y-36743508D01*
X130805345Y-36740996D01*
X131134151Y-36738968D01*
X131515083Y-36737375D01*
X131952198Y-36736163D01*
X132449553Y-36735280D01*
X133011206Y-36734674D01*
X133641214Y-36734294D01*
X134343636Y-36734087D01*
X135122527Y-36734000D01*
X135981947Y-36733983D01*
X136000000Y-36733983D01*
X136861073Y-36734000D01*
X137641537Y-36734084D01*
X138345449Y-36734288D01*
X138976867Y-36734665D01*
X139539849Y-36735265D01*
X140038451Y-36736142D01*
X140476732Y-36737347D01*
X140858748Y-36738932D01*
X141188558Y-36740950D01*
X141470218Y-36743453D01*
X141707787Y-36746492D01*
X141905322Y-36750121D01*
X142066880Y-36754390D01*
X142196518Y-36759352D01*
X142298296Y-36765059D01*
X142376268Y-36771564D01*
X142434494Y-36778917D01*
X142477031Y-36787173D01*
X142507936Y-36796381D01*
X142531267Y-36806596D01*
X142551081Y-36817868D01*
X142551470Y-36818104D01*
X142671155Y-36915586D01*
X142770665Y-37035524D01*
X142773562Y-37040196D01*
X142798779Y-37086459D01*
X142818403Y-37139658D01*
X142833128Y-37210393D01*
X142843652Y-37309265D01*
X142850670Y-37446874D01*
X142854879Y-37633822D01*
X142856974Y-37880708D01*
X142857652Y-38198133D01*
X142857683Y-38321167D01*
X142857323Y-38664402D01*
X142855776Y-38933573D01*
X142852348Y-39139279D01*
X142846341Y-39292122D01*
X142837061Y-39402701D01*
X142823810Y-39481618D01*
X142805893Y-39539473D01*
X142782613Y-39586866D01*
X142773562Y-39602137D01*
X142676081Y-39721821D01*
X142556143Y-39821331D01*
X142551470Y-39824229D01*
X142531685Y-39835522D01*
X142508464Y-39845757D01*
X142477750Y-39854986D01*
X142435486Y-39863259D01*
X142377614Y-39870631D01*
X142300076Y-39877152D01*
X142198815Y-39882874D01*
X142069774Y-39887851D01*
X141908895Y-39892133D01*
X141712120Y-39895774D01*
X141475393Y-39898825D01*
X141194654Y-39901337D01*
X140865848Y-39903365D01*
X140484917Y-39904958D01*
X140047802Y-39906170D01*
X139550447Y-39907053D01*
X138988794Y-39907659D01*
X138358786Y-39908039D01*
X137656364Y-39908246D01*
X136877472Y-39908333D01*
X136018052Y-39908350D01*
X136000000Y-39908350D01*
X135138927Y-39908333D01*
X134358463Y-39908249D01*
X133654550Y-39908045D01*
X133023132Y-39907668D01*
X132460151Y-39907068D01*
X131961549Y-39906191D01*
X131523268Y-39904986D01*
X131141252Y-39903401D01*
X130811442Y-39901383D01*
X130529781Y-39898880D01*
X130292212Y-39895841D01*
X130094678Y-39892212D01*
X129933120Y-39887943D01*
X129803481Y-39882981D01*
X129701704Y-39877274D01*
X129623731Y-39870769D01*
X129565505Y-39863416D01*
X129522968Y-39855160D01*
X129492063Y-39845952D01*
X129468732Y-39835737D01*
X129448918Y-39824465D01*
X129448530Y-39824229D01*
X129328845Y-39726747D01*
X129229335Y-39606809D01*
X129226438Y-39602137D01*
X129201220Y-39555874D01*
X129181597Y-39502675D01*
X129166871Y-39431940D01*
X129156347Y-39333068D01*
X129149329Y-39195459D01*
X129145121Y-39008511D01*
X129143026Y-38761625D01*
X129142348Y-38444200D01*
X129142316Y-38321167D01*
X129142347Y-38290961D01*
G36*
X129142347Y-38290961D02*
G01*
X129517047Y-38290961D01*
X129547087Y-38583154D01*
X129652819Y-38864370D01*
X129834245Y-39122389D01*
X129880863Y-39171385D01*
X130036168Y-39306892D01*
X130195783Y-39413724D01*
X130286150Y-39456683D01*
X130488716Y-39503053D01*
X130728279Y-39516370D01*
X130971856Y-39498142D01*
X131186467Y-39449876D01*
X131279833Y-39411267D01*
X131470770Y-39279290D01*
X141249333Y-39279290D01*
X141365750Y-39265895D01*
X141429606Y-39253382D01*
X141465828Y-39220749D01*
X141483965Y-39147443D01*
X141493565Y-39012910D01*
X141494762Y-38988218D01*
X141501838Y-38885331D01*
X141801013Y-38885331D01*
X141828874Y-39052746D01*
X141917204Y-39172433D01*
X141990167Y-39222536D01*
X142100148Y-39257125D01*
X142248207Y-39271948D01*
X142389499Y-39264335D01*
X142447693Y-39249766D01*
X142491233Y-39194319D01*
X142489059Y-39145877D01*
X142453346Y-39089976D01*
X142373314Y-39085303D01*
X142350743Y-39089368D01*
X142239228Y-39090072D01*
X142133372Y-39058596D01*
X142064485Y-39006905D01*
X142053667Y-38975844D01*
X142092120Y-38954303D01*
X142192071Y-38939503D01*
X142307667Y-38935000D01*
X142459105Y-38930242D01*
X142538616Y-38905874D01*
X142558823Y-38846756D01*
X142532345Y-38737745D01*
X142514880Y-38686423D01*
X142442348Y-38557359D01*
X142327137Y-38488424D01*
X142166046Y-38469333D01*
X142015856Y-38508058D01*
X141894308Y-38611460D01*
X141818214Y-38760378D01*
X141801013Y-38885331D01*
X141501838Y-38885331D01*
X141504828Y-38841857D01*
X141523123Y-38758685D01*
X141558257Y-38717225D01*
X141611179Y-38697879D01*
X141695025Y-38648776D01*
X141715000Y-38570577D01*
X141685187Y-38490897D01*
X141613297Y-38467649D01*
X141525655Y-38507369D01*
X141511800Y-38520133D01*
X141469852Y-38549585D01*
X141461000Y-38520133D01*
X141424829Y-38481970D01*
X141355167Y-38469333D01*
X141306275Y-38472096D01*
X141275378Y-38490920D01*
X141258348Y-38541610D01*
X141251053Y-38639970D01*
X141249364Y-38801803D01*
X141249333Y-38874312D01*
X141249333Y-39279290D01*
X131470770Y-39279290D01*
X131542771Y-39229522D01*
X131581110Y-39184476D01*
X132280899Y-39184476D01*
X132311891Y-39238648D01*
X132405214Y-39264750D01*
X132564183Y-39273014D01*
X132698000Y-39273667D01*
X133240905Y-39273667D01*
X133345161Y-39273667D01*
X133424249Y-39255115D01*
X133465780Y-39183856D01*
X133475875Y-39141375D01*
X133491085Y-39025332D01*
X133502332Y-38866049D01*
X133506151Y-38749792D01*
X133509139Y-38612241D01*
X133515008Y-38551384D01*
X133527007Y-38559247D01*
X133548383Y-38627859D01*
X133551416Y-38638667D01*
X133616179Y-38869157D01*
X133663618Y-39030485D01*
X133699355Y-39134987D01*
X133729014Y-39194998D01*
X133758218Y-39222855D01*
X133792589Y-39230893D01*
X133821568Y-39231333D01*
X133871293Y-39223429D01*
X133911935Y-39189862D01*
X133952054Y-39115848D01*
X134000210Y-38986602D01*
X134048278Y-38839750D01*
X134173428Y-38448167D01*
X134176547Y-38860917D01*
X134179667Y-39273667D01*
X134446345Y-39273667D01*
X134418839Y-38886163D01*
X134406290Y-38691330D01*
X134396744Y-38508742D01*
X134391732Y-38369077D01*
X134391333Y-38335830D01*
X134386907Y-38231345D01*
X134357279Y-38185107D01*
X134277921Y-38173362D01*
X134223218Y-38173000D01*
X134645333Y-38173000D01*
X134645333Y-39273667D01*
X134751167Y-39273667D01*
X135957667Y-39273667D01*
X136084667Y-39273667D01*
X136762000Y-39273667D01*
X137016000Y-39273667D01*
X137016000Y-38843278D01*
X137185333Y-38843278D01*
X137188336Y-39013633D01*
X137196361Y-39150323D01*
X137207933Y-39232316D01*
X137213555Y-39245444D01*
X137274130Y-39267719D01*
X137340555Y-39273667D01*
X137820333Y-39273667D01*
X137945399Y-39273667D01*
X138011736Y-39270494D01*
X138050101Y-39248450D01*
X138069540Y-39188747D01*
X138079099Y-39072596D01*
X138082982Y-38987917D01*
X138092416Y-38835130D01*
X138108028Y-38748751D01*
X138136030Y-38710520D01*
X138180167Y-38702167D01*
X138225842Y-38711416D01*
X138253184Y-38751338D01*
X138268404Y-38840191D01*
X138277351Y-38987917D01*
X138285412Y-39139171D01*
X138298859Y-39224622D01*
X138326612Y-39263059D01*
X138377591Y-39273272D01*
X138413000Y-39273667D01*
X138478322Y-39270335D01*
X138516130Y-39247815D01*
X138535343Y-39187316D01*
X138544881Y-39070050D01*
X138548649Y-38987917D01*
X138557952Y-38835019D01*
X138573725Y-38747272D01*
X138602997Y-38705160D01*
X138652793Y-38689170D01*
X138656417Y-38688639D01*
X138705985Y-38686673D01*
X138734481Y-38710023D01*
X138747714Y-38776123D01*
X138751497Y-38902408D01*
X138751667Y-38974389D01*
X138751667Y-39273667D01*
X139005667Y-39273667D01*
X139005667Y-38965586D01*
X138994064Y-38743760D01*
X138955691Y-38593988D01*
X138893539Y-38516768D01*
X139100797Y-38516768D01*
X139105026Y-38531227D01*
X139126816Y-38599226D01*
X139163695Y-38725129D01*
X139208724Y-38885086D01*
X139222030Y-38933393D01*
X139269456Y-39100024D01*
X139306246Y-39200980D01*
X139342651Y-39252637D01*
X139388921Y-39271371D01*
X139435032Y-39273667D01*
X139511234Y-39264168D01*
X139557320Y-39221049D01*
X139592551Y-39122371D01*
X139602930Y-39082447D01*
X139642286Y-38956739D01*
X139681078Y-38880167D01*
X139711353Y-38862881D01*
X139725160Y-38915033D01*
X139725333Y-38926184D01*
X139739082Y-39022480D01*
X139772191Y-39141444D01*
X139772621Y-39142683D01*
X139818177Y-39236498D01*
X139880305Y-39267291D01*
X139927716Y-39265417D01*
X139990209Y-39246585D01*
X140038853Y-39195562D01*
X140086321Y-39094084D01*
X140106469Y-39037123D01*
X140318000Y-39037123D01*
X140340560Y-39105694D01*
X140383900Y-39179580D01*
X140475203Y-39247965D01*
X140600642Y-39275222D01*
X140721412Y-39257061D01*
X140775200Y-39222867D01*
X140817147Y-39193414D01*
X140826000Y-39222867D01*
X140862171Y-39261030D01*
X140931833Y-39273667D01*
X140985664Y-39269710D01*
X141017219Y-39245950D01*
X141032442Y-39184552D01*
X141037277Y-39067683D01*
X141037667Y-38956167D01*
X141035726Y-38874312D01*
X141033517Y-38781229D01*
X141017873Y-38667930D01*
X140985943Y-38593504D01*
X140953000Y-38554000D01*
X140860836Y-38498316D01*
X140739770Y-38470573D01*
X140612024Y-38468818D01*
X140499823Y-38491099D01*
X140425390Y-38535462D01*
X140410948Y-38599955D01*
X140411471Y-38601579D01*
X140468407Y-38642062D01*
X140581689Y-38645934D01*
X140699563Y-38648796D01*
X140755296Y-38674348D01*
X140742208Y-38710115D01*
X140653615Y-38743621D01*
X140635933Y-38747212D01*
X140513111Y-38796341D01*
X140402776Y-38882578D01*
X140331286Y-38981888D01*
X140318000Y-39037123D01*
X140106469Y-39037123D01*
X140127619Y-38977333D01*
X140196823Y-38768062D01*
X140239441Y-38625951D01*
X140256174Y-38538013D01*
X140247720Y-38491256D01*
X140214781Y-38472693D01*
X140158054Y-38469335D01*
X140154981Y-38469333D01*
X140087437Y-38474911D01*
X140044694Y-38504311D01*
X140014035Y-38576527D01*
X139982746Y-38710559D01*
X139977886Y-38733917D01*
X139923090Y-38998500D01*
X139859184Y-38733917D01*
X139820232Y-38588586D01*
X139784762Y-38508320D01*
X139741545Y-38474806D01*
X139696983Y-38469333D01*
X139639640Y-38480512D01*
X139597068Y-38526089D01*
X139557469Y-38624129D01*
X139525812Y-38731457D01*
X139452934Y-38993582D01*
X139419982Y-38826707D01*
X139385067Y-38654535D01*
X139357299Y-38549043D01*
X139327174Y-38493900D01*
X139285188Y-38472774D01*
X139221834Y-38469333D01*
X139211997Y-38469333D01*
X139121632Y-38479934D01*
X139100797Y-38516768D01*
X138893539Y-38516768D01*
X138885203Y-38506412D01*
X138777255Y-38471173D01*
X138736566Y-38469333D01*
X138625115Y-38484137D01*
X138548829Y-38519774D01*
X138548467Y-38520133D01*
X138490860Y-38549136D01*
X138446867Y-38520133D01*
X138359645Y-38480421D01*
X138237791Y-38471640D01*
X138125485Y-38493790D01*
X138082800Y-38520133D01*
X138040852Y-38549585D01*
X138032000Y-38520133D01*
X137995829Y-38481970D01*
X137926167Y-38469333D01*
X137877138Y-38472126D01*
X137846216Y-38491077D01*
X137829228Y-38542046D01*
X137822001Y-38640892D01*
X137820360Y-38803473D01*
X137820333Y-38871500D01*
X137820333Y-39273667D01*
X137340555Y-39273667D01*
X137397505Y-39266469D01*
X137426997Y-39231059D01*
X137437940Y-39146714D01*
X137439333Y-39043857D01*
X137457698Y-38871500D01*
X137459615Y-38853509D01*
X137518940Y-38731434D01*
X137615025Y-38681907D01*
X137632857Y-38681000D01*
X137680660Y-38644136D01*
X137693333Y-38575167D01*
X137664246Y-38491848D01*
X137592403Y-38467576D01*
X137500936Y-38508220D01*
X137484842Y-38522250D01*
X137434603Y-38553937D01*
X137409347Y-38522250D01*
X137356899Y-38481395D01*
X137287639Y-38469333D01*
X137238840Y-38472863D01*
X137208708Y-38494413D01*
X137192744Y-38550420D01*
X137186452Y-38657322D01*
X137185334Y-38831559D01*
X137185333Y-38843278D01*
X137016000Y-38843278D01*
X137016000Y-38469333D01*
X136762000Y-38469333D01*
X136762000Y-39273667D01*
X136084667Y-39273667D01*
X136160164Y-39268949D01*
X136197608Y-39240156D01*
X136210329Y-39165321D01*
X136211667Y-39064434D01*
X136211667Y-38855201D01*
X136391583Y-38842184D01*
X136509043Y-38825993D01*
X136565966Y-38791014D01*
X136585027Y-38733917D01*
X136585125Y-38675557D01*
X136549724Y-38647587D01*
X136458172Y-38639074D01*
X136405111Y-38638667D01*
X136286811Y-38635132D01*
X136230343Y-38614545D01*
X136212895Y-38561930D01*
X136211667Y-38511667D01*
X136214660Y-38469333D01*
X136217189Y-38433572D01*
X136249074Y-38396584D01*
X136330298Y-38385384D01*
X136402167Y-38384667D01*
X136519720Y-38380280D01*
X136575416Y-38358718D01*
X136591939Y-38307379D01*
X136592229Y-38296003D01*
X136769026Y-38296003D01*
X136819741Y-38364356D01*
X136899394Y-38377052D01*
X136975057Y-38340507D01*
X136994833Y-38257667D01*
X136971566Y-38170459D01*
X136899394Y-38138281D01*
X136810096Y-38153657D01*
X136778448Y-38191197D01*
X136769026Y-38296003D01*
X136592229Y-38296003D01*
X136592667Y-38278833D01*
X136588710Y-38225002D01*
X136564950Y-38193447D01*
X136503552Y-38178225D01*
X136386683Y-38173389D01*
X136275167Y-38173000D01*
X135957667Y-38173000D01*
X135957667Y-39273667D01*
X134751167Y-39273667D01*
X134820579Y-39263795D01*
X134850554Y-39218022D01*
X134857000Y-39112424D01*
X134870768Y-38986126D01*
X134904533Y-38887259D01*
X134910759Y-38877662D01*
X134944606Y-38844620D01*
X134979734Y-38855656D01*
X135029344Y-38921733D01*
X135092164Y-39028321D01*
X135173011Y-39158225D01*
X135240871Y-39229267D01*
X135316580Y-39260203D01*
X135355905Y-39265765D01*
X135448656Y-39267512D01*
X135491637Y-39253942D01*
X135492000Y-39252000D01*
X135471787Y-39205357D01*
X135418118Y-39105545D01*
X135341444Y-38971785D01*
X135318385Y-38932732D01*
X135144770Y-38640495D01*
X135283899Y-38459664D01*
X135370097Y-38347387D01*
X135438626Y-38257697D01*
X135462697Y-38225917D01*
X135468972Y-38190080D01*
X135408537Y-38174686D01*
X135349449Y-38173000D01*
X135262813Y-38179733D01*
X135196274Y-38210663D01*
X135128924Y-38281888D01*
X135039853Y-38409507D01*
X135037349Y-38413284D01*
X134878167Y-38653569D01*
X134865471Y-38413284D01*
X134855309Y-38277044D01*
X134836773Y-38205141D01*
X134800021Y-38177262D01*
X134749054Y-38173000D01*
X134645333Y-38173000D01*
X134223218Y-38173000D01*
X134055103Y-38173000D01*
X133963335Y-38479917D01*
X133916343Y-38632778D01*
X133876635Y-38754217D01*
X133851844Y-38821024D01*
X133849899Y-38824871D01*
X133829650Y-38807105D01*
X133796864Y-38724472D01*
X133758419Y-38594513D01*
X133756115Y-38585719D01*
X133706565Y-38398986D01*
X133668576Y-38279281D01*
X133632359Y-38211701D01*
X133588124Y-38181344D01*
X133526081Y-38173306D01*
X133484994Y-38173000D01*
X133381592Y-38181254D01*
X133322254Y-38201456D01*
X133319549Y-38204750D01*
X133310126Y-38257073D01*
X133297950Y-38376446D01*
X133284565Y-38545362D01*
X133271515Y-38746313D01*
X133271004Y-38755083D01*
X133240905Y-39273667D01*
X132698000Y-39273667D01*
X132890115Y-39272980D01*
X133013021Y-39268395D01*
X133082175Y-39256119D01*
X133113034Y-39232363D01*
X133121056Y-39193336D01*
X133121333Y-39169853D01*
X133115059Y-39112150D01*
X133083099Y-39079462D01*
X133005744Y-39062848D01*
X132864781Y-39053437D01*
X132608229Y-39040833D01*
X132864781Y-38673463D01*
X132971034Y-38515303D01*
X133055826Y-38377646D01*
X133108768Y-38278067D01*
X133121333Y-38239546D01*
X133108848Y-38208052D01*
X133061614Y-38188130D01*
X132964957Y-38177351D01*
X132804208Y-38173288D01*
X132719167Y-38173000D01*
X132532857Y-38173735D01*
X132415355Y-38178722D01*
X132350801Y-38192135D01*
X132323337Y-38218147D01*
X132317102Y-38260931D01*
X132317000Y-38278833D01*
X132323040Y-38339435D01*
X132354970Y-38370997D01*
X132433504Y-38382929D01*
X132549943Y-38384667D01*
X132782885Y-38384667D01*
X132528776Y-38751235D01*
X132392656Y-38951001D01*
X132308926Y-39092004D01*
X132280899Y-39184476D01*
X131581110Y-39184476D01*
X131742605Y-38994732D01*
X131874052Y-38715701D01*
X131931825Y-38401235D01*
X131934140Y-38321167D01*
X131896071Y-37999783D01*
X131786819Y-37716241D01*
X131703287Y-37601500D01*
X132380500Y-37601500D01*
X132382065Y-37749313D01*
X132392168Y-37831629D01*
X132418918Y-37867617D01*
X132470425Y-37876445D01*
X132496917Y-37876667D01*
X132581402Y-37863384D01*
X132613333Y-37834333D01*
X137016000Y-37834333D01*
X137053293Y-37861979D01*
X137145336Y-37876168D01*
X137168696Y-37876667D01*
X137268601Y-37869570D01*
X137301652Y-37842081D01*
X137295010Y-37807918D01*
X137299102Y-37732374D01*
X137339776Y-37618058D01*
X137371895Y-37554406D01*
X137430911Y-37423220D01*
X137431972Y-37347409D01*
X137375723Y-37330123D01*
X137328789Y-37343450D01*
X137285395Y-37383708D01*
X137288621Y-37406881D01*
X137295556Y-37475422D01*
X137284496Y-37518952D01*
X137258223Y-37569298D01*
X137225915Y-37549432D01*
X137202599Y-37518658D01*
X137168381Y-37433579D01*
X137171603Y-37385718D01*
X137160349Y-37336959D01*
X137105196Y-37326333D01*
X137043864Y-37330357D01*
X137022596Y-37354472D01*
X137041144Y-37416747D01*
X137099264Y-37535248D01*
X137102268Y-37541138D01*
X137157882Y-37679313D01*
X137153484Y-37761455D01*
X137088661Y-37791669D01*
X137077001Y-37792000D01*
X137022288Y-37815669D01*
X137016000Y-37834333D01*
X132613333Y-37834333D01*
X132581119Y-37793230D01*
X132571000Y-37792000D01*
X132533224Y-37757806D01*
X132528667Y-37729828D01*
X132557326Y-37686861D01*
X132588859Y-37690755D01*
X132686922Y-37689339D01*
X132776617Y-37631521D01*
X132823695Y-37541516D01*
X132825000Y-37523810D01*
X132819371Y-37500716D01*
X132920368Y-37500716D01*
X132929706Y-37607181D01*
X132952456Y-37644383D01*
X133041141Y-37695051D01*
X133159141Y-37703327D01*
X133263108Y-37668982D01*
X133288733Y-37646163D01*
X133325835Y-37544605D01*
X133306305Y-37431975D01*
X133256003Y-37370477D01*
X133398905Y-37370477D01*
X133409774Y-37425352D01*
X133448095Y-37501687D01*
X133476136Y-37590917D01*
X133508740Y-37684705D01*
X133550041Y-37697717D01*
X133612345Y-37633766D01*
X133612737Y-37633250D01*
X133655951Y-37582331D01*
X133669045Y-37600114D01*
X133670320Y-37633250D01*
X133692924Y-37697796D01*
X133740988Y-37701124D01*
X133790215Y-37650516D01*
X133811577Y-37590917D01*
X133837071Y-37486525D01*
X133935683Y-37486525D01*
X133948406Y-37582292D01*
X134012572Y-37662895D01*
X134123516Y-37705365D01*
X134157491Y-37707333D01*
X134262409Y-37696004D01*
X134325278Y-37668389D01*
X134327833Y-37665000D01*
X134476000Y-37665000D01*
X134513556Y-37691509D01*
X134607376Y-37706254D01*
X134645333Y-37707333D01*
X134751370Y-37697944D01*
X134810349Y-37674489D01*
X134814667Y-37665000D01*
X134779210Y-37630605D01*
X134730000Y-37622667D01*
X134661335Y-37598365D01*
X134645333Y-37564350D01*
X134666649Y-37511267D01*
X134952895Y-37511267D01*
X134953372Y-37573235D01*
X135009460Y-37642078D01*
X135010432Y-37643051D01*
X135118582Y-37694680D01*
X135229404Y-37698991D01*
X135334033Y-37679276D01*
X135378673Y-37633354D01*
X135386443Y-37590300D01*
X135373960Y-37516833D01*
X135492000Y-37516833D01*
X135514925Y-37613981D01*
X135542800Y-37656533D01*
X135608539Y-37686443D01*
X135712970Y-37703038D01*
X135826009Y-37705702D01*
X135917568Y-37693823D01*
X135957560Y-37666786D01*
X135957667Y-37665000D01*
X136465667Y-37665000D01*
X136502565Y-37689549D01*
X136592723Y-37703287D01*
X136705332Y-37705460D01*
X136809582Y-37695311D01*
X136870921Y-37674935D01*
X136934455Y-37590099D01*
X136936068Y-37487328D01*
X136885861Y-37393201D01*
X136793934Y-37334295D01*
X136738433Y-37326333D01*
X136656278Y-37304680D01*
X136635000Y-37265332D01*
X136604985Y-37190118D01*
X136537099Y-37168065D01*
X136504311Y-37180446D01*
X136481184Y-37222712D01*
X136504311Y-37254911D01*
X136533573Y-37320053D01*
X136547856Y-37420949D01*
X136546841Y-37525738D01*
X136530208Y-37602557D01*
X136508000Y-37622667D01*
X136466897Y-37654881D01*
X136465667Y-37665000D01*
X135957667Y-37665000D01*
X135925452Y-37623897D01*
X135915333Y-37622667D01*
X135892300Y-37584360D01*
X135876925Y-37485410D01*
X135873000Y-37386305D01*
X135867008Y-37244178D01*
X135847435Y-37176108D01*
X135820083Y-37168447D01*
X135780515Y-37219337D01*
X135779606Y-37256642D01*
X135761224Y-37312580D01*
X135692822Y-37326333D01*
X135569341Y-37359540D01*
X135501338Y-37451343D01*
X135492000Y-37516833D01*
X135373960Y-37516833D01*
X135364537Y-37461378D01*
X135292716Y-37371760D01*
X135192888Y-37331270D01*
X135086961Y-37349730D01*
X135007567Y-37420419D01*
X134952895Y-37511267D01*
X134666649Y-37511267D01*
X134674544Y-37491609D01*
X134738744Y-37432976D01*
X134799627Y-37420098D01*
X134849346Y-37401534D01*
X134857000Y-37389833D01*
X134832497Y-37362456D01*
X134740945Y-37343184D01*
X134677083Y-37338233D01*
X134560008Y-37340558D01*
X134487513Y-37356865D01*
X134476000Y-37369983D01*
X134508254Y-37409817D01*
X134518333Y-37411000D01*
X134550156Y-37447228D01*
X134560667Y-37516833D01*
X134546175Y-37596391D01*
X134518333Y-37622667D01*
X134477230Y-37654881D01*
X134476000Y-37665000D01*
X134327833Y-37665000D01*
X134309011Y-37635381D01*
X134222122Y-37617455D01*
X134192748Y-37615550D01*
X134031500Y-37608434D01*
X134192839Y-37591674D01*
X134298402Y-37573152D01*
X134340008Y-37537825D01*
X134341006Y-37486697D01*
X134289288Y-37382075D01*
X134262955Y-37369983D01*
X134184858Y-37334123D01*
X134083207Y-37341364D01*
X133979062Y-37398560D01*
X133935683Y-37486525D01*
X133837071Y-37486525D01*
X133839779Y-37475440D01*
X133863731Y-37400417D01*
X133867055Y-37342639D01*
X133803356Y-37326344D01*
X133800343Y-37326333D01*
X133735026Y-37340061D01*
X133731450Y-37397216D01*
X133738420Y-37421251D01*
X133754173Y-37486245D01*
X133728237Y-37481508D01*
X133695713Y-37455723D01*
X133633503Y-37416930D01*
X133591157Y-37440888D01*
X133579780Y-37456055D01*
X133550623Y-37489769D01*
X133558540Y-37449251D01*
X133561126Y-37441147D01*
X133554826Y-37365864D01*
X133524813Y-37342146D01*
X133445544Y-37335757D01*
X133398905Y-37370477D01*
X133256003Y-37370477D01*
X133244302Y-37356173D01*
X133153988Y-37333904D01*
X133065030Y-37341911D01*
X132969519Y-37401431D01*
X132920368Y-37500716D01*
X132819371Y-37500716D01*
X132797420Y-37410661D01*
X132709579Y-37346680D01*
X132553828Y-37326335D01*
X132551950Y-37326333D01*
X132380500Y-37326333D01*
X132380500Y-37601500D01*
X131703287Y-37601500D01*
X131613819Y-37478605D01*
X131423705Y-37326333D01*
X131384505Y-37294936D01*
X131106310Y-37173295D01*
X130830413Y-37124207D01*
X130522025Y-37131119D01*
X130256381Y-37204176D01*
X130016392Y-37349614D01*
X129881068Y-37470743D01*
X129684039Y-37722534D01*
X129562698Y-38000014D01*
X129517047Y-38290961D01*
X129142347Y-38290961D01*
X129142677Y-37977931D01*
X129144224Y-37708760D01*
X129147652Y-37503054D01*
X129153658Y-37350211D01*
X129162939Y-37239632D01*
X129176190Y-37160715D01*
X129194107Y-37102860D01*
X129217387Y-37055467D01*
X129226438Y-37040196D01*
X129323919Y-36920512D01*
X129443857Y-36821002D01*
X129448530Y-36818104D01*
X129468315Y-36806811D01*
X129491536Y-36796576D01*
X129522249Y-36787347D01*
X129564513Y-36779074D01*
X129622386Y-36771702D01*
X129699923Y-36765181D01*
X129801184Y-36759459D01*
X129930225Y-36754482D01*
X130091105Y-36750200D01*
X130287879Y-36746559D01*
X130524607Y-36743508D01*
X130805345Y-36740996D01*
X131134151Y-36738968D01*
X131515083Y-36737375D01*
X131952198Y-36736163D01*
X132449553Y-36735280D01*
X133011206Y-36734674D01*
X133641214Y-36734294D01*
X134343636Y-36734087D01*
X135122527Y-36734000D01*
X135981947Y-36733983D01*
X136000000Y-36733983D01*
X136861073Y-36734000D01*
X137641537Y-36734084D01*
X138345449Y-36734288D01*
X138976867Y-36734665D01*
X139539849Y-36735265D01*
X140038451Y-36736142D01*
X140476732Y-36737347D01*
X140858748Y-36738932D01*
X141188558Y-36740950D01*
X141470218Y-36743453D01*
X141707787Y-36746492D01*
X141905322Y-36750121D01*
X142066880Y-36754390D01*
X142196518Y-36759352D01*
X142298296Y-36765059D01*
X142376268Y-36771564D01*
X142434494Y-36778917D01*
X142477031Y-36787173D01*
X142507936Y-36796381D01*
X142531267Y-36806596D01*
X142551081Y-36817868D01*
X142551470Y-36818104D01*
X142671155Y-36915586D01*
X142770665Y-37035524D01*
X142773562Y-37040196D01*
X142798779Y-37086459D01*
X142818403Y-37139658D01*
X142833128Y-37210393D01*
X142843652Y-37309265D01*
X142850670Y-37446874D01*
X142854879Y-37633822D01*
X142856974Y-37880708D01*
X142857652Y-38198133D01*
X142857683Y-38321167D01*
X142857323Y-38664402D01*
X142855776Y-38933573D01*
X142852348Y-39139279D01*
X142846341Y-39292122D01*
X142837061Y-39402701D01*
X142823810Y-39481618D01*
X142805893Y-39539473D01*
X142782613Y-39586866D01*
X142773562Y-39602137D01*
X142676081Y-39721821D01*
X142556143Y-39821331D01*
X142551470Y-39824229D01*
X142531685Y-39835522D01*
X142508464Y-39845757D01*
X142477750Y-39854986D01*
X142435486Y-39863259D01*
X142377614Y-39870631D01*
X142300076Y-39877152D01*
X142198815Y-39882874D01*
X142069774Y-39887851D01*
X141908895Y-39892133D01*
X141712120Y-39895774D01*
X141475393Y-39898825D01*
X141194654Y-39901337D01*
X140865848Y-39903365D01*
X140484917Y-39904958D01*
X140047802Y-39906170D01*
X139550447Y-39907053D01*
X138988794Y-39907659D01*
X138358786Y-39908039D01*
X137656364Y-39908246D01*
X136877472Y-39908333D01*
X136018052Y-39908350D01*
X136000000Y-39908350D01*
X135138927Y-39908333D01*
X134358463Y-39908249D01*
X133654550Y-39908045D01*
X133023132Y-39907668D01*
X132460151Y-39907068D01*
X131961549Y-39906191D01*
X131523268Y-39904986D01*
X131141252Y-39903401D01*
X130811442Y-39901383D01*
X130529781Y-39898880D01*
X130292212Y-39895841D01*
X130094678Y-39892212D01*
X129933120Y-39887943D01*
X129803481Y-39882981D01*
X129701704Y-39877274D01*
X129623731Y-39870769D01*
X129565505Y-39863416D01*
X129522968Y-39855160D01*
X129492063Y-39845952D01*
X129468732Y-39835737D01*
X129448918Y-39824465D01*
X129448530Y-39824229D01*
X129328845Y-39726747D01*
X129229335Y-39606809D01*
X129226438Y-39602137D01*
X129201220Y-39555874D01*
X129181597Y-39502675D01*
X129166871Y-39431940D01*
X129156347Y-39333068D01*
X129149329Y-39195459D01*
X129145121Y-39008511D01*
X129143026Y-38761625D01*
X129142348Y-38444200D01*
X129142316Y-38321167D01*
X129142347Y-38290961D01*
G37*
G36*
X146565537Y-39107965D02*
G01*
X146441332Y-38983333D01*
X145734133Y-38275000D01*
X145926553Y-38083333D01*
X146118974Y-37891666D01*
X146692624Y-38475000D01*
X147266274Y-39058333D01*
X147268596Y-38195649D01*
X147816666Y-38195649D01*
X147816666Y-39107965D01*
X148095833Y-38830331D01*
X148185444Y-38741576D01*
X148277121Y-38651419D01*
X148364933Y-38565648D01*
X148442950Y-38490049D01*
X148505239Y-38430408D01*
X148520833Y-38415683D01*
X148577400Y-38361423D01*
X148623741Y-38314851D01*
X148655086Y-38280912D01*
X148666666Y-38264548D01*
X148666666Y-38264523D01*
X148656212Y-38249730D01*
X148626767Y-38213219D01*
X148581205Y-38158333D01*
X148522399Y-38088416D01*
X148453225Y-38006811D01*
X148376556Y-37916861D01*
X148295267Y-37821910D01*
X148212232Y-37725302D01*
X148130325Y-37630378D01*
X148052420Y-37540484D01*
X147981392Y-37458963D01*
X147920115Y-37389157D01*
X147871463Y-37334410D01*
X147838310Y-37298066D01*
X147823531Y-37283468D01*
X147823166Y-37283333D01*
X147821948Y-37299497D01*
X147820805Y-37345978D01*
X147819757Y-37419761D01*
X147818827Y-37517829D01*
X147818035Y-37637168D01*
X147817404Y-37774759D01*
X147816954Y-37927589D01*
X147816708Y-38092641D01*
X147816666Y-38195649D01*
X147268596Y-38195649D01*
X147270637Y-37437527D01*
X147275000Y-35816721D01*
X147752776Y-36370860D01*
X147864610Y-36500496D01*
X147993458Y-36649732D01*
X148134495Y-36812983D01*
X148282894Y-36984669D01*
X148433828Y-37159206D01*
X148582473Y-37331012D01*
X148724001Y-37494505D01*
X148822593Y-37608333D01*
X149414634Y-38291666D01*
X148836483Y-38858703D01*
X148715032Y-38977754D01*
X148595614Y-39094691D01*
X148481399Y-39206417D01*
X148375560Y-39309834D01*
X148281269Y-39401844D01*
X148201698Y-39479349D01*
X148140018Y-39539252D01*
X148103791Y-39574243D01*
X148046186Y-39630869D01*
X147999057Y-39679632D01*
X147966797Y-39715803D01*
X147953800Y-39734653D01*
X147953791Y-39735718D01*
X147966048Y-39749564D01*
X147999773Y-39784927D01*
X148052908Y-39839710D01*
X148123394Y-39911818D01*
X148209172Y-39999154D01*
X148308183Y-40099622D01*
X148418369Y-40211125D01*
X148537670Y-40331567D01*
X148658721Y-40453510D01*
X148785438Y-40581135D01*
X148905507Y-40702268D01*
X149016802Y-40814751D01*
X149117197Y-40916426D01*
X149204565Y-41005133D01*
X149276781Y-41078715D01*
X149331719Y-41135013D01*
X149367252Y-41171869D01*
X149381042Y-41186832D01*
X149383228Y-41192934D01*
X149381755Y-41202570D01*
X149375582Y-41217042D01*
X149363669Y-41237652D01*
X149344976Y-41265700D01*
X149318462Y-41302488D01*
X149283085Y-41349318D01*
X149237807Y-41407489D01*
X149181586Y-41478305D01*
X149113381Y-41563065D01*
X149032153Y-41663071D01*
X148936860Y-41779624D01*
X148826463Y-41914026D01*
X148699921Y-42067578D01*
X148556192Y-42241581D01*
X148394237Y-42437335D01*
X148213015Y-42656144D01*
X148016915Y-42892757D01*
X147972244Y-42946696D01*
X147910662Y-43021128D01*
X147836479Y-43110839D01*
X147754005Y-43210617D01*
X147667549Y-43315249D01*
X147586320Y-43413591D01*
X147507965Y-43508184D01*
X147436563Y-43593836D01*
X147374832Y-43667330D01*
X147325492Y-43725447D01*
X147291260Y-43764970D01*
X147274856Y-43782682D01*
X147273898Y-43783333D01*
X147272877Y-43767035D01*
X147271818Y-43719620D01*
X147270736Y-43643302D01*
X147269645Y-43540298D01*
X147268561Y-43412822D01*
X147267499Y-43263089D01*
X147266473Y-43093316D01*
X147265498Y-42905718D01*
X147264589Y-42702510D01*
X147263761Y-42485907D01*
X147263028Y-42258126D01*
X147262578Y-42092640D01*
X147258333Y-40401947D01*
X146841666Y-40812418D01*
X146736206Y-40916276D01*
X146631100Y-41019721D01*
X146530529Y-41118645D01*
X146438672Y-41208939D01*
X146359707Y-41286494D01*
X146297815Y-41347202D01*
X146270804Y-41373643D01*
X146116609Y-41524398D01*
X145926724Y-41335052D01*
X145736838Y-41145706D01*
X146214252Y-40675971D01*
X146330613Y-40561551D01*
X146449908Y-40444373D01*
X146520360Y-40375240D01*
X147816666Y-40375240D01*
X147816666Y-41332620D01*
X147816892Y-41507230D01*
X147817542Y-41671031D01*
X147818575Y-41821144D01*
X147819950Y-41954688D01*
X147821627Y-42068786D01*
X147823563Y-42160556D01*
X147825719Y-42227120D01*
X147828053Y-42265598D01*
X147830077Y-42274166D01*
X147845673Y-42255456D01*
X147877541Y-42217028D01*
X147920725Y-42164863D01*
X147960580Y-42116666D01*
X148004291Y-42063676D01*
X148064624Y-41990387D01*
X148137072Y-41902279D01*
X148217129Y-41804837D01*
X148300287Y-41703542D01*
X148357887Y-41633333D01*
X148433785Y-41540834D01*
X148503555Y-41455886D01*
X148564155Y-41382188D01*
X148612544Y-41323435D01*
X148645680Y-41283324D01*
X148660150Y-41265980D01*
X148663430Y-41256704D01*
X148659144Y-41242233D01*
X148645255Y-41220293D01*
X148619726Y-41188610D01*
X148580519Y-41144911D01*
X148525595Y-41086923D01*
X148452918Y-41012371D01*
X148360449Y-40918983D01*
X148249433Y-40807767D01*
X147816666Y-40375240D01*
X146520360Y-40375240D01*
X146567651Y-40328835D01*
X146679355Y-40219334D01*
X146780534Y-40120269D01*
X146866701Y-40036038D01*
X146930377Y-39973951D01*
X147022920Y-39882382D01*
X147090957Y-39811542D01*
X147135318Y-39760496D01*
X147156831Y-39728311D01*
X147158809Y-39716666D01*
X147145465Y-39700660D01*
X147110595Y-39663246D01*
X147056282Y-39606552D01*
X146984606Y-39532705D01*
X146897649Y-39443833D01*
X146797492Y-39342061D01*
X146686216Y-39229519D01*
X146565903Y-39108332D01*
X146565537Y-39107965D01*
G37*
D13*
X9280000Y-28680000D03*
D14*
X14360000Y-28680000D03*
D13*
X19440000Y-28680000D03*
D15*
X10550000Y-26140000D03*
X16900000Y-23600000D03*
D13*
X33160000Y-85700000D03*
D14*
X38240000Y-85700000D03*
D13*
X43320000Y-85700000D03*
D15*
X34430000Y-83160000D03*
X40780000Y-80620000D03*
D13*
X42480000Y-9580000D03*
D14*
X47560000Y-9580000D03*
D13*
X52640000Y-9580000D03*
D15*
X43750000Y-7040000D03*
X50100000Y-4500000D03*
D13*
X56910000Y-47670000D03*
D14*
X61990000Y-47670000D03*
D13*
X67070000Y-47670000D03*
D15*
X58180000Y-45130000D03*
X64530000Y-42590000D03*
D13*
X54520000Y-85680000D03*
D14*
X59600000Y-85680000D03*
D13*
X64680000Y-85680000D03*
D15*
X55790000Y-83140000D03*
X62140000Y-80600000D03*
D13*
X6850000Y-85680000D03*
D14*
X11930000Y-85680000D03*
D13*
X17010000Y-85680000D03*
D15*
X8120000Y-83140000D03*
X14470000Y-80600000D03*
D13*
X245085000Y-66700000D03*
D14*
X250165000Y-66700000D03*
D13*
X255245000Y-66700000D03*
D15*
X246355000Y-64160000D03*
X252705000Y-61620000D03*
D13*
X33080000Y-28680000D03*
D14*
X38160000Y-28680000D03*
D13*
X43240000Y-28680000D03*
D15*
X34350000Y-26140000D03*
X40700000Y-23600000D03*
D13*
X80480000Y-9580000D03*
D14*
X85560000Y-9580000D03*
D13*
X90640000Y-9580000D03*
D15*
X81750000Y-7040000D03*
X88100000Y-4500000D03*
D13*
X184980000Y-28680000D03*
D14*
X190060000Y-28680000D03*
D13*
X195140000Y-28680000D03*
D15*
X186250000Y-26140000D03*
X192600000Y-23600000D03*
D13*
X51980000Y-28680000D03*
D14*
X57060000Y-28680000D03*
D13*
X62140000Y-28680000D03*
D15*
X53250000Y-26140000D03*
X59600000Y-23600000D03*
D16*
X2560000Y-74780000D03*
D17*
X5100000Y-60690000D03*
D18*
X2560000Y-72180000D03*
X2560000Y-69640000D03*
D19*
X2560000Y-67100000D03*
X2560000Y-64560000D03*
X2560000Y-62020000D03*
D18*
X5100000Y-73450000D03*
X5100000Y-70910000D03*
X5100000Y-68370000D03*
X5100000Y-65830000D03*
X5100000Y-63290000D03*
D13*
X171265000Y-47680000D03*
D14*
X176345000Y-47680000D03*
D13*
X181425000Y-47680000D03*
D15*
X172535000Y-45140000D03*
X178885000Y-42600000D03*
D13*
X190265000Y-47680000D03*
D14*
X195345000Y-47680000D03*
D13*
X200425000Y-47680000D03*
D15*
X191535000Y-45140000D03*
X197885000Y-42600000D03*
D20*
X2000000Y-56500000D03*
D13*
X271165000Y-66700000D03*
D14*
X276245000Y-66700000D03*
D13*
X281325000Y-66700000D03*
D15*
X272435000Y-64160000D03*
X278785000Y-61620000D03*
D21*
X9570000Y-59680000D03*
D14*
X9570000Y-74920000D03*
D13*
X16390000Y-66680000D03*
D14*
X21470000Y-66680000D03*
D13*
X26550000Y-66680000D03*
D21*
X33370000Y-59680000D03*
D14*
X33370000Y-74920000D03*
D15*
X17660000Y-64140000D03*
X24010000Y-61600000D03*
D13*
X37840000Y-47670000D03*
D14*
X42920000Y-47670000D03*
D13*
X48000000Y-47670000D03*
D15*
X39110000Y-45130000D03*
X45460000Y-42590000D03*
D13*
X56940000Y-85705000D03*
D14*
X62020000Y-85705000D03*
D13*
X67100000Y-85705000D03*
D15*
X58210000Y-83165000D03*
X64560000Y-80625000D03*
D13*
X70980000Y-28680000D03*
D14*
X76060000Y-28680000D03*
D13*
X81140000Y-28680000D03*
D15*
X72250000Y-26140000D03*
X78600000Y-23600000D03*
D13*
X146980000Y-28680000D03*
D14*
X152060000Y-28680000D03*
D13*
X157140000Y-28680000D03*
D15*
X148250000Y-26140000D03*
X154600000Y-23600000D03*
D13*
X137480000Y-9580000D03*
D14*
X142560000Y-9580000D03*
D13*
X147640000Y-9580000D03*
D15*
X138750000Y-7040000D03*
X145100000Y-4500000D03*
D13*
X85500000Y-66680000D03*
D14*
X90580000Y-66680000D03*
D13*
X95660000Y-66680000D03*
D15*
X86770000Y-64140000D03*
X93120000Y-61600000D03*
D13*
X142780000Y-66680000D03*
D14*
X147860000Y-66680000D03*
D13*
X152940000Y-66680000D03*
D15*
X144050000Y-64140000D03*
X150400000Y-61600000D03*
D13*
X118480000Y-9580000D03*
D14*
X123560000Y-9580000D03*
D13*
X128640000Y-9580000D03*
D15*
X119750000Y-7040000D03*
X126100000Y-4500000D03*
D13*
X23480000Y-9580000D03*
D14*
X28560000Y-9580000D03*
D13*
X33640000Y-9580000D03*
D15*
X24750000Y-7040000D03*
X31100000Y-4500000D03*
D22*
X260050000Y-27900000D03*
X128700000Y-47800000D03*
D13*
X11640000Y-47650000D03*
D14*
X16720000Y-47650000D03*
D13*
X21800000Y-47650000D03*
D15*
X12910000Y-45110000D03*
X19260000Y-42570000D03*
D23*
X81035000Y-77445000D03*
D24*
X81035000Y-92685000D03*
D25*
X125954900Y-85700000D03*
D23*
X131034900Y-85700000D03*
D25*
X136114900Y-85700000D03*
D23*
X181034800Y-77445000D03*
D24*
X181034800Y-92685000D03*
D13*
X66450000Y-66680000D03*
D14*
X71530000Y-66680000D03*
D13*
X76610000Y-66680000D03*
D15*
X67720000Y-64140000D03*
X74070000Y-61600000D03*
D21*
X254795000Y-2580000D03*
D14*
X254795000Y-17820000D03*
D13*
X261615000Y-9580000D03*
D14*
X266695000Y-9580000D03*
D13*
X271775000Y-9580000D03*
D21*
X278595000Y-2580000D03*
D14*
X278595000Y-17820000D03*
D15*
X262885000Y-7040000D03*
X269235000Y-4500000D03*
D22*
X25200000Y-27900000D03*
D26*
X7375000Y-80200000D03*
X2295000Y-81216000D03*
X2295000Y-79184000D03*
D27*
X6105000Y-79565000D03*
X6105000Y-80835000D03*
X4835000Y-79565000D03*
X4835000Y-80835000D03*
X3565000Y-79565000D03*
X3565000Y-80835000D03*
D13*
X218980000Y-66680000D03*
D14*
X224060000Y-66680000D03*
D13*
X229140000Y-66680000D03*
D15*
X220250000Y-64140000D03*
X226600000Y-61600000D03*
D13*
X6880000Y-47680000D03*
D14*
X11960000Y-47680000D03*
D13*
X17040000Y-47680000D03*
D15*
X8150000Y-45140000D03*
X14500000Y-42600000D03*
D13*
X232980000Y-9580000D03*
D14*
X238060000Y-9580000D03*
D13*
X243140000Y-9580000D03*
D15*
X234250000Y-7040000D03*
X240600000Y-4500000D03*
D13*
X203980000Y-28680000D03*
D14*
X209060000Y-28680000D03*
D13*
X214140000Y-28680000D03*
D15*
X205250000Y-26140000D03*
X211600000Y-23600000D03*
D13*
X266410000Y-28680000D03*
D14*
X271490000Y-28680000D03*
D13*
X276570000Y-28680000D03*
D15*
X267680000Y-26140000D03*
X274030000Y-23600000D03*
D13*
X75960000Y-47660000D03*
D14*
X81040000Y-47660000D03*
D13*
X86120000Y-47660000D03*
D15*
X77230000Y-45120000D03*
X83580000Y-42580000D03*
D28*
X51100000Y-45512500D03*
X51100000Y-47087500D03*
D13*
X221125000Y-85750000D03*
D14*
X226205000Y-85750000D03*
D13*
X231285000Y-85750000D03*
D15*
X222395000Y-83210000D03*
X228745000Y-80670000D03*
D21*
X247685000Y-59700000D03*
D14*
X247685000Y-74940000D03*
D13*
X254505000Y-66700000D03*
D14*
X259585000Y-66700000D03*
D13*
X264665000Y-66700000D03*
D21*
X271485000Y-59700000D03*
D14*
X271485000Y-74940000D03*
D15*
X255775000Y-64160000D03*
X262125000Y-61620000D03*
D13*
X242640000Y-85705000D03*
D14*
X247720000Y-85705000D03*
D13*
X252800000Y-85705000D03*
D15*
X243910000Y-83165000D03*
X250260000Y-80625000D03*
D13*
X9380000Y-85705000D03*
D14*
X14460000Y-85705000D03*
D13*
X19540000Y-85705000D03*
D15*
X10650000Y-83165000D03*
X17000000Y-80625000D03*
D13*
X209315000Y-47680000D03*
D14*
X214395000Y-47680000D03*
D13*
X219475000Y-47680000D03*
D15*
X210585000Y-45140000D03*
X216935000Y-42600000D03*
D13*
X223215000Y-28680000D03*
D14*
X228295000Y-28680000D03*
D13*
X233375000Y-28680000D03*
D15*
X224485000Y-26140000D03*
X230835000Y-23600000D03*
D13*
X268805000Y-85750000D03*
D14*
X273885000Y-85750000D03*
D13*
X278965000Y-85750000D03*
D15*
X270075000Y-83210000D03*
X276425000Y-80670000D03*
D13*
X104610000Y-66680000D03*
D14*
X109690000Y-66680000D03*
D13*
X114770000Y-66680000D03*
D15*
X105880000Y-64140000D03*
X112230000Y-61600000D03*
D13*
X175580000Y-9580000D03*
D14*
X180660000Y-9580000D03*
D13*
X185740000Y-9580000D03*
D15*
X176850000Y-7040000D03*
X183200000Y-4500000D03*
D22*
X190500000Y-85200000D03*
D13*
X271180000Y-9580000D03*
D14*
X276260000Y-9580000D03*
D13*
X281340000Y-9580000D03*
D15*
X272450000Y-7040000D03*
X278800000Y-4500000D03*
D13*
X89980000Y-28680000D03*
D14*
X95060000Y-28680000D03*
D13*
X100140000Y-28680000D03*
D15*
X91250000Y-26140000D03*
X97600000Y-23600000D03*
D13*
X228315000Y-47680000D03*
D14*
X233395000Y-47680000D03*
D13*
X238475000Y-47680000D03*
D15*
X229585000Y-45140000D03*
X235935000Y-42600000D03*
D13*
X152265000Y-47680000D03*
D14*
X157345000Y-47680000D03*
D13*
X162425000Y-47680000D03*
D15*
X153535000Y-45140000D03*
X159885000Y-42600000D03*
D13*
X242480000Y-28680000D03*
D14*
X247560000Y-28680000D03*
D13*
X252640000Y-28680000D03*
D15*
X243750000Y-26140000D03*
X250100000Y-23600000D03*
D13*
X266440000Y-85690000D03*
D14*
X271520000Y-85690000D03*
D13*
X276600000Y-85690000D03*
D15*
X267710000Y-83150000D03*
X274060000Y-80610000D03*
D13*
X30680000Y-85680000D03*
D14*
X35760000Y-85680000D03*
D13*
X40840000Y-85680000D03*
D15*
X31950000Y-83140000D03*
X38300000Y-80600000D03*
D13*
X127980000Y-28680000D03*
D14*
X133060000Y-28680000D03*
D13*
X138140000Y-28680000D03*
D15*
X129250000Y-26140000D03*
X135600000Y-23600000D03*
D13*
X47350000Y-66680000D03*
D14*
X52430000Y-66680000D03*
D13*
X57510000Y-66680000D03*
D15*
X48620000Y-64140000D03*
X54970000Y-61600000D03*
D23*
X85840000Y-77465000D03*
D24*
X85840000Y-92705000D03*
D25*
X137910000Y-85720000D03*
D23*
X142990000Y-85720000D03*
D25*
X148070000Y-85720000D03*
D23*
X200140000Y-77465000D03*
D24*
X200140000Y-92705000D03*
D13*
X194680000Y-9580000D03*
D14*
X199760000Y-9580000D03*
D13*
X204840000Y-9580000D03*
D15*
X195950000Y-7040000D03*
X202300000Y-4500000D03*
D13*
X156480000Y-9580000D03*
D14*
X161560000Y-9580000D03*
D13*
X166640000Y-9580000D03*
D15*
X157750000Y-7040000D03*
X164100000Y-4500000D03*
D13*
X213780000Y-9580000D03*
D14*
X218860000Y-9580000D03*
D13*
X223940000Y-9580000D03*
D15*
X215050000Y-7040000D03*
X221400000Y-4500000D03*
D13*
X123690000Y-66680000D03*
D14*
X128770000Y-66680000D03*
D13*
X133850000Y-66680000D03*
D15*
X124960000Y-64140000D03*
X131310000Y-61600000D03*
D13*
X99480000Y-9580000D03*
D14*
X104560000Y-9580000D03*
D13*
X109640000Y-9580000D03*
D15*
X100750000Y-7040000D03*
X107100000Y-4500000D03*
D28*
X53600000Y-45512500D03*
X53600000Y-47087500D03*
D13*
X4480000Y-9580000D03*
D14*
X9560000Y-9580000D03*
D13*
X14640000Y-9580000D03*
D15*
X5750000Y-7040000D03*
X12100000Y-4500000D03*
D20*
X284000000Y-56500000D03*
D13*
X199950000Y-66680000D03*
D14*
X205030000Y-66680000D03*
D13*
X210110000Y-66680000D03*
D15*
X201220000Y-64140000D03*
X207570000Y-61600000D03*
D13*
X61480000Y-9580000D03*
D14*
X66560000Y-9580000D03*
D13*
X71640000Y-9580000D03*
D15*
X62750000Y-7040000D03*
X69100000Y-4500000D03*
D13*
X108980000Y-28680000D03*
D14*
X114060000Y-28680000D03*
D13*
X119140000Y-28680000D03*
D15*
X110250000Y-26140000D03*
X116600000Y-23600000D03*
D13*
X252080000Y-9580000D03*
D14*
X257160000Y-9580000D03*
D13*
X262240000Y-9580000D03*
D15*
X253350000Y-7040000D03*
X259700000Y-4500000D03*
D13*
X244975000Y-85750000D03*
D14*
X250055000Y-85750000D03*
D13*
X255135000Y-85750000D03*
D15*
X246245000Y-83210000D03*
X252595000Y-80670000D03*
D13*
X180910000Y-66680000D03*
D14*
X185990000Y-66680000D03*
D13*
X191070000Y-66680000D03*
D15*
X182180000Y-64140000D03*
X188530000Y-61600000D03*
D13*
X133150000Y-47710000D03*
D14*
X138230000Y-47710000D03*
D13*
X143310000Y-47710000D03*
D15*
X134420000Y-45170000D03*
X140770000Y-42630000D03*
D13*
X114100000Y-47710000D03*
D14*
X119180000Y-47710000D03*
D13*
X124260000Y-47710000D03*
D15*
X115370000Y-45170000D03*
X121720000Y-42630000D03*
D13*
X161840000Y-66680000D03*
D14*
X166920000Y-66680000D03*
D13*
X172000000Y-66680000D03*
D15*
X163110000Y-64140000D03*
X169460000Y-61600000D03*
D13*
X197325000Y-85700000D03*
D14*
X202405000Y-85700000D03*
D13*
X207485000Y-85700000D03*
D15*
X198595000Y-83160000D03*
X204945000Y-80620000D03*
D21*
X252460000Y-40680000D03*
D14*
X252460000Y-55920000D03*
D13*
X259280000Y-47680000D03*
D14*
X264360000Y-47680000D03*
D13*
X269440000Y-47680000D03*
D21*
X276260000Y-40680000D03*
D14*
X276260000Y-55920000D03*
D15*
X260550000Y-45140000D03*
X266900000Y-42600000D03*
D13*
X218840000Y-85745000D03*
D14*
X223920000Y-85745000D03*
D13*
X229000000Y-85745000D03*
D15*
X220110000Y-83205000D03*
X226460000Y-80665000D03*
D13*
X165980000Y-28680000D03*
D14*
X171060000Y-28680000D03*
D13*
X176140000Y-28680000D03*
D15*
X167250000Y-26140000D03*
X173600000Y-23600000D03*
D13*
X95040000Y-47690000D03*
D14*
X100120000Y-47690000D03*
D13*
X105200000Y-47690000D03*
D15*
X96310000Y-45150000D03*
X102660000Y-42610000D03*
D29*
X28300000Y-38200000D03*
X27100000Y-38200000D03*
X25900000Y-38200000D03*
X24700000Y-38200000D03*
X28300000Y-39400000D03*
X27100000Y-39400000D03*
X25900000Y-39400000D03*
X24700000Y-39400000D03*
X28300000Y-40600000D03*
X27100000Y-40600000D03*
X25900000Y-40600000D03*
X24700000Y-40600000D03*
X28300000Y-41800000D03*
X27100000Y-41800000D03*
X25900000Y-41800000D03*
X24700000Y-41800000D03*
D30*
X51300000Y-53940000D03*
X48300000Y-53940000D03*
D29*
X15510000Y-5480000D03*
X21290000Y-5480000D03*
D31*
X14075000Y-1800000D03*
D32*
X14075000Y-5970000D03*
D31*
X22725000Y-1800000D03*
D32*
X22725000Y-5970000D03*
D29*
X6045000Y-32450000D03*
M02*
