%TF.GenerationSoftware,KiCad,Pcbnew,7.0.1-0*%
%TF.CreationDate,2023-08-08T22:48:25+05:30*%
%TF.ProjectId,Keyboard_60%,4b657962-6f61-4726-945f-3630252e6b69,rev?*%
%TF.SameCoordinates,Original*%
%TF.FileFunction,Drillmap*%
%TF.FilePolarity,Positive*%
%FSLAX45Y45*%
G04 Gerber Fmt 4.5, Leading zero omitted, Abs format (unit mm)*
G04 Created by KiCad (PCBNEW 7.0.1-0) date 2023-08-08 22:48:25*
%MOMM*%
%LPD*%
G01*
G04 APERTURE LIST*
%ADD10C,0.200000*%
%ADD11C,0.030000*%
%ADD12C,0.060000*%
%ADD13C,0.145000*%
%ADD14C,0.147000*%
%ADD15C,0.150000*%
%ADD16C,0.240000*%
%ADD17C,0.249936*%
G04 APERTURE END LIST*
D10*
X4838940Y-9480000D02*
G75*
G03*
X4971943Y-9399355I1J150000D01*
G01*
X65000Y-9255000D02*
X65000Y-285000D01*
X12591943Y-140645D02*
G75*
G03*
X12458939Y-60000I-133003J-69355D01*
G01*
X22936439Y-9480000D02*
X5663561Y-9480000D01*
X28535000Y-285000D02*
G75*
G03*
X28310000Y-60000I-225000J0D01*
G01*
X28310000Y-9480000D02*
G75*
G03*
X28535000Y-9255000I0J225000D01*
G01*
X65000Y-9255000D02*
G75*
G03*
X290000Y-9480000I225000J0D01*
G01*
X290000Y-60000D02*
G75*
G03*
X65000Y-285000I0J-225000D01*
G01*
X24498193Y-140645D02*
G75*
G03*
X24365189Y-60000I-133003J-69355D01*
G01*
X12591943Y-140645D02*
G75*
G03*
X13150557Y-140645I279307J145645D01*
G01*
X3410189Y-60000D02*
X290000Y-60000D01*
X3543193Y-140645D02*
G75*
G03*
X3410189Y-60000I-133003J-69355D01*
G01*
X28535000Y-9255000D02*
X28535000Y-285000D01*
X12458939Y-60000D02*
X4234811Y-60000D01*
X13283561Y-60001D02*
G75*
G03*
X13150557Y-140645I-1J-149999D01*
G01*
X23628057Y-9399355D02*
G75*
G03*
X23069443Y-9399355I-279307J-145645D01*
G01*
X25189811Y-60001D02*
G75*
G03*
X25056807Y-140645I-1J-149999D01*
G01*
X5530557Y-9399355D02*
G75*
G03*
X5663561Y-9480000I133003J69355D01*
G01*
X5530557Y-9399355D02*
G75*
G03*
X4971943Y-9399355I-279307J-145645D01*
G01*
X22936439Y-9480000D02*
G75*
G03*
X23069443Y-9399355I1J150000D01*
G01*
X3543193Y-140645D02*
G75*
G03*
X4101807Y-140645I279307J145645D01*
G01*
X4838940Y-9480000D02*
X290000Y-9480000D01*
X23628057Y-9399355D02*
G75*
G03*
X23761061Y-9480000I133003J69355D01*
G01*
X24498193Y-140645D02*
G75*
G03*
X25056807Y-140645I279307J145645D01*
G01*
X28310000Y-9480000D02*
X23761061Y-9480000D01*
X4234811Y-60001D02*
G75*
G03*
X4101807Y-140645I-1J-149999D01*
G01*
X28310000Y-60000D02*
X25189811Y-60000D01*
X24365189Y-60000D02*
X13283561Y-60000D01*
D11*
X186000Y-7729000D02*
X216000Y-7759000D01*
X216000Y-7729000D02*
X186000Y-7759000D01*
X328500Y-7865000D02*
X358500Y-7895000D01*
X358500Y-7865000D02*
X328500Y-7895000D01*
X468500Y-7941500D02*
X498500Y-7971500D01*
X498500Y-7941500D02*
X468500Y-7971500D01*
X475000Y-7515000D02*
X505000Y-7545000D01*
X505000Y-7515000D02*
X475000Y-7545000D01*
X578000Y-7206000D02*
X608000Y-7236000D01*
X608000Y-7206000D02*
X578000Y-7236000D01*
X598500Y-7845000D02*
X628500Y-7875000D01*
X628500Y-7845000D02*
X598500Y-7875000D01*
X693000Y-6915000D02*
X723000Y-6945000D01*
X723000Y-6915000D02*
X693000Y-6945000D01*
X778500Y-6835000D02*
X808500Y-6865000D01*
X808500Y-6835000D02*
X778500Y-6865000D01*
X780000Y-4290000D02*
X810000Y-4320000D01*
X810000Y-4290000D02*
X780000Y-4320000D01*
X828500Y-7145000D02*
X858500Y-7175000D01*
X858500Y-7145000D02*
X828500Y-7175000D01*
X848500Y-6425000D02*
X878500Y-6455000D01*
X878500Y-6425000D02*
X848500Y-6455000D01*
X858500Y-6745000D02*
X888500Y-6775000D01*
X888500Y-6745000D02*
X858500Y-6775000D01*
X919791Y-6876291D02*
X949791Y-6906291D01*
X949791Y-6876291D02*
X919791Y-6906291D01*
X950000Y-5030000D02*
X980000Y-5060000D01*
X980000Y-5030000D02*
X950000Y-5060000D01*
X963209Y-6989709D02*
X993209Y-7019709D01*
X993209Y-6989709D02*
X963209Y-7019709D01*
X980000Y-3945000D02*
X1010000Y-3975000D01*
X1010000Y-3945000D02*
X980000Y-3975000D01*
X1045000Y-5205000D02*
X1075000Y-5235000D01*
X1075000Y-5205000D02*
X1045000Y-5235000D01*
X1074000Y-6961000D02*
X1104000Y-6991000D01*
X1104000Y-6961000D02*
X1074000Y-6991000D01*
X1085000Y-5480000D02*
X1115000Y-5510000D01*
X1115000Y-5480000D02*
X1085000Y-5510000D01*
X1085000Y-7165000D02*
X1115000Y-7195000D01*
X1115000Y-7165000D02*
X1085000Y-7195000D01*
X1115000Y-8070000D02*
X1145000Y-8100000D01*
X1145000Y-8070000D02*
X1115000Y-8100000D01*
X1125000Y-4415000D02*
X1155000Y-4445000D01*
X1155000Y-4415000D02*
X1125000Y-4445000D01*
X1132950Y-6875000D02*
X1162950Y-6905000D01*
X1162950Y-6875000D02*
X1132950Y-6905000D01*
X1175000Y-5890000D02*
X1205000Y-5920000D01*
X1205000Y-5890000D02*
X1175000Y-5920000D01*
X1200000Y-6410000D02*
X1230000Y-6440000D01*
X1230000Y-6410000D02*
X1200000Y-6440000D01*
X1264000Y-7900500D02*
X1294000Y-7930500D01*
X1294000Y-7900500D02*
X1264000Y-7930500D01*
X1265000Y-4305000D02*
X1295000Y-4335000D01*
X1295000Y-4305000D02*
X1265000Y-4335000D01*
X1265000Y-6970000D02*
X1295000Y-7000000D01*
X1295000Y-6970000D02*
X1265000Y-7000000D01*
X1355000Y-5465000D02*
X1385000Y-5495000D01*
X1385000Y-5465000D02*
X1355000Y-5495000D01*
X1368500Y-5735000D02*
X1398500Y-5765000D01*
X1398500Y-5735000D02*
X1368500Y-5765000D01*
X1460000Y-1795000D02*
X1490000Y-1825000D01*
X1490000Y-1795000D02*
X1460000Y-1825000D01*
X1488500Y-5745000D02*
X1518500Y-5775000D01*
X1518500Y-5745000D02*
X1488500Y-5775000D01*
X1555000Y-6275000D02*
X1585000Y-6305000D01*
X1585000Y-6275000D02*
X1555000Y-6305000D01*
X1608500Y-5605000D02*
X1638500Y-5635000D01*
X1638500Y-5605000D02*
X1608500Y-5635000D01*
X1620000Y-5425000D02*
X1650000Y-5455000D01*
X1650000Y-5425000D02*
X1620000Y-5455000D01*
X1635000Y-6275000D02*
X1665000Y-6305000D01*
X1665000Y-6275000D02*
X1635000Y-6305000D01*
X1645000Y-1065000D02*
X1675000Y-1095000D01*
X1675000Y-1065000D02*
X1645000Y-1095000D01*
X1650000Y-4435000D02*
X1680000Y-4465000D01*
X1680000Y-4435000D02*
X1650000Y-4465000D01*
X1650000Y-5070000D02*
X1680000Y-5100000D01*
X1680000Y-5070000D02*
X1650000Y-5100000D01*
X1655000Y-4020000D02*
X1685000Y-4050000D01*
X1685000Y-4020000D02*
X1655000Y-4050000D01*
X1715000Y-4105000D02*
X1745000Y-4135000D01*
X1745000Y-4105000D02*
X1715000Y-4135000D01*
X1750000Y-3555000D02*
X1780000Y-3585000D01*
X1780000Y-3555000D02*
X1750000Y-3585000D01*
X1755000Y-1114000D02*
X1785000Y-1144000D01*
X1785000Y-1114000D02*
X1755000Y-1144000D01*
X1795368Y-1369121D02*
X1825368Y-1399120D01*
X1825368Y-1369121D02*
X1795368Y-1399120D01*
X1803000Y-3720000D02*
X1833000Y-3750000D01*
X1833000Y-3720000D02*
X1803000Y-3750000D01*
X1855472Y-1439000D02*
X1885472Y-1469000D01*
X1885472Y-1439000D02*
X1855472Y-1469000D01*
X1865000Y-1045000D02*
X1895000Y-1075000D01*
X1895000Y-1045000D02*
X1865000Y-1075000D01*
X1892836Y-1114590D02*
X1922836Y-1144590D01*
X1922836Y-1114590D02*
X1892836Y-1144590D01*
X1894000Y-3776000D02*
X1924000Y-3806000D01*
X1924000Y-3776000D02*
X1894000Y-3806000D01*
X1915000Y-4040000D02*
X1945000Y-4070000D01*
X1945000Y-4040000D02*
X1915000Y-4070000D01*
X1918500Y-5575000D02*
X1948500Y-5605000D01*
X1948500Y-5575000D02*
X1918500Y-5605000D01*
X1940000Y-3686000D02*
X1970000Y-3716000D01*
X1970000Y-3686000D02*
X1940000Y-3716000D01*
X1982000Y-3776000D02*
X2012000Y-3806000D01*
X2012000Y-3776000D02*
X1982000Y-3806000D01*
X1985000Y-2245000D02*
X2015000Y-2275000D01*
X2015000Y-2245000D02*
X1985000Y-2275000D01*
X2005000Y-6175000D02*
X2035000Y-6205000D01*
X2035000Y-6175000D02*
X2005000Y-6205000D01*
X2011709Y-4521709D02*
X2041709Y-4551709D01*
X2041709Y-4521709D02*
X2011709Y-4551709D01*
X2027500Y-4667500D02*
X2057500Y-4697500D01*
X2057500Y-4667500D02*
X2027500Y-4697500D01*
X2042500Y-4412500D02*
X2072500Y-4442500D01*
X2072500Y-4412500D02*
X2042500Y-4442500D01*
X2075000Y-1055000D02*
X2105000Y-1085000D01*
X2105000Y-1055000D02*
X2075000Y-1085000D01*
X2085000Y-6185000D02*
X2115000Y-6215000D01*
X2115000Y-6185000D02*
X2085000Y-6215000D01*
X2105000Y-4235000D02*
X2135000Y-4265000D01*
X2135000Y-4235000D02*
X2105000Y-4265000D01*
X2110000Y-4910000D02*
X2140000Y-4940000D01*
X2140000Y-4910000D02*
X2110000Y-4940000D01*
X2130000Y-5710000D02*
X2160000Y-5740000D01*
X2160000Y-5710000D02*
X2130000Y-5740000D01*
X2195000Y-4490000D02*
X2225000Y-4520000D01*
X2225000Y-4490000D02*
X2195000Y-4520000D01*
X2200000Y-5615000D02*
X2230000Y-5645000D01*
X2230000Y-5615000D02*
X2200000Y-5645000D01*
X2294950Y-3469770D02*
X2324950Y-3499770D01*
X2324950Y-3469770D02*
X2294950Y-3499770D01*
X2342051Y-4667438D02*
X2372051Y-4697438D01*
X2372051Y-4667438D02*
X2342051Y-4697438D01*
X2395000Y-5560000D02*
X2425000Y-5590000D01*
X2425000Y-5560000D02*
X2395000Y-5590000D01*
X2420000Y-4710000D02*
X2450000Y-4740000D01*
X2450000Y-4710000D02*
X2420000Y-4740000D01*
X2425000Y-3255000D02*
X2455000Y-3285000D01*
X2455000Y-3255000D02*
X2425000Y-3285000D01*
X2440000Y-3565000D02*
X2470000Y-3595000D01*
X2470000Y-3565000D02*
X2440000Y-3595000D01*
X2445000Y-5985000D02*
X2475000Y-6015000D01*
X2475000Y-5985000D02*
X2445000Y-6015000D01*
X2528500Y-325000D02*
X2558500Y-355000D01*
X2558500Y-325000D02*
X2528500Y-355000D01*
X2530000Y-4725000D02*
X2560000Y-4755000D01*
X2560000Y-4725000D02*
X2530000Y-4755000D01*
X2535000Y-3180000D02*
X2565000Y-3210000D01*
X2565000Y-3180000D02*
X2535000Y-3210000D01*
X2540000Y-3260000D02*
X2570000Y-3290000D01*
X2570000Y-3260000D02*
X2540000Y-3290000D01*
X2570000Y-3590000D02*
X2600000Y-3620000D01*
X2600000Y-3590000D02*
X2570000Y-3620000D01*
X2600000Y-3105000D02*
X2630000Y-3135000D01*
X2630000Y-3105000D02*
X2600000Y-3135000D01*
X2608500Y-5465000D02*
X2638500Y-5495000D01*
X2638500Y-5465000D02*
X2608500Y-5495000D01*
X2625000Y-5855000D02*
X2655000Y-5885000D01*
X2655000Y-5855000D02*
X2625000Y-5885000D01*
X2663950Y-4350000D02*
X2693950Y-4380000D01*
X2693950Y-4350000D02*
X2663950Y-4380000D01*
X2674697Y-4780000D02*
X2704697Y-4810000D01*
X2704697Y-4780000D02*
X2674697Y-4810000D01*
X2680000Y-3125000D02*
X2710000Y-3155000D01*
X2710000Y-3125000D02*
X2680000Y-3155000D01*
X2709739Y-4411612D02*
X2739739Y-4441612D01*
X2739739Y-4411612D02*
X2709739Y-4441612D01*
X2715300Y-1405000D02*
X2745300Y-1435000D01*
X2745300Y-1405000D02*
X2715300Y-1435000D01*
X2717171Y-3578450D02*
X2747171Y-3608450D01*
X2747171Y-3578450D02*
X2717171Y-3608450D01*
X2755000Y-2185000D02*
X2785000Y-2215000D01*
X2785000Y-2185000D02*
X2755000Y-2215000D01*
X2755000Y-4558000D02*
X2785000Y-4588000D01*
X2785000Y-4558000D02*
X2755000Y-4588000D01*
X2755000Y-5542350D02*
X2785000Y-5572350D01*
X2785000Y-5542350D02*
X2755000Y-5572350D01*
X2761000Y-3144000D02*
X2791000Y-3174000D01*
X2791000Y-3144000D02*
X2761000Y-3174000D01*
X2779550Y-3620000D02*
X2809550Y-3650000D01*
X2809550Y-3620000D02*
X2779550Y-3650000D01*
X2783530Y-4398482D02*
X2813530Y-4428482D01*
X2813530Y-4398482D02*
X2783530Y-4428482D01*
X2795000Y-7145000D02*
X2825000Y-7175000D01*
X2825000Y-7145000D02*
X2795000Y-7175000D01*
X2840000Y-5440000D02*
X2870000Y-5470000D01*
X2870000Y-5440000D02*
X2840000Y-5470000D01*
X2881429Y-4919140D02*
X2911429Y-4949140D01*
X2911429Y-4919140D02*
X2881429Y-4949140D01*
X2938500Y-7895000D02*
X2968500Y-7925000D01*
X2968500Y-7895000D02*
X2938500Y-7925000D01*
X2976851Y-4373149D02*
X3006851Y-4403149D01*
X3006851Y-4373149D02*
X2976851Y-4403149D01*
X2995000Y-1395000D02*
X3025000Y-1425000D01*
X3025000Y-1395000D02*
X2995000Y-1425000D01*
X3025000Y-2989550D02*
X3055000Y-3019550D01*
X3055000Y-2989550D02*
X3025000Y-3019550D01*
X3025000Y-6525000D02*
X3055000Y-6555000D01*
X3055000Y-6525000D02*
X3025000Y-6555000D01*
X3030029Y-3102164D02*
X3060029Y-3132164D01*
X3060029Y-3102164D02*
X3030029Y-3132164D01*
X3045000Y-4175000D02*
X3075000Y-4205000D01*
X3075000Y-4175000D02*
X3045000Y-4205000D01*
X3045000Y-5319000D02*
X3075000Y-5349000D01*
X3075000Y-5319000D02*
X3045000Y-5349000D01*
X3085000Y-4720000D02*
X3115000Y-4750000D01*
X3115000Y-4720000D02*
X3085000Y-4750000D01*
X3150000Y-3210000D02*
X3180000Y-3240000D01*
X3180000Y-3210000D02*
X3150000Y-3240000D01*
X3185000Y-4580000D02*
X3215000Y-4610000D01*
X3215000Y-4580000D02*
X3185000Y-4610000D01*
X3228000Y-1432000D02*
X3258000Y-1462000D01*
X3258000Y-1432000D02*
X3228000Y-1462000D01*
X3270000Y-4695000D02*
X3300000Y-4725000D01*
X3300000Y-4695000D02*
X3270000Y-4725000D01*
X3280000Y-4360000D02*
X3310000Y-4390000D01*
X3310000Y-4360000D02*
X3280000Y-4390000D01*
X3365000Y-4510000D02*
X3395000Y-4540000D01*
X3395000Y-4510000D02*
X3365000Y-4540000D01*
X3365000Y-4650000D02*
X3395000Y-4680000D01*
X3395000Y-4650000D02*
X3365000Y-4680000D01*
X3370000Y-4580000D02*
X3400000Y-4610000D01*
X3400000Y-4580000D02*
X3370000Y-4610000D01*
X3410000Y-3725000D02*
X3440000Y-3755000D01*
X3440000Y-3725000D02*
X3410000Y-3755000D01*
X3430000Y-4495000D02*
X3460000Y-4525000D01*
X3460000Y-4495000D02*
X3430000Y-4525000D01*
X3445000Y-4280000D02*
X3475000Y-4310000D01*
X3475000Y-4280000D02*
X3445000Y-4310000D01*
X3455000Y-3455000D02*
X3485000Y-3485000D01*
X3485000Y-3455000D02*
X3455000Y-3485000D01*
X3515000Y-4500000D02*
X3545000Y-4530000D01*
X3545000Y-4500000D02*
X3515000Y-4530000D01*
X3525000Y-4290000D02*
X3555000Y-4320000D01*
X3555000Y-4290000D02*
X3525000Y-4320000D01*
X3525000Y-4965000D02*
X3555000Y-4995000D01*
X3555000Y-4965000D02*
X3525000Y-4995000D01*
X3535000Y-2075000D02*
X3565000Y-2105000D01*
X3565000Y-2075000D02*
X3535000Y-2105000D01*
X3545000Y-5825000D02*
X3575000Y-5855000D01*
X3575000Y-5825000D02*
X3545000Y-5855000D01*
X3605000Y-4290000D02*
X3635000Y-4320000D01*
X3635000Y-4290000D02*
X3605000Y-4320000D01*
X3645000Y-3400000D02*
X3675000Y-3430000D01*
X3675000Y-3400000D02*
X3645000Y-3430000D01*
X3670000Y-7620000D02*
X3700000Y-7650000D01*
X3700000Y-7620000D02*
X3670000Y-7650000D01*
X3680000Y-4175000D02*
X3710000Y-4205000D01*
X3710000Y-4175000D02*
X3680000Y-4205000D01*
X3790000Y-6070000D02*
X3820000Y-6100000D01*
X3820000Y-6070000D02*
X3790000Y-6100000D01*
X3855000Y-1989000D02*
X3885000Y-2019000D01*
X3885000Y-1989000D02*
X3855000Y-2019000D01*
X3855000Y-2309000D02*
X3885000Y-2339000D01*
X3885000Y-2309000D02*
X3855000Y-2339000D01*
X4025000Y-4875000D02*
X4055000Y-4905000D01*
X4055000Y-4875000D02*
X4025000Y-4905000D01*
X4045000Y-4279000D02*
X4075000Y-4309000D01*
X4075000Y-4279000D02*
X4045000Y-4309000D01*
X4160000Y-5215000D02*
X4190000Y-5245000D01*
X4190000Y-5215000D02*
X4160000Y-5245000D01*
X4194000Y-4439000D02*
X4224000Y-4469000D01*
X4224000Y-4439000D02*
X4194000Y-4469000D01*
X4225777Y-3594424D02*
X4255777Y-3624424D01*
X4255777Y-3594424D02*
X4225777Y-3624424D01*
X4306956Y-3590956D02*
X4336956Y-3620956D01*
X4336956Y-3590956D02*
X4306956Y-3620956D01*
X4365000Y-5020000D02*
X4395000Y-5050000D01*
X4395000Y-5020000D02*
X4365000Y-5050000D01*
X4505000Y-3645000D02*
X4535000Y-3675000D01*
X4535000Y-3645000D02*
X4505000Y-3675000D01*
X4510000Y-564000D02*
X4540000Y-594000D01*
X4540000Y-564000D02*
X4510000Y-594000D01*
X4515000Y-3765000D02*
X4545000Y-3795000D01*
X4545000Y-3765000D02*
X4515000Y-3795000D01*
X4560000Y-1589000D02*
X4590000Y-1619000D01*
X4590000Y-1589000D02*
X4560000Y-1619000D01*
X4562862Y-1708624D02*
X4592862Y-1738624D01*
X4592862Y-1708624D02*
X4562862Y-1738624D01*
X4568500Y-1895000D02*
X4598500Y-1925000D01*
X4598500Y-1895000D02*
X4568500Y-1925000D01*
X4585000Y-1789000D02*
X4615000Y-1819000D01*
X4615000Y-1789000D02*
X4585000Y-1819000D01*
X4618500Y-1955000D02*
X4648500Y-1985000D01*
X4648500Y-1955000D02*
X4618500Y-1985000D01*
X4688500Y-1955000D02*
X4718500Y-1985000D01*
X4718500Y-1955000D02*
X4688500Y-1985000D01*
X4688500Y-4435000D02*
X4718500Y-4465000D01*
X4718500Y-4435000D02*
X4688500Y-4465000D01*
X4719209Y-4151291D02*
X4749209Y-4181291D01*
X4749209Y-4151291D02*
X4719209Y-4181291D01*
X4758500Y-1955000D02*
X4788500Y-1985000D01*
X4788500Y-1955000D02*
X4758500Y-1985000D01*
X4808500Y-1885000D02*
X4838500Y-1915000D01*
X4838500Y-1885000D02*
X4808500Y-1915000D01*
X4833157Y-4163762D02*
X4863157Y-4193762D01*
X4863157Y-4163762D02*
X4833157Y-4193762D01*
X4875000Y-3525000D02*
X4905000Y-3555000D01*
X4905000Y-3525000D02*
X4875000Y-3555000D01*
X4995000Y-3525000D02*
X5025000Y-3555000D01*
X5025000Y-3525000D02*
X4995000Y-3555000D01*
X4995000Y-5289000D02*
X5025000Y-5319000D01*
X5025000Y-5289000D02*
X4995000Y-5319000D01*
X5060000Y-4170500D02*
X5090000Y-4200500D01*
X5090000Y-4170500D02*
X5060000Y-4200500D01*
X5105000Y-4779000D02*
X5135000Y-4809000D01*
X5135000Y-4779000D02*
X5105000Y-4809000D01*
X5175000Y-4250500D02*
X5205000Y-4280500D01*
X5205000Y-4250500D02*
X5175000Y-4280500D01*
X5195000Y-4909000D02*
X5225000Y-4939000D01*
X5225000Y-4909000D02*
X5195000Y-4939000D01*
X5195000Y-5069000D02*
X5225000Y-5099000D01*
X5225000Y-5069000D02*
X5195000Y-5099000D01*
X5295000Y-4165500D02*
X5325000Y-4195500D01*
X5325000Y-4165500D02*
X5295000Y-4195500D01*
X5345000Y-4624950D02*
X5375000Y-4654950D01*
X5375000Y-4624950D02*
X5345000Y-4654950D01*
X5380000Y-3760000D02*
X5410000Y-3790000D01*
X5410000Y-3760000D02*
X5380000Y-3790000D01*
X5422000Y-2222000D02*
X5452000Y-2252000D01*
X5452000Y-2222000D02*
X5422000Y-2252000D01*
X5625000Y-3985000D02*
X5655000Y-4015000D01*
X5655000Y-3985000D02*
X5625000Y-4015000D01*
X5715000Y-1589000D02*
X5745000Y-1619000D01*
X5745000Y-1589000D02*
X5715000Y-1619000D01*
X5715000Y-3985000D02*
X5745000Y-4015000D01*
X5745000Y-3985000D02*
X5715000Y-4015000D01*
X5795000Y-3925000D02*
X5825000Y-3955000D01*
X5825000Y-3925000D02*
X5795000Y-3955000D01*
X6135000Y-4375000D02*
X6165000Y-4405000D01*
X6165000Y-4375000D02*
X6135000Y-4405000D01*
X6545000Y-5259000D02*
X6575000Y-5289000D01*
X6575000Y-5259000D02*
X6545000Y-5289000D01*
X24045000Y-1720000D02*
X24075000Y-1750000D01*
X24075000Y-1720000D02*
X24045000Y-1750000D01*
X24060000Y-2115000D02*
X24090000Y-2145000D01*
X24090000Y-2115000D02*
X24060000Y-2145000D01*
X25115000Y-1665000D02*
X25145000Y-1695000D01*
X25145000Y-1665000D02*
X25115000Y-1695000D01*
X25655000Y-1955000D02*
X25685000Y-1985000D01*
X25685000Y-1955000D02*
X25655000Y-1985000D01*
X25695000Y-1605000D02*
X25725000Y-1635000D01*
X25725000Y-1605000D02*
X25695000Y-1635000D01*
X25785000Y-2045000D02*
X25815000Y-2075000D01*
X25815000Y-2045000D02*
X25785000Y-2075000D01*
X26575000Y-1965000D02*
X26605000Y-1995000D01*
X26605000Y-1965000D02*
X26575000Y-1995000D01*
X28355000Y-165000D02*
X28385000Y-195000D01*
X28385000Y-165000D02*
X28355000Y-195000D01*
X619500Y-3245000D02*
G75*
G03*
X619500Y-3245000I-15000J0D01*
G01*
X2485000Y-3820000D02*
G75*
G03*
X2485000Y-3820000I-15000J0D01*
G01*
X2485000Y-3940000D02*
G75*
G03*
X2485000Y-3940000I-15000J0D01*
G01*
X2485000Y-4060000D02*
G75*
G03*
X2485000Y-4060000I-15000J0D01*
G01*
X2485000Y-4180000D02*
G75*
G03*
X2485000Y-4180000I-15000J0D01*
G01*
X2605000Y-3820000D02*
G75*
G03*
X2605000Y-3820000I-15000J0D01*
G01*
X2605000Y-3940000D02*
G75*
G03*
X2605000Y-3940000I-15000J0D01*
G01*
X2605000Y-4060000D02*
G75*
G03*
X2605000Y-4060000I-15000J0D01*
G01*
X2605000Y-4180000D02*
G75*
G03*
X2605000Y-4180000I-15000J0D01*
G01*
X2725000Y-3820000D02*
G75*
G03*
X2725000Y-3820000I-15000J0D01*
G01*
X2725000Y-3940000D02*
G75*
G03*
X2725000Y-3940000I-15000J0D01*
G01*
X2725000Y-4060000D02*
G75*
G03*
X2725000Y-4060000I-15000J0D01*
G01*
X2725000Y-4180000D02*
G75*
G03*
X2725000Y-4180000I-15000J0D01*
G01*
X2845000Y-3820000D02*
G75*
G03*
X2845000Y-3820000I-15000J0D01*
G01*
X2845000Y-3940000D02*
G75*
G03*
X2845000Y-3940000I-15000J0D01*
G01*
X2845000Y-4060000D02*
G75*
G03*
X2845000Y-4060000I-15000J0D01*
G01*
X2845000Y-4180000D02*
G75*
G03*
X2845000Y-4180000I-15000J0D01*
G01*
X4836500Y-3915000D02*
G75*
G03*
X4836500Y-3915000I-15000J0D01*
G01*
X4836500Y-4015000D02*
G75*
G03*
X4836500Y-4015000I-15000J0D01*
G01*
X4936500Y-3915000D02*
G75*
G03*
X4936500Y-3915000I-15000J0D01*
G01*
X4936500Y-4015000D02*
G75*
G03*
X4936500Y-4015000I-15000J0D01*
G01*
D12*
X1407500Y-150000D02*
X1407500Y-210000D01*
X1377500Y-180000D02*
X1437500Y-180000D01*
D10*
X1377500Y-140000D02*
X1377500Y-220000D01*
X1377500Y-220000D02*
G75*
G03*
X1437500Y-220000I30000J0D01*
G01*
X1437500Y-220000D02*
X1437500Y-140000D01*
X1437500Y-140000D02*
G75*
G03*
X1377500Y-140000I-30000J0D01*
G01*
D12*
X1407500Y-567000D02*
X1407500Y-627000D01*
X1377500Y-597000D02*
X1437500Y-597000D01*
D10*
X1377500Y-542000D02*
X1377500Y-652000D01*
X1377500Y-652000D02*
G75*
G03*
X1437500Y-652000I30000J0D01*
G01*
X1437500Y-652000D02*
X1437500Y-542000D01*
X1437500Y-542000D02*
G75*
G03*
X1377500Y-542000I-30000J0D01*
G01*
D12*
X2272500Y-150000D02*
X2272500Y-210000D01*
X2242500Y-180000D02*
X2302500Y-180000D01*
D10*
X2242500Y-140000D02*
X2242500Y-220000D01*
X2242500Y-220000D02*
G75*
G03*
X2302500Y-220000I30000J0D01*
G01*
X2302500Y-220000D02*
X2302500Y-140000D01*
X2302500Y-140000D02*
G75*
G03*
X2242500Y-140000I-30000J0D01*
G01*
D12*
X2272500Y-567000D02*
X2272500Y-627000D01*
X2242500Y-597000D02*
X2302500Y-597000D01*
D10*
X2242500Y-542000D02*
X2242500Y-652000D01*
X2242500Y-652000D02*
G75*
G03*
X2302500Y-652000I30000J0D01*
G01*
X2302500Y-652000D02*
X2302500Y-542000D01*
X2302500Y-542000D02*
G75*
G03*
X2242500Y-542000I-30000J0D01*
G01*
D13*
X307266Y-6253266D02*
X307266Y-6150734D01*
X204734Y-6150734D01*
X204734Y-6253266D01*
X307266Y-6253266D01*
X307266Y-6507266D02*
X307266Y-6404734D01*
X204734Y-6404734D01*
X204734Y-6507266D01*
X307266Y-6507266D01*
X307266Y-6761266D02*
X307266Y-6658734D01*
X204734Y-6658734D01*
X204734Y-6761266D01*
X307266Y-6761266D01*
X307266Y-7015266D02*
X307266Y-6912734D01*
X204734Y-6912734D01*
X204734Y-7015266D01*
X307266Y-7015266D01*
X307266Y-7269266D02*
X307266Y-7166734D01*
X204734Y-7166734D01*
X204734Y-7269266D01*
X307266Y-7269266D01*
X561266Y-6380266D02*
X561266Y-6277734D01*
X458734Y-6277734D01*
X458734Y-6380266D01*
X561266Y-6380266D01*
X561266Y-6634266D02*
X561266Y-6531734D01*
X458734Y-6531734D01*
X458734Y-6634266D01*
X561266Y-6634266D01*
X561266Y-6888266D02*
X561266Y-6785734D01*
X458734Y-6785734D01*
X458734Y-6888266D01*
X561266Y-6888266D01*
X561266Y-7142266D02*
X561266Y-7039734D01*
X458734Y-7039734D01*
X458734Y-7142266D01*
X561266Y-7142266D01*
X561266Y-7396266D02*
X561266Y-7293734D01*
X458734Y-7293734D01*
X458734Y-7396266D01*
X561266Y-7396266D01*
D14*
X12722490Y-8389500D02*
X12795990Y-8316000D01*
X12722490Y-8242500D01*
X12648990Y-8316000D01*
X12722490Y-8389500D01*
X13357490Y-8135500D02*
X13430990Y-8062000D01*
X13357490Y-7988500D01*
X13283990Y-8062000D01*
X13357490Y-8135500D01*
X13918000Y-8391500D02*
X13991500Y-8318000D01*
X13918000Y-8244500D01*
X13844500Y-8318000D01*
X13918000Y-8391500D01*
X14553000Y-8137500D02*
X14626500Y-8064000D01*
X14553000Y-7990500D01*
X14479500Y-8064000D01*
X14553000Y-8137500D01*
D15*
X500000Y-629000D02*
X650000Y-779000D01*
X650000Y-629000D02*
X500000Y-779000D01*
X650000Y-704000D02*
G75*
G03*
X650000Y-704000I-75000J0D01*
G01*
X737000Y-8239000D02*
X887000Y-8389000D01*
X887000Y-8239000D02*
X737000Y-8389000D01*
X887000Y-8314000D02*
G75*
G03*
X887000Y-8314000I-75000J0D01*
G01*
X740000Y-4439000D02*
X890000Y-4589000D01*
X890000Y-4439000D02*
X740000Y-4589000D01*
X890000Y-4514000D02*
G75*
G03*
X890000Y-4514000I-75000J0D01*
G01*
X980000Y-2539000D02*
X1130000Y-2689000D01*
X1130000Y-2539000D02*
X980000Y-2689000D01*
X1130000Y-2614000D02*
G75*
G03*
X1130000Y-2614000I-75000J0D01*
G01*
X990000Y-8241500D02*
X1140000Y-8391500D01*
X1140000Y-8241500D02*
X990000Y-8391500D01*
X1140000Y-8316500D02*
G75*
G03*
X1140000Y-8316500I-75000J0D01*
G01*
X1135000Y-375000D02*
X1285000Y-525000D01*
X1285000Y-375000D02*
X1135000Y-525000D01*
X1285000Y-450000D02*
G75*
G03*
X1285000Y-450000I-75000J0D01*
G01*
X1216000Y-4436000D02*
X1366000Y-4586000D01*
X1366000Y-4436000D02*
X1216000Y-4586000D01*
X1366000Y-4511000D02*
G75*
G03*
X1366000Y-4511000I-75000J0D01*
G01*
X1372000Y-7985000D02*
X1522000Y-8135000D01*
X1522000Y-7985000D02*
X1372000Y-8135000D01*
X1522000Y-8060000D02*
G75*
G03*
X1522000Y-8060000I-75000J0D01*
G01*
X1375000Y-4185000D02*
X1525000Y-4335000D01*
X1525000Y-4185000D02*
X1375000Y-4335000D01*
X1525000Y-4260000D02*
G75*
G03*
X1525000Y-4260000I-75000J0D01*
G01*
X1615000Y-2285000D02*
X1765000Y-2435000D01*
X1765000Y-2285000D02*
X1615000Y-2435000D01*
X1765000Y-2360000D02*
G75*
G03*
X1765000Y-2360000I-75000J0D01*
G01*
X1625000Y-7987500D02*
X1775000Y-8137500D01*
X1775000Y-7987500D02*
X1625000Y-8137500D01*
X1775000Y-8062500D02*
G75*
G03*
X1775000Y-8062500I-75000J0D01*
G01*
X1691000Y-6339000D02*
X1841000Y-6489000D01*
X1841000Y-6339000D02*
X1691000Y-6489000D01*
X1841000Y-6414000D02*
G75*
G03*
X1841000Y-6414000I-75000J0D01*
G01*
X1851000Y-4182000D02*
X2001000Y-4332000D01*
X2001000Y-4182000D02*
X1851000Y-4332000D01*
X2001000Y-4257000D02*
G75*
G03*
X2001000Y-4257000I-75000J0D01*
G01*
X2326000Y-6085000D02*
X2476000Y-6235000D01*
X2476000Y-6085000D02*
X2326000Y-6235000D01*
X2476000Y-6160000D02*
G75*
G03*
X2476000Y-6160000I-75000J0D01*
G01*
X2400000Y-629000D02*
X2550000Y-779000D01*
X2550000Y-629000D02*
X2400000Y-779000D01*
X2550000Y-704000D02*
G75*
G03*
X2550000Y-704000I-75000J0D01*
G01*
X3035000Y-375000D02*
X3185000Y-525000D01*
X3185000Y-375000D02*
X3035000Y-525000D01*
X3185000Y-450000D02*
G75*
G03*
X3185000Y-450000I-75000J0D01*
G01*
X3120000Y-8239000D02*
X3270000Y-8389000D01*
X3270000Y-8239000D02*
X3120000Y-8389000D01*
X3270000Y-8314000D02*
G75*
G03*
X3270000Y-8314000I-75000J0D01*
G01*
X3360000Y-2539000D02*
X3510000Y-2689000D01*
X3510000Y-2539000D02*
X3360000Y-2689000D01*
X3510000Y-2614000D02*
G75*
G03*
X3510000Y-2614000I-75000J0D01*
G01*
X3368000Y-8241000D02*
X3518000Y-8391000D01*
X3518000Y-8241000D02*
X3368000Y-8391000D01*
X3518000Y-8316000D02*
G75*
G03*
X3518000Y-8316000I-75000J0D01*
G01*
X3755000Y-7985000D02*
X3905000Y-8135000D01*
X3905000Y-7985000D02*
X3755000Y-8135000D01*
X3905000Y-8060000D02*
G75*
G03*
X3905000Y-8060000I-75000J0D01*
G01*
X3836000Y-4438000D02*
X3986000Y-4588000D01*
X3986000Y-4438000D02*
X3836000Y-4588000D01*
X3986000Y-4513000D02*
G75*
G03*
X3986000Y-4513000I-75000J0D01*
G01*
X3995000Y-2285000D02*
X4145000Y-2435000D01*
X4145000Y-2285000D02*
X3995000Y-2435000D01*
X4145000Y-2360000D02*
G75*
G03*
X4145000Y-2360000I-75000J0D01*
G01*
X4003000Y-7987000D02*
X4153000Y-8137000D01*
X4153000Y-7987000D02*
X4003000Y-8137000D01*
X4153000Y-8062000D02*
G75*
G03*
X4153000Y-8062000I-75000J0D01*
G01*
X4300000Y-629000D02*
X4450000Y-779000D01*
X4450000Y-629000D02*
X4300000Y-779000D01*
X4450000Y-704000D02*
G75*
G03*
X4450000Y-704000I-75000J0D01*
G01*
X4471000Y-4184000D02*
X4621000Y-4334000D01*
X4621000Y-4184000D02*
X4471000Y-4334000D01*
X4621000Y-4259000D02*
G75*
G03*
X4621000Y-4259000I-75000J0D01*
G01*
X4787000Y-6339000D02*
X4937000Y-6489000D01*
X4937000Y-6339000D02*
X4787000Y-6489000D01*
X4937000Y-6414000D02*
G75*
G03*
X4937000Y-6414000I-75000J0D01*
G01*
X4935000Y-375000D02*
X5085000Y-525000D01*
X5085000Y-375000D02*
X4935000Y-525000D01*
X5085000Y-450000D02*
G75*
G03*
X5085000Y-450000I-75000J0D01*
G01*
X5250000Y-2539000D02*
X5400000Y-2689000D01*
X5400000Y-2539000D02*
X5250000Y-2689000D01*
X5400000Y-2614000D02*
G75*
G03*
X5400000Y-2614000I-75000J0D01*
G01*
X5422000Y-6085000D02*
X5572000Y-6235000D01*
X5572000Y-6085000D02*
X5422000Y-6235000D01*
X5572000Y-6160000D02*
G75*
G03*
X5572000Y-6160000I-75000J0D01*
G01*
X5504000Y-8239000D02*
X5654000Y-8389000D01*
X5654000Y-8239000D02*
X5504000Y-8389000D01*
X5654000Y-8314000D02*
G75*
G03*
X5654000Y-8314000I-75000J0D01*
G01*
X5743000Y-4438000D02*
X5893000Y-4588000D01*
X5893000Y-4438000D02*
X5743000Y-4588000D01*
X5893000Y-4513000D02*
G75*
G03*
X5893000Y-4513000I-75000J0D01*
G01*
X5746000Y-8241500D02*
X5896000Y-8391500D01*
X5896000Y-8241500D02*
X5746000Y-8391500D01*
X5896000Y-8316500D02*
G75*
G03*
X5896000Y-8316500I-75000J0D01*
G01*
X5885000Y-2285000D02*
X6035000Y-2435000D01*
X6035000Y-2285000D02*
X5885000Y-2435000D01*
X6035000Y-2360000D02*
G75*
G03*
X6035000Y-2360000I-75000J0D01*
G01*
X6139000Y-7985000D02*
X6289000Y-8135000D01*
X6289000Y-7985000D02*
X6139000Y-8135000D01*
X6289000Y-8060000D02*
G75*
G03*
X6289000Y-8060000I-75000J0D01*
G01*
X6200000Y-629000D02*
X6350000Y-779000D01*
X6350000Y-629000D02*
X6200000Y-779000D01*
X6350000Y-704000D02*
G75*
G03*
X6350000Y-704000I-75000J0D01*
G01*
X6378000Y-4184000D02*
X6528000Y-4334000D01*
X6528000Y-4184000D02*
X6378000Y-4334000D01*
X6528000Y-4259000D02*
G75*
G03*
X6528000Y-4259000I-75000J0D01*
G01*
X6381000Y-7987500D02*
X6531000Y-8137500D01*
X6531000Y-7987500D02*
X6381000Y-8137500D01*
X6531000Y-8062500D02*
G75*
G03*
X6531000Y-8062500I-75000J0D01*
G01*
X6697000Y-6339000D02*
X6847000Y-6489000D01*
X6847000Y-6339000D02*
X6697000Y-6489000D01*
X6847000Y-6414000D02*
G75*
G03*
X6847000Y-6414000I-75000J0D01*
G01*
X6835000Y-375000D02*
X6985000Y-525000D01*
X6985000Y-375000D02*
X6835000Y-525000D01*
X6985000Y-450000D02*
G75*
G03*
X6985000Y-450000I-75000J0D01*
G01*
X7150000Y-2539000D02*
X7300000Y-2689000D01*
X7300000Y-2539000D02*
X7150000Y-2689000D01*
X7300000Y-2614000D02*
G75*
G03*
X7300000Y-2614000I-75000J0D01*
G01*
X7332000Y-6085000D02*
X7482000Y-6235000D01*
X7482000Y-6085000D02*
X7332000Y-6235000D01*
X7482000Y-6160000D02*
G75*
G03*
X7482000Y-6160000I-75000J0D01*
G01*
X7648000Y-4437000D02*
X7798000Y-4587000D01*
X7798000Y-4437000D02*
X7648000Y-4587000D01*
X7798000Y-4512000D02*
G75*
G03*
X7798000Y-4512000I-75000J0D01*
G01*
X7785000Y-2285000D02*
X7935000Y-2435000D01*
X7935000Y-2285000D02*
X7785000Y-2435000D01*
X7935000Y-2360000D02*
G75*
G03*
X7935000Y-2360000I-75000J0D01*
G01*
X8100000Y-629000D02*
X8250000Y-779000D01*
X8250000Y-629000D02*
X8100000Y-779000D01*
X8250000Y-704000D02*
G75*
G03*
X8250000Y-704000I-75000J0D01*
G01*
X8283000Y-4183000D02*
X8433000Y-4333000D01*
X8433000Y-4183000D02*
X8283000Y-4333000D01*
X8433000Y-4258000D02*
G75*
G03*
X8433000Y-4258000I-75000J0D01*
G01*
X8602000Y-6339000D02*
X8752000Y-6489000D01*
X8752000Y-6339000D02*
X8602000Y-6489000D01*
X8752000Y-6414000D02*
G75*
G03*
X8752000Y-6414000I-75000J0D01*
G01*
X8735000Y-375000D02*
X8885000Y-525000D01*
X8885000Y-375000D02*
X8735000Y-525000D01*
X8885000Y-450000D02*
G75*
G03*
X8885000Y-450000I-75000J0D01*
G01*
X9050000Y-2539000D02*
X9200000Y-2689000D01*
X9200000Y-2539000D02*
X9050000Y-2689000D01*
X9200000Y-2614000D02*
G75*
G03*
X9200000Y-2614000I-75000J0D01*
G01*
X9237000Y-6085000D02*
X9387000Y-6235000D01*
X9387000Y-6085000D02*
X9237000Y-6235000D01*
X9387000Y-6160000D02*
G75*
G03*
X9387000Y-6160000I-75000J0D01*
G01*
X9556000Y-4440000D02*
X9706000Y-4590000D01*
X9706000Y-4440000D02*
X9556000Y-4590000D01*
X9706000Y-4515000D02*
G75*
G03*
X9706000Y-4515000I-75000J0D01*
G01*
X9685000Y-2285000D02*
X9835000Y-2435000D01*
X9835000Y-2285000D02*
X9685000Y-2435000D01*
X9835000Y-2360000D02*
G75*
G03*
X9835000Y-2360000I-75000J0D01*
G01*
X10000000Y-629000D02*
X10150000Y-779000D01*
X10150000Y-629000D02*
X10000000Y-779000D01*
X10150000Y-704000D02*
G75*
G03*
X10150000Y-704000I-75000J0D01*
G01*
X10191000Y-4186000D02*
X10341000Y-4336000D01*
X10341000Y-4186000D02*
X10191000Y-4336000D01*
X10341000Y-4261000D02*
G75*
G03*
X10341000Y-4261000I-75000J0D01*
G01*
X10513000Y-6339000D02*
X10663000Y-6489000D01*
X10663000Y-6339000D02*
X10513000Y-6489000D01*
X10663000Y-6414000D02*
G75*
G03*
X10663000Y-6414000I-75000J0D01*
G01*
X10635000Y-375000D02*
X10785000Y-525000D01*
X10785000Y-375000D02*
X10635000Y-525000D01*
X10785000Y-450000D02*
G75*
G03*
X10785000Y-450000I-75000J0D01*
G01*
X10950000Y-2539000D02*
X11100000Y-2689000D01*
X11100000Y-2539000D02*
X10950000Y-2689000D01*
X11100000Y-2614000D02*
G75*
G03*
X11100000Y-2614000I-75000J0D01*
G01*
X11148000Y-6085000D02*
X11298000Y-6235000D01*
X11298000Y-6085000D02*
X11148000Y-6235000D01*
X11298000Y-6160000D02*
G75*
G03*
X11298000Y-6160000I-75000J0D01*
G01*
X11462000Y-4442000D02*
X11612000Y-4592000D01*
X11612000Y-4442000D02*
X11462000Y-4592000D01*
X11612000Y-4517000D02*
G75*
G03*
X11612000Y-4517000I-75000J0D01*
G01*
X11585000Y-2285000D02*
X11735000Y-2435000D01*
X11735000Y-2285000D02*
X11585000Y-2435000D01*
X11735000Y-2360000D02*
G75*
G03*
X11735000Y-2360000I-75000J0D01*
G01*
X11900000Y-629000D02*
X12050000Y-779000D01*
X12050000Y-629000D02*
X11900000Y-779000D01*
X12050000Y-704000D02*
G75*
G03*
X12050000Y-704000I-75000J0D01*
G01*
X12097000Y-4188000D02*
X12247000Y-4338000D01*
X12247000Y-4188000D02*
X12097000Y-4338000D01*
X12247000Y-4263000D02*
G75*
G03*
X12247000Y-4263000I-75000J0D01*
G01*
X12421000Y-6339000D02*
X12571000Y-6489000D01*
X12571000Y-6339000D02*
X12421000Y-6489000D01*
X12571000Y-6414000D02*
G75*
G03*
X12571000Y-6414000I-75000J0D01*
G01*
X12535000Y-375000D02*
X12685000Y-525000D01*
X12685000Y-375000D02*
X12535000Y-525000D01*
X12685000Y-450000D02*
G75*
G03*
X12685000Y-450000I-75000J0D01*
G01*
X12850000Y-2539000D02*
X13000000Y-2689000D01*
X13000000Y-2539000D02*
X12850000Y-2689000D01*
X13000000Y-2614000D02*
G75*
G03*
X13000000Y-2614000I-75000J0D01*
G01*
X13056000Y-6085000D02*
X13206000Y-6235000D01*
X13206000Y-6085000D02*
X13056000Y-6235000D01*
X13206000Y-6160000D02*
G75*
G03*
X13206000Y-6160000I-75000J0D01*
G01*
X13367000Y-4442000D02*
X13517000Y-4592000D01*
X13517000Y-4442000D02*
X13367000Y-4592000D01*
X13517000Y-4517000D02*
G75*
G03*
X13517000Y-4517000I-75000J0D01*
G01*
X13485000Y-2285000D02*
X13635000Y-2435000D01*
X13635000Y-2285000D02*
X13485000Y-2435000D01*
X13635000Y-2360000D02*
G75*
G03*
X13635000Y-2360000I-75000J0D01*
G01*
X13800000Y-629000D02*
X13950000Y-779000D01*
X13950000Y-629000D02*
X13800000Y-779000D01*
X13950000Y-704000D02*
G75*
G03*
X13950000Y-704000I-75000J0D01*
G01*
X14002000Y-4188000D02*
X14152000Y-4338000D01*
X14152000Y-4188000D02*
X14002000Y-4338000D01*
X14152000Y-4263000D02*
G75*
G03*
X14152000Y-4263000I-75000J0D01*
G01*
X14330000Y-6339000D02*
X14480000Y-6489000D01*
X14480000Y-6339000D02*
X14330000Y-6489000D01*
X14480000Y-6414000D02*
G75*
G03*
X14480000Y-6414000I-75000J0D01*
G01*
X14435000Y-375000D02*
X14585000Y-525000D01*
X14585000Y-375000D02*
X14435000Y-525000D01*
X14585000Y-450000D02*
G75*
G03*
X14585000Y-450000I-75000J0D01*
G01*
X14750000Y-2539000D02*
X14900000Y-2689000D01*
X14900000Y-2539000D02*
X14750000Y-2689000D01*
X14900000Y-2614000D02*
G75*
G03*
X14900000Y-2614000I-75000J0D01*
G01*
X14965000Y-6085000D02*
X15115000Y-6235000D01*
X15115000Y-6085000D02*
X14965000Y-6235000D01*
X15115000Y-6160000D02*
G75*
G03*
X15115000Y-6160000I-75000J0D01*
G01*
X15278500Y-4439000D02*
X15428500Y-4589000D01*
X15428500Y-4439000D02*
X15278500Y-4589000D01*
X15428500Y-4514000D02*
G75*
G03*
X15428500Y-4514000I-75000J0D01*
G01*
X15385000Y-2285000D02*
X15535000Y-2435000D01*
X15535000Y-2285000D02*
X15385000Y-2435000D01*
X15535000Y-2360000D02*
G75*
G03*
X15535000Y-2360000I-75000J0D01*
G01*
X15700000Y-629000D02*
X15850000Y-779000D01*
X15850000Y-629000D02*
X15700000Y-779000D01*
X15850000Y-704000D02*
G75*
G03*
X15850000Y-704000I-75000J0D01*
G01*
X15913500Y-4185000D02*
X16063500Y-4335000D01*
X16063500Y-4185000D02*
X15913500Y-4335000D01*
X16063500Y-4260000D02*
G75*
G03*
X16063500Y-4260000I-75000J0D01*
G01*
X16236000Y-6339000D02*
X16386000Y-6489000D01*
X16386000Y-6339000D02*
X16236000Y-6489000D01*
X16386000Y-6414000D02*
G75*
G03*
X16386000Y-6414000I-75000J0D01*
G01*
X16335000Y-375000D02*
X16485000Y-525000D01*
X16485000Y-375000D02*
X16335000Y-525000D01*
X16485000Y-450000D02*
G75*
G03*
X16485000Y-450000I-75000J0D01*
G01*
X16650000Y-2539000D02*
X16800000Y-2689000D01*
X16800000Y-2539000D02*
X16650000Y-2689000D01*
X16800000Y-2614000D02*
G75*
G03*
X16800000Y-2614000I-75000J0D01*
G01*
X16871000Y-6085000D02*
X17021000Y-6235000D01*
X17021000Y-6085000D02*
X16871000Y-6235000D01*
X17021000Y-6160000D02*
G75*
G03*
X17021000Y-6160000I-75000J0D01*
G01*
X17178500Y-4439000D02*
X17328500Y-4589000D01*
X17328500Y-4439000D02*
X17178500Y-4589000D01*
X17328500Y-4514000D02*
G75*
G03*
X17328500Y-4514000I-75000J0D01*
G01*
X17285000Y-2285000D02*
X17435000Y-2435000D01*
X17435000Y-2285000D02*
X17285000Y-2435000D01*
X17435000Y-2360000D02*
G75*
G03*
X17435000Y-2360000I-75000J0D01*
G01*
X17610000Y-629000D02*
X17760000Y-779000D01*
X17760000Y-629000D02*
X17610000Y-779000D01*
X17760000Y-704000D02*
G75*
G03*
X17760000Y-704000I-75000J0D01*
G01*
X17813500Y-4185000D02*
X17963500Y-4335000D01*
X17963500Y-4185000D02*
X17813500Y-4335000D01*
X17963500Y-4260000D02*
G75*
G03*
X17963500Y-4260000I-75000J0D01*
G01*
X18143000Y-6339000D02*
X18293000Y-6489000D01*
X18293000Y-6339000D02*
X18143000Y-6489000D01*
X18293000Y-6414000D02*
G75*
G03*
X18293000Y-6414000I-75000J0D01*
G01*
X18245000Y-375000D02*
X18395000Y-525000D01*
X18395000Y-375000D02*
X18245000Y-525000D01*
X18395000Y-450000D02*
G75*
G03*
X18395000Y-450000I-75000J0D01*
G01*
X18550000Y-2539000D02*
X18700000Y-2689000D01*
X18700000Y-2539000D02*
X18550000Y-2689000D01*
X18700000Y-2614000D02*
G75*
G03*
X18700000Y-2614000I-75000J0D01*
G01*
X18778000Y-6085000D02*
X18928000Y-6235000D01*
X18928000Y-6085000D02*
X18778000Y-6235000D01*
X18928000Y-6160000D02*
G75*
G03*
X18928000Y-6160000I-75000J0D01*
G01*
X19078500Y-4439000D02*
X19228500Y-4589000D01*
X19228500Y-4439000D02*
X19078500Y-4589000D01*
X19228500Y-4514000D02*
G75*
G03*
X19228500Y-4514000I-75000J0D01*
G01*
X19185000Y-2285000D02*
X19335000Y-2435000D01*
X19335000Y-2285000D02*
X19185000Y-2435000D01*
X19335000Y-2360000D02*
G75*
G03*
X19335000Y-2360000I-75000J0D01*
G01*
X19520000Y-629000D02*
X19670000Y-779000D01*
X19670000Y-629000D02*
X19520000Y-779000D01*
X19670000Y-704000D02*
G75*
G03*
X19670000Y-704000I-75000J0D01*
G01*
X19713500Y-4185000D02*
X19863500Y-4335000D01*
X19863500Y-4185000D02*
X19713500Y-4335000D01*
X19863500Y-4260000D02*
G75*
G03*
X19863500Y-4260000I-75000J0D01*
G01*
X19784500Y-8241000D02*
X19934500Y-8391000D01*
X19934500Y-8241000D02*
X19784500Y-8391000D01*
X19934500Y-8316000D02*
G75*
G03*
X19934500Y-8316000I-75000J0D01*
G01*
X20047000Y-6339000D02*
X20197000Y-6489000D01*
X20197000Y-6339000D02*
X20047000Y-6489000D01*
X20197000Y-6414000D02*
G75*
G03*
X20197000Y-6414000I-75000J0D01*
G01*
X20155000Y-375000D02*
X20305000Y-525000D01*
X20305000Y-375000D02*
X20155000Y-525000D01*
X20305000Y-450000D02*
G75*
G03*
X20305000Y-450000I-75000J0D01*
G01*
X20419500Y-7987000D02*
X20569500Y-8137000D01*
X20569500Y-7987000D02*
X20419500Y-8137000D01*
X20569500Y-8062000D02*
G75*
G03*
X20569500Y-8062000I-75000J0D01*
G01*
X20450000Y-2539000D02*
X20600000Y-2689000D01*
X20600000Y-2539000D02*
X20450000Y-2689000D01*
X20600000Y-2614000D02*
G75*
G03*
X20600000Y-2614000I-75000J0D01*
G01*
X20682000Y-6085000D02*
X20832000Y-6235000D01*
X20832000Y-6085000D02*
X20682000Y-6235000D01*
X20832000Y-6160000D02*
G75*
G03*
X20832000Y-6160000I-75000J0D01*
G01*
X20983500Y-4439000D02*
X21133500Y-4589000D01*
X21133500Y-4439000D02*
X20983500Y-4589000D01*
X21133500Y-4514000D02*
G75*
G03*
X21133500Y-4514000I-75000J0D01*
G01*
X21085000Y-2285000D02*
X21235000Y-2435000D01*
X21235000Y-2285000D02*
X21085000Y-2435000D01*
X21235000Y-2360000D02*
G75*
G03*
X21235000Y-2360000I-75000J0D01*
G01*
X21430000Y-629000D02*
X21580000Y-779000D01*
X21580000Y-629000D02*
X21430000Y-779000D01*
X21580000Y-704000D02*
G75*
G03*
X21580000Y-704000I-75000J0D01*
G01*
X21618500Y-4185000D02*
X21768500Y-4335000D01*
X21768500Y-4185000D02*
X21618500Y-4335000D01*
X21768500Y-4260000D02*
G75*
G03*
X21768500Y-4260000I-75000J0D01*
G01*
X21936000Y-8245500D02*
X22086000Y-8395500D01*
X22086000Y-8245500D02*
X21936000Y-8395500D01*
X22086000Y-8320500D02*
G75*
G03*
X22086000Y-8320500I-75000J0D01*
G01*
X21950000Y-6339000D02*
X22100000Y-6489000D01*
X22100000Y-6339000D02*
X21950000Y-6489000D01*
X22100000Y-6414000D02*
G75*
G03*
X22100000Y-6414000I-75000J0D01*
G01*
X22065000Y-375000D02*
X22215000Y-525000D01*
X22215000Y-375000D02*
X22065000Y-525000D01*
X22215000Y-450000D02*
G75*
G03*
X22215000Y-450000I-75000J0D01*
G01*
X22164500Y-8246000D02*
X22314500Y-8396000D01*
X22314500Y-8246000D02*
X22164500Y-8396000D01*
X22314500Y-8321000D02*
G75*
G03*
X22314500Y-8321000I-75000J0D01*
G01*
X22373500Y-2539000D02*
X22523500Y-2689000D01*
X22523500Y-2539000D02*
X22373500Y-2689000D01*
X22523500Y-2614000D02*
G75*
G03*
X22523500Y-2614000I-75000J0D01*
G01*
X22571000Y-7991500D02*
X22721000Y-8141500D01*
X22721000Y-7991500D02*
X22571000Y-8141500D01*
X22721000Y-8066500D02*
G75*
G03*
X22721000Y-8066500I-75000J0D01*
G01*
X22585000Y-6085000D02*
X22735000Y-6235000D01*
X22735000Y-6085000D02*
X22585000Y-6235000D01*
X22735000Y-6160000D02*
G75*
G03*
X22735000Y-6160000I-75000J0D01*
G01*
X22799500Y-7992000D02*
X22949500Y-8142000D01*
X22949500Y-7992000D02*
X22799500Y-8142000D01*
X22949500Y-8067000D02*
G75*
G03*
X22949500Y-8067000I-75000J0D01*
G01*
X22883500Y-4439000D02*
X23033500Y-4589000D01*
X23033500Y-4439000D02*
X22883500Y-4589000D01*
X23033500Y-4514000D02*
G75*
G03*
X23033500Y-4514000I-75000J0D01*
G01*
X23008500Y-2285000D02*
X23158500Y-2435000D01*
X23158500Y-2285000D02*
X23008500Y-2435000D01*
X23158500Y-2360000D02*
G75*
G03*
X23158500Y-2360000I-75000J0D01*
G01*
X23350000Y-629000D02*
X23500000Y-779000D01*
X23500000Y-629000D02*
X23350000Y-779000D01*
X23500000Y-704000D02*
G75*
G03*
X23500000Y-704000I-75000J0D01*
G01*
X23518500Y-4185000D02*
X23668500Y-4335000D01*
X23668500Y-4185000D02*
X23518500Y-4335000D01*
X23668500Y-4260000D02*
G75*
G03*
X23668500Y-4260000I-75000J0D01*
G01*
X23985000Y-375000D02*
X24135000Y-525000D01*
X24135000Y-375000D02*
X23985000Y-525000D01*
X24135000Y-450000D02*
G75*
G03*
X24135000Y-450000I-75000J0D01*
G01*
X24300000Y-2539000D02*
X24450000Y-2689000D01*
X24450000Y-2539000D02*
X24300000Y-2689000D01*
X24450000Y-2614000D02*
G75*
G03*
X24450000Y-2614000I-75000J0D01*
G01*
X24316000Y-8241500D02*
X24466000Y-8391500D01*
X24466000Y-8241500D02*
X24316000Y-8391500D01*
X24466000Y-8316500D02*
G75*
G03*
X24466000Y-8316500I-75000J0D01*
G01*
X24549500Y-8246000D02*
X24699500Y-8396000D01*
X24699500Y-8246000D02*
X24549500Y-8396000D01*
X24699500Y-8321000D02*
G75*
G03*
X24699500Y-8321000I-75000J0D01*
G01*
X24560500Y-6341000D02*
X24710500Y-6491000D01*
X24710500Y-6341000D02*
X24560500Y-6491000D01*
X24710500Y-6416000D02*
G75*
G03*
X24710500Y-6416000I-75000J0D01*
G01*
X24935000Y-2285000D02*
X25085000Y-2435000D01*
X25085000Y-2285000D02*
X24935000Y-2435000D01*
X25085000Y-2360000D02*
G75*
G03*
X25085000Y-2360000I-75000J0D01*
G01*
X24951000Y-7987500D02*
X25101000Y-8137500D01*
X25101000Y-7987500D02*
X24951000Y-8137500D01*
X25101000Y-8062500D02*
G75*
G03*
X25101000Y-8062500I-75000J0D01*
G01*
X25184500Y-7992000D02*
X25334500Y-8142000D01*
X25334500Y-7992000D02*
X25184500Y-8142000D01*
X25334500Y-8067000D02*
G75*
G03*
X25334500Y-8067000I-75000J0D01*
G01*
X25195500Y-6087000D02*
X25345500Y-6237000D01*
X25345500Y-6087000D02*
X25195500Y-6237000D01*
X25345500Y-6162000D02*
G75*
G03*
X25345500Y-6162000I-75000J0D01*
G01*
X25260000Y-629000D02*
X25410000Y-779000D01*
X25410000Y-629000D02*
X25260000Y-779000D01*
X25410000Y-704000D02*
G75*
G03*
X25410000Y-704000I-75000J0D01*
G01*
X25502500Y-6341000D02*
X25652500Y-6491000D01*
X25652500Y-6341000D02*
X25502500Y-6491000D01*
X25652500Y-6416000D02*
G75*
G03*
X25652500Y-6416000I-75000J0D01*
G01*
X25895000Y-375000D02*
X26045000Y-525000D01*
X26045000Y-375000D02*
X25895000Y-525000D01*
X26045000Y-450000D02*
G75*
G03*
X26045000Y-450000I-75000J0D01*
G01*
X25980000Y-4439000D02*
X26130000Y-4589000D01*
X26130000Y-4439000D02*
X25980000Y-4589000D01*
X26130000Y-4514000D02*
G75*
G03*
X26130000Y-4514000I-75000J0D01*
G01*
X26137500Y-6087000D02*
X26287500Y-6237000D01*
X26287500Y-6087000D02*
X26137500Y-6237000D01*
X26287500Y-6162000D02*
G75*
G03*
X26287500Y-6162000I-75000J0D01*
G01*
X26213500Y-629000D02*
X26363500Y-779000D01*
X26363500Y-629000D02*
X26213500Y-779000D01*
X26363500Y-704000D02*
G75*
G03*
X26363500Y-704000I-75000J0D01*
G01*
X26615000Y-4185000D02*
X26765000Y-4335000D01*
X26765000Y-4185000D02*
X26615000Y-4335000D01*
X26765000Y-4260000D02*
G75*
G03*
X26765000Y-4260000I-75000J0D01*
G01*
X26693000Y-2539000D02*
X26843000Y-2689000D01*
X26843000Y-2539000D02*
X26693000Y-2689000D01*
X26843000Y-2614000D02*
G75*
G03*
X26843000Y-2614000I-75000J0D01*
G01*
X26696000Y-8240000D02*
X26846000Y-8390000D01*
X26846000Y-8240000D02*
X26696000Y-8390000D01*
X26846000Y-8315000D02*
G75*
G03*
X26846000Y-8315000I-75000J0D01*
G01*
X26848500Y-375000D02*
X26998500Y-525000D01*
X26998500Y-375000D02*
X26848500Y-525000D01*
X26998500Y-450000D02*
G75*
G03*
X26998500Y-450000I-75000J0D01*
G01*
X26932500Y-8246000D02*
X27082500Y-8396000D01*
X27082500Y-8246000D02*
X26932500Y-8396000D01*
X27082500Y-8321000D02*
G75*
G03*
X27082500Y-8321000I-75000J0D01*
G01*
X27168500Y-6341000D02*
X27318500Y-6491000D01*
X27318500Y-6341000D02*
X27168500Y-6491000D01*
X27318500Y-6416000D02*
G75*
G03*
X27318500Y-6416000I-75000J0D01*
G01*
X27170000Y-629000D02*
X27320000Y-779000D01*
X27320000Y-629000D02*
X27170000Y-779000D01*
X27320000Y-704000D02*
G75*
G03*
X27320000Y-704000I-75000J0D01*
G01*
X27328000Y-2285000D02*
X27478000Y-2435000D01*
X27478000Y-2285000D02*
X27328000Y-2435000D01*
X27478000Y-2360000D02*
G75*
G03*
X27478000Y-2360000I-75000J0D01*
G01*
X27331000Y-7986000D02*
X27481000Y-8136000D01*
X27481000Y-7986000D02*
X27331000Y-8136000D01*
X27481000Y-8061000D02*
G75*
G03*
X27481000Y-8061000I-75000J0D01*
G01*
X27567500Y-7992000D02*
X27717500Y-8142000D01*
X27717500Y-7992000D02*
X27567500Y-8142000D01*
X27717500Y-8067000D02*
G75*
G03*
X27717500Y-8067000I-75000J0D01*
G01*
X27803500Y-6087000D02*
X27953500Y-6237000D01*
X27953500Y-6087000D02*
X27803500Y-6237000D01*
X27953500Y-6162000D02*
G75*
G03*
X27953500Y-6162000I-75000J0D01*
G01*
X27805000Y-375000D02*
X27955000Y-525000D01*
X27955000Y-375000D02*
X27805000Y-525000D01*
X27955000Y-450000D02*
G75*
G03*
X27955000Y-450000I-75000J0D01*
G01*
D16*
X2400000Y-2670000D02*
X2640000Y-2910000D01*
X2640000Y-2670000D02*
X2400000Y-2910000D01*
X2520000Y-2670000D02*
X2520000Y-2910000D01*
X2400000Y-2790000D02*
X2640000Y-2790000D01*
D10*
X2395000Y-2910000D02*
X2645000Y-2910000D01*
X2645000Y-2910000D02*
G75*
G03*
X2645000Y-2670000I0J120000D01*
G01*
X2645000Y-2670000D02*
X2395000Y-2670000D01*
X2395000Y-2670000D02*
G75*
G03*
X2395000Y-2910000I0J-120000D01*
G01*
D16*
X12750000Y-4660000D02*
X12990000Y-4900000D01*
X12990000Y-4660000D02*
X12750000Y-4900000D01*
X12870000Y-4660000D02*
X12870000Y-4900000D01*
X12750000Y-4780000D02*
X12990000Y-4780000D01*
D10*
X12745000Y-4900000D02*
X12995000Y-4900000D01*
X12995000Y-4900000D02*
G75*
G03*
X12995000Y-4660000I0J120000D01*
G01*
X12995000Y-4660000D02*
X12745000Y-4660000D01*
X12745000Y-4660000D02*
G75*
G03*
X12745000Y-4900000I0J-120000D01*
G01*
D16*
X18930000Y-8400000D02*
X19170000Y-8640000D01*
X19170000Y-8400000D02*
X18930000Y-8640000D01*
X19050000Y-8400000D02*
X19050000Y-8640000D01*
X18930000Y-8520000D02*
X19170000Y-8520000D01*
D10*
X18925000Y-8640000D02*
X19175000Y-8640000D01*
X19175000Y-8640000D02*
G75*
G03*
X19175000Y-8400000I0J120000D01*
G01*
X19175000Y-8400000D02*
X18925000Y-8400000D01*
X18925000Y-8400000D02*
G75*
G03*
X18925000Y-8640000I0J-120000D01*
G01*
D16*
X25885000Y-2670000D02*
X26125000Y-2910000D01*
X26125000Y-2670000D02*
X25885000Y-2910000D01*
X26005000Y-2670000D02*
X26005000Y-2910000D01*
X25885000Y-2790000D02*
X26125000Y-2790000D01*
D10*
X25880000Y-2910000D02*
X26130000Y-2910000D01*
X26130000Y-2910000D02*
G75*
G03*
X26130000Y-2670000I0J120000D01*
G01*
X26130000Y-2670000D02*
X25880000Y-2670000D01*
X25880000Y-2670000D02*
G75*
G03*
X25880000Y-2910000I0J-120000D01*
G01*
D17*
X75032Y-5525032D02*
X324968Y-5774968D01*
X324968Y-5525032D02*
X75032Y-5774968D01*
X288367Y-5738367D02*
X288367Y-5561633D01*
X111633Y-5561633D01*
X111633Y-5738367D01*
X288367Y-5738367D01*
D10*
X-25044Y-5774968D02*
X425044Y-5774968D01*
X425044Y-5774968D02*
G75*
G03*
X425044Y-5525032I0J124968D01*
G01*
X425044Y-5525032D02*
X-25044Y-5525032D01*
X-25044Y-5525032D02*
G75*
G03*
X-25044Y-5774968I0J-124968D01*
G01*
D17*
X28275032Y-5525032D02*
X28524968Y-5774968D01*
X28524968Y-5525032D02*
X28275032Y-5774968D01*
X28488367Y-5738367D02*
X28488367Y-5561633D01*
X28311633Y-5561633D01*
X28311633Y-5738367D01*
X28488367Y-5738367D01*
D10*
X28174956Y-5774968D02*
X28625044Y-5774968D01*
X28625044Y-5774968D02*
G75*
G03*
X28625044Y-5525032I0J124968D01*
G01*
X28625044Y-5525032D02*
X28174956Y-5525032D01*
X28174956Y-5525032D02*
G75*
G03*
X28174956Y-5774968I0J-124968D01*
G01*
X302619Y-9802524D02*
X302619Y-9602524D01*
X302619Y-9602524D02*
X350238Y-9602524D01*
X350238Y-9602524D02*
X378809Y-9612048D01*
X378809Y-9612048D02*
X397857Y-9631095D01*
X397857Y-9631095D02*
X407381Y-9650143D01*
X407381Y-9650143D02*
X416905Y-9688238D01*
X416905Y-9688238D02*
X416905Y-9716810D01*
X416905Y-9716810D02*
X407381Y-9754905D01*
X407381Y-9754905D02*
X397857Y-9773952D01*
X397857Y-9773952D02*
X378809Y-9793000D01*
X378809Y-9793000D02*
X350238Y-9802524D01*
X350238Y-9802524D02*
X302619Y-9802524D01*
X502619Y-9802524D02*
X502619Y-9669190D01*
X502619Y-9707286D02*
X512143Y-9688238D01*
X512143Y-9688238D02*
X521667Y-9678714D01*
X521667Y-9678714D02*
X540714Y-9669190D01*
X540714Y-9669190D02*
X559762Y-9669190D01*
X626429Y-9802524D02*
X626429Y-9669190D01*
X626429Y-9602524D02*
X616905Y-9612048D01*
X616905Y-9612048D02*
X626429Y-9621571D01*
X626429Y-9621571D02*
X635952Y-9612048D01*
X635952Y-9612048D02*
X626429Y-9602524D01*
X626429Y-9602524D02*
X626429Y-9621571D01*
X750238Y-9802524D02*
X731190Y-9793000D01*
X731190Y-9793000D02*
X721667Y-9773952D01*
X721667Y-9773952D02*
X721667Y-9602524D01*
X855000Y-9802524D02*
X835952Y-9793000D01*
X835952Y-9793000D02*
X826428Y-9773952D01*
X826428Y-9773952D02*
X826428Y-9602524D01*
X1083571Y-9802524D02*
X1083571Y-9602524D01*
X1083571Y-9602524D02*
X1150238Y-9745381D01*
X1150238Y-9745381D02*
X1216905Y-9602524D01*
X1216905Y-9602524D02*
X1216905Y-9802524D01*
X1397857Y-9802524D02*
X1397857Y-9697762D01*
X1397857Y-9697762D02*
X1388333Y-9678714D01*
X1388333Y-9678714D02*
X1369286Y-9669190D01*
X1369286Y-9669190D02*
X1331190Y-9669190D01*
X1331190Y-9669190D02*
X1312143Y-9678714D01*
X1397857Y-9793000D02*
X1378810Y-9802524D01*
X1378810Y-9802524D02*
X1331190Y-9802524D01*
X1331190Y-9802524D02*
X1312143Y-9793000D01*
X1312143Y-9793000D02*
X1302619Y-9773952D01*
X1302619Y-9773952D02*
X1302619Y-9754905D01*
X1302619Y-9754905D02*
X1312143Y-9735857D01*
X1312143Y-9735857D02*
X1331190Y-9726333D01*
X1331190Y-9726333D02*
X1378810Y-9726333D01*
X1378810Y-9726333D02*
X1397857Y-9716810D01*
X1493095Y-9669190D02*
X1493095Y-9869190D01*
X1493095Y-9678714D02*
X1512143Y-9669190D01*
X1512143Y-9669190D02*
X1550238Y-9669190D01*
X1550238Y-9669190D02*
X1569286Y-9678714D01*
X1569286Y-9678714D02*
X1578809Y-9688238D01*
X1578809Y-9688238D02*
X1588333Y-9707286D01*
X1588333Y-9707286D02*
X1588333Y-9764429D01*
X1588333Y-9764429D02*
X1578809Y-9783476D01*
X1578809Y-9783476D02*
X1569286Y-9793000D01*
X1569286Y-9793000D02*
X1550238Y-9802524D01*
X1550238Y-9802524D02*
X1512143Y-9802524D01*
X1512143Y-9802524D02*
X1493095Y-9793000D01*
X1674048Y-9783476D02*
X1683571Y-9793000D01*
X1683571Y-9793000D02*
X1674048Y-9802524D01*
X1674048Y-9802524D02*
X1664524Y-9793000D01*
X1664524Y-9793000D02*
X1674048Y-9783476D01*
X1674048Y-9783476D02*
X1674048Y-9802524D01*
X1674048Y-9678714D02*
X1683571Y-9688238D01*
X1683571Y-9688238D02*
X1674048Y-9697762D01*
X1674048Y-9697762D02*
X1664524Y-9688238D01*
X1664524Y-9688238D02*
X1674048Y-9678714D01*
X1674048Y-9678714D02*
X1674048Y-9697762D01*
D11*
X25000Y-10115000D02*
X55000Y-10145000D01*
X55000Y-10115000D02*
X25000Y-10145000D01*
D10*
X340714Y-10022524D02*
X359762Y-10022524D01*
X359762Y-10022524D02*
X378809Y-10032048D01*
X378809Y-10032048D02*
X388333Y-10041571D01*
X388333Y-10041571D02*
X397857Y-10060619D01*
X397857Y-10060619D02*
X407381Y-10098714D01*
X407381Y-10098714D02*
X407381Y-10146333D01*
X407381Y-10146333D02*
X397857Y-10184429D01*
X397857Y-10184429D02*
X388333Y-10203476D01*
X388333Y-10203476D02*
X378809Y-10213000D01*
X378809Y-10213000D02*
X359762Y-10222524D01*
X359762Y-10222524D02*
X340714Y-10222524D01*
X340714Y-10222524D02*
X321667Y-10213000D01*
X321667Y-10213000D02*
X312143Y-10203476D01*
X312143Y-10203476D02*
X302619Y-10184429D01*
X302619Y-10184429D02*
X293095Y-10146333D01*
X293095Y-10146333D02*
X293095Y-10098714D01*
X293095Y-10098714D02*
X302619Y-10060619D01*
X302619Y-10060619D02*
X312143Y-10041571D01*
X312143Y-10041571D02*
X321667Y-10032048D01*
X321667Y-10032048D02*
X340714Y-10022524D01*
X493095Y-10203476D02*
X502619Y-10213000D01*
X502619Y-10213000D02*
X493095Y-10222524D01*
X493095Y-10222524D02*
X483571Y-10213000D01*
X483571Y-10213000D02*
X493095Y-10203476D01*
X493095Y-10203476D02*
X493095Y-10222524D01*
X569286Y-10022524D02*
X693095Y-10022524D01*
X693095Y-10022524D02*
X626429Y-10098714D01*
X626429Y-10098714D02*
X655000Y-10098714D01*
X655000Y-10098714D02*
X674048Y-10108238D01*
X674048Y-10108238D02*
X683571Y-10117762D01*
X683571Y-10117762D02*
X693095Y-10136810D01*
X693095Y-10136810D02*
X693095Y-10184429D01*
X693095Y-10184429D02*
X683571Y-10203476D01*
X683571Y-10203476D02*
X674048Y-10213000D01*
X674048Y-10213000D02*
X655000Y-10222524D01*
X655000Y-10222524D02*
X597857Y-10222524D01*
X597857Y-10222524D02*
X578810Y-10213000D01*
X578810Y-10213000D02*
X569286Y-10203476D01*
X816905Y-10022524D02*
X835952Y-10022524D01*
X835952Y-10022524D02*
X855000Y-10032048D01*
X855000Y-10032048D02*
X864524Y-10041571D01*
X864524Y-10041571D02*
X874048Y-10060619D01*
X874048Y-10060619D02*
X883571Y-10098714D01*
X883571Y-10098714D02*
X883571Y-10146333D01*
X883571Y-10146333D02*
X874048Y-10184429D01*
X874048Y-10184429D02*
X864524Y-10203476D01*
X864524Y-10203476D02*
X855000Y-10213000D01*
X855000Y-10213000D02*
X835952Y-10222524D01*
X835952Y-10222524D02*
X816905Y-10222524D01*
X816905Y-10222524D02*
X797857Y-10213000D01*
X797857Y-10213000D02*
X788333Y-10203476D01*
X788333Y-10203476D02*
X778809Y-10184429D01*
X778809Y-10184429D02*
X769286Y-10146333D01*
X769286Y-10146333D02*
X769286Y-10098714D01*
X769286Y-10098714D02*
X778809Y-10060619D01*
X778809Y-10060619D02*
X788333Y-10041571D01*
X788333Y-10041571D02*
X797857Y-10032048D01*
X797857Y-10032048D02*
X816905Y-10022524D01*
X1007381Y-10022524D02*
X1026429Y-10022524D01*
X1026429Y-10022524D02*
X1045476Y-10032048D01*
X1045476Y-10032048D02*
X1055000Y-10041571D01*
X1055000Y-10041571D02*
X1064524Y-10060619D01*
X1064524Y-10060619D02*
X1074048Y-10098714D01*
X1074048Y-10098714D02*
X1074048Y-10146333D01*
X1074048Y-10146333D02*
X1064524Y-10184429D01*
X1064524Y-10184429D02*
X1055000Y-10203476D01*
X1055000Y-10203476D02*
X1045476Y-10213000D01*
X1045476Y-10213000D02*
X1026429Y-10222524D01*
X1026429Y-10222524D02*
X1007381Y-10222524D01*
X1007381Y-10222524D02*
X988333Y-10213000D01*
X988333Y-10213000D02*
X978809Y-10203476D01*
X978809Y-10203476D02*
X969286Y-10184429D01*
X969286Y-10184429D02*
X959762Y-10146333D01*
X959762Y-10146333D02*
X959762Y-10098714D01*
X959762Y-10098714D02*
X969286Y-10060619D01*
X969286Y-10060619D02*
X978809Y-10041571D01*
X978809Y-10041571D02*
X988333Y-10032048D01*
X988333Y-10032048D02*
X1007381Y-10022524D01*
X1159762Y-10222524D02*
X1159762Y-10089190D01*
X1159762Y-10108238D02*
X1169286Y-10098714D01*
X1169286Y-10098714D02*
X1188333Y-10089190D01*
X1188333Y-10089190D02*
X1216905Y-10089190D01*
X1216905Y-10089190D02*
X1235952Y-10098714D01*
X1235952Y-10098714D02*
X1245476Y-10117762D01*
X1245476Y-10117762D02*
X1245476Y-10222524D01*
X1245476Y-10117762D02*
X1255000Y-10098714D01*
X1255000Y-10098714D02*
X1274048Y-10089190D01*
X1274048Y-10089190D02*
X1302619Y-10089190D01*
X1302619Y-10089190D02*
X1321667Y-10098714D01*
X1321667Y-10098714D02*
X1331191Y-10117762D01*
X1331191Y-10117762D02*
X1331191Y-10222524D01*
X1426429Y-10222524D02*
X1426429Y-10089190D01*
X1426429Y-10108238D02*
X1435952Y-10098714D01*
X1435952Y-10098714D02*
X1455000Y-10089190D01*
X1455000Y-10089190D02*
X1483571Y-10089190D01*
X1483571Y-10089190D02*
X1502619Y-10098714D01*
X1502619Y-10098714D02*
X1512143Y-10117762D01*
X1512143Y-10117762D02*
X1512143Y-10222524D01*
X1512143Y-10117762D02*
X1521667Y-10098714D01*
X1521667Y-10098714D02*
X1540714Y-10089190D01*
X1540714Y-10089190D02*
X1569286Y-10089190D01*
X1569286Y-10089190D02*
X1588333Y-10098714D01*
X1588333Y-10098714D02*
X1597857Y-10117762D01*
X1597857Y-10117762D02*
X1597857Y-10222524D01*
X1988333Y-10013000D02*
X1816905Y-10270143D01*
X2245476Y-10022524D02*
X2264524Y-10022524D01*
X2264524Y-10022524D02*
X2283572Y-10032048D01*
X2283572Y-10032048D02*
X2293095Y-10041571D01*
X2293095Y-10041571D02*
X2302619Y-10060619D01*
X2302619Y-10060619D02*
X2312143Y-10098714D01*
X2312143Y-10098714D02*
X2312143Y-10146333D01*
X2312143Y-10146333D02*
X2302619Y-10184429D01*
X2302619Y-10184429D02*
X2293095Y-10203476D01*
X2293095Y-10203476D02*
X2283572Y-10213000D01*
X2283572Y-10213000D02*
X2264524Y-10222524D01*
X2264524Y-10222524D02*
X2245476Y-10222524D01*
X2245476Y-10222524D02*
X2226429Y-10213000D01*
X2226429Y-10213000D02*
X2216905Y-10203476D01*
X2216905Y-10203476D02*
X2207381Y-10184429D01*
X2207381Y-10184429D02*
X2197857Y-10146333D01*
X2197857Y-10146333D02*
X2197857Y-10098714D01*
X2197857Y-10098714D02*
X2207381Y-10060619D01*
X2207381Y-10060619D02*
X2216905Y-10041571D01*
X2216905Y-10041571D02*
X2226429Y-10032048D01*
X2226429Y-10032048D02*
X2245476Y-10022524D01*
X2397857Y-10203476D02*
X2407381Y-10213000D01*
X2407381Y-10213000D02*
X2397857Y-10222524D01*
X2397857Y-10222524D02*
X2388334Y-10213000D01*
X2388334Y-10213000D02*
X2397857Y-10203476D01*
X2397857Y-10203476D02*
X2397857Y-10222524D01*
X2531191Y-10022524D02*
X2550238Y-10022524D01*
X2550238Y-10022524D02*
X2569286Y-10032048D01*
X2569286Y-10032048D02*
X2578810Y-10041571D01*
X2578810Y-10041571D02*
X2588334Y-10060619D01*
X2588334Y-10060619D02*
X2597857Y-10098714D01*
X2597857Y-10098714D02*
X2597857Y-10146333D01*
X2597857Y-10146333D02*
X2588334Y-10184429D01*
X2588334Y-10184429D02*
X2578810Y-10203476D01*
X2578810Y-10203476D02*
X2569286Y-10213000D01*
X2569286Y-10213000D02*
X2550238Y-10222524D01*
X2550238Y-10222524D02*
X2531191Y-10222524D01*
X2531191Y-10222524D02*
X2512143Y-10213000D01*
X2512143Y-10213000D02*
X2502619Y-10203476D01*
X2502619Y-10203476D02*
X2493095Y-10184429D01*
X2493095Y-10184429D02*
X2483572Y-10146333D01*
X2483572Y-10146333D02*
X2483572Y-10098714D01*
X2483572Y-10098714D02*
X2493095Y-10060619D01*
X2493095Y-10060619D02*
X2502619Y-10041571D01*
X2502619Y-10041571D02*
X2512143Y-10032048D01*
X2512143Y-10032048D02*
X2531191Y-10022524D01*
X2788334Y-10222524D02*
X2674048Y-10222524D01*
X2731191Y-10222524D02*
X2731191Y-10022524D01*
X2731191Y-10022524D02*
X2712143Y-10051095D01*
X2712143Y-10051095D02*
X2693095Y-10070143D01*
X2693095Y-10070143D02*
X2674048Y-10079667D01*
X2978810Y-10222524D02*
X2864524Y-10222524D01*
X2921667Y-10222524D02*
X2921667Y-10022524D01*
X2921667Y-10022524D02*
X2902619Y-10051095D01*
X2902619Y-10051095D02*
X2883572Y-10070143D01*
X2883572Y-10070143D02*
X2864524Y-10079667D01*
X3093095Y-10108238D02*
X3074048Y-10098714D01*
X3074048Y-10098714D02*
X3064524Y-10089190D01*
X3064524Y-10089190D02*
X3055000Y-10070143D01*
X3055000Y-10070143D02*
X3055000Y-10060619D01*
X3055000Y-10060619D02*
X3064524Y-10041571D01*
X3064524Y-10041571D02*
X3074048Y-10032048D01*
X3074048Y-10032048D02*
X3093095Y-10022524D01*
X3093095Y-10022524D02*
X3131191Y-10022524D01*
X3131191Y-10022524D02*
X3150238Y-10032048D01*
X3150238Y-10032048D02*
X3159762Y-10041571D01*
X3159762Y-10041571D02*
X3169286Y-10060619D01*
X3169286Y-10060619D02*
X3169286Y-10070143D01*
X3169286Y-10070143D02*
X3159762Y-10089190D01*
X3159762Y-10089190D02*
X3150238Y-10098714D01*
X3150238Y-10098714D02*
X3131191Y-10108238D01*
X3131191Y-10108238D02*
X3093095Y-10108238D01*
X3093095Y-10108238D02*
X3074048Y-10117762D01*
X3074048Y-10117762D02*
X3064524Y-10127286D01*
X3064524Y-10127286D02*
X3055000Y-10146333D01*
X3055000Y-10146333D02*
X3055000Y-10184429D01*
X3055000Y-10184429D02*
X3064524Y-10203476D01*
X3064524Y-10203476D02*
X3074048Y-10213000D01*
X3074048Y-10213000D02*
X3093095Y-10222524D01*
X3093095Y-10222524D02*
X3131191Y-10222524D01*
X3131191Y-10222524D02*
X3150238Y-10213000D01*
X3150238Y-10213000D02*
X3159762Y-10203476D01*
X3159762Y-10203476D02*
X3169286Y-10184429D01*
X3169286Y-10184429D02*
X3169286Y-10146333D01*
X3169286Y-10146333D02*
X3159762Y-10127286D01*
X3159762Y-10127286D02*
X3150238Y-10117762D01*
X3150238Y-10117762D02*
X3131191Y-10108238D01*
X3245476Y-10022524D02*
X3245476Y-10060619D01*
X3321667Y-10022524D02*
X3321667Y-10060619D01*
X3616905Y-10298714D02*
X3607381Y-10289190D01*
X3607381Y-10289190D02*
X3588334Y-10260619D01*
X3588334Y-10260619D02*
X3578810Y-10241571D01*
X3578810Y-10241571D02*
X3569286Y-10213000D01*
X3569286Y-10213000D02*
X3559762Y-10165381D01*
X3559762Y-10165381D02*
X3559762Y-10127286D01*
X3559762Y-10127286D02*
X3569286Y-10079667D01*
X3569286Y-10079667D02*
X3578810Y-10051095D01*
X3578810Y-10051095D02*
X3588334Y-10032048D01*
X3588334Y-10032048D02*
X3607381Y-10003476D01*
X3607381Y-10003476D02*
X3616905Y-9993952D01*
X3797857Y-10222524D02*
X3683572Y-10222524D01*
X3740714Y-10222524D02*
X3740714Y-10022524D01*
X3740714Y-10022524D02*
X3721667Y-10051095D01*
X3721667Y-10051095D02*
X3702619Y-10070143D01*
X3702619Y-10070143D02*
X3683572Y-10079667D01*
X3864524Y-10022524D02*
X3997857Y-10022524D01*
X3997857Y-10022524D02*
X3912143Y-10222524D01*
X4169286Y-10022524D02*
X4074048Y-10022524D01*
X4074048Y-10022524D02*
X4064524Y-10117762D01*
X4064524Y-10117762D02*
X4074048Y-10108238D01*
X4074048Y-10108238D02*
X4093095Y-10098714D01*
X4093095Y-10098714D02*
X4140715Y-10098714D01*
X4140715Y-10098714D02*
X4159762Y-10108238D01*
X4159762Y-10108238D02*
X4169286Y-10117762D01*
X4169286Y-10117762D02*
X4178810Y-10136810D01*
X4178810Y-10136810D02*
X4178810Y-10184429D01*
X4178810Y-10184429D02*
X4169286Y-10203476D01*
X4169286Y-10203476D02*
X4159762Y-10213000D01*
X4159762Y-10213000D02*
X4140715Y-10222524D01*
X4140715Y-10222524D02*
X4093095Y-10222524D01*
X4093095Y-10222524D02*
X4074048Y-10213000D01*
X4074048Y-10213000D02*
X4064524Y-10203476D01*
X4416905Y-10222524D02*
X4416905Y-10022524D01*
X4502619Y-10222524D02*
X4502619Y-10117762D01*
X4502619Y-10117762D02*
X4493096Y-10098714D01*
X4493096Y-10098714D02*
X4474048Y-10089190D01*
X4474048Y-10089190D02*
X4445477Y-10089190D01*
X4445477Y-10089190D02*
X4426429Y-10098714D01*
X4426429Y-10098714D02*
X4416905Y-10108238D01*
X4626429Y-10222524D02*
X4607381Y-10213000D01*
X4607381Y-10213000D02*
X4597858Y-10203476D01*
X4597858Y-10203476D02*
X4588334Y-10184429D01*
X4588334Y-10184429D02*
X4588334Y-10127286D01*
X4588334Y-10127286D02*
X4597858Y-10108238D01*
X4597858Y-10108238D02*
X4607381Y-10098714D01*
X4607381Y-10098714D02*
X4626429Y-10089190D01*
X4626429Y-10089190D02*
X4655000Y-10089190D01*
X4655000Y-10089190D02*
X4674048Y-10098714D01*
X4674048Y-10098714D02*
X4683572Y-10108238D01*
X4683572Y-10108238D02*
X4693096Y-10127286D01*
X4693096Y-10127286D02*
X4693096Y-10184429D01*
X4693096Y-10184429D02*
X4683572Y-10203476D01*
X4683572Y-10203476D02*
X4674048Y-10213000D01*
X4674048Y-10213000D02*
X4655000Y-10222524D01*
X4655000Y-10222524D02*
X4626429Y-10222524D01*
X4807381Y-10222524D02*
X4788334Y-10213000D01*
X4788334Y-10213000D02*
X4778810Y-10193952D01*
X4778810Y-10193952D02*
X4778810Y-10022524D01*
X4959762Y-10213000D02*
X4940715Y-10222524D01*
X4940715Y-10222524D02*
X4902619Y-10222524D01*
X4902619Y-10222524D02*
X4883572Y-10213000D01*
X4883572Y-10213000D02*
X4874048Y-10193952D01*
X4874048Y-10193952D02*
X4874048Y-10117762D01*
X4874048Y-10117762D02*
X4883572Y-10098714D01*
X4883572Y-10098714D02*
X4902619Y-10089190D01*
X4902619Y-10089190D02*
X4940715Y-10089190D01*
X4940715Y-10089190D02*
X4959762Y-10098714D01*
X4959762Y-10098714D02*
X4969286Y-10117762D01*
X4969286Y-10117762D02*
X4969286Y-10136810D01*
X4969286Y-10136810D02*
X4874048Y-10155857D01*
X5045477Y-10213000D02*
X5064524Y-10222524D01*
X5064524Y-10222524D02*
X5102619Y-10222524D01*
X5102619Y-10222524D02*
X5121667Y-10213000D01*
X5121667Y-10213000D02*
X5131191Y-10193952D01*
X5131191Y-10193952D02*
X5131191Y-10184429D01*
X5131191Y-10184429D02*
X5121667Y-10165381D01*
X5121667Y-10165381D02*
X5102619Y-10155857D01*
X5102619Y-10155857D02*
X5074048Y-10155857D01*
X5074048Y-10155857D02*
X5055000Y-10146333D01*
X5055000Y-10146333D02*
X5045477Y-10127286D01*
X5045477Y-10127286D02*
X5045477Y-10117762D01*
X5045477Y-10117762D02*
X5055000Y-10098714D01*
X5055000Y-10098714D02*
X5074048Y-10089190D01*
X5074048Y-10089190D02*
X5102619Y-10089190D01*
X5102619Y-10089190D02*
X5121667Y-10098714D01*
X5197858Y-10298714D02*
X5207381Y-10289190D01*
X5207381Y-10289190D02*
X5226429Y-10260619D01*
X5226429Y-10260619D02*
X5235953Y-10241571D01*
X5235953Y-10241571D02*
X5245477Y-10213000D01*
X5245477Y-10213000D02*
X5255000Y-10165381D01*
X5255000Y-10165381D02*
X5255000Y-10127286D01*
X5255000Y-10127286D02*
X5245477Y-10079667D01*
X5245477Y-10079667D02*
X5235953Y-10051095D01*
X5235953Y-10051095D02*
X5226429Y-10032048D01*
X5226429Y-10032048D02*
X5207381Y-10003476D01*
X5207381Y-10003476D02*
X5197858Y-9993952D01*
D11*
X55000Y-10394000D02*
G75*
G03*
X55000Y-10394000I-15000J0D01*
G01*
D10*
X340714Y-10286524D02*
X359762Y-10286524D01*
X359762Y-10286524D02*
X378809Y-10296048D01*
X378809Y-10296048D02*
X388333Y-10305571D01*
X388333Y-10305571D02*
X397857Y-10324619D01*
X397857Y-10324619D02*
X407381Y-10362714D01*
X407381Y-10362714D02*
X407381Y-10410333D01*
X407381Y-10410333D02*
X397857Y-10448429D01*
X397857Y-10448429D02*
X388333Y-10467476D01*
X388333Y-10467476D02*
X378809Y-10477000D01*
X378809Y-10477000D02*
X359762Y-10486524D01*
X359762Y-10486524D02*
X340714Y-10486524D01*
X340714Y-10486524D02*
X321667Y-10477000D01*
X321667Y-10477000D02*
X312143Y-10467476D01*
X312143Y-10467476D02*
X302619Y-10448429D01*
X302619Y-10448429D02*
X293095Y-10410333D01*
X293095Y-10410333D02*
X293095Y-10362714D01*
X293095Y-10362714D02*
X302619Y-10324619D01*
X302619Y-10324619D02*
X312143Y-10305571D01*
X312143Y-10305571D02*
X321667Y-10296048D01*
X321667Y-10296048D02*
X340714Y-10286524D01*
X493095Y-10467476D02*
X502619Y-10477000D01*
X502619Y-10477000D02*
X493095Y-10486524D01*
X493095Y-10486524D02*
X483571Y-10477000D01*
X483571Y-10477000D02*
X493095Y-10467476D01*
X493095Y-10467476D02*
X493095Y-10486524D01*
X569286Y-10286524D02*
X693095Y-10286524D01*
X693095Y-10286524D02*
X626429Y-10362714D01*
X626429Y-10362714D02*
X655000Y-10362714D01*
X655000Y-10362714D02*
X674048Y-10372238D01*
X674048Y-10372238D02*
X683571Y-10381762D01*
X683571Y-10381762D02*
X693095Y-10400810D01*
X693095Y-10400810D02*
X693095Y-10448429D01*
X693095Y-10448429D02*
X683571Y-10467476D01*
X683571Y-10467476D02*
X674048Y-10477000D01*
X674048Y-10477000D02*
X655000Y-10486524D01*
X655000Y-10486524D02*
X597857Y-10486524D01*
X597857Y-10486524D02*
X578810Y-10477000D01*
X578810Y-10477000D02*
X569286Y-10467476D01*
X816905Y-10286524D02*
X835952Y-10286524D01*
X835952Y-10286524D02*
X855000Y-10296048D01*
X855000Y-10296048D02*
X864524Y-10305571D01*
X864524Y-10305571D02*
X874048Y-10324619D01*
X874048Y-10324619D02*
X883571Y-10362714D01*
X883571Y-10362714D02*
X883571Y-10410333D01*
X883571Y-10410333D02*
X874048Y-10448429D01*
X874048Y-10448429D02*
X864524Y-10467476D01*
X864524Y-10467476D02*
X855000Y-10477000D01*
X855000Y-10477000D02*
X835952Y-10486524D01*
X835952Y-10486524D02*
X816905Y-10486524D01*
X816905Y-10486524D02*
X797857Y-10477000D01*
X797857Y-10477000D02*
X788333Y-10467476D01*
X788333Y-10467476D02*
X778809Y-10448429D01*
X778809Y-10448429D02*
X769286Y-10410333D01*
X769286Y-10410333D02*
X769286Y-10362714D01*
X769286Y-10362714D02*
X778809Y-10324619D01*
X778809Y-10324619D02*
X788333Y-10305571D01*
X788333Y-10305571D02*
X797857Y-10296048D01*
X797857Y-10296048D02*
X816905Y-10286524D01*
X1007381Y-10286524D02*
X1026429Y-10286524D01*
X1026429Y-10286524D02*
X1045476Y-10296048D01*
X1045476Y-10296048D02*
X1055000Y-10305571D01*
X1055000Y-10305571D02*
X1064524Y-10324619D01*
X1064524Y-10324619D02*
X1074048Y-10362714D01*
X1074048Y-10362714D02*
X1074048Y-10410333D01*
X1074048Y-10410333D02*
X1064524Y-10448429D01*
X1064524Y-10448429D02*
X1055000Y-10467476D01*
X1055000Y-10467476D02*
X1045476Y-10477000D01*
X1045476Y-10477000D02*
X1026429Y-10486524D01*
X1026429Y-10486524D02*
X1007381Y-10486524D01*
X1007381Y-10486524D02*
X988333Y-10477000D01*
X988333Y-10477000D02*
X978809Y-10467476D01*
X978809Y-10467476D02*
X969286Y-10448429D01*
X969286Y-10448429D02*
X959762Y-10410333D01*
X959762Y-10410333D02*
X959762Y-10362714D01*
X959762Y-10362714D02*
X969286Y-10324619D01*
X969286Y-10324619D02*
X978809Y-10305571D01*
X978809Y-10305571D02*
X988333Y-10296048D01*
X988333Y-10296048D02*
X1007381Y-10286524D01*
X1159762Y-10486524D02*
X1159762Y-10353190D01*
X1159762Y-10372238D02*
X1169286Y-10362714D01*
X1169286Y-10362714D02*
X1188333Y-10353190D01*
X1188333Y-10353190D02*
X1216905Y-10353190D01*
X1216905Y-10353190D02*
X1235952Y-10362714D01*
X1235952Y-10362714D02*
X1245476Y-10381762D01*
X1245476Y-10381762D02*
X1245476Y-10486524D01*
X1245476Y-10381762D02*
X1255000Y-10362714D01*
X1255000Y-10362714D02*
X1274048Y-10353190D01*
X1274048Y-10353190D02*
X1302619Y-10353190D01*
X1302619Y-10353190D02*
X1321667Y-10362714D01*
X1321667Y-10362714D02*
X1331191Y-10381762D01*
X1331191Y-10381762D02*
X1331191Y-10486524D01*
X1426429Y-10486524D02*
X1426429Y-10353190D01*
X1426429Y-10372238D02*
X1435952Y-10362714D01*
X1435952Y-10362714D02*
X1455000Y-10353190D01*
X1455000Y-10353190D02*
X1483571Y-10353190D01*
X1483571Y-10353190D02*
X1502619Y-10362714D01*
X1502619Y-10362714D02*
X1512143Y-10381762D01*
X1512143Y-10381762D02*
X1512143Y-10486524D01*
X1512143Y-10381762D02*
X1521667Y-10362714D01*
X1521667Y-10362714D02*
X1540714Y-10353190D01*
X1540714Y-10353190D02*
X1569286Y-10353190D01*
X1569286Y-10353190D02*
X1588333Y-10362714D01*
X1588333Y-10362714D02*
X1597857Y-10381762D01*
X1597857Y-10381762D02*
X1597857Y-10486524D01*
X1988333Y-10277000D02*
X1816905Y-10534143D01*
X2245476Y-10286524D02*
X2264524Y-10286524D01*
X2264524Y-10286524D02*
X2283572Y-10296048D01*
X2283572Y-10296048D02*
X2293095Y-10305571D01*
X2293095Y-10305571D02*
X2302619Y-10324619D01*
X2302619Y-10324619D02*
X2312143Y-10362714D01*
X2312143Y-10362714D02*
X2312143Y-10410333D01*
X2312143Y-10410333D02*
X2302619Y-10448429D01*
X2302619Y-10448429D02*
X2293095Y-10467476D01*
X2293095Y-10467476D02*
X2283572Y-10477000D01*
X2283572Y-10477000D02*
X2264524Y-10486524D01*
X2264524Y-10486524D02*
X2245476Y-10486524D01*
X2245476Y-10486524D02*
X2226429Y-10477000D01*
X2226429Y-10477000D02*
X2216905Y-10467476D01*
X2216905Y-10467476D02*
X2207381Y-10448429D01*
X2207381Y-10448429D02*
X2197857Y-10410333D01*
X2197857Y-10410333D02*
X2197857Y-10362714D01*
X2197857Y-10362714D02*
X2207381Y-10324619D01*
X2207381Y-10324619D02*
X2216905Y-10305571D01*
X2216905Y-10305571D02*
X2226429Y-10296048D01*
X2226429Y-10296048D02*
X2245476Y-10286524D01*
X2397857Y-10467476D02*
X2407381Y-10477000D01*
X2407381Y-10477000D02*
X2397857Y-10486524D01*
X2397857Y-10486524D02*
X2388334Y-10477000D01*
X2388334Y-10477000D02*
X2397857Y-10467476D01*
X2397857Y-10467476D02*
X2397857Y-10486524D01*
X2531191Y-10286524D02*
X2550238Y-10286524D01*
X2550238Y-10286524D02*
X2569286Y-10296048D01*
X2569286Y-10296048D02*
X2578810Y-10305571D01*
X2578810Y-10305571D02*
X2588334Y-10324619D01*
X2588334Y-10324619D02*
X2597857Y-10362714D01*
X2597857Y-10362714D02*
X2597857Y-10410333D01*
X2597857Y-10410333D02*
X2588334Y-10448429D01*
X2588334Y-10448429D02*
X2578810Y-10467476D01*
X2578810Y-10467476D02*
X2569286Y-10477000D01*
X2569286Y-10477000D02*
X2550238Y-10486524D01*
X2550238Y-10486524D02*
X2531191Y-10486524D01*
X2531191Y-10486524D02*
X2512143Y-10477000D01*
X2512143Y-10477000D02*
X2502619Y-10467476D01*
X2502619Y-10467476D02*
X2493095Y-10448429D01*
X2493095Y-10448429D02*
X2483572Y-10410333D01*
X2483572Y-10410333D02*
X2483572Y-10362714D01*
X2483572Y-10362714D02*
X2493095Y-10324619D01*
X2493095Y-10324619D02*
X2502619Y-10305571D01*
X2502619Y-10305571D02*
X2512143Y-10296048D01*
X2512143Y-10296048D02*
X2531191Y-10286524D01*
X2788334Y-10486524D02*
X2674048Y-10486524D01*
X2731191Y-10486524D02*
X2731191Y-10286524D01*
X2731191Y-10286524D02*
X2712143Y-10315095D01*
X2712143Y-10315095D02*
X2693095Y-10334143D01*
X2693095Y-10334143D02*
X2674048Y-10343667D01*
X2978810Y-10486524D02*
X2864524Y-10486524D01*
X2921667Y-10486524D02*
X2921667Y-10286524D01*
X2921667Y-10286524D02*
X2902619Y-10315095D01*
X2902619Y-10315095D02*
X2883572Y-10334143D01*
X2883572Y-10334143D02*
X2864524Y-10343667D01*
X3093095Y-10372238D02*
X3074048Y-10362714D01*
X3074048Y-10362714D02*
X3064524Y-10353190D01*
X3064524Y-10353190D02*
X3055000Y-10334143D01*
X3055000Y-10334143D02*
X3055000Y-10324619D01*
X3055000Y-10324619D02*
X3064524Y-10305571D01*
X3064524Y-10305571D02*
X3074048Y-10296048D01*
X3074048Y-10296048D02*
X3093095Y-10286524D01*
X3093095Y-10286524D02*
X3131191Y-10286524D01*
X3131191Y-10286524D02*
X3150238Y-10296048D01*
X3150238Y-10296048D02*
X3159762Y-10305571D01*
X3159762Y-10305571D02*
X3169286Y-10324619D01*
X3169286Y-10324619D02*
X3169286Y-10334143D01*
X3169286Y-10334143D02*
X3159762Y-10353190D01*
X3159762Y-10353190D02*
X3150238Y-10362714D01*
X3150238Y-10362714D02*
X3131191Y-10372238D01*
X3131191Y-10372238D02*
X3093095Y-10372238D01*
X3093095Y-10372238D02*
X3074048Y-10381762D01*
X3074048Y-10381762D02*
X3064524Y-10391286D01*
X3064524Y-10391286D02*
X3055000Y-10410333D01*
X3055000Y-10410333D02*
X3055000Y-10448429D01*
X3055000Y-10448429D02*
X3064524Y-10467476D01*
X3064524Y-10467476D02*
X3074048Y-10477000D01*
X3074048Y-10477000D02*
X3093095Y-10486524D01*
X3093095Y-10486524D02*
X3131191Y-10486524D01*
X3131191Y-10486524D02*
X3150238Y-10477000D01*
X3150238Y-10477000D02*
X3159762Y-10467476D01*
X3159762Y-10467476D02*
X3169286Y-10448429D01*
X3169286Y-10448429D02*
X3169286Y-10410333D01*
X3169286Y-10410333D02*
X3159762Y-10391286D01*
X3159762Y-10391286D02*
X3150238Y-10381762D01*
X3150238Y-10381762D02*
X3131191Y-10372238D01*
X3245476Y-10286524D02*
X3245476Y-10324619D01*
X3321667Y-10286524D02*
X3321667Y-10324619D01*
X3616905Y-10562714D02*
X3607381Y-10553190D01*
X3607381Y-10553190D02*
X3588334Y-10524619D01*
X3588334Y-10524619D02*
X3578810Y-10505571D01*
X3578810Y-10505571D02*
X3569286Y-10477000D01*
X3569286Y-10477000D02*
X3559762Y-10429381D01*
X3559762Y-10429381D02*
X3559762Y-10391286D01*
X3559762Y-10391286D02*
X3569286Y-10343667D01*
X3569286Y-10343667D02*
X3578810Y-10315095D01*
X3578810Y-10315095D02*
X3588334Y-10296048D01*
X3588334Y-10296048D02*
X3607381Y-10267476D01*
X3607381Y-10267476D02*
X3616905Y-10257952D01*
X3683572Y-10305571D02*
X3693095Y-10296048D01*
X3693095Y-10296048D02*
X3712143Y-10286524D01*
X3712143Y-10286524D02*
X3759762Y-10286524D01*
X3759762Y-10286524D02*
X3778810Y-10296048D01*
X3778810Y-10296048D02*
X3788334Y-10305571D01*
X3788334Y-10305571D02*
X3797857Y-10324619D01*
X3797857Y-10324619D02*
X3797857Y-10343667D01*
X3797857Y-10343667D02*
X3788334Y-10372238D01*
X3788334Y-10372238D02*
X3674048Y-10486524D01*
X3674048Y-10486524D02*
X3797857Y-10486524D01*
X3988334Y-10486524D02*
X3874048Y-10486524D01*
X3931191Y-10486524D02*
X3931191Y-10286524D01*
X3931191Y-10286524D02*
X3912143Y-10315095D01*
X3912143Y-10315095D02*
X3893095Y-10334143D01*
X3893095Y-10334143D02*
X3874048Y-10343667D01*
X4226429Y-10486524D02*
X4226429Y-10286524D01*
X4312143Y-10486524D02*
X4312143Y-10381762D01*
X4312143Y-10381762D02*
X4302619Y-10362714D01*
X4302619Y-10362714D02*
X4283572Y-10353190D01*
X4283572Y-10353190D02*
X4255000Y-10353190D01*
X4255000Y-10353190D02*
X4235953Y-10362714D01*
X4235953Y-10362714D02*
X4226429Y-10372238D01*
X4435953Y-10486524D02*
X4416905Y-10477000D01*
X4416905Y-10477000D02*
X4407381Y-10467476D01*
X4407381Y-10467476D02*
X4397858Y-10448429D01*
X4397858Y-10448429D02*
X4397858Y-10391286D01*
X4397858Y-10391286D02*
X4407381Y-10372238D01*
X4407381Y-10372238D02*
X4416905Y-10362714D01*
X4416905Y-10362714D02*
X4435953Y-10353190D01*
X4435953Y-10353190D02*
X4464524Y-10353190D01*
X4464524Y-10353190D02*
X4483572Y-10362714D01*
X4483572Y-10362714D02*
X4493096Y-10372238D01*
X4493096Y-10372238D02*
X4502619Y-10391286D01*
X4502619Y-10391286D02*
X4502619Y-10448429D01*
X4502619Y-10448429D02*
X4493096Y-10467476D01*
X4493096Y-10467476D02*
X4483572Y-10477000D01*
X4483572Y-10477000D02*
X4464524Y-10486524D01*
X4464524Y-10486524D02*
X4435953Y-10486524D01*
X4616905Y-10486524D02*
X4597858Y-10477000D01*
X4597858Y-10477000D02*
X4588334Y-10457952D01*
X4588334Y-10457952D02*
X4588334Y-10286524D01*
X4769286Y-10477000D02*
X4750239Y-10486524D01*
X4750239Y-10486524D02*
X4712143Y-10486524D01*
X4712143Y-10486524D02*
X4693096Y-10477000D01*
X4693096Y-10477000D02*
X4683572Y-10457952D01*
X4683572Y-10457952D02*
X4683572Y-10381762D01*
X4683572Y-10381762D02*
X4693096Y-10362714D01*
X4693096Y-10362714D02*
X4712143Y-10353190D01*
X4712143Y-10353190D02*
X4750239Y-10353190D01*
X4750239Y-10353190D02*
X4769286Y-10362714D01*
X4769286Y-10362714D02*
X4778810Y-10381762D01*
X4778810Y-10381762D02*
X4778810Y-10400810D01*
X4778810Y-10400810D02*
X4683572Y-10419857D01*
X4855000Y-10477000D02*
X4874048Y-10486524D01*
X4874048Y-10486524D02*
X4912143Y-10486524D01*
X4912143Y-10486524D02*
X4931191Y-10477000D01*
X4931191Y-10477000D02*
X4940715Y-10457952D01*
X4940715Y-10457952D02*
X4940715Y-10448429D01*
X4940715Y-10448429D02*
X4931191Y-10429381D01*
X4931191Y-10429381D02*
X4912143Y-10419857D01*
X4912143Y-10419857D02*
X4883572Y-10419857D01*
X4883572Y-10419857D02*
X4864524Y-10410333D01*
X4864524Y-10410333D02*
X4855000Y-10391286D01*
X4855000Y-10391286D02*
X4855000Y-10381762D01*
X4855000Y-10381762D02*
X4864524Y-10362714D01*
X4864524Y-10362714D02*
X4883572Y-10353190D01*
X4883572Y-10353190D02*
X4912143Y-10353190D01*
X4912143Y-10353190D02*
X4931191Y-10362714D01*
X5007381Y-10562714D02*
X5016905Y-10553190D01*
X5016905Y-10553190D02*
X5035953Y-10524619D01*
X5035953Y-10524619D02*
X5045477Y-10505571D01*
X5045477Y-10505571D02*
X5055000Y-10477000D01*
X5055000Y-10477000D02*
X5064524Y-10429381D01*
X5064524Y-10429381D02*
X5064524Y-10391286D01*
X5064524Y-10391286D02*
X5055000Y-10343667D01*
X5055000Y-10343667D02*
X5045477Y-10315095D01*
X5045477Y-10315095D02*
X5035953Y-10296048D01*
X5035953Y-10296048D02*
X5016905Y-10267476D01*
X5016905Y-10267476D02*
X5007381Y-10257952D01*
D12*
X25000Y-10628000D02*
X25000Y-10688000D01*
X-5000Y-10658000D02*
X55000Y-10658000D01*
D10*
X340714Y-10550524D02*
X359762Y-10550524D01*
X359762Y-10550524D02*
X378809Y-10560048D01*
X378809Y-10560048D02*
X388333Y-10569571D01*
X388333Y-10569571D02*
X397857Y-10588619D01*
X397857Y-10588619D02*
X407381Y-10626714D01*
X407381Y-10626714D02*
X407381Y-10674333D01*
X407381Y-10674333D02*
X397857Y-10712429D01*
X397857Y-10712429D02*
X388333Y-10731476D01*
X388333Y-10731476D02*
X378809Y-10741000D01*
X378809Y-10741000D02*
X359762Y-10750524D01*
X359762Y-10750524D02*
X340714Y-10750524D01*
X340714Y-10750524D02*
X321667Y-10741000D01*
X321667Y-10741000D02*
X312143Y-10731476D01*
X312143Y-10731476D02*
X302619Y-10712429D01*
X302619Y-10712429D02*
X293095Y-10674333D01*
X293095Y-10674333D02*
X293095Y-10626714D01*
X293095Y-10626714D02*
X302619Y-10588619D01*
X302619Y-10588619D02*
X312143Y-10569571D01*
X312143Y-10569571D02*
X321667Y-10560048D01*
X321667Y-10560048D02*
X340714Y-10550524D01*
X493095Y-10731476D02*
X502619Y-10741000D01*
X502619Y-10741000D02*
X493095Y-10750524D01*
X493095Y-10750524D02*
X483571Y-10741000D01*
X483571Y-10741000D02*
X493095Y-10731476D01*
X493095Y-10731476D02*
X493095Y-10750524D01*
X674048Y-10550524D02*
X635952Y-10550524D01*
X635952Y-10550524D02*
X616905Y-10560048D01*
X616905Y-10560048D02*
X607381Y-10569571D01*
X607381Y-10569571D02*
X588333Y-10598143D01*
X588333Y-10598143D02*
X578810Y-10636238D01*
X578810Y-10636238D02*
X578810Y-10712429D01*
X578810Y-10712429D02*
X588333Y-10731476D01*
X588333Y-10731476D02*
X597857Y-10741000D01*
X597857Y-10741000D02*
X616905Y-10750524D01*
X616905Y-10750524D02*
X655000Y-10750524D01*
X655000Y-10750524D02*
X674048Y-10741000D01*
X674048Y-10741000D02*
X683571Y-10731476D01*
X683571Y-10731476D02*
X693095Y-10712429D01*
X693095Y-10712429D02*
X693095Y-10664810D01*
X693095Y-10664810D02*
X683571Y-10645762D01*
X683571Y-10645762D02*
X674048Y-10636238D01*
X674048Y-10636238D02*
X655000Y-10626714D01*
X655000Y-10626714D02*
X616905Y-10626714D01*
X616905Y-10626714D02*
X597857Y-10636238D01*
X597857Y-10636238D02*
X588333Y-10645762D01*
X588333Y-10645762D02*
X578810Y-10664810D01*
X816905Y-10550524D02*
X835952Y-10550524D01*
X835952Y-10550524D02*
X855000Y-10560048D01*
X855000Y-10560048D02*
X864524Y-10569571D01*
X864524Y-10569571D02*
X874048Y-10588619D01*
X874048Y-10588619D02*
X883571Y-10626714D01*
X883571Y-10626714D02*
X883571Y-10674333D01*
X883571Y-10674333D02*
X874048Y-10712429D01*
X874048Y-10712429D02*
X864524Y-10731476D01*
X864524Y-10731476D02*
X855000Y-10741000D01*
X855000Y-10741000D02*
X835952Y-10750524D01*
X835952Y-10750524D02*
X816905Y-10750524D01*
X816905Y-10750524D02*
X797857Y-10741000D01*
X797857Y-10741000D02*
X788333Y-10731476D01*
X788333Y-10731476D02*
X778809Y-10712429D01*
X778809Y-10712429D02*
X769286Y-10674333D01*
X769286Y-10674333D02*
X769286Y-10626714D01*
X769286Y-10626714D02*
X778809Y-10588619D01*
X778809Y-10588619D02*
X788333Y-10569571D01*
X788333Y-10569571D02*
X797857Y-10560048D01*
X797857Y-10560048D02*
X816905Y-10550524D01*
X1007381Y-10550524D02*
X1026429Y-10550524D01*
X1026429Y-10550524D02*
X1045476Y-10560048D01*
X1045476Y-10560048D02*
X1055000Y-10569571D01*
X1055000Y-10569571D02*
X1064524Y-10588619D01*
X1064524Y-10588619D02*
X1074048Y-10626714D01*
X1074048Y-10626714D02*
X1074048Y-10674333D01*
X1074048Y-10674333D02*
X1064524Y-10712429D01*
X1064524Y-10712429D02*
X1055000Y-10731476D01*
X1055000Y-10731476D02*
X1045476Y-10741000D01*
X1045476Y-10741000D02*
X1026429Y-10750524D01*
X1026429Y-10750524D02*
X1007381Y-10750524D01*
X1007381Y-10750524D02*
X988333Y-10741000D01*
X988333Y-10741000D02*
X978809Y-10731476D01*
X978809Y-10731476D02*
X969286Y-10712429D01*
X969286Y-10712429D02*
X959762Y-10674333D01*
X959762Y-10674333D02*
X959762Y-10626714D01*
X959762Y-10626714D02*
X969286Y-10588619D01*
X969286Y-10588619D02*
X978809Y-10569571D01*
X978809Y-10569571D02*
X988333Y-10560048D01*
X988333Y-10560048D02*
X1007381Y-10550524D01*
X1159762Y-10750524D02*
X1159762Y-10617190D01*
X1159762Y-10636238D02*
X1169286Y-10626714D01*
X1169286Y-10626714D02*
X1188333Y-10617190D01*
X1188333Y-10617190D02*
X1216905Y-10617190D01*
X1216905Y-10617190D02*
X1235952Y-10626714D01*
X1235952Y-10626714D02*
X1245476Y-10645762D01*
X1245476Y-10645762D02*
X1245476Y-10750524D01*
X1245476Y-10645762D02*
X1255000Y-10626714D01*
X1255000Y-10626714D02*
X1274048Y-10617190D01*
X1274048Y-10617190D02*
X1302619Y-10617190D01*
X1302619Y-10617190D02*
X1321667Y-10626714D01*
X1321667Y-10626714D02*
X1331191Y-10645762D01*
X1331191Y-10645762D02*
X1331191Y-10750524D01*
X1426429Y-10750524D02*
X1426429Y-10617190D01*
X1426429Y-10636238D02*
X1435952Y-10626714D01*
X1435952Y-10626714D02*
X1455000Y-10617190D01*
X1455000Y-10617190D02*
X1483571Y-10617190D01*
X1483571Y-10617190D02*
X1502619Y-10626714D01*
X1502619Y-10626714D02*
X1512143Y-10645762D01*
X1512143Y-10645762D02*
X1512143Y-10750524D01*
X1512143Y-10645762D02*
X1521667Y-10626714D01*
X1521667Y-10626714D02*
X1540714Y-10617190D01*
X1540714Y-10617190D02*
X1569286Y-10617190D01*
X1569286Y-10617190D02*
X1588333Y-10626714D01*
X1588333Y-10626714D02*
X1597857Y-10645762D01*
X1597857Y-10645762D02*
X1597857Y-10750524D01*
X1988333Y-10541000D02*
X1816905Y-10798143D01*
X2245476Y-10550524D02*
X2264524Y-10550524D01*
X2264524Y-10550524D02*
X2283572Y-10560048D01*
X2283572Y-10560048D02*
X2293095Y-10569571D01*
X2293095Y-10569571D02*
X2302619Y-10588619D01*
X2302619Y-10588619D02*
X2312143Y-10626714D01*
X2312143Y-10626714D02*
X2312143Y-10674333D01*
X2312143Y-10674333D02*
X2302619Y-10712429D01*
X2302619Y-10712429D02*
X2293095Y-10731476D01*
X2293095Y-10731476D02*
X2283572Y-10741000D01*
X2283572Y-10741000D02*
X2264524Y-10750524D01*
X2264524Y-10750524D02*
X2245476Y-10750524D01*
X2245476Y-10750524D02*
X2226429Y-10741000D01*
X2226429Y-10741000D02*
X2216905Y-10731476D01*
X2216905Y-10731476D02*
X2207381Y-10712429D01*
X2207381Y-10712429D02*
X2197857Y-10674333D01*
X2197857Y-10674333D02*
X2197857Y-10626714D01*
X2197857Y-10626714D02*
X2207381Y-10588619D01*
X2207381Y-10588619D02*
X2216905Y-10569571D01*
X2216905Y-10569571D02*
X2226429Y-10560048D01*
X2226429Y-10560048D02*
X2245476Y-10550524D01*
X2397857Y-10731476D02*
X2407381Y-10741000D01*
X2407381Y-10741000D02*
X2397857Y-10750524D01*
X2397857Y-10750524D02*
X2388334Y-10741000D01*
X2388334Y-10741000D02*
X2397857Y-10731476D01*
X2397857Y-10731476D02*
X2397857Y-10750524D01*
X2531191Y-10550524D02*
X2550238Y-10550524D01*
X2550238Y-10550524D02*
X2569286Y-10560048D01*
X2569286Y-10560048D02*
X2578810Y-10569571D01*
X2578810Y-10569571D02*
X2588334Y-10588619D01*
X2588334Y-10588619D02*
X2597857Y-10626714D01*
X2597857Y-10626714D02*
X2597857Y-10674333D01*
X2597857Y-10674333D02*
X2588334Y-10712429D01*
X2588334Y-10712429D02*
X2578810Y-10731476D01*
X2578810Y-10731476D02*
X2569286Y-10741000D01*
X2569286Y-10741000D02*
X2550238Y-10750524D01*
X2550238Y-10750524D02*
X2531191Y-10750524D01*
X2531191Y-10750524D02*
X2512143Y-10741000D01*
X2512143Y-10741000D02*
X2502619Y-10731476D01*
X2502619Y-10731476D02*
X2493095Y-10712429D01*
X2493095Y-10712429D02*
X2483572Y-10674333D01*
X2483572Y-10674333D02*
X2483572Y-10626714D01*
X2483572Y-10626714D02*
X2493095Y-10588619D01*
X2493095Y-10588619D02*
X2502619Y-10569571D01*
X2502619Y-10569571D02*
X2512143Y-10560048D01*
X2512143Y-10560048D02*
X2531191Y-10550524D01*
X2674048Y-10569571D02*
X2683572Y-10560048D01*
X2683572Y-10560048D02*
X2702619Y-10550524D01*
X2702619Y-10550524D02*
X2750238Y-10550524D01*
X2750238Y-10550524D02*
X2769286Y-10560048D01*
X2769286Y-10560048D02*
X2778810Y-10569571D01*
X2778810Y-10569571D02*
X2788334Y-10588619D01*
X2788334Y-10588619D02*
X2788334Y-10607667D01*
X2788334Y-10607667D02*
X2778810Y-10636238D01*
X2778810Y-10636238D02*
X2664524Y-10750524D01*
X2664524Y-10750524D02*
X2788334Y-10750524D01*
X2855000Y-10550524D02*
X2978810Y-10550524D01*
X2978810Y-10550524D02*
X2912143Y-10626714D01*
X2912143Y-10626714D02*
X2940714Y-10626714D01*
X2940714Y-10626714D02*
X2959762Y-10636238D01*
X2959762Y-10636238D02*
X2969286Y-10645762D01*
X2969286Y-10645762D02*
X2978810Y-10664810D01*
X2978810Y-10664810D02*
X2978810Y-10712429D01*
X2978810Y-10712429D02*
X2969286Y-10731476D01*
X2969286Y-10731476D02*
X2959762Y-10741000D01*
X2959762Y-10741000D02*
X2940714Y-10750524D01*
X2940714Y-10750524D02*
X2883572Y-10750524D01*
X2883572Y-10750524D02*
X2864524Y-10741000D01*
X2864524Y-10741000D02*
X2855000Y-10731476D01*
X3150238Y-10550524D02*
X3112143Y-10550524D01*
X3112143Y-10550524D02*
X3093095Y-10560048D01*
X3093095Y-10560048D02*
X3083572Y-10569571D01*
X3083572Y-10569571D02*
X3064524Y-10598143D01*
X3064524Y-10598143D02*
X3055000Y-10636238D01*
X3055000Y-10636238D02*
X3055000Y-10712429D01*
X3055000Y-10712429D02*
X3064524Y-10731476D01*
X3064524Y-10731476D02*
X3074048Y-10741000D01*
X3074048Y-10741000D02*
X3093095Y-10750524D01*
X3093095Y-10750524D02*
X3131191Y-10750524D01*
X3131191Y-10750524D02*
X3150238Y-10741000D01*
X3150238Y-10741000D02*
X3159762Y-10731476D01*
X3159762Y-10731476D02*
X3169286Y-10712429D01*
X3169286Y-10712429D02*
X3169286Y-10664810D01*
X3169286Y-10664810D02*
X3159762Y-10645762D01*
X3159762Y-10645762D02*
X3150238Y-10636238D01*
X3150238Y-10636238D02*
X3131191Y-10626714D01*
X3131191Y-10626714D02*
X3093095Y-10626714D01*
X3093095Y-10626714D02*
X3074048Y-10636238D01*
X3074048Y-10636238D02*
X3064524Y-10645762D01*
X3064524Y-10645762D02*
X3055000Y-10664810D01*
X3245476Y-10550524D02*
X3245476Y-10588619D01*
X3321667Y-10550524D02*
X3321667Y-10588619D01*
X3616905Y-10826714D02*
X3607381Y-10817190D01*
X3607381Y-10817190D02*
X3588334Y-10788619D01*
X3588334Y-10788619D02*
X3578810Y-10769571D01*
X3578810Y-10769571D02*
X3569286Y-10741000D01*
X3569286Y-10741000D02*
X3559762Y-10693381D01*
X3559762Y-10693381D02*
X3559762Y-10655286D01*
X3559762Y-10655286D02*
X3569286Y-10607667D01*
X3569286Y-10607667D02*
X3578810Y-10579095D01*
X3578810Y-10579095D02*
X3588334Y-10560048D01*
X3588334Y-10560048D02*
X3607381Y-10531476D01*
X3607381Y-10531476D02*
X3616905Y-10521952D01*
X3731191Y-10550524D02*
X3750238Y-10550524D01*
X3750238Y-10550524D02*
X3769286Y-10560048D01*
X3769286Y-10560048D02*
X3778810Y-10569571D01*
X3778810Y-10569571D02*
X3788334Y-10588619D01*
X3788334Y-10588619D02*
X3797857Y-10626714D01*
X3797857Y-10626714D02*
X3797857Y-10674333D01*
X3797857Y-10674333D02*
X3788334Y-10712429D01*
X3788334Y-10712429D02*
X3778810Y-10731476D01*
X3778810Y-10731476D02*
X3769286Y-10741000D01*
X3769286Y-10741000D02*
X3750238Y-10750524D01*
X3750238Y-10750524D02*
X3731191Y-10750524D01*
X3731191Y-10750524D02*
X3712143Y-10741000D01*
X3712143Y-10741000D02*
X3702619Y-10731476D01*
X3702619Y-10731476D02*
X3693095Y-10712429D01*
X3693095Y-10712429D02*
X3683572Y-10674333D01*
X3683572Y-10674333D02*
X3683572Y-10626714D01*
X3683572Y-10626714D02*
X3693095Y-10588619D01*
X3693095Y-10588619D02*
X3702619Y-10569571D01*
X3702619Y-10569571D02*
X3712143Y-10560048D01*
X3712143Y-10560048D02*
X3731191Y-10550524D01*
X4035953Y-10750524D02*
X4035953Y-10550524D01*
X4121667Y-10750524D02*
X4121667Y-10645762D01*
X4121667Y-10645762D02*
X4112143Y-10626714D01*
X4112143Y-10626714D02*
X4093096Y-10617190D01*
X4093096Y-10617190D02*
X4064524Y-10617190D01*
X4064524Y-10617190D02*
X4045476Y-10626714D01*
X4045476Y-10626714D02*
X4035953Y-10636238D01*
X4245477Y-10750524D02*
X4226429Y-10741000D01*
X4226429Y-10741000D02*
X4216905Y-10731476D01*
X4216905Y-10731476D02*
X4207381Y-10712429D01*
X4207381Y-10712429D02*
X4207381Y-10655286D01*
X4207381Y-10655286D02*
X4216905Y-10636238D01*
X4216905Y-10636238D02*
X4226429Y-10626714D01*
X4226429Y-10626714D02*
X4245477Y-10617190D01*
X4245477Y-10617190D02*
X4274048Y-10617190D01*
X4274048Y-10617190D02*
X4293096Y-10626714D01*
X4293096Y-10626714D02*
X4302619Y-10636238D01*
X4302619Y-10636238D02*
X4312143Y-10655286D01*
X4312143Y-10655286D02*
X4312143Y-10712429D01*
X4312143Y-10712429D02*
X4302619Y-10731476D01*
X4302619Y-10731476D02*
X4293096Y-10741000D01*
X4293096Y-10741000D02*
X4274048Y-10750524D01*
X4274048Y-10750524D02*
X4245477Y-10750524D01*
X4426429Y-10750524D02*
X4407381Y-10741000D01*
X4407381Y-10741000D02*
X4397858Y-10721952D01*
X4397858Y-10721952D02*
X4397858Y-10550524D01*
X4578810Y-10741000D02*
X4559762Y-10750524D01*
X4559762Y-10750524D02*
X4521667Y-10750524D01*
X4521667Y-10750524D02*
X4502619Y-10741000D01*
X4502619Y-10741000D02*
X4493096Y-10721952D01*
X4493096Y-10721952D02*
X4493096Y-10645762D01*
X4493096Y-10645762D02*
X4502619Y-10626714D01*
X4502619Y-10626714D02*
X4521667Y-10617190D01*
X4521667Y-10617190D02*
X4559762Y-10617190D01*
X4559762Y-10617190D02*
X4578810Y-10626714D01*
X4578810Y-10626714D02*
X4588334Y-10645762D01*
X4588334Y-10645762D02*
X4588334Y-10664810D01*
X4588334Y-10664810D02*
X4493096Y-10683857D01*
X4664524Y-10741000D02*
X4683572Y-10750524D01*
X4683572Y-10750524D02*
X4721667Y-10750524D01*
X4721667Y-10750524D02*
X4740715Y-10741000D01*
X4740715Y-10741000D02*
X4750239Y-10721952D01*
X4750239Y-10721952D02*
X4750239Y-10712429D01*
X4750239Y-10712429D02*
X4740715Y-10693381D01*
X4740715Y-10693381D02*
X4721667Y-10683857D01*
X4721667Y-10683857D02*
X4693096Y-10683857D01*
X4693096Y-10683857D02*
X4674048Y-10674333D01*
X4674048Y-10674333D02*
X4664524Y-10655286D01*
X4664524Y-10655286D02*
X4664524Y-10645762D01*
X4664524Y-10645762D02*
X4674048Y-10626714D01*
X4674048Y-10626714D02*
X4693096Y-10617190D01*
X4693096Y-10617190D02*
X4721667Y-10617190D01*
X4721667Y-10617190D02*
X4740715Y-10626714D01*
X4988334Y-10674333D02*
X5140715Y-10674333D01*
X5064524Y-10750524D02*
X5064524Y-10598143D01*
X5474048Y-10617190D02*
X5474048Y-10750524D01*
X5426429Y-10541000D02*
X5378810Y-10683857D01*
X5378810Y-10683857D02*
X5502620Y-10683857D01*
X5721667Y-10741000D02*
X5740715Y-10750524D01*
X5740715Y-10750524D02*
X5778810Y-10750524D01*
X5778810Y-10750524D02*
X5797858Y-10741000D01*
X5797858Y-10741000D02*
X5807381Y-10721952D01*
X5807381Y-10721952D02*
X5807381Y-10712429D01*
X5807381Y-10712429D02*
X5797858Y-10693381D01*
X5797858Y-10693381D02*
X5778810Y-10683857D01*
X5778810Y-10683857D02*
X5750239Y-10683857D01*
X5750239Y-10683857D02*
X5731191Y-10674333D01*
X5731191Y-10674333D02*
X5721667Y-10655286D01*
X5721667Y-10655286D02*
X5721667Y-10645762D01*
X5721667Y-10645762D02*
X5731191Y-10626714D01*
X5731191Y-10626714D02*
X5750239Y-10617190D01*
X5750239Y-10617190D02*
X5778810Y-10617190D01*
X5778810Y-10617190D02*
X5797858Y-10626714D01*
X5921667Y-10750524D02*
X5902620Y-10741000D01*
X5902620Y-10741000D02*
X5893096Y-10721952D01*
X5893096Y-10721952D02*
X5893096Y-10550524D01*
X6026429Y-10750524D02*
X6007381Y-10741000D01*
X6007381Y-10741000D02*
X5997858Y-10731476D01*
X5997858Y-10731476D02*
X5988334Y-10712429D01*
X5988334Y-10712429D02*
X5988334Y-10655286D01*
X5988334Y-10655286D02*
X5997858Y-10636238D01*
X5997858Y-10636238D02*
X6007381Y-10626714D01*
X6007381Y-10626714D02*
X6026429Y-10617190D01*
X6026429Y-10617190D02*
X6055001Y-10617190D01*
X6055001Y-10617190D02*
X6074048Y-10626714D01*
X6074048Y-10626714D02*
X6083572Y-10636238D01*
X6083572Y-10636238D02*
X6093096Y-10655286D01*
X6093096Y-10655286D02*
X6093096Y-10712429D01*
X6093096Y-10712429D02*
X6083572Y-10731476D01*
X6083572Y-10731476D02*
X6074048Y-10741000D01*
X6074048Y-10741000D02*
X6055001Y-10750524D01*
X6055001Y-10750524D02*
X6026429Y-10750524D01*
X6150239Y-10617190D02*
X6226429Y-10617190D01*
X6178810Y-10550524D02*
X6178810Y-10721952D01*
X6178810Y-10721952D02*
X6188334Y-10741000D01*
X6188334Y-10741000D02*
X6207381Y-10750524D01*
X6207381Y-10750524D02*
X6226429Y-10750524D01*
X6283572Y-10741000D02*
X6302620Y-10750524D01*
X6302620Y-10750524D02*
X6340715Y-10750524D01*
X6340715Y-10750524D02*
X6359762Y-10741000D01*
X6359762Y-10741000D02*
X6369286Y-10721952D01*
X6369286Y-10721952D02*
X6369286Y-10712429D01*
X6369286Y-10712429D02*
X6359762Y-10693381D01*
X6359762Y-10693381D02*
X6340715Y-10683857D01*
X6340715Y-10683857D02*
X6312143Y-10683857D01*
X6312143Y-10683857D02*
X6293096Y-10674333D01*
X6293096Y-10674333D02*
X6283572Y-10655286D01*
X6283572Y-10655286D02*
X6283572Y-10645762D01*
X6283572Y-10645762D02*
X6293096Y-10626714D01*
X6293096Y-10626714D02*
X6312143Y-10617190D01*
X6312143Y-10617190D02*
X6340715Y-10617190D01*
X6340715Y-10617190D02*
X6359762Y-10626714D01*
X6435953Y-10826714D02*
X6445477Y-10817190D01*
X6445477Y-10817190D02*
X6464524Y-10788619D01*
X6464524Y-10788619D02*
X6474048Y-10769571D01*
X6474048Y-10769571D02*
X6483572Y-10741000D01*
X6483572Y-10741000D02*
X6493096Y-10693381D01*
X6493096Y-10693381D02*
X6493096Y-10655286D01*
X6493096Y-10655286D02*
X6483572Y-10607667D01*
X6483572Y-10607667D02*
X6474048Y-10579095D01*
X6474048Y-10579095D02*
X6464524Y-10560048D01*
X6464524Y-10560048D02*
X6445477Y-10531476D01*
X6445477Y-10531476D02*
X6435953Y-10521952D01*
D13*
X33766Y-10973266D02*
X33766Y-10870734D01*
X-68766Y-10870734D01*
X-68766Y-10973266D01*
X33766Y-10973266D01*
D10*
X407381Y-11014524D02*
X293095Y-11014524D01*
X350238Y-11014524D02*
X350238Y-10814524D01*
X350238Y-10814524D02*
X331190Y-10843095D01*
X331190Y-10843095D02*
X312143Y-10862143D01*
X312143Y-10862143D02*
X293095Y-10871667D01*
X493095Y-10995476D02*
X502619Y-11005000D01*
X502619Y-11005000D02*
X493095Y-11014524D01*
X493095Y-11014524D02*
X483571Y-11005000D01*
X483571Y-11005000D02*
X493095Y-10995476D01*
X493095Y-10995476D02*
X493095Y-11014524D01*
X674048Y-10881190D02*
X674048Y-11014524D01*
X626429Y-10805000D02*
X578810Y-10947857D01*
X578810Y-10947857D02*
X702619Y-10947857D01*
X874048Y-10814524D02*
X778809Y-10814524D01*
X778809Y-10814524D02*
X769286Y-10909762D01*
X769286Y-10909762D02*
X778809Y-10900238D01*
X778809Y-10900238D02*
X797857Y-10890714D01*
X797857Y-10890714D02*
X845476Y-10890714D01*
X845476Y-10890714D02*
X864524Y-10900238D01*
X864524Y-10900238D02*
X874048Y-10909762D01*
X874048Y-10909762D02*
X883571Y-10928810D01*
X883571Y-10928810D02*
X883571Y-10976429D01*
X883571Y-10976429D02*
X874048Y-10995476D01*
X874048Y-10995476D02*
X864524Y-11005000D01*
X864524Y-11005000D02*
X845476Y-11014524D01*
X845476Y-11014524D02*
X797857Y-11014524D01*
X797857Y-11014524D02*
X778809Y-11005000D01*
X778809Y-11005000D02*
X769286Y-10995476D01*
X1007381Y-10814524D02*
X1026429Y-10814524D01*
X1026429Y-10814524D02*
X1045476Y-10824048D01*
X1045476Y-10824048D02*
X1055000Y-10833571D01*
X1055000Y-10833571D02*
X1064524Y-10852619D01*
X1064524Y-10852619D02*
X1074048Y-10890714D01*
X1074048Y-10890714D02*
X1074048Y-10938333D01*
X1074048Y-10938333D02*
X1064524Y-10976429D01*
X1064524Y-10976429D02*
X1055000Y-10995476D01*
X1055000Y-10995476D02*
X1045476Y-11005000D01*
X1045476Y-11005000D02*
X1026429Y-11014524D01*
X1026429Y-11014524D02*
X1007381Y-11014524D01*
X1007381Y-11014524D02*
X988333Y-11005000D01*
X988333Y-11005000D02*
X978809Y-10995476D01*
X978809Y-10995476D02*
X969286Y-10976429D01*
X969286Y-10976429D02*
X959762Y-10938333D01*
X959762Y-10938333D02*
X959762Y-10890714D01*
X959762Y-10890714D02*
X969286Y-10852619D01*
X969286Y-10852619D02*
X978809Y-10833571D01*
X978809Y-10833571D02*
X988333Y-10824048D01*
X988333Y-10824048D02*
X1007381Y-10814524D01*
X1159762Y-11014524D02*
X1159762Y-10881190D01*
X1159762Y-10900238D02*
X1169286Y-10890714D01*
X1169286Y-10890714D02*
X1188333Y-10881190D01*
X1188333Y-10881190D02*
X1216905Y-10881190D01*
X1216905Y-10881190D02*
X1235952Y-10890714D01*
X1235952Y-10890714D02*
X1245476Y-10909762D01*
X1245476Y-10909762D02*
X1245476Y-11014524D01*
X1245476Y-10909762D02*
X1255000Y-10890714D01*
X1255000Y-10890714D02*
X1274048Y-10881190D01*
X1274048Y-10881190D02*
X1302619Y-10881190D01*
X1302619Y-10881190D02*
X1321667Y-10890714D01*
X1321667Y-10890714D02*
X1331191Y-10909762D01*
X1331191Y-10909762D02*
X1331191Y-11014524D01*
X1426429Y-11014524D02*
X1426429Y-10881190D01*
X1426429Y-10900238D02*
X1435952Y-10890714D01*
X1435952Y-10890714D02*
X1455000Y-10881190D01*
X1455000Y-10881190D02*
X1483571Y-10881190D01*
X1483571Y-10881190D02*
X1502619Y-10890714D01*
X1502619Y-10890714D02*
X1512143Y-10909762D01*
X1512143Y-10909762D02*
X1512143Y-11014524D01*
X1512143Y-10909762D02*
X1521667Y-10890714D01*
X1521667Y-10890714D02*
X1540714Y-10881190D01*
X1540714Y-10881190D02*
X1569286Y-10881190D01*
X1569286Y-10881190D02*
X1588333Y-10890714D01*
X1588333Y-10890714D02*
X1597857Y-10909762D01*
X1597857Y-10909762D02*
X1597857Y-11014524D01*
X1988333Y-10805000D02*
X1816905Y-11062143D01*
X2245476Y-10814524D02*
X2264524Y-10814524D01*
X2264524Y-10814524D02*
X2283572Y-10824048D01*
X2283572Y-10824048D02*
X2293095Y-10833571D01*
X2293095Y-10833571D02*
X2302619Y-10852619D01*
X2302619Y-10852619D02*
X2312143Y-10890714D01*
X2312143Y-10890714D02*
X2312143Y-10938333D01*
X2312143Y-10938333D02*
X2302619Y-10976429D01*
X2302619Y-10976429D02*
X2293095Y-10995476D01*
X2293095Y-10995476D02*
X2283572Y-11005000D01*
X2283572Y-11005000D02*
X2264524Y-11014524D01*
X2264524Y-11014524D02*
X2245476Y-11014524D01*
X2245476Y-11014524D02*
X2226429Y-11005000D01*
X2226429Y-11005000D02*
X2216905Y-10995476D01*
X2216905Y-10995476D02*
X2207381Y-10976429D01*
X2207381Y-10976429D02*
X2197857Y-10938333D01*
X2197857Y-10938333D02*
X2197857Y-10890714D01*
X2197857Y-10890714D02*
X2207381Y-10852619D01*
X2207381Y-10852619D02*
X2216905Y-10833571D01*
X2216905Y-10833571D02*
X2226429Y-10824048D01*
X2226429Y-10824048D02*
X2245476Y-10814524D01*
X2397857Y-10995476D02*
X2407381Y-11005000D01*
X2407381Y-11005000D02*
X2397857Y-11014524D01*
X2397857Y-11014524D02*
X2388334Y-11005000D01*
X2388334Y-11005000D02*
X2397857Y-10995476D01*
X2397857Y-10995476D02*
X2397857Y-11014524D01*
X2531191Y-10814524D02*
X2550238Y-10814524D01*
X2550238Y-10814524D02*
X2569286Y-10824048D01*
X2569286Y-10824048D02*
X2578810Y-10833571D01*
X2578810Y-10833571D02*
X2588334Y-10852619D01*
X2588334Y-10852619D02*
X2597857Y-10890714D01*
X2597857Y-10890714D02*
X2597857Y-10938333D01*
X2597857Y-10938333D02*
X2588334Y-10976429D01*
X2588334Y-10976429D02*
X2578810Y-10995476D01*
X2578810Y-10995476D02*
X2569286Y-11005000D01*
X2569286Y-11005000D02*
X2550238Y-11014524D01*
X2550238Y-11014524D02*
X2531191Y-11014524D01*
X2531191Y-11014524D02*
X2512143Y-11005000D01*
X2512143Y-11005000D02*
X2502619Y-10995476D01*
X2502619Y-10995476D02*
X2493095Y-10976429D01*
X2493095Y-10976429D02*
X2483572Y-10938333D01*
X2483572Y-10938333D02*
X2483572Y-10890714D01*
X2483572Y-10890714D02*
X2493095Y-10852619D01*
X2493095Y-10852619D02*
X2502619Y-10833571D01*
X2502619Y-10833571D02*
X2512143Y-10824048D01*
X2512143Y-10824048D02*
X2531191Y-10814524D01*
X2778810Y-10814524D02*
X2683572Y-10814524D01*
X2683572Y-10814524D02*
X2674048Y-10909762D01*
X2674048Y-10909762D02*
X2683572Y-10900238D01*
X2683572Y-10900238D02*
X2702619Y-10890714D01*
X2702619Y-10890714D02*
X2750238Y-10890714D01*
X2750238Y-10890714D02*
X2769286Y-10900238D01*
X2769286Y-10900238D02*
X2778810Y-10909762D01*
X2778810Y-10909762D02*
X2788334Y-10928810D01*
X2788334Y-10928810D02*
X2788334Y-10976429D01*
X2788334Y-10976429D02*
X2778810Y-10995476D01*
X2778810Y-10995476D02*
X2769286Y-11005000D01*
X2769286Y-11005000D02*
X2750238Y-11014524D01*
X2750238Y-11014524D02*
X2702619Y-11014524D01*
X2702619Y-11014524D02*
X2683572Y-11005000D01*
X2683572Y-11005000D02*
X2674048Y-10995476D01*
X2855000Y-10814524D02*
X2988333Y-10814524D01*
X2988333Y-10814524D02*
X2902619Y-11014524D01*
X3169286Y-11014524D02*
X3055000Y-11014524D01*
X3112143Y-11014524D02*
X3112143Y-10814524D01*
X3112143Y-10814524D02*
X3093095Y-10843095D01*
X3093095Y-10843095D02*
X3074048Y-10862143D01*
X3074048Y-10862143D02*
X3055000Y-10871667D01*
X3245476Y-10814524D02*
X3245476Y-10852619D01*
X3321667Y-10814524D02*
X3321667Y-10852619D01*
X3616905Y-11090714D02*
X3607381Y-11081190D01*
X3607381Y-11081190D02*
X3588334Y-11052619D01*
X3588334Y-11052619D02*
X3578810Y-11033571D01*
X3578810Y-11033571D02*
X3569286Y-11005000D01*
X3569286Y-11005000D02*
X3559762Y-10957381D01*
X3559762Y-10957381D02*
X3559762Y-10919286D01*
X3559762Y-10919286D02*
X3569286Y-10871667D01*
X3569286Y-10871667D02*
X3578810Y-10843095D01*
X3578810Y-10843095D02*
X3588334Y-10824048D01*
X3588334Y-10824048D02*
X3607381Y-10795476D01*
X3607381Y-10795476D02*
X3616905Y-10785952D01*
X3797857Y-11014524D02*
X3683572Y-11014524D01*
X3740714Y-11014524D02*
X3740714Y-10814524D01*
X3740714Y-10814524D02*
X3721667Y-10843095D01*
X3721667Y-10843095D02*
X3702619Y-10862143D01*
X3702619Y-10862143D02*
X3683572Y-10871667D01*
X3921667Y-10814524D02*
X3940715Y-10814524D01*
X3940715Y-10814524D02*
X3959762Y-10824048D01*
X3959762Y-10824048D02*
X3969286Y-10833571D01*
X3969286Y-10833571D02*
X3978810Y-10852619D01*
X3978810Y-10852619D02*
X3988334Y-10890714D01*
X3988334Y-10890714D02*
X3988334Y-10938333D01*
X3988334Y-10938333D02*
X3978810Y-10976429D01*
X3978810Y-10976429D02*
X3969286Y-10995476D01*
X3969286Y-10995476D02*
X3959762Y-11005000D01*
X3959762Y-11005000D02*
X3940715Y-11014524D01*
X3940715Y-11014524D02*
X3921667Y-11014524D01*
X3921667Y-11014524D02*
X3902619Y-11005000D01*
X3902619Y-11005000D02*
X3893095Y-10995476D01*
X3893095Y-10995476D02*
X3883572Y-10976429D01*
X3883572Y-10976429D02*
X3874048Y-10938333D01*
X3874048Y-10938333D02*
X3874048Y-10890714D01*
X3874048Y-10890714D02*
X3883572Y-10852619D01*
X3883572Y-10852619D02*
X3893095Y-10833571D01*
X3893095Y-10833571D02*
X3902619Y-10824048D01*
X3902619Y-10824048D02*
X3921667Y-10814524D01*
X4226429Y-11014524D02*
X4226429Y-10814524D01*
X4312143Y-11014524D02*
X4312143Y-10909762D01*
X4312143Y-10909762D02*
X4302619Y-10890714D01*
X4302619Y-10890714D02*
X4283572Y-10881190D01*
X4283572Y-10881190D02*
X4255000Y-10881190D01*
X4255000Y-10881190D02*
X4235953Y-10890714D01*
X4235953Y-10890714D02*
X4226429Y-10900238D01*
X4435953Y-11014524D02*
X4416905Y-11005000D01*
X4416905Y-11005000D02*
X4407381Y-10995476D01*
X4407381Y-10995476D02*
X4397858Y-10976429D01*
X4397858Y-10976429D02*
X4397858Y-10919286D01*
X4397858Y-10919286D02*
X4407381Y-10900238D01*
X4407381Y-10900238D02*
X4416905Y-10890714D01*
X4416905Y-10890714D02*
X4435953Y-10881190D01*
X4435953Y-10881190D02*
X4464524Y-10881190D01*
X4464524Y-10881190D02*
X4483572Y-10890714D01*
X4483572Y-10890714D02*
X4493096Y-10900238D01*
X4493096Y-10900238D02*
X4502619Y-10919286D01*
X4502619Y-10919286D02*
X4502619Y-10976429D01*
X4502619Y-10976429D02*
X4493096Y-10995476D01*
X4493096Y-10995476D02*
X4483572Y-11005000D01*
X4483572Y-11005000D02*
X4464524Y-11014524D01*
X4464524Y-11014524D02*
X4435953Y-11014524D01*
X4616905Y-11014524D02*
X4597858Y-11005000D01*
X4597858Y-11005000D02*
X4588334Y-10985952D01*
X4588334Y-10985952D02*
X4588334Y-10814524D01*
X4769286Y-11005000D02*
X4750239Y-11014524D01*
X4750239Y-11014524D02*
X4712143Y-11014524D01*
X4712143Y-11014524D02*
X4693096Y-11005000D01*
X4693096Y-11005000D02*
X4683572Y-10985952D01*
X4683572Y-10985952D02*
X4683572Y-10909762D01*
X4683572Y-10909762D02*
X4693096Y-10890714D01*
X4693096Y-10890714D02*
X4712143Y-10881190D01*
X4712143Y-10881190D02*
X4750239Y-10881190D01*
X4750239Y-10881190D02*
X4769286Y-10890714D01*
X4769286Y-10890714D02*
X4778810Y-10909762D01*
X4778810Y-10909762D02*
X4778810Y-10928810D01*
X4778810Y-10928810D02*
X4683572Y-10947857D01*
X4855000Y-11005000D02*
X4874048Y-11014524D01*
X4874048Y-11014524D02*
X4912143Y-11014524D01*
X4912143Y-11014524D02*
X4931191Y-11005000D01*
X4931191Y-11005000D02*
X4940715Y-10985952D01*
X4940715Y-10985952D02*
X4940715Y-10976429D01*
X4940715Y-10976429D02*
X4931191Y-10957381D01*
X4931191Y-10957381D02*
X4912143Y-10947857D01*
X4912143Y-10947857D02*
X4883572Y-10947857D01*
X4883572Y-10947857D02*
X4864524Y-10938333D01*
X4864524Y-10938333D02*
X4855000Y-10919286D01*
X4855000Y-10919286D02*
X4855000Y-10909762D01*
X4855000Y-10909762D02*
X4864524Y-10890714D01*
X4864524Y-10890714D02*
X4883572Y-10881190D01*
X4883572Y-10881190D02*
X4912143Y-10881190D01*
X4912143Y-10881190D02*
X4931191Y-10890714D01*
X5007381Y-11090714D02*
X5016905Y-11081190D01*
X5016905Y-11081190D02*
X5035953Y-11052619D01*
X5035953Y-11052619D02*
X5045477Y-11033571D01*
X5045477Y-11033571D02*
X5055000Y-11005000D01*
X5055000Y-11005000D02*
X5064524Y-10957381D01*
X5064524Y-10957381D02*
X5064524Y-10919286D01*
X5064524Y-10919286D02*
X5055000Y-10871667D01*
X5055000Y-10871667D02*
X5045477Y-10843095D01*
X5045477Y-10843095D02*
X5035953Y-10824048D01*
X5035953Y-10824048D02*
X5016905Y-10795476D01*
X5016905Y-10795476D02*
X5007381Y-10785952D01*
D14*
X-18500Y-11260500D02*
X55000Y-11187000D01*
X-18500Y-11113500D01*
X-92000Y-11187000D01*
X-18500Y-11260500D01*
D10*
X407381Y-11279524D02*
X293095Y-11279524D01*
X350238Y-11279524D02*
X350238Y-11079524D01*
X350238Y-11079524D02*
X331190Y-11108095D01*
X331190Y-11108095D02*
X312143Y-11127143D01*
X312143Y-11127143D02*
X293095Y-11136667D01*
X493095Y-11260476D02*
X502619Y-11270000D01*
X502619Y-11270000D02*
X493095Y-11279524D01*
X493095Y-11279524D02*
X483571Y-11270000D01*
X483571Y-11270000D02*
X493095Y-11260476D01*
X493095Y-11260476D02*
X493095Y-11279524D01*
X674048Y-11146190D02*
X674048Y-11279524D01*
X626429Y-11070000D02*
X578810Y-11212857D01*
X578810Y-11212857D02*
X702619Y-11212857D01*
X759762Y-11079524D02*
X893095Y-11079524D01*
X893095Y-11079524D02*
X807381Y-11279524D01*
X1007381Y-11079524D02*
X1026429Y-11079524D01*
X1026429Y-11079524D02*
X1045476Y-11089048D01*
X1045476Y-11089048D02*
X1055000Y-11098571D01*
X1055000Y-11098571D02*
X1064524Y-11117619D01*
X1064524Y-11117619D02*
X1074048Y-11155714D01*
X1074048Y-11155714D02*
X1074048Y-11203333D01*
X1074048Y-11203333D02*
X1064524Y-11241428D01*
X1064524Y-11241428D02*
X1055000Y-11260476D01*
X1055000Y-11260476D02*
X1045476Y-11270000D01*
X1045476Y-11270000D02*
X1026429Y-11279524D01*
X1026429Y-11279524D02*
X1007381Y-11279524D01*
X1007381Y-11279524D02*
X988333Y-11270000D01*
X988333Y-11270000D02*
X978809Y-11260476D01*
X978809Y-11260476D02*
X969286Y-11241428D01*
X969286Y-11241428D02*
X959762Y-11203333D01*
X959762Y-11203333D02*
X959762Y-11155714D01*
X959762Y-11155714D02*
X969286Y-11117619D01*
X969286Y-11117619D02*
X978809Y-11098571D01*
X978809Y-11098571D02*
X988333Y-11089048D01*
X988333Y-11089048D02*
X1007381Y-11079524D01*
X1159762Y-11279524D02*
X1159762Y-11146190D01*
X1159762Y-11165238D02*
X1169286Y-11155714D01*
X1169286Y-11155714D02*
X1188333Y-11146190D01*
X1188333Y-11146190D02*
X1216905Y-11146190D01*
X1216905Y-11146190D02*
X1235952Y-11155714D01*
X1235952Y-11155714D02*
X1245476Y-11174762D01*
X1245476Y-11174762D02*
X1245476Y-11279524D01*
X1245476Y-11174762D02*
X1255000Y-11155714D01*
X1255000Y-11155714D02*
X1274048Y-11146190D01*
X1274048Y-11146190D02*
X1302619Y-11146190D01*
X1302619Y-11146190D02*
X1321667Y-11155714D01*
X1321667Y-11155714D02*
X1331191Y-11174762D01*
X1331191Y-11174762D02*
X1331191Y-11279524D01*
X1426429Y-11279524D02*
X1426429Y-11146190D01*
X1426429Y-11165238D02*
X1435952Y-11155714D01*
X1435952Y-11155714D02*
X1455000Y-11146190D01*
X1455000Y-11146190D02*
X1483571Y-11146190D01*
X1483571Y-11146190D02*
X1502619Y-11155714D01*
X1502619Y-11155714D02*
X1512143Y-11174762D01*
X1512143Y-11174762D02*
X1512143Y-11279524D01*
X1512143Y-11174762D02*
X1521667Y-11155714D01*
X1521667Y-11155714D02*
X1540714Y-11146190D01*
X1540714Y-11146190D02*
X1569286Y-11146190D01*
X1569286Y-11146190D02*
X1588333Y-11155714D01*
X1588333Y-11155714D02*
X1597857Y-11174762D01*
X1597857Y-11174762D02*
X1597857Y-11279524D01*
X1988333Y-11070000D02*
X1816905Y-11327143D01*
X2245476Y-11079524D02*
X2264524Y-11079524D01*
X2264524Y-11079524D02*
X2283572Y-11089048D01*
X2283572Y-11089048D02*
X2293095Y-11098571D01*
X2293095Y-11098571D02*
X2302619Y-11117619D01*
X2302619Y-11117619D02*
X2312143Y-11155714D01*
X2312143Y-11155714D02*
X2312143Y-11203333D01*
X2312143Y-11203333D02*
X2302619Y-11241428D01*
X2302619Y-11241428D02*
X2293095Y-11260476D01*
X2293095Y-11260476D02*
X2283572Y-11270000D01*
X2283572Y-11270000D02*
X2264524Y-11279524D01*
X2264524Y-11279524D02*
X2245476Y-11279524D01*
X2245476Y-11279524D02*
X2226429Y-11270000D01*
X2226429Y-11270000D02*
X2216905Y-11260476D01*
X2216905Y-11260476D02*
X2207381Y-11241428D01*
X2207381Y-11241428D02*
X2197857Y-11203333D01*
X2197857Y-11203333D02*
X2197857Y-11155714D01*
X2197857Y-11155714D02*
X2207381Y-11117619D01*
X2207381Y-11117619D02*
X2216905Y-11098571D01*
X2216905Y-11098571D02*
X2226429Y-11089048D01*
X2226429Y-11089048D02*
X2245476Y-11079524D01*
X2397857Y-11260476D02*
X2407381Y-11270000D01*
X2407381Y-11270000D02*
X2397857Y-11279524D01*
X2397857Y-11279524D02*
X2388334Y-11270000D01*
X2388334Y-11270000D02*
X2397857Y-11260476D01*
X2397857Y-11260476D02*
X2397857Y-11279524D01*
X2531191Y-11079524D02*
X2550238Y-11079524D01*
X2550238Y-11079524D02*
X2569286Y-11089048D01*
X2569286Y-11089048D02*
X2578810Y-11098571D01*
X2578810Y-11098571D02*
X2588334Y-11117619D01*
X2588334Y-11117619D02*
X2597857Y-11155714D01*
X2597857Y-11155714D02*
X2597857Y-11203333D01*
X2597857Y-11203333D02*
X2588334Y-11241428D01*
X2588334Y-11241428D02*
X2578810Y-11260476D01*
X2578810Y-11260476D02*
X2569286Y-11270000D01*
X2569286Y-11270000D02*
X2550238Y-11279524D01*
X2550238Y-11279524D02*
X2531191Y-11279524D01*
X2531191Y-11279524D02*
X2512143Y-11270000D01*
X2512143Y-11270000D02*
X2502619Y-11260476D01*
X2502619Y-11260476D02*
X2493095Y-11241428D01*
X2493095Y-11241428D02*
X2483572Y-11203333D01*
X2483572Y-11203333D02*
X2483572Y-11155714D01*
X2483572Y-11155714D02*
X2493095Y-11117619D01*
X2493095Y-11117619D02*
X2502619Y-11098571D01*
X2502619Y-11098571D02*
X2512143Y-11089048D01*
X2512143Y-11089048D02*
X2531191Y-11079524D01*
X2778810Y-11079524D02*
X2683572Y-11079524D01*
X2683572Y-11079524D02*
X2674048Y-11174762D01*
X2674048Y-11174762D02*
X2683572Y-11165238D01*
X2683572Y-11165238D02*
X2702619Y-11155714D01*
X2702619Y-11155714D02*
X2750238Y-11155714D01*
X2750238Y-11155714D02*
X2769286Y-11165238D01*
X2769286Y-11165238D02*
X2778810Y-11174762D01*
X2778810Y-11174762D02*
X2788334Y-11193809D01*
X2788334Y-11193809D02*
X2788334Y-11241428D01*
X2788334Y-11241428D02*
X2778810Y-11260476D01*
X2778810Y-11260476D02*
X2769286Y-11270000D01*
X2769286Y-11270000D02*
X2750238Y-11279524D01*
X2750238Y-11279524D02*
X2702619Y-11279524D01*
X2702619Y-11279524D02*
X2683572Y-11270000D01*
X2683572Y-11270000D02*
X2674048Y-11260476D01*
X2855000Y-11079524D02*
X2988333Y-11079524D01*
X2988333Y-11079524D02*
X2902619Y-11279524D01*
X3074048Y-11279524D02*
X3112143Y-11279524D01*
X3112143Y-11279524D02*
X3131191Y-11270000D01*
X3131191Y-11270000D02*
X3140714Y-11260476D01*
X3140714Y-11260476D02*
X3159762Y-11231905D01*
X3159762Y-11231905D02*
X3169286Y-11193809D01*
X3169286Y-11193809D02*
X3169286Y-11117619D01*
X3169286Y-11117619D02*
X3159762Y-11098571D01*
X3159762Y-11098571D02*
X3150238Y-11089048D01*
X3150238Y-11089048D02*
X3131191Y-11079524D01*
X3131191Y-11079524D02*
X3093095Y-11079524D01*
X3093095Y-11079524D02*
X3074048Y-11089048D01*
X3074048Y-11089048D02*
X3064524Y-11098571D01*
X3064524Y-11098571D02*
X3055000Y-11117619D01*
X3055000Y-11117619D02*
X3055000Y-11165238D01*
X3055000Y-11165238D02*
X3064524Y-11184286D01*
X3064524Y-11184286D02*
X3074048Y-11193809D01*
X3074048Y-11193809D02*
X3093095Y-11203333D01*
X3093095Y-11203333D02*
X3131191Y-11203333D01*
X3131191Y-11203333D02*
X3150238Y-11193809D01*
X3150238Y-11193809D02*
X3159762Y-11184286D01*
X3159762Y-11184286D02*
X3169286Y-11165238D01*
X3245476Y-11079524D02*
X3245476Y-11117619D01*
X3321667Y-11079524D02*
X3321667Y-11117619D01*
X3616905Y-11355714D02*
X3607381Y-11346190D01*
X3607381Y-11346190D02*
X3588334Y-11317619D01*
X3588334Y-11317619D02*
X3578810Y-11298571D01*
X3578810Y-11298571D02*
X3569286Y-11270000D01*
X3569286Y-11270000D02*
X3559762Y-11222381D01*
X3559762Y-11222381D02*
X3559762Y-11184286D01*
X3559762Y-11184286D02*
X3569286Y-11136667D01*
X3569286Y-11136667D02*
X3578810Y-11108095D01*
X3578810Y-11108095D02*
X3588334Y-11089048D01*
X3588334Y-11089048D02*
X3607381Y-11060476D01*
X3607381Y-11060476D02*
X3616905Y-11050952D01*
X3778810Y-11146190D02*
X3778810Y-11279524D01*
X3731191Y-11070000D02*
X3683572Y-11212857D01*
X3683572Y-11212857D02*
X3807381Y-11212857D01*
X4035953Y-11279524D02*
X4035953Y-11079524D01*
X4121667Y-11279524D02*
X4121667Y-11174762D01*
X4121667Y-11174762D02*
X4112143Y-11155714D01*
X4112143Y-11155714D02*
X4093096Y-11146190D01*
X4093096Y-11146190D02*
X4064524Y-11146190D01*
X4064524Y-11146190D02*
X4045476Y-11155714D01*
X4045476Y-11155714D02*
X4035953Y-11165238D01*
X4245477Y-11279524D02*
X4226429Y-11270000D01*
X4226429Y-11270000D02*
X4216905Y-11260476D01*
X4216905Y-11260476D02*
X4207381Y-11241428D01*
X4207381Y-11241428D02*
X4207381Y-11184286D01*
X4207381Y-11184286D02*
X4216905Y-11165238D01*
X4216905Y-11165238D02*
X4226429Y-11155714D01*
X4226429Y-11155714D02*
X4245477Y-11146190D01*
X4245477Y-11146190D02*
X4274048Y-11146190D01*
X4274048Y-11146190D02*
X4293096Y-11155714D01*
X4293096Y-11155714D02*
X4302619Y-11165238D01*
X4302619Y-11165238D02*
X4312143Y-11184286D01*
X4312143Y-11184286D02*
X4312143Y-11241428D01*
X4312143Y-11241428D02*
X4302619Y-11260476D01*
X4302619Y-11260476D02*
X4293096Y-11270000D01*
X4293096Y-11270000D02*
X4274048Y-11279524D01*
X4274048Y-11279524D02*
X4245477Y-11279524D01*
X4426429Y-11279524D02*
X4407381Y-11270000D01*
X4407381Y-11270000D02*
X4397858Y-11250952D01*
X4397858Y-11250952D02*
X4397858Y-11079524D01*
X4578810Y-11270000D02*
X4559762Y-11279524D01*
X4559762Y-11279524D02*
X4521667Y-11279524D01*
X4521667Y-11279524D02*
X4502619Y-11270000D01*
X4502619Y-11270000D02*
X4493096Y-11250952D01*
X4493096Y-11250952D02*
X4493096Y-11174762D01*
X4493096Y-11174762D02*
X4502619Y-11155714D01*
X4502619Y-11155714D02*
X4521667Y-11146190D01*
X4521667Y-11146190D02*
X4559762Y-11146190D01*
X4559762Y-11146190D02*
X4578810Y-11155714D01*
X4578810Y-11155714D02*
X4588334Y-11174762D01*
X4588334Y-11174762D02*
X4588334Y-11193809D01*
X4588334Y-11193809D02*
X4493096Y-11212857D01*
X4664524Y-11270000D02*
X4683572Y-11279524D01*
X4683572Y-11279524D02*
X4721667Y-11279524D01*
X4721667Y-11279524D02*
X4740715Y-11270000D01*
X4740715Y-11270000D02*
X4750239Y-11250952D01*
X4750239Y-11250952D02*
X4750239Y-11241428D01*
X4750239Y-11241428D02*
X4740715Y-11222381D01*
X4740715Y-11222381D02*
X4721667Y-11212857D01*
X4721667Y-11212857D02*
X4693096Y-11212857D01*
X4693096Y-11212857D02*
X4674048Y-11203333D01*
X4674048Y-11203333D02*
X4664524Y-11184286D01*
X4664524Y-11184286D02*
X4664524Y-11174762D01*
X4664524Y-11174762D02*
X4674048Y-11155714D01*
X4674048Y-11155714D02*
X4693096Y-11146190D01*
X4693096Y-11146190D02*
X4721667Y-11146190D01*
X4721667Y-11146190D02*
X4740715Y-11155714D01*
X4816905Y-11355714D02*
X4826429Y-11346190D01*
X4826429Y-11346190D02*
X4845477Y-11317619D01*
X4845477Y-11317619D02*
X4855000Y-11298571D01*
X4855000Y-11298571D02*
X4864524Y-11270000D01*
X4864524Y-11270000D02*
X4874048Y-11222381D01*
X4874048Y-11222381D02*
X4874048Y-11184286D01*
X4874048Y-11184286D02*
X4864524Y-11136667D01*
X4864524Y-11136667D02*
X4855000Y-11108095D01*
X4855000Y-11108095D02*
X4845477Y-11089048D01*
X4845477Y-11089048D02*
X4826429Y-11060476D01*
X4826429Y-11060476D02*
X4816905Y-11050952D01*
D15*
X-95000Y-11379000D02*
X55000Y-11529000D01*
X55000Y-11379000D02*
X-95000Y-11529000D01*
X55000Y-11454000D02*
G75*
G03*
X55000Y-11454000I-75000J0D01*
G01*
D10*
X407381Y-11546524D02*
X293095Y-11546524D01*
X350238Y-11546524D02*
X350238Y-11346524D01*
X350238Y-11346524D02*
X331190Y-11375095D01*
X331190Y-11375095D02*
X312143Y-11394143D01*
X312143Y-11394143D02*
X293095Y-11403667D01*
X493095Y-11527476D02*
X502619Y-11537000D01*
X502619Y-11537000D02*
X493095Y-11546524D01*
X493095Y-11546524D02*
X483571Y-11537000D01*
X483571Y-11537000D02*
X493095Y-11527476D01*
X493095Y-11527476D02*
X493095Y-11546524D01*
X683571Y-11346524D02*
X588333Y-11346524D01*
X588333Y-11346524D02*
X578810Y-11441762D01*
X578810Y-11441762D02*
X588333Y-11432238D01*
X588333Y-11432238D02*
X607381Y-11422714D01*
X607381Y-11422714D02*
X655000Y-11422714D01*
X655000Y-11422714D02*
X674048Y-11432238D01*
X674048Y-11432238D02*
X683571Y-11441762D01*
X683571Y-11441762D02*
X693095Y-11460809D01*
X693095Y-11460809D02*
X693095Y-11508428D01*
X693095Y-11508428D02*
X683571Y-11527476D01*
X683571Y-11527476D02*
X674048Y-11537000D01*
X674048Y-11537000D02*
X655000Y-11546524D01*
X655000Y-11546524D02*
X607381Y-11546524D01*
X607381Y-11546524D02*
X588333Y-11537000D01*
X588333Y-11537000D02*
X578810Y-11527476D01*
X816905Y-11346524D02*
X835952Y-11346524D01*
X835952Y-11346524D02*
X855000Y-11356048D01*
X855000Y-11356048D02*
X864524Y-11365571D01*
X864524Y-11365571D02*
X874048Y-11384619D01*
X874048Y-11384619D02*
X883571Y-11422714D01*
X883571Y-11422714D02*
X883571Y-11470333D01*
X883571Y-11470333D02*
X874048Y-11508428D01*
X874048Y-11508428D02*
X864524Y-11527476D01*
X864524Y-11527476D02*
X855000Y-11537000D01*
X855000Y-11537000D02*
X835952Y-11546524D01*
X835952Y-11546524D02*
X816905Y-11546524D01*
X816905Y-11546524D02*
X797857Y-11537000D01*
X797857Y-11537000D02*
X788333Y-11527476D01*
X788333Y-11527476D02*
X778809Y-11508428D01*
X778809Y-11508428D02*
X769286Y-11470333D01*
X769286Y-11470333D02*
X769286Y-11422714D01*
X769286Y-11422714D02*
X778809Y-11384619D01*
X778809Y-11384619D02*
X788333Y-11365571D01*
X788333Y-11365571D02*
X797857Y-11356048D01*
X797857Y-11356048D02*
X816905Y-11346524D01*
X1007381Y-11346524D02*
X1026429Y-11346524D01*
X1026429Y-11346524D02*
X1045476Y-11356048D01*
X1045476Y-11356048D02*
X1055000Y-11365571D01*
X1055000Y-11365571D02*
X1064524Y-11384619D01*
X1064524Y-11384619D02*
X1074048Y-11422714D01*
X1074048Y-11422714D02*
X1074048Y-11470333D01*
X1074048Y-11470333D02*
X1064524Y-11508428D01*
X1064524Y-11508428D02*
X1055000Y-11527476D01*
X1055000Y-11527476D02*
X1045476Y-11537000D01*
X1045476Y-11537000D02*
X1026429Y-11546524D01*
X1026429Y-11546524D02*
X1007381Y-11546524D01*
X1007381Y-11546524D02*
X988333Y-11537000D01*
X988333Y-11537000D02*
X978809Y-11527476D01*
X978809Y-11527476D02*
X969286Y-11508428D01*
X969286Y-11508428D02*
X959762Y-11470333D01*
X959762Y-11470333D02*
X959762Y-11422714D01*
X959762Y-11422714D02*
X969286Y-11384619D01*
X969286Y-11384619D02*
X978809Y-11365571D01*
X978809Y-11365571D02*
X988333Y-11356048D01*
X988333Y-11356048D02*
X1007381Y-11346524D01*
X1159762Y-11546524D02*
X1159762Y-11413190D01*
X1159762Y-11432238D02*
X1169286Y-11422714D01*
X1169286Y-11422714D02*
X1188333Y-11413190D01*
X1188333Y-11413190D02*
X1216905Y-11413190D01*
X1216905Y-11413190D02*
X1235952Y-11422714D01*
X1235952Y-11422714D02*
X1245476Y-11441762D01*
X1245476Y-11441762D02*
X1245476Y-11546524D01*
X1245476Y-11441762D02*
X1255000Y-11422714D01*
X1255000Y-11422714D02*
X1274048Y-11413190D01*
X1274048Y-11413190D02*
X1302619Y-11413190D01*
X1302619Y-11413190D02*
X1321667Y-11422714D01*
X1321667Y-11422714D02*
X1331191Y-11441762D01*
X1331191Y-11441762D02*
X1331191Y-11546524D01*
X1426429Y-11546524D02*
X1426429Y-11413190D01*
X1426429Y-11432238D02*
X1435952Y-11422714D01*
X1435952Y-11422714D02*
X1455000Y-11413190D01*
X1455000Y-11413190D02*
X1483571Y-11413190D01*
X1483571Y-11413190D02*
X1502619Y-11422714D01*
X1502619Y-11422714D02*
X1512143Y-11441762D01*
X1512143Y-11441762D02*
X1512143Y-11546524D01*
X1512143Y-11441762D02*
X1521667Y-11422714D01*
X1521667Y-11422714D02*
X1540714Y-11413190D01*
X1540714Y-11413190D02*
X1569286Y-11413190D01*
X1569286Y-11413190D02*
X1588333Y-11422714D01*
X1588333Y-11422714D02*
X1597857Y-11441762D01*
X1597857Y-11441762D02*
X1597857Y-11546524D01*
X1988333Y-11337000D02*
X1816905Y-11594143D01*
X2245476Y-11346524D02*
X2264524Y-11346524D01*
X2264524Y-11346524D02*
X2283572Y-11356048D01*
X2283572Y-11356048D02*
X2293095Y-11365571D01*
X2293095Y-11365571D02*
X2302619Y-11384619D01*
X2302619Y-11384619D02*
X2312143Y-11422714D01*
X2312143Y-11422714D02*
X2312143Y-11470333D01*
X2312143Y-11470333D02*
X2302619Y-11508428D01*
X2302619Y-11508428D02*
X2293095Y-11527476D01*
X2293095Y-11527476D02*
X2283572Y-11537000D01*
X2283572Y-11537000D02*
X2264524Y-11546524D01*
X2264524Y-11546524D02*
X2245476Y-11546524D01*
X2245476Y-11546524D02*
X2226429Y-11537000D01*
X2226429Y-11537000D02*
X2216905Y-11527476D01*
X2216905Y-11527476D02*
X2207381Y-11508428D01*
X2207381Y-11508428D02*
X2197857Y-11470333D01*
X2197857Y-11470333D02*
X2197857Y-11422714D01*
X2197857Y-11422714D02*
X2207381Y-11384619D01*
X2207381Y-11384619D02*
X2216905Y-11365571D01*
X2216905Y-11365571D02*
X2226429Y-11356048D01*
X2226429Y-11356048D02*
X2245476Y-11346524D01*
X2397857Y-11527476D02*
X2407381Y-11537000D01*
X2407381Y-11537000D02*
X2397857Y-11546524D01*
X2397857Y-11546524D02*
X2388334Y-11537000D01*
X2388334Y-11537000D02*
X2397857Y-11527476D01*
X2397857Y-11527476D02*
X2397857Y-11546524D01*
X2531191Y-11346524D02*
X2550238Y-11346524D01*
X2550238Y-11346524D02*
X2569286Y-11356048D01*
X2569286Y-11356048D02*
X2578810Y-11365571D01*
X2578810Y-11365571D02*
X2588334Y-11384619D01*
X2588334Y-11384619D02*
X2597857Y-11422714D01*
X2597857Y-11422714D02*
X2597857Y-11470333D01*
X2597857Y-11470333D02*
X2588334Y-11508428D01*
X2588334Y-11508428D02*
X2578810Y-11527476D01*
X2578810Y-11527476D02*
X2569286Y-11537000D01*
X2569286Y-11537000D02*
X2550238Y-11546524D01*
X2550238Y-11546524D02*
X2531191Y-11546524D01*
X2531191Y-11546524D02*
X2512143Y-11537000D01*
X2512143Y-11537000D02*
X2502619Y-11527476D01*
X2502619Y-11527476D02*
X2493095Y-11508428D01*
X2493095Y-11508428D02*
X2483572Y-11470333D01*
X2483572Y-11470333D02*
X2483572Y-11422714D01*
X2483572Y-11422714D02*
X2493095Y-11384619D01*
X2493095Y-11384619D02*
X2502619Y-11365571D01*
X2502619Y-11365571D02*
X2512143Y-11356048D01*
X2512143Y-11356048D02*
X2531191Y-11346524D01*
X2778810Y-11346524D02*
X2683572Y-11346524D01*
X2683572Y-11346524D02*
X2674048Y-11441762D01*
X2674048Y-11441762D02*
X2683572Y-11432238D01*
X2683572Y-11432238D02*
X2702619Y-11422714D01*
X2702619Y-11422714D02*
X2750238Y-11422714D01*
X2750238Y-11422714D02*
X2769286Y-11432238D01*
X2769286Y-11432238D02*
X2778810Y-11441762D01*
X2778810Y-11441762D02*
X2788334Y-11460809D01*
X2788334Y-11460809D02*
X2788334Y-11508428D01*
X2788334Y-11508428D02*
X2778810Y-11527476D01*
X2778810Y-11527476D02*
X2769286Y-11537000D01*
X2769286Y-11537000D02*
X2750238Y-11546524D01*
X2750238Y-11546524D02*
X2702619Y-11546524D01*
X2702619Y-11546524D02*
X2683572Y-11537000D01*
X2683572Y-11537000D02*
X2674048Y-11527476D01*
X2883572Y-11546524D02*
X2921667Y-11546524D01*
X2921667Y-11546524D02*
X2940714Y-11537000D01*
X2940714Y-11537000D02*
X2950238Y-11527476D01*
X2950238Y-11527476D02*
X2969286Y-11498905D01*
X2969286Y-11498905D02*
X2978810Y-11460809D01*
X2978810Y-11460809D02*
X2978810Y-11384619D01*
X2978810Y-11384619D02*
X2969286Y-11365571D01*
X2969286Y-11365571D02*
X2959762Y-11356048D01*
X2959762Y-11356048D02*
X2940714Y-11346524D01*
X2940714Y-11346524D02*
X2902619Y-11346524D01*
X2902619Y-11346524D02*
X2883572Y-11356048D01*
X2883572Y-11356048D02*
X2874048Y-11365571D01*
X2874048Y-11365571D02*
X2864524Y-11384619D01*
X2864524Y-11384619D02*
X2864524Y-11432238D01*
X2864524Y-11432238D02*
X2874048Y-11451286D01*
X2874048Y-11451286D02*
X2883572Y-11460809D01*
X2883572Y-11460809D02*
X2902619Y-11470333D01*
X2902619Y-11470333D02*
X2940714Y-11470333D01*
X2940714Y-11470333D02*
X2959762Y-11460809D01*
X2959762Y-11460809D02*
X2969286Y-11451286D01*
X2969286Y-11451286D02*
X2978810Y-11432238D01*
X3169286Y-11546524D02*
X3055000Y-11546524D01*
X3112143Y-11546524D02*
X3112143Y-11346524D01*
X3112143Y-11346524D02*
X3093095Y-11375095D01*
X3093095Y-11375095D02*
X3074048Y-11394143D01*
X3074048Y-11394143D02*
X3055000Y-11403667D01*
X3245476Y-11346524D02*
X3245476Y-11384619D01*
X3321667Y-11346524D02*
X3321667Y-11384619D01*
X3616905Y-11622714D02*
X3607381Y-11613190D01*
X3607381Y-11613190D02*
X3588334Y-11584619D01*
X3588334Y-11584619D02*
X3578810Y-11565571D01*
X3578810Y-11565571D02*
X3569286Y-11537000D01*
X3569286Y-11537000D02*
X3559762Y-11489381D01*
X3559762Y-11489381D02*
X3559762Y-11451286D01*
X3559762Y-11451286D02*
X3569286Y-11403667D01*
X3569286Y-11403667D02*
X3578810Y-11375095D01*
X3578810Y-11375095D02*
X3588334Y-11356048D01*
X3588334Y-11356048D02*
X3607381Y-11327476D01*
X3607381Y-11327476D02*
X3616905Y-11317952D01*
X3797857Y-11546524D02*
X3683572Y-11546524D01*
X3740714Y-11546524D02*
X3740714Y-11346524D01*
X3740714Y-11346524D02*
X3721667Y-11375095D01*
X3721667Y-11375095D02*
X3702619Y-11394143D01*
X3702619Y-11394143D02*
X3683572Y-11403667D01*
X3969286Y-11413190D02*
X3969286Y-11546524D01*
X3921667Y-11337000D02*
X3874048Y-11479857D01*
X3874048Y-11479857D02*
X3997857Y-11479857D01*
X4064524Y-11365571D02*
X4074048Y-11356048D01*
X4074048Y-11356048D02*
X4093095Y-11346524D01*
X4093095Y-11346524D02*
X4140715Y-11346524D01*
X4140715Y-11346524D02*
X4159762Y-11356048D01*
X4159762Y-11356048D02*
X4169286Y-11365571D01*
X4169286Y-11365571D02*
X4178810Y-11384619D01*
X4178810Y-11384619D02*
X4178810Y-11403667D01*
X4178810Y-11403667D02*
X4169286Y-11432238D01*
X4169286Y-11432238D02*
X4055000Y-11546524D01*
X4055000Y-11546524D02*
X4178810Y-11546524D01*
X4416905Y-11546524D02*
X4416905Y-11346524D01*
X4502619Y-11546524D02*
X4502619Y-11441762D01*
X4502619Y-11441762D02*
X4493096Y-11422714D01*
X4493096Y-11422714D02*
X4474048Y-11413190D01*
X4474048Y-11413190D02*
X4445477Y-11413190D01*
X4445477Y-11413190D02*
X4426429Y-11422714D01*
X4426429Y-11422714D02*
X4416905Y-11432238D01*
X4626429Y-11546524D02*
X4607381Y-11537000D01*
X4607381Y-11537000D02*
X4597858Y-11527476D01*
X4597858Y-11527476D02*
X4588334Y-11508428D01*
X4588334Y-11508428D02*
X4588334Y-11451286D01*
X4588334Y-11451286D02*
X4597858Y-11432238D01*
X4597858Y-11432238D02*
X4607381Y-11422714D01*
X4607381Y-11422714D02*
X4626429Y-11413190D01*
X4626429Y-11413190D02*
X4655000Y-11413190D01*
X4655000Y-11413190D02*
X4674048Y-11422714D01*
X4674048Y-11422714D02*
X4683572Y-11432238D01*
X4683572Y-11432238D02*
X4693096Y-11451286D01*
X4693096Y-11451286D02*
X4693096Y-11508428D01*
X4693096Y-11508428D02*
X4683572Y-11527476D01*
X4683572Y-11527476D02*
X4674048Y-11537000D01*
X4674048Y-11537000D02*
X4655000Y-11546524D01*
X4655000Y-11546524D02*
X4626429Y-11546524D01*
X4807381Y-11546524D02*
X4788334Y-11537000D01*
X4788334Y-11537000D02*
X4778810Y-11517952D01*
X4778810Y-11517952D02*
X4778810Y-11346524D01*
X4959762Y-11537000D02*
X4940715Y-11546524D01*
X4940715Y-11546524D02*
X4902619Y-11546524D01*
X4902619Y-11546524D02*
X4883572Y-11537000D01*
X4883572Y-11537000D02*
X4874048Y-11517952D01*
X4874048Y-11517952D02*
X4874048Y-11441762D01*
X4874048Y-11441762D02*
X4883572Y-11422714D01*
X4883572Y-11422714D02*
X4902619Y-11413190D01*
X4902619Y-11413190D02*
X4940715Y-11413190D01*
X4940715Y-11413190D02*
X4959762Y-11422714D01*
X4959762Y-11422714D02*
X4969286Y-11441762D01*
X4969286Y-11441762D02*
X4969286Y-11460809D01*
X4969286Y-11460809D02*
X4874048Y-11479857D01*
X5045477Y-11537000D02*
X5064524Y-11546524D01*
X5064524Y-11546524D02*
X5102619Y-11546524D01*
X5102619Y-11546524D02*
X5121667Y-11537000D01*
X5121667Y-11537000D02*
X5131191Y-11517952D01*
X5131191Y-11517952D02*
X5131191Y-11508428D01*
X5131191Y-11508428D02*
X5121667Y-11489381D01*
X5121667Y-11489381D02*
X5102619Y-11479857D01*
X5102619Y-11479857D02*
X5074048Y-11479857D01*
X5074048Y-11479857D02*
X5055000Y-11470333D01*
X5055000Y-11470333D02*
X5045477Y-11451286D01*
X5045477Y-11451286D02*
X5045477Y-11441762D01*
X5045477Y-11441762D02*
X5055000Y-11422714D01*
X5055000Y-11422714D02*
X5074048Y-11413190D01*
X5074048Y-11413190D02*
X5102619Y-11413190D01*
X5102619Y-11413190D02*
X5121667Y-11422714D01*
X5197858Y-11622714D02*
X5207381Y-11613190D01*
X5207381Y-11613190D02*
X5226429Y-11584619D01*
X5226429Y-11584619D02*
X5235953Y-11565571D01*
X5235953Y-11565571D02*
X5245477Y-11537000D01*
X5245477Y-11537000D02*
X5255000Y-11489381D01*
X5255000Y-11489381D02*
X5255000Y-11451286D01*
X5255000Y-11451286D02*
X5245477Y-11403667D01*
X5245477Y-11403667D02*
X5235953Y-11375095D01*
X5235953Y-11375095D02*
X5226429Y-11356048D01*
X5226429Y-11356048D02*
X5207381Y-11327476D01*
X5207381Y-11327476D02*
X5197858Y-11317952D01*
X-145000Y-11624000D02*
X55000Y-11824000D01*
X55000Y-11624000D02*
X-145000Y-11824000D01*
X-45000Y-11624000D02*
X-45000Y-11824000D01*
X-145000Y-11724000D02*
X55000Y-11724000D01*
X293095Y-11635571D02*
X302619Y-11626048D01*
X302619Y-11626048D02*
X321667Y-11616524D01*
X321667Y-11616524D02*
X369286Y-11616524D01*
X369286Y-11616524D02*
X388333Y-11626048D01*
X388333Y-11626048D02*
X397857Y-11635571D01*
X397857Y-11635571D02*
X407381Y-11654619D01*
X407381Y-11654619D02*
X407381Y-11673667D01*
X407381Y-11673667D02*
X397857Y-11702238D01*
X397857Y-11702238D02*
X283571Y-11816524D01*
X283571Y-11816524D02*
X407381Y-11816524D01*
X493095Y-11797476D02*
X502619Y-11807000D01*
X502619Y-11807000D02*
X493095Y-11816524D01*
X493095Y-11816524D02*
X483571Y-11807000D01*
X483571Y-11807000D02*
X493095Y-11797476D01*
X493095Y-11797476D02*
X493095Y-11816524D01*
X674048Y-11683190D02*
X674048Y-11816524D01*
X626429Y-11607000D02*
X578810Y-11749857D01*
X578810Y-11749857D02*
X702619Y-11749857D01*
X816905Y-11616524D02*
X835952Y-11616524D01*
X835952Y-11616524D02*
X855000Y-11626048D01*
X855000Y-11626048D02*
X864524Y-11635571D01*
X864524Y-11635571D02*
X874048Y-11654619D01*
X874048Y-11654619D02*
X883571Y-11692714D01*
X883571Y-11692714D02*
X883571Y-11740333D01*
X883571Y-11740333D02*
X874048Y-11778428D01*
X874048Y-11778428D02*
X864524Y-11797476D01*
X864524Y-11797476D02*
X855000Y-11807000D01*
X855000Y-11807000D02*
X835952Y-11816524D01*
X835952Y-11816524D02*
X816905Y-11816524D01*
X816905Y-11816524D02*
X797857Y-11807000D01*
X797857Y-11807000D02*
X788333Y-11797476D01*
X788333Y-11797476D02*
X778809Y-11778428D01*
X778809Y-11778428D02*
X769286Y-11740333D01*
X769286Y-11740333D02*
X769286Y-11692714D01*
X769286Y-11692714D02*
X778809Y-11654619D01*
X778809Y-11654619D02*
X788333Y-11635571D01*
X788333Y-11635571D02*
X797857Y-11626048D01*
X797857Y-11626048D02*
X816905Y-11616524D01*
X1007381Y-11616524D02*
X1026429Y-11616524D01*
X1026429Y-11616524D02*
X1045476Y-11626048D01*
X1045476Y-11626048D02*
X1055000Y-11635571D01*
X1055000Y-11635571D02*
X1064524Y-11654619D01*
X1064524Y-11654619D02*
X1074048Y-11692714D01*
X1074048Y-11692714D02*
X1074048Y-11740333D01*
X1074048Y-11740333D02*
X1064524Y-11778428D01*
X1064524Y-11778428D02*
X1055000Y-11797476D01*
X1055000Y-11797476D02*
X1045476Y-11807000D01*
X1045476Y-11807000D02*
X1026429Y-11816524D01*
X1026429Y-11816524D02*
X1007381Y-11816524D01*
X1007381Y-11816524D02*
X988333Y-11807000D01*
X988333Y-11807000D02*
X978809Y-11797476D01*
X978809Y-11797476D02*
X969286Y-11778428D01*
X969286Y-11778428D02*
X959762Y-11740333D01*
X959762Y-11740333D02*
X959762Y-11692714D01*
X959762Y-11692714D02*
X969286Y-11654619D01*
X969286Y-11654619D02*
X978809Y-11635571D01*
X978809Y-11635571D02*
X988333Y-11626048D01*
X988333Y-11626048D02*
X1007381Y-11616524D01*
X1159762Y-11816524D02*
X1159762Y-11683190D01*
X1159762Y-11702238D02*
X1169286Y-11692714D01*
X1169286Y-11692714D02*
X1188333Y-11683190D01*
X1188333Y-11683190D02*
X1216905Y-11683190D01*
X1216905Y-11683190D02*
X1235952Y-11692714D01*
X1235952Y-11692714D02*
X1245476Y-11711762D01*
X1245476Y-11711762D02*
X1245476Y-11816524D01*
X1245476Y-11711762D02*
X1255000Y-11692714D01*
X1255000Y-11692714D02*
X1274048Y-11683190D01*
X1274048Y-11683190D02*
X1302619Y-11683190D01*
X1302619Y-11683190D02*
X1321667Y-11692714D01*
X1321667Y-11692714D02*
X1331191Y-11711762D01*
X1331191Y-11711762D02*
X1331191Y-11816524D01*
X1426429Y-11816524D02*
X1426429Y-11683190D01*
X1426429Y-11702238D02*
X1435952Y-11692714D01*
X1435952Y-11692714D02*
X1455000Y-11683190D01*
X1455000Y-11683190D02*
X1483571Y-11683190D01*
X1483571Y-11683190D02*
X1502619Y-11692714D01*
X1502619Y-11692714D02*
X1512143Y-11711762D01*
X1512143Y-11711762D02*
X1512143Y-11816524D01*
X1512143Y-11711762D02*
X1521667Y-11692714D01*
X1521667Y-11692714D02*
X1540714Y-11683190D01*
X1540714Y-11683190D02*
X1569286Y-11683190D01*
X1569286Y-11683190D02*
X1588333Y-11692714D01*
X1588333Y-11692714D02*
X1597857Y-11711762D01*
X1597857Y-11711762D02*
X1597857Y-11816524D01*
X1988333Y-11607000D02*
X1816905Y-11864143D01*
X2245476Y-11616524D02*
X2264524Y-11616524D01*
X2264524Y-11616524D02*
X2283572Y-11626048D01*
X2283572Y-11626048D02*
X2293095Y-11635571D01*
X2293095Y-11635571D02*
X2302619Y-11654619D01*
X2302619Y-11654619D02*
X2312143Y-11692714D01*
X2312143Y-11692714D02*
X2312143Y-11740333D01*
X2312143Y-11740333D02*
X2302619Y-11778428D01*
X2302619Y-11778428D02*
X2293095Y-11797476D01*
X2293095Y-11797476D02*
X2283572Y-11807000D01*
X2283572Y-11807000D02*
X2264524Y-11816524D01*
X2264524Y-11816524D02*
X2245476Y-11816524D01*
X2245476Y-11816524D02*
X2226429Y-11807000D01*
X2226429Y-11807000D02*
X2216905Y-11797476D01*
X2216905Y-11797476D02*
X2207381Y-11778428D01*
X2207381Y-11778428D02*
X2197857Y-11740333D01*
X2197857Y-11740333D02*
X2197857Y-11692714D01*
X2197857Y-11692714D02*
X2207381Y-11654619D01*
X2207381Y-11654619D02*
X2216905Y-11635571D01*
X2216905Y-11635571D02*
X2226429Y-11626048D01*
X2226429Y-11626048D02*
X2245476Y-11616524D01*
X2397857Y-11797476D02*
X2407381Y-11807000D01*
X2407381Y-11807000D02*
X2397857Y-11816524D01*
X2397857Y-11816524D02*
X2388334Y-11807000D01*
X2388334Y-11807000D02*
X2397857Y-11797476D01*
X2397857Y-11797476D02*
X2397857Y-11816524D01*
X2531191Y-11616524D02*
X2550238Y-11616524D01*
X2550238Y-11616524D02*
X2569286Y-11626048D01*
X2569286Y-11626048D02*
X2578810Y-11635571D01*
X2578810Y-11635571D02*
X2588334Y-11654619D01*
X2588334Y-11654619D02*
X2597857Y-11692714D01*
X2597857Y-11692714D02*
X2597857Y-11740333D01*
X2597857Y-11740333D02*
X2588334Y-11778428D01*
X2588334Y-11778428D02*
X2578810Y-11797476D01*
X2578810Y-11797476D02*
X2569286Y-11807000D01*
X2569286Y-11807000D02*
X2550238Y-11816524D01*
X2550238Y-11816524D02*
X2531191Y-11816524D01*
X2531191Y-11816524D02*
X2512143Y-11807000D01*
X2512143Y-11807000D02*
X2502619Y-11797476D01*
X2502619Y-11797476D02*
X2493095Y-11778428D01*
X2493095Y-11778428D02*
X2483572Y-11740333D01*
X2483572Y-11740333D02*
X2483572Y-11692714D01*
X2483572Y-11692714D02*
X2493095Y-11654619D01*
X2493095Y-11654619D02*
X2502619Y-11635571D01*
X2502619Y-11635571D02*
X2512143Y-11626048D01*
X2512143Y-11626048D02*
X2531191Y-11616524D01*
X2693095Y-11816524D02*
X2731191Y-11816524D01*
X2731191Y-11816524D02*
X2750238Y-11807000D01*
X2750238Y-11807000D02*
X2759762Y-11797476D01*
X2759762Y-11797476D02*
X2778810Y-11768905D01*
X2778810Y-11768905D02*
X2788334Y-11730809D01*
X2788334Y-11730809D02*
X2788334Y-11654619D01*
X2788334Y-11654619D02*
X2778810Y-11635571D01*
X2778810Y-11635571D02*
X2769286Y-11626048D01*
X2769286Y-11626048D02*
X2750238Y-11616524D01*
X2750238Y-11616524D02*
X2712143Y-11616524D01*
X2712143Y-11616524D02*
X2693095Y-11626048D01*
X2693095Y-11626048D02*
X2683572Y-11635571D01*
X2683572Y-11635571D02*
X2674048Y-11654619D01*
X2674048Y-11654619D02*
X2674048Y-11702238D01*
X2674048Y-11702238D02*
X2683572Y-11721286D01*
X2683572Y-11721286D02*
X2693095Y-11730809D01*
X2693095Y-11730809D02*
X2712143Y-11740333D01*
X2712143Y-11740333D02*
X2750238Y-11740333D01*
X2750238Y-11740333D02*
X2769286Y-11730809D01*
X2769286Y-11730809D02*
X2778810Y-11721286D01*
X2778810Y-11721286D02*
X2788334Y-11702238D01*
X2959762Y-11683190D02*
X2959762Y-11816524D01*
X2912143Y-11607000D02*
X2864524Y-11749857D01*
X2864524Y-11749857D02*
X2988333Y-11749857D01*
X3159762Y-11616524D02*
X3064524Y-11616524D01*
X3064524Y-11616524D02*
X3055000Y-11711762D01*
X3055000Y-11711762D02*
X3064524Y-11702238D01*
X3064524Y-11702238D02*
X3083572Y-11692714D01*
X3083572Y-11692714D02*
X3131191Y-11692714D01*
X3131191Y-11692714D02*
X3150238Y-11702238D01*
X3150238Y-11702238D02*
X3159762Y-11711762D01*
X3159762Y-11711762D02*
X3169286Y-11730809D01*
X3169286Y-11730809D02*
X3169286Y-11778428D01*
X3169286Y-11778428D02*
X3159762Y-11797476D01*
X3159762Y-11797476D02*
X3150238Y-11807000D01*
X3150238Y-11807000D02*
X3131191Y-11816524D01*
X3131191Y-11816524D02*
X3083572Y-11816524D01*
X3083572Y-11816524D02*
X3064524Y-11807000D01*
X3064524Y-11807000D02*
X3055000Y-11797476D01*
X3245476Y-11616524D02*
X3245476Y-11654619D01*
X3321667Y-11616524D02*
X3321667Y-11654619D01*
X3616905Y-11892714D02*
X3607381Y-11883190D01*
X3607381Y-11883190D02*
X3588334Y-11854619D01*
X3588334Y-11854619D02*
X3578810Y-11835571D01*
X3578810Y-11835571D02*
X3569286Y-11807000D01*
X3569286Y-11807000D02*
X3559762Y-11759381D01*
X3559762Y-11759381D02*
X3559762Y-11721286D01*
X3559762Y-11721286D02*
X3569286Y-11673667D01*
X3569286Y-11673667D02*
X3578810Y-11645095D01*
X3578810Y-11645095D02*
X3588334Y-11626048D01*
X3588334Y-11626048D02*
X3607381Y-11597476D01*
X3607381Y-11597476D02*
X3616905Y-11587952D01*
X3731191Y-11616524D02*
X3750238Y-11616524D01*
X3750238Y-11616524D02*
X3769286Y-11626048D01*
X3769286Y-11626048D02*
X3778810Y-11635571D01*
X3778810Y-11635571D02*
X3788334Y-11654619D01*
X3788334Y-11654619D02*
X3797857Y-11692714D01*
X3797857Y-11692714D02*
X3797857Y-11740333D01*
X3797857Y-11740333D02*
X3788334Y-11778428D01*
X3788334Y-11778428D02*
X3778810Y-11797476D01*
X3778810Y-11797476D02*
X3769286Y-11807000D01*
X3769286Y-11807000D02*
X3750238Y-11816524D01*
X3750238Y-11816524D02*
X3731191Y-11816524D01*
X3731191Y-11816524D02*
X3712143Y-11807000D01*
X3712143Y-11807000D02*
X3702619Y-11797476D01*
X3702619Y-11797476D02*
X3693095Y-11778428D01*
X3693095Y-11778428D02*
X3683572Y-11740333D01*
X3683572Y-11740333D02*
X3683572Y-11692714D01*
X3683572Y-11692714D02*
X3693095Y-11654619D01*
X3693095Y-11654619D02*
X3702619Y-11635571D01*
X3702619Y-11635571D02*
X3712143Y-11626048D01*
X3712143Y-11626048D02*
X3731191Y-11616524D01*
X4035953Y-11816524D02*
X4035953Y-11616524D01*
X4121667Y-11816524D02*
X4121667Y-11711762D01*
X4121667Y-11711762D02*
X4112143Y-11692714D01*
X4112143Y-11692714D02*
X4093096Y-11683190D01*
X4093096Y-11683190D02*
X4064524Y-11683190D01*
X4064524Y-11683190D02*
X4045476Y-11692714D01*
X4045476Y-11692714D02*
X4035953Y-11702238D01*
X4245477Y-11816524D02*
X4226429Y-11807000D01*
X4226429Y-11807000D02*
X4216905Y-11797476D01*
X4216905Y-11797476D02*
X4207381Y-11778428D01*
X4207381Y-11778428D02*
X4207381Y-11721286D01*
X4207381Y-11721286D02*
X4216905Y-11702238D01*
X4216905Y-11702238D02*
X4226429Y-11692714D01*
X4226429Y-11692714D02*
X4245477Y-11683190D01*
X4245477Y-11683190D02*
X4274048Y-11683190D01*
X4274048Y-11683190D02*
X4293096Y-11692714D01*
X4293096Y-11692714D02*
X4302619Y-11702238D01*
X4302619Y-11702238D02*
X4312143Y-11721286D01*
X4312143Y-11721286D02*
X4312143Y-11778428D01*
X4312143Y-11778428D02*
X4302619Y-11797476D01*
X4302619Y-11797476D02*
X4293096Y-11807000D01*
X4293096Y-11807000D02*
X4274048Y-11816524D01*
X4274048Y-11816524D02*
X4245477Y-11816524D01*
X4426429Y-11816524D02*
X4407381Y-11807000D01*
X4407381Y-11807000D02*
X4397858Y-11787952D01*
X4397858Y-11787952D02*
X4397858Y-11616524D01*
X4578810Y-11807000D02*
X4559762Y-11816524D01*
X4559762Y-11816524D02*
X4521667Y-11816524D01*
X4521667Y-11816524D02*
X4502619Y-11807000D01*
X4502619Y-11807000D02*
X4493096Y-11787952D01*
X4493096Y-11787952D02*
X4493096Y-11711762D01*
X4493096Y-11711762D02*
X4502619Y-11692714D01*
X4502619Y-11692714D02*
X4521667Y-11683190D01*
X4521667Y-11683190D02*
X4559762Y-11683190D01*
X4559762Y-11683190D02*
X4578810Y-11692714D01*
X4578810Y-11692714D02*
X4588334Y-11711762D01*
X4588334Y-11711762D02*
X4588334Y-11730809D01*
X4588334Y-11730809D02*
X4493096Y-11749857D01*
X4664524Y-11807000D02*
X4683572Y-11816524D01*
X4683572Y-11816524D02*
X4721667Y-11816524D01*
X4721667Y-11816524D02*
X4740715Y-11807000D01*
X4740715Y-11807000D02*
X4750239Y-11787952D01*
X4750239Y-11787952D02*
X4750239Y-11778428D01*
X4750239Y-11778428D02*
X4740715Y-11759381D01*
X4740715Y-11759381D02*
X4721667Y-11749857D01*
X4721667Y-11749857D02*
X4693096Y-11749857D01*
X4693096Y-11749857D02*
X4674048Y-11740333D01*
X4674048Y-11740333D02*
X4664524Y-11721286D01*
X4664524Y-11721286D02*
X4664524Y-11711762D01*
X4664524Y-11711762D02*
X4674048Y-11692714D01*
X4674048Y-11692714D02*
X4693096Y-11683190D01*
X4693096Y-11683190D02*
X4721667Y-11683190D01*
X4721667Y-11683190D02*
X4740715Y-11692714D01*
X4988334Y-11740333D02*
X5140715Y-11740333D01*
X5064524Y-11816524D02*
X5064524Y-11664143D01*
X5474048Y-11683190D02*
X5474048Y-11816524D01*
X5426429Y-11607000D02*
X5378810Y-11749857D01*
X5378810Y-11749857D02*
X5502620Y-11749857D01*
X5721667Y-11807000D02*
X5740715Y-11816524D01*
X5740715Y-11816524D02*
X5778810Y-11816524D01*
X5778810Y-11816524D02*
X5797858Y-11807000D01*
X5797858Y-11807000D02*
X5807381Y-11787952D01*
X5807381Y-11787952D02*
X5807381Y-11778428D01*
X5807381Y-11778428D02*
X5797858Y-11759381D01*
X5797858Y-11759381D02*
X5778810Y-11749857D01*
X5778810Y-11749857D02*
X5750239Y-11749857D01*
X5750239Y-11749857D02*
X5731191Y-11740333D01*
X5731191Y-11740333D02*
X5721667Y-11721286D01*
X5721667Y-11721286D02*
X5721667Y-11711762D01*
X5721667Y-11711762D02*
X5731191Y-11692714D01*
X5731191Y-11692714D02*
X5750239Y-11683190D01*
X5750239Y-11683190D02*
X5778810Y-11683190D01*
X5778810Y-11683190D02*
X5797858Y-11692714D01*
X5921667Y-11816524D02*
X5902620Y-11807000D01*
X5902620Y-11807000D02*
X5893096Y-11787952D01*
X5893096Y-11787952D02*
X5893096Y-11616524D01*
X6026429Y-11816524D02*
X6007381Y-11807000D01*
X6007381Y-11807000D02*
X5997858Y-11797476D01*
X5997858Y-11797476D02*
X5988334Y-11778428D01*
X5988334Y-11778428D02*
X5988334Y-11721286D01*
X5988334Y-11721286D02*
X5997858Y-11702238D01*
X5997858Y-11702238D02*
X6007381Y-11692714D01*
X6007381Y-11692714D02*
X6026429Y-11683190D01*
X6026429Y-11683190D02*
X6055001Y-11683190D01*
X6055001Y-11683190D02*
X6074048Y-11692714D01*
X6074048Y-11692714D02*
X6083572Y-11702238D01*
X6083572Y-11702238D02*
X6093096Y-11721286D01*
X6093096Y-11721286D02*
X6093096Y-11778428D01*
X6093096Y-11778428D02*
X6083572Y-11797476D01*
X6083572Y-11797476D02*
X6074048Y-11807000D01*
X6074048Y-11807000D02*
X6055001Y-11816524D01*
X6055001Y-11816524D02*
X6026429Y-11816524D01*
X6150239Y-11683190D02*
X6226429Y-11683190D01*
X6178810Y-11616524D02*
X6178810Y-11787952D01*
X6178810Y-11787952D02*
X6188334Y-11807000D01*
X6188334Y-11807000D02*
X6207381Y-11816524D01*
X6207381Y-11816524D02*
X6226429Y-11816524D01*
X6283572Y-11807000D02*
X6302620Y-11816524D01*
X6302620Y-11816524D02*
X6340715Y-11816524D01*
X6340715Y-11816524D02*
X6359762Y-11807000D01*
X6359762Y-11807000D02*
X6369286Y-11787952D01*
X6369286Y-11787952D02*
X6369286Y-11778428D01*
X6369286Y-11778428D02*
X6359762Y-11759381D01*
X6359762Y-11759381D02*
X6340715Y-11749857D01*
X6340715Y-11749857D02*
X6312143Y-11749857D01*
X6312143Y-11749857D02*
X6293096Y-11740333D01*
X6293096Y-11740333D02*
X6283572Y-11721286D01*
X6283572Y-11721286D02*
X6283572Y-11711762D01*
X6283572Y-11711762D02*
X6293096Y-11692714D01*
X6293096Y-11692714D02*
X6312143Y-11683190D01*
X6312143Y-11683190D02*
X6340715Y-11683190D01*
X6340715Y-11683190D02*
X6359762Y-11692714D01*
X6435953Y-11892714D02*
X6445477Y-11883190D01*
X6445477Y-11883190D02*
X6464524Y-11854619D01*
X6464524Y-11854619D02*
X6474048Y-11835571D01*
X6474048Y-11835571D02*
X6483572Y-11807000D01*
X6483572Y-11807000D02*
X6493096Y-11759381D01*
X6493096Y-11759381D02*
X6493096Y-11721286D01*
X6493096Y-11721286D02*
X6483572Y-11673667D01*
X6483572Y-11673667D02*
X6474048Y-11645095D01*
X6474048Y-11645095D02*
X6464524Y-11626048D01*
X6464524Y-11626048D02*
X6445477Y-11597476D01*
X6445477Y-11597476D02*
X6435953Y-11587952D01*
X-145000Y-11944000D02*
X55000Y-12144000D01*
X55000Y-11944000D02*
X-145000Y-12144000D01*
X25711Y-12114711D02*
X25711Y-11973289D01*
X-115711Y-11973289D01*
X-115711Y-12114711D01*
X25711Y-12114711D01*
X293095Y-11955571D02*
X302619Y-11946048D01*
X302619Y-11946048D02*
X321667Y-11936524D01*
X321667Y-11936524D02*
X369286Y-11936524D01*
X369286Y-11936524D02*
X388333Y-11946048D01*
X388333Y-11946048D02*
X397857Y-11955571D01*
X397857Y-11955571D02*
X407381Y-11974619D01*
X407381Y-11974619D02*
X407381Y-11993667D01*
X407381Y-11993667D02*
X397857Y-12022238D01*
X397857Y-12022238D02*
X283571Y-12136524D01*
X283571Y-12136524D02*
X407381Y-12136524D01*
X493095Y-12117476D02*
X502619Y-12127000D01*
X502619Y-12127000D02*
X493095Y-12136524D01*
X493095Y-12136524D02*
X483571Y-12127000D01*
X483571Y-12127000D02*
X493095Y-12117476D01*
X493095Y-12117476D02*
X493095Y-12136524D01*
X674048Y-12003190D02*
X674048Y-12136524D01*
X626429Y-11927000D02*
X578810Y-12069857D01*
X578810Y-12069857D02*
X702619Y-12069857D01*
X788333Y-12136524D02*
X826428Y-12136524D01*
X826428Y-12136524D02*
X845476Y-12127000D01*
X845476Y-12127000D02*
X855000Y-12117476D01*
X855000Y-12117476D02*
X874048Y-12088905D01*
X874048Y-12088905D02*
X883571Y-12050809D01*
X883571Y-12050809D02*
X883571Y-11974619D01*
X883571Y-11974619D02*
X874048Y-11955571D01*
X874048Y-11955571D02*
X864524Y-11946048D01*
X864524Y-11946048D02*
X845476Y-11936524D01*
X845476Y-11936524D02*
X807381Y-11936524D01*
X807381Y-11936524D02*
X788333Y-11946048D01*
X788333Y-11946048D02*
X778809Y-11955571D01*
X778809Y-11955571D02*
X769286Y-11974619D01*
X769286Y-11974619D02*
X769286Y-12022238D01*
X769286Y-12022238D02*
X778809Y-12041286D01*
X778809Y-12041286D02*
X788333Y-12050809D01*
X788333Y-12050809D02*
X807381Y-12060333D01*
X807381Y-12060333D02*
X845476Y-12060333D01*
X845476Y-12060333D02*
X864524Y-12050809D01*
X864524Y-12050809D02*
X874048Y-12041286D01*
X874048Y-12041286D02*
X883571Y-12022238D01*
X978809Y-12136524D02*
X1016905Y-12136524D01*
X1016905Y-12136524D02*
X1035952Y-12127000D01*
X1035952Y-12127000D02*
X1045476Y-12117476D01*
X1045476Y-12117476D02*
X1064524Y-12088905D01*
X1064524Y-12088905D02*
X1074048Y-12050809D01*
X1074048Y-12050809D02*
X1074048Y-11974619D01*
X1074048Y-11974619D02*
X1064524Y-11955571D01*
X1064524Y-11955571D02*
X1055000Y-11946048D01*
X1055000Y-11946048D02*
X1035952Y-11936524D01*
X1035952Y-11936524D02*
X997857Y-11936524D01*
X997857Y-11936524D02*
X978809Y-11946048D01*
X978809Y-11946048D02*
X969286Y-11955571D01*
X969286Y-11955571D02*
X959762Y-11974619D01*
X959762Y-11974619D02*
X959762Y-12022238D01*
X959762Y-12022238D02*
X969286Y-12041286D01*
X969286Y-12041286D02*
X978809Y-12050809D01*
X978809Y-12050809D02*
X997857Y-12060333D01*
X997857Y-12060333D02*
X1035952Y-12060333D01*
X1035952Y-12060333D02*
X1055000Y-12050809D01*
X1055000Y-12050809D02*
X1064524Y-12041286D01*
X1064524Y-12041286D02*
X1074048Y-12022238D01*
X1159762Y-12136524D02*
X1159762Y-12003190D01*
X1159762Y-12022238D02*
X1169286Y-12012714D01*
X1169286Y-12012714D02*
X1188333Y-12003190D01*
X1188333Y-12003190D02*
X1216905Y-12003190D01*
X1216905Y-12003190D02*
X1235952Y-12012714D01*
X1235952Y-12012714D02*
X1245476Y-12031762D01*
X1245476Y-12031762D02*
X1245476Y-12136524D01*
X1245476Y-12031762D02*
X1255000Y-12012714D01*
X1255000Y-12012714D02*
X1274048Y-12003190D01*
X1274048Y-12003190D02*
X1302619Y-12003190D01*
X1302619Y-12003190D02*
X1321667Y-12012714D01*
X1321667Y-12012714D02*
X1331191Y-12031762D01*
X1331191Y-12031762D02*
X1331191Y-12136524D01*
X1426429Y-12136524D02*
X1426429Y-12003190D01*
X1426429Y-12022238D02*
X1435952Y-12012714D01*
X1435952Y-12012714D02*
X1455000Y-12003190D01*
X1455000Y-12003190D02*
X1483571Y-12003190D01*
X1483571Y-12003190D02*
X1502619Y-12012714D01*
X1502619Y-12012714D02*
X1512143Y-12031762D01*
X1512143Y-12031762D02*
X1512143Y-12136524D01*
X1512143Y-12031762D02*
X1521667Y-12012714D01*
X1521667Y-12012714D02*
X1540714Y-12003190D01*
X1540714Y-12003190D02*
X1569286Y-12003190D01*
X1569286Y-12003190D02*
X1588333Y-12012714D01*
X1588333Y-12012714D02*
X1597857Y-12031762D01*
X1597857Y-12031762D02*
X1597857Y-12136524D01*
X1988333Y-11927000D02*
X1816905Y-12184143D01*
X2245476Y-11936524D02*
X2264524Y-11936524D01*
X2264524Y-11936524D02*
X2283572Y-11946048D01*
X2283572Y-11946048D02*
X2293095Y-11955571D01*
X2293095Y-11955571D02*
X2302619Y-11974619D01*
X2302619Y-11974619D02*
X2312143Y-12012714D01*
X2312143Y-12012714D02*
X2312143Y-12060333D01*
X2312143Y-12060333D02*
X2302619Y-12098428D01*
X2302619Y-12098428D02*
X2293095Y-12117476D01*
X2293095Y-12117476D02*
X2283572Y-12127000D01*
X2283572Y-12127000D02*
X2264524Y-12136524D01*
X2264524Y-12136524D02*
X2245476Y-12136524D01*
X2245476Y-12136524D02*
X2226429Y-12127000D01*
X2226429Y-12127000D02*
X2216905Y-12117476D01*
X2216905Y-12117476D02*
X2207381Y-12098428D01*
X2207381Y-12098428D02*
X2197857Y-12060333D01*
X2197857Y-12060333D02*
X2197857Y-12012714D01*
X2197857Y-12012714D02*
X2207381Y-11974619D01*
X2207381Y-11974619D02*
X2216905Y-11955571D01*
X2216905Y-11955571D02*
X2226429Y-11946048D01*
X2226429Y-11946048D02*
X2245476Y-11936524D01*
X2397857Y-12117476D02*
X2407381Y-12127000D01*
X2407381Y-12127000D02*
X2397857Y-12136524D01*
X2397857Y-12136524D02*
X2388334Y-12127000D01*
X2388334Y-12127000D02*
X2397857Y-12117476D01*
X2397857Y-12117476D02*
X2397857Y-12136524D01*
X2531191Y-11936524D02*
X2550238Y-11936524D01*
X2550238Y-11936524D02*
X2569286Y-11946048D01*
X2569286Y-11946048D02*
X2578810Y-11955571D01*
X2578810Y-11955571D02*
X2588334Y-11974619D01*
X2588334Y-11974619D02*
X2597857Y-12012714D01*
X2597857Y-12012714D02*
X2597857Y-12060333D01*
X2597857Y-12060333D02*
X2588334Y-12098428D01*
X2588334Y-12098428D02*
X2578810Y-12117476D01*
X2578810Y-12117476D02*
X2569286Y-12127000D01*
X2569286Y-12127000D02*
X2550238Y-12136524D01*
X2550238Y-12136524D02*
X2531191Y-12136524D01*
X2531191Y-12136524D02*
X2512143Y-12127000D01*
X2512143Y-12127000D02*
X2502619Y-12117476D01*
X2502619Y-12117476D02*
X2493095Y-12098428D01*
X2493095Y-12098428D02*
X2483572Y-12060333D01*
X2483572Y-12060333D02*
X2483572Y-12012714D01*
X2483572Y-12012714D02*
X2493095Y-11974619D01*
X2493095Y-11974619D02*
X2502619Y-11955571D01*
X2502619Y-11955571D02*
X2512143Y-11946048D01*
X2512143Y-11946048D02*
X2531191Y-11936524D01*
X2693095Y-12136524D02*
X2731191Y-12136524D01*
X2731191Y-12136524D02*
X2750238Y-12127000D01*
X2750238Y-12127000D02*
X2759762Y-12117476D01*
X2759762Y-12117476D02*
X2778810Y-12088905D01*
X2778810Y-12088905D02*
X2788334Y-12050809D01*
X2788334Y-12050809D02*
X2788334Y-11974619D01*
X2788334Y-11974619D02*
X2778810Y-11955571D01*
X2778810Y-11955571D02*
X2769286Y-11946048D01*
X2769286Y-11946048D02*
X2750238Y-11936524D01*
X2750238Y-11936524D02*
X2712143Y-11936524D01*
X2712143Y-11936524D02*
X2693095Y-11946048D01*
X2693095Y-11946048D02*
X2683572Y-11955571D01*
X2683572Y-11955571D02*
X2674048Y-11974619D01*
X2674048Y-11974619D02*
X2674048Y-12022238D01*
X2674048Y-12022238D02*
X2683572Y-12041286D01*
X2683572Y-12041286D02*
X2693095Y-12050809D01*
X2693095Y-12050809D02*
X2712143Y-12060333D01*
X2712143Y-12060333D02*
X2750238Y-12060333D01*
X2750238Y-12060333D02*
X2769286Y-12050809D01*
X2769286Y-12050809D02*
X2778810Y-12041286D01*
X2778810Y-12041286D02*
X2788334Y-12022238D01*
X2902619Y-12022238D02*
X2883572Y-12012714D01*
X2883572Y-12012714D02*
X2874048Y-12003190D01*
X2874048Y-12003190D02*
X2864524Y-11984143D01*
X2864524Y-11984143D02*
X2864524Y-11974619D01*
X2864524Y-11974619D02*
X2874048Y-11955571D01*
X2874048Y-11955571D02*
X2883572Y-11946048D01*
X2883572Y-11946048D02*
X2902619Y-11936524D01*
X2902619Y-11936524D02*
X2940714Y-11936524D01*
X2940714Y-11936524D02*
X2959762Y-11946048D01*
X2959762Y-11946048D02*
X2969286Y-11955571D01*
X2969286Y-11955571D02*
X2978810Y-11974619D01*
X2978810Y-11974619D02*
X2978810Y-11984143D01*
X2978810Y-11984143D02*
X2969286Y-12003190D01*
X2969286Y-12003190D02*
X2959762Y-12012714D01*
X2959762Y-12012714D02*
X2940714Y-12022238D01*
X2940714Y-12022238D02*
X2902619Y-12022238D01*
X2902619Y-12022238D02*
X2883572Y-12031762D01*
X2883572Y-12031762D02*
X2874048Y-12041286D01*
X2874048Y-12041286D02*
X2864524Y-12060333D01*
X2864524Y-12060333D02*
X2864524Y-12098428D01*
X2864524Y-12098428D02*
X2874048Y-12117476D01*
X2874048Y-12117476D02*
X2883572Y-12127000D01*
X2883572Y-12127000D02*
X2902619Y-12136524D01*
X2902619Y-12136524D02*
X2940714Y-12136524D01*
X2940714Y-12136524D02*
X2959762Y-12127000D01*
X2959762Y-12127000D02*
X2969286Y-12117476D01*
X2969286Y-12117476D02*
X2978810Y-12098428D01*
X2978810Y-12098428D02*
X2978810Y-12060333D01*
X2978810Y-12060333D02*
X2969286Y-12041286D01*
X2969286Y-12041286D02*
X2959762Y-12031762D01*
X2959762Y-12031762D02*
X2940714Y-12022238D01*
X3150238Y-12003190D02*
X3150238Y-12136524D01*
X3102619Y-11927000D02*
X3055000Y-12069857D01*
X3055000Y-12069857D02*
X3178810Y-12069857D01*
X3245476Y-11936524D02*
X3245476Y-11974619D01*
X3321667Y-11936524D02*
X3321667Y-11974619D01*
X3616905Y-12212714D02*
X3607381Y-12203190D01*
X3607381Y-12203190D02*
X3588334Y-12174619D01*
X3588334Y-12174619D02*
X3578810Y-12155571D01*
X3578810Y-12155571D02*
X3569286Y-12127000D01*
X3569286Y-12127000D02*
X3559762Y-12079381D01*
X3559762Y-12079381D02*
X3559762Y-12041286D01*
X3559762Y-12041286D02*
X3569286Y-11993667D01*
X3569286Y-11993667D02*
X3578810Y-11965095D01*
X3578810Y-11965095D02*
X3588334Y-11946048D01*
X3588334Y-11946048D02*
X3607381Y-11917476D01*
X3607381Y-11917476D02*
X3616905Y-11907952D01*
X3731191Y-11936524D02*
X3750238Y-11936524D01*
X3750238Y-11936524D02*
X3769286Y-11946048D01*
X3769286Y-11946048D02*
X3778810Y-11955571D01*
X3778810Y-11955571D02*
X3788334Y-11974619D01*
X3788334Y-11974619D02*
X3797857Y-12012714D01*
X3797857Y-12012714D02*
X3797857Y-12060333D01*
X3797857Y-12060333D02*
X3788334Y-12098428D01*
X3788334Y-12098428D02*
X3778810Y-12117476D01*
X3778810Y-12117476D02*
X3769286Y-12127000D01*
X3769286Y-12127000D02*
X3750238Y-12136524D01*
X3750238Y-12136524D02*
X3731191Y-12136524D01*
X3731191Y-12136524D02*
X3712143Y-12127000D01*
X3712143Y-12127000D02*
X3702619Y-12117476D01*
X3702619Y-12117476D02*
X3693095Y-12098428D01*
X3693095Y-12098428D02*
X3683572Y-12060333D01*
X3683572Y-12060333D02*
X3683572Y-12012714D01*
X3683572Y-12012714D02*
X3693095Y-11974619D01*
X3693095Y-11974619D02*
X3702619Y-11955571D01*
X3702619Y-11955571D02*
X3712143Y-11946048D01*
X3712143Y-11946048D02*
X3731191Y-11936524D01*
X4035953Y-12136524D02*
X4035953Y-11936524D01*
X4121667Y-12136524D02*
X4121667Y-12031762D01*
X4121667Y-12031762D02*
X4112143Y-12012714D01*
X4112143Y-12012714D02*
X4093096Y-12003190D01*
X4093096Y-12003190D02*
X4064524Y-12003190D01*
X4064524Y-12003190D02*
X4045476Y-12012714D01*
X4045476Y-12012714D02*
X4035953Y-12022238D01*
X4245477Y-12136524D02*
X4226429Y-12127000D01*
X4226429Y-12127000D02*
X4216905Y-12117476D01*
X4216905Y-12117476D02*
X4207381Y-12098428D01*
X4207381Y-12098428D02*
X4207381Y-12041286D01*
X4207381Y-12041286D02*
X4216905Y-12022238D01*
X4216905Y-12022238D02*
X4226429Y-12012714D01*
X4226429Y-12012714D02*
X4245477Y-12003190D01*
X4245477Y-12003190D02*
X4274048Y-12003190D01*
X4274048Y-12003190D02*
X4293096Y-12012714D01*
X4293096Y-12012714D02*
X4302619Y-12022238D01*
X4302619Y-12022238D02*
X4312143Y-12041286D01*
X4312143Y-12041286D02*
X4312143Y-12098428D01*
X4312143Y-12098428D02*
X4302619Y-12117476D01*
X4302619Y-12117476D02*
X4293096Y-12127000D01*
X4293096Y-12127000D02*
X4274048Y-12136524D01*
X4274048Y-12136524D02*
X4245477Y-12136524D01*
X4426429Y-12136524D02*
X4407381Y-12127000D01*
X4407381Y-12127000D02*
X4397858Y-12107952D01*
X4397858Y-12107952D02*
X4397858Y-11936524D01*
X4578810Y-12127000D02*
X4559762Y-12136524D01*
X4559762Y-12136524D02*
X4521667Y-12136524D01*
X4521667Y-12136524D02*
X4502619Y-12127000D01*
X4502619Y-12127000D02*
X4493096Y-12107952D01*
X4493096Y-12107952D02*
X4493096Y-12031762D01*
X4493096Y-12031762D02*
X4502619Y-12012714D01*
X4502619Y-12012714D02*
X4521667Y-12003190D01*
X4521667Y-12003190D02*
X4559762Y-12003190D01*
X4559762Y-12003190D02*
X4578810Y-12012714D01*
X4578810Y-12012714D02*
X4588334Y-12031762D01*
X4588334Y-12031762D02*
X4588334Y-12050809D01*
X4588334Y-12050809D02*
X4493096Y-12069857D01*
X4664524Y-12127000D02*
X4683572Y-12136524D01*
X4683572Y-12136524D02*
X4721667Y-12136524D01*
X4721667Y-12136524D02*
X4740715Y-12127000D01*
X4740715Y-12127000D02*
X4750239Y-12107952D01*
X4750239Y-12107952D02*
X4750239Y-12098428D01*
X4750239Y-12098428D02*
X4740715Y-12079381D01*
X4740715Y-12079381D02*
X4721667Y-12069857D01*
X4721667Y-12069857D02*
X4693096Y-12069857D01*
X4693096Y-12069857D02*
X4674048Y-12060333D01*
X4674048Y-12060333D02*
X4664524Y-12041286D01*
X4664524Y-12041286D02*
X4664524Y-12031762D01*
X4664524Y-12031762D02*
X4674048Y-12012714D01*
X4674048Y-12012714D02*
X4693096Y-12003190D01*
X4693096Y-12003190D02*
X4721667Y-12003190D01*
X4721667Y-12003190D02*
X4740715Y-12012714D01*
X4988334Y-12060333D02*
X5140715Y-12060333D01*
X5064524Y-12136524D02*
X5064524Y-11984143D01*
X5378810Y-11955571D02*
X5388334Y-11946048D01*
X5388334Y-11946048D02*
X5407381Y-11936524D01*
X5407381Y-11936524D02*
X5455001Y-11936524D01*
X5455001Y-11936524D02*
X5474048Y-11946048D01*
X5474048Y-11946048D02*
X5483572Y-11955571D01*
X5483572Y-11955571D02*
X5493096Y-11974619D01*
X5493096Y-11974619D02*
X5493096Y-11993667D01*
X5493096Y-11993667D02*
X5483572Y-12022238D01*
X5483572Y-12022238D02*
X5369286Y-12136524D01*
X5369286Y-12136524D02*
X5493096Y-12136524D01*
X5721667Y-12127000D02*
X5740715Y-12136524D01*
X5740715Y-12136524D02*
X5778810Y-12136524D01*
X5778810Y-12136524D02*
X5797858Y-12127000D01*
X5797858Y-12127000D02*
X5807381Y-12107952D01*
X5807381Y-12107952D02*
X5807381Y-12098428D01*
X5807381Y-12098428D02*
X5797858Y-12079381D01*
X5797858Y-12079381D02*
X5778810Y-12069857D01*
X5778810Y-12069857D02*
X5750239Y-12069857D01*
X5750239Y-12069857D02*
X5731191Y-12060333D01*
X5731191Y-12060333D02*
X5721667Y-12041286D01*
X5721667Y-12041286D02*
X5721667Y-12031762D01*
X5721667Y-12031762D02*
X5731191Y-12012714D01*
X5731191Y-12012714D02*
X5750239Y-12003190D01*
X5750239Y-12003190D02*
X5778810Y-12003190D01*
X5778810Y-12003190D02*
X5797858Y-12012714D01*
X5921667Y-12136524D02*
X5902620Y-12127000D01*
X5902620Y-12127000D02*
X5893096Y-12107952D01*
X5893096Y-12107952D02*
X5893096Y-11936524D01*
X6026429Y-12136524D02*
X6007381Y-12127000D01*
X6007381Y-12127000D02*
X5997858Y-12117476D01*
X5997858Y-12117476D02*
X5988334Y-12098428D01*
X5988334Y-12098428D02*
X5988334Y-12041286D01*
X5988334Y-12041286D02*
X5997858Y-12022238D01*
X5997858Y-12022238D02*
X6007381Y-12012714D01*
X6007381Y-12012714D02*
X6026429Y-12003190D01*
X6026429Y-12003190D02*
X6055001Y-12003190D01*
X6055001Y-12003190D02*
X6074048Y-12012714D01*
X6074048Y-12012714D02*
X6083572Y-12022238D01*
X6083572Y-12022238D02*
X6093096Y-12041286D01*
X6093096Y-12041286D02*
X6093096Y-12098428D01*
X6093096Y-12098428D02*
X6083572Y-12117476D01*
X6083572Y-12117476D02*
X6074048Y-12127000D01*
X6074048Y-12127000D02*
X6055001Y-12136524D01*
X6055001Y-12136524D02*
X6026429Y-12136524D01*
X6150239Y-12003190D02*
X6226429Y-12003190D01*
X6178810Y-11936524D02*
X6178810Y-12107952D01*
X6178810Y-12107952D02*
X6188334Y-12127000D01*
X6188334Y-12127000D02*
X6207381Y-12136524D01*
X6207381Y-12136524D02*
X6226429Y-12136524D01*
X6283572Y-12127000D02*
X6302620Y-12136524D01*
X6302620Y-12136524D02*
X6340715Y-12136524D01*
X6340715Y-12136524D02*
X6359762Y-12127000D01*
X6359762Y-12127000D02*
X6369286Y-12107952D01*
X6369286Y-12107952D02*
X6369286Y-12098428D01*
X6369286Y-12098428D02*
X6359762Y-12079381D01*
X6359762Y-12079381D02*
X6340715Y-12069857D01*
X6340715Y-12069857D02*
X6312143Y-12069857D01*
X6312143Y-12069857D02*
X6293096Y-12060333D01*
X6293096Y-12060333D02*
X6283572Y-12041286D01*
X6283572Y-12041286D02*
X6283572Y-12031762D01*
X6283572Y-12031762D02*
X6293096Y-12012714D01*
X6293096Y-12012714D02*
X6312143Y-12003190D01*
X6312143Y-12003190D02*
X6340715Y-12003190D01*
X6340715Y-12003190D02*
X6359762Y-12012714D01*
X6435953Y-12212714D02*
X6445477Y-12203190D01*
X6445477Y-12203190D02*
X6464524Y-12174619D01*
X6464524Y-12174619D02*
X6474048Y-12155571D01*
X6474048Y-12155571D02*
X6483572Y-12127000D01*
X6483572Y-12127000D02*
X6493096Y-12079381D01*
X6493096Y-12079381D02*
X6493096Y-12041286D01*
X6493096Y-12041286D02*
X6483572Y-11993667D01*
X6483572Y-11993667D02*
X6474048Y-11965095D01*
X6474048Y-11965095D02*
X6464524Y-11946048D01*
X6464524Y-11946048D02*
X6445477Y-11917476D01*
X6445477Y-11917476D02*
X6435953Y-11907952D01*
M02*
